<svg width="56" height="56" viewBox="0 0 56 56" fill="none" xmlns="http://www.w3.org/2000/svg">
<rect x="0.5" y="0.5" width="55" height="55" rx="4.5" fill="white" stroke="#E0E0E0"/>
<path fill-rule="evenodd" clip-rule="evenodd" d="M24.8044 33.7007C24.4174 34.0947 23.7842 34.1004 23.3902 33.7134L18.2993 28.7134C18.1078 28.5254 18 28.2683 18 28C18 27.7317 18.1078 27.4746 18.2993 27.2866L23.3902 22.2866C23.7842 21.8996 24.4174 21.9053 24.8044 22.2993C25.1913 22.6933 25.1856 23.3265 24.7916 23.7134L21.4453 27L37 27C37.5523 27 38 27.4477 38 28C38 28.5523 37.5523 29 37 29L21.4453 29L24.7916 32.2866C25.1856 32.6735 25.1913 33.3067 24.8044 33.7007Z" fill="black"/>
</svg>
