<svg width="40" height="40" viewBox="0 0 40 40" fill="none" xmlns="http://www.w3.org/2000/svg">
<rect opacity="0.2" x="0.5" y="0.5" width="39" height="39" rx="9.5" stroke="white"/>
<path fill-rule="evenodd" clip-rule="evenodd" d="M27.7396 13.5174C28.0868 13.1703 28.0868 12.6075 27.7396 12.2603C27.3925 11.9132 26.8297 11.9132 26.4826 12.2603L20 18.7429L13.5174 12.2603C13.1703 11.9132 12.6075 11.9132 12.2604 12.2603C11.9132 12.6075 11.9132 13.1703 12.2604 13.5174L18.7429 20L12.2603 26.4826C11.9132 26.8297 11.9132 27.3925 12.2603 27.7397C12.6075 28.0868 13.1703 28.0868 13.5174 27.7397L20 21.2571L26.4826 27.7397C26.8297 28.0868 27.3925 28.0868 27.7397 27.7397C28.0868 27.3925 28.0868 26.8297 27.7397 26.4826L21.2571 20L27.7396 13.5174Z" fill="white"/>
</svg>
