<svg width="18" height="12" viewBox="0 0 18 12" fill="none" xmlns="http://www.w3.org/2000/svg">
<path fill-rule="evenodd" clip-rule="evenodd" d="M2.28578 6.23767C2.2344 6.15832 2.18841 6.08436 2.14771 6.0168C2.1931 5.94562 2.24458 5.86727 2.30221 5.78294C2.59239 5.35828 3.03258 4.7904 3.62716 4.22414C4.81463 3.09321 6.5801 2 9 2C11.4199 2 13.1854 3.09321 14.3728 4.22414C14.9674 4.7904 15.4076 5.35828 15.6978 5.78294C15.7554 5.86727 15.8069 5.94562 15.8523 6.0168C15.8116 6.08436 15.7656 6.15832 15.7142 6.23767C15.4419 6.65813 15.0236 7.22121 14.4458 7.783C13.2967 8.90018 11.5345 10 9 10C6.46551 10 4.70331 8.90018 3.55422 7.783C2.97637 7.22121 2.55808 6.65813 2.28578 6.23767ZM17.9091 6.41666C17.9093 6.4162 17.9095 6.41576 17 6L17.9095 6.41576C18.0352 6.14063 18.0297 5.82336 17.8944 5.55279L17 6C17.8944 5.55279 17.8942 5.55238 17.894 5.55196L17.8935 5.55102L17.8924 5.54878L17.8895 5.54295L17.8807 5.52588C17.8736 5.51215 17.8639 5.49374 17.8517 5.47097C17.8273 5.42545 17.7926 5.36241 17.7474 5.28436C17.6572 5.1284 17.5248 4.91171 17.3491 4.65456C16.9986 4.14172 16.4701 3.4596 15.7522 2.77586C14.3146 1.40679 12.0801 0 9 0C5.9199 0 3.68537 1.40679 2.24784 2.77586C1.52992 3.4596 1.00136 4.14172 0.650918 4.65456C0.4752 4.91171 0.342836 5.1284 0.252597 5.28436C0.20744 5.36241 0.172719 5.42545 0.148289 5.47097C0.13607 5.49374 0.126414 5.51215 0.119303 5.52588L0.11054 5.54295L0.107583 5.54878L0.10646 5.55102L0.105987 5.55196C0.105775 5.55238 0.105573 5.55279 1 6L0.105573 5.55279C-0.0297142 5.82336 -0.0352464 6.14063 0.0905256 6.41576L1 6C0.0905256 6.41576 0.0907267 6.4162 0.0909366 6.41666L0.0914019 6.41767L0.0924957 6.42005L0.095338 6.42617L0.103656 6.44382C0.110375 6.45795 0.119457 6.47677 0.130937 6.49995C0.153892 6.5463 0.186483 6.61021 0.229019 6.68916C0.31402 6.84692 0.439184 7.06559 0.607073 7.32483C0.941916 7.84187 1.4522 8.52879 2.16006 9.217C3.5824 10.5998 5.8202 12 9 12C12.1798 12 14.4176 10.5998 15.8399 9.217C16.5478 8.52879 17.0581 7.84187 17.3929 7.32483C17.5608 7.06559 17.686 6.84692 17.771 6.68916C17.8135 6.61021 17.8461 6.5463 17.8691 6.49995C17.8805 6.47677 17.8896 6.45795 17.8963 6.44382L17.9047 6.42617L17.9075 6.42005L17.9086 6.41767L17.9091 6.41666ZM9 5C8.44772 5 8 5.44771 8 6C8 6.55229 8.44772 7 9 7C9.55228 7 10 6.55229 10 6C10 5.44771 9.55228 5 9 5ZM12 6C12 7.65685 10.6569 9 9 9C7.34315 9 6 7.65686 6 6C6 4.34315 7.34315 3 9 3C10.6569 3 12 4.34314 12 6Z" fill="#9A9A9A"/>
</svg>
