<svg width="226" height="172" viewBox="0 0 226 172" fill="none" xmlns="http://www.w3.org/2000/svg">
<g clip-path="url(#clip0_410_76956)">
<circle opacity="0.25" cx="171.5" cy="104.5" r="38.5" fill="#E0E0E0" fill-opacity="0.3"/>
<path d="M33.2153 8.64444C35.6555 8.64444 37.6337 6.67292 37.6337 4.24092C37.6337 1.80893 35.6555 -0.162598 33.2153 -0.162598C30.7751 -0.162598 28.7969 1.80893 28.7969 4.24092C28.7969 6.67292 30.7751 8.64444 33.2153 8.64444Z" fill="#E0E0E0"/>
<path d="M94.0039 112.068V43.8415C94.0039 35.3224 81.8548 29.8072 71.6042 33.675C66.4028 35.6383 63.1433 39.6083 63.1899 43.9313L63.2552 50.0565L63.4758 70.5474" stroke="#9A9A9A" stroke-width="2" stroke-linecap="round" stroke-linejoin="round"/>
<path d="M130.735 27.5498L75.9707 32.4147" stroke="#9A9A9A" stroke-width="2" stroke-linecap="round" stroke-linejoin="round"/>
<path d="M94.2051 112.068L176.803 91.4938V41.1538C176.803 31.9968 169.383 24.4873 158.626 25.0726L138.1 26.8965" stroke="#9A9A9A" stroke-width="2" stroke-linecap="round" stroke-linejoin="round"/>
<path d="M140.613 28.6219V14.9809L151.488 13.8971V6.00049H133L133.239 29.2475L134.243 81.4053L142.203 80.3184L140.613 28.6219Z" fill="#908BCE"/>
<path d="M138.109 26.9247V13.2837L148.984 12.1998V4.30322H130.496L130.735 27.5502L131.739 79.7081L139.7 78.6211L138.109 26.9247Z" stroke="#9A9A9A" stroke-width="2" stroke-linecap="round" stroke-linejoin="round"/>
<path d="M126.695 104.429V168.587" stroke="#9A9A9A" stroke-width="2" stroke-linecap="round" stroke-linejoin="round"/>
<path d="M132.859 103.063V168.587" stroke="#9A9A9A" stroke-width="2" stroke-linecap="round" stroke-linejoin="round"/>
<path d="M143.816 100.333V168.587" stroke="#9A9A9A" stroke-width="2" stroke-linecap="round" stroke-linejoin="round"/>
<path d="M225.268 61.6663C228.27 61.6663 230.703 59.2414 230.703 56.2501C230.703 53.2589 228.27 50.834 225.268 50.834C222.267 50.834 219.834 53.2589 219.834 56.2501C219.834 59.2414 222.267 61.6663 225.268 61.6663Z" fill="#E0E0E0"/>
<path d="M18.4408 105.98L9.95508 104.429" stroke="#9A9A9A" stroke-width="2" stroke-linecap="round" stroke-linejoin="round"/>
<path d="M26.9449 118.268L23.875 125.449" stroke="#9A9A9A" stroke-width="2" stroke-linecap="round" stroke-linejoin="round"/>
<path d="M14.1961 115.635L6.84766 121.857" stroke="#9A9A9A" stroke-width="2" stroke-linecap="round" stroke-linejoin="round"/>
<path d="M75.0703 22.3969L78.6001 13.8252" stroke="#9A9A9A" stroke-width="2" stroke-linecap="round" stroke-linejoin="round"/>
<path d="M65.8853 22.3967L64.4746 18.1108" stroke="#9A9A9A" stroke-width="2" stroke-linecap="round" stroke-linejoin="round"/>
<path d="M84.5371 24.3415L89.6578 20.6626" stroke="#9A9A9A" stroke-width="2" stroke-linecap="round" stroke-linejoin="round"/>
<path d="M91.2602 74.0005H38V109.387H91.2602V74.0005Z" fill="#FCE036"/>
<path d="M87.6372 70.7056H34.377V106.655H87.6372V70.7056Z" stroke="#9A9A9A" stroke-width="2" stroke-linecap="round" stroke-linejoin="round"/>
<path d="M34.377 70.7056L60.0454 96.4423L87.6372 70.7056" stroke="#9A9A9A" stroke-width="2" stroke-linecap="round" stroke-linejoin="round"/>
<path d="M87.6373 106.655L69.9668 87.1895" stroke="#9A9A9A" stroke-width="2" stroke-linecap="round" stroke-linejoin="round"/>
<path d="M34.377 106.655L51.2738 87.6445" stroke="#9A9A9A" stroke-width="2" stroke-linecap="round" stroke-linejoin="round"/>
<path d="M93.4491 106.717H24.2242C23.917 106.717 23.668 106.965 23.668 107.272V111.821C23.668 112.127 23.917 112.375 24.2242 112.375H93.4491C93.7562 112.375 94.0053 112.127 94.0053 111.821V107.272C94.0053 106.965 93.7562 106.717 93.4491 106.717Z" stroke="#9A9A9A" stroke-width="2" stroke-linecap="round" stroke-linejoin="round"/>
</g>
<defs>
<clipPath id="clip0_410_76956">
<rect width="226" height="172" rx="86" fill="white"/>
</clipPath>
</defs>
</svg>
