<svg width="14" height="13" viewBox="0 0 14 13" fill="none" xmlns="http://www.w3.org/2000/svg">
<path fill-rule="evenodd" clip-rule="evenodd" d="M13.4872 0.711449C13.6733 0.910548 13.7195 1.20288 13.6038 1.44965L8.6038 12.1163C8.50166 12.3342 8.28999 12.4802 8.05001 12.4982C7.81002 12.5162 7.57896 12.4034 7.44546 12.2032L6.20443 10.3416L4.33092 11.4122C4.12459 11.5301 3.87109 11.5292 3.66555 11.41C3.46 11.2907 3.3335 11.071 3.3335 10.8334V7.59994L0.729405 6.44257C0.483416 6.33324 0.327314 6.0867 0.333684 5.81758C0.340054 5.54847 0.507646 5.30959 0.758533 5.21202L12.7585 0.545355C13.0125 0.446575 13.3011 0.512349 13.4872 0.711449ZM4.66683 8.24538L4.877 8.35047L5.46307 9.22958L4.66683 9.68457V8.24538ZM6.21354 7.95157L7.89864 10.4792L11.0582 3.73881L6.21354 7.95157ZM9.67408 3.17547L2.73398 5.8744L4.27092 6.55748C4.28015 6.56158 4.28928 6.56589 4.29831 6.57041L5.23266 7.03758L9.67408 3.17547Z" fill="#254D9B"/>
</svg>
