<svg width="559" height="242" viewBox="0 0 559 242" fill="none" xmlns="http://www.w3.org/2000/svg">
<rect x="51.999" y="74" width="301.123" height="145.274" fill="#2D323D" stroke="#908BCE" stroke-width="2" stroke-miterlimit="10"/>
<path d="M471.136 11.0961C473.17 10.4473 475.078 10.2851 477.112 10.2851C479.019 10.2851 481.054 10.4473 482.961 10.7717C484.868 11.0961 486.903 11.7449 488.81 12.8803C490.717 14.0157 492.625 15.6377 493.769 18.3952L491.607 17.7463L493.896 15.4755C494.786 14.8267 495.549 14.0157 496.312 13.3669C497.965 12.0693 499.745 10.9339 501.652 10.1229C503.56 9.31186 505.467 8.66305 507.374 8.33865C509.409 8.17645 511.316 8.17644 513.35 8.82525C513.732 8.98745 513.859 9.47406 513.732 9.79846C513.605 10.2851 513.35 10.4473 512.969 10.2851H512.842C511.189 9.79846 509.281 9.96067 507.501 10.2851C505.721 10.6095 503.941 11.4205 502.288 12.3937C500.635 13.3669 499.109 14.5023 497.583 15.7999C496.821 16.4487 496.058 17.2597 495.422 17.9085L493.387 20.1794C492.752 20.8282 491.989 20.666 491.48 20.0172L491.353 20.1794L491.226 19.855C490.717 18.0707 489.319 16.6109 487.793 15.6377C486.267 14.6645 484.487 13.8535 482.58 13.3669C480.8 12.8803 478.892 12.5559 476.985 12.3937C475.078 12.2315 473.17 12.2315 471.518 12.7181H471.39C471.009 12.8803 470.755 12.5559 470.627 12.0693C470.627 11.5827 470.755 11.0961 471.136 11.0961Z" fill="#ACABBE"/>
<path d="M398.481 81.4715C399.631 81.1713 400.71 81.0962 401.861 81.0962C402.939 81.0962 404.09 81.1713 405.168 81.3214C406.247 81.4715 407.397 81.7717 408.476 82.2971C409.555 82.8225 410.633 83.5731 411.28 84.8491L410.058 84.5488L411.352 83.498C411.856 83.1978 412.287 82.8225 412.719 82.5223C413.653 81.9218 414.66 81.3964 415.739 81.0211C416.817 80.6459 417.896 80.3456 418.974 80.1955C420.125 80.1204 421.203 80.1205 422.354 80.4207C422.57 80.4957 422.642 80.7209 422.57 80.871C422.498 81.0962 422.354 81.1713 422.138 81.0962H422.066C421.132 80.871 420.053 80.9461 419.046 81.0962C418.04 81.2463 417.033 81.6216 416.098 82.0719C415.163 82.5223 414.3 83.0477 413.438 83.6481C413.006 83.9484 412.575 84.3237 412.215 84.6239L411.065 85.6747C410.705 85.9749 410.274 85.8999 409.986 85.5996L409.914 85.5246L409.842 85.3745C409.555 84.5488 408.764 83.8733 407.901 83.423C407.038 82.9726 406.031 82.5973 404.953 82.3722C403.946 82.147 402.867 81.9969 401.789 81.9218C400.71 81.8468 399.631 81.8468 398.697 82.0719H398.625C398.409 82.147 398.265 81.9969 398.193 81.7717C398.193 81.6967 398.337 81.4715 398.481 81.4715Z" fill="#ACABBE"/>
<path d="M195.181 50.1835C197.288 49.6158 199.263 49.4739 201.37 49.4739C203.345 49.4739 205.453 49.6158 207.428 49.8996C209.403 50.1835 211.51 50.7512 213.486 51.7447C215.461 52.7382 217.437 54.1574 218.622 56.5702L216.383 56.0025L218.753 54.0155C219.675 53.4478 220.465 52.7382 221.256 52.1705C222.968 51.0351 224.811 50.0416 226.787 49.3319C228.762 48.6223 230.737 48.0546 232.713 47.7707C234.82 47.6288 236.795 47.6288 238.902 48.1965C239.297 48.3385 239.429 48.7642 239.297 49.0481C239.166 49.4739 238.902 49.6158 238.507 49.4739H238.376C236.664 49.0481 234.688 49.19 232.845 49.4739C231.001 49.7577 229.157 50.4673 227.445 51.3189C225.733 52.1705 224.153 53.1639 222.573 54.2994C221.782 54.8671 220.992 55.5767 220.334 56.1444L218.227 58.1314C217.568 58.6991 216.778 58.5572 216.251 57.9895L216.12 57.8475L215.988 57.5637C215.461 56.0025 214.013 54.7251 212.432 53.8736C210.852 53.022 209.008 52.3124 207.033 51.8866C205.189 51.4608 203.214 51.177 201.238 51.0351C199.263 50.8931 197.288 50.8931 195.576 51.3189H195.444C195.049 51.4608 194.786 51.177 194.654 50.7512C194.654 50.6093 194.917 50.1835 195.181 50.1835Z" fill="#ACABBE"/>
<path d="M132.519 29.5161C134.358 28.9414 136.082 28.7977 137.921 28.7977C139.645 28.7977 141.484 28.9414 143.208 29.2287C144.932 29.5161 146.771 30.0908 148.495 31.0966C150.219 32.1024 151.943 33.5393 152.977 35.9819L151.023 35.4072L153.092 33.3956C153.896 32.8208 154.586 32.1024 155.276 31.5277C156.77 30.3782 158.379 29.3724 160.103 28.654C161.827 27.9356 163.551 27.3608 165.275 27.0735C167.114 26.9298 168.838 26.9298 170.677 27.5045C171.022 27.6482 171.137 28.0793 171.022 28.3666C170.907 28.7977 170.677 28.9414 170.332 28.7977H170.217C168.723 28.3666 166.999 28.5103 165.39 28.7977C163.781 29.0851 162.172 29.8035 160.678 30.6656C159.183 31.5277 157.804 32.5335 156.425 33.6829C155.735 34.2577 155.046 34.9761 154.471 35.5508L152.632 37.5624C152.058 38.1372 151.368 37.9935 150.908 37.4187L150.793 37.275L150.678 36.9877C150.219 35.4072 148.954 34.114 147.575 33.2519C146.196 32.3898 144.587 31.6714 142.863 31.2403C141.254 30.8093 139.53 30.5219 137.806 30.3782C136.082 30.2345 134.358 30.2345 132.864 30.6656H132.749C132.404 30.8093 132.174 30.5219 132.059 30.0908C132.059 29.9472 132.289 29.5161 132.519 29.5161Z" fill="#ACABBE"/>
<path d="M469.576 60.371C471.61 59.8844 473.518 59.7628 475.552 59.7628C477.459 59.7628 479.494 59.8844 481.401 60.1277C483.308 60.371 485.343 60.8576 487.25 61.7092C489.157 62.5607 491.064 63.7772 492.209 65.8453L490.047 65.3587L492.336 63.6556C493.226 63.169 493.989 62.5607 494.752 62.0741C496.405 61.1009 498.185 60.2494 500.092 59.6411C501.999 59.0328 503.907 58.5462 505.814 58.3029C507.848 58.1813 509.756 58.1813 511.79 58.6679C512.172 58.7895 512.299 59.1545 512.172 59.3978C512.044 59.7627 511.79 59.8844 511.409 59.7628H511.281C509.629 59.3978 507.721 59.5195 505.941 59.7628C504.161 60.0061 502.381 60.6143 500.728 61.3442C499.075 62.0741 497.549 62.9257 496.023 63.8989C495.26 64.3855 494.498 64.9938 493.862 65.4804L491.827 67.1835C491.192 67.6701 490.429 67.5484 489.92 67.0618L489.793 66.9402L489.666 66.6969C489.157 65.3587 487.759 64.2639 486.233 63.5339C484.707 62.804 482.927 62.1958 481.02 61.8308C479.239 61.4659 477.332 61.2226 475.425 61.1009C473.518 60.9793 471.61 60.9793 469.957 61.3442H469.83C469.449 61.4659 469.195 61.2226 469.067 60.8576C469.067 60.736 469.195 60.371 469.576 60.371Z" fill="#ACABBE"/>
<path d="M353 99L417.267 149H432" stroke="#908BCE" stroke-width="2" stroke-miterlimit="10"/>
<path d="M353 197L417 149" stroke="#908BCE" stroke-width="2" stroke-miterlimit="10"/>
<path d="M437.45 139.662L437.097 138.062C437.097 138.062 438.454 135.588 439.135 134.307C439.903 133.031 440.616 132.806 443.87 132.542C447.128 132.189 449.606 131.707 448.502 134.371C447.31 137.029 443.979 143.7 443.979 143.7L437.45 139.662Z" fill="#2D323D" stroke="#908BCE" stroke-width="2" stroke-miterlimit="10"/>
<path d="M506.025 142.532L528.731 110.643C529.205 109.966 529.931 109.478 530.731 109.257C532.239 108.899 534.813 108.247 537.285 107.852C540.995 107.261 545.228 106.697 543.53 110.646C541.827 114.682 530.94 141.673 530.94 141.673L506.025 142.532Z" fill="#2D323D" stroke="#908BCE" stroke-width="2" stroke-miterlimit="10"/>
<path d="M436.073 135.814C436.335 135.828 447.869 146.189 447.869 146.189L486.693 140.546L508.635 141.195C508.635 141.195 527.141 140.607 532.816 140.911C538.491 141.215 546.041 142.497 546.701 146.57C547.36 150.643 548.973 151.607 546.527 153.144C544.169 154.685 534.805 161.204 521.893 160.337C508.98 159.469 493.69 162.161 493.69 162.161C493.69 162.161 493.604 160.488 489.413 160.264C485.222 160.039 433.441 152.437 433.441 152.437C433.441 152.437 424.875 152.153 425.849 143.692C426.91 135.235 429.782 135.565 431.62 135.575C433.55 135.503 436.073 135.814 436.073 135.814Z" fill="#2D323D" stroke="#908BCE" stroke-width="2" stroke-miterlimit="10"/>
<path d="M434.393 144.507L442.601 144.947C442.601 144.947 437.758 152.064 436.011 153.639C434.264 155.213 430.884 157.842 427.585 157.314C424.285 156.786 425.169 154.989 426.153 152.934C427.138 150.88 428.261 147.867 428.261 147.867L434.393 144.507Z" fill="#2D323D" stroke="#908BCE" stroke-width="2" stroke-miterlimit="10"/>
<path d="M522.528 158.358C515.888 156.421 511.453 155.832 503.648 157.697C495.844 159.562 492.787 161.066 492.787 161.066L477.074 188.236C476.108 189.941 477.311 192.025 479.232 192.128C483.079 192.246 488.709 191.758 491.941 188.594C497.119 183.428 522.528 158.358 522.528 158.358Z" fill="#2D323D" stroke="#908BCE" stroke-width="2" stroke-miterlimit="10"/>
<path opacity="0.4" d="M556.227 148.562C556.199 149.087 556.171 149.612 556.148 150.05C555.182 160.01 549.874 167.63 543.848 167.306C539.395 167.068 535.697 162.478 534.202 155.987C533.638 153.41 533.345 150.672 533.502 147.695C533.507 147.607 533.516 147.432 533.521 147.344C533.864 140.864 536 135.27 539.067 131.922C541.022 129.743 543.454 128.468 545.987 128.604C546.161 128.613 546.249 128.618 546.423 128.627C551.819 129.268 555.916 136.25 556.412 145.059C556.265 146.192 556.292 147.336 556.227 148.562Z" fill="#908BCE"/>
<path d="M524.939 140.915C522.694 141.937 521.419 144.503 520.949 146.762C520.032 150.84 520.945 155.105 522.764 158.803C523.081 159.435 523.485 160.071 523.899 160.533" stroke="#908BCE" stroke-width="2" stroke-miterlimit="10"/>
<path d="M485.809 140.666L485.229 143.357L491.904 147.929L504.795 147.566C505.934 147.54 506.858 146.623 506.914 145.573L506.984 144.259L508.635 141.187L506.614 139.674C505.856 139.107 504.997 138.797 504.036 138.746L492.915 138.764C492.478 138.741 492.037 138.805 491.679 138.961L485.809 140.666Z" fill="url(#paint0_linear_1_8702)" stroke="#908BCE" stroke-width="2" stroke-miterlimit="10"/>
<path d="M502.262 147.607L501.647 144.324L501.97 141.531L502.294 138.738" fill="white"/>
<path d="M502.262 147.607L501.647 144.324L501.97 141.531L502.294 138.738" stroke="#9A9A9A" stroke-width="2" stroke-miterlimit="10"/>
<path d="M491.91 147.931L491.341 143.773L491.578 140.975L491.864 138.883" fill="white"/>
<path d="M491.91 147.931L491.341 143.773L491.578 140.975L491.864 138.883" stroke="#9A9A9A" stroke-width="2" stroke-miterlimit="10"/>
<path d="M546.257 128.53L545.477 143.242L544.167 143.172L543.22 144.526L538.983 131.916C540.938 129.737 543.37 128.463 545.903 128.598C545.995 128.516 546.169 128.525 546.257 128.53Z" fill="#2D323D"/>
<path d="M556.23 148.56C556.202 149.085 556.174 149.611 556.151 150.049L550.554 149.924L550.623 148.611L549.272 147.66L556.328 145.053C556.268 146.191 556.295 147.334 556.23 148.56Z" fill="#2D323D"/>
<path d="M543.348 150.419L534.122 155.983C533.558 153.407 533.265 150.669 533.423 147.691L542.155 148.16L542.085 149.473L543.348 150.419Z" fill="#2D323D"/>
<path d="M491.44 163.366C494.078 163.156 497.158 162.882 497.158 162.882L483.809 185.088L478.817 185.083" fill="#2D323D"/>
<path d="M491.44 163.366C494.078 163.156 497.158 162.882 497.158 162.882L483.809 185.088L478.817 185.083" stroke="#908BCE" stroke-width="2" stroke-miterlimit="10"/>
<path d="M511.518 134.749L516.408 135.011L530.8 112.95L527.22 112.758" fill="#2D323D"/>
<path d="M511.518 134.749L516.408 135.011L530.8 112.95L527.22 112.758" stroke="#908BCE" stroke-width="2" stroke-miterlimit="10"/>
<path d="M522.405 150.791C522.742 150.81 523.03 150.55 523.048 150.211C523.066 149.873 522.807 149.584 522.47 149.565C522.132 149.547 521.844 149.807 521.826 150.146C521.808 150.484 522.067 150.773 522.405 150.791Z" fill="#908BCE"/>
<path d="M522.82 154.415C523.157 154.433 523.446 154.173 523.464 153.835C523.482 153.496 523.222 153.207 522.885 153.189C522.547 153.171 522.259 153.431 522.241 153.769C522.223 154.108 522.482 154.397 522.82 154.415Z" fill="#908BCE"/>
<path d="M524.036 157.906C524.374 157.924 524.662 157.664 524.68 157.325C524.698 156.987 524.439 156.698 524.101 156.68C523.763 156.662 523.475 156.921 523.457 157.26C523.439 157.598 523.698 157.888 524.036 157.906Z" fill="#908BCE"/>
<path d="M522.953 147.044C523.291 147.062 523.579 146.803 523.597 146.464C523.615 146.126 523.355 145.837 523.018 145.818C522.68 145.8 522.392 146.06 522.374 146.399C522.356 146.737 522.615 147.026 522.953 147.044Z" fill="#908BCE"/>
<path d="M524.789 143.717C525.126 143.735 525.414 143.476 525.432 143.137C525.45 142.798 525.191 142.509 524.853 142.491C524.516 142.473 524.228 142.733 524.21 143.071C524.192 143.41 524.451 143.699 524.789 143.717Z" fill="#908BCE"/>
<path d="M543.672 167.298L544.015 152.562L545.325 152.633L546.273 151.278L550.863 163.82C548.904 166.086 546.559 167.365 544.109 167.322C543.934 167.312 543.847 167.308 543.672 167.298Z" fill="#2D323D"/>
<path d="M544.165 143.172C543.245 144.001 539.809 149.35 543.989 154.755C548.481 152.625 551.63 151.037 551.502 148.483C551.467 145.847 544.165 143.172 544.165 143.172Z" fill="#33669A" stroke="#908BCE" stroke-width="2" stroke-miterlimit="10"/>
<path d="M556.227 148.562C556.199 149.087 556.171 149.612 556.148 150.05C555.182 160.01 549.874 167.63 543.848 167.306C539.395 167.068 535.697 162.478 534.202 155.987C533.638 153.41 533.345 150.672 533.502 147.695C533.507 147.607 533.516 147.432 533.521 147.344C533.864 140.864 536 135.27 539.067 131.922C541.022 129.743 543.454 128.468 545.987 128.604C546.161 128.613 546.249 128.618 546.423 128.627C551.819 129.268 555.916 136.25 556.412 145.059C556.265 146.192 556.292 147.336 556.227 148.562Z" stroke="#908BCE" stroke-width="2" stroke-miterlimit="10"/>
<path d="M452.426 221.701C452.426 225.64 449.249 228.825 445.286 228.825C445.218 228.825 444.637 228.825 440.366 228.825C437.394 228.825 432.646 228.825 425.061 228.825H421.44C416.692 228.928 412.899 225.126 412.899 220.536C412.899 215.912 416.726 212.076 421.543 212.316C425.676 199.369 444.603 201.184 446.208 214.576C449.761 215.022 452.426 218.036 452.426 221.701Z" fill="#21242C" stroke="#908BCE" stroke-width="2" stroke-miterlimit="10"/>
<path d="M446.109 214.611C445.836 214.577 445.562 214.577 445.289 214.577C443.888 214.577 442.556 214.988 441.429 215.708" fill="white"/>
<path d="M446.109 214.611C445.836 214.577 445.562 214.577 445.289 214.577C443.888 214.577 442.556 214.988 441.429 215.708" stroke="#9A9A9A" stroke-width="2" stroke-miterlimit="10" stroke-linecap="round"/>
<path d="M421.539 212.315C421.129 213.548 420.924 214.85 420.924 216.22C420.924 216.768 420.958 217.282 421.026 217.796" fill="white"/>
<path d="M421.539 212.315C421.129 213.548 420.924 214.85 420.924 216.22C420.924 216.768 420.958 217.282 421.026 217.796" stroke="#9A9A9A" stroke-width="2" stroke-miterlimit="10" stroke-linecap="round" stroke-linejoin="round"/>
<path d="M179.94 228.476C179.94 235.235 174.488 240.701 167.688 240.701C167.571 240.701 166.574 240.701 159.246 240.701C154.146 240.701 145.998 240.701 132.984 240.701H126.77C118.622 240.877 112.115 234.354 112.115 226.478C112.115 218.543 118.68 211.961 126.946 212.372C134.039 190.156 166.516 193.271 169.271 216.251C175.367 217.015 179.94 222.187 179.94 228.476Z" fill="#21242C" stroke="#908BCE" stroke-width="2" stroke-miterlimit="10"/>
<path d="M169.091 216.31C168.622 216.251 168.153 216.251 167.684 216.251C165.281 216.251 162.995 216.957 161.06 218.192" fill="#21242C"/>
<path d="M169.091 216.31C168.622 216.251 168.153 216.251 167.684 216.251C165.281 216.251 162.995 216.957 161.06 218.192" stroke="#908BCE" stroke-width="2" stroke-miterlimit="10"/>
<path d="M126.943 212.372C126.24 214.487 125.888 216.721 125.888 219.072C125.888 220.012 125.947 220.894 126.064 221.775" fill="#21242C"/>
<path d="M126.943 212.372C126.24 214.487 125.888 216.721 125.888 219.072C125.888 220.012 125.947 220.894 126.064 221.775" stroke="#908BCE" stroke-width="2" stroke-miterlimit="10"/>
<path d="M100.702 157H103.366V148.696C103.366 146.752 103.126 144.736 103.006 142.888H103.126L104.974 146.608L110.806 157H113.686V139.336H111.022V147.592C111.022 149.488 111.238 151.648 111.406 153.448H111.286L109.438 149.728L103.558 139.336H100.702V157ZM123.391 157.336C126.655 157.336 129.607 154.792 129.607 150.424C129.607 146.008 126.655 143.464 123.391 143.464C120.103 143.464 117.175 146.008 117.175 150.424C117.175 154.792 120.103 157.336 123.391 157.336ZM123.391 155.056C121.303 155.056 120.031 153.208 120.031 150.424C120.031 147.616 121.303 145.768 123.391 145.768C125.455 145.768 126.775 147.616 126.775 150.424C126.775 153.208 125.455 155.056 123.391 155.056ZM136.66 157.336C137.644 157.336 138.532 157.072 139.276 156.832L138.772 154.792C138.364 154.96 137.812 155.128 137.356 155.128C135.988 155.128 135.412 154.288 135.412 152.728V146.008H138.868V143.8H135.412V140.152H133.108L132.796 143.8L130.732 143.944V146.008H132.652V152.704C132.652 155.464 133.708 157.336 136.66 157.336ZM141.735 157H144.519V147.64C145.671 146.488 146.511 145.864 147.735 145.864C149.271 145.864 149.943 146.752 149.943 149.056V157H152.727V148.696C152.727 145.36 151.479 143.464 148.671 143.464C146.871 143.464 145.527 144.448 144.399 145.552L144.519 142.936V137.896H141.735V157ZM156.642 157H159.426V143.8H156.642V157ZM158.034 141.328C159.042 141.328 159.762 140.68 159.762 139.672C159.762 138.688 159.042 138.04 158.034 138.04C157.002 138.04 156.33 138.688 156.33 139.672C156.33 140.68 157.002 141.328 158.034 141.328ZM163.556 157H166.34V147.64C167.492 146.488 168.332 145.864 169.556 145.864C171.092 145.864 171.764 146.752 171.764 149.056V157H174.548V148.696C174.548 145.36 173.3 143.464 170.492 143.464C168.692 143.464 167.324 144.448 166.124 145.648H166.052L165.812 143.8H163.556V157ZM183.068 162.928C187.292 162.928 189.98 160.864 189.98 158.32C189.98 156.064 188.348 155.104 185.228 155.104H182.78C181.124 155.104 180.572 154.6 180.572 153.832C180.572 153.184 180.884 152.8 181.292 152.44C181.892 152.704 182.564 152.824 183.14 152.824C185.924 152.824 188.108 151.192 188.108 148.288C188.108 147.28 187.748 146.416 187.244 145.888H189.74V143.8H185.084C184.58 143.608 183.908 143.464 183.14 143.464C180.428 143.464 178.028 145.216 178.028 148.216C178.028 149.776 178.892 151.048 179.78 151.72V151.816C179.036 152.344 178.316 153.232 178.316 154.264C178.316 155.344 178.82 156.04 179.516 156.472V156.592C178.292 157.312 177.596 158.344 177.596 159.472C177.596 161.752 179.9 162.928 183.068 162.928ZM183.14 151.048C181.796 151.048 180.668 149.968 180.668 148.216C180.668 146.44 181.772 145.432 183.14 145.432C184.532 145.432 185.636 146.44 185.636 148.216C185.636 149.968 184.508 151.048 183.14 151.048ZM183.476 161.104C181.292 161.104 179.948 160.336 179.948 159.064C179.948 158.392 180.284 157.72 181.076 157.12C181.628 157.264 182.204 157.312 182.828 157.312H184.82C186.428 157.312 187.292 157.672 187.292 158.776C187.292 159.976 185.78 161.104 183.476 161.104ZM198.038 157H200.846V148.984H208.406V157H211.19V139.336H208.406V146.56H200.846V139.336H198.038V157ZM221.107 157.336C222.835 157.336 224.347 156.76 225.571 155.944L224.611 154.168C223.627 154.792 222.643 155.152 221.467 155.152C219.187 155.152 217.603 153.664 217.387 151.144H225.955C226.027 150.808 226.075 150.28 226.075 149.728C226.075 145.984 224.179 143.464 220.699 143.464C217.627 143.464 214.675 146.128 214.675 150.424C214.675 154.768 217.507 157.336 221.107 157.336ZM217.339 149.224C217.627 146.92 219.091 145.648 220.747 145.648C222.667 145.648 223.675 146.944 223.675 149.224H217.339ZM229.181 157H231.965V148.792C232.781 146.704 234.077 145.936 235.133 145.936C235.685 145.936 236.021 146.008 236.477 146.152L236.957 143.752C236.549 143.56 236.141 143.464 235.493 143.464C234.077 143.464 232.685 144.472 231.749 146.176H231.677L231.437 143.8H229.181V157ZM244.146 157.336C245.874 157.336 247.386 156.76 248.61 155.944L247.65 154.168C246.666 154.792 245.682 155.152 244.506 155.152C242.226 155.152 240.642 153.664 240.426 151.144H248.994C249.066 150.808 249.114 150.28 249.114 149.728C249.114 145.984 247.218 143.464 243.738 143.464C240.666 143.464 237.714 146.128 237.714 150.424C237.714 154.768 240.546 157.336 244.146 157.336ZM240.378 149.224C240.666 146.92 242.13 145.648 243.786 145.648C245.706 145.648 246.714 146.944 246.714 149.224H240.378ZM257.85 157H260.514V148.696C260.514 146.752 260.274 144.736 260.154 142.888H260.274L262.122 146.608L267.954 157H270.834V139.336H268.17V147.592C268.17 149.488 268.386 151.648 268.554 153.448H268.434L266.586 149.728L260.706 139.336H257.85V157ZM280.539 157.336C283.803 157.336 286.755 154.792 286.755 150.424C286.755 146.008 283.803 143.464 280.539 143.464C277.251 143.464 274.323 146.008 274.323 150.424C274.323 154.792 277.251 157.336 280.539 157.336ZM280.539 155.056C278.451 155.056 277.179 153.208 277.179 150.424C277.179 147.616 278.451 145.768 280.539 145.768C282.603 145.768 283.923 147.616 283.923 150.424C283.923 153.208 282.603 155.056 280.539 155.056ZM291.903 157H295.095L296.727 150.52C297.039 149.272 297.279 148.048 297.543 146.656H297.663C297.951 148.048 298.191 149.248 298.503 150.496L300.183 157H303.495L306.927 143.8H304.311L302.631 150.952C302.343 152.224 302.127 153.448 301.863 154.696H301.767C301.455 153.448 301.191 152.224 300.879 150.952L298.983 143.8H296.415L294.567 150.952C294.231 152.2 293.967 153.448 293.703 154.696H293.583C293.343 153.448 293.127 152.224 292.887 150.952L291.135 143.8H288.351L291.903 157Z" fill="#908BCE"/>
<path d="M364.56 22.4674C364.56 27.0286 360.881 30.7172 356.292 30.7172C356.213 30.7172 355.54 30.7172 350.595 30.7172C347.153 30.7172 341.655 30.7172 332.872 30.7172H328.679C323.18 30.8361 318.789 26.4336 318.789 21.1189C318.789 15.7644 323.22 11.3222 328.798 11.5999C333.584 -3.39251 355.501 -1.2904 357.36 14.2176C361.474 14.7332 364.56 18.2235 364.56 22.4674Z" fill="#21242C" stroke="#908BCE" stroke-width="2" stroke-miterlimit="10"/>
<path d="M357.238 14.257C356.921 14.2173 356.605 14.2173 356.289 14.2173C354.667 14.2173 353.124 14.6935 351.818 15.5269" fill="#21242C"/>
<path d="M357.238 14.257C356.921 14.2173 356.605 14.2173 356.289 14.2173C354.667 14.2173 353.124 14.6935 351.818 15.5269" stroke="#908BCE" stroke-width="2" stroke-miterlimit="10"/>
<path d="M328.801 11.6001C328.326 13.028 328.089 14.5351 328.089 16.1217C328.089 16.7563 328.128 17.3512 328.208 17.9461" fill="#21242C"/>
<path d="M328.801 11.6001C328.326 13.028 328.089 14.5351 328.089 16.1217C328.089 16.7563 328.128 17.3512 328.208 17.9461" stroke="#908BCE" stroke-width="2" stroke-miterlimit="10"/>
<path d="M88.8978 82.7593C88.8978 91.4521 81.8862 98.4818 73.1405 98.4818C72.9897 98.4818 71.7081 98.4818 62.2839 98.4818C55.7246 98.4818 45.2449 98.4818 28.5076 98.4818H20.5159C10.0362 98.7086 1.66748 90.3182 1.66748 80.1893C1.66748 69.9848 10.1116 61.5188 20.742 62.0479C29.8647 33.4752 71.6327 37.4815 75.1762 67.0368C83.0171 68.0194 88.8978 74.6713 88.8978 82.7593Z" fill="#21242C" stroke="#908BCE" stroke-width="2" stroke-miterlimit="10"/>
<path d="M74.945 67.1127C74.3419 67.0371 73.7388 67.0371 73.1356 67.0371C70.0445 67.0371 67.1042 67.9447 64.6162 69.5329" fill="#21242C"/>
<path d="M74.945 67.1127C74.3419 67.0371 73.7388 67.0371 73.1356 67.0371C70.0445 67.0371 67.1042 67.9447 64.6162 69.5329" stroke="#908BCE" stroke-width="2" stroke-miterlimit="10"/>
<path d="M20.7482 62.0483C19.8435 64.7696 19.3911 67.642 19.3911 70.6656C19.3911 71.875 19.4665 73.0089 19.6173 74.1427" fill="#21242C"/>
<path d="M20.7482 62.0483C19.8435 64.7696 19.3911 67.642 19.3911 70.6656C19.3911 71.875 19.4665 73.0089 19.6173 74.1427" stroke="#908BCE" stroke-width="2" stroke-miterlimit="10"/>
<defs>
<linearGradient id="paint0_linear_1_8702" x1="497.138" y1="138.376" x2="496.613" y2="148.181" gradientUnits="userSpaceOnUse">
<stop stop-color="#4551A8"/>
<stop offset="1" stop-color="#3E88C5"/>
</linearGradient>
</defs>
</svg>
