<svg width="24" height="24" viewBox="0 0 24 24" fill="none" xmlns="http://www.w3.org/2000/svg">
<path d="M11.7675 2.01207L11.7803 2.0108C12.4119 1.94851 13.0392 2.15761 13.5076 2.58476C13.9758 3.01163 14.2415 3.61633 14.2413 4.24901C14.2413 4.24914 14.2413 4.24927 14.2413 4.2494V8.6986L21.3979 13.306C21.398 13.3061 21.3981 13.3062 21.3982 13.3063C21.7745 13.5485 22 13.9649 22 14.41V15.9803C22 16.4046 21.7949 16.8053 21.4454 17.0523C21.0965 17.2989 20.6477 17.3607 20.2435 17.214L20.2441 17.2142L20.5846 16.274L20.243 17.2138L14.2413 15.0405V17.5188L15.634 18.6864C15.6341 18.6864 15.6341 18.6865 15.6342 18.6865C15.9318 18.936 16.1035 19.3046 16.1035 19.6927V20.6878C16.1035 21.1 15.9099 21.4898 15.5782 21.7384C15.245 21.9882 14.8135 22.0642 14.4156 21.9444L14.415 21.9442L12 21.2154L9.58504 21.9442L9.5844 21.9444C9.1865 22.0642 8.75503 21.9882 8.42179 21.7384C8.09006 21.4898 7.8965 21.1 7.8965 20.6878V19.6926C7.8965 19.3044 8.06823 18.9359 8.36584 18.6864L11.7675 2.01207ZM11.7675 2.01207L11.7546 2.01367C10.5989 2.15788 9.74422 3.1507 9.75868 4.30919V8.6986L2.6021 13.306C2.60199 13.3061 2.60188 13.3062 2.60177 13.3063C2.22527 13.5486 2 13.9653 2 14.41V15.9803C2 16.4046 2.20515 16.8053 2.55463 17.0523C2.90367 17.299 3.35212 17.3605 3.75578 17.2144L3.75592 17.2144L9.75868 15.0405V17.5187L8.36601 18.6863L11.7675 2.01207ZM13.9956 17.3128C13.9956 17.3129 13.9957 17.3129 13.9958 17.313L13.9956 17.3128Z" stroke="black" stroke-width="2"/>
</svg>
