<svg width="14" height="9" viewBox="0 0 14 9" fill="none" xmlns="http://www.w3.org/2000/svg">
<path fill-rule="evenodd" clip-rule="evenodd" d="M0.333496 7.16667C0.333496 3.48477 3.31826 0.5 7.00016 0.5C10.6821 0.5 13.6668 3.48477 13.6668 7.16667V7.83333C13.6668 8.20152 13.3684 8.5 13.0002 8.5C12.632 8.5 12.3335 8.20152 12.3335 7.83333V7.16667C12.3335 4.22115 9.94568 1.83333 7.00016 1.83333C4.05464 1.83333 1.66683 4.22115 1.66683 7.16667V7.83333C1.66683 8.20152 1.36835 8.5 1.00016 8.5C0.631973 8.5 0.333496 8.20152 0.333496 7.83333V7.16667ZM9.40016 3.96667C9.69472 4.18758 9.75441 4.60545 9.5335 4.9L8.22655 6.64259C8.29539 6.80346 8.3335 6.98061 8.3335 7.16667C8.3335 7.90305 7.73654 8.5 7.00016 8.5C6.26378 8.5 5.66683 7.90305 5.66683 7.16667C5.66683 6.43029 6.26378 5.83333 7.00016 5.83333C7.05417 5.83333 7.10742 5.83654 7.15974 5.84278L8.46683 4.1C8.68774 3.80545 9.10561 3.74575 9.40016 3.96667Z" fill="black"/>
</svg>
