<svg width="22" height="22" viewBox="0 0 22 22" fill="none" xmlns="http://www.w3.org/2000/svg">
<path d="M10.7675 1.01207L10.7803 1.0108C11.4119 0.948511 12.0392 1.15761 12.5076 1.58476C12.9758 2.01163 13.2415 2.61633 13.2413 3.24901C13.2413 3.24914 13.2413 3.24927 13.2413 3.2494V7.6986L20.3979 12.306C20.398 12.3061 20.3981 12.3062 20.3982 12.3063C20.7745 12.5485 21 12.9649 21 13.41V14.9803C21 15.4046 20.7949 15.8053 20.4454 16.0523C20.0965 16.2989 19.6477 16.3607 19.2435 16.214L19.2441 16.2142L19.5846 15.274L19.243 16.2138L13.2413 14.0405V16.5188L14.634 17.6864C14.6341 17.6864 14.6341 17.6865 14.6342 17.6865C14.9318 17.936 15.1035 18.3046 15.1035 18.6927V19.6878C15.1035 20.1 14.9099 20.4898 14.5782 20.7384C14.245 20.9882 13.8135 21.0642 13.4156 20.9444L13.415 20.9442L11 20.2154L8.58504 20.9442L8.5844 20.9444C8.1865 21.0642 7.75503 20.9882 7.42179 20.7384C7.09006 20.4898 6.8965 20.1 6.8965 19.6878V18.6926C6.8965 18.3044 7.06823 17.9359 7.36584 17.6864L10.7675 1.01207ZM10.7675 1.01207L10.7546 1.01367C9.59892 1.15788 8.74422 2.1507 8.75868 3.30919V7.6986L1.6021 12.306C1.60199 12.3061 1.60188 12.3062 1.60177 12.3063C1.22527 12.5486 1 12.9653 1 13.41V14.9803C1 15.4046 1.20515 15.8053 1.55463 16.0523C1.90367 16.299 2.35212 16.3605 2.75578 16.2144L2.75592 16.2144L8.75868 14.0405V16.5187L7.36601 17.6863L10.7675 1.01207ZM12.9956 16.3128C12.9956 16.3129 12.9957 16.3129 12.9958 16.313L12.9956 16.3128Z" stroke="white" stroke-width="2"/>
</svg>
