<svg width="14" height="15" viewBox="0 0 14 15" fill="none" xmlns="http://www.w3.org/2000/svg">
<path fill-rule="evenodd" clip-rule="evenodd" d="M7.00016 0.833984C5.15921 0.833984 3.66683 2.32637 3.66683 4.16732C3.66683 5.77996 4.812 7.12513 6.3335 7.43397V10.834C6.3335 11.2022 6.63197 11.5007 7.00016 11.5007C7.36835 11.5007 7.66683 11.2022 7.66683 10.834V7.43397C9.18832 7.12513 10.3335 5.77996 10.3335 4.16732C10.3335 2.32637 8.84111 0.833984 7.00016 0.833984ZM9.00016 4.16732C9.00016 5.27189 8.10473 6.16732 7.00016 6.16732C5.89559 6.16732 5.00016 5.27189 5.00016 4.16732C5.00016 3.06275 5.89559 2.16732 7.00016 2.16732C8.10473 2.16732 9.00016 3.06275 9.00016 4.16732ZM1.92286 10.4794C2.67255 10.2642 3.63772 10.167 4.5761 10.1673C4.91082 10.1674 5.18208 10.466 5.18198 10.8342C5.18189 11.2024 4.91047 11.5008 4.57575 11.5007C3.69594 11.5004 2.84293 11.5933 2.22898 11.7695C1.93359 11.8543 1.73119 11.9481 1.61178 12.0319C1.65209 12.0626 1.71207 12.1015 1.80039 12.147C2.10302 12.3028 2.56757 12.439 3.15479 12.5469C4.31728 12.7603 5.7945 12.834 7.00014 12.834C8.20586 12.8339 9.68306 12.7602 10.8455 12.5467C11.4327 12.4389 11.8973 12.3026 12.1999 12.1467C12.2927 12.0989 12.3542 12.0584 12.3945 12.027C12.3607 12.0038 12.313 11.9754 12.2465 11.9429C11.9814 11.8133 11.5917 11.7127 11.1538 11.6414C10.7257 11.5717 10.2924 11.5361 9.96277 11.5183C9.79884 11.5094 9.66256 11.505 9.56791 11.5028C9.52063 11.5017 9.48385 11.5012 9.45934 11.5009L9.43203 11.5007L9.4257 11.5007L9.42433 11.5007C9.08969 11.5006 8.81839 11.2022 8.81835 10.8341C8.81831 10.4659 9.09013 10.1674 9.42485 10.1673C9.42485 10.1673 9.42433 10.1673 9.42441 10.834L9.42485 10.1673L9.4257 10.1673L9.42839 10.1673L9.43766 10.1674L9.47116 10.1676C9.49991 10.1679 9.54126 10.1686 9.59341 10.1698C9.69763 10.1722 9.84543 10.177 10.0224 10.1866C10.3746 10.2056 10.8504 10.2441 11.3313 10.3224C11.8026 10.3992 12.3219 10.5207 12.7387 10.7244C13.1068 10.9044 13.6668 11.2876 13.6668 12.0189C13.6668 12.7413 13.1188 13.1457 12.7139 13.3543C12.2613 13.5873 11.6681 13.7474 11.0451 13.8618C9.78723 14.0928 8.23413 14.1673 7.00019 14.1673C5.76624 14.1674 4.21314 14.093 2.95523 13.862C2.33225 13.7476 1.73907 13.5876 1.28653 13.3546C0.88173 13.1461 0.333496 12.7419 0.333496 12.0194C0.333496 11.5037 0.632148 11.1521 0.910972 10.9433C1.19226 10.7326 1.55239 10.5858 1.92286 10.4794ZM12.4717 12.0962C12.4717 12.0962 12.4695 12.094 12.4672 12.089C12.4696 12.092 12.4715 12.0953 12.4715 12.0953L12.4717 12.0962ZM12.4641 11.9589C12.4654 11.9557 12.4666 11.9542 12.4666 11.9542L12.4664 11.9549C12.4664 11.9549 12.4653 11.957 12.4641 11.9589ZM1.53372 11.9546C1.53372 11.9546 1.53486 11.9561 1.53619 11.9592C1.53423 11.9562 1.53372 11.9546 1.53372 11.9546ZM1.52781 12.1036C1.52591 12.1069 1.52439 12.1086 1.52439 12.1086C1.52439 12.1086 1.52516 12.1069 1.52781 12.1036Z" fill="black"/>
</svg>
