<svg width="12" height="15" viewBox="0 0 12 15" fill="none" xmlns="http://www.w3.org/2000/svg">
<path fill-rule="evenodd" clip-rule="evenodd" d="M9.32673 0.833295H10.6591C11.027 0.833295 11.3252 1.13177 11.3252 1.49996V2.8333C11.3252 3.20149 11.027 3.49996 10.6591 3.49996H9.65982C9.34625 3.5091 9.0688 3.29808 8.99364 2.9933L8.66056 1.65996C8.61047 1.4576 8.65786 1.24345 8.78863 1.08117C8.9194 0.918896 9.1185 0.82718 9.32673 0.833295ZM10.6591 4.83329H9.15353C8.93068 4.83445 8.72317 4.94704 8.6006 5.1333L6.722 7.9533C6.40314 8.43822 6.25111 9.01403 6.28899 9.5933L1.73903 8.92663H1.65243C1.47209 8.92557 1.29903 8.99774 1.17279 9.12663L0.859688 9.4333C0.685188 9.60756 0.621121 9.86402 0.693145 10.1L1.53252 13.1866C1.69158 13.7658 2.218 14.1671 2.81823 14.1666H9.12022C9.44389 14.1725 9.72494 13.9447 9.78639 13.6266L11.3186 5.62663C11.3566 5.43031 11.3045 5.2273 11.1767 5.07357C11.0489 4.91985 10.8589 4.83165 10.6591 4.83329ZM8.57396 12.8333H2.81823L2.15206 10.3533L6.42888 10.96C6.63101 10.9879 6.83477 10.9215 6.98181 10.78L7.44146 10.34C7.58318 10.2053 7.65868 10.0152 7.64798 9.81996V9.5133C7.62608 9.22478 7.69857 8.93696 7.85449 8.6933L9.51326 6.16663H9.85301L8.57396 12.8333Z" fill="#9A9A9A"/>
</svg>
