<svg width="22" height="22" viewBox="0 0 22 22" fill="none" xmlns="http://www.w3.org/2000/svg">
<path d="M10.7675 1.01207L10.7803 1.0108C11.4119 0.948511 12.0392 1.15761 12.5076 1.58476C12.9758 2.01163 13.2415 2.61633 13.2413 3.24901C13.2413 3.24914 13.2413 3.24927 13.2413 3.2494V7.6986L20.3979 12.306C20.398 12.3061 20.3981 12.3062 20.3982 12.3063C20.7745 12.5485 21 12.9649 21 13.41V14.9803C21 15.4046 20.7949 15.8053 20.4454 16.0523C20.0964 16.299 19.6475 16.3608 19.2432 16.2139L19.2441 16.2142L19.5846 15.274L19.243 16.2138L13.2413 14.0405V16.5188L14.634 17.6864C14.9317 17.9359 15.1035 18.3045 15.1035 18.6927V19.6878C15.1035 20.1 14.9099 20.4898 14.5782 20.7384L10.7675 1.01207ZM10.7675 1.01207L10.7546 1.01367M10.7675 1.01207L10.7546 1.01367M10.7546 1.01367C9.59892 1.15788 8.74422 2.1507 8.75868 3.30919M10.7546 1.01367L8.75868 3.30919M2.75592 16.2144L2.75577 16.2144C2.35212 16.3605 1.90367 16.299 1.55463 16.0523C1.55463 16.0523 1.55463 16.0523 1.55463 16.0523L2.13184 15.2357L2.75592 16.2144ZM2.75592 16.2144L8.75868 14.0405V16.5187L7.36602 17.6863C7.06829 17.9357 6.8965 18.3044 6.8965 18.6926V19.6878C6.8965 20.1 7.09005 20.4898 7.42179 20.7384C7.75502 20.9882 8.1865 21.0642 8.5844 20.9444L8.58504 20.9442M2.75592 16.2144L8.58504 20.9442M8.58504 20.9442L11 20.2154L13.415 20.9442L13.4156 20.9444M8.58504 20.9442L13.4156 20.9444M13.4156 20.9444C13.8131 21.0641 14.2442 20.9883 14.5773 20.739L13.4156 20.9444ZM8.75868 3.30919V7.6986L1.6021 12.306C1.60199 12.3061 1.60188 12.3062 1.60177 12.3063L8.75868 3.30919ZM9.00402 16.313C9.00422 16.3129 9.00442 16.3127 9.00462 16.3125L9.00445 16.3127L9.00402 16.313ZM11.2 20.155C11.1996 20.1552 11.1991 20.1553 11.1987 20.1555L11.1998 20.1551L11.2 20.155ZM10.8013 20.1555C10.8009 20.1553 10.8004 20.1552 10.8 20.155L10.8002 20.1551L10.8013 20.1555Z" stroke="white" stroke-width="2"/>
</svg>
