<svg width="14" height="15" viewBox="0 0 14 15" fill="none" xmlns="http://www.w3.org/2000/svg">
<path fill-rule="evenodd" clip-rule="evenodd" d="M7.00016 0.833496C5.15921 0.833496 3.66683 2.32588 3.66683 4.16683C3.66683 5.77947 4.812 7.12464 6.3335 7.43348V10.8335C6.3335 11.2017 6.63197 11.5002 7.00016 11.5002C7.36835 11.5002 7.66683 11.2017 7.66683 10.8335V7.43348C9.18832 7.12464 10.3335 5.77947 10.3335 4.16683C10.3335 2.32588 8.84111 0.833496 7.00016 0.833496ZM9.00016 4.16683C9.00016 5.2714 8.10473 6.16683 7.00016 6.16683C5.89559 6.16683 5.00016 5.2714 5.00016 4.16683C5.00016 3.06226 5.89559 2.16683 7.00016 2.16683C8.10473 2.16683 9.00016 3.06226 9.00016 4.16683ZM1.92286 10.4789C2.67255 10.2637 3.63772 10.1665 4.5761 10.1668C4.91082 10.1669 5.18208 10.4655 5.18198 10.8337C5.18189 11.2019 4.91047 11.5003 4.57575 11.5002C3.69594 11.4999 2.84293 11.5928 2.22898 11.769C1.93359 11.8538 1.73119 11.9476 1.61178 12.0314C1.65209 12.0621 1.71207 12.101 1.80039 12.1465C2.10302 12.3023 2.56757 12.4385 3.15479 12.5464C4.31728 12.7598 5.7945 12.8335 7.00014 12.8335C8.20586 12.8334 9.68306 12.7597 10.8455 12.5462C11.4327 12.4384 11.8973 12.3021 12.1999 12.1462C12.2927 12.0984 12.3542 12.0579 12.3945 12.0265C12.3607 12.0033 12.313 11.9749 12.2465 11.9424C11.9814 11.8128 11.5917 11.7122 11.1538 11.6409C10.7257 11.5712 10.2924 11.5357 9.96277 11.5178C9.79884 11.5089 9.66256 11.5045 9.56791 11.5023C9.52063 11.5012 9.48385 11.5007 9.45934 11.5004L9.43203 11.5002L9.4257 11.5002L9.42433 11.5002C9.08969 11.5001 8.81839 11.2017 8.81835 10.8336C8.81831 10.4654 9.09013 10.1669 9.42485 10.1668C9.42485 10.1668 9.42433 10.1668 9.42441 10.8335L9.42485 10.1668L9.4257 10.1668L9.42839 10.1668L9.43766 10.1669L9.47116 10.1671C9.49991 10.1675 9.54126 10.1681 9.59341 10.1693C9.69763 10.1717 9.84543 10.1765 10.0224 10.1861C10.3746 10.2052 10.8504 10.2436 11.3313 10.3219C11.8026 10.3987 12.3219 10.5202 12.7387 10.7239C13.1068 10.9039 13.6668 11.2871 13.6668 12.0184C13.6668 12.7408 13.1188 13.1452 12.7139 13.3538C12.2613 13.5869 11.6681 13.7469 11.0451 13.8613C9.78723 14.0924 8.23413 14.1668 7.00019 14.1668C5.76624 14.1669 4.21314 14.0925 2.95523 13.8615C2.33225 13.7471 1.73907 13.5871 1.28653 13.3541C0.88173 13.1457 0.333496 12.7414 0.333496 12.019C0.333496 11.5032 0.632148 11.1516 0.910972 10.9428C1.19226 10.7321 1.55239 10.5853 1.92286 10.4789ZM12.4717 12.0958C12.4717 12.0958 12.4695 12.0935 12.4672 12.0885C12.4696 12.0915 12.4715 12.0948 12.4715 12.0948L12.4717 12.0958ZM12.4641 11.9584C12.4654 11.9552 12.4666 11.9537 12.4666 11.9537L12.4664 11.9544C12.4664 11.9544 12.4653 11.9565 12.4641 11.9584ZM1.53372 11.9541C1.53372 11.9541 1.53486 11.9556 1.53619 11.9588C1.53423 11.9557 1.53372 11.9541 1.53372 11.9541ZM1.52781 12.1031C1.52591 12.1065 1.52439 12.1081 1.52439 12.1081C1.52439 12.1081 1.52516 12.1064 1.52781 12.1031Z" fill="#9A9A9A"/>
</svg>
