<svg width="20" height="14" viewBox="0 0 20 14" fill="none" xmlns="http://www.w3.org/2000/svg">
<path fill-rule="evenodd" clip-rule="evenodd" d="M0 11C0 12.6569 1.34315 14 3 14L17 14C18.6569 14 20 12.6569 20 11V3C20 1.34315 18.6569 0 17 0H3C1.34314 0 0 1.34315 0 3V11ZM18 11C18 11.5523 17.5523 12 17 12H13.3178C14.9345 10.9251 16 9.08697 16 7C16 4.91303 14.9345 3.07492 13.3178 2L17 2C17.5523 2 18 2.44771 18 3V11ZM6.68221 2L3 2C2.44771 2 2 2.44772 2 3L2 11C2 11.5523 2.44771 12 3 12H6.68221C5.06551 10.9251 4 9.08697 4 7C4 4.91303 5.06551 3.07492 6.68221 2ZM14 7C14 4.79086 12.2091 3 10 3C7.79086 3 6 4.79086 6 7C6 9.20914 7.79086 11 10 11C12.2091 11 14 9.20914 14 7Z" fill="#9A9A9A"/>
</svg>
