<svg width="20" height="18" viewBox="0 0 20 18" fill="none" xmlns="http://www.w3.org/2000/svg">
<path fill-rule="evenodd" clip-rule="evenodd" d="M0 12.065V3.01626C0 1.35042 1.34315 0 3 0H17C18.6569 0 20 1.35042 20 3.01626V12.065C20 13.7309 18.6569 15.0813 17 15.0813H12.7515L10.1463 17.3732C8.5298 18.7953 6 17.6411 6 15.4816V15.0813H3C1.34315 15.0813 0 13.7309 0 12.065ZM7.76118 14.1276C7.42328 13.4981 6.76132 13.0704 6 13.0704H3C2.44772 13.0704 2 12.6203 2 12.065V3.01626C2 2.46098 2.44772 2.01084 3 2.01084H17C17.5523 2.01084 18 2.46098 18 3.01626V12.065C18 12.6203 17.5523 13.0704 17 13.0704H12.7515C12.267 13.0704 11.799 13.2472 11.4345 13.568L8.82925 15.8599C8.50596 16.1443 8 15.9135 8 15.4816V15.0813C8 15.0194 7.99722 14.9581 7.99177 14.8976C7.96792 14.6329 7.89306 14.383 7.77716 14.158C7.77192 14.1478 7.76659 14.1377 7.76118 14.1276Z" fill="#9A9A9A"/>
</svg>
