<svg width="16" height="20" viewBox="0 0 16 20" fill="none" xmlns="http://www.w3.org/2000/svg">
<path fill-rule="evenodd" clip-rule="evenodd" d="M8 0L8.4387 0.222295L10.0372 1.03227L12.5946 0.168357C12.971 0.0412053 13.3859 0.156357 13.6459 0.460117C13.9058 0.763877 13.9596 1.19642 13.7822 1.55606L12.1592 4.84562L13.2575 5.81953C18.8056 10.7393 15.3721 20 8 20C0.627876 20 -2.80557 10.7393 2.74251 5.81952L3.8408 4.84562L2.21782 1.55606C2.04038 1.19642 2.09419 0.763877 2.35415 0.460117C2.6141 0.156357 3.02902 0.0412053 3.40542 0.168357L5.96282 1.03227L7.5613 0.222295L8 0ZM10.9683 2.81355L10.0748 4.62445C9.86745 5.02247 9.94809 5.52685 10.2969 5.83617L11.9656 7.31585C16.1503 11.0267 13.5606 18.0117 8 18.0117C2.43944 18.0117 -0.150304 11.0267 4.03444 7.31585L5.70309 5.83617C6.05191 5.52685 6.13254 5.02248 5.92517 4.62446L5.03172 2.81355L5.72788 3.04872L6.11335 3.17894L6.47678 2.99479L8 2.22295L9.52321 2.99479L9.88664 3.17894L10.2721 3.04872L10.9683 2.81355ZM8.98072 7.57334C8.98072 7.02429 8.54153 6.57921 7.99976 6.57921C7.45799 6.57921 7.0188 7.02429 7.0188 7.57334V7.92756C5.90973 8.0882 5.05713 9.05478 5.05713 10.2232C5.05713 11.5039 6.08164 12.5422 7.34544 12.5422H8.65636C8.83662 12.5422 8.98275 12.6903 8.98275 12.873C8.98275 13.0557 8.83662 13.2038 8.65636 13.2038H6.36522C5.82345 13.2038 5.38426 13.6489 5.38426 14.1979C5.38426 14.7469 5.82345 15.192 6.36522 15.192H7.0188V15.5228C7.0188 16.0719 7.45799 16.5169 7.99976 16.5169C8.54153 16.5169 8.98072 16.0719 8.98072 15.5228V15.1689C10.0909 15.0093 10.9447 14.0422 10.9447 12.873C10.9447 11.5922 9.92015 10.5539 8.65636 10.5539H7.34544C7.16517 10.5539 7.01904 10.4058 7.01904 10.2232C7.01904 10.0405 7.16517 9.89238 7.34544 9.89238H9.63657C10.1783 9.89238 10.6175 9.4473 10.6175 8.89825C10.6175 8.34921 10.1783 7.90412 9.63657 7.90412H8.98072V7.57334Z" fill="#9A9A9A"/>
</svg>
