<svg width="14" height="12" viewBox="0 0 14 12" fill="none" xmlns="http://www.w3.org/2000/svg">
<path fill-rule="evenodd" clip-rule="evenodd" d="M2.3335 0.666016C1.22893 0.666016 0.333496 1.56145 0.333496 2.66602V9.33268C0.333496 10.4373 1.22893 11.3327 2.3335 11.3327H11.6668C12.7714 11.3327 13.6668 10.4373 13.6668 9.33268V2.66602C13.6668 1.56145 12.7714 0.666016 11.6668 0.666016H2.3335ZM1.72771 2.38731C1.83324 2.1583 2.0648 1.99935 2.3335 1.99935H11.6668C11.9355 1.99935 12.1671 2.1583 12.2726 2.38731L7.40946 6.16977C7.16872 6.35701 6.83161 6.35701 6.59087 6.16977L1.72771 2.38731ZM1.66683 4.02911V7.90932L4.07524 5.90231L1.66683 4.02911ZM1.7221 9.59888C1.82486 9.83458 2.05994 9.99935 2.3335 9.99935H11.6668C11.9404 9.99935 12.1755 9.83458 12.2782 9.59888L8.84781 6.7402L8.22804 7.22224C7.50582 7.78396 6.4945 7.78397 5.77228 7.22224L5.15251 6.7402L1.7221 9.59888ZM12.3335 7.90932V4.02911L9.92509 5.90231L12.3335 7.90932Z" fill="#9A9A9A"/>
</svg>
