<svg width="14" height="14" viewBox="0 0 14 14" fill="none" xmlns="http://www.w3.org/2000/svg">
<path fill-rule="evenodd" clip-rule="evenodd" d="M3.19877 1.79854L3.19922 1.7991L3.19877 1.79854ZM3.22744 1.84356L4.56379 3.94925C4.40231 4.10086 4.22617 4.25103 4.0366 4.41265C3.87367 4.55156 3.70083 4.69892 3.51885 4.86292C3.0678 5.2694 2.98068 5.92314 3.27259 6.4319C4.81623 9.12222 6.92163 10.3464 7.86371 10.7859C8.43126 11.0507 9.04789 10.8418 9.39116 10.409L10.3159 9.24334C10.3159 9.24334 10.3167 9.24269 10.3181 9.24244C10.3195 9.2422 10.322 9.24244 10.322 9.24244C10.322 9.24244 10.324 9.24291 10.326 9.24409C10.8648 9.57343 11.6166 10.021 12.3072 10.3999C12.1831 11.1414 11.8982 11.5734 11.5841 11.8375C11.2543 12.1148 10.8277 12.2607 10.3519 12.3134C9.40203 12.4186 8.43767 12.1332 8.22379 12.0637C7.98779 11.9442 6.69386 11.2697 5.31149 10.1767C3.88605 9.04963 2.45672 7.54759 1.91007 5.82488C1.51056 4.56587 1.66121 3.67991 1.97521 3.06879C2.27876 2.47801 2.76999 2.07704 3.22744 1.84356ZM2.74402 0.59732C3.37378 0.301523 4.02498 0.609933 4.3283 1.08788L5.72632 3.29074C6.00895 3.73608 6.02833 4.3871 5.56885 4.83307C5.37193 5.0242 5.09797 5.25912 4.84303 5.47772C4.70308 5.59772 4.56887 5.7128 4.45629 5.81302C5.78482 8.10393 7.56098 9.16383 8.36881 9.5514L9.26808 8.41782C9.69265 7.88262 10.4486 7.75753 11.0243 8.10938C11.5568 8.43488 12.2931 8.87295 12.9603 9.23875C13.4052 9.48272 13.7235 9.99132 13.6333 10.5655C13.4714 11.5969 13.0483 12.348 12.4454 12.8549C11.8526 13.3533 11.1464 13.5647 10.4995 13.6364C9.22706 13.7773 8.01003 13.3957 7.78779 13.322C7.73153 13.3034 7.68483 13.2837 7.63464 13.2584C7.39605 13.1384 5.98999 12.4124 4.48129 11.2195C2.98827 10.039 1.30451 8.33137 0.636508 6.22622C0.145825 4.67988 0.290979 3.42608 0.786288 2.46211C1.27291 1.51503 2.06098 0.918142 2.74402 0.59732Z" fill="#9A9A9A"/>
<path fill-rule="evenodd" clip-rule="evenodd" d="M8.80718 0.394793C8.47194 0.24149 8.07547 0.388041 7.92164 0.722123C7.7678 1.05621 7.91486 1.45131 8.2501 1.60461C9.80105 2.31385 11.5762 3.64727 12.3873 5.48729C12.5357 5.82382 12.9297 5.97678 13.2674 5.82893C13.6051 5.68109 13.7586 5.28842 13.6103 4.95189C12.6194 2.70429 10.525 1.18036 8.80718 0.394793ZM8.31273 2.756C7.98282 2.59162 7.58165 2.72488 7.4167 3.05365C7.25174 3.38242 7.38546 3.7822 7.71537 3.94659C8.34295 4.25929 8.77729 4.55397 9.12797 4.90344C9.47865 5.25292 9.77435 5.68575 10.0881 6.31117C10.2531 6.63994 10.6543 6.7732 10.9842 6.60881C11.3141 6.44443 11.4478 6.04465 11.2828 5.71587C10.9288 5.01017 10.5566 4.44468 10.0725 3.9622C9.58832 3.47973 9.02087 3.10885 8.31273 2.756Z" fill="#9A9A9A"/>
</svg>
