<svg width="14" height="14" viewBox="0 0 14 14" fill="none" xmlns="http://www.w3.org/2000/svg">
<path fill-rule="evenodd" clip-rule="evenodd" d="M0.333496 1.00065C0.333496 0.632461 0.631973 0.333984 1.00016 0.333984H3.66683C4.03502 0.333984 4.3335 0.632461 4.3335 1.00065C4.3335 1.36884 4.03502 1.66732 3.66683 1.66732H1.66683V3.66732C1.66683 4.03551 1.36835 4.33398 1.00016 4.33398C0.631973 4.33398 0.333496 4.03551 0.333496 3.66732V1.00065ZM7.00016 7.66732H6.90492C5.85295 7.66732 5.00016 8.52011 5.00016 9.57208V10.334C5.00016 10.7022 4.70169 11.0007 4.3335 11.0007C3.96531 11.0007 3.66683 10.7022 3.66683 10.334V9.57208C3.66683 8.44898 4.2386 7.45943 5.10694 6.87863C4.62884 6.39667 4.3335 5.73315 4.3335 5.00065C4.3335 3.52789 5.5274 2.33398 7.00016 2.33398C8.47292 2.33398 9.66683 3.52789 9.66683 5.00065C9.66683 5.73315 9.37149 6.39667 8.89339 6.87863C9.76172 7.45943 10.3335 8.44898 10.3335 9.57208V10.334C10.3335 10.7022 10.035 11.0007 9.66683 11.0007C9.29864 11.0007 9.00016 10.7022 9.00016 10.334V9.57208C9.00016 8.52011 8.14737 7.66732 7.0954 7.66732H7.00016ZM7.00016 6.33398C6.26378 6.33398 5.66683 5.73703 5.66683 5.00065C5.66683 4.26427 6.26378 3.66732 7.00016 3.66732C7.73654 3.66732 8.3335 4.26427 8.3335 5.00065C8.3335 5.73703 7.73654 6.33398 7.00016 6.33398ZM13.0002 0.333984C13.3684 0.333984 13.6668 0.632461 13.6668 1.00065V3.66732C13.6668 4.03551 13.3684 4.33398 13.0002 4.33398C12.632 4.33398 12.3335 4.03551 12.3335 3.66732V1.66732H10.3335C9.96531 1.66732 9.66683 1.36884 9.66683 1.00065C9.66683 0.632461 9.96531 0.333984 10.3335 0.333984H13.0002ZM0.333496 13.0007C0.333496 13.3688 0.631973 13.6673 1.00016 13.6673H3.66683C4.03502 13.6673 4.3335 13.3688 4.3335 13.0007C4.3335 12.6325 4.03502 12.334 3.66683 12.334H1.66683V10.334C1.66683 9.9658 1.36835 9.66732 1.00016 9.66732C0.631973 9.66732 0.333496 9.9658 0.333496 10.334V13.0007ZM13.0002 13.6673C13.3684 13.6673 13.6668 13.3688 13.6668 13.0007V10.334C13.6668 9.9658 13.3684 9.66732 13.0002 9.66732C12.632 9.66732 12.3335 9.9658 12.3335 10.334V12.334H10.3335C9.96531 12.334 9.66683 12.6325 9.66683 13.0007C9.66683 13.3688 9.96531 13.6673 10.3335 13.6673H13.0002Z" fill="#9A9A9A"/>
</svg>
