<svg width="14" height="10" viewBox="0 0 14 10" fill="none" xmlns="http://www.w3.org/2000/svg">
<path fill-rule="evenodd" clip-rule="evenodd" d="M11.6668 0.333984H2.3335C1.22893 0.333984 0.333496 1.22942 0.333496 2.33398V7.66732C0.333496 8.77189 1.22893 9.66732 2.3335 9.66732H11.6668C12.7714 9.66732 13.6668 8.77189 13.6668 7.66732V2.33398C13.6668 1.22941 12.7714 0.333984 11.6668 0.333984ZM1.66683 2.33398C1.66683 1.96579 1.96531 1.66732 2.3335 1.66732H11.6668C12.035 1.66732 12.3335 1.96579 12.3335 2.33398V7.66732C12.3335 8.03551 12.035 8.33398 11.6668 8.33398H2.3335C1.96531 8.33398 1.66683 8.03551 1.66683 7.66732V2.33398ZM3.66683 3.00065C3.29864 3.00065 3.00016 3.29913 3.00016 3.66732V6.33398C3.00016 6.70217 3.29864 7.00065 3.66683 7.00065H5.66683C6.03502 7.00065 6.3335 6.70217 6.3335 6.33398V3.66732C6.3335 3.29913 6.03502 3.00065 5.66683 3.00065H3.66683ZM4.3335 5.66732V4.33398H5.00016V5.66732H4.3335ZM7.00016 3.66732C7.00016 3.29913 7.29864 3.00065 7.66683 3.00065L10.3335 3.00065C10.7017 3.00065 11.0002 3.29913 11.0002 3.66732C11.0002 4.03551 10.7017 4.33398 10.3335 4.33398H7.66683C7.29864 4.33398 7.00016 4.03551 7.00016 3.66732ZM7.66683 5.66732C7.29864 5.66732 7.00016 5.96579 7.00016 6.33398C7.00016 6.70217 7.29864 7.00065 7.66683 7.00065H10.3335C10.7017 7.00065 11.0002 6.70217 11.0002 6.33398C11.0002 5.96579 10.7017 5.66732 10.3335 5.66732H7.66683Z" fill="#9A9A9A"/>
</svg>
