<svg width="41" height="41" viewBox="0 0 41 41" fill="none" xmlns="http://www.w3.org/2000/svg">
<path fill-rule="evenodd" clip-rule="evenodd" d="M20.4997 0.0839844C9.22386 0.0839844 0.0830078 9.22484 0.0830078 20.5007C0.0830078 31.7765 9.22386 40.9173 20.4997 40.9173C31.7755 40.9173 40.9163 31.7765 40.9163 20.5007C40.9163 15.0858 38.7653 9.89276 34.9364 6.06389C31.1076 2.23502 25.9145 0.0839844 20.4997 0.0839844ZM20.4997 6.20898C23.8824 6.20898 26.6247 8.95124 26.6247 12.334C26.6247 15.7167 23.8824 18.459 20.4997 18.459C17.1169 18.459 14.3747 15.7167 14.3747 12.334C14.3747 8.95124 17.1169 6.20898 20.4997 6.20898ZM20.4997 34.7654C25.0221 34.7654 29.2777 32.6249 31.9738 28.994C32.3916 28.3833 32.4463 27.5944 32.1168 26.9319L31.6472 25.9723C30.6199 23.8757 28.4899 22.5454 26.1551 22.5423H14.8443C12.4762 22.5449 10.3217 23.9123 9.31134 26.054L8.88259 26.9523C8.56105 27.6093 8.61557 28.3882 9.02551 28.994C11.7217 32.6249 15.9772 34.7654 20.4997 34.7654Z" fill="#9A9A9A"/>
</svg>
