<svg width="18" height="21" viewBox="0 0 18 21" fill="none" xmlns="http://www.w3.org/2000/svg">
<path fill-rule="evenodd" clip-rule="evenodd" d="M13.2597 3.5L13 3.5C13 1.84315 11.6569 0.5 10 0.5H8C6.34314 0.5 5 1.84315 5 3.5L4.34328 3.5L4 3.5C3.9996 3.5 3.99921 3.5 3.99882 3.5L1 3.5C0.447715 3.5 0 3.94772 0 4.5C0 5.05229 0.447715 5.5 1 5.5L2 5.5L2 17.5C2 19.1569 3.34315 20.5 5 20.5H13C14.6569 20.5 16 19.1569 16 17.5L16 5.5L17 5.5C17.5523 5.5 18 5.05228 18 4.5C18 3.94771 17.5523 3.5 17 3.5L14.0018 3.5C14.0012 3.5 14.0006 3.5 14 3.5L13.2597 3.5ZM14 5.5H12L11 5.5L7 5.5L6 5.5L4 5.5L4 7.5L4 17.5C4 18.0523 4.44772 18.5 5 18.5H13C13.5523 18.5 14 18.0523 14 17.5L14 7.5V5.5ZM7 3.5H8H9L10 3.5H11C11 2.94772 10.5523 2.5 10 2.5L8 2.5C7.44772 2.5 7 2.94772 7 3.5ZM11.7071 8.79289C12.0976 9.18342 12.0976 9.81658 11.7071 10.2071L10.4142 11.5L11.7071 12.7929C12.0976 13.1834 12.0976 13.8166 11.7071 14.2071C11.3166 14.5976 10.6834 14.5976 10.2929 14.2071L9 12.9142L7.70711 14.2071C7.31658 14.5976 6.68342 14.5976 6.29289 14.2071C5.90237 13.8166 5.90237 13.1834 6.29289 12.7929L7.58579 11.5L6.29289 10.2071C5.90237 9.81658 5.90237 9.18342 6.29289 8.79289C6.68342 8.40237 7.31658 8.40237 7.70711 8.79289L9 10.0858L10.2929 8.79289C10.6834 8.40237 11.3166 8.40237 11.7071 8.79289Z" fill="#EB5757"/>
</svg>
