<svg width="20" height="14" viewBox="0 0 20 14" fill="none" xmlns="http://www.w3.org/2000/svg">
<path fill-rule="evenodd" clip-rule="evenodd" d="M17 0H3C1.34315 0 0 1.34315 0 3V11C0 12.6569 1.34315 14 3 14H17C18.6569 14 20 12.6569 20 11V3C20 1.34315 18.6569 0 17 0ZM2 3C2 2.44772 2.44772 2 3 2H17C17.5523 2 18 2.44772 18 3V11C18 11.5523 17.5523 12 17 12H3C2.44772 12 2 11.5523 2 11V3ZM5 4C4.44772 4 4 4.44772 4 5V9C4 9.55228 4.44772 10 5 10H8C8.55228 10 9 9.55228 9 9V5C9 4.44772 8.55228 4 8 4H5ZM6 8V6H7V8H6ZM10 5C10 4.44772 10.4477 4 11 4L15 4C15.5523 4 16 4.44771 16 5C16 5.55228 15.5523 6 15 6H11C10.4477 6 10 5.55228 10 5ZM11 8C10.4477 8 10 8.44771 10 9C10 9.55229 10.4477 10 11 10H15C15.5523 10 16 9.55228 16 9C16 8.44771 15.5523 8 15 8H11Z" fill="white"/>
</svg>
