<svg width="18" height="20" viewBox="0 0 18 20" fill="none" xmlns="http://www.w3.org/2000/svg">
<path fill-rule="evenodd" clip-rule="evenodd" d="M4 1C4 0.447715 4.44772 0 5 0C5.55228 0 6 0.447715 6 1V2H12V1C12 0.447715 12.4477 0 13 0C13.5523 0 14 0.447715 14 1V2H15C16.6569 2 18 3.34314 18 5V7V17C18 18.6569 16.6569 20 15 20H3C1.34315 20 0 18.6569 0 17V7V5C0 3.34315 1.34315 2 3 2H4V1ZM5 4H13H15C15.5523 4 16 4.44772 16 5V6H2V5C2 4.44772 2.44772 4 3 4H5ZM2 8V17C2 17.5523 2.44772 18 3 18H15C15.5523 18 16 17.5523 16 17V8L2 8ZM11.808 11.5892C12.1334 11.1429 12.0354 10.5174 11.5892 10.192C11.1429 9.8666 10.5174 9.96458 10.192 10.4108L8.05061 13.3476L7.28405 12.3793C6.94124 11.9463 6.31231 11.8731 5.8793 12.216C5.44628 12.5588 5.37315 13.1877 5.71595 13.6207L7.29929 15.6207C7.49327 15.8657 7.79067 16.006 8.10313 15.9998C8.4156 15.9936 8.70721 15.8417 8.89134 15.5892L11.808 11.5892Z" fill="black"/>
</svg>
