<svg width="20" height="20" viewBox="0 0 20 20" fill="none" xmlns="http://www.w3.org/2000/svg">
<path fill-rule="evenodd" clip-rule="evenodd" d="M20 5.28246V1.0076C20 0.740365 19.8933 0.484079 19.7034 0.295118C19.5135 0.106157 19.2559 0 18.9873 0H14.691C14.1317 0 13.6783 0.451117 13.6783 1.0076C13.6783 1.56408 14.1317 2.01519 14.691 2.01519L16.5426 2.01519L13.963 4.58186C12.5905 3.51884 10.8651 2.88571 8.99105 2.88571C4.51685 2.88571 0.889785 6.49464 0.889785 10.9465C0.889785 12.8367 1.54368 14.575 2.63867 15.9496L0.296601 18.2799C-0.0988669 18.6734 -0.0988669 19.3114 0.296601 19.7049C0.692069 20.0984 1.33325 20.0984 1.72872 19.7049L4.08431 17.3611C5.44609 18.3939 7.14659 19.0072 8.99105 19.0072C13.4653 19.0072 17.0923 15.3983 17.0923 10.9465C17.0923 9.08562 16.4586 7.37204 15.3942 6.00774L17.9747 3.44014V5.28246C17.9747 5.83894 18.4281 6.29006 18.9873 6.29006C19.5466 6.29006 20 5.83894 20 5.28246ZM4.80136 15.3249C5.89146 16.3579 7.36683 16.9921 8.99105 16.9921C12.3467 16.9921 15.067 14.2854 15.067 10.9465C15.067 7.6076 12.3467 4.9009 8.99105 4.9009C5.6354 4.9009 2.9151 7.6076 2.9151 10.9465C2.9151 12.6094 3.58987 14.1155 4.68184 15.2085C4.70589 15.2284 4.72924 15.2495 4.75179 15.272C4.76907 15.2892 4.78559 15.3068 4.80136 15.3249ZM10.0035 6.91609C10.0035 6.35961 9.55008 5.9085 8.99081 5.9085C8.43153 5.9085 7.97815 6.35961 7.97815 6.91609V7.27512C6.83323 7.43793 5.95308 8.41759 5.95308 9.6018C5.95308 10.8999 7.0107 11.9523 8.31534 11.9523H9.66862C9.85471 11.9523 10.0056 12.1024 10.0056 12.2875C10.0056 12.4727 9.85471 12.6228 9.66862 12.6228H7.30344C6.74417 12.6228 6.29078 13.0739 6.29078 13.6304C6.29078 14.1868 6.74417 14.638 7.30344 14.638H7.97815V14.9732C7.97815 15.5297 8.43153 15.9808 8.99081 15.9808C9.55008 15.9808 10.0035 15.5297 10.0035 14.9732V14.6145C11.1495 14.4527 12.0309 13.4725 12.0309 12.2875C12.0309 10.9894 10.9733 9.93706 9.66862 9.93706H8.31534C8.12925 9.93706 7.97839 9.78696 7.97839 9.6018C7.97839 9.41664 8.12925 9.26654 8.31534 9.26654H10.6805C11.2398 9.26654 11.6932 8.81543 11.6932 8.25895C11.6932 7.70247 11.2398 7.25135 10.6805 7.25135H10.0035V6.91609Z" fill="#9A9A9A"/>
</svg>
