<svg width="20" height="20" viewBox="0 0 20 20" fill="none" xmlns="http://www.w3.org/2000/svg">
<path fill-rule="evenodd" clip-rule="evenodd" d="M1.72872 0.295118C1.33325 -0.0983726 0.692069 -0.0983726 0.296601 0.295118C-0.0988669 0.688609 -0.0988669 1.32658 0.296601 1.72007L2.63867 4.05044C1.54368 5.42502 0.889785 7.16329 0.889785 9.05352C0.889785 13.5054 4.51685 17.1143 8.99105 17.1143C10.8651 17.1143 12.5905 16.4812 13.963 15.4181L16.5426 17.9848L14.691 17.9848C14.1317 17.9848 13.6783 18.4359 13.6783 18.9924C13.6783 19.5489 14.1317 20 14.691 20H18.9873C19.2559 20 19.5135 19.8938 19.7034 19.7049C19.8933 19.5159 20 19.2596 20 18.9924V14.7175C20 14.1611 19.5466 13.7099 18.9873 13.7099C18.4281 13.7099 17.9747 14.1611 17.9747 14.7175V16.5599L15.3942 13.9923C16.4586 12.628 17.0923 10.9144 17.0923 9.05352C17.0923 4.60169 13.4653 0.992759 8.99105 0.992759C7.14659 0.992759 5.44609 1.60608 4.08431 2.63894L1.72872 0.295118ZM4.68184 4.7915C4.70589 4.77162 4.72924 4.75047 4.75179 4.72803C4.76907 4.71084 4.78559 4.69318 4.80136 4.67509C5.89146 3.64208 7.36683 3.00795 8.99105 3.00795C12.3467 3.00795 15.067 5.71465 15.067 9.05352C15.067 12.3924 12.3467 15.0991 8.99105 15.0991C5.6354 15.0991 2.9151 12.3924 2.9151 9.05352C2.9151 7.39061 3.58987 5.8845 4.68184 4.7915ZM10.0035 13.0839V12.7252C11.1495 12.5634 12.0309 11.5832 12.0309 10.3982C12.0309 9.10009 10.9733 8.04776 9.66862 8.04776H8.31534C8.12925 8.04776 7.97839 7.89766 7.97839 7.7125C7.97839 7.52734 8.12925 7.37724 8.31534 7.37724H10.6805C11.2398 7.37724 11.6932 6.92612 11.6932 6.36964C11.6932 5.81316 11.2398 5.36205 10.6805 5.36205H10.0035V5.02679C10.0035 4.47031 9.55008 4.01919 8.99081 4.01919C8.43153 4.01919 7.97815 4.47031 7.97815 5.02679V5.38581C6.83323 5.54862 5.95308 6.52829 5.95308 7.7125C5.95308 9.01061 7.0107 10.0629 8.31534 10.0629H9.66862C9.85471 10.0629 10.0056 10.213 10.0056 10.3982C10.0056 10.5834 9.85471 10.7335 9.66862 10.7335H7.30344C6.74417 10.7335 6.29078 11.1846 6.29078 11.7411C6.29078 12.2975 6.74417 12.7487 7.30344 12.7487H7.97815V13.0839C7.97815 13.6404 8.43153 14.0915 8.99081 14.0915C9.55008 14.0915 10.0035 13.6404 10.0035 13.0839Z" fill="#9A9A9A"/>
</svg>
