<svg width="14" height="14" viewBox="0 0 14 14" fill="none" xmlns="http://www.w3.org/2000/svg">
<path fill-rule="evenodd" clip-rule="evenodd" d="M3.6334 8.46474C3.07487 8.46474 2.6221 8.93059 2.6221 9.50525C2.6221 10.0799 3.07487 10.5458 3.6334 10.5458C4.19193 10.5458 4.6447 10.0799 4.6447 9.50525C4.6447 8.93059 4.19193 8.46474 3.6334 8.46474ZM7.00441 8.46474C6.44589 8.46474 5.99311 8.93059 5.99311 9.50525C5.99311 10.0799 6.44589 10.5458 7.00441 10.5458C7.56294 10.5458 8.01572 10.0799 8.01572 9.50525C8.01572 8.93059 7.56294 8.46474 7.00441 8.46474ZM9.36412 9.50525C9.36412 8.93059 9.8169 8.46474 10.3754 8.46474C10.934 8.46474 11.3867 8.93059 11.3867 9.50525C11.3867 10.0799 10.934 10.5458 10.3754 10.5458C9.8169 10.5458 9.36412 10.0799 9.36412 9.50525ZM3.6334 11.5863C3.07487 11.5863 2.6221 12.0521 2.6221 12.6268C2.6221 13.2015 3.07487 13.6673 3.6334 13.6673C4.19193 13.6673 4.6447 13.2015 4.6447 12.6268C4.6447 12.0521 4.19193 11.5863 3.6334 11.5863ZM5.99311 12.6268C5.99311 12.0521 6.44589 11.5863 7.00441 11.5863C7.56294 11.5863 8.01572 12.0521 8.01572 12.6268C8.01572 13.2015 7.56294 13.6673 7.00441 13.6673C6.44589 13.6673 5.99311 13.2015 5.99311 12.6268ZM10.3754 11.5863C9.8169 11.5863 9.36412 12.0521 9.36412 12.6268C9.36412 13.2015 9.8169 13.6673 10.3754 13.6673C10.934 13.6673 11.3867 13.2015 11.3867 12.6268C11.3867 12.0521 10.934 11.5863 10.3754 11.5863Z" fill="#9A9A9A"/>
<path fill-rule="evenodd" clip-rule="evenodd" d="M12.3946 5.61245L10.3528 5.06156C10.3638 4.86946 10.3846 4.6696 10.407 4.45451C10.4263 4.26965 10.4467 4.07354 10.4631 3.86142C10.5037 3.33568 10.1776 2.8677 9.70325 2.71628C7.19496 1.91558 5.19336 2.38114 4.36056 2.65841C3.85886 2.82545 3.60207 3.32331 3.6428 3.80202L3.7525 5.0916L3.7517 5.09345L3.74927 5.09579C3.74927 5.09579 3.74776 5.09668 3.7459 5.09707C3.22431 5.20602 2.50351 5.3656 1.86012 5.53269C1.50571 4.98697 1.42964 4.54328 1.46894 4.18925C1.5102 3.81751 1.68703 3.47222 1.94816 3.15723C2.46954 2.52832 3.2265 2.13967 3.39801 2.05746C3.61209 1.99397 4.79702 1.65825 6.27914 1.53682C7.80745 1.4116 9.55582 1.52296 10.8911 2.29701C11.8669 2.86271 12.2889 3.51619 12.4511 4.09123C12.6079 4.64712 12.5395 5.19312 12.3946 5.61245ZM13.4145 6.12038C13.2 6.68132 12.6217 6.87005 12.1583 6.74501L10.0223 6.1687C9.59043 6.05219 9.20062 5.64894 9.22345 5.09305C9.23323 4.85482 9.26484 4.54311 9.29425 4.25306C9.3104 4.09384 9.32588 3.94114 9.33673 3.8107C7.19221 3.1372 5.48785 3.51265 4.76753 3.7436L4.87422 4.99766C4.92458 5.58974 4.53368 6.11659 3.97644 6.23298C3.46095 6.34065 2.7552 6.49709 2.13377 6.65871C1.7193 6.76651 1.22888 6.6308 0.950825 6.21166C0.451433 5.45887 0.274764 4.7301 0.350194 4.05059C0.424362 3.38245 0.734619 2.83004 1.08969 2.40173C1.78807 1.55931 2.7558 1.08247 2.93485 0.997961C2.98019 0.976565 3.02025 0.961487 3.06568 0.947881C3.28165 0.883209 4.56526 0.513997 6.18283 0.381465C7.78358 0.250311 9.8073 0.342118 11.439 1.288C12.6375 1.98281 13.2764 2.86737 13.5323 3.77443C13.7837 4.66558 13.647 5.51197 13.4145 6.12038Z" fill="#9A9A9A"/>
</svg>
