<svg width="14" height="12" viewBox="0 0 14 12" fill="none" xmlns="http://www.w3.org/2000/svg">
<path fill-rule="evenodd" clip-rule="evenodd" d="M13.0002 4.37182C13.0002 3.37393 12.1964 2.55506 11.1725 2.47175L10.7484 1.29022C10.3798 0.263085 9.18761 -0.263861 8.12737 0.131725L1.75729 2.50846C1.69366 2.5322 1.63602 2.56423 1.58518 2.60275C0.851332 2.88525 0.333496 3.57087 0.333496 4.37182V10.093C0.333496 11.1462 1.22893 12 2.3335 12L11.0002 12C12.1047 12 13.0002 11.1462 13.0002 10.093V8.65151C13.3987 8.43168 13.6668 8.02081 13.6668 7.55023V6.27887C13.6668 5.80828 13.3987 5.39741 13.0002 5.17759V4.37182ZM11.6668 5.0075V4.37182C11.6668 4.02074 11.3684 3.73614 11.0002 3.73614L2.3335 3.73614C1.96531 3.73614 1.66683 4.02074 1.66683 4.37182L1.66683 10.093C1.66683 10.444 1.96531 10.7286 2.3335 10.7286L11.0002 10.7286C11.3684 10.7286 11.6668 10.444 11.6668 10.093V8.82159H11.0002C9.89559 8.82159 9.00016 7.96778 9.00016 6.91455C9.00016 5.86132 9.89559 5.0075 11.0002 5.0075H11.6668ZM9.48691 1.70184L9.76071 2.46478L5.53343 2.46478L8.61323 1.31568C8.96664 1.18381 9.36404 1.35946 9.48691 1.70184ZM10.3335 6.91455C10.3335 6.56347 10.632 6.27887 11.0002 6.27887H12.3335V7.55023H11.0002C10.632 7.55023 10.3335 7.26562 10.3335 6.91455Z" fill="#9A9A9A"/>
</svg>
