<svg width="20" height="20" viewBox="0 0 20 20" fill="none" xmlns="http://www.w3.org/2000/svg">
<path fill-rule="evenodd" clip-rule="evenodd" d="M10 0C5.23061 0 2.42702 3.55539 2.04498 7.15521C0.856353 7.55408 0 8.67703 0 10V12C0 13.6569 1.34315 15 3 15C4.65685 15 6 13.6569 6 12V10C6 8.81733 5.31565 7.7945 4.32134 7.30591C4.58547 4.72416 6.33141 2 10 2C13.6686 2 15.4145 4.72416 15.6787 7.30592C14.6844 7.79451 14 8.81733 14 10V12C14 12.8885 14.3863 13.6868 15 14.2361V15.6204C15 16.9346 13.9346 18 12.6204 18H12C11.4477 18 11 18.4477 11 19C11 19.5523 11.4477 20 12 20H12.6204C15.0392 20 17 18.0392 17 15.6204V15C18.6569 15 20 13.6569 20 12V10C20 8.67703 19.1436 7.55408 17.955 7.15521C17.573 3.55539 14.7694 0 10 0ZM4 10C4 9.44771 3.55228 9 3 9C2.44772 9 2 9.44771 2 10V12C2 12.5523 2.44772 13 3 13C3.55228 13 4 12.5523 4 12V10ZM17 9C17.5523 9 18 9.44771 18 10V12C18 12.5523 17.5523 13 17 13C16.4477 13 16 12.5523 16 12V10C16 9.44771 16.4477 9 17 9Z" fill="#9A9A9A"/>
</svg>
