<svg width="20" height="20" viewBox="0 0 20 20" fill="none" xmlns="http://www.w3.org/2000/svg">
<path fill-rule="evenodd" clip-rule="evenodd" d="M2 2.45557C2 2.18465 2.22349 1.96479 2.5 1.96479H13.3368C13.1208 2.41141 13 2.91104 13 3.43838V17.0478L11.4295 15.7914C10.5555 15.0923 9.26635 15.2403 8.5801 16.1187L7.45934 17.5532L6.19482 16.0955C5.43249 15.2168 4.06686 15.1701 3.24423 15.9947L2 17.242V10.0485V2.45557ZM16 0V0.0348205C16.1633 0.0118732 16.3302 0 16.5 0C18.433 0 20 1.53942 20 3.43838V9.73641C20 10.3273 19.5124 10.8063 18.9109 10.8063H15V18.9259C15 19.8291 13.9326 20.3276 13.2196 19.7572L13.2196 19.7572L10.1666 17.315L8.66957 19.2311C8.08839 19.975 6.95716 20.0034 6.33802 19.2897L4.67263 17.37L2.5713 19.4764L1.86907 18.8003L2.5713 19.4764C1.63082 20.4191 0 19.7649 0 18.4449V10.0485V2.45557C0 1.09881 1.11966 0 2.5 0H16ZM18 3.43838V8.84156H15V3.43838C15 2.62454 15.6716 1.96479 16.5 1.96479C17.3284 1.96479 18 2.62454 18 3.43838ZM5 7.85916C4.44772 7.85916 4 8.299 4 8.84156C4 9.38412 4.44772 9.82395 5 9.82395H10C10.5523 9.82395 11 9.38412 11 8.84156C11 8.299 10.5523 7.85916 10 7.85916H5ZM4 12.7711C4 12.2286 4.44772 11.7887 5 11.7887H10C10.5523 11.7887 11 12.2286 11 12.7711C11 13.3137 10.5523 13.7535 10 13.7535H5C4.44772 13.7535 4 13.3137 4 12.7711ZM5 3.92958C4.44772 3.92958 4 4.36942 4 4.91198C4 5.45454 4.44772 5.89437 5 5.89437H10C10.5523 5.89437 11 5.45454 11 4.91198C11 4.36942 10.5523 3.92958 10 3.92958H5Z" fill="#9A9A9A"/>
</svg>
