<svg width="195" height="172" viewBox="0 0 195 172" fill="none" xmlns="http://www.w3.org/2000/svg">
<path d="M116.975 110.343H61.4229C59.0542 110.343 57.1367 108.434 57.1367 106.076V30.2241C57.1367 27.866 59.0542 25.957 61.4229 25.957H116.975C119.343 25.957 121.261 27.866 121.261 30.2241V106.076C121.261 108.434 119.343 110.343 116.975 110.343Z" fill="white" stroke="#E0E0E0" stroke-width="2" stroke-miterlimit="10"/>
<path d="M96.4165 89.8767H81.9787C80.3714 89.8767 79.0742 88.5854 79.0742 86.9852C79.0742 85.3851 80.3714 84.0938 81.9787 84.0938H96.4165C98.0238 84.0938 99.3209 85.3851 99.3209 86.9852C99.3209 88.5854 98.0238 89.8767 96.4165 89.8767Z" fill="#E0E0E0"/>
<path d="M103.043 96.1373H75.3235C74.4776 96.1373 73.8008 95.4636 73.8008 94.6214C73.8008 93.7792 74.4776 93.1055 75.3235 93.1055H103.043C103.889 93.1055 104.566 93.7792 104.566 94.6214C104.566 95.4355 103.889 96.1373 103.043 96.1373Z" fill="#E0E0E0"/>
<path d="M108.147 56.0491C108.147 61.7197 105.638 66.8008 101.661 70.2537C98.334 73.1452 93.9632 74.8857 89.1976 74.8857C84.432 74.8857 80.0612 73.1452 76.7338 70.2257C72.7577 66.7728 70.248 61.6916 70.248 56.021C70.248 45.6061 78.7359 37.1562 89.1976 37.1562C99.6594 37.1562 108.147 45.6342 108.147 56.0491Z" fill="#F2F2F2" stroke="#E0E0E0" stroke-width="2" stroke-miterlimit="10"/>
<path d="M101.664 70.2522C98.3366 73.1437 93.9658 74.8842 89.2002 74.8842C84.4346 74.8842 80.0638 73.1437 76.7363 70.2241C78.1181 69.6908 79.9228 68.9889 82.3479 68.0064C82.9119 67.7818 83.3348 67.3607 83.5886 66.8274C83.7296 66.5186 83.786 66.2098 83.786 65.8729V61.3532C83.7014 61.269 83.645 61.1567 83.5886 61.0725C83.1939 60.483 82.9401 59.8092 82.8555 59.1074L82.4607 58.9109C81.3045 59.1916 81.3891 57.9564 81.0789 55.5703C80.9662 54.5877 81.1071 54.3912 81.5583 54.2228L81.9249 53.7175C79.669 48.6644 80.797 45.4922 83.0247 44.3693C82.2915 42.7692 82.2351 42.1797 82.2351 42.1797C82.2351 42.1797 86.9725 42.9657 88.5798 42.6569C90.6383 42.2358 93.8248 42.7411 95.0091 45.4642C96.983 46.2221 97.7444 47.4854 97.9136 48.8048C98.0828 50.04 97.7162 51.3875 97.3496 52.4262C97.3214 52.5104 97.2932 52.5665 97.265 52.6227C97.265 52.6507 97.2368 52.6788 97.2368 52.7069C97.1804 52.8472 97.1522 52.9595 97.0958 53.0718C97.0676 53.128 97.0676 53.1841 97.0394 53.2403C97.0112 53.3526 96.9548 53.4648 96.9266 53.5491C96.9266 53.5771 96.9266 53.5771 96.8984 53.6052C96.8702 53.6894 96.8421 53.7736 96.8139 53.8579C96.7857 53.9701 96.7575 54.0544 96.7293 54.1386C96.7575 54.1667 96.7575 54.2228 96.7857 54.2509C97.0958 54.3912 97.2086 54.672 97.0958 55.5422C96.8139 57.8161 96.8985 59.1916 95.7141 58.8828L94.6707 60.6795C94.6425 60.876 94.6144 60.9883 94.5862 61.1006C94.558 61.4374 94.558 62.1112 94.558 65.8167C94.558 66.2659 94.6989 66.687 94.9245 67.0519C95.1783 67.445 95.5449 67.7818 95.9961 67.9783C95.9961 67.9783 96.0243 67.9783 96.0243 68.0064C98.4776 69.0451 100.282 69.7188 101.664 70.2522Z" fill="white" stroke="#E0E0E0" stroke-width="2" stroke-miterlimit="10"/>
<path d="M96.758 54.1666C96.8426 53.6052 96.5888 52.8753 96.3914 52.3981C96.3632 52.3139 96.3068 52.2296 96.2786 52.1454C95.3763 50.3488 93.3459 49.5908 91.4284 49.4785C86.5218 49.2259 86.0425 50.1523 84.5197 48.7487C84.9991 49.4505 85.0273 50.6014 84.2941 52.0051C83.7866 52.9876 82.7996 53.4368 81.8973 53.7175C79.6413 48.6644 80.7693 45.4922 82.997 44.3693C82.2638 42.7692 82.2074 42.1797 82.2074 42.1797C82.2074 42.1797 86.9448 42.9657 88.5522 42.6569C90.6107 42.2358 93.7971 42.7411 94.9815 45.4642C96.9554 46.2221 97.7168 47.4854 97.8859 48.8048C98.2243 50.9102 96.9836 53.2403 96.758 54.1666Z" fill="#E0E0E0"/>
<path d="M83.7579 61.3544C83.6733 61.2702 83.6169 61.1579 83.5605 61.0737V60.793C83.8143 61.2141 84.1245 61.579 84.4911 61.9159L88.0441 64.4143C88.8619 65.1161 90.0745 65.1161 90.9204 64.4424L94.2479 61.4667C94.3607 61.3825 94.4735 61.2702 94.5863 61.1579" stroke="#E0E0E0" stroke-width="2" stroke-miterlimit="10"/>
<path d="M41.5141 97.2903H5.78621C3.41752 97.2903 1.5 95.3813 1.5 93.0232V43.2787C1.5 40.9207 3.41752 39.0117 5.78621 39.0117H41.5141C43.8827 39.0117 45.8003 40.9207 45.8003 43.2787V93.0513C45.8003 95.4094 43.8827 97.2903 41.5141 97.2903Z" fill="white" stroke="#E0E0E0" stroke-width="2" stroke-miterlimit="10"/>
<path d="M28.629 83.166H18.6466C17.5469 83.166 16.6445 82.2677 16.6445 81.1728C16.6445 80.078 17.5469 79.1797 18.6466 79.1797H28.629C29.7288 79.1797 30.6311 80.078 30.6311 81.1728C30.6311 82.2677 29.7288 83.166 28.629 83.166Z" fill="#E0E0E0"/>
<path d="M33.2216 87.4914H14.0746C13.4824 87.4914 13.0312 87.0142 13.0312 86.4527C13.0312 85.8632 13.5106 85.4141 14.0746 85.4141H33.2216C33.8137 85.4141 34.2649 85.8913 34.2649 86.4527C34.2649 87.0142 33.7855 87.4914 33.2216 87.4914Z" fill="#E0E0E0"/>
<path d="M36.7192 59.7835C36.7192 63.7136 34.9709 67.2227 32.2356 69.6088C29.9233 71.602 26.9343 72.8091 23.635 72.8091C20.3358 72.8091 17.3185 71.602 15.0344 69.6088C12.2991 67.2227 10.5508 63.7136 10.5508 59.7835C10.5508 52.5969 16.4161 46.7578 23.635 46.7578C30.8539 46.7578 36.7192 52.5969 36.7192 59.7835Z" fill="#F2F2F2" stroke="#E0E0E0" stroke-width="2" stroke-miterlimit="10"/>
<path d="M32.2345 69.6083C29.9222 71.6015 26.9331 72.8086 23.6338 72.8086C20.3346 72.8086 17.3173 71.6015 15.0332 69.6083C15.992 69.2434 17.2327 68.7661 18.8964 68.0643C19.2912 67.8959 19.5732 67.6152 19.7424 67.2502C19.827 67.0537 19.8834 66.8291 19.8834 66.5765V63.4604C19.827 63.4043 19.7706 63.3201 19.7424 63.2639C19.4604 62.8709 19.2912 62.3937 19.2348 61.9164L18.9528 61.7761C18.1633 61.9726 18.2197 61.1023 17.9941 59.4741C17.9095 58.8004 18.0223 58.66 18.3043 58.5477L18.558 58.2109C17.0071 54.7018 17.7967 52.5122 19.3194 51.7542C18.8118 50.6594 18.7836 50.2383 18.7836 50.2383C18.7836 50.2383 22.0547 50.7717 23.1826 50.5752C24.6208 50.2944 26.7921 50.6313 27.6099 52.5122C28.9634 53.0455 29.4992 53.9158 29.612 54.8141C29.7248 55.6843 29.471 56.5827 29.2454 57.3126C29.2172 57.3687 29.2172 57.3968 29.189 57.4529C29.189 57.481 29.1608 57.481 29.1608 57.5091C29.1326 57.5933 29.1044 57.6775 29.0762 57.7617C29.048 57.7898 29.048 57.8459 29.0198 57.874C28.9916 57.9582 28.9634 58.0144 28.9352 58.0986V58.1267C28.907 58.1828 28.8788 58.2389 28.8788 58.2951C28.8506 58.3793 28.8224 58.4355 28.8224 58.4916C28.8506 58.5197 28.8506 58.5477 28.8506 58.5758C29.0762 58.6881 29.1326 58.8565 29.048 59.4461C28.8506 61.0181 28.907 61.9726 28.0892 61.748L27.3843 63.0113C27.3561 63.1516 27.3279 63.2078 27.3279 63.3201C27.2997 63.5447 27.2997 64.0219 27.2997 66.5765C27.2997 66.8853 27.3843 67.166 27.5535 67.4187C27.7226 67.6994 27.9764 67.924 28.2866 68.0363H28.3148C30.0631 68.7661 31.3039 69.2434 32.2345 69.6083Z" fill="white" stroke="#E0E0E0" stroke-width="2" stroke-miterlimit="10"/>
<path d="M28.8793 58.4923C28.9357 58.0993 28.7665 57.6221 28.6255 57.2571C28.5973 57.201 28.5691 57.1448 28.5409 57.0887C27.9205 55.8535 26.5106 55.3201 25.1853 55.264C21.8014 55.0956 21.463 55.7412 20.4197 54.7587C20.7581 55.264 20.7863 56.0219 20.2787 57.0045C19.9121 57.6782 19.2353 57.987 18.6431 58.1835C17.0922 54.6745 17.8818 52.4848 19.4045 51.7269C18.8969 50.632 18.8687 50.2109 18.8687 50.2109C18.8687 50.2109 22.1398 50.7443 23.2677 50.5478C24.7059 50.2671 26.8772 50.604 27.695 52.4848C29.0485 53.0182 29.5843 53.8884 29.6971 54.7868C29.8663 56.2465 29.0203 57.8467 28.8793 58.4923Z" fill="#E0E0E0"/>
<path d="M27.637 67.4489V68.0665H19.7695V67.2524C19.8541 67.0559 19.9105 66.8313 19.9105 66.5787V63.4626C19.8541 63.4065 19.7977 63.3222 19.7695 63.2661V63.0977C19.9387 63.3784 20.1643 63.6591 20.4181 63.8556L22.8714 65.568C23.4354 66.0453 24.2813 66.0733 24.8735 65.5961L27.1858 63.5468C27.2704 63.4907 27.355 63.4065 27.4114 63.3222C27.3832 63.5468 27.3832 64.0241 27.3832 66.5787C27.3832 66.8874 27.4678 67.1962 27.637 67.4489Z" fill="url(#paint0_linear_822_31526)"/>
<path d="M171.766 97.2903H136.038C133.669 97.2903 131.752 95.3813 131.752 93.0232V43.2787C131.752 40.9207 133.669 39.0117 136.038 39.0117H171.766C174.135 39.0117 176.052 40.9207 176.052 43.2787V93.0513C176.052 95.4094 174.135 97.2903 171.766 97.2903Z" fill="white" stroke="#E0E0E0" stroke-width="2" stroke-miterlimit="10"/>
<path d="M158.877 83.166H148.895C147.795 83.166 146.893 82.2677 146.893 81.1728C146.893 80.078 147.795 79.1797 148.895 79.1797H158.877C159.977 79.1797 160.879 80.078 160.879 81.1728C160.907 82.2677 160.005 83.166 158.877 83.166Z" fill="#E0E0E0"/>
<path d="M163.474 87.4914H144.327C143.734 87.4914 143.283 87.0142 143.283 86.4527C143.283 85.8632 143.763 85.4141 144.327 85.4141H163.474C164.066 85.4141 164.517 85.8913 164.517 86.4527C164.517 87.0142 164.066 87.4914 163.474 87.4914Z" fill="#E0E0E0"/>
<path d="M166.999 59.7835C166.999 63.7136 165.25 67.2227 162.515 69.6088C160.203 71.602 157.214 72.8091 153.914 72.8091C150.615 72.8091 147.598 71.602 145.314 69.6088C142.578 67.2227 140.83 63.7136 140.83 59.7835C140.83 52.5969 146.695 46.7578 153.914 46.7578C161.133 46.7578 166.999 52.5969 166.999 59.7835Z" fill="#F2F2F2" stroke="#E0E0E0" stroke-width="2" stroke-miterlimit="10"/>
<path d="M162.512 69.6083C160.199 71.6015 157.21 72.8086 153.911 72.8086C150.612 72.8086 147.595 71.6015 145.311 69.6083C146.269 69.2434 147.51 68.7661 149.174 68.0643C149.569 67.8959 149.851 67.6152 150.02 67.2502C150.104 67.0537 150.161 66.8291 150.161 66.5765V63.4604C150.104 63.4043 150.048 63.3201 150.02 63.2639C149.738 62.8709 149.569 62.3937 149.512 61.9164L149.23 61.7761C148.441 61.9726 148.497 61.1023 148.271 59.4741C148.187 58.8004 148.3 58.66 148.582 58.5477L148.835 58.2109C147.284 54.7018 148.074 52.5122 149.597 51.7542C149.089 50.6594 149.061 50.2383 149.061 50.2383C149.061 50.2383 152.332 50.7717 153.46 50.5752C154.898 50.2944 157.069 50.6313 157.887 52.5122C159.241 53.0455 159.777 53.9158 159.889 54.8141C160.002 55.6843 159.748 56.5827 159.523 57.3126C159.495 57.3687 159.495 57.3968 159.466 57.4529C159.466 57.481 159.438 57.481 159.438 57.5091C159.41 57.5933 159.382 57.6775 159.354 57.7617C159.325 57.7898 159.325 57.8459 159.297 57.874C159.269 57.9582 159.241 58.0144 159.213 58.0986V58.1267C159.184 58.1828 159.156 58.2389 159.156 58.2951C159.128 58.3793 159.1 58.4355 159.1 58.4916C159.128 58.5197 159.128 58.5477 159.128 58.5758C159.354 58.6881 159.41 58.8565 159.325 59.4461C159.128 61.0181 159.184 61.9726 158.367 61.748L157.662 63.0113C157.633 63.1516 157.605 63.2078 157.605 63.3201C157.577 63.5447 157.577 64.0219 157.577 66.5765C157.577 66.8853 157.662 67.166 157.831 67.4187C158 67.6994 158.254 67.924 158.564 68.0363H158.592C160.312 68.7661 161.553 69.2434 162.512 69.6083Z" fill="white" stroke="#E0E0E0" stroke-width="2" stroke-miterlimit="10"/>
<path d="M159.127 58.4923C159.184 58.0993 159.015 57.6221 158.874 57.2571C158.845 57.201 158.817 57.1448 158.789 57.0887C158.169 55.8535 156.759 55.3201 155.433 55.264C152.049 55.0956 151.711 55.7412 150.668 54.7587C151.006 55.264 151.034 56.0219 150.527 57.0045C150.16 57.6782 149.483 57.987 148.891 58.1835C147.34 54.6745 148.13 52.4848 149.653 51.7269C149.145 50.632 149.117 50.2109 149.117 50.2109C149.117 50.2109 152.388 50.7443 153.516 50.5478C154.954 50.2671 157.125 50.604 157.943 52.4848C159.297 53.0182 159.832 53.8884 159.945 54.7868C160.114 56.2465 159.297 57.8467 159.127 58.4923Z" fill="#E0E0E0"/>
<path d="M157.887 67.4489V68.0665H150.02V67.2524C150.104 67.0559 150.161 66.8313 150.161 66.5787V63.4626C150.104 63.4065 150.048 63.3222 150.02 63.2661V63.0977C150.189 63.3784 150.414 63.6591 150.668 63.8556L153.121 65.568C153.685 66.0453 154.531 66.0733 155.124 65.5961L157.436 63.5468C157.52 63.4907 157.605 63.4065 157.661 63.3222C157.633 63.5468 157.633 64.0241 157.633 66.5787C157.633 66.8874 157.718 67.1962 157.887 67.4489Z" fill="url(#paint1_linear_822_31526)"/>
<path d="M165.082 150.824L129.41 115.34L137.588 107.199L173.231 142.711L165.082 150.824Z" fill="#E0E0E0" stroke="#E0E0E0" stroke-width="2" stroke-miterlimit="10"/>
<path d="M182.847 168.65L155.494 141.42C153.21 139.146 153.21 135.44 155.494 133.166C157.778 130.892 161.501 130.892 163.785 133.166L191.138 160.397C193.422 162.671 193.422 166.376 191.138 168.65C188.853 170.924 185.131 170.924 182.847 168.65Z" fill="#E0E0E0" stroke="#E0E0E0" stroke-width="2" stroke-miterlimit="10"/>
<path d="M180.903 170.388L145.711 135.354C144.893 134.54 144.893 133.22 145.711 132.378L154.706 123.423C155.524 122.609 156.85 122.609 157.695 123.423L192.888 158.458C193.705 159.272 193.705 160.591 192.888 161.433L183.892 170.388C183.046 171.203 181.721 171.203 180.903 170.388Z" fill="#F2F2F2" stroke="#E0E0E0" stroke-width="2" stroke-miterlimit="10"/>
<path d="M89.0299 1C51.6948 1 21.4375 31.1218 21.4375 68.2898C21.4375 105.43 51.6948 135.58 89.0017 135.58C126.337 135.58 156.594 105.458 156.594 68.2898C156.594 31.1218 126.337 1 89.0299 1ZM89.0299 123.115C59.0547 123.115 34.7755 98.552 34.7755 68.2617C34.7755 37.9715 59.0547 13.4361 89.0299 13.4361C119.005 13.4361 143.284 37.9996 143.284 68.2898C143.284 98.5801 118.977 123.115 89.0299 123.115Z" fill="#F2F2F2" stroke="#E0E0E0" stroke-width="2" stroke-miterlimit="10"/>
<defs>
<linearGradient id="paint0_linear_822_31526" x1="23.7056" y1="68.0967" x2="23.7056" y2="65.3594" gradientUnits="userSpaceOnUse">
<stop stop-color="white"/>
<stop offset="1" stop-color="#E2E5EC"/>
</linearGradient>
<linearGradient id="paint1_linear_822_31526" x1="153.956" y1="68.0967" x2="153.956" y2="65.3594" gradientUnits="userSpaceOnUse">
<stop stop-color="white"/>
<stop offset="1" stop-color="#E2E5EC"/>
</linearGradient>
</defs>
</svg>
