<svg width="20" height="16" viewBox="0 0 20 16" fill="none" xmlns="http://www.w3.org/2000/svg">
<path fill-rule="evenodd" clip-rule="evenodd" d="M17.874 5C17.4299 6.72523 15.8638 8 14 8C12.1362 8 10.5701 6.72523 10.126 5L1 5C0.447717 5 0 4.55229 0 4C0 3.44772 0.447716 3 1 3L10.126 3C10.5701 1.27477 12.1362 0 14 0C15.8638 0 17.4299 1.27477 17.874 3L19 3C19.5523 3 20 3.44772 20 4C20 4.55229 19.5523 5 19 5L17.874 5ZM16 4C16 2.89543 15.1046 2 14 2C12.8954 2 12 2.89543 12 4C12 5.10457 12.8954 6 14 6C15.1046 6 16 5.10457 16 4ZM6 8C4.13616 8 2.57006 9.27477 2.12602 11L1 11C0.447716 11 0 11.4477 0 12C0 12.5523 0.447714 13 0.999999 13L2.12602 13C2.57006 14.7252 4.13616 16 6 16C7.86384 16 9.42994 14.7252 9.87398 13H19C19.5523 13 20 12.5523 20 12C20 11.4477 19.5523 11 19 11H9.87398C9.42994 9.27477 7.86384 8 6 8ZM6 14C4.89543 14 4 13.1046 4 12C4 10.8954 4.89543 10 6 10C7.10457 10 8 10.8954 8 12C8 13.1046 7.10457 14 6 14Z" fill="#3E7EBD"/>
</svg>
