<svg width="20" height="16" viewBox="0 0 20 16" fill="none" xmlns="http://www.w3.org/2000/svg">
<path fill-rule="evenodd" clip-rule="evenodd" d="M2.77 9.98723C2.43988 10.0222 2.11393 9.89103 1.9 9.63707L0.16 7.5161C0.050715 7.39311 0.0103964 7.22348 0.052652 7.06444C0.0949076 6.90541 0.2141 6.77819 0.37 6.72573L1 6.49563C1.26473 6.40612 1.55483 6.43151 1.8 6.56566L3.89 7.7462L7.62 6.40559L3.16 1.07313C3.05071 0.950151 3.0104 0.780515 3.05265 0.62148C3.09491 0.462445 3.2141 0.33523 3.37 0.282771L4 0.0526652C4.26473 -0.036845 4.55483 -0.0114502 4.8 0.122697L12.65 4.55474L16.38 3.20411C17.1303 2.93559 17.9558 2.9715 18.68 3.30416L19.68 3.76437C19.8013 3.82075 19.8949 3.92338 19.94 4.04934C19.9851 4.1753 19.9779 4.31408 19.92 4.43468V4.51472C19.6883 4.98302 19.2828 5.34209 18.79 5.51518L8.69 9.19687C8.2264 9.3574 7.74703 9.46807 7.26 9.52702L2.77 9.98723ZM20 15.4998V14.4993C20 14.223 19.7761 13.9991 19.5 13.9991H0.5C0.223858 13.9991 0 14.223 0 14.4993V15.4998C0 15.776 0.223858 16 0.5 16H19.5C19.7761 16 20 15.776 20 15.4998Z" fill="black"/>
</svg>
