<svg width="20" height="18" viewBox="0 0 20 18" fill="none" xmlns="http://www.w3.org/2000/svg">
<path fill-rule="evenodd" clip-rule="evenodd" d="M4.56 9.12485L1.44 7.01838C1.17022 6.83641 1.00606 6.53472 1 6.20973V3.52422C0.989854 3.35636 1.06505 3.19469 1.20005 3.09411C1.33505 2.99353 1.5117 2.96758 1.67 3.02506L2.3 3.28462C2.57704 3.38331 2.79651 3.59876 2.9 3.87364L3.71 6.02005L8 7.51754V0.529235C7.98985 0.361376 8.06505 0.199699 8.20005 0.0991218C8.33505 -0.00145488 8.5117 -0.0274109 8.67 0.0300704L9.3 0.289636C9.57704 0.388322 9.79651 0.603771 9.9 0.87865L13.06 9.29457L16.8 10.6024C17.5464 10.8744 18.1542 11.4309 18.49 12.1498L18.95 13.1481C19.0079 13.2685 19.0151 13.4069 18.97 13.5326C18.9249 13.6583 18.8313 13.7607 18.71 13.817H18.63C18.1495 14.042 17.5991 14.0672 17.1 13.8869L5.87 9.78375C5.40798 9.61843 4.96803 9.39715 4.56 9.12485ZM20 17.5008V16.5025C20 16.2268 19.7761 16.0033 19.5 16.0033H0.5C0.223858 16.0033 0 16.2268 0 16.5025V17.5008C0 17.7765 0.223858 18 0.5 18H19.5C19.7761 18 20 17.7765 20 17.5008Z" fill="white"/>
</svg>
