<svg width="20" height="20" viewBox="0 0 20 20" fill="none" xmlns="http://www.w3.org/2000/svg">
<path fill-rule="evenodd" clip-rule="evenodd" d="M10 20C4.47715 20 0 15.5228 0 10C0 4.47715 4.47715 0 10 0C15.5228 0 20 4.47715 20 10C20 15.5228 15.5228 20 10 20ZM10 2C5.58172 2 2 5.58172 2 10C2 12.1455 2.8446 14.0938 4.21946 15.5304C4.60042 14.2897 5.45113 13.2545 6.56411 12.6325C5.60091 11.7211 5 10.4307 5 9C5 6.23858 7.23858 4 10 4C12.7614 4 15 6.23858 15 9C15 10.4307 14.3991 11.7211 13.4359 12.6325C14.5489 13.2545 15.3996 14.2897 15.7805 15.5304C17.1554 14.0938 18 12.1455 18 10C18 5.58172 14.4183 2 10 2ZM13.9992 16.9302C13.9621 15.3056 12.6335 14 11 14H10H9C7.36648 14 6.03789 15.3056 6.0008 16.9302C7.17731 17.6106 8.54318 18 10 18C11.4568 18 12.8227 17.6106 13.9992 16.9302ZM10 12C11.6569 12 13 10.6569 13 9C13 7.34315 11.6569 6 10 6C8.34315 6 7 7.34315 7 9C7 10.6569 8.34315 12 10 12Z" fill="black"/>
</svg>
