<svg width="14" height="14" viewBox="0 0 14 14" fill="none" xmlns="http://www.w3.org/2000/svg">
<path fill-rule="evenodd" clip-rule="evenodd" d="M6.80968 10.7395C7.06709 10.4762 7.06234 10.0541 6.79909 9.79671C6.53583 9.5393 6.11374 9.54404 5.85634 9.8073L4.33301 11.3652V1.00065C4.33301 0.632461 4.03453 0.333984 3.66634 0.333984C3.29815 0.333984 2.99967 0.632461 2.99967 1.00065L2.99967 11.3652L1.47635 9.8073C1.21894 9.54404 0.796855 9.5393 0.533596 9.79671C0.270338 10.0541 0.265595 10.4762 0.523004 10.7395L3.18967 13.4667C3.3151 13.595 3.48693 13.6673 3.66634 13.6673C3.84575 13.6673 4.01758 13.595 4.14301 13.4667L6.80968 10.7395ZM13.4763 3.26185C13.7338 3.52511 13.729 3.94719 13.4658 4.2046C13.2025 4.46201 12.7804 4.45726 12.523 4.194L10.9997 2.63605V13.0007C10.9997 13.3688 10.7012 13.6673 10.333 13.6673C9.96482 13.6673 9.66634 13.3688 9.66634 13.0007V2.63605L8.14301 4.194C7.8856 4.45726 7.46352 4.46201 7.20026 4.2046C6.93701 3.94719 6.93226 3.52511 7.18967 3.26185L9.85634 0.534573C9.98176 0.406295 10.1536 0.333984 10.333 0.333984C10.5124 0.333984 10.6843 0.406295 10.8097 0.534573L13.4763 3.26185Z" fill="#908BCE"/>
</svg>
