<svg width="105" height="104" viewBox="0 0 105 104" fill="none" xmlns="http://www.w3.org/2000/svg">
<path d="M62.3368 52.868L62.3311 52.8608L62.3368 52.868Z" fill="url(#paint0_radial_463_21130)"/>
<path d="M98.1613 48.2283C95.5285 46.5698 92.809 45.0531 90.0144 43.6845C89.5241 43.4458 89.4669 43.3528 89.5854 42.9191C90.1247 40.9462 90.5979 38.952 91.2297 37.0098C92.291 33.7478 93.4553 30.5192 94.5759 27.2764C94.6248 27.135 94.6674 26.9909 94.709 26.8604C94.5499 26.6004 94.3138 26.6587 94.1027 26.6576C92.6644 26.6498 91.2266 26.6431 89.7867 26.6451C89.3494 26.6451 88.8455 26.5411 88.4929 26.7242C88.1196 26.9161 87.8648 27.3705 87.6016 27.7413C86.2918 29.5904 84.972 31.4333 83.8769 33.4244C83.5264 34.0614 83.1447 34.6807 82.7781 35.3089C82.0831 36.492 81.2405 37.582 80.2707 38.5526C79.4324 39.3961 79.6722 39.2895 78.6764 38.8995C77.5448 38.4564 76.4508 37.9177 75.3374 37.4268C75.1887 37.3618 75.0202 37.2937 74.8642 37.3005C74.2574 37.327 73.6516 37.3852 73.0442 37.4279C71.6595 37.5246 70.2851 37.6972 68.9362 38.0248C68.7841 38.0703 68.6344 38.124 68.488 38.1855L68.4521 38.3228C69.1104 38.8277 69.8239 39.2588 70.491 39.7538C71.1582 40.2489 71.867 40.7023 72.6548 41.2405C72.2388 41.2072 71.9403 41.1781 71.6413 41.1599C70.6013 41.0975 69.5743 40.811 68.5171 40.9634C68.3611 40.9862 68.1822 40.9228 68.0257 40.8666C67.2977 40.6066 66.5333 40.6378 65.7746 40.539L65.6296 40.8022C68.1198 41.1984 69.54 41.4943 68.307 41.2878C67.6134 41.1719 66.435 41.0278 65.031 40.8776L65.003 40.9649H64.171L64.2354 40.7933C59.3381 40.2832 52.4086 39.7102 52.4086 39.7102C52.6041 39.9395 52.8246 40.1516 52.9904 40.4018C54.1568 42.1765 54.6492 44.0938 54.1058 46.192C53.9639 46.7385 53.6956 47.2642 53.4174 47.7608C53.1012 48.324 52.5937 48.689 51.9671 48.883C50.9318 49.2038 49.8871 49.4399 48.7951 49.5226C46.7723 49.6786 44.7536 49.8866 42.7314 50.0426C42.0954 50.0914 41.4516 50.0389 40.8115 50.0327C40.6956 50.029 40.5795 50.0354 40.4647 50.0519C42.7397 50.7071 45.0287 50.2449 47.3427 50.0696C47.2985 50.326 47.1524 50.3156 47.026 50.3296C46.2382 50.4279 45.4452 50.4986 44.6632 50.6307C43.8621 50.7608 43.052 50.8276 42.2405 50.8304C37.7409 50.8772 33.2403 50.9001 28.7413 51.0025C26.2572 51.0592 23.7763 51.2557 21.2938 51.3868C21.0962 51.4055 20.897 51.3757 20.7135 51.2999C20.8004 51.2776 20.8886 51.2611 20.9777 51.2505C22.9693 51.133 24.963 51.0394 26.953 50.8933C28.0284 50.8148 29.0964 50.6333 30.1702 50.5236C30.9934 50.4383 31.8254 50.4263 32.6439 50.3156C33.309 50.224 33.9631 50.0431 34.6152 49.8751C34.805 49.8263 34.9875 49.7077 35.1456 49.585C35.599 49.2324 35.5179 48.6027 35.0036 48.3505C33.79 47.7556 32.5596 47.1883 31.3714 46.5487C30.6587 46.16 29.9803 45.7116 29.3434 45.2081C29.0314 44.9653 28.7512 44.8753 28.3809 44.8961C26.1792 45.0313 24.0129 45.3693 21.9038 46.0282C20.856 46.3552 19.7884 46.6241 18.7536 46.987C17.4599 47.4339 16.2157 48.0131 15.0408 48.7155C14.877 48.8143 14.6883 48.8715 14.511 48.9495L14.4408 48.833C14.5661 48.7509 14.6898 48.6661 14.8172 48.5871C17.5888 46.8576 20.6267 45.8004 23.7826 45.0469C25.3462 44.6741 26.926 44.3907 28.5343 44.2908C28.6898 44.2737 28.8443 44.2484 28.9971 44.2149C29.8348 45.1088 30.8691 45.7479 31.944 46.311C33.3516 47.0463 34.7785 47.7462 36.195 48.4654C36.495 48.6178 36.7862 48.7883 37.0826 48.948C37.9593 49.4212 38.9281 49.5454 39.8906 49.715C41.2566 49.9557 42.6107 49.9084 43.9799 49.7415C45.4562 49.561 46.9439 49.4815 48.4217 49.3068C49.4264 49.1861 50.4232 48.989 51.4164 48.7909C52.3607 48.6027 53.0112 48.0395 53.407 47.1529C53.9192 46.0058 54.0544 44.8249 53.875 43.5862C53.6966 42.358 53.3238 41.2202 52.5297 40.2432C52.421 40.1095 52.3649 39.9312 52.2843 39.7752L52.4065 39.7091C52.8017 39.666 53.2447 39.641 53.7252 39.6322V39.5978H54.5281L54.5198 39.6301C54.9919 39.6363 55.4906 39.654 56.0075 39.6821L56.4848 39.7029L56.5285 39.6982L56.5441 39.7039C56.7448 39.7211 56.9461 39.7367 57.1463 39.7559L57.3766 39.7736C57.4438 39.7653 57.5119 39.7708 57.5768 39.7897C58.7619 39.887 59.9938 40.0206 61.1888 40.1688L62.4841 40.2998C62.4841 40.3118 62.4841 40.3243 62.4841 40.3362C63.1185 40.422 63.7321 40.5099 64.3119 40.5962L64.3899 40.3882V40.382C63.495 40.2822 62.5902 40.1776 61.6859 40.0809C58.4078 39.7301 55.1295 39.3796 51.8511 39.0295C51.3665 38.9775 50.8584 38.9629 50.4076 38.8017C48.2314 38.0254 45.984 37.7019 43.6882 37.6577C42.0377 37.6276 40.4148 37.8777 38.822 38.2786C37.4825 38.6156 36.0941 38.8069 34.8482 39.4574C34.2793 39.7544 33.7208 40.0721 33.1706 40.4012C32.7666 40.643 32.3834 40.9212 31.9746 41.1885C31.8124 41.0783 31.658 40.9805 31.5066 40.8713C28.7551 38.9303 26.0057 36.9892 23.2584 35.0478C21.8222 34.0323 20.3901 33.0105 18.9466 32.0058C18.6439 31.7952 18.465 31.542 18.437 31.1796C18.3881 30.5389 18.3413 29.8983 18.2919 29.2556C18.2768 29.059 18.2576 28.8624 18.2399 28.6477C18.0204 28.6685 17.8572 28.6861 17.6928 28.6997C16.3445 28.8005 14.9888 28.8458 13.6488 29.0143C11.9229 29.2306 10.2069 29.5306 8.49196 29.8255C7.77436 29.9492 7.08068 30.1848 6.46708 30.5972C5.64808 31.1478 5.51288 31.5384 5.72244 32.4926C5.77158 32.758 5.89824 33.003 6.08644 33.1966C6.45668 33.5674 6.82328 33.9428 7.21328 34.2923C9.39381 36.2444 11.5761 38.1925 13.7601 40.1366C15.097 41.3284 16.4282 42.5286 17.7786 43.7032C18.491 44.3241 19.2383 44.905 20.0344 45.557C17.932 46.2388 15.9451 47.0619 14.0076 48.105C14.0076 47.8892 13.9904 47.7379 14.0107 47.5918C14.2322 45.9855 14.4527 44.3792 14.6914 42.7756C14.7377 42.4636 14.7049 42.2301 14.4439 42.0153C14.0133 41.6612 13.6119 41.2696 13.1959 40.8989C13.1058 40.83 13.0111 40.7675 12.9125 40.7117C12.9125 42.0309 12.9192 43.2987 12.9125 44.5654C12.9057 45.8321 13.0222 47.0864 12.9577 48.3614C11.8174 48.3796 10.7945 48.6453 9.81328 49.0894C9.1457 49.3833 8.54195 49.8048 8.03592 50.3301C7.73952 50.6421 7.73484 50.8616 8.0406 51.1621C8.37652 51.4934 8.73896 51.7861 9.23244 51.886C9.47684 51.9349 9.70044 52.0779 10.0275 52.2167L8.54864 52.6109C8.04424 53.5099 8.05048 54.9119 8.55488 55.3221C8.88248 55.0861 9.2028 54.8463 9.53248 54.6196C10.3645 54.0466 11.2001 53.478 12.0394 52.914C12.0914 52.8797 12.2167 52.862 12.225 52.8771C12.3587 53.1345 12.5682 52.9483 12.7383 52.9733C12.8542 52.9904 12.9738 52.9868 13.0888 53.0087C13.681 53.1205 13.8506 53.0175 14.0107 52.4523C14.0991 52.1403 14.1974 51.8314 14.292 51.5215C14.2946 51.4934 14.2972 51.4653 14.3004 51.4372L14.3144 51.4305C14.3144 50.913 14.3102 50.3957 14.3144 49.8783C14.317 49.5273 14.5323 49.3192 14.8568 49.4149C15.5681 49.6229 16.2608 49.5189 16.9612 49.378C18.6658 49.0313 20.3708 48.6888 22.0764 48.3505C22.246 48.3167 22.4212 48.312 22.5933 48.2938C22.6016 48.3328 22.6105 48.3718 22.6188 48.4108C22.507 48.4566 22.3978 48.5122 22.2824 48.5476C21.0406 48.9292 19.7973 49.3057 18.555 49.6874C17.748 49.9355 16.9388 50.1772 16.1391 50.4471C15.798 50.5626 15.4631 50.6754 15.1833 50.9671C14.967 51.1923 14.6113 51.2843 14.3144 51.4325V51.4507C14.3071 51.4752 14.2993 51.4996 14.292 51.5235C14.2681 51.7799 14.2588 52.0399 14.1979 52.2874C14.1355 52.5433 14.0596 52.836 13.8859 53.0128C13.7346 53.1688 13.4418 53.1834 13.1579 53.2796C13.4959 55.4027 13.8396 57.5602 14.1782 59.6875C15.2052 59.6875 16.1339 59.5045 16.9232 58.9226L17.1973 59.1909C17.1208 58.7864 16.9711 58.4328 16.8198 58.0792C16.6684 57.7256 16.5109 57.3657 16.3606 57.0075C16.2155 56.6606 16.0767 56.3117 15.9347 55.9638C17.6507 56.7547 19.4068 57.2591 21.1992 57.7448C21.0676 57.9528 20.974 58.0937 20.8872 58.2388C20.0708 59.6428 20.3474 61.3656 21.5705 62.4337C22.3936 63.1533 23.3671 63.4295 24.443 63.3203C26.4668 63.1154 28.0871 61.3375 27.6935 59.1686C27.6763 59.076 27.6602 58.9835 27.6415 58.8925L35.6068 59.2663C36.8585 60.7353 38.29 64.7934 38.1548 66.5713C38.0774 66.6181 37.99 66.668 37.9058 66.7221C36.339 67.7361 35.4758 69.1526 35.5398 71.0417C35.6074 73.0307 37.1876 74.3698 39.1704 74.2091C41.422 74.0266 43.4651 71.6611 43.2046 69.1963C43.0319 67.5655 42.0023 66.4522 40.4954 66.1969C40.2494 66.1553 39.9972 66.1506 39.7492 66.1293C39.6758 65.4533 39.6238 64.8012 39.5308 64.1533C39.3332 62.7774 38.9556 61.4431 38.5599 60.1134C38.5079 59.9444 38.4798 59.7687 38.4445 59.6116C38.7778 59.4385 38.9889 59.6267 39.2094 59.7328C51.1486 65.4833 63.0873 71.2354 75.0254 76.989C75.4711 77.2038 75.8871 77.4534 76.4398 77.3696C77.003 77.2838 77.5916 77.3696 78.1558 77.2994C81.5707 76.858 84.9054 76.0858 88.1076 74.7925C88.3104 74.7109 88.5236 74.6584 88.7316 74.5876C89.8978 74.1872 91.0635 73.7856 92.2286 73.3828C92.3752 73.3308 92.5572 73.3069 92.5926 73.0141C92.3586 73.038 92.1646 73.0521 91.9728 73.0791C91.1694 73.193 90.3654 73.3022 89.5641 73.4301C89.1642 73.4941 88.8002 73.4509 88.4404 73.2523C86.8872 72.3937 85.3272 71.5472 83.7708 70.6939C80.4064 68.8484 77.0472 66.9925 73.6766 65.1579C70.7646 63.5725 67.7444 62.2085 64.7279 60.8378C62.0031 59.5991 59.245 58.4458 56.398 57.5139C56.3428 57.4846 56.2912 57.449 56.2441 57.4079C56.7417 56.4256 57.8197 55.3533 58.9268 54.8453C59.9387 54.3809 60.961 53.9187 62.0182 53.5781C64.9766 52.6258 67.9469 51.7099 70.9289 50.8304C75.468 49.4981 80.0211 48.2153 84.5674 46.9075C84.855 46.8243 85.1181 46.818 85.3994 46.9517C85.7499 47.1186 86.1191 47.245 86.4764 47.3973C86.5642 47.4348 86.715 47.5258 86.7067 47.5533C86.6256 47.8383 86.9891 47.8227 87.0146 48.025C86.9303 48.2106 86.83 48.389 86.767 48.5777C86.5174 49.3296 86.975 50.1554 87.7478 50.3712C88.5205 50.587 89.3452 50.1159 89.5303 49.3588C89.5688 49.2028 89.6068 49.0468 89.6525 48.8559C89.8668 48.9558 90.0342 49.0327 90.2006 49.1123C91.0378 49.5158 91.8724 49.9261 92.7148 50.3192C92.8625 50.3921 93.0278 50.4218 93.1916 50.405C93.54 50.3489 93.8822 50.249 94.2249 50.1596C95.5831 49.8034 96.9507 49.4997 98.3537 49.3764C98.6834 49.3473 99.0104 49.2932 99.3698 49.247C99.0656 48.7296 98.5934 48.4992 98.1613 48.2283ZM51.7388 39.2411L52.1449 39.4762L52.1007 39.5625L51.6681 39.328L51.7388 39.2411ZM36.2511 39.1787L38.5199 38.6015C40.499 38.0992 42.5104 37.859 44.5519 37.9448C46.8149 38.0394 49.0124 38.4648 51.1075 39.3597C51.5739 39.5575 51.9779 39.8781 52.2765 40.2874C53.3737 41.7366 53.7325 43.3902 53.6852 45.1572C53.6633 45.9637 53.3659 46.7068 52.9951 47.4181C52.6436 48.0941 52.0394 48.4129 51.3342 48.5424C50.2038 48.7504 49.0707 48.9495 47.9314 49.0936C46.389 49.288 44.84 49.4336 43.2924 49.586C42.788 49.638 42.2795 49.6458 41.7725 49.664C41.6862 49.6671 41.5978 49.6193 41.4012 49.5652L41.8754 49.3364C42.0964 47.9704 42.0528 46.6064 41.6851 45.2705C41.3832 44.1787 40.9153 43.1397 40.2978 42.19C40.1418 41.9514 39.9306 41.7501 39.7429 41.5333C39.6602 41.4376 39.577 41.343 39.4933 41.2483L39.2401 40.9649L39.0882 40.837C38.9842 40.7668 38.8761 40.7013 38.7736 40.629C38.7393 40.6046 38.706 40.5801 38.6733 40.5541C38.1704 40.1542 37.6411 39.8032 37.0316 39.5833C36.9782 39.5595 36.9287 39.5275 36.885 39.4886L36.8538 39.4652C36.8538 39.4652 36.8538 39.471 36.8507 39.473L36.2438 39.278C36.2464 39.2453 36.249 39.212 36.2511 39.1787ZM41.3398 48.9599C41.3081 48.6791 41.2556 48.3988 41.2483 48.1175C41.2187 46.9605 40.9363 45.8462 40.6581 44.7375C40.537 44.257 40.2874 43.8015 40.044 43.3611C39.576 42.5197 39.0368 41.7262 38.3082 41.0762C38.3327 41.0518 38.3566 41.0268 38.381 41.0018C38.5038 41.109 38.6317 41.2098 38.7482 41.3242C39.4381 41.9979 40.0173 42.7765 40.4642 43.631C40.5879 43.8639 40.6524 44.1328 40.7205 44.3907C41.0746 45.7286 41.3866 47.0744 41.4158 48.468C41.4178 48.6302 41.4147 48.793 41.3398 48.9599ZM35.4118 39.5302C33.3022 40.8209 31.4078 42.3679 29.7308 44.2654L30.5717 44.7932L36.664 39.9093L37.34 40.2608L32.3132 45.7006C32.5992 46.0053 32.9777 46.0973 33.3287 46.3147C34.0994 45.321 34.8466 44.3626 35.5881 43.3996C36.3161 42.4526 36.9984 41.4662 37.8189 40.589C36.4893 42.5717 35.0333 44.4598 33.5866 46.4228C34.2366 46.7421 34.8508 47.05 35.4701 47.3458C36.0894 47.6417 36.7181 47.9516 37.3566 48.2189C37.9952 48.4862 38.6514 48.7056 39.2988 48.9469C39.9306 49.1846 40.63 49.1929 41.2587 49.4394C41.2431 49.5023 41.228 49.5652 41.213 49.6281C40.9348 49.5922 40.6581 49.5465 40.381 49.5241C39.1501 49.4201 37.9994 49.0462 36.9006 48.4961C35.3442 47.7161 33.7967 46.9184 32.2284 46.1628C31.3231 45.7271 30.5093 45.1624 29.7204 44.5508C29.58 44.4422 29.4604 44.3085 29.3247 44.1827C31.114 42.2608 33.0521 40.6212 35.4098 39.5302H35.4118ZM19.2279 43.7422C18.0948 42.8062 16.9706 41.8588 15.8432 40.9155C14.5344 39.8209 13.2094 38.7445 11.9229 37.6244C11.0701 36.8819 10.2683 36.0806 9.45136 35.298C9.02496 34.8892 8.60116 34.4758 8.20336 34.0416C7.83936 33.6449 7.51124 33.2128 7.15764 32.8046C6.8914 32.4967 6.88048 32.1218 6.8758 31.7536C6.87216 31.4349 7.297 31.1166 7.79464 31.0553C7.80088 31.1842 7.83572 31.3153 7.80816 31.4328C7.68908 31.9445 7.82844 32.4031 8.0744 32.8404C8.45816 33.5232 8.9636 34.1098 9.51168 34.6662C11.6603 36.8502 13.953 38.8698 16.3018 40.8308C17.2228 41.5998 18.1218 42.3949 19.0365 43.1708C19.3324 43.4214 19.6439 43.6559 19.9616 43.8785C20.1389 44.0022 20.2674 44.1354 20.2674 44.5098C19.8675 44.2165 19.5321 43.995 19.2258 43.7412L19.2279 43.7422ZM13.8199 46.129C13.9488 45.1239 14.0721 44.1182 14.2208 43.113C14.33 42.3783 14.3461 42.3809 13.861 41.8734C14.3253 42.0439 14.4808 42.2134 14.4272 42.6346C14.2619 43.9346 14.07 45.2346 13.8885 46.5305L13.8173 46.5242C13.8083 46.3923 13.8076 46.26 13.8152 46.128L13.8199 46.129ZM13.4439 41.876C13.4439 41.876 13.5828 42.7969 13.5729 43.1786C13.5729 43.2118 13.5729 43.6518 13.5729 44.2414L13.5854 44.3616H13.5729C13.5729 45.6662 13.5729 47.5804 13.5729 47.5804L13.549 48.2938H13.1933L13.4439 41.876ZM8.51692 54.928C8.44308 54.7262 8.3838 54.564 8.3318 54.4241L11.2776 53.1829L11.3083 53.2349L8.51692 54.928ZM13.6041 50.7446C13.4522 50.8449 13.2921 50.9526 13.1179 50.9968C11.575 51.405 10.041 51.3181 8.51692 50.887C8.47272 50.8746 8.43736 50.8298 8.33284 50.7519C9.19032 50.5241 10.001 50.5017 10.8065 50.4398C11.0082 50.4237 11.2162 50.4295 11.4097 50.379C11.886 50.2547 11.9848 49.9157 11.6442 49.5605C11.4939 49.4045 11.2932 49.2953 11.1154 49.1653L11.1991 49.0062C11.2953 48.9864 11.4024 48.9282 11.4851 48.9542C11.7544 49.0348 11.9869 49.2028 12.069 49.4742C12.2666 50.1294 12.6962 50.3369 13.3352 50.2022C13.5224 50.1627 13.7107 50.1268 13.9416 50.0805C13.9587 50.1669 13.9858 50.3052 14.005 50.405C13.849 50.5376 13.7372 50.6572 13.6041 50.7446ZM20.9813 60.1446L20.9241 60.1524C20.8967 59.9472 20.869 59.7416 20.8409 59.5357L20.9813 59.5315V60.1446ZM87.9532 73.5606C87.9532 73.5606 86.3224 75.4326 79.8744 75.3806L87.9532 73.5606ZM70.2888 39.2879C69.9658 39.0477 69.6232 38.834 69.2898 38.6083L68.9191 38.3582C69.2779 38.1117 69.67 38.119 70.0324 38.0524C71.596 37.7643 73.1768 37.6364 74.7644 37.5802C74.9309 37.5705 75.0976 37.5973 75.2527 37.6588C76.5631 38.238 77.8683 38.8298 79.1979 39.4268C79.109 39.5828 78.967 39.5635 78.8053 39.4959C78.4008 39.3269 77.9889 39.1746 77.5901 38.9936C76.8527 38.6587 76.1268 38.2984 75.3863 37.9708C75.1939 37.8855 74.9584 37.8252 74.7545 37.8501C73.2132 38.0363 71.6746 38.2458 70.1354 38.4507C70.0775 38.468 70.0218 38.4919 69.9695 38.522C69.9268 38.7705 70.035 38.886 70.2123 38.9936C71.3184 39.6753 72.4182 40.3674 73.518 41.0585C73.5835 41.0996 73.636 41.1625 73.6573 41.3019C73.5419 41.2733 73.4192 41.2613 73.3126 41.2135C72.2081 40.7252 71.2508 40.0055 70.2888 39.29V39.2879ZM72.4686 41.5239H72.7484V41.5759L72.4686 41.5619V41.5239ZM72.0365 41.4199V41.4615H71.7635L71.7593 41.4199H72.0365ZM78.5885 43.8764C78.1595 43.8764 77.6936 43.904 77.2323 43.8722C74.4311 43.6788 71.6267 43.6954 68.8218 43.7162C67.9264 43.722 67.0294 43.7136 66.1366 43.7682C65.4788 43.8078 65.0622 43.5207 64.758 42.9846C65.9416 42.5644 75.6011 43.1931 78.588 43.8769L78.5885 43.8764ZM55.5613 46.4577C55.5868 45.9897 55.696 45.5217 55.7969 45.063C55.9477 44.3772 56.1333 44.1738 56.775 44.0979C57.4783 44.0236 58.1864 44.0063 58.8924 44.0459C59.4223 44.0693 59.7276 44.4541 59.7686 45.0485C59.7952 45.4343 59.7733 45.8243 59.7733 46.2122H59.7868C59.7868 46.5664 59.7868 46.921 59.7868 47.2751C59.7868 47.611 59.649 47.857 59.3188 47.9818C58.388 48.3364 57.4406 48.6323 56.4464 48.7431C55.8894 48.805 55.6913 48.6854 55.6144 48.1191C55.5453 47.5683 55.5274 47.0123 55.5608 46.4582L55.5613 46.4577ZM20.9293 54.0611C21.7135 54.1797 22.5008 54.2801 23.2875 54.3804C24.0914 54.4844 24.8948 54.5931 25.7019 54.6664C26.5089 54.7397 27.3139 54.7704 28.1344 54.8999C28.0206 54.9217 27.9046 54.9701 27.7928 54.9613C26.463 54.8593 25.1339 54.7513 23.8054 54.6373C23.3686 54.5993 22.9344 54.5297 22.4992 54.4751C22.1544 54.4319 21.8877 54.5837 21.6183 54.7871C21.7161 55.1511 21.9589 55.2504 22.1971 55.3253C22.6469 55.4662 23.106 55.578 23.561 55.7028C23.7295 55.7491 23.9204 55.7517 24.1065 55.994C23.8845 55.994 23.7425 56.0127 23.6089 55.9909C22.0437 55.7309 20.4769 55.4818 18.9159 55.2005C18.1697 55.0658 17.4323 54.8807 16.6955 54.6992C16.1531 54.5655 16.1152 54.4912 16.137 53.9327C16.1422 53.7991 16.1152 53.6644 16.1146 53.5297C16.1146 53.4179 16.1313 53.3061 16.1469 53.1137C16.97 53.3025 17.7474 53.5 18.5332 53.6555C19.3267 53.8147 20.128 53.94 20.9288 54.0617L20.9293 54.0611ZM14.136 57.1671C14.0284 56.7683 13.992 56.3502 13.9249 55.9404L14.0289 55.8962C14.1527 56.7144 14.2763 57.5321 14.3997 58.3496C14.1288 57.9939 14.2411 57.5602 14.1355 57.1676L14.136 57.1671ZM16.5603 58.2711L16.437 58.3231C16.3715 58.1541 16.3086 57.984 16.2389 57.8161C15.865 56.9118 15.5 56.0033 15.1069 55.1074C14.9782 54.8118 14.8084 54.5359 14.6025 54.2879C14.3284 53.9613 14.004 53.6769 13.7304 53.4039L14.6066 53.045C15.2594 54.7912 15.9105 56.5334 16.5598 58.2716L16.5603 58.2711ZM15.6373 55.2889L15.6992 55.2332L15.8957 55.448L15.8276 55.5099L15.6373 55.2889ZM15.3523 51.9406L15.4043 51.8366C15.6492 51.9655 15.8926 52.0966 16.1386 52.2219C16.4114 52.3575 16.7243 52.3886 17.0185 52.3094C17.3126 52.2301 17.5676 52.0461 17.7355 51.7919C17.5545 51.3899 17.1115 51.4955 16.8052 51.3306C16.9489 51.2907 17.0992 51.2807 17.2469 51.3013C17.3946 51.3219 17.5364 51.3726 17.6637 51.4502C17.9575 51.6255 17.97 51.9427 17.683 52.1559C17.2711 52.4616 16.7922 52.5979 16.2992 52.4382C15.9649 52.3285 15.6664 52.1101 15.3518 51.9411L15.3523 51.9406ZM19.4551 56.3751C18.7063 56.1791 17.9684 55.9357 17.2358 55.6846C16.8692 55.5593 16.5249 55.3674 16.0871 55.1672C16.2348 55.1297 16.2738 55.1053 16.2951 55.1152C17.8764 55.8629 19.5768 56.2243 21.2569 56.6523C22.155 56.8816 23.0535 57.1078 23.9505 57.3392C24.0784 57.372 24.2006 57.4271 24.3249 57.4718L24.2558 57.5727C22.6552 57.1765 21.0505 56.7922 19.4546 56.3757L19.4551 56.3751ZM25.1091 62.3796C23.9344 62.8928 22.4233 62.2647 22.0146 61.0484C21.6906 60.0833 21.8586 59.1525 22.4519 58.3147C22.5819 58.1317 22.7358 57.9575 22.9438 58.139C22.7431 58.4832 22.5507 58.8113 22.3604 59.1415C22.3276 59.1987 22.3182 59.3027 22.2761 59.3157C21.8851 59.4379 21.9844 59.7614 21.9917 60.0261C22.0054 60.2952 22.0428 60.5627 22.1035 60.8253C22.1602 61.0993 22.2881 61.3297 22.5803 61.4306C22.6569 61.4657 22.7256 61.5157 22.7826 61.5777C23.3718 62.1269 24.0691 62.1929 24.8163 62.0369C25.0581 61.9849 25.2989 61.9298 25.575 61.8684C25.5641 62.235 25.3041 62.2959 25.1086 62.3801L25.1091 62.3796ZM26.4512 59.6439C26.3061 60.5133 25.4986 61.0536 24.6234 60.9439C23.9573 60.8586 23.6037 60.3765 23.4758 59.7666C23.3775 59.2986 23.663 58.9164 24.0072 58.6314C24.3514 58.3465 24.7825 58.3714 25.1642 58.5144C25.445 58.6215 25.6322 58.8893 25.7003 59.2071C25.7346 59.3693 25.7617 59.5331 25.8095 59.79C26.1215 59.2253 26.0607 58.958 25.6078 58.5987C25.6318 58.584 25.6585 58.5739 25.6863 58.569C26.5843 58.6039 26.5479 59.0615 26.4512 59.6439ZM21.3698 57.4677C26.2884 58.3334 31.272 58.7777 36.2662 58.7957C36.2787 58.7957 36.2912 58.8477 36.3317 58.9429C31.268 59.0199 26.2806 58.6465 21.3698 57.4682V57.4677ZM36.7878 58.7781L37.4029 59.0802L37.3577 59.1764L36.7404 58.8779C36.756 58.8451 36.7716 58.8119 36.7878 58.7786V58.7781ZM38.9406 67.3523C38.3535 67.7845 37.7841 68.2493 37.3873 68.8739C36.9958 69.4895 36.8153 70.1952 36.6297 70.893C36.755 69.2925 37.4747 68.072 38.9406 67.3529V67.3523ZM40.1652 71.8243C39.6566 71.9013 39.1018 71.5004 38.9827 70.9476C39.4195 70.6393 39.9572 70.3834 39.9218 69.7095C40.5375 69.6575 40.967 69.9763 41.032 70.5301C41.1069 71.1707 40.7273 71.738 40.1652 71.8228V71.8243ZM42.2561 71.0043C42.2374 69.7849 42.2114 69.6455 41.9092 69.0527C42.3601 69.2301 42.5598 70.1848 42.2561 71.0043ZM39.8641 67.6519C40.5073 67.4168 41.1771 67.3362 41.8572 67.4792C42.1172 67.5312 42.3814 67.5962 42.5707 67.9545C40.0856 66.8568 37.6094 69.1151 37.4716 71.2872C37.3863 72.6288 38.1408 73.5508 39.5973 73.8284C39.2011 74.0411 38.834 74.0364 38.4741 73.856C37.7014 73.4707 37.2719 72.8196 37.1783 71.984C37.1304 71.5571 37.1263 71.0865 37.2573 70.684C37.6988 69.319 38.4362 68.1719 39.8641 67.6519ZM38.4954 64.3119C38.5994 64.8553 38.7466 65.381 39.1475 65.8402C38.8839 65.8833 38.7705 65.7362 38.7019 65.5968C38.5459 65.2848 38.3691 64.9614 38.3004 64.6229C38.042 63.3295 37.5895 62.0827 36.9583 60.9246C36.9302 60.8726 36.9313 60.8061 36.9063 60.6833C37.2064 60.7972 37.3046 61.0141 37.3956 61.2163C37.8475 62.2158 38.2869 63.223 38.4965 64.3103L38.4954 64.3119ZM58.1941 67.2088C61.2018 68.7485 64.1996 70.3085 67.2317 71.7989C69.5197 72.9236 71.854 73.9584 74.1752 75.0161C74.4254 75.1305 74.727 75.1685 75.0072 75.1752C75.5304 75.1877 76.0545 75.1451 76.5787 75.1399C76.7539 75.1399 76.9302 75.1789 77.095 75.1992C77.095 75.2917 77.1065 75.3463 77.095 75.3552C76.5501 75.6464 76.0119 75.9552 75.4487 76.2064C75.2896 76.2776 75.052 76.195 74.8554 76.1544C73.6152 75.909 72.4681 75.4056 71.3782 74.791C68.5915 73.2185 65.6524 71.9674 62.7529 70.631C60.3282 69.514 57.946 68.3107 55.5962 67.0429C52.8027 65.5349 50.0285 63.9859 47.1233 62.6905C44.8405 61.6729 42.5795 60.6069 40.3113 59.5544C39.7601 59.2981 39.2234 59.011 38.6816 58.7354C38.5915 58.6894 38.5046 58.6373 38.4216 58.5794C38.1424 58.386 37.7976 58.1915 37.8969 57.7947C37.9978 57.3865 38.2906 57.0361 38.7092 56.9627C41.0221 56.5717 43.3028 55.9649 45.6642 55.8884C45.7868 55.8912 45.9091 55.9004 46.0308 55.916L46.0432 56.0304L43.6835 56.5291C43.6897 56.5665 43.6954 56.6039 43.7017 56.6419C44.2664 56.5764 44.8296 56.4937 45.3958 56.4511C45.933 56.41 46.4686 56.2514 47.0078 56.3439L47.025 56.4479L44.8753 56.9991C44.8805 57.0407 44.8852 57.0823 44.8904 57.1239C45.4135 57.1328 45.9366 57.152 46.4598 57.0719C46.9943 56.9893 47.5273 56.9014 48.0619 56.8203C48.5964 56.7391 49.1206 56.6643 49.65 56.5894C49.6624 56.6325 49.6744 56.6757 49.6864 56.7189C49.6006 56.7579 49.5179 56.8166 49.4264 56.8338C48.547 57.0002 47.6656 57.1572 46.7863 57.3226C46.6212 57.3536 46.4628 57.4132 46.3183 57.4989C48.1695 57.6237 50.0103 57.4266 51.8553 57.3626L51.8672 57.4807C51.693 57.4978 51.5188 57.5176 51.3441 57.5327C49.7108 57.6653 48.0775 57.8036 46.4936 58.2607C46.1061 58.3791 45.7259 58.5199 45.3548 58.6824C45.1682 58.7626 44.9933 58.8675 44.8348 58.9944C44.2912 59.4229 44.2685 59.8756 44.7666 60.3526C45.4218 60.9797 46.2133 61.4093 47.0136 61.8086C48.3432 62.4737 49.6775 63.1315 51.0337 63.7389C53.46 64.8205 55.8343 65.9988 58.1951 67.2073L58.1941 67.2088ZM58.6475 54.526C58.0162 55.0335 57.3834 55.5379 56.7537 56.0465C56.649 56.132 56.5492 56.2233 56.4547 56.32C56.1619 56.6143 55.8478 56.6398 55.4391 56.541C54.0284 56.2015 52.6041 55.917 51.186 55.605C50.7737 55.5145 50.3634 55.4142 49.9547 55.3097C49.8506 55.2743 49.7499 55.23 49.6536 55.1771V55.0679C49.7664 55.0434 49.8788 55.0013 49.9921 54.9977C51.2256 54.9592 52.46 54.9498 53.6919 54.8879C55.2608 54.8094 56.828 54.6919 58.335 54.1859C58.635 54.0856 58.6387 54.0965 58.945 54.2645C58.8181 54.3773 58.7359 54.4543 58.6486 54.5245L58.6475 54.526ZM83.8509 46.8222C82.8405 47.0916 81.8296 47.3609 80.8156 47.6152C79.0305 48.0624 77.2396 48.4836 75.4596 48.9438C74.1529 49.2818 72.8596 49.6656 71.5596 50.027C71.2024 50.1268 70.841 50.2136 70.4848 50.3182C69.5141 50.6042 68.5447 50.8938 67.5764 51.1871C66.9145 51.3868 66.2504 51.5813 65.5942 51.7991C64.6816 52.1013 63.7742 52.4257 62.8658 52.7351C62.6996 52.7835 62.5308 52.8228 62.3603 52.8527L62.34 52.8693L62.2704 52.8865L61.5538 53.2094C61.5377 53.1641 61.521 53.1184 61.5018 53.0731L62.2683 52.8865L62.3291 52.8589L62.3577 52.8527C62.3991 52.8101 62.4451 52.7725 62.495 52.7403C62.503 52.7357 62.5116 52.7321 62.5205 52.7294C62.941 52.5828 63.3618 52.437 63.783 52.2921C63.1164 52.497 62.2808 52.6811 61.3422 52.8459C57.464 53.745 50.861 54.9992 47.2195 54.1241C47.1352 54.1038 55.9466 53.7928 61.3422 52.8459C63.1861 52.4185 64.4143 52.0711 64.4143 52.0711L64.355 52.0945C64.9229 51.899 65.4912 51.7043 66.0601 51.5105C66.5552 51.3421 67.0648 51.211 67.5494 51.017C68.6513 50.5771 69.8041 50.3171 70.9429 50.0046C72.2284 49.6515 73.4956 49.2303 74.7862 48.8991C77.2386 48.2694 79.7028 47.6885 82.1593 47.0749C82.6986 46.9402 83.2243 46.7525 83.7578 46.5934C83.9055 46.5492 84.0573 46.5206 84.2991 46.4629C84.1728 46.7478 84.0006 46.7822 83.8509 46.8222ZM84.0235 36.1856C83.3954 37.3468 82.5436 38.3207 81.5275 39.161C80.8895 39.6894 80.2629 40.2317 79.6389 40.7772C79.4731 40.9216 79.3246 41.0848 79.1964 41.2634C78.913 41.6607 78.9764 41.8926 79.409 42.1094C79.5843 42.1973 79.7678 42.2691 80.0434 42.3902L74.6708 41.5333C74.6708 41.4927 74.6677 41.4527 74.6656 41.4121C74.962 41.3341 75.2558 41.2457 75.5548 41.1802C76.7331 40.9202 77.8844 40.5744 78.9104 39.9286C79.4542 39.5895 79.9598 39.1927 80.4184 38.745C81.3884 37.7751 82.2369 36.6907 82.945 35.5158C83.712 34.2611 84.5139 33.0282 85.2965 31.7828C85.9616 30.724 86.61 29.6539 87.2881 28.603C87.5715 28.1641 87.9074 27.7579 88.2293 27.344C88.3624 27.1729 88.52 27.0211 88.6526 26.876C88.9302 26.9634 88.9557 27.1131 88.8678 27.2889C88.7321 27.5609 88.6042 27.8417 88.4305 28.0892C87.0733 30.0215 86.0136 32.1156 85.0282 34.2533C84.7276 34.9116 84.3698 35.5465 84.0235 36.1856ZM85.6449 41.3825C86.2834 39.8948 86.7863 38.3493 87.3994 36.8496C88.4097 34.3812 89.4617 31.9304 90.498 29.4729C90.5404 29.3927 90.5897 29.3164 90.6452 29.2446L90.745 29.2873C90.6478 29.5639 90.563 29.8458 90.4507 30.1162C89.6296 32.0968 88.7826 34.0682 87.9854 36.0561C87.3453 37.6541 86.7598 39.2739 86.1581 40.8864C85.946 41.4548 85.7125 42.0205 85.569 42.6066C85.361 43.4635 85.2887 44.3402 85.4618 45.2196C85.4681 45.2851 85.4681 45.3511 85.4618 45.4166L85.3448 45.4244C85.2835 45.1332 85.1862 44.8446 85.167 44.5508C85.0973 43.463 85.2018 42.4152 85.6449 41.3825ZM87.0619 49.3905C86.9262 49.013 87.0307 48.6989 87.415 48.363C87.2408 48.7597 86.999 49.0837 87.234 49.4066C87.4243 49.6697 87.6906 49.8777 87.9532 50.1398C87.4742 50.0696 87.2085 49.7997 87.0619 49.3931V49.3905ZM88.8736 49.7883C88.9484 49.4123 89.0249 49.0317 89.0972 48.6687C89.3795 48.8845 89.289 49.4238 88.8736 49.7909V49.7883ZM98.8321 49.0665C98.3376 49.1269 97.8368 49.156 97.3501 49.2537C96.0256 49.5205 94.7059 49.8091 93.3882 50.107C93.111 50.17 92.8822 50.159 92.6191 50.0317C90.3431 48.9157 88.0842 47.7639 85.7265 46.8238C85.5243 46.751 85.3353 46.6456 85.167 46.5118C87.8627 47.4758 90.4897 48.5918 92.9925 49.9958C94.5863 49.3109 96.294 49.0993 98.0136 48.78C95.49 46.9673 92.7096 45.6777 90.1205 44.0906C93.162 45.5061 96.0527 47.1586 98.8565 48.9662C98.8482 48.9994 98.8404 49.0359 98.8321 49.0665Z" fill="url(#paint1_radial_463_21130)"/>
<path d="M14.3003 51.437C14.2972 51.4651 14.2946 51.4932 14.292 51.5213C14.2993 51.4973 14.3071 51.4729 14.3144 51.4485L14.3003 51.437Z" fill="url(#paint2_radial_463_21130)"/>
<path d="M56.5145 39.7065H56.4693L56.4365 39.7097L56.5743 39.7185L56.5546 39.7112L56.5145 39.7065Z" fill="url(#paint3_radial_463_21130)"/>
<path d="M56.515 39.7066H56.555L56.5415 39.7019H56.5207L56.5259 39.6978C56.5233 39.6999 56.5205 39.7018 56.5176 39.7035H56.4822H56.4697L56.515 39.7066Z" fill="url(#paint4_radial_463_21130)"/>
<path d="M47.0184 61.806C46.2181 61.4056 45.4267 60.974 44.7715 60.35C44.2723 59.8719 44.295 59.4191 44.8396 58.9917C44.9981 58.8648 45.173 58.7599 45.3596 58.6797C45.7307 58.5173 46.111 58.3765 46.4984 58.258C48.0823 57.8025 49.7156 57.6641 51.349 57.53C51.5237 57.5159 51.6979 57.4962 51.8721 57.478L51.8601 57.3599C50.0162 57.4239 48.1744 57.6199 46.3232 57.4962C46.4677 57.4106 46.6261 57.3509 46.7912 57.3199C47.6705 57.1545 48.5519 56.9975 49.4312 56.8311C49.5217 56.8139 49.6044 56.7552 49.6912 56.7162C49.6792 56.673 49.6673 56.6299 49.6548 56.5867C49.1254 56.6637 48.5956 56.7375 48.0667 56.8176C47.5379 56.8977 46.9992 56.9866 46.4646 57.0693C45.9415 57.1504 45.4184 57.1311 44.8952 57.1213C44.89 57.0797 44.8854 57.0381 44.8802 56.9965L47.0298 56.4453L47.0127 56.3413C46.4708 56.2487 45.9352 56.4073 45.4007 56.4484C44.8344 56.491 44.2712 56.5737 43.7065 56.6392C43.7003 56.6013 43.6946 56.5638 43.6883 56.5264L46.0481 56.0277L46.0356 55.9133C45.914 55.8977 45.7916 55.8885 45.669 55.8857C43.3077 55.9622 41.027 56.569 38.714 56.9601C38.298 57.0313 38.0027 57.3818 37.9018 57.7921C37.804 58.1888 38.1472 58.3833 38.4265 58.5767C38.5094 58.6347 38.5963 58.6868 38.6865 58.7327C39.2283 59.0083 39.7649 59.2954 40.3161 59.5517C42.5828 60.6042 44.8438 61.6702 47.1281 62.6879C50.0334 63.9832 52.8075 65.5307 55.601 67.0403C57.9509 68.3096 60.333 69.5129 62.7577 70.6283C65.6572 71.9642 68.5963 73.2153 71.3829 74.7883C72.4749 75.4029 73.6189 75.9063 74.8602 76.1517C75.0567 76.1902 75.2944 76.2729 75.4535 76.2037C76.0167 75.9526 76.5549 75.6437 77.0998 75.3525C77.1133 75.3452 77.0998 75.2906 77.0998 75.1965C76.935 75.1762 76.7587 75.1351 76.5835 75.1372C76.0593 75.1424 75.5351 75.1851 75.012 75.1726C74.7328 75.1658 74.4312 75.1279 74.18 75.0135C71.8587 73.9558 69.5255 72.921 67.2365 71.7962C64.2044 70.3059 61.2045 68.7459 58.1989 67.2062C55.8381 65.9977 53.4638 64.8194 51.0427 63.7352C49.6824 63.1278 48.348 62.471 47.0184 61.806Z" fill="white"/>
<path d="M52.5314 40.2439C53.3255 41.221 53.6983 42.3588 53.8767 43.587C54.0571 44.8256 53.9219 46.0066 53.4087 47.1537C53.013 48.0403 52.3624 48.6034 51.4181 48.7917C50.4249 48.9898 49.4281 49.1869 48.4234 49.3075C46.9466 49.4848 45.4594 49.5618 43.9816 49.7422C42.6124 49.9091 41.2583 49.9565 39.8923 49.7157C38.9292 49.5462 37.9605 49.4219 37.0843 48.9487C36.7879 48.7891 36.4967 48.6185 36.1966 48.4661C34.7801 47.747 33.3533 47.0471 31.9456 46.3118C30.8682 45.7486 29.8365 45.1096 28.9988 44.2157C28.846 44.2491 28.6915 44.2745 28.536 44.2916C26.9276 44.3914 25.3478 44.6748 23.7842 45.0477C20.6283 45.8012 17.5905 46.8583 14.8189 48.5878C14.6915 48.6669 14.5677 48.7516 14.4424 48.8338L14.5126 48.9503C14.6899 48.8733 14.8766 48.8151 15.0425 48.7163C16.2173 48.0139 17.4615 47.4347 18.7553 46.9878C19.7901 46.6238 20.8576 46.356 21.9054 46.0289C24.0166 45.3701 26.1814 45.0321 28.3831 44.8969C28.7533 44.874 29.0347 44.964 29.3456 45.2089C29.9824 45.7123 30.6609 46.1608 31.3736 46.5494C32.5634 47.189 33.7922 47.7563 35.0058 48.3512C35.5201 48.6034 35.6012 49.2352 35.1478 49.5857C34.9918 49.7084 34.8072 49.827 34.6174 49.8759C33.9653 50.0438 33.3111 50.2248 32.6461 50.3163C31.8276 50.4291 30.9956 50.4411 30.1724 50.5243C29.0986 50.6351 28.0305 50.8155 26.9552 50.894C24.9651 51.0401 22.9714 51.1337 20.9798 51.2513C20.8908 51.2618 20.8025 51.2783 20.7157 51.3007C20.8992 51.3764 21.0984 51.4062 21.296 51.3875C23.7785 51.2565 26.2594 51.0599 28.7435 51.0032C33.2425 50.8992 37.7431 50.8779 42.2427 50.8311C43.0542 50.8283 43.8643 50.7615 44.6654 50.6314C45.4454 50.4993 46.2405 50.4286 47.0283 50.3303C47.1546 50.3147 47.3007 50.3251 47.3449 50.0703C45.0309 50.2456 42.7419 50.7079 40.4669 50.0527C40.5817 50.0361 40.6978 50.0297 40.8137 50.0334C41.4538 50.0397 42.0976 50.0922 42.7336 50.0433C44.7559 49.8873 46.7745 49.6793 48.7973 49.5233C49.8846 49.4406 50.9319 49.2045 51.9693 48.8837C52.5933 48.6897 53.1034 48.3247 53.4196 47.7615C53.6978 47.2649 53.9661 46.7392 54.1081 46.1927C54.6515 44.0971 54.1601 42.1773 52.9927 40.4025C52.8284 40.1524 52.6063 39.9403 52.4108 39.7109L52.2886 39.777C52.3666 39.9361 52.4228 40.1103 52.5314 40.2439Z" fill="white"/>
<path d="M36.838 39.4538L36.8573 39.459C36.8906 39.3862 36.915 39.2765 36.9613 39.2655C38.6071 38.8854 40.2373 38.4091 41.9408 38.3607C43.0557 38.329 44.1721 38.3347 45.2875 38.3301C45.4856 38.3301 45.6832 38.3597 46.0082 38.3862C45.8158 38.498 45.7321 38.5625 45.6375 38.5989C43.6521 39.3668 41.6655 40.1315 39.6778 40.8931C39.6084 40.9176 39.5362 40.9333 39.463 40.9399L39.3512 40.9514L39.295 40.9576L39.2399 40.9649L39.4911 41.2483C39.5748 41.3429 39.658 41.4376 39.7407 41.5332C39.9284 41.7501 40.1411 41.9492 40.2955 42.19C40.9136 43.1396 41.3821 44.1785 41.6844 45.2705C42.0521 46.6063 42.0957 47.9703 41.8747 49.3363L41.4005 49.5651C41.5971 49.6171 41.6855 49.6691 41.7718 49.6639C42.2788 49.6457 42.7873 49.6358 43.2917 49.5859C44.8393 49.4336 46.3883 49.288 47.9307 49.0935C49.07 48.9494 50.203 48.7492 51.3335 48.5423C52.0386 48.4128 52.6429 48.093 52.9944 47.418C53.3652 46.7067 53.6626 45.9621 53.6844 45.1571C53.7323 43.3891 53.3724 41.7366 52.2758 40.2873C51.9772 39.8781 51.5732 39.5574 51.1068 39.3597C49.0117 38.4642 46.8142 38.0394 44.5512 37.9447C42.5117 37.8589 40.5004 38.1007 38.5192 38.6015L36.2504 39.1787C36.2504 39.212 36.2458 39.2453 36.2432 39.2785L36.85 39.4735L36.838 39.4538ZM52.2076 40.4849C53.1956 41.9966 53.6382 43.6569 53.3875 45.4499C53.3033 46.0557 53.0064 46.6334 52.7906 47.2178C52.7531 47.3182 52.6377 47.3931 52.5498 47.4695C52.0891 47.872 51.5374 48.0717 50.9451 48.1705C49.4631 48.4175 47.9811 48.6733 46.496 48.8985C45.2766 49.082 44.052 49.2292 42.8279 49.381C42.5981 49.4096 42.3599 49.3852 42.0807 49.3852C42.2237 47.7337 42.2159 46.1363 41.6304 44.5643C41.7507 44.4476 41.8774 44.3377 42.0099 44.2351C42.4826 43.9091 42.9459 43.5592 43.4415 43.2784C45.7487 41.9643 48.1215 40.7886 50.6508 39.954C51.6336 39.6275 51.6476 39.6264 52.2076 40.4849ZM49.4412 38.9301C50.0034 39.1475 50.5728 39.3461 51.23 39.5838C47.7461 40.7605 44.5325 42.2462 41.5581 44.2528L40.6944 42.5498C40.8576 42.4261 41.0168 42.2753 41.2014 42.1708C43.6027 40.812 46.0826 39.6363 48.7569 38.9078C48.9809 38.8372 49.2223 38.8451 49.4412 38.9301Z" fill="white"/>
<path d="M36.8379 39.4541L36.8509 39.4739L36.8379 39.4541Z" fill="white"/>
<path d="M88.8705 27.2879C88.9584 27.1121 88.9329 26.9624 88.6553 26.875C88.5227 27.0211 88.3651 27.173 88.232 27.343C87.9101 27.759 87.5742 28.163 87.2908 28.6019C86.6148 29.6528 85.9643 30.723 85.2992 31.7817C84.5192 33.0271 83.7147 34.26 82.9477 35.5148C82.2405 36.6899 81.3929 37.7746 80.4237 38.745C79.9651 39.1927 79.4595 39.5895 78.9157 39.9286C77.8897 40.5744 76.7384 40.9212 75.5601 41.1802C75.2611 41.2457 74.9673 41.3362 74.6709 41.4121C74.6709 41.4527 74.6745 41.4927 74.6761 41.5333L80.0441 42.3902C79.7685 42.2691 79.5849 42.1973 79.4097 42.1094C78.977 41.8926 78.9136 41.6607 79.197 41.2634C79.3252 41.0848 79.4737 40.9216 79.6395 40.7772C80.2635 40.2317 80.8875 39.6894 81.5281 39.161C82.5432 38.3207 83.3949 37.3468 84.0241 36.1856C84.3705 35.5465 84.7282 34.9116 85.0319 34.2522C86.0199 32.1145 87.0771 30.0205 88.4343 28.0882C88.6069 27.8406 88.7348 27.5598 88.8705 27.2879Z" fill="white"/>
<path d="M32.2259 46.1634C33.7943 46.919 35.3397 47.7171 36.8997 48.4966C37.9985 49.0468 39.1492 49.4186 40.3801 49.5247C40.6593 49.5486 40.9359 49.5943 41.2121 49.6287C41.2271 49.5658 41.2422 49.5028 41.2578 49.4399C40.6291 49.1934 39.9297 49.1851 39.2979 48.9475C38.6505 48.7041 37.9933 48.4841 37.3557 48.2195C36.7182 47.9548 36.0942 47.6475 35.4692 47.3464C34.8441 47.0453 34.2357 46.7427 33.5857 46.4234C35.0329 44.4599 36.4889 42.5718 37.8185 40.589C36.998 41.4662 36.3173 42.4527 35.5877 43.3996C34.8462 44.3626 34.099 45.321 33.3283 46.3147C32.9773 46.0973 32.6003 46.0053 32.3128 45.7006L37.3386 40.2609L36.6626 39.9094L30.5692 44.7932L29.7284 44.2654C31.4064 42.3679 33.2997 40.8209 35.4094 39.5303C33.0512 40.6223 31.1137 42.2608 29.3223 44.1853C29.4564 44.3111 29.5776 44.4453 29.718 44.5535C30.5068 45.1629 31.3206 45.7276 32.2259 46.1634Z" fill="white"/>
<path d="M39.0888 40.837L39.2406 40.965L39.2958 40.9577L39.3519 40.9514L39.4637 40.94C39.537 40.9334 39.6091 40.9176 39.6785 40.8932C41.667 40.1333 43.653 39.3685 45.6366 38.5989C45.7313 38.5625 45.815 38.4981 46.0074 38.3863C45.6824 38.3597 45.4874 38.3291 45.2867 38.3301C44.1713 38.3348 43.0548 38.3301 41.94 38.3608C40.2364 38.4091 38.6062 38.8855 36.9604 39.2656C36.9136 39.2765 36.8892 39.3862 36.8564 39.459C37.0738 39.5183 37.3052 39.5495 37.5018 39.6493C38.0966 39.9515 38.7035 40.2479 39.0888 40.837Z" fill="url(#paint5_radial_463_21130)"/>
<path d="M36.8379 39.4541L36.854 39.4661L36.8379 39.4541Z" fill="url(#paint6_radial_463_21130)"/>
<path d="M36.8509 39.4739C36.8509 39.4739 36.8509 39.4687 36.854 39.4661L36.8379 39.4541L36.8509 39.4739Z" fill="url(#paint7_radial_463_21130)"/>
<path d="M16.1143 53.5316C16.1143 53.6663 16.1418 53.801 16.1366 53.9347C16.1148 54.4932 16.1527 54.5675 16.6951 54.7012C17.4319 54.8827 18.1693 55.0652 18.9155 55.2025C20.4755 55.4838 22.0433 55.735 23.6085 55.9929C23.7432 56.0148 23.8841 55.9961 24.1062 55.9961C23.92 55.7537 23.7292 55.7511 23.5607 55.7048C23.1057 55.58 22.6465 55.4682 22.1967 55.3273C21.9586 55.2524 21.7157 55.1515 21.618 54.7891C21.8873 54.5847 22.1541 54.4329 22.4988 54.4771C22.9341 54.5317 23.3683 54.6013 23.8051 54.6393C25.1335 54.7554 26.4626 54.8634 27.7925 54.9633C27.9043 54.9721 28.0202 54.9238 28.1341 54.9019C27.3135 54.773 26.5055 54.7412 25.7015 54.6684C24.8976 54.5956 24.0895 54.4849 23.2872 54.3824C22.5004 54.2821 21.7131 54.1817 20.929 54.0631C20.1282 53.9414 19.3268 53.8161 18.5328 53.6591C17.7471 53.503 16.9697 53.306 16.1465 53.1172C16.1309 53.308 16.1143 53.4198 16.1143 53.5316Z" fill="white"/>
<path d="M58.3357 54.1872C56.8277 54.6932 55.2615 54.8112 53.6926 54.8892C52.4607 54.9511 51.2263 54.9604 49.9928 54.9989C49.8795 55.0026 49.7671 55.0447 49.6543 55.0691V55.1767C49.7506 55.2297 49.8513 55.274 49.9554 55.3093C50.3641 55.4133 50.7744 55.5142 51.1867 55.6047C52.6048 55.9167 54.0291 56.2001 55.4398 56.5407C55.8485 56.6394 56.1626 56.614 56.4554 56.3197C56.5499 56.223 56.6497 56.1317 56.7544 56.0462C57.3841 55.5376 58.0169 55.0332 58.6482 54.5257C58.7356 54.4555 58.8177 54.3786 58.9457 54.2657C58.6394 54.0978 58.6357 54.0869 58.3357 54.1872Z" fill="white"/>
<path d="M19.9579 43.8764C19.6402 43.6539 19.3287 43.4193 19.0328 43.1687C18.1171 42.3939 17.2191 41.5988 16.2981 40.8287C13.9493 38.8678 11.6566 36.846 9.50797 34.6641C8.95989 34.1077 8.45445 33.5201 8.07069 32.8384C7.82473 32.4011 7.68537 31.9424 7.80445 31.4307C7.83201 31.3137 7.79717 31.1822 7.79093 31.0532C7.29329 31.1146 6.86845 31.4328 6.87209 31.7516C6.87677 32.1197 6.88769 32.4947 7.15393 32.8025C7.50753 33.2107 7.83409 33.6428 8.19965 34.0396C8.59901 34.4738 9.02281 34.8872 9.44765 35.2959C10.2646 36.0785 11.0664 36.8798 11.9192 37.6224C13.2057 38.7425 14.5307 39.8189 15.8395 40.9135C16.9669 41.8567 18.0911 42.8037 19.2242 43.7402C19.5315 43.9939 19.8659 44.2155 20.2642 44.5067C20.2637 44.1333 20.1352 44.0002 19.9579 43.8764Z" fill="white"/>
<path d="M66.1369 43.7674C67.0298 43.7154 67.9268 43.7217 68.8222 43.7154C71.6271 43.6957 74.4314 43.679 77.2327 43.8714C77.6939 43.9031 78.1598 43.8756 78.5888 43.8756C75.602 43.1918 65.9424 42.5631 64.7568 42.9822C65.0626 43.5199 65.4791 43.8069 66.1369 43.7674Z" fill="white"/>
<path d="M16.14 50.4468C16.9398 50.1769 17.7489 49.9351 18.5559 49.6871C19.7982 49.3054 21.0415 48.9289 22.2833 48.5472C22.3987 48.5119 22.5079 48.4562 22.6197 48.4105C22.6114 48.3715 22.6026 48.3325 22.5942 48.2935C22.4221 48.3117 22.2469 48.3163 22.0774 48.3501C20.3718 48.6892 18.6667 49.0317 16.9621 49.3777C16.2622 49.5201 15.569 49.6241 14.8577 49.4146C14.5332 49.3189 14.3179 49.5269 14.3153 49.8779C14.3112 50.3953 14.3153 50.9127 14.3153 51.4301C14.6122 51.2819 14.9679 51.1899 15.1842 50.9647C15.4635 50.6751 15.7989 50.5622 16.14 50.4468Z" fill="white"/>
<path d="M14.3148 51.4282L14.3008 51.435L14.3148 51.4464V51.4282Z" fill="white"/>
<path d="M98.0136 48.7797C96.294 49.099 94.5863 49.3106 92.9925 49.9955C90.4897 48.5951 87.8627 47.4782 85.167 46.5115C85.3352 46.6453 85.5242 46.7507 85.7265 46.8235C88.0842 47.7636 90.3431 48.9154 92.6191 50.0313C92.8822 50.1603 93.111 50.1697 93.3882 50.1067C94.7059 49.8088 96.0256 49.5202 97.3501 49.2534C97.8368 49.1557 98.3381 49.1265 98.8321 49.0662C98.8404 49.0329 98.8482 48.9991 98.8565 48.9653C96.0527 47.1594 93.162 45.5053 90.1205 44.0898C92.7101 45.6774 95.49 46.967 98.0136 48.7797Z" fill="white"/>
<path d="M25.6861 58.5677C25.6583 58.5725 25.6317 58.5826 25.6076 58.5973C26.0605 58.9551 26.1219 59.2239 25.8093 59.7886C25.7615 59.5317 25.7344 59.3679 25.7001 59.2057C25.6341 58.888 25.4448 58.6202 25.164 58.5131C24.7823 58.368 24.3486 58.3477 24.007 58.6301C23.6654 58.9124 23.3773 59.2957 23.4756 59.7652C23.6035 60.3752 23.9571 60.8572 24.6232 60.9425C25.4984 61.0543 26.3059 60.514 26.451 59.6425C26.5477 59.0617 26.5841 58.6041 25.6861 58.5677ZM24.3159 59.8521C24.4953 59.5047 24.7537 59.5198 25.1302 59.6285C24.851 59.8827 24.6164 59.9301 24.3159 59.8521Z" fill="white"/>
<path d="M73.6572 41.3061C73.6359 41.1657 73.5833 41.1038 73.5178 41.0628C72.418 40.3717 71.3182 39.6796 70.2122 38.9978C70.0349 38.8886 69.9267 38.7748 69.9693 38.5262C70.0217 38.4961 70.0774 38.4722 70.1352 38.455C71.6744 38.2501 73.2131 38.0389 74.7544 37.8543C74.9582 37.8294 75.1938 37.8897 75.3862 37.975C76.1267 38.3026 76.8526 38.663 77.5899 38.9978C77.9888 39.1788 78.4006 39.3312 78.8052 39.5002C78.9669 39.5678 79.1089 39.5886 79.1978 39.431C77.8681 38.832 76.5629 38.2402 75.2525 37.663C75.0975 37.6015 74.9308 37.5747 74.7643 37.5845C73.1767 37.6396 71.5959 37.7685 70.0323 38.0566C69.6683 38.1232 69.2777 38.1159 68.9189 38.3624L69.2897 38.6125C69.623 38.8382 69.9657 39.0519 70.2886 39.2922C71.2506 40.0077 72.209 40.7274 73.3124 41.2198C73.419 41.2656 73.5417 41.2775 73.6572 41.3061Z" fill="white"/>
<path d="M13.3354 50.1999C12.6963 50.3356 12.2668 50.1281 12.0692 49.4719C11.987 49.2 11.7572 49.032 11.4852 48.9519C11.4026 48.927 11.2954 48.9852 11.1992 49.0039L11.1155 49.163C11.2934 49.293 11.4941 49.4017 11.6444 49.5582C11.985 49.9134 11.8862 50.2524 11.4098 50.3767C11.2164 50.4287 11.0084 50.4214 10.8066 50.4375C10.0012 50.5004 9.19049 50.5228 8.33301 50.7495C8.43701 50.8275 8.47289 50.8722 8.51709 50.8847C10.0412 51.3158 11.5752 51.4047 13.118 50.9944C13.2907 50.9487 13.4524 50.8426 13.6042 50.7422C13.7374 50.6549 13.8492 50.5342 14.0052 50.4001C13.9859 50.3002 13.9589 50.1619 13.9417 50.0756C13.7108 50.1245 13.5226 50.1604 13.3354 50.1999Z" fill="white"/>
<path d="M82.159 47.0736C79.7025 47.6872 77.2383 48.2696 74.7859 48.8978C73.4953 49.229 72.2281 49.6502 70.9426 50.0033C69.8038 50.3153 68.651 50.5753 67.5491 51.0157C67.0645 51.2097 66.5549 51.3408 66.0598 51.5092C65.4909 51.7027 64.9226 51.8973 64.3547 52.0932C64.1814 52.1625 63.9907 52.2284 63.7827 52.2908C63.3619 52.4364 62.941 52.5822 62.5202 52.7281C62.5113 52.7308 62.5027 52.7345 62.4947 52.7391C62.4448 52.7712 62.3988 52.8089 62.3574 52.8514C62.5279 52.8215 62.6967 52.7823 62.8629 52.7339C63.7734 52.426 64.6787 52.1015 65.5913 51.7978C66.2475 51.58 66.9116 51.3855 67.5735 51.1858C68.5425 50.8935 69.5119 50.6039 70.4819 50.3169C70.8381 50.2129 71.1995 50.1255 71.5567 50.0257C72.8567 49.6642 74.1521 49.2805 75.4567 48.9425C77.2383 48.4823 79.0291 48.0585 80.8127 47.6139C81.8267 47.3596 82.8376 47.0902 83.848 46.8208C83.9977 46.7808 84.1699 46.746 84.2952 46.46C84.0534 46.5177 83.9015 46.5463 83.7539 46.5905C83.224 46.7512 82.6983 46.9389 82.159 47.0736Z" fill="white"/>
<path d="M62.3281 52.8578V52.8609L62.3338 52.8681L62.3541 52.8516L62.3281 52.8578Z" fill="white"/>
<path d="M62.3359 52.8681L62.3562 52.8516L62.3359 52.8681Z" fill="white"/>
<path d="M85.3469 45.4244L85.4639 45.4166C85.4701 45.3511 85.4701 45.2851 85.4639 45.2195C85.2907 44.3402 85.3598 43.4635 85.571 42.6065C85.7145 42.0205 85.948 41.4547 86.1601 40.8864C86.7618 39.2744 87.3473 37.6541 87.9874 36.0561C88.7845 34.0666 89.6316 32.0968 90.4527 30.1161C90.565 29.8457 90.6497 29.5639 90.747 29.2873L90.6471 29.2446C90.5916 29.3163 90.5424 29.3927 90.5 29.4729C89.4636 31.9304 88.4117 34.3812 87.4013 36.8496C86.7883 38.3493 86.2854 39.8947 85.6469 41.3825C85.2038 42.4152 85.0993 43.4625 85.1711 44.5508C85.1883 44.8446 85.2855 45.1358 85.3469 45.4244Z" fill="white"/>
<path d="M56.4463 48.7417C57.4405 48.6309 58.3879 48.3351 59.3187 47.9804C59.6468 47.8556 59.7831 47.6097 59.7867 47.2738C59.7867 46.9197 59.7867 46.565 59.7867 46.2109H59.7732C59.7732 45.823 59.795 45.4309 59.7685 45.0472C59.7274 44.4528 59.4222 44.068 58.8923 44.0446C58.1863 44.0049 57.4782 44.0223 56.7749 44.0966C56.1332 44.1725 55.9476 44.3759 55.7968 45.0617C55.6959 45.5219 55.5888 45.9883 55.5612 46.4563C55.5288 47.0105 55.5478 47.5665 55.6179 48.1172C55.6912 48.684 55.8893 48.8036 56.4463 48.7417ZM55.75 47.4194C55.8264 46.681 55.92 45.9436 56.0251 45.2089C56.0505 45.0295 56.1322 44.8537 56.2117 44.6889C56.348 44.4076 56.5846 44.2412 56.8976 44.2464C57.5045 44.2557 58.1123 44.2781 58.7176 44.3171C59.1627 44.3462 59.4336 44.6114 59.5044 45.0451C59.5688 45.4434 59.5933 45.8485 59.6354 46.2509L59.5834 46.2541C59.5834 46.5073 59.5943 46.7611 59.5834 47.0138C59.5558 47.5234 59.3146 47.8853 58.8034 48.009C58.1144 48.1754 57.4207 48.321 56.7276 48.4713C56.6107 48.4897 56.4919 48.4941 56.374 48.4843C56.0235 48.4723 55.8914 48.372 55.8155 48.0226C55.7687 47.825 55.7297 47.6159 55.75 47.4194Z" fill="white"/>
<path d="M37.2588 70.6811C37.1288 71.0825 37.1319 71.5531 37.1797 71.9811C37.2733 72.8193 37.7029 73.4704 38.4756 73.8531C38.8354 74.0325 39.2036 74.0382 39.5988 73.8255C38.1428 73.5479 37.3877 72.6259 37.473 71.2843C37.6108 69.1122 40.087 66.8539 42.5721 67.9516C42.3828 67.5933 42.1187 67.5309 41.8587 67.4763C41.1785 67.3333 40.5067 67.4139 39.8655 67.649C38.4366 68.1721 37.6992 69.3192 37.2588 70.6811Z" fill="white"/>
<path d="M36.2665 58.7964C31.2723 58.7784 26.2888 58.334 21.3701 57.4683C26.281 58.6467 31.2683 59.018 36.332 58.9436C36.2915 58.8505 36.279 58.7964 36.2665 58.7964Z" fill="white"/>
<path d="M39.9215 69.7081C39.9569 70.3841 39.4192 70.6379 38.9824 70.9462C39.1015 71.499 39.6584 71.9 40.1649 71.823C40.727 71.7383 41.1066 71.1709 41.0318 70.5287C40.9668 69.9748 40.5398 69.654 39.9215 69.7081Z" fill="white"/>
<path d="M22.782 61.5784C22.725 61.5164 22.6562 61.4664 22.5797 61.4313C22.2874 61.3304 22.1595 61.1 22.1028 60.826C22.0421 60.5634 22.0047 60.2959 21.991 60.0267C21.9838 59.7621 21.8844 59.4386 22.2755 59.3164C22.3176 59.3034 22.3275 59.1994 22.3597 59.1422C22.55 58.812 22.7424 58.4839 22.9432 58.1397C22.7352 57.9582 22.5792 58.1324 22.4512 58.3154C21.8584 59.1531 21.69 60.0834 22.0139 61.0491C22.4226 62.2654 23.9338 62.8935 25.1084 62.3803C25.3034 62.295 25.5624 62.2352 25.5764 61.8691C25.3003 61.9305 25.0596 61.9872 24.8178 62.0376C24.0684 62.192 23.3711 62.1276 22.782 61.5784Z" fill="white"/>
<path d="M13.7305 53.4039C14.004 53.6774 14.3285 53.9618 14.6025 54.2879C14.808 54.5351 14.9776 54.8101 15.1064 55.1048C15.4995 56.0007 15.8645 56.9091 16.2384 57.8134C16.3081 57.9814 16.371 58.1514 16.4365 58.3204L16.5598 58.2684C15.9098 56.5285 15.2587 54.7865 14.6067 53.0425L13.7305 53.4039Z" fill="white"/>
<path d="M41.4141 48.4671C41.385 47.0735 41.073 45.7278 40.7189 44.3898C40.6508 44.1298 40.5863 43.8631 40.4625 43.6301C40.0156 42.7756 39.4365 41.9971 38.7466 41.3234C38.6301 41.21 38.5022 41.1081 38.3794 41.001C38.355 41.0259 38.3311 41.053 38.3066 41.0753C39.0346 41.7253 39.5754 42.5189 40.0424 43.3602C40.2857 43.7986 40.5353 44.2562 40.6565 44.7367C40.9352 45.8463 41.2171 46.9607 41.2467 48.1167C41.254 48.398 41.3065 48.6783 41.3382 48.9591C41.4146 48.7932 41.4178 48.6304 41.4141 48.4671Z" fill="white"/>
<path d="M36.9062 60.6841C36.9322 60.8068 36.9312 60.8739 36.9582 60.9254C37.5905 62.0826 38.0442 63.3287 38.304 64.6215C38.3727 64.9601 38.5494 65.2809 38.7054 65.5955C38.7741 65.7333 38.8874 65.882 39.1511 65.8389C38.7502 65.3797 38.604 64.854 38.499 64.3106C38.291 63.2232 37.8501 62.216 37.3982 61.215C37.3046 61.0127 37.2063 60.7959 36.9062 60.6841Z" fill="white"/>
<path d="M24.3257 57.4735C24.2014 57.4288 24.0792 57.3736 23.9513 57.3409C23.0543 57.1095 22.1558 56.8833 21.2577 56.654C19.5776 56.226 17.8777 55.8646 16.2959 55.1169C16.2735 55.106 16.2345 55.1304 16.0879 55.1689C16.5257 55.3691 16.8679 55.5609 17.2366 55.6863C17.9693 55.9374 18.7071 56.1808 19.4559 56.3768C21.0518 56.7928 22.6565 57.1776 24.2576 57.5728L24.3257 57.4735Z" fill="white"/>
<path d="M8.32715 54.4243C8.37915 54.5663 8.43843 54.7265 8.51227 54.9282L11.3036 53.2351L11.2729 53.1831L8.32715 54.4243Z" fill="white"/>
<path d="M13.8839 46.5321C14.0654 45.2321 14.2573 43.9368 14.4226 42.6363C14.4746 42.2151 14.3186 42.0456 13.8563 41.875C14.3415 42.3825 14.3243 42.3799 14.2162 43.1147C14.0674 44.1172 13.9442 45.1229 13.8152 46.1307C13.806 46.2631 13.8052 46.396 13.8126 46.5285L13.8839 46.5321Z" fill="white"/>
<path d="M38.9408 67.353C37.4749 68.0722 36.7568 69.2926 36.6299 70.8937C36.8166 70.1959 36.9939 69.4897 37.3875 68.8745C37.7843 68.25 38.3563 67.7851 38.9408 67.353Z" fill="white"/>
<path d="M17.6826 52.1559C17.9696 51.9428 17.9572 51.6256 17.6634 51.4503C17.5361 51.3727 17.3942 51.322 17.2465 51.3014C17.0988 51.2809 16.9485 51.2908 16.8048 51.3307C17.1132 51.4956 17.5542 51.39 17.7351 51.792C17.5677 52.0462 17.3132 52.2306 17.0193 52.3103C16.7255 52.3899 16.4127 52.3595 16.1398 52.2246C15.8938 52.0993 15.6504 51.9682 15.4055 51.8393L15.3535 51.9433C15.6681 52.1123 15.9666 52.3307 16.301 52.4383C16.7918 52.5958 17.2708 52.4596 17.6826 52.1559Z" fill="white"/>
<path d="M62.4805 40.3378C62.4805 40.3258 62.4805 40.3133 62.4805 40.3014L61.1992 40.1714C61.6339 40.2255 62.0619 40.2811 62.4805 40.3378Z" fill="white"/>
<path d="M62.4836 40.3L61.1836 40.1694H61.1987L62.4836 40.3Z" fill="white"/>
<path d="M37.502 39.6493C37.3054 39.5495 37.074 39.5183 36.8566 39.459L36.8535 39.4657L36.8847 39.4891C36.9284 39.5281 36.9779 39.56 37.0314 39.5838C37.6408 39.8037 38.1702 40.1558 38.673 40.5546C38.7058 40.5806 38.739 40.6066 38.7734 40.6295C38.8774 40.7013 38.984 40.7668 39.088 40.8375C38.7026 40.2478 38.0958 39.9514 37.502 39.6493Z" fill="white"/>
<path d="M36.8571 39.4593L36.8379 39.4541L36.854 39.4661L36.8571 39.4593Z" fill="white"/>
<path d="M41.9111 69.0527C42.2133 69.6455 42.2393 69.7849 42.258 71.0043C42.5601 70.1848 42.3604 69.2301 41.9111 69.0527Z" fill="white"/>
<path d="M87.2356 49.4094C87.0016 49.0864 87.2423 48.7625 87.4165 48.3657C87.0323 48.7016 86.9278 49.0157 87.0635 49.3932C87.2101 49.7999 87.4758 50.0692 87.9547 50.1426C87.69 49.8805 87.4238 49.6725 87.2356 49.4094Z" fill="white"/>
<path d="M13.9238 55.9412C13.9909 56.3509 14.0278 56.769 14.1349 57.1679C14.2421 57.5667 14.1282 57.9941 14.4012 58.3503C14.2774 57.5326 14.1538 56.7148 14.0304 55.897L13.9238 55.9412Z" fill="white"/>
<path d="M89.0966 48.6719C89.0243 49.0359 88.9479 49.4155 88.873 49.7914C89.2884 49.4238 89.3789 48.8846 89.0966 48.6719Z" fill="white"/>
<path d="M57.373 39.7742L57.5732 39.7903C57.5083 39.7715 57.4402 39.766 57.373 39.7742Z" fill="white"/>
<path d="M56.5557 39.7095L56.5754 39.7168C56.7626 39.7287 56.9514 39.7422 57.1422 39.7563C56.9472 39.7386 56.7522 39.724 56.5557 39.7095Z" fill="white"/>
<path d="M57.1422 39.7561C56.942 39.7369 56.7408 39.7213 56.54 39.7041L56.5536 39.7088C56.7532 39.7239 56.9482 39.7384 57.1422 39.7561Z" fill="white"/>
<path d="M56.5413 39.7044L56.5257 39.6987L56.5205 39.7029L56.5413 39.7044Z" fill="white"/>
<path d="M54.5176 39.6314L54.526 39.5991H53.7256V39.6334C53.9804 39.6272 54.2444 39.6265 54.5176 39.6314Z" fill="white"/>
<path d="M20.924 60.1526L20.9812 60.1448V59.5317L20.8408 59.5359C20.8696 59.7418 20.8973 59.9474 20.924 60.1526Z" fill="white"/>
<path d="M61.501 53.0719C61.5176 53.1171 61.5343 53.1628 61.553 53.2081L62.2695 52.8853L61.501 53.0719Z" fill="white"/>
<path d="M62.3274 52.8574L62.2666 52.8851L62.3274 52.8574Z" fill="white"/>
<path d="M62.2666 52.884L62.3363 52.8667L62.2666 52.884Z" fill="white"/>
<path d="M62.3274 52.8574L62.2666 52.8851L62.3358 52.8679L62.33 52.8606L62.3274 52.8574Z" fill="white"/>
<path d="M37.4027 59.0809L36.7876 58.7788C36.7714 58.8121 36.7558 58.8454 36.7402 58.8787L37.3575 59.1761L37.4027 59.0809Z" fill="white"/>
<path d="M56.0264 39.6836C56.1621 39.6909 56.2988 39.6992 56.4366 39.7075L56.4694 39.7044L56.0264 39.6836Z" fill="white"/>
<path d="M56.5261 39.6987L56.4824 39.7034H56.5178C56.5207 39.7021 56.5234 39.7005 56.5261 39.6987Z" fill="white"/>
<path d="M56.4688 39.7044H56.4813L56.0039 39.6836H56.0257L56.4688 39.7044Z" fill="white"/>
<path d="M52.1448 39.4762L51.7387 39.2412L51.668 39.328L52.1016 39.5626L52.1448 39.4762Z" fill="white"/>
<path d="M15.6986 55.2339L15.6367 55.2895L15.827 55.5105L15.8952 55.4486L15.6986 55.2339Z" fill="white"/>
<path d="M72.7481 41.5259H72.4678V41.5633L72.7475 41.5774L72.7481 41.5259Z" fill="white"/>
<path d="M72.0359 41.462V41.4204H71.7588L71.7629 41.462H72.0359Z" fill="white"/>
<path d="M13.5674 44.3613H13.5798L13.5674 44.2412V44.3613Z" fill="white"/>
<path d="M43.4409 43.2767C42.9433 43.5596 42.482 43.9075 42.0094 44.2336C41.8775 44.3367 41.7514 44.4471 41.6318 44.5643C42.2174 46.1363 42.2252 47.7337 42.0822 49.3852C42.363 49.3852 42.6022 49.4097 42.8294 49.3811C44.0535 49.2292 45.2781 49.0821 46.4975 48.8985C47.9831 48.6754 49.4646 48.4196 50.9466 48.1705C51.5389 48.0717 52.0906 47.872 52.5514 47.4695C52.6392 47.3931 52.7547 47.3182 52.7921 47.2179C53.0079 46.6334 53.3048 46.0557 53.3891 45.4498C53.6397 43.6574 53.1946 41.9965 52.2092 40.4848C51.6492 39.6263 51.6372 39.6274 50.6523 39.9518C48.1215 40.787 45.7482 41.9643 43.4409 43.2767Z" fill="url(#paint8_radial_463_21130)"/>
<path d="M40.6934 42.5499L41.5571 44.2519C44.5325 42.2452 47.7451 40.7596 51.2291 39.5828C50.5718 39.3441 50.0024 39.1465 49.4403 38.9292C49.221 38.8439 48.9793 38.836 48.7549 38.9068C46.0806 39.6348 43.6007 40.811 41.1993 42.1698C41.0158 42.2759 40.8566 42.4261 40.6934 42.5499Z" fill="url(#paint9_radial_463_21130)"/>
<path d="M24.3164 59.852C24.618 59.9289 24.8525 59.8816 25.1307 59.6284C24.7532 59.5208 24.4948 59.5057 24.3164 59.852Z" fill="url(#paint10_radial_463_21130)"/>
<path d="M56.3717 48.4832C56.4897 48.493 56.6084 48.4886 56.7253 48.4702C57.4185 48.322 58.1122 48.1744 58.8012 48.008C59.3129 47.8842 59.5542 47.5223 59.5812 47.0127C59.5947 46.76 59.5812 46.5062 59.5812 46.253L59.6332 46.2498C59.5911 45.8474 59.5667 45.4423 59.5022 45.044C59.4315 44.6103 59.1605 44.3451 58.7154 44.316C58.1096 44.277 57.5017 44.2546 56.8954 44.2452C56.5834 44.24 56.3457 44.4064 56.2095 44.6878C56.1299 44.8536 56.0483 45.0294 56.0228 45.2078C55.9188 45.9425 55.8241 46.6799 55.7477 47.4183C55.7274 47.6148 55.7664 47.8239 55.8096 48.0204C55.8892 48.3709 56.0212 48.4713 56.3717 48.4832ZM58.1684 44.6519C58.7705 44.6519 58.9744 44.8926 58.9962 45.4917C59.0113 45.9124 59.0394 46.332 59.0565 46.7527C59.0534 46.8329 59.0438 46.9127 59.0279 46.9914L58.9062 46.9872C58.8912 46.7272 58.8698 46.4636 58.8631 46.2015C58.8558 45.9316 58.8766 45.6607 58.8631 45.3913C58.8402 44.9998 58.7071 44.8401 58.316 44.7907C58.0347 44.7554 57.744 44.772 57.4601 44.7808C57.2001 44.7897 56.937 44.8198 56.6702 44.7559C57.1668 44.72 57.6671 44.6503 58.1684 44.6519Z" fill="url(#paint11_radial_463_21130)"/>
<path d="M57.457 44.7808C57.742 44.772 58.029 44.7553 58.3129 44.7907C58.7029 44.8401 58.8371 44.9987 58.86 45.3913C58.8756 45.6607 58.8548 45.9316 58.86 46.2015C58.8667 46.4615 58.888 46.7251 58.9031 46.9872L59.0248 46.9913C59.0407 46.9127 59.0503 46.8329 59.0534 46.7527C59.0362 46.332 59.0082 45.9123 58.9931 45.4917C58.9712 44.8926 58.7674 44.6539 58.1652 44.6519C57.665 44.6519 57.1648 44.7184 56.665 44.7559C56.9339 44.8198 57.1949 44.7897 57.457 44.7808Z" fill="white"/>
<path d="M66.176 36.1057L66.3741 35.464C66.3887 35.4827 66.3096 35.7292 66.176 36.1057L64.7719 40.6676L65.0839 40.716C65.4245 39.6286 66.7511 35.308 66.5998 34.4937L64.3887 40.3904C64.4112 40.4558 64.4424 40.5179 64.4812 40.575C64.7126 39.975 65.7366 37.3396 66.176 36.1057Z" fill="url(#paint12_radial_463_21130)"/>
<path d="M64.4595 40.6215C64.4647 40.6075 64.4704 40.5924 64.4772 40.5752C64.4383 40.518 64.4072 40.456 64.3846 40.3906L64.3066 40.5986L64.4595 40.6215Z" fill="url(#paint13_radial_463_21130)"/>
<path d="M64.1709 40.9651H65.0029L65.031 40.8777C64.771 40.8496 64.5073 40.8215 64.2354 40.7935L64.1709 40.9651Z" fill="url(#paint14_radial_463_21130)"/>
<path d="M64.7668 40.6674L66.1708 36.1055C65.7335 37.3394 64.7096 39.9748 64.4756 40.5749C64.4889 40.5942 64.5035 40.6126 64.5193 40.63L64.7668 40.6674Z" fill="white"/>
<path d="M66.372 35.4639L66.1758 36.1055C66.3074 35.7291 66.3865 35.4826 66.372 35.4639Z" fill="white"/>
<path d="M64.4796 40.5752C64.4728 40.5924 64.4671 40.6074 64.4619 40.6215L64.5233 40.6303C64.5075 40.6129 64.4929 40.5945 64.4796 40.5752Z" fill="white"/>
<path d="M55.3528 53.7231L54.6914 53.8344L55.3528 53.7231Z" fill="white"/>
<path d="M54.6595 53.8389H54.6517C54.3511 54.0656 53.9846 54.0068 53.6445 54.0552C53.9867 54.0079 54.3553 54.0677 54.6595 53.8389Z" fill="white"/>
<path d="M52.4709 54.0913C52.3914 54.1012 52.3212 54.1818 52.2432 54.2291H52.2504C52.3238 54.1792 52.3955 54.1007 52.4709 54.0913Z" fill="white"/>
<path d="M50.9733 54.1992L50.0986 54.3355C50.3893 54.2902 50.6795 54.245 50.9717 54.2018L50.9733 54.1992Z" fill="white"/>
<path d="M50.9737 54.2013C50.9737 54.2013 50.9737 54.1981 50.9737 54.2013H50.9768C51.3852 54.2096 51.7951 54.2195 52.2066 54.2309H52.2243L50.9727 54.1997C50.9727 54.1997 50.9753 54.2028 50.9737 54.2013Z" fill="white"/>
<path d="M50.9795 54.2012H50.9717C50.7408 54.4903 50.4382 54.3572 50.1553 54.3369C50.4397 54.3562 50.7439 54.4929 50.9779 54.2012C51.3846 54.391 51.7985 54.2391 52.2093 54.2303C51.7995 54.2397 51.3866 54.392 50.9795 54.2012Z" fill="white"/>
<path d="M54.6921 53.8346H54.6895C54.9281 53.8867 55.171 53.9678 55.3618 53.7212H55.3535C55.1684 53.9652 54.9292 53.8898 54.6921 53.8346Z" fill="white"/>
<path d="M56.8476 53.6207C56.8913 53.5687 56.9298 53.5084 56.9849 53.4824C56.9236 53.5115 56.8809 53.5833 56.832 53.6384C56.8367 53.6321 56.8419 53.6262 56.8476 53.6207Z" fill="white"/>
<path d="M55.3779 53.7196C55.6265 53.8023 55.8699 53.8413 56.0872 53.6411H56.081C55.8662 53.8398 55.626 53.8023 55.3779 53.7196Z" fill="white"/>
<path d="M56.8471 53.621L56.8398 53.6293C56.9537 53.5019 57.2189 53.6584 57.2694 53.4067L57.7571 53.4587C57.5949 53.4411 57.4326 53.4234 57.2688 53.4067C57.2194 53.6522 56.9662 53.5081 56.8471 53.621Z" fill="white"/>
<path d="M55.3746 53.7194H55.3689L55.3652 53.7163L55.3689 53.7194H55.3746Z" fill="white"/>
<path d="M47.2184 54.1225C50.8584 54.9977 57.4624 53.7434 61.341 52.8442C55.9455 53.7912 47.1341 54.1022 47.2184 54.1225ZM50.9723 54.1989L52.2239 54.2301H52.2416C52.3196 54.1828 52.3898 54.1022 52.4693 54.0923C53.1973 54.0013 53.9222 53.9228 54.6492 53.8406L54.6658 53.8287L54.6882 53.8339L55.3496 53.7226L55.3579 53.7122L55.3621 53.7163L55.3761 53.721L56.0766 53.643L56.0891 53.6316C56.3371 53.6342 56.5836 53.6352 56.8295 53.6363C56.8815 53.5843 56.921 53.512 56.9824 53.4802C57.0737 53.4454 57.1683 53.42 57.2648 53.4043L57.7551 53.3752C57.7551 53.4033 57.7551 53.4308 57.7525 53.4584L57.2648 53.4064C57.2128 53.6581 56.9491 53.5016 56.8352 53.629L56.8285 53.6368H56.0963H56.0797C55.8623 53.837 55.619 53.798 55.3704 53.7153H55.3647H55.3569C55.166 53.9618 54.9232 53.8833 54.6845 53.8287H54.6726H54.6544C54.3502 54.0575 53.9815 53.9977 53.6393 54.046C53.6164 54.0492 53.5931 54.0528 53.5702 54.0575C53.1349 54.1407 52.6862 54.1677 52.2463 54.2182L52.2405 54.2223H52.2379H52.2036C51.7928 54.2312 51.3789 54.383 50.9723 54.1932C50.7383 54.4839 50.4341 54.3492 50.1496 54.3289C50.1309 54.3289 50.1117 54.3289 50.0929 54.3289L50.9723 54.1989Z" fill="white"/>
<path d="M64.414 52.0698C64.414 52.0698 63.1857 52.4172 61.3418 52.8446C62.2778 52.6798 63.116 52.4957 63.7827 52.2908L64.3547 52.0932L64.414 52.0698Z" fill="white"/>
<path d="M63.7842 52.2907C63.9922 52.2266 64.1828 52.1608 64.3562 52.0933L63.7842 52.2907Z" fill="white"/>
<path d="M53.575 54.0676C53.5978 54.0629 53.6212 54.0593 53.6441 54.0562C53.9842 54.0078 54.3508 54.0666 54.6514 53.8398C53.9234 53.922 53.1953 54.0005 52.4715 54.0915C52.3935 54.1009 52.3243 54.1794 52.251 54.2283C52.693 54.1778 53.1397 54.1508 53.575 54.0676Z" fill="white"/>
<path d="M52.2402 54.2302H52.2428L52.2486 54.2261H52.2413L52.2402 54.2302Z" fill="white"/>
<path d="M54.6721 53.8306L54.6602 53.8389H54.6784L54.6721 53.8326V53.8306Z" fill="white"/>
<path d="M54.6719 53.8306L54.6553 53.8425H54.6631L54.6719 53.8306Z" fill="white"/>
<path d="M50.9707 54.2017C50.6785 54.2448 50.3883 54.29 50.0977 54.3352C50.1164 54.3352 50.1356 54.3352 50.1543 54.3352C50.4372 54.356 50.7399 54.4905 50.9707 54.2017Z" fill="white"/>
<path d="M50.9756 54.2002C50.9756 54.2002 50.9756 54.2035 50.9756 54.2002H50.9803H50.9756Z" fill="white"/>
<path d="M52.2083 54.2308C51.7972 54.2194 51.3872 54.2095 50.9785 54.2012C51.3857 54.3922 51.7986 54.2397 52.2083 54.2308Z" fill="white"/>
<path d="M55.3528 53.7231L54.6914 53.8345C54.9285 53.8896 55.1677 53.965 55.3528 53.7231Z" fill="white"/>
<path d="M54.6897 53.8353H54.6923L54.6699 53.8301L54.6897 53.8353Z" fill="white"/>
<path d="M55.3691 53.7199L55.3655 53.7168L55.3613 53.7215L55.3691 53.7199Z" fill="white"/>
<path d="M55.366 53.7161L55.3618 53.7119L55.3535 53.7223H55.3618L55.366 53.7161Z" fill="white"/>
<path d="M54.6891 53.8352L54.6709 53.8306L54.6771 53.8368L54.6891 53.8352Z" fill="white"/>
<path d="M54.6709 53.8306L54.6771 53.8368L54.6709 53.8306Z" fill="white"/>
<path d="M56.0784 53.6416L55.3779 53.7197C55.626 53.8024 55.8662 53.8399 56.0784 53.6416Z" fill="white"/>
<path d="M56.0943 53.6328L56.085 53.6411H56.1016L56.0943 53.6349V53.6328Z" fill="white"/>
<path d="M56.0784 53.6416L55.3779 53.7196L56.0784 53.6416Z" fill="white"/>
<path d="M56.0935 53.6328L56.0811 53.6443H56.0873L56.0935 53.6328Z" fill="white"/>
<path d="M55.3746 53.7194L55.3652 53.7163L55.3689 53.7194H55.3746Z" fill="white"/>
<path d="M55.3754 53.7195L55.3613 53.7148L55.3754 53.7195Z" fill="white"/>
<path d="M56.834 53.6357C56.834 53.6357 56.8387 53.6315 56.8407 53.6289L56.848 53.6206C56.843 53.6253 56.8383 53.6303 56.834 53.6357Z" fill="white"/>
<path d="M56.8477 53.621C56.9667 53.5092 57.22 53.6522 57.2673 53.4067C57.1708 53.4224 57.0762 53.4478 56.9849 53.4827C56.9298 53.5081 56.8913 53.57 56.8477 53.621Z" fill="white"/>
<path d="M56.834 53.6357L56.8407 53.6279C56.8407 53.6305 56.8361 53.6321 56.834 53.6347V53.6357Z" fill="white"/>
<path d="M57.2695 53.4038C57.4333 53.4225 57.5956 53.4402 57.7578 53.4558C57.7578 53.4282 57.7578 53.4006 57.7604 53.3726L57.2701 53.4017L57.2695 53.4038Z" fill="white"/>
<path d="M57.7609 53.377L57.2705 53.4061L57.7609 53.377Z" fill="white"/>
<path d="M56.8322 53.6357L56.1006 53.6389H56.8327L56.8322 53.6357Z" fill="white"/>
<path d="M56.8317 53.6359L56.0928 53.6328L56.1001 53.6391L56.8317 53.6359Z" fill="white"/>
<path d="M56.8323 53.636C56.5863 53.636 56.3398 53.636 56.0918 53.6313L56.8323 53.636Z" fill="white"/>
<path d="M56.0928 53.6328L56.1 53.6391L56.0928 53.6328Z" fill="white"/>
<path d="M65.5769 40.9004L65.6289 40.8021L65.0845 40.7158L65.0527 40.8162C65.2342 40.8198 65.4219 40.8151 65.5769 40.9004Z" fill="white"/>
<path d="M57.1172 39.875C57.3028 39.8989 57.4926 39.9041 57.6809 39.9197C57.4921 39.9041 57.3033 39.8989 57.1172 39.875Z" fill="white"/>
<path d="M57.6809 39.9199H57.877L58.7365 39.91L58.7683 39.9256L61.1842 40.1711C59.9882 40.0229 58.7573 39.8892 57.5723 39.792C57.599 39.8035 57.6228 39.821 57.6416 39.8432C57.6605 39.8654 57.6739 39.8917 57.6809 39.9199Z" fill="white"/>
<path d="M57.3739 39.7745L57.1436 39.7568L57.3042 39.7724C57.3274 39.7747 57.3507 39.7754 57.3739 39.7745Z" fill="white"/>
<path d="M58.7654 39.9228H58.7712L58.7394 39.9072L57.8799 39.9171C58.1664 39.914 58.4519 39.9109 58.7374 39.9093L58.7654 39.9228Z" fill="white"/>
<path d="M58.7259 39.9195L58.7363 39.9106L58.7238 39.921C58.3749 39.921 58.028 39.921 57.6807 39.921H58.7207L58.7727 39.9262L58.7612 39.921L58.7259 39.9195Z" fill="white"/>
<path d="M65.0505 40.8163L65.0312 40.8777C66.4394 41.0295 67.6152 41.172 68.3073 41.288C69.5402 41.496 68.1201 41.1985 65.6298 40.8022L65.5778 40.9005C65.4223 40.8152 65.2346 40.8199 65.0505 40.8163Z" fill="white"/>
<path d="M62.4807 40.3379C62.4807 40.3519 62.4807 40.3659 62.4807 40.3805C61.9232 40.341 61.3648 40.3129 60.8089 40.2583C60.2223 40.2011 59.6378 40.1236 59.0539 40.0425C58.9593 40.0295 58.8703 39.9718 58.7788 39.9281L58.7268 39.9229H57.6868C57.4986 39.9073 57.3088 39.9021 57.1231 39.8782C57.0862 39.8735 57.0493 39.8683 57.0124 39.8615C56.8646 39.827 56.7202 39.7795 56.5808 39.7196L56.443 39.7107L55.7909 39.7747L55.7878 39.6754L56.0109 39.6858C55.494 39.6582 54.9953 39.6405 54.5232 39.6338L54.52 39.6473H53.7328V39.6359C53.2523 39.6447 52.8093 39.6697 52.4141 39.7128C52.4141 39.7128 59.3435 40.2848 64.2408 40.796L64.3142 40.601C63.7292 40.5115 63.1151 40.4237 62.4807 40.3379Z" fill="white"/>
<path d="M58.7803 39.9287C58.8697 39.9734 58.9571 40.0296 59.0507 40.0426C59.6346 40.1237 60.2191 40.2012 60.8057 40.2584C61.3616 40.3104 61.92 40.3411 62.4775 40.3806C62.4775 40.366 62.4775 40.352 62.4775 40.338C62.0615 40.2813 61.6309 40.2256 61.1983 40.1716C60.394 40.0901 59.588 40.0091 58.7803 39.9287Z" fill="white"/>
<path d="M58.7704 39.9238H58.7646L58.7761 39.929H58.7808L58.7704 39.9238Z" fill="white"/>
<path d="M58.7256 39.9195L58.7641 39.9231L58.736 39.9106L58.7256 39.9195Z" fill="white"/>
<path d="M58.7764 39.9282C58.8679 39.9719 58.9568 40.0296 59.0514 40.0426C58.9578 40.0296 58.8705 39.9735 58.7811 39.9287L58.7764 39.9282Z" fill="white"/>
<path d="M58.7799 39.9289C59.5887 40.0083 60.3956 40.0892 61.2005 40.1717H61.1855L58.7695 39.9263L58.7799 39.9289Z" fill="white"/>
<path d="M57.3038 39.7724L57.141 39.7563C56.9502 39.7423 56.7614 39.7288 56.5742 39.7168C56.7136 39.7767 56.8581 39.8242 57.0058 39.8588C57.0427 39.8655 57.0797 39.8707 57.1166 39.8754C57.3027 39.8993 57.4925 39.9045 57.6803 39.9201C57.6737 39.8918 57.6606 39.8653 57.6421 39.8429C57.6236 39.8204 57.6002 39.8025 57.5737 39.7906L57.3735 39.7745C57.3502 39.7754 57.3269 39.7747 57.3038 39.7724Z" fill="white"/>
<path d="M57.1166 39.875C57.0797 39.8704 57.0428 39.8652 57.0059 39.8584C57.0428 39.8652 57.0797 39.8704 57.1166 39.875Z" fill="white"/>
<path d="M57.3042 39.7724L57.1436 39.7568L57.3042 39.7724Z" fill="white"/>
<path d="M54.5137 39.6448L54.5169 39.6313C54.2441 39.6281 53.9806 39.6281 53.7266 39.6313V39.6427L54.5137 39.6448Z" fill="white"/>
<path d="M57.6807 39.921C58.028 39.921 58.3749 39.921 58.7238 39.921L58.7363 39.9106C58.4513 39.9106 58.1643 39.9153 57.8788 39.9184H57.6838H57.6807V39.921Z" fill="white"/>
<path d="M55.7812 39.6724L55.7844 39.7717L56.4364 39.7077C56.2986 39.6994 56.1619 39.6911 56.0262 39.6838L55.7812 39.6724Z" fill="white"/>
<path d="M56.0262 39.6837H56.0043L55.7812 39.6733L56.0262 39.6837Z" fill="white"/>
<path d="M64.7578 40.6987H64.5977C64.7287 40.7954 64.8878 40.811 65.0501 40.8162L65.0844 40.7158L64.7724 40.6675L64.7578 40.6987Z" fill="white"/>
<path d="M64.5978 40.699H64.4309L64.4615 40.6215L64.3087 40.5986L64.2354 40.7936C64.5073 40.8217 64.773 40.8498 65.0309 40.8779L65.0502 40.8165C64.8879 40.8113 64.7288 40.7957 64.5978 40.699Z" fill="white"/>
<path d="M64.5973 40.699H64.7575L64.7674 40.6678L64.5225 40.6304C64.5449 40.6558 64.57 40.6788 64.5973 40.699Z" fill="white"/>
<path d="M64.5976 40.6991C64.5703 40.6789 64.5452 40.6559 64.5227 40.6304L64.4613 40.6216L64.4307 40.6991H64.5976Z" fill="white"/>
<path d="M13.5683 47.5798C13.5683 47.5798 13.5683 45.6657 13.5683 44.361H13.5111L13.5522 44.0958L13.5667 44.2419C13.5667 43.6523 13.5667 43.2123 13.5667 43.1791C13.5766 42.7974 13.4378 41.8765 13.4378 41.8765L13.1934 48.2933H13.5444L13.5683 47.5798ZM13.4607 45.5679H13.4393V45.0838H13.4607V45.5679Z" fill="white"/>
<path d="M13.4395 45.5686H13.4608V45.084H13.4395V45.5686Z" fill="white"/>
<path d="M13.5088 44.364H13.566V44.2434L13.5514 44.0962L13.5088 44.364Z" fill="white"/>
<path d="M87.9537 73.563L79.875 75.3831C86.323 75.4351 87.9537 73.563 87.9537 73.563Z" fill="white"/>
<defs>
<radialGradient id="paint0_radial_463_21130" cx="0" cy="0" r="1" gradientUnits="userSpaceOnUse" gradientTransform="translate(62.3368 52.8666) rotate(-127.889) scale(0.00804413 0.0294485)">
<stop stop-color="#8F8AD2"/>
<stop offset="1" stop-color="#4267B2"/>
</radialGradient>
<radialGradient id="paint1_radial_463_21130" cx="0" cy="0" r="1" gradientUnits="userSpaceOnUse" gradientTransform="translate(99.3698 67.2321) rotate(-151.039) scale(92.6176 296.38)">
<stop stop-color="#8F8AD2"/>
<stop offset="1" stop-color="#4267B2"/>
</radialGradient>
<radialGradient id="paint2_radial_463_21130" cx="0" cy="0" r="1" gradientUnits="userSpaceOnUse" gradientTransform="translate(14.3144 51.5044) rotate(-104.563) scale(0.0768822 0.141328)">
<stop stop-color="#8F8AD2"/>
<stop offset="1" stop-color="#4267B2"/>
</radialGradient>
<radialGradient id="paint3_radial_463_21130" cx="0" cy="0" r="1" gradientUnits="userSpaceOnUse" gradientTransform="translate(56.5743 39.7161) rotate(-174.933) scale(0.1196 0.0794792)">
<stop stop-color="#8F8AD2"/>
<stop offset="1" stop-color="#4267B2"/>
</radialGradient>
<radialGradient id="paint4_radial_463_21130" cx="0" cy="0" r="1" gradientUnits="userSpaceOnUse" gradientTransform="translate(56.555 39.7048) rotate(-173.952) scale(0.0741364 0.0586686)">
<stop stop-color="#8F8AD2"/>
<stop offset="1" stop-color="#4267B2"/>
</radialGradient>
<radialGradient id="paint5_radial_463_21130" cx="0" cy="0" r="1" gradientUnits="userSpaceOnUse" gradientTransform="translate(46.0074 40.438) rotate(-163.606) scale(8.24642 16.8652)">
<stop stop-color="#8F8AD2"/>
<stop offset="1" stop-color="#4267B2"/>
</radialGradient>
<radialGradient id="paint6_radial_463_21130" cx="0" cy="0" r="1" gradientUnits="userSpaceOnUse" gradientTransform="translate(36.854 39.4637) rotate(-142.838) scale(0.017488 0.0635883)">
<stop stop-color="#8F8AD2"/>
<stop offset="1" stop-color="#4267B2"/>
</radialGradient>
<radialGradient id="paint7_radial_463_21130" cx="0" cy="0" r="1" gradientUnits="userSpaceOnUse" gradientTransform="translate(36.854 39.4699) rotate(-128.611) scale(0.0223335 0.0822561)">
<stop stop-color="#8F8AD2"/>
<stop offset="1" stop-color="#4267B2"/>
</radialGradient>
<radialGradient id="paint8_radial_463_21130" cx="0" cy="0" r="1" gradientUnits="userSpaceOnUse" gradientTransform="translate(53.4577 47.4663) rotate(-140.199) scale(13.3074 49.4316)">
<stop stop-color="#8F8AD2"/>
<stop offset="1" stop-color="#4267B2"/>
</radialGradient>
<radialGradient id="paint9_radial_463_21130" cx="0" cy="0" r="1" gradientUnits="userSpaceOnUse" gradientTransform="translate(51.2291 43.1733) rotate(-152.39) scale(10.2789 31.8843)">
<stop stop-color="#8F8AD2"/>
<stop offset="1" stop-color="#4267B2"/>
</radialGradient>
<radialGradient id="paint10_radial_463_21130" cx="0" cy="0" r="1" gradientUnits="userSpaceOnUse" gradientTransform="translate(25.1307 59.8206) rotate(-157.813) scale(0.760288 2.00804)">
<stop stop-color="#8F8AD2"/>
<stop offset="1" stop-color="#4267B2"/>
</radialGradient>
<radialGradient id="paint11_radial_463_21130" cx="0" cy="0" r="1" gradientUnits="userSpaceOnUse" gradientTransform="translate(59.6332 47.6397) rotate(-131.907) scale(5.03629 18.9093)">
<stop stop-color="#8F8AD2"/>
<stop offset="1" stop-color="#4267B2"/>
</radialGradient>
<radialGradient id="paint12_radial_463_21130" cx="0" cy="0" r="1" gradientUnits="userSpaceOnUse" gradientTransform="translate(66.6118 39.4715) rotate(-109.273) scale(5.82271 13.703)">
<stop stop-color="#8F8AD2"/>
<stop offset="1" stop-color="#4267B2"/>
</radialGradient>
<radialGradient id="paint13_radial_463_21130" cx="0" cy="0" r="1" gradientUnits="userSpaceOnUse" gradientTransform="translate(64.4772 40.5753) rotate(-125.867) scale(0.251662 0.90254)">
<stop stop-color="#8F8AD2"/>
<stop offset="1" stop-color="#4267B2"/>
</radialGradient>
<radialGradient id="paint14_radial_463_21130" cx="0" cy="0" r="1" gradientUnits="userSpaceOnUse" gradientTransform="translate(65.031 40.9307) rotate(-168.478) scale(0.758847 1.12184)">
<stop stop-color="#8F8AD2"/>
<stop offset="1" stop-color="#4267B2"/>
</radialGradient>
</defs>
</svg>
