<svg width="105" height="104" viewBox="0 0 105 104" fill="none" xmlns="http://www.w3.org/2000/svg">
<path d="M19.1554 55.8286H19.1481C19.0914 55.8359 19.0342 55.8427 18.9775 55.8489L19.2563 55.8603C19.2256 55.8494 19.1944 55.839 19.1632 55.8297L19.1554 55.8286Z" fill="url(#paint0_radial_463_22462)"/>
<path d="M70.4142 52.9209H70.4948H70.5067H70.4168H70.3965V52.925L70.4142 52.9209Z" fill="url(#paint1_radial_463_22462)"/>
<path d="M74.5703 58.1826L74.5771 58.1899C74.5771 58.1899 74.5714 58.1831 74.5703 58.1826Z" fill="url(#paint2_radial_463_22462)"/>
<path d="M10.5277 55.5113C10.5017 55.5045 10.4757 55.4972 10.4503 55.4894L10.4092 55.4863L10.5277 55.5113Z" fill="url(#paint3_radial_463_22462)"/>
<path d="M45.042 64.8442L45.0264 64.8296L45.042 64.8442Z" fill="url(#paint4_radial_463_22462)"/>
<path d="M101.339 54.6362C101.213 54.557 101.071 54.5095 100.923 54.4979C100.371 54.4549 99.8201 54.4176 99.2686 54.3861C98.9685 54.3679 98.6633 54.3252 98.3679 54.3585C97.0866 54.5036 95.8085 54.6705 94.5293 54.8322C92.9345 55.0319 91.3412 55.242 89.7453 55.424C89.3511 55.4687 88.9606 55.3678 88.606 55.1801L95.4461 37.4315C95.3663 37.4133 95.2856 37.3998 95.2043 37.3909C94.1643 37.3426 93.1289 37.3056 92.0921 37.2448C91.7171 37.2224 91.4426 37.3192 91.1675 37.6005C87.3471 41.5057 83.4918 45.3771 79.6979 49.3083C78.8357 50.2022 77.8675 50.7913 76.7053 51.1283C76.6569 51.1423 76.6085 51.1574 76.5597 51.1678C75.0069 51.5058 73.4563 51.8532 71.8999 52.174C71.4122 52.2744 70.9073 52.3716 70.4148 52.3539C68.5392 52.2874 66.6661 52.1698 64.7915 52.0773C62.516 51.9644 60.24 51.862 57.9639 51.7471C55.5719 51.6264 53.1799 51.4907 50.7879 51.3732C48.5473 51.263 46.3055 51.1683 44.0643 51.0612C43.9577 51.0565 43.8527 51.016 43.7237 50.9868C44.0243 50.1278 44.277 49.2958 44.7523 48.5532C44.8563 48.3936 45.0081 48.2262 44.8563 47.9911C44.5141 47.8871 44.1725 47.9911 43.8267 48.0275C43.4809 48.0639 43.2121 48.2012 43.0223 48.4794C42.5023 49.2365 41.9968 50.0004 41.4851 50.7612L41.5007 50.7487C41.5005 50.7518 41.5005 50.7549 41.5007 50.758L41.5527 50.7357L41.5876 50.7206L41.6671 50.6852L41.6744 50.6816C41.9864 50.1507 43.262 48.0192 43.575 48.2584C43.575 48.2584 42.8434 48.8647 41.8231 50.6156C41.8034 50.6483 41.7847 50.6811 41.7649 50.7144C41.6874 50.8485 41.6203 50.9634 41.5631 51.0602C41.3297 51.4647 41.1081 51.848 40.8351 52.2042C40.0551 53.2265 39.2897 54.2639 38.4811 55.2649C37.9835 55.8725 37.4524 56.452 36.8904 57.0006C36.3013 57.5836 35.5847 57.9824 34.7953 58.2429C34.7161 58.2683 34.6348 58.2873 34.5525 58.2996C34.5188 58.2969 34.4858 58.2881 34.4553 58.2736C34.8395 58.089 35.242 57.9398 35.5956 57.7141C36.0433 57.4276 36.5025 57.128 36.8644 56.7464C37.4952 56.0818 38.0651 55.358 38.6413 54.644C39.1769 53.9805 39.6906 53.2998 40.208 52.6222C40.624 52.079 41.0331 51.5313 41.4352 50.979C41.4779 50.9213 41.4815 50.835 41.5007 50.7601L41.4851 50.7669C41.4852 50.7657 41.4852 50.7644 41.4851 50.7632C41.3063 50.9192 41.1097 50.9556 40.8611 50.9385C39.3921 50.8345 37.9216 50.7502 36.451 50.6676C34.9628 50.5838 33.474 50.5116 31.9858 50.431C30.4138 50.3446 28.8419 50.2505 27.2699 50.1632C24.9783 50.0358 22.6871 49.8896 20.3945 49.7929C19.0269 49.7352 17.665 49.5548 16.2891 49.651C15.2033 49.7269 14.1123 49.7284 13.0235 49.7685C11.3454 49.8304 9.76098 50.3108 8.20722 50.8964C7.83958 51.0347 7.5047 51.2853 7.1875 51.5271C6.87147 51.7759 6.57426 52.0478 6.2983 52.3404C5.99202 52.6555 5.66546 52.9124 5.2505 53.0902C4.64001 53.3426 4.1339 53.7957 3.81582 54.3746C3.5943 54.7776 3.60418 55.1869 3.89798 55.5504C4.11378 55.828 4.35564 56.0843 4.62026 56.3158C5.8277 57.3256 7.14798 58.1327 8.70122 58.4998C8.88946 58.544 9.07458 58.6002 9.26958 58.6558C9.16558 59.0089 9.0699 59.3224 8.95342 59.713L10.2493 59.973C10.1562 60.0993 10.087 60.1862 10.0251 60.2782C9.85406 60.534 9.88942 60.7056 10.1489 60.8564C10.223 60.893 10.3005 60.9223 10.3803 60.9438C10.8644 61.1055 10.8644 61.105 10.7963 61.6718C10.6725 61.7115 10.551 61.758 10.4323 61.8112C10.0563 62.003 9.86966 62.3832 9.95598 62.769C9.99284 62.9517 10.0914 63.1161 10.2351 63.2348C10.3788 63.3534 10.559 63.419 10.7453 63.4206C11.0129 63.4242 11.2803 63.4069 11.5451 63.3686C11.9325 63.3212 12.1239 63.0597 12.206 62.7056C12.2918 62.3379 12.154 62.0462 11.8602 61.8278C11.7392 61.7454 11.6135 61.6701 11.4837 61.6021C11.4837 61.3208 11.5628 61.0488 11.4666 60.8741C11.2887 60.5481 11.4297 60.3073 11.5222 60.0177C11.6226 60.0234 11.7053 60.0218 11.7859 60.0343C12.2856 60.1118 12.284 60.1123 12.4062 59.6563C12.4307 59.5648 12.4697 59.4769 12.5102 59.3682L13.2268 59.4618C14.6537 59.6464 16.0764 59.9043 17.5095 60C20.0159 60.1674 22.5291 60.234 25.0391 60.3463C25.1519 60.3584 25.2638 60.378 25.374 60.4051C25.4208 60.7987 25.4619 61.1638 25.5076 61.5283C25.5955 62.223 26.0344 62.7394 26.6339 62.8475C27.2912 62.9661 27.9516 63.068 28.6068 63.1949C29.9931 63.4632 31.3873 63.614 32.8022 63.5474C33.2047 63.5282 33.5432 63.4351 33.8391 63.1314C34.0058 62.9704 34.2194 62.8666 34.449 62.835C35.229 62.7461 36.0153 62.7082 36.7979 62.64C37.1473 62.6099 37.4967 62.5652 37.842 62.5043C38.0594 62.4658 38.2112 62.3364 38.3521 62.1434C38.6189 61.7794 38.6241 61.3702 38.6257 60.9256C39.0359 60.9438 39.4166 60.9506 39.7957 60.9818C39.9611 60.9935 40.1231 61.0347 40.2741 61.1034C40.9943 61.4435 41.7529 61.6307 42.5397 61.7274C42.6764 61.751 42.8117 61.7824 42.9448 61.8216C43.0321 62.1382 43.1008 62.4138 43.1845 62.6848C43.2469 62.8891 43.3686 63.0836 43.3894 63.29C43.4216 63.602 43.4596 63.9442 43.3629 64.226C43.2661 64.5079 42.898 64.4595 42.6458 64.4772C42.0285 64.5193 41.6458 65.0528 41.6058 65.6389C41.5767 66.044 41.716 66.3591 42.0707 66.5707C42.4253 66.7824 42.7831 66.8401 43.1533 66.5879C43.2526 66.5203 43.4076 66.4438 43.5033 66.475C44.0113 66.6409 44.3779 66.4288 44.6535 66.111C44.9411 66.111 45.1823 66.1526 45.4023 66.1017C45.7554 66.0195 46.0975 65.8833 46.4392 65.7559C46.9217 65.576 47.1511 65.2359 47.1277 64.7622C47.1043 64.2884 46.8557 63.9515 46.3643 63.8262C46.1287 63.7664 45.8682 63.77 45.6228 63.7887C45.3108 63.8132 44.9988 63.8823 44.6421 63.94V62.977C45.5541 62.5761 45.5541 62.5761 45.6737 61.9479C45.748 61.9253 45.8249 61.9122 45.9025 61.9089C46.5905 61.9562 47.2727 61.9776 47.9342 61.7191C48.0709 61.6671 48.2311 61.6645 48.3809 61.6567C49.1338 61.6162 49.8889 61.5766 50.6403 61.5486C50.8124 61.5423 50.9866 61.5834 51.1239 61.6006V63.2838C51.0334 63.2999 50.9039 63.355 50.7843 63.3389C50.2123 63.262 49.8686 63.589 49.58 64.0014C49.2742 64.4372 49.268 64.8885 49.5337 65.2666C49.8166 65.6701 50.321 65.8297 50.8285 65.7054C51.0672 65.6467 51.3199 65.6477 51.5617 65.6014C51.8357 65.5494 52.2029 65.5557 52.3531 65.383C52.5991 65.0996 52.8965 65.0305 53.2049 64.9473C53.3931 64.8953 53.5991 64.9036 53.7972 64.901C54.4389 64.8922 54.8549 64.5271 54.9131 63.913C54.9713 63.2989 54.6375 62.8605 53.9891 62.755C53.7436 62.7144 53.4883 62.7368 53.2371 62.7331C53.0697 62.7331 52.9002 62.7508 52.7353 62.73C52.5019 62.7009 52.4062 62.5277 52.3682 62.314C52.3261 62.0748 52.4795 61.9822 52.6683 61.9256C52.7796 61.8894 52.8948 61.8667 53.0115 61.858C53.5959 61.8283 54.1815 61.7742 54.7649 61.7909C56.0035 61.8257 57.2422 61.8871 58.4793 61.9594C59.8313 62.0384 61.1833 62.1606 62.5405 62.2303C64.6647 62.3395 66.7904 62.4242 68.9157 62.509C69.2165 62.5124 69.5173 62.495 69.8158 62.457C70.2838 62.4107 70.7481 62.3057 71.2125 62.3124C71.5086 62.3234 71.805 62.302 72.0965 62.2485C78.2498 61.0088 84.4032 59.7733 90.5565 58.5419C90.6688 58.5196 90.8238 58.4743 90.896 58.5263C91.104 58.6766 91.2814 58.5835 91.4634 58.5123C91.6969 58.4208 91.9314 58.3225 92.1519 58.2086C92.9319 57.8087 93.0645 57.3813 92.6334 56.6044C95.5371 55.9419 98.4506 55.3699 101.339 54.6362ZM92.5455 37.5911H95.1257L94.1897 39.29L94.1377 39.2598C94.1897 38.9395 94.2937 38.6166 94.2766 38.3009C94.2641 38.0929 94.0732 37.8938 93.9542 37.6769H92.545C92.545 37.6478 92.545 37.6192 92.5455 37.5911ZM37.0709 56.138L15.2309 55.1526H15.2038C15.2038 55.1526 13.6345 55.1219 11.8623 55.0605C11.8619 55.0154 11.856 54.9705 11.8446 54.9269C12.6428 54.9539 13.4119 54.9789 14.0286 55.0028H14.3479C14.3453 55.0064 14.3437 55.0101 14.3411 55.0142C14.8497 55.033 15.2095 55.0475 15.3229 55.0548C15.3987 55.0566 15.4741 55.0658 15.5481 55.0824C16.0478 55.1115 16.5475 55.1401 17.0472 55.164C17.3478 55.1786 17.6499 55.164 17.9505 55.177C20.2579 55.272 22.5651 55.3687 24.8722 55.4672C27.5325 55.5777 30.193 55.6876 32.8537 55.7968C34.1589 55.852 35.4635 55.9175 36.7682 55.9809C36.8722 55.9861 36.9762 56.01 37.0833 56.0256C37.0776 56.0646 37.074 56.1016 37.0709 56.138ZM11.8509 55.566C11.8544 55.5788 11.8572 55.5918 11.8592 55.605L11.6574 55.5888C11.3189 55.5888 11.0043 55.6008 10.7006 55.5498H10.7053C10.7053 55.5498 10.4032 55.6128 10.2435 55.4739L10.1754 55.4682V55.4412C10.1762 55.4264 10.1762 55.4117 10.1754 55.397C10.1544 55.3436 10.1453 55.2862 10.1489 55.229C10.1418 54.8782 10.1576 54.5273 10.1962 54.1786C10.2383 53.4064 10.2924 52.5198 10.2924 52.5198C10.2924 52.5198 10.4604 52.0112 10.9908 51.9774C11.2653 51.9774 11.5456 51.9665 11.8228 51.9811C12.0365 51.992 12.1618 52.1007 12.0984 52.368C12.0927 52.356 12.0864 52.3446 12.0802 52.3331C12.0745 52.7543 11.8202 53.7694 11.8202 53.7694C11.7864 54.034 11.7422 54.2987 11.7448 54.5634C11.7448 54.8702 11.8046 55.1775 11.8488 55.5311L11.9008 55.5353V55.5452C11.8784 55.5238 11.8415 55.5358 11.8498 55.5634L11.8509 55.566ZM10.7963 58.8508C10.8025 58.8284 10.8088 58.8066 10.8145 58.7842L11.3293 58.9272C11.2253 59.2762 11.1322 59.5798 11.0407 59.884L10.9419 59.856L11.1499 59.0448L10.7963 58.8508ZM12.7791 50.7877L13.1925 50.7684C13.1982 50.7887 13.2044 50.809 13.2107 50.8288L12.7817 50.848L12.7791 50.7877ZM13.9886 50.7034H15.56V50.7201H13.9875C13.987 50.7144 13.9865 50.7092 13.9865 50.7034H13.9886ZM19.2406 50.692H20.1937V50.7284H19.2406V50.692ZM20.8323 50.7887H22.8795C22.8749 50.8028 22.8707 50.8168 22.8665 50.8308H20.8323V50.7887ZM23.8603 50.9286L23.8681 50.886H24.8113C24.8113 50.9 24.8113 50.9146 24.8113 50.9286H23.8603ZM25.6709 50.9853H26.4083C26.4083 50.9993 26.4083 51.0134 26.4083 51.0274H25.6771L25.6709 50.9853ZM27.1695 51.1324V51.0903H28.4253V51.1324H27.1695ZM29.5855 51.2328C29.5855 51.2182 29.5855 51.2042 29.5855 51.1896H31.0446L31.0243 51.2328H29.5855ZM38.6012 51.5448H36.2207C36.2207 51.5297 36.2207 51.5141 36.2207 51.499H38.6075C38.6059 51.5131 38.6049 51.5287 38.6033 51.5438L38.6012 51.5448ZM8.64922 51.1579C9.03298 51.0498 9.42922 50.9702 9.7979 50.823C10.6481 50.4835 11.5508 50.4117 12.439 50.2843C13.9002 50.0763 15.3733 50.0982 16.8449 50.1595C16.8811 50.1616 16.9171 50.1663 16.9526 50.1736C17.0275 50.157 17.1041 50.1486 17.1809 50.1486L18.6327 50.2048C18.6324 50.1999 18.6324 50.195 18.6327 50.1902H19.6987C19.6987 50.2068 19.6987 50.2235 19.6987 50.2422H19.5323L20.9925 50.2989H22.3445H22.3741H22.3793C22.7755 50.3207 23.1718 50.3446 23.568 50.3639C24.712 50.4211 25.8617 50.4819 27.0089 50.5313L28.3609 50.5833C29.119 50.6098 29.8772 50.6353 30.6348 50.6629C32.0388 50.7149 33.4428 50.7799 34.8468 50.8371C36.7694 50.9161 38.692 50.9945 40.6147 51.0721C40.6585 51.0706 40.7022 51.0791 40.7422 51.0972C40.7823 51.1152 40.8176 51.1422 40.8455 51.1761C40.7468 51.1986 40.6462 51.212 40.545 51.2162C38.0869 51.1064 35.6294 50.99 33.1714 50.8818C31.3857 50.8028 29.6004 50.7263 27.8154 50.6525L27.6963 50.6655L17.0295 50.2838C16.8621 50.302 16.6952 50.3301 16.5272 50.3358C15.5252 50.3779 14.5211 50.3878 13.5211 50.4606C12.3204 50.5474 11.1291 50.6998 9.99498 51.1558C9.74538 51.2535 9.48237 51.3126 9.21498 51.3311C8.74634 51.3665 8.29555 51.5259 7.90874 51.7928C7.83816 51.8324 7.76309 51.8632 7.68514 51.8849C7.67682 51.888 7.65914 51.8662 7.62066 51.8365C7.84114 51.4231 8.23478 51.2718 8.65182 51.1569L8.64922 51.1579ZM10.1109 54.8723C10.1109 54.9128 10.1078 54.9534 10.1052 54.994C9.0335 54.942 8.05174 54.8827 7.4709 54.8094C6.96455 54.8706 6.48128 55.0564 6.0643 55.3502C6.05338 55.3574 6.75486 54.7615 7.2603 54.7782L7.7283 54.7932C7.7855 54.7932 7.81722 54.7932 7.81722 54.7932L10.1109 54.8723ZM6.82974 52.2166L6.92802 52.3097L6.46938 53.0897L6.06066 52.8724L6.82974 52.2166ZM6.97586 52.4194L6.77254 53.1604L6.64254 53.1084C6.64254 53.1084 6.9483 52.4486 6.97846 52.4184L6.97586 52.4194ZM5.8797 52.8874L6.5557 53.4631L6.56246 53.4657C6.5626 53.4669 6.5626 53.4681 6.56246 53.4693C6.57078 53.4693 7.20362 53.5104 7.28786 53.3424C7.3721 53.1745 7.35286 52.5042 7.28786 52.2764C7.22286 52.0487 6.8131 51.9452 6.8131 51.9452C7.1641 51.8542 7.3981 52.2166 7.3981 52.2166C7.3981 52.2166 7.4371 52.7054 7.4631 52.8874C7.4891 53.0694 7.4371 53.3752 7.2811 53.5114C7.1251 53.6477 6.49174 53.5572 6.49174 53.5572L5.7523 52.9514L5.8797 52.8874ZM4.96606 54.3528C5.16286 54.0497 5.38131 53.7612 5.6197 53.4896C5.3935 53.7543 5.21878 54.1037 5.0997 54.3928C5.05706 54.3798 5.01286 54.3658 4.96866 54.3518L4.96606 54.3528ZM5.07942 54.4417C5.0142 54.6023 4.95727 54.7662 4.90886 54.9326H4.7643C4.72998 54.8135 4.8163 54.6128 4.94266 54.3986C4.9879 54.4126 5.0347 54.4277 5.08202 54.4407L5.07942 54.4417ZM5.55678 53.2977C5.13766 53.7293 4.74922 54.176 4.57866 54.8172L3.96194 54.878C4.0363 54.3055 4.8267 53.5146 5.55938 53.2998L5.55678 53.2977ZM8.4381 57.9637C7.54682 57.9086 5.95926 57.1083 4.91406 56.2804C4.89118 56.2622 4.86778 56.244 4.84542 56.2253C4.80018 56.1884 4.75598 56.152 4.71282 56.1151L4.64938 56.06C4.58629 56.0048 4.52666 55.9499 4.4705 55.8951C4.43306 55.8587 4.39666 55.8223 4.36234 55.7864C4.32802 55.7506 4.29422 55.7147 4.26302 55.6793C4.15008 55.5558 4.0528 55.4189 3.97338 55.2716C4.43046 55.4713 4.62494 55.8863 4.96814 56.1161C5.34202 56.3673 5.71122 56.6283 6.10122 56.8509C6.4777 57.0662 6.87706 57.2414 7.26966 57.4276C7.66226 57.6137 8.04966 57.7853 8.4381 57.9637ZM9.19626 55.4604V55.4219H9.60602L7.74338 55.2716C7.74338 55.2716 7.7751 55.1853 6.20626 55.6174C6.20626 55.6174 7.11938 55.1838 7.75222 55.2077C8.02314 55.2176 8.99242 55.2935 10.0127 55.3767C10.0127 55.4027 10.0163 55.4287 10.0189 55.4547L9.61174 55.4219V55.4604H9.19626ZM10.1884 60.7597C9.7823 60.4997 10.3517 60.0957 10.3517 60.0957C10.0855 60.4269 10.1697 60.6219 10.2025 60.6609C10.2352 60.6999 10.7916 61.0686 10.7916 61.0686C10.7916 61.0686 10.5966 61.0192 10.191 60.7592L10.1884 60.7597ZM10.438 62.4164L10.8623 62.4872C10.8015 62.587 10.7672 62.717 10.7063 62.7331C10.4937 62.7872 10.4141 62.6645 10.4406 62.4159L10.438 62.4164ZM11.998 62.5589C12.245 63.2651 11.2092 63.2869 11.2092 63.2869C11.8503 63.2349 11.8072 62.7409 11.9242 62.4508C12.0412 62.1606 11.608 61.7919 11.608 61.7919C12.1831 61.9838 12.0011 62.5584 12.0011 62.5584L11.998 62.5589ZM11.3912 62.8839C11.2482 63.3171 10.529 63.2349 10.529 63.2349C10.529 63.2349 11.3652 63.3171 11.3823 62.4638C11.3985 61.6754 10.7063 61.9068 10.5992 61.9469L10.5852 61.9521L10.5992 61.9469C11.6917 61.5012 11.5368 62.4518 11.3943 62.8834L11.3912 62.8839ZM11.1223 61.5096C11.1372 61.3626 11.152 61.2156 11.1665 61.0686L11.2466 61.0748L11.2045 61.5163L11.1223 61.5096ZM10.3189 59.8846L9.12294 59.6339L9.35694 58.6589L9.38294 58.5809L10.3839 58.7499L9.4443 58.6584L9.25606 59.5882L11.3881 59.9652L10.3189 59.8846ZM25.3272 60.0957V60.0926C25.2752 60.0811 24.7058 60.027 19.8937 59.7878C14.0983 59.4987 11.0329 58.4478 11.0329 58.4478C11.0329 58.4478 12.5123 58.6714 15.4243 59.2086C18.3363 59.7457 25.2981 59.9262 25.2981 59.9262L25.3298 60.092C25.3407 60.0946 25.3303 60.0952 25.3303 60.0952L25.3272 60.0957ZM13.116 55.7334C12.9948 55.7296 12.8745 55.7102 12.7583 55.6757L12.0303 55.6169C12.0303 55.6013 12.0303 55.5857 12.0303 55.5701V55.5446L12.5955 55.5925L13.2138 55.6174H14.3786C14.3786 55.632 14.3786 55.6466 14.3786 55.6606H14.2933L16.1003 55.7334H16.9427H16.9469C17.1731 55.75 17.3987 55.7719 17.6229 55.7807C18.1309 55.8 18.6389 55.8124 19.147 55.8275H19.1553H19.161C19.3898 55.8447 19.6191 55.8655 19.8485 55.8795L20.1417 55.8951L36.8223 56.5654C36.8201 56.5998 36.8065 56.6325 36.7837 56.6583C36.761 56.6842 36.7303 56.7018 36.6965 56.7084C36.6835 56.7084 36.4042 56.7022 35.9165 56.684C35.5665 56.6881 35.2171 56.6907 34.8681 56.6751C32.8675 56.5871 30.8669 56.4947 28.8663 56.398C22.0054 56.1125 13.1191 55.7329 13.1191 55.7329L13.116 55.7334ZM32.1652 63.2734C31.0368 63.3394 29.9292 63.1751 28.8205 62.9895C28.2766 62.898 27.7213 62.8491 27.1914 62.7061C26.8243 62.6004 26.4793 62.4295 26.1727 62.2017C25.6839 61.8444 25.6064 61.2834 25.5763 60.7181C25.5638 60.493 25.6491 60.2616 25.4931 60.0421C25.4411 59.9714 25.4998 59.8138 25.5274 59.701C25.7411 58.8206 26.233 58.2029 27.1467 57.9684C27.7519 57.8124 28.3427 57.7536 28.9776 57.8534C30.1985 58.0469 31.432 58.1654 32.6623 58.298C33.084 58.3438 33.4719 58.4358 33.7803 58.7686L33.5364 58.8914C33.4995 58.5934 33.2717 58.5409 33.0419 58.5045C32.3976 58.4005 31.7539 58.2965 31.107 58.2096C30.4107 58.1171 29.7087 58.0651 29.0145 57.9616C27.7618 57.7744 26.454 58.6262 26.1264 60.0484C26.0183 60.5164 26.1264 60.9896 26.3271 61.4165C26.4036 61.5787 26.6043 61.7014 26.7738 61.7976C27.476 62.1911 28.2381 62.4665 29.0296 62.613C30.0623 62.8142 31.1096 62.9448 32.1496 63.1034C32.2936 63.1257 32.4403 63.134 32.5853 63.1486L32.5885 63.2266C32.4501 63.2427 32.3097 63.2661 32.1683 63.2744L32.1652 63.2734ZM30.9843 61.182C30.8283 61.2574 30.7856 61.2943 30.7466 61.2927C29.7113 61.2506 28.6723 61.2407 27.6547 61.0088C27.524 60.9803 27.3963 60.9392 27.2735 60.8861C26.8087 60.6833 26.6781 60.3141 26.9049 59.8632C27.0234 59.6282 27.2283 59.5887 27.4332 59.7655C27.4814 59.8119 27.5258 59.8621 27.5658 59.9158C27.9085 60.3337 28.385 60.6205 28.9147 60.728C29.4523 60.8476 29.9921 60.961 30.5308 61.0774C30.6463 61.1029 30.7581 61.13 30.9874 61.183L30.9843 61.182ZM32.6238 59.7863C32.4013 60.9604 32.2146 62.1143 33.045 63.1663C32.2515 62.9936 32.0373 60.8918 32.6269 59.7873L32.6238 59.7863ZM34.7319 61.4711L33.3705 61.3967C33.1662 61.0187 33.3435 60.6687 33.5338 60.2413C33.747 60.4347 33.8978 60.6443 34.1058 60.7415C34.3034 60.8341 34.5556 60.8096 34.8479 60.8455C34.8167 61.0358 34.7761 61.2511 34.735 61.4721L34.7319 61.4711ZM35.2405 62.3904C34.865 61.4794 35.0392 60.7264 35.4724 59.9652C35.483 59.8922 35.49 59.8188 35.4932 59.7452C35.5103 59.4072 34.228 59.2772 33.7803 59.3464C33.3326 59.4155 33.1043 60.9438 33.1043 60.9438V61.9484C33.1698 62.1871 33.2941 62.5537 33.4683 62.7097C33.7413 62.95 33.6243 63.119 33.6243 63.119C33.6243 63.119 33.2811 62.6213 33.1043 62.159V62.2058C32.9519 61.7524 32.9093 61.3499 33.006 60.9417C33.0403 60.6297 33.3144 59.6235 33.4881 59.3297C33.6789 59.0084 34.9441 59.1737 35.3991 59.3999C35.7355 59.5668 35.619 59.8617 35.5358 60.0036C35.5551 60.2782 35.3205 60.4482 35.2758 60.6713C35.2238 60.9313 35.164 61.1913 35.1588 61.4513C35.151 61.73 35.2051 62.0088 35.2436 62.3915L35.2405 62.3904ZM37.7682 61.7248L35.5894 61.534C35.3959 61.3374 35.2436 61.0525 35.5135 60.6692L37.8212 61.2132C37.8041 61.4118 37.7879 61.5678 37.7713 61.7238L37.7682 61.7248ZM50.8155 65.0138C50.6449 65.2811 50.4354 65.3056 49.9747 65.0658C50.1234 65.0586 50.2076 65.0414 50.2867 65.0539C50.5025 65.0877 50.6507 65.0019 50.7157 64.8032C50.7477 64.7157 50.7501 64.6202 50.7225 64.5312C50.6948 64.4422 50.6387 64.3648 50.5628 64.3108C50.374 64.1652 50.2206 64.2588 50.0818 64.4044C50.0593 64.4283 50.0349 64.4504 50.009 64.4704C50.0036 64.4725 49.9977 64.4731 49.992 64.4723C49.9863 64.4715 49.9808 64.4692 49.9762 64.4658C49.9664 64.4523 49.9584 64.4376 49.9523 64.4221C50.1764 64.1054 50.3974 64.0238 50.6403 64.1678C50.8977 64.3191 50.9866 64.7512 50.8186 65.0149L50.8155 65.0138ZM50.3012 64.5646L50.5279 64.8162C50.2643 64.9202 50.2643 64.7575 50.3043 64.5656L50.3012 64.5646ZM98.5052 54.8603C98.512 54.8988 98.5182 54.9378 98.5245 54.9763L96.5407 55.2992C96.5355 55.2659 96.5297 55.2326 96.524 55.1999L98.5052 54.8603ZM94.9011 54.9784C93.832 55.3268 92.701 55.3819 91.5559 55.5608C91.7119 56.0511 92.169 56.0672 92.4155 56.3465C92.1763 56.3725 90.7354 55.8447 90.1577 55.5233L94.9011 54.9784ZM82.4861 50.0555H82.0701C82.0701 50.0555 90.6501 38.9566 91.3531 38.4398C91.4155 38.395 82.4871 50.0566 82.4871 50.0566L82.4861 50.0555ZM91.5944 37.7461L91.3921 37.9697L91.3531 37.9343L91.5554 37.7112L91.5944 37.7461ZM76.9403 52.3804C77.6376 51.9171 78.3209 51.4288 79.0437 51.0087C79.9672 50.472 80.6292 49.6744 81.2906 48.8767C81.787 48.2769 82.2897 47.6824 82.7986 47.0931L82.8153 47.0749C84.1501 45.5258 85.5239 44.0121 86.9524 42.5472C86.9815 42.5188 87.013 42.4929 87.0465 42.4698L87.4386 42.0428L87.8801 41.5041L87.9097 41.5301L88.0813 41.3434L88.0641 41.3278L88.7921 40.5265L88.8124 40.5494L89.503 39.7975L89.4926 39.7876L89.7755 39.5011L91.5304 37.5911C91.3873 37.8334 91.2271 38.0653 91.051 38.2848L91.0749 38.3087L90.8955 38.4845C88.8483 41.0647 83.1023 47.0931 83.1023 47.0931H83.0123C82.1502 48.1258 81.3222 49.1875 80.5283 50.2781C80.0884 50.8844 79.546 51.419 79.0317 51.9686C78.6501 52.3763 78.1774 52.5926 77.5986 52.5791C77.3012 52.5723 77.0022 52.6384 76.607 52.6831C76.7604 52.5416 76.8405 52.4465 76.9403 52.3804ZM72.7319 57.8332C72.6669 57.8722 71.1272 57.7864 71.1948 57.6922C71.1948 57.6922 71.368 55.7246 71.5848 55.4906C71.8017 55.2566 73.1537 55.4906 73.1537 55.4906C73.1619 55.6178 73.1411 55.7453 73.0928 55.8634C73.0195 56.0194 72.7943 57.5721 72.7663 57.7671C72.768 57.7804 72.7656 57.7939 72.7594 57.8057C72.7531 57.8175 72.7434 57.8271 72.7314 57.8332H72.7319ZM72.8276 57.9028C73.1089 57.9143 73.3908 57.9028 73.6752 57.9694C73.1162 58.0001 72.5557 58.0791 71.9998 58.0521C68.8543 57.9008 65.7078 57.724 62.5659 57.5555L53.1836 57.0532C52.7156 57.0282 52.2476 57.0188 51.7796 56.9793C51.5887 56.9632 43.6676 56.5696 43.4793 56.5202L51.2081 56.8431L52.0578 56.8873C54.6318 57.0183 57.2059 57.1492 59.7803 57.2799C62.6743 57.4244 65.5689 57.5674 68.4643 57.7089C69.9175 57.7792 71.3718 57.8439 72.8271 57.9028H72.8276ZM39.0453 55.8894L38.5513 56.0454C38.5513 56.0454 42.9417 49.3244 43.067 49.4804C43.1049 49.5277 39.0453 55.8894 39.0453 55.8894ZM40.0167 55.4011C40.0167 55.3756 40.0125 55.3491 40.0099 55.3247L40.5595 55.2846C40.5595 55.3143 40.5642 55.3434 40.5668 55.373L40.0167 55.4011ZM42.3567 65.5801C42.3863 65.4912 42.561 65.4501 42.7253 65.3555C42.6733 65.6337 42.6385 65.8146 42.6021 66.0065C42.4019 65.9238 42.2958 65.7678 42.3603 65.5801H42.3567ZM43.1273 65.9254C43.0259 66.2083 42.8221 66.2962 42.4991 66.2187C42.6551 66.1474 42.8283 66.1209 42.8959 66.0221C42.9771 65.8816 43.0134 65.7195 42.9999 65.5578C42.9843 65.2796 42.8371 65.2104 42.3239 65.1386C42.5704 64.98 42.8205 64.9722 43.0342 65.1823C43.2479 65.3924 43.224 65.6628 43.1294 65.9254H43.1273ZM43.3353 66.4314C43.3061 66.4351 43.2765 66.431 43.2495 66.4194C43.2775 66.4267 43.3063 66.4308 43.3353 66.4314C43.4471 66.4173 43.6197 66.2754 43.5355 65.4746C43.4403 64.5807 42.6577 64.7793 42.3327 64.9026C42.287 64.9218 42.2407 64.9421 42.1918 64.9639C42.2375 64.9407 42.2846 64.9202 42.3327 64.9026C43.3842 64.4569 43.5501 64.7076 43.6915 65.6306C43.8064 66.3586 43.4965 66.4366 43.3389 66.4314H43.3353ZM43.7149 64.2266C43.6629 64.5042 43.5698 64.4002 43.5698 64.4002V62.7794C43.5698 62.7794 43.7685 63.9494 43.7185 64.2266H43.7149ZM43.1538 61.7826H44.4507C44.4507 61.7826 44.5058 62.5022 44.5277 62.5454C44.5495 62.5886 44.3717 62.7794 44.3717 62.7794V61.9474L43.1538 61.7826ZM46.3737 64.965C46.4127 65.2322 46.0164 65.9712 46.2177 65.1007C46.4189 64.2302 45.3404 64.0924 45.3404 64.0924C46.3451 63.9494 46.3383 64.6972 46.3773 64.965H46.3737ZM44.7003 65.4283C44.888 65.525 45.0742 65.5193 45.1714 65.3196C45.2593 65.1386 45.2853 64.9343 45.0352 64.8329L45.0425 64.8448L45.0185 64.849C44.9889 64.953 45.0471 65.109 44.8501 65.1002C44.8353 65.0962 44.8218 65.0886 44.8109 65.0779C44.8 65.0672 44.792 65.054 44.7877 65.0393C44.7847 65.0183 44.7847 64.9969 44.7877 64.9759C44.8059 64.8594 44.9197 64.8641 45.0175 64.849C45.0195 64.8421 45.022 64.8353 45.0248 64.8287L45.0336 64.8324L44.8875 64.5932C45.3035 64.6972 45.4106 64.8012 45.4143 65.084C45.4174 65.3201 45.3259 65.5073 45.1075 65.6098C44.8891 65.7122 44.7138 65.63 44.4996 65.357L44.3753 64.8802L44.4762 64.8584C44.4946 65.0157 44.5119 65.1733 44.5282 65.331C44.5568 65.3472 44.5843 65.3643 44.6124 65.383C44.6405 65.4018 44.6722 65.4158 44.7003 65.4283ZM49.0324 60.8003C47.5764 60.2319 45.8032 59.1852 44.6805 58.4967L44.0513 58.3407L44.3483 58.2887C44.0004 58.0734 43.7477 57.9148 43.6353 57.8514C43.1741 57.5914 41.8153 55.4594 41.8153 54.8874C41.8153 54.7496 41.9516 54.3268 42.1559 53.7652C42.1964 53.6019 42.2467 53.4413 42.3067 53.2842C42.8143 51.9936 43.3493 50.7133 43.8787 49.431C43.8846 49.417 43.8921 49.4037 43.9011 49.3915L44.0305 49.0795C44.0486 48.9613 44.1014 48.8512 44.1824 48.7633C44.2157 48.7113 44.2614 48.6474 44.3186 48.5766C44.3311 48.4368 44.4226 48.3452 44.5927 48.3057C44.5927 48.3057 43.4216 50.914 42.6635 52.851C42.4685 53.3835 42.2927 53.9228 42.1034 54.4573C42.0915 54.4911 42.0811 54.5249 42.0722 54.5582C42.0577 54.6201 42.0467 54.6747 42.04 54.721C41.8892 55.787 44.64 58.2393 44.64 58.2393C44.64 58.2393 47.1261 59.8341 47.8021 60.012C48.4781 60.1898 50.0724 61.0254 50.0724 61.0254C50.0724 61.0254 51.1655 61.6349 49.0335 60.8029L49.0324 60.8003ZM51.8321 64.081L51.7739 64.0711L51.8706 63.5542L51.9548 63.574C51.9146 63.7449 51.874 63.9147 51.8331 64.0836L51.8321 64.081ZM52.3188 62.8397C51.9273 62.692 51.8628 62.6629 51.8602 62.4528C51.8565 62.1783 51.6818 61.8424 52.1342 61.6208C51.8633 62.0935 51.9075 62.4768 52.3199 62.8423L52.3188 62.8397ZM52.4956 64.4106C52.5274 64.4393 52.5622 64.4642 52.5996 64.485C52.6132 64.4928 52.6273 64.4997 52.6417 64.5058C52.6655 64.5161 52.6903 64.5241 52.7156 64.5297C52.7945 64.5465 52.8764 64.5431 52.9537 64.5198C52.9664 64.4893 52.9806 64.4594 52.9964 64.4304C53.3474 63.8584 53.2241 63.5937 52.5617 63.4902C52.8737 63.3982 53.0026 63.4117 53.1534 63.575C53.3136 63.7492 53.3749 63.9614 53.272 64.1766C53.2049 64.3155 53.078 64.4257 52.9782 64.549C52.5528 64.7226 52.4343 64.6675 52.2684 64.1272C52.3313 64.2324 52.408 64.3286 52.4967 64.4132L52.4956 64.4106ZM54.5756 60.481C54.468 60.8268 54.1508 60.885 53.8476 60.9053C53.4992 60.9292 53.1482 60.911 52.7608 60.911C52.844 60.6833 53.0104 60.7426 53.1357 60.7202C53.3302 60.6859 53.5398 60.6911 53.7192 60.6198C53.9911 60.5117 54.0541 60.298 53.8861 60.0577C53.732 59.8403 53.5547 59.6403 53.3573 59.4613C52.7619 58.9163 52.0749 58.5045 51.3563 58.1441C51.2154 58.0739 51.0781 57.9959 50.907 57.9044C51.219 57.6922 51.414 57.8654 51.609 57.9944C51.8129 58.1296 52.0006 58.2882 52.2018 58.428C52.8605 58.8846 53.5192 59.3394 54.1778 59.7925C54.1919 59.8014 54.2051 59.8115 54.2173 59.8227C54.4071 60.0078 54.6744 60.1638 54.5741 60.4836L54.5756 60.481ZM54.0223 59.4025L54.0821 59.323L54.3307 59.5351C54.3213 59.5507 54.312 59.5658 54.3031 59.5814L54.0223 59.4025ZM44.2188 57.4354C44.181 57.4302 44.1462 57.4121 44.1203 57.3841C44.0944 57.3561 44.079 57.32 44.0768 57.282L52.7364 57.6241H53.0702C53.07 57.6286 53.07 57.6331 53.0702 57.6376L55.2282 57.7229H55.379L55.3754 57.7286L73.007 58.426L74.5478 58.194L74.5691 58.179L74.6149 58.168L74.9404 57.9829C74.9534 58.0162 74.9669 58.049 74.9799 58.0817L74.6159 58.1686L74.5805 58.1894L74.5519 58.1935C74.4573 58.2606 74.3673 58.3599 74.2659 58.3729C74.0252 58.4031 73.7834 58.428 73.5411 58.4462L73.6451 58.4504C73.4093 58.5216 73.1631 58.5523 72.9171 58.5414L71.8672 58.5024C71.9245 58.5191 71.981 58.5388 72.0362 58.5617C71.9525 58.5617 71.8693 58.5648 71.7861 58.5617C69.7341 58.4707 67.6822 58.3828 65.6313 58.2824C65.5694 58.279 65.5078 58.2718 65.4467 58.2611C56.9749 57.9439 44.3139 57.4624 44.2172 57.438L44.2188 57.4354ZM92.6651 57.3038L92.0572 56.8192C92.0926 57.1468 92.1186 57.3912 92.1487 57.6756C92.2709 57.6194 92.3973 57.5612 92.5221 57.503C92.5273 57.5227 92.5502 57.5638 92.5398 57.5758C92.5174 57.6028 92.4945 57.6278 92.4711 57.6543C92.1279 58.0334 91.7291 58.2845 91.1758 58.1743L91.1633 58.18L91.1113 58.1894C90.9496 58.2627 90.7931 58.3604 90.6241 58.3927C87.4183 59.0032 84.2104 59.6017 81.0041 60.209C80.2314 60.3557 79.4654 60.5372 78.6917 60.677C78.4036 60.729 78.1025 60.7025 77.8077 60.7218C77.692 60.7364 77.5774 60.7583 77.4645 60.7873C75.2804 61.2137 73.1017 61.6619 70.9125 62.0556C69.9379 62.2278 68.9445 62.267 67.9594 62.172C67.0437 62.0878 66.1175 62.12 65.1971 62.0764C64.1441 62.0244 63.0927 61.9479 62.0402 61.8892C61.1562 61.8372 60.2722 61.7997 59.3778 61.7332L59.8292 61.7009L59.7101 61.5574C59.8063 61.5399 59.9036 61.5297 60.0013 61.5267C62.1099 61.6229 64.2185 61.7144 66.3261 61.8257C67.0619 61.8647 67.794 61.9614 68.5288 62.0186C69.7284 62.1122 70.9005 61.8814 72.0684 61.6656C74.1261 61.2849 76.165 60.7816 78.2346 60.4961C80.3921 60.2002 82.4653 59.5258 84.6217 59.2481C86.1979 59.0437 87.7641 58.7572 89.334 58.5019C89.9247 58.4057 90.5138 58.2939 91.102 58.1899L91.1488 58.168L91.1727 58.1722C91.2575 58.1327 91.3458 58.0973 91.4259 58.05C91.6989 57.8883 91.9194 57.6766 91.883 57.3319C91.8456 56.9772 91.7624 56.6184 91.3755 56.4749C90.5435 56.1671 89.7224 55.839 88.8764 55.5868C86.6404 54.9196 84.3092 54.7444 82.0306 54.294C79.6349 53.8214 77.2242 53.4256 74.8192 53.0044C73.613 52.7979 72.384 52.7596 71.1673 52.8906C70.9494 52.9129 70.7289 52.9088 70.5079 52.9129L70.3987 52.928C70.3987 52.9238 70.3987 52.9197 70.3945 52.9155C69.9858 52.8734 69.5771 52.8162 69.1673 52.7933C67.1279 52.6779 65.0874 52.5754 63.048 52.461C60.2892 52.3071 57.5309 52.1497 54.7732 51.9889C52.0155 51.828 49.2571 51.6706 46.4979 51.5167C45.5817 51.4647 44.666 51.3997 43.7503 51.2739C44.0716 51.2739 44.394 51.2604 44.7143 51.2739C46.5191 51.3619 48.3238 51.4534 50.1286 51.5484C51.7 51.6296 53.2715 51.7117 54.8429 51.7949C56.5807 51.8861 58.3186 51.978 60.0564 52.0705C61.4604 52.1454 62.8644 52.2239 64.2648 52.2972C65.6334 52.369 67.0021 52.435 68.3728 52.5052C68.8928 52.5318 69.4071 52.5671 69.9245 52.5983L69.9661 52.6014C70.1668 52.6212 70.33 52.694 70.3982 52.9088H70.4184H70.5084C71.1324 52.8261 71.7564 52.7169 72.3856 52.6753C73.4963 52.602 74.5889 52.7938 75.6788 52.9831C78.3498 53.447 81.0214 53.9103 83.6935 54.3731C85.0294 54.6029 86.3695 54.8094 87.7027 55.0491C88.0241 55.1073 88.3267 55.2742 88.6387 55.3772C88.8764 55.4547 89.1192 55.5186 89.3631 55.5738C90.3102 55.7922 91.2238 56.1364 92.0796 56.5971C92.3323 56.7406 92.6089 56.8826 92.6635 57.3064L92.6651 57.3038ZM75.0594 57.5326L75.3652 57.4047C75.373 57.4234 75.3808 57.4421 75.3881 57.4614L75.0834 57.5914C75.074 57.5742 75.0683 57.5544 75.0579 57.5352L75.0594 57.5326ZM79.1186 57.3886C80.0546 57.5706 81.0036 57.6938 81.9328 57.9034C82.8439 58.1082 83.7138 57.9777 84.6108 57.8113C85.9753 57.5591 87.3569 57.3953 88.7313 57.1951C88.7688 57.1919 88.805 57.1801 88.8372 57.1606C88.8694 57.1411 88.8967 57.1145 88.9169 57.0828C88.4916 57.0214 88.0678 56.9382 87.6398 56.9039C86.2041 56.788 84.7663 56.7006 83.3311 56.5784C82.7123 56.5264 82.1419 56.7406 81.5491 56.8264C81.4206 56.8452 81.2937 56.8727 81.1663 56.8961C81.1596 56.8644 81.1528 56.8332 81.1455 56.8015C81.7144 56.6746 82.2781 56.4994 82.8543 56.4375C83.3134 56.3855 83.7903 56.4682 84.2546 56.504C85.4569 56.5966 86.6596 56.6886 87.8603 56.7978C88.2929 56.8374 88.7214 56.9206 89.1504 56.9918C89.2232 57.0043 89.2893 57.0589 89.3584 57.193C89.2097 57.23 89.0636 57.2799 88.9128 57.3017C87.7532 57.4681 86.5905 57.6194 85.4319 57.7968C84.7876 57.895 84.1501 58.0417 83.5079 58.1509C83.2947 58.1941 83.0759 58.2027 82.86 58.1764C81.6702 57.9855 80.483 57.7791 79.2969 57.5674C79.0824 57.5269 78.8731 57.4624 78.6729 57.375C78.494 57.2996 78.2658 57.2274 78.2949 56.97C78.323 56.7204 78.5643 56.7048 78.7463 56.6335C78.7773 56.6207 78.8101 56.6123 78.8435 56.6086L81.9911 56.3865L82.002 56.4905C81.5761 56.5228 81.1507 56.5576 80.7254 56.5867C80.1737 56.6252 79.6209 56.647 79.0713 56.6996C78.8326 56.7224 78.5695 56.738 78.3885 56.9923C78.5632 57.2757 78.8513 57.3397 79.117 57.3912L79.1186 57.3886ZM82.3452 57.5674V57.5264H82.6182V57.5674H82.3452Z" fill="url(#paint5_radial_463_22462)"/>
<path d="M70.4037 52.9294L70.4006 52.9196H70.3975C70.3975 52.9237 70.3975 52.9278 70.4016 52.932L70.5108 52.917H70.4973L70.4037 52.9294Z" fill="url(#paint6_radial_463_22462)"/>
<path d="M22.3738 50.2954H22.3457L21.7217 50.3235L22.5688 50.3563C22.5058 50.3355 22.4429 50.3136 22.38 50.2959L22.3738 50.2954Z" fill="url(#paint7_radial_463_22462)"/>
<path d="M73.0631 55.5923C73.0418 55.5403 72.7719 55.5304 72.7719 55.5304C72.7719 55.5304 71.8473 55.3895 71.6559 55.5304C71.4646 55.6713 71.2529 57.6787 71.2529 57.6787L72.6013 57.7629C72.6274 57.7676 72.6539 57.7701 72.6804 57.7702L72.9524 56.0291C72.9524 56.0291 73.0839 55.6443 73.0631 55.5923ZM72.3642 56.6438C72.41 56.4426 72.5332 56.6438 72.5332 56.6438C72.5332 56.6438 72.3122 56.8747 72.3642 56.6438Z" fill="url(#paint8_radial_463_22462)"/>
<path d="M11.1505 55.47H11.7116V53.6265H11.7215C11.7589 53.3546 11.8863 52.3853 11.8431 52.1076C11.6871 52.041 11.5088 52.0613 11.3372 52.0597C11.2997 52.0597 11.2628 52.0597 11.2264 52.0545C11.0039 52.0504 10.5171 52.0795 10.4573 52.4055C10.3929 52.7576 10.1719 54.2947 10.2348 55.0867C10.2577 55.1939 10.2887 55.2993 10.3273 55.4019L11.1505 55.47ZM10.2717 54.8766L11.6513 54.9229C11.6597 54.967 11.6646 55.0117 11.6658 55.0566C11.2025 55.0399 10.7298 55.0212 10.2691 55.0009C10.2707 54.9593 10.2712 54.9182 10.2717 54.8766Z" fill="url(#paint9_radial_463_22462)"/>
<path d="M16.9409 55.7339H16.124L17.0715 55.7719L16.9467 55.7344L16.9409 55.7339Z" fill="url(#paint10_radial_463_22462)"/>
<path d="M91.1514 58.1724L91.1607 58.1817L91.1514 58.1724Z" fill="url(#paint11_radial_463_22462)"/>
<path d="M41.4814 50.7651L41.4991 50.749L41.4835 50.7615C41.4836 50.7627 41.4836 50.7639 41.4835 50.7651H41.4814Z" fill="url(#paint12_radial_463_22462)"/>
<path d="M70.4033 52.9292L70.409 52.9243L70.4033 52.9292Z" fill="url(#paint13_radial_463_22462)"/>
<path d="M89.3351 58.5044C87.7652 58.7597 86.1989 59.0462 84.6228 59.2506C82.4664 59.5298 80.3931 60.2042 78.2357 60.4986C76.1661 60.7825 74.1277 61.2874 72.0695 61.668C70.9016 61.8838 69.7295 62.1147 68.5299 62.0211C67.7951 61.9639 67.0629 61.8651 66.3271 61.8282C64.2196 61.7169 62.111 61.6254 60.0024 61.5292C59.9047 61.5322 59.8074 61.5424 59.7112 61.5599L59.8303 61.7034L59.3789 61.7356C60.2712 61.8001 61.1563 61.8396 62.0413 61.8916C63.0938 61.9504 64.1452 62.0294 65.1982 62.0788C66.1186 62.122 67.0447 62.0903 67.9605 62.1745C68.9456 62.2695 69.939 62.2303 70.9135 62.058C73.1022 61.6644 75.2815 61.2162 77.4655 60.7898C77.5785 60.7608 77.6931 60.7389 77.8087 60.7242C78.1031 60.705 78.4041 60.7315 78.6927 60.6795C79.4665 60.5396 80.2325 60.3582 81.0052 60.2115C84.2115 59.6042 87.4194 59.0056 90.6252 58.3952C90.7921 58.3634 90.9465 58.2672 91.1057 58.1929C90.5129 58.2974 89.9258 58.4082 89.3351 58.5044Z" fill="white"/>
<path d="M91.1113 58.1911L91.1633 58.1817L91.154 58.1724C91.1368 58.1781 91.1254 58.1843 91.1113 58.1911Z" fill="white"/>
<path d="M91.1503 58.1704L91.1035 58.1922H91.1103C91.1243 58.1855 91.1378 58.1792 91.1519 58.1735L91.1503 58.1704Z" fill="white"/>
<path d="M32.1522 63.1031C31.1122 62.9471 30.0654 62.814 29.0322 62.6127C28.2407 62.4663 27.4786 62.1908 26.7764 61.7974C26.6069 61.7012 26.4062 61.5785 26.3297 61.4162C26.1285 60.9893 26.0209 60.5177 26.129 60.0481C26.4566 58.6259 27.7644 57.7742 29.0171 57.9614C29.7113 58.0654 30.4133 58.1174 31.1096 58.2094C31.7565 58.2952 32.4002 58.4013 33.0445 58.5042C33.2744 58.5406 33.5021 58.5932 33.539 58.8911L33.7829 58.7684C33.4746 58.4356 33.0866 58.3436 32.6649 58.2978C31.4346 58.1647 30.2012 58.0467 28.9802 57.8532C28.3463 57.7534 27.7545 57.8132 27.1493 57.9681C26.2356 58.2027 25.7453 58.8204 25.53 59.7008C25.5024 59.8136 25.4452 59.9712 25.4957 60.0419C25.6517 60.2629 25.5664 60.4943 25.5789 60.7179C25.609 61.2831 25.6865 61.8442 26.1753 62.2014C26.4819 62.4293 26.8269 62.6001 27.194 62.7058C27.7239 62.8488 28.2792 62.8977 28.8231 62.9892C29.9302 63.1749 31.0394 63.3392 32.1678 63.2731C32.3092 63.2648 32.4496 63.2414 32.5906 63.2248L32.5874 63.1468C32.4429 63.1338 32.2962 63.1281 32.1522 63.1031Z" fill="white"/>
<path d="M69.9658 52.6079L69.9242 52.6048C69.4068 52.5736 68.8899 52.5382 68.3725 52.5117C67.0039 52.4405 65.6352 52.3744 64.2645 52.3037C62.8605 52.2304 61.4565 52.1519 60.0562 52.077C58.3183 51.9844 56.5805 51.8926 54.8426 51.8014C53.2712 51.7189 51.6998 51.6367 50.1283 51.5549C48.3232 51.462 46.5185 51.3705 44.7141 51.2804C44.3938 51.2648 44.0714 51.2804 43.75 51.2804C44.6657 51.4062 45.5814 51.4702 46.4977 51.5232C49.2561 51.683 52.0145 51.8404 54.773 51.9954C57.5314 52.1503 60.2896 52.3077 63.0477 52.4675C65.0872 52.5819 67.1276 52.6843 69.1671 52.7998C69.5753 52.8227 69.9814 52.8793 70.3932 52.9178C70.3288 52.7005 70.166 52.6271 69.9658 52.6079Z" fill="white"/>
<path d="M70.396 52.9147C70.3284 52.7 70.1646 52.6272 69.9639 52.6074C70.1667 52.6272 70.3294 52.7005 70.396 52.9147Z" fill="white"/>
<path d="M69.1689 52.7964C69.5787 52.8193 69.9874 52.8765 70.3962 52.9186C70.3959 52.9172 70.3959 52.9158 70.3962 52.9144C69.9833 52.8759 69.5771 52.8193 69.1689 52.7964Z" fill="white"/>
<path d="M70.4135 52.9209H70.3994L70.4025 52.9308L70.4083 52.9261L70.4135 52.9209Z" fill="white"/>
<path d="M70.3986 52.9155C70.3984 52.9168 70.3984 52.9182 70.3986 52.9195H70.4016L70.3986 52.9155Z" fill="white"/>
<path d="M92.0797 56.6062C91.2239 56.1455 90.3103 55.8014 89.3632 55.5829C89.1193 55.5278 88.8765 55.4638 88.6389 55.3863C88.3269 55.2823 88.0242 55.1165 87.7029 55.0582C86.3696 54.8159 85.0295 54.6095 83.6937 54.3822C81.0212 53.9226 78.3496 53.4592 75.6789 52.9923C74.5869 52.803 73.4949 52.6111 72.3857 52.6845C71.7617 52.7261 71.1419 52.8337 70.5205 52.9179C70.7368 52.9148 70.9547 52.9179 71.1695 52.8966C72.3862 52.7656 73.6152 52.8039 74.8214 53.0105C77.2264 53.4317 79.6371 53.8274 82.0328 54.3001C84.3114 54.7504 86.6431 54.9241 88.8786 55.5928C89.7246 55.845 90.5483 56.1731 91.3777 56.4809C91.7646 56.6244 91.8457 56.9832 91.8852 57.3379C91.9216 57.6826 91.7011 57.8943 91.4281 58.056C91.3481 58.1033 91.2597 58.1387 91.1749 58.1782C91.7277 58.2889 92.1265 58.0383 92.4692 57.6582C92.4926 57.6327 92.5155 57.6062 92.5378 57.5797C92.5482 57.5677 92.5253 57.5277 92.5201 57.5069C92.3953 57.5651 92.269 57.6234 92.1468 57.6795C92.1166 57.3956 92.0906 57.1507 92.0553 56.8231L92.6631 57.3077C92.6085 56.8829 92.3319 56.7409 92.0797 56.6062Z" fill="white"/>
<path d="M70.4142 52.9212L70.409 52.9249L70.4033 52.9296L70.4969 52.917H70.4163L70.4142 52.9212Z" fill="white"/>
<path d="M91.1514 58.1724L91.1607 58.1817L91.1732 58.176L91.1514 58.1724Z" fill="white"/>
<path d="M91.1514 58.1714L91.1732 58.175L91.1514 58.1714Z" fill="white"/>
<path d="M70.5107 52.9164C70.7317 52.9122 70.9522 52.9164 71.1701 52.894C70.9553 52.9164 70.7375 52.9122 70.5211 52.9154L70.5107 52.9164Z" fill="white"/>
<path d="M72.385 52.6816C71.7563 52.7233 71.1318 52.8326 70.5078 52.9153H70.5198C71.1412 52.832 71.761 52.7233 72.385 52.6816Z" fill="white"/>
<path d="M70.4134 52.9209L70.4082 52.9243L70.4134 52.9209Z" fill="white"/>
<path d="M86.9496 42.5472C85.5212 44.012 84.1473 45.5258 82.8125 47.0748L87.0437 42.4697C87.0102 42.4928 86.9787 42.5188 86.9496 42.5472Z" fill="white"/>
<path d="M79.0313 51.9689C79.5455 51.4192 80.0879 50.8846 80.5278 50.2783C81.3203 49.1863 82.1483 48.1246 83.0119 47.0933H82.7966C82.2884 47.6826 81.7857 48.2771 81.2886 48.8769C80.6272 49.6746 79.9652 50.4723 79.0417 51.0089C78.3189 51.4291 77.6377 51.9174 76.9383 52.3807C76.8389 52.4468 76.7589 52.5419 76.6055 52.6823C77.0007 52.6386 77.2997 52.5726 77.5971 52.5783C78.1769 52.5929 78.6496 52.3766 79.0313 51.9689Z" fill="white"/>
<path d="M79.0719 56.7012C79.6215 56.6492 80.1743 56.6268 80.726 56.5884C81.1514 56.5593 81.5767 56.5244 82.0026 56.4922L81.9917 56.3882L78.8441 56.6102C78.8107 56.6139 78.7779 56.6223 78.7469 56.6352C78.5649 56.7064 78.3236 56.722 78.2955 56.9716C78.2664 57.2316 78.4947 57.3012 78.6735 57.3766C78.8737 57.464 79.083 57.5285 79.2975 57.569C80.4837 57.7806 81.6708 57.985 82.8606 58.1779C83.0766 58.2042 83.2953 58.1956 83.5085 58.1524C84.1513 58.0432 84.7888 57.8966 85.4326 57.7983C86.5911 57.621 87.7539 57.4697 88.9135 57.3033C89.0643 57.2815 89.2104 57.2316 89.3591 57.1946C89.2874 57.0605 89.2213 57.0059 89.1511 56.9934C88.7221 56.9222 88.2936 56.8374 87.861 56.7995C86.6603 56.6903 85.4575 56.5982 84.2553 56.5057C83.7873 56.4698 83.3141 56.3892 82.8549 56.4391C82.2787 56.5015 81.7151 56.6768 81.1462 56.8031C81.1534 56.8348 81.1602 56.866 81.167 56.8977C81.2944 56.8743 81.4212 56.8457 81.5497 56.8281C82.1425 56.7423 82.7129 56.5275 83.3317 56.58C84.767 56.7022 86.2048 56.788 87.6405 56.9055C88.0685 56.9399 88.4923 57.0231 88.9176 57.0844C88.8974 57.1161 88.8701 57.1427 88.8379 57.1622C88.8057 57.1817 88.7695 57.1935 88.732 57.1967C87.3576 57.3979 85.976 57.5607 84.6115 57.8129C83.7145 57.9793 82.8435 58.1098 81.9335 57.9049C81.0042 57.6969 80.0552 57.5721 79.1192 57.3902C78.8535 57.3382 78.5654 57.2747 78.3912 56.9929C78.5716 56.7397 78.8347 56.7241 79.0719 56.7012Z" fill="white"/>
<path d="M59.7805 57.2802C57.2061 57.1512 54.6319 57.0204 52.0579 56.8876L51.2083 56.8434L43.4795 56.5205C43.6672 56.5725 51.5915 56.9635 51.7797 56.9796C52.2477 57.0192 52.7157 57.0285 53.1837 57.0535L62.5661 57.5558C65.7105 57.7242 68.8545 57.901 71.9999 58.0523C72.5558 58.0794 73.1164 58.0003 73.6754 57.9697C73.3909 57.9047 73.1091 57.9145 72.8278 57.9031C71.3718 57.8417 69.9158 57.7771 68.4598 57.7091C65.5668 57.5688 62.6737 57.4258 59.7805 57.2802Z" fill="white"/>
<path d="M32.8512 55.7994C30.1906 55.6868 27.5301 55.5769 24.8697 55.4698C22.5623 55.3737 20.2551 55.277 17.948 55.1796C17.6474 55.1671 17.3453 55.1796 17.0448 55.1666C16.545 55.1427 16.0453 55.1146 15.5456 55.085C15.6257 55.1141 15.3246 55.1442 15.2305 55.1526L37.0705 56.138C37.0736 56.1016 37.0773 56.0646 37.0804 56.0282C36.9764 56.0126 36.8724 55.9887 36.7653 55.9835C35.4611 55.9201 34.1564 55.8546 32.8512 55.7994Z" fill="white"/>
<path d="M7.90957 51.7954C8.29637 51.5285 8.74717 51.3692 9.21581 51.3337C9.4832 51.3152 9.74621 51.2561 9.99581 51.1585C11.1289 50.7025 12.3213 50.5501 13.5219 50.4633C14.5219 50.391 15.526 50.3806 16.5281 50.3385C16.696 50.3312 16.863 50.3031 17.0304 50.2865C17.0304 50.2865 16.813 50.2147 16.956 50.1742C16.9205 50.1669 16.8846 50.1622 16.8484 50.1601C15.3768 50.0988 13.9036 50.0754 12.4424 50.2849C11.5543 50.4123 10.6515 50.4841 9.80133 50.8236C9.43265 50.9708 9.03641 51.0503 8.65265 51.1585C8.23665 51.2755 7.84197 51.4247 7.62305 51.8407C7.66153 51.8703 7.67921 51.8927 7.68753 51.889C7.76501 51.8668 7.83955 51.8354 7.90957 51.7954Z" fill="white"/>
<path d="M27.5694 59.9169C27.5294 59.8632 27.485 59.813 27.4368 59.7666C27.2319 59.5898 27.027 59.6293 26.9085 59.8644C26.6817 60.3142 26.8123 60.6845 27.2771 60.8873C27.3999 60.9404 27.5276 60.9815 27.6583 61.01C28.6759 61.2399 29.7149 61.2518 30.7502 61.294C30.7892 61.294 30.8303 61.2586 30.9878 61.1832C30.7585 61.1312 30.6467 61.1031 30.5344 61.0792C29.9957 60.9627 29.4559 60.8493 28.9183 60.7297C28.3885 60.6221 27.9121 60.335 27.5694 59.9169Z" fill="white"/>
<path d="M41.7598 50.714C41.7795 50.6808 41.7982 50.648 41.818 50.6152C41.8045 50.6381 41.791 50.661 41.7774 50.6849L41.7598 50.714Z" fill="white"/>
<path d="M41.4321 50.9771C41.0276 51.5283 40.6185 52.0761 40.2049 52.6203C39.6875 53.2963 39.1737 53.9786 38.6381 54.6421C38.062 55.3561 37.4941 56.0799 36.8613 56.7444C36.4973 57.1261 36.0402 57.4256 35.5925 57.7122C35.2389 57.9378 34.8364 58.0871 34.4521 58.2717C34.4827 58.2862 34.5157 58.295 34.5494 58.2977C34.6317 58.2854 34.713 58.2664 34.7922 58.241C35.5816 57.981 36.3002 57.5816 36.8873 56.9987C37.4493 56.4501 37.9803 55.8706 38.478 55.263C39.2866 54.262 40.0499 53.2246 40.832 52.2022C41.1035 51.8476 41.325 51.4644 41.56 51.0582C40.8726 52.2236 41.6016 50.7982 41.6016 50.7982C41.6016 50.7982 41.6261 50.7551 41.6703 50.6797L41.663 50.6833L41.5834 50.7187L41.5486 50.7338L41.4966 50.7561C41.4763 50.8331 41.4763 50.9194 41.4321 50.9771Z" fill="white"/>
<path d="M41.4814 50.7651L41.497 50.7583L41.4814 50.7651Z" fill="white"/>
<path d="M41.4972 50.7584C41.4969 50.7553 41.4969 50.7521 41.4972 50.749L41.4795 50.7651L41.4972 50.7584Z" fill="white"/>
<path d="M22.5716 50.3562L27.0118 50.5278C25.8647 50.4758 24.7176 50.4176 23.571 50.3604C23.1753 50.3411 22.7796 50.3172 22.3828 50.2959C22.4447 50.3136 22.5087 50.3359 22.5716 50.3562Z" fill="white"/>
<path d="M27.8154 50.6507C29.6011 50.7263 31.3864 50.8027 33.1714 50.88C35.6295 50.9882 38.087 51.1047 40.545 51.2144C40.6462 51.2102 40.7468 51.1968 40.8456 51.1743C40.8177 51.1404 40.7823 51.1134 40.7423 51.0954C40.7023 51.0774 40.6586 51.0688 40.6147 51.0703C38.6921 50.9913 36.7695 50.913 34.8469 50.8353C33.4429 50.7781 32.0389 50.7157 30.6349 50.6611C29.8772 50.6315 29.1191 50.6091 28.3609 50.5815H28.427L27.8154 50.6507Z" fill="white"/>
<path d="M23.5706 50.3604C23.1743 50.3412 22.7781 50.3173 22.3818 50.2954C22.7791 50.3173 23.1748 50.3412 23.5706 50.3604Z" fill="white"/>
<path d="M35.593 61.5352L37.7718 61.726C37.7884 61.57 37.8045 61.4104 37.8238 61.2143L35.516 60.6704C35.2472 61.0537 35.3995 61.3386 35.593 61.5352Z" fill="white"/>
<path d="M54.2195 59.8255C54.2072 59.8143 54.194 59.8043 54.18 59.7954C53.5213 59.3409 52.8626 58.8861 52.204 58.4309C52.0027 58.291 51.815 58.1324 51.6112 57.9972C51.4162 57.8683 51.2186 57.6951 50.9092 57.9073C51.0803 57.9988 51.2175 58.0768 51.3585 58.147C52.0771 58.5073 52.7625 58.9192 53.3594 59.4641C53.5568 59.6432 53.7342 59.8432 53.8883 60.0606C54.0562 60.3008 53.9923 60.5145 53.7213 60.6227C53.5419 60.6939 53.3324 60.6887 53.1379 60.7231C53.0126 60.7454 52.8462 60.6861 52.763 60.9139C53.1504 60.9139 53.5014 60.9321 53.8498 60.9082C54.1509 60.8879 54.4681 60.8297 54.5778 60.4839C54.675 60.1641 54.4077 60.0081 54.2195 59.8255Z" fill="white"/>
<path d="M92.416 56.3477C92.1696 56.0684 91.714 56.0523 91.5565 55.5619C92.7005 55.383 93.8325 55.3279 94.9016 54.9795L90.1582 55.5245C90.7359 55.8479 92.1758 56.3737 92.416 56.3477Z" fill="white"/>
<path d="M34.87 56.6751C35.2189 56.6907 35.5684 56.6881 35.9183 56.6839C34.649 56.6366 31.9663 56.5279 28.8682 56.3979C30.8688 56.4947 32.8694 56.587 34.87 56.6751Z" fill="white"/>
<path d="M33.5365 60.2427C33.3462 60.6706 33.1689 61.0227 33.3733 61.3981L34.7346 61.4725C34.7757 61.2515 34.8162 61.0362 34.8516 60.8459C34.5593 60.811 34.3072 60.8355 34.1096 60.7419C33.9031 60.6457 33.7497 60.4361 33.5365 60.2427Z" fill="white"/>
<path d="M42.1074 54.4647C42.2967 53.9301 42.4714 53.3909 42.6674 52.8584C42.3871 53.575 42.1635 54.199 42.0762 54.5656C42.085 54.5323 42.0954 54.4985 42.1074 54.4647Z" fill="white"/>
<path d="M43.8819 49.4365C43.3526 50.7188 42.8175 51.9991 42.31 53.2897C42.25 53.4468 42.1996 53.6074 42.1592 53.7707C42.6386 52.4525 43.4992 50.3678 43.9043 49.397C43.8954 49.4092 43.8879 49.4225 43.8819 49.4365Z" fill="white"/>
<path d="M94.277 38.3011C94.2957 38.6167 94.1907 38.9397 94.1381 39.26L94.1901 39.2901L95.1261 37.5913H92.5459C92.5459 37.6194 92.5459 37.6475 92.5459 37.6756H93.9551C94.0737 37.894 94.2645 38.0921 94.277 38.3011Z" fill="white"/>
<path d="M6.10343 56.8507C5.71343 56.6282 5.34423 56.3671 4.97035 56.116C4.62715 55.8861 4.43267 55.4712 3.97559 55.2715C4.05501 55.4188 4.15229 55.5557 4.26523 55.6792C4.29643 55.7145 4.32971 55.7504 4.36455 55.7863C4.39939 55.8222 4.43527 55.8586 4.47271 55.895C4.52887 55.9494 4.58849 56.0043 4.65159 56.0598L4.71503 56.1149C4.75819 56.1518 4.80239 56.1882 4.84763 56.2252C4.86999 56.2439 4.89339 56.2621 4.91627 56.2803C5.96147 57.1081 7.54851 57.9079 8.44031 57.9635C8.05031 57.7852 7.66031 57.6104 7.27187 57.4274C6.88343 57.2444 6.47991 57.066 6.10343 56.8507Z" fill="white"/>
<path d="M7.27148 57.4272C7.65836 57.6103 8.05148 57.785 8.43992 57.9634C8.05044 57.785 7.65888 57.6103 7.27148 57.4272Z" fill="white"/>
<path d="M5.55871 53.2998C4.82603 53.5172 4.03355 54.3081 3.96387 54.8801L4.58059 54.8192C4.75115 54.1755 5.13959 53.7288 5.55871 53.2998Z" fill="white"/>
<path d="M65.6302 58.285C67.6811 58.3853 69.733 58.4732 71.785 58.5642C71.8682 58.5679 71.9514 58.5642 72.0351 58.5642C71.9799 58.5414 71.9235 58.5216 71.8661 58.5049L65.4482 58.2637C65.5084 58.2743 65.5692 58.2814 65.6302 58.285Z" fill="white"/>
<path d="M19.2562 55.8599L20.1433 55.8952L19.85 55.8796C19.6207 55.8672 19.3924 55.8464 19.1631 55.8276C19.1943 55.8386 19.2255 55.8479 19.2562 55.8599Z" fill="white"/>
<path d="M19.8495 55.8796C19.6202 55.8672 19.3909 55.8464 19.1621 55.8276C19.3919 55.8479 19.6202 55.8672 19.8495 55.8796Z" fill="white"/>
<path d="M32.6273 59.7876C32.0376 60.8942 32.2518 62.9939 33.0485 63.1676C32.2206 62.1156 32.4047 60.9618 32.6273 59.7876Z" fill="white"/>
<path d="M50.6431 64.1678C50.4002 64.0237 50.1792 64.1054 49.9551 64.422C49.9612 64.4376 49.9692 64.4522 49.979 64.4657C49.9836 64.4692 49.9891 64.4715 49.9948 64.4723C50.0005 64.4731 50.0063 64.4724 50.0118 64.4704C50.0377 64.4503 50.0621 64.4283 50.0846 64.4044C50.2234 64.2603 50.3768 64.1652 50.5656 64.3108C50.6415 64.3647 50.6977 64.4422 50.7253 64.5311C50.7529 64.6201 50.7505 64.7157 50.7185 64.8032C50.6545 65.0044 50.5053 65.0876 50.2895 65.0538C50.2099 65.0414 50.1256 65.0585 49.9774 65.0658C50.4382 65.306 50.6478 65.2816 50.8183 65.0138C50.9889 64.746 50.8968 64.3191 50.6431 64.1678Z" fill="white"/>
<path d="M11.7119 55.4698H11.1523L11.8439 55.5276C11.8008 55.174 11.7436 54.8666 11.7399 54.5598C11.7373 54.2952 11.7815 54.0305 11.8153 53.7658L11.7113 53.6987L11.7119 55.4698Z" fill="white"/>
<path d="M11.7119 53.6993L11.7218 53.6265H11.7119V53.6993Z" fill="white"/>
<path d="M10.5277 55.5111L10.6998 55.5475C11.0035 55.5996 11.3181 55.585 11.6566 55.5866L10.4502 55.4893C10.4762 55.4971 10.5017 55.5044 10.5277 55.5111Z" fill="white"/>
<path d="M42.3271 65.1387C42.8414 65.2105 42.9886 65.2797 43.0032 65.5579C43.0167 65.7196 42.9804 65.8817 42.8992 66.0222C42.8316 66.121 42.6574 66.1475 42.5024 66.2188C42.8253 66.2962 43.0292 66.2084 43.1306 65.9255C43.2252 65.6655 43.2569 65.3967 43.039 65.1824C42.8212 64.9682 42.5736 64.9801 42.3271 65.1387Z" fill="white"/>
<path d="M44.531 65.3313L44.518 65.3428L44.5029 65.3558C44.7172 65.6288 44.8966 65.7089 45.1108 65.6085C45.325 65.5081 45.4228 65.3188 45.4176 65.0827C45.414 64.8009 45.3074 64.6979 44.8908 64.5918C44.9491 64.6859 44.9948 64.7593 45.038 64.8315C45.2881 64.9356 45.2621 65.1373 45.1742 65.3183C45.077 65.518 44.8908 65.5237 44.7031 65.427C44.674 65.4124 44.6454 65.3958 44.6173 65.3797C44.5892 65.3636 44.5596 65.3474 44.531 65.3313Z" fill="white"/>
<path d="M44.5312 65.3311C44.5599 65.3472 44.5874 65.3643 44.6155 65.3831C44.5874 65.3664 44.5599 65.3493 44.5312 65.3311Z" fill="white"/>
<path d="M45.0424 64.844L45.0352 64.832C45.0378 64.8359 45.0402 64.8399 45.0424 64.844Z" fill="white"/>
<path d="M45.0264 64.8291L45.042 64.8437C45.0399 64.8399 45.0376 64.8363 45.0352 64.8327L45.0264 64.8291Z" fill="white"/>
<path d="M89.4873 39.788L89.4977 39.7979L89.7702 39.5015L89.4873 39.788Z" fill="white"/>
<path d="M91.0705 38.3091L91.0466 38.2852C90.9977 38.3491 90.9426 38.4162 90.8906 38.4848L91.0705 38.3091Z" fill="white"/>
<path d="M35.5324 60.0032C35.5169 60.0313 35.4995 60.0584 35.4804 60.0843L35.4284 60.1363C35.4284 60.1363 35.4555 60.1088 35.4768 59.9668C35.0437 60.7265 34.8695 61.481 35.2449 62.3921C35.2064 62.0094 35.1523 61.7306 35.1575 61.453C35.1627 61.193 35.2225 60.9298 35.2745 60.673C35.3172 60.4478 35.5517 60.2778 35.5324 60.0032Z" fill="white"/>
<path d="M6.93077 52.3089L6.83249 52.2158L6.06445 52.8716L6.47317 53.089L6.93077 52.3089Z" fill="white"/>
<path d="M36.2202 51.5438H38.6029C38.6029 51.5287 38.6029 51.5131 38.6065 51.498H36.2197C36.2202 51.5131 36.2202 51.5287 36.2202 51.5438Z" fill="white"/>
<path d="M98.5258 54.9773C98.5196 54.9388 98.5134 54.8998 98.5066 54.8613L96.5254 55.2009C96.5311 55.2337 96.5368 55.2669 96.542 55.3002L98.5258 54.9773Z" fill="white"/>
<path d="M22.8813 50.7891H20.832V50.8312H22.8663C22.8725 50.8171 22.8767 50.8041 22.8813 50.7891Z" fill="white"/>
<path d="M20.9941 50.2954L21.7221 50.3235L22.3461 50.2954H20.9941Z" fill="white"/>
<path d="M74.2637 58.3762C74.3646 58.3632 74.454 58.2649 74.5476 58.1968L73.0068 58.4287L73.5388 58.4495C73.7811 58.4313 74.0229 58.4063 74.2637 58.3762Z" fill="white"/>
<path d="M74.5783 58.1928L74.5715 58.1855C74.5648 58.1897 74.5585 58.1949 74.5518 58.1996L74.5783 58.1928Z" fill="white"/>
<path d="M74.5701 58.1826L74.5488 58.1977C74.5571 58.192 74.5634 58.1878 74.5701 58.1826Z" fill="white"/>
<path d="M17.071 55.7723L18.9773 55.8488C19.034 55.8425 19.0912 55.8357 19.1478 55.8285C18.6398 55.8134 18.1318 55.8009 17.6242 55.7817C17.398 55.7728 17.1724 55.751 16.9482 55.7349L17.071 55.7723Z" fill="white"/>
<path d="M17.6242 55.7812C17.398 55.7724 17.1724 55.7505 16.9482 55.7339C17.1724 55.7505 17.3996 55.7724 17.6242 55.7812Z" fill="white"/>
<path d="M19.1481 55.8281C18.6401 55.813 18.1321 55.8005 17.624 55.7812C18.1315 55.8005 18.6396 55.813 19.1476 55.8281H19.1481Z" fill="white"/>
<path d="M52.9707 64.5424L52.9791 64.5517C53.0789 64.4285 53.2058 64.3182 53.2729 64.1794C53.3769 63.9641 53.3145 63.752 53.1543 63.5778C53.0035 63.4145 52.8761 63.4009 52.5625 63.493C53.225 63.597 53.3483 63.8632 52.9973 64.4332C52.9815 64.4622 52.9672 64.4921 52.9546 64.5226L52.964 64.534L52.9707 64.5424Z" fill="white"/>
<path d="M52.9966 64.4331C52.9809 64.4621 52.9667 64.492 52.9541 64.5225C52.9667 64.492 52.9809 64.4621 52.9966 64.4331Z" fill="white"/>
<path d="M15.5587 50.7036H13.9873C13.9873 50.7093 13.9873 50.7145 13.9873 50.7203H15.5587V50.7036Z" fill="white"/>
<path d="M14.3447 55.0054H14.0254C14.1346 55.009 14.2391 55.0126 14.3374 55.0168C14.3405 55.0126 14.3421 55.009 14.3447 55.0054Z" fill="white"/>
<path d="M14.3796 55.6603C14.3796 55.6463 14.3796 55.6317 14.3796 55.6172H13.2148L14.2938 55.6603H14.3796Z" fill="white"/>
<path d="M11.0383 59.8845C11.1299 59.5803 11.2219 59.2766 11.3269 58.9277L10.8121 58.7847C10.8064 58.807 10.8002 58.8289 10.7939 58.8512L11.1496 59.0452L10.9416 59.8564L11.0383 59.8845Z" fill="white"/>
<path d="M51.8604 62.4555C51.8604 62.6635 51.9275 62.6947 52.319 62.8424C51.9067 62.4784 51.8625 62.0936 52.1344 61.6235C51.682 61.8451 51.8568 62.181 51.8604 62.4555Z" fill="white"/>
<path d="M11.2266 52.0547C11.263 52.0583 11.2999 52.0594 11.3373 52.0599C11.3373 52.0599 11.2936 52.0557 11.2266 52.0547Z" fill="white"/>
<path d="M11.3388 52.0599C11.5104 52.0599 11.6913 52.0412 11.8447 52.1077C11.8447 52.1077 11.9295 51.9954 12.0527 52.1681C12.075 52.219 12.0836 52.2749 12.0777 52.3303C12.0839 52.3417 12.0902 52.3532 12.0959 52.3651C12.1593 52.0979 12.034 51.9892 11.8203 51.9783C11.541 51.9637 11.2608 51.9746 10.9883 51.9746C11.0049 51.9746 11.0223 51.9746 11.0403 51.9746C11.6097 51.9715 11.3388 52.0599 11.3388 52.0599Z" fill="white"/>
<path d="M29.5879 51.1899C29.5879 51.2045 29.5879 51.2185 29.5879 51.2331H31.0273L31.0475 51.1899H29.5879Z" fill="white"/>
<path d="M33.0002 61.0117C32.9989 60.9879 32.9999 60.964 33.0033 60.9404C32.9066 61.3486 32.9513 61.7511 33.1016 62.2045V62.1577C33.0267 61.9648 32.9799 61.7776 32.9976 61.6377C33.0631 61.1567 33.0459 61.7282 33.0459 61.7282C33.0459 61.7282 33.0641 61.8197 33.098 61.9492V60.9441C33.098 60.9441 33.0173 61.1937 33.0002 61.0117Z" fill="white"/>
<path d="M10.2363 55.0874C10.242 55.193 10.2594 55.2977 10.2883 55.3994L10.3278 55.4025C10.2896 55.2999 10.259 55.1946 10.2363 55.0874Z" fill="white"/>
<path d="M10.1786 55.3898C10.1549 55.3391 10.1435 55.2835 10.1453 55.2275C10.1417 55.2848 10.1508 55.3421 10.1718 55.3955C10.1716 55.3934 10.1716 55.3913 10.1718 55.3893L10.1786 55.3898Z" fill="white"/>
<path d="M10.1452 55.2276C10.1452 55.0628 10.1676 54.6406 10.1925 54.1772C10.1539 54.526 10.1381 54.8769 10.1452 55.2276Z" fill="white"/>
<path d="M10.3289 55.402C10.2902 55.2995 10.2593 55.1941 10.2363 55.0869C10.2592 55.1939 10.2899 55.2991 10.3284 55.4015L10.3289 55.402Z" fill="white"/>
<path d="M53.0682 57.627H52.7344L53.0703 57.6405C53.0693 57.636 53.0687 57.6315 53.0682 57.627Z" fill="white"/>
<path d="M55.3793 57.7256H55.2285L55.3757 57.7313L55.3793 57.7256Z" fill="white"/>
<path d="M44.0518 58.3438L44.681 58.4998C44.5624 58.4275 44.4516 58.3589 44.3487 58.2949L44.0518 58.3438Z" fill="white"/>
<path d="M27.1709 51.0903V51.1325H28.4267V51.0903H27.1709Z" fill="white"/>
<path d="M42.7276 65.3555C42.5633 65.4501 42.3885 65.4912 42.3589 65.5801C42.296 65.7678 42.4021 65.9238 42.6043 66.0065C42.6408 65.8146 42.6751 65.6337 42.7276 65.3555Z" fill="white"/>
<path d="M87.877 41.5044L87.4355 42.0431L87.9067 41.5304L87.877 41.5044Z" fill="white"/>
<path d="M88.7876 40.5269L88.0596 41.3282L88.0767 41.3438L88.8047 40.5497L88.7876 40.5269Z" fill="white"/>
<path d="M23.8701 50.8862L23.8623 50.9289H24.8139C24.8139 50.9148 24.8139 50.9003 24.8139 50.8862H23.8701Z" fill="white"/>
<path d="M19.6984 50.2385C19.6984 50.2224 19.6984 50.2058 19.6984 50.1865H18.634C18.6337 50.1914 18.6337 50.1962 18.634 50.2011L19.5326 50.2359L19.6984 50.2385Z" fill="white"/>
<path d="M20.1934 50.6924H19.2402V50.7288H20.1934V50.6924Z" fill="white"/>
<path d="M26.4102 50.9854H25.6729L25.677 51.0275H26.4107C26.4102 51.0119 26.4102 50.9994 26.4102 50.9854Z" fill="white"/>
<path d="M52.9792 64.5516L52.9709 64.5422L52.9642 64.5339L52.9548 64.5225C52.8775 64.5457 52.7956 64.5491 52.7167 64.5323C52.6914 64.5267 52.6666 64.5187 52.6428 64.5084C52.6284 64.5023 52.6143 64.4954 52.6007 64.4876C52.5634 64.4669 52.5285 64.4419 52.4967 64.4133C52.4087 64.3294 52.3323 64.2341 52.2695 64.1299C52.4354 64.6701 52.5524 64.7253 52.9792 64.5516Z" fill="white"/>
<path d="M52.954 64.5225C52.8767 64.5456 52.7948 64.549 52.7158 64.5323C52.7948 64.549 52.8767 64.5456 52.954 64.5225Z" fill="white"/>
<path d="M52.6006 64.4878C52.6142 64.4956 52.6282 64.5025 52.6426 64.5086C52.6282 64.5025 52.6142 64.4956 52.6006 64.4878Z" fill="white"/>
<path d="M52.9708 64.5425L52.9639 64.5342L52.9708 64.5425Z" fill="white"/>
<path d="M10.706 62.7327C10.7695 62.7166 10.8038 62.5866 10.862 62.4867L10.4377 62.416C10.4138 62.6646 10.4933 62.7873 10.706 62.7327Z" fill="white"/>
<path d="M40.0098 55.3247C40.0124 55.3502 40.0144 55.3767 40.0165 55.4011L40.5667 55.3731C40.5667 55.3434 40.562 55.3143 40.5594 55.2847L40.0098 55.3247Z" fill="white"/>
<path d="M51.7744 64.074L51.8327 64.0839C51.8732 63.9151 51.9141 63.7461 51.9554 63.5769L51.8711 63.5571L51.7744 64.074Z" fill="white"/>
<path d="M6.56731 53.4686C6.56744 53.4674 6.56744 53.4662 6.56731 53.465L6.56055 53.4624L6.56783 53.4686H6.56731Z" fill="white"/>
<path d="M91.3935 37.9708L91.5958 37.7472L91.5568 37.7124L91.3545 37.9355L91.3935 37.9708Z" fill="white"/>
<path d="M11.1692 61.0684C11.1546 61.215 11.1399 61.362 11.125 61.5093L11.2072 61.5161L11.2493 61.0746L11.1692 61.0684Z" fill="white"/>
<path d="M13.1888 50.7686L12.7754 50.7878V50.8481L13.2044 50.8289C13.2028 50.8091 13.1966 50.7888 13.1888 50.7686Z" fill="white"/>
<path d="M44.186 48.771C44.1051 48.8589 44.0522 48.969 44.0342 49.0872L44.1273 48.8667C44.1273 48.8667 44.1481 48.8282 44.186 48.771Z" fill="white"/>
<path d="M9.61424 55.4214H9.19824V55.4599H9.61424V55.4214Z" fill="white"/>
<path d="M44.5953 48.313C44.4248 48.3525 44.3353 48.444 44.3213 48.5839C44.4019 48.4833 44.4938 48.3924 44.5953 48.313Z" fill="white"/>
<path d="M74.9417 57.9863L74.6162 58.1714L74.9802 58.0851C74.9683 58.0524 74.9547 58.0196 74.9417 57.9863Z" fill="white"/>
<path d="M74.5791 58.1927L74.6145 58.1719L74.5703 58.1828C74.5703 58.1828 74.5745 58.1875 74.5771 58.1901L74.5791 58.1927Z" fill="white"/>
<path d="M74.6151 58.1719L74.5693 58.1828L74.6151 58.1719Z" fill="white"/>
<path d="M54.3289 59.5398L54.0803 59.3276L54.0205 59.4072L54.3013 59.5861C54.3102 59.5684 54.32 59.5533 54.3289 59.5398Z" fill="white"/>
<path d="M50.5301 64.8177L50.3034 64.5659C50.2634 64.7579 50.2634 64.9207 50.5301 64.8177Z" fill="white"/>
<path d="M44.5298 65.333C44.5122 65.1753 44.4948 65.0177 44.4778 64.8604L44.377 64.8822L44.5012 65.359L44.5163 65.346L44.5298 65.333Z" fill="white"/>
<path d="M44.5305 65.3311C44.5128 65.1733 44.4955 65.0158 44.4785 64.8584C44.4969 65.0158 44.5142 65.1733 44.5305 65.3311Z" fill="white"/>
<path d="M44.501 65.3572L44.5161 65.3442L44.501 65.3572Z" fill="white"/>
<path d="M44.7883 64.9759C44.7854 64.997 44.7854 65.0183 44.7883 65.0393C44.7926 65.054 44.8006 65.0672 44.8116 65.0779C44.8225 65.0885 44.836 65.0962 44.8507 65.1001C45.0478 65.1105 44.9896 64.951 45.0192 64.8491C44.9199 64.8642 44.8065 64.8595 44.7883 64.9759Z" fill="white"/>
<path d="M45.0258 64.8291C45.023 64.8357 45.0206 64.8425 45.0186 64.8494C45.0264 64.8494 45.0347 64.8494 45.0425 64.8447L45.0258 64.8291Z" fill="white"/>
<path d="M45.0186 64.8494L45.0425 64.8452C45.0347 64.8468 45.0264 64.8478 45.0186 64.8494Z" fill="white"/>
<path d="M75.3634 57.4082L75.0576 57.5361C75.0654 57.5554 75.0737 57.5751 75.0815 57.5949L75.3863 57.4649C75.38 57.4451 75.3712 57.4264 75.3634 57.4082Z" fill="white"/>
<path d="M82.3428 57.5293V57.5704H82.6158V57.5293H82.3428Z" fill="white"/>
<path d="M18.3281 55.9001C18.5439 55.8918 18.7602 55.8721 18.9771 55.8481C18.7602 55.8731 18.5434 55.8929 18.3281 55.9001Z" fill="white"/>
<path d="M17.9053 55.8999C18.0439 55.9053 18.1816 55.9053 18.3182 55.8999C18.1802 55.9056 18.0426 55.9056 17.9053 55.8999Z" fill="white"/>
<path d="M25.6325 56.1373L25.6736 56.129L25.7204 56.1394C25.9684 56.1524 26.2164 56.167 26.4645 56.1774C28.2866 56.2536 30.1086 56.3297 31.9307 56.4057C33.369 56.4681 34.8077 56.5336 36.2467 56.6022C36.3537 56.6042 36.4588 56.6305 36.554 56.6792C36.3424 56.6792 36.1308 56.6823 35.9191 56.6844C36.4058 56.7026 36.6851 56.7114 36.6991 56.7088C36.7329 56.7023 36.7636 56.6847 36.7864 56.6588C36.8092 56.6329 36.8227 56.6002 36.825 56.5658L20.1465 55.8955C21.317 55.9584 22.4865 56.0229 23.658 56.0775C24.3127 56.1082 24.9721 56.1196 25.6325 56.1373Z" fill="white"/>
<path d="M25.6685 56.1362L25.6763 56.1289L25.6669 56.1383H25.6352H25.6279H25.6648L25.7423 56.1419L25.7231 56.1377L25.6685 56.1362Z" fill="white"/>
<path d="M26.4373 56.2794C26.2027 56.2675 25.9719 56.1952 25.7394 56.1432L25.6619 56.1395H25.625C25.4955 56.1681 25.365 56.2113 25.2381 56.2061C23.8341 56.1484 22.4301 56.0787 21.0261 56.0153C20.5581 55.9945 20.0901 55.9908 19.6221 55.9591C19.4971 55.9423 19.3747 55.9092 19.2581 55.8608L18.9794 55.8494C18.7626 55.8738 18.5463 55.8936 18.3305 55.9014H18.3206C18.1819 55.9066 18.0443 55.9066 17.9077 55.9014C17.6255 55.8907 17.3455 55.8476 17.0731 55.7729L16.1257 55.735H15.0077H16.0997L14.2927 55.6622H12.8008C12.8008 55.6565 12.8008 55.6507 12.7971 55.645L12.7607 55.6773C12.877 55.7118 12.9973 55.7312 13.1185 55.735C13.1185 55.735 22.0048 56.1146 28.8667 56.4001C28.0565 56.3598 27.2467 56.3196 26.4373 56.2794Z" fill="white"/>
<path d="M12.827 55.6172H13.2159L12.5977 55.5923L12.8327 55.6126L12.827 55.6172Z" fill="white"/>
<path d="M36.2455 56.6022C34.8075 56.5353 33.3688 56.4698 31.9294 56.4056C30.1073 56.3269 28.2853 56.2508 26.4632 56.1773C26.2224 56.1675 25.9816 56.1534 25.7383 56.1436C25.9707 56.1956 26.2016 56.2678 26.4361 56.2798C27.2456 56.3197 28.0554 56.3592 28.8656 56.3983C31.9627 56.5273 34.6464 56.637 35.9158 56.6843C36.1274 56.6843 36.3391 56.6791 36.5507 56.6791C36.4561 56.6308 36.3517 56.6045 36.2455 56.6022Z" fill="white"/>
<path d="M25.7197 56.1392L25.739 56.1433C25.9823 56.1532 26.2231 56.1672 26.4638 56.1771C26.2163 56.1667 25.9683 56.1522 25.7197 56.1392Z" fill="white"/>
<path d="M25.7196 56.1393L25.6728 56.1289L25.665 56.1362L25.7196 56.1393Z" fill="white"/>
<path d="M19.62 55.9581C20.088 55.9898 20.556 55.9935 21.024 56.0143C22.428 56.0777 23.832 56.1474 25.236 56.2051C25.3639 56.2103 25.4934 56.1671 25.6229 56.1385C24.9661 56.1193 24.3088 56.1084 23.6526 56.0772C22.4815 56.0226 21.3126 55.9581 20.141 55.8952L19.2539 55.8599C19.3711 55.9084 19.4942 55.9415 19.62 55.9581Z" fill="white"/>
<path d="M23.6553 56.0771C24.3115 56.1083 24.9688 56.1193 25.6256 56.1385H25.6328C24.9724 56.1193 24.3131 56.1078 23.6553 56.0771Z" fill="white"/>
<path d="M25.6729 56.1289L25.6318 56.1372H25.6636L25.6729 56.1289Z" fill="white"/>
<path d="M17.0723 55.772C17.3446 55.8466 17.6247 55.8896 17.9069 55.9003C18.0455 55.9058 18.1832 55.9058 18.3197 55.9003H18.3296C18.5454 55.892 18.7617 55.8722 18.9786 55.8483L17.0723 55.772Z" fill="white"/>
<path d="M12.7969 55.6432C12.7969 55.6489 12.7969 55.6546 12.8005 55.6603H14.2945L13.2155 55.6172H12.8265L12.7969 55.6432Z" fill="white"/>
<path d="M64.923 58.1443H62.8799H64.9147H64.9219C65.2998 58.1651 65.678 58.1855 66.0566 58.2056C67.238 58.2659 68.4195 58.332 69.6014 58.384C70.1349 58.4074 70.67 58.3975 71.2041 58.4131C71.4277 58.4146 71.6501 58.4459 71.8655 58.5062L72.9154 58.5452C73.1614 58.5561 73.4076 58.5254 73.6434 58.4542L73.5394 58.45C73.2414 58.4729 72.9424 58.4854 72.6429 58.4838L73.0069 58.4318L55.3753 57.7345C55.368 57.7475 55.3602 57.7605 55.3529 57.774H54.0186V57.7288H55.2281L53.0701 57.6435L53.0748 57.6742H51.7295V57.63H52.7347L44.0762 57.2847C44.0784 57.3227 44.0937 57.3589 44.1196 57.3868C44.1455 57.4148 44.1803 57.4329 44.2181 57.4381C44.3149 57.4625 56.9758 57.944 65.4466 58.2639C65.2709 58.2337 65.0972 58.1807 64.923 58.1443ZM57.695 57.8686H56.2182V57.8239H57.6955L57.695 57.8686ZM60.0142 57.9664H58.4401V57.9347H60.0152C60.0152 57.9451 60.0147 57.9555 60.0142 57.9664ZM62.3063 58.0751H60.6642V58.0262H62.3069L62.3063 58.0751Z" fill="white"/>
<path d="M69.6008 58.3837C68.4189 58.3317 67.2374 58.2657 66.056 58.2054L64.9219 58.1445C65.0961 58.1809 65.2698 58.234 65.4419 58.2641L71.8623 58.5059C71.647 58.4456 71.4245 58.4143 71.2009 58.4128C70.6694 58.3962 70.1344 58.4071 69.6008 58.3837Z" fill="white"/>
<path d="M64.9229 58.1436L66.057 58.2044C65.6788 58.185 65.3007 58.1647 64.9229 58.1436Z" fill="white"/>
<path d="M73.5385 58.4481L73.0066 58.4272L72.6426 58.4793C72.9416 58.4851 73.2406 58.4726 73.5385 58.4481Z" fill="white"/>
<path d="M60.6641 58.0752H62.3078V58.0264H60.6641V58.0752Z" fill="white"/>
<path d="M58.4395 57.9663H60.0136C60.0136 57.9554 60.0136 57.945 60.0136 57.9346H58.4385L58.4395 57.9663Z" fill="white"/>
<path d="M56.2178 57.8689H57.6946V57.8242H56.2178V57.8689Z" fill="white"/>
<path d="M51.7295 57.6712H53.0753L53.0707 57.6405L52.7347 57.627H51.7295V57.6712Z" fill="white"/>
<path d="M54.0186 57.7718H55.3529C55.3602 57.7583 55.368 57.7453 55.3752 57.7323L55.2281 57.7266H54.0186V57.7718Z" fill="white"/>
<path d="M72.7405 57.7517C72.7348 57.7673 72.7083 57.772 72.6797 57.772V57.7777L72.7634 57.7876V57.7673C72.7618 57.746 72.7473 57.733 72.7405 57.7517Z" fill="white"/>
<path d="M73.1534 55.4907C73.1534 55.4907 71.8014 55.2567 71.5845 55.4907C71.3677 55.7247 71.1945 57.6924 71.1945 57.6924C71.1269 57.7865 72.6667 57.8723 72.7317 57.8333C72.7435 57.8272 72.7532 57.8176 72.7593 57.8057C72.7655 57.7939 72.7678 57.7805 72.766 57.7673V57.7876L72.6823 57.7777V57.772C72.6558 57.7718 72.6293 57.7694 72.6032 57.7647L71.2549 57.6804C71.2549 57.6804 71.466 55.6753 71.6579 55.5323C71.8497 55.3893 72.7738 55.5323 72.7738 55.5323C72.7738 55.5323 73.0437 55.5422 73.065 55.5942C73.0863 55.6462 72.9542 56.0331 72.9542 56.0331L72.6823 57.774C72.7109 57.774 72.7374 57.7694 72.7431 57.7538C72.7488 57.7382 72.7644 57.748 72.7675 57.7693C72.7956 57.5744 73.0208 56.0201 73.0941 55.8656C73.1422 55.7468 73.1625 55.6186 73.1534 55.4907Z" fill="white"/>
<path d="M87.1766 42.4322C86.9894 42.6449 86.8058 42.8612 86.6197 43.0754C86.4335 43.2897 86.2458 43.5018 86.0477 43.7057C84.9948 44.8022 83.9819 45.932 83.0088 47.095H83.0987C83.0987 47.095 88.8468 41.0651 90.8899 38.4849L89.5228 39.8228L89.4968 39.7979L88.8063 40.5498L88.8624 40.6117L88.1417 41.4021L88.0767 41.3438L87.9051 41.5305L87.981 41.5981L87.1766 42.4322Z" fill="white"/>
<path d="M91.047 38.285C91.2232 38.0655 91.3834 37.8336 91.5265 37.5913L89.7715 39.5013L91.0101 38.2481L91.047 38.285Z" fill="white"/>
<path d="M87.436 42.043L87.0439 42.4699C87.0777 42.446 87.1121 42.4231 87.1448 42.3981C87.2405 42.2803 87.3376 42.1619 87.436 42.043Z" fill="white"/>
<path d="M82.7949 47.0934L82.8105 47.0752L82.7949 47.0934Z" fill="white"/>
<path d="M86.0509 43.7042C86.2469 43.5003 86.4352 43.2882 86.6229 43.0739C86.8106 42.8597 86.9926 42.6434 87.1798 42.4307L87.1632 42.4146L87.1466 42.3984C87.1138 42.4234 87.0795 42.4463 87.0457 42.4702L82.8144 47.0753L82.7988 47.0935H83.0141C83.9848 45.9294 84.997 44.7996 86.0509 43.7042Z" fill="white"/>
<path d="M87.178 42.4321C86.9908 42.6448 86.8073 42.8611 86.6211 43.0754C86.8073 42.8611 86.9908 42.6448 87.178 42.4321Z" fill="white"/>
<path d="M90.892 38.4846C90.944 38.416 90.996 38.3489 91.048 38.285L91.0111 38.248L89.7725 39.5012L89.5 39.7976L89.526 39.8226L90.892 38.4846Z" fill="white"/>
<path d="M87.1612 42.4142L87.1778 42.4304L87.9828 41.5984L87.9068 41.5308L87.4357 42.0435C87.3387 42.162 87.2416 42.2804 87.1445 42.3986L87.1612 42.4142Z" fill="white"/>
<path d="M87.9827 41.6001L87.1777 42.4321L87.9827 41.6001Z" fill="white"/>
<path d="M87.1768 42.4321L87.1602 42.416L87.1768 42.4321Z" fill="white"/>
<path d="M88.8633 40.6122L88.8071 40.5503L88.0791 41.3443L88.1441 41.4026L88.8633 40.6122Z" fill="white"/>
<path d="M82.0713 50.0568H82.4873C82.4873 50.0568 91.4158 38.3953 91.3544 38.4411C90.654 38.9579 82.0713 50.0568 82.0713 50.0568ZM86.7352 44.2729L86.6832 44.2131L86.886 43.9765L86.938 44.0165L86.7352 44.2729ZM87.1351 43.769L87.0831 43.731C87.1486 43.6447 87.2142 43.5579 87.2802 43.471L87.3322 43.5095L87.1351 43.769ZM87.5568 43.2651L87.484 43.21C87.5499 43.1282 87.6158 43.0464 87.6816 42.9645L87.7258 42.99C87.6697 43.0815 87.6135 43.1736 87.5568 43.2641V43.2651ZM87.9401 42.7664L87.8881 42.7274L88.0888 42.4674L88.1408 42.5069L87.9401 42.7664ZM88.3436 42.2636L88.2916 42.2246L88.4923 41.9646L88.5443 42.0036C88.4774 42.0902 88.4105 42.1769 88.3436 42.2636ZM88.756 41.7732L88.692 41.7108L88.8953 41.4555L88.9437 41.4857L88.756 41.7732ZM89.147 41.2569L89.095 41.2199L89.2838 40.9646L89.3488 41.0166L89.147 41.2569ZM89.6504 40.6422L89.5984 40.6069C89.6603 40.5263 89.7221 40.4451 89.7845 40.3645L89.8433 40.4223L89.6504 40.6422Z" fill="white"/>
<path d="M87.082 43.7322L87.134 43.7702L87.3316 43.5102L87.2796 43.4717C87.2131 43.558 87.1476 43.6448 87.082 43.7322Z" fill="white"/>
<path d="M86.6797 44.2132L86.7317 44.273L86.9293 44.0166L86.8773 43.9766L86.6797 44.2132Z" fill="white"/>
<path d="M87.4844 43.2122L87.5572 43.2674C87.6139 43.1758 87.67 43.0838 87.7262 42.9923L87.682 42.9668C87.6165 43.0476 87.5506 43.1294 87.4844 43.2122Z" fill="white"/>
<path d="M87.8867 42.7273L87.9387 42.7663L88.141 42.5063L88.089 42.4668L87.8867 42.7273Z" fill="white"/>
<path d="M88.291 42.2239L88.343 42.2629C88.4099 42.1765 88.4767 42.0899 88.5432 42.0029L88.4912 41.9639L88.291 42.2239Z" fill="white"/>
<path d="M88.6924 41.7109L88.7563 41.7733L88.9441 41.4857L88.8957 41.4556L88.6924 41.7109Z" fill="white"/>
<path d="M89.0967 41.2198L89.1487 41.2568L89.352 41.0139L89.287 40.9619L89.0967 41.2198Z" fill="white"/>
<path d="M89.5996 40.6066L89.6516 40.6419L89.8466 40.422L89.7879 40.3643C89.7234 40.4449 89.6615 40.526 89.5996 40.6066Z" fill="white"/>
<path d="M44.3049 48.6626C44.2883 48.698 44.2711 48.7333 44.2529 48.7666L44.3049 48.6626Z" fill="white"/>
<path d="M44.3223 48.6364L44.5968 48.313L44.3228 48.6359L44.3223 48.6364Z" fill="white"/>
<path d="M50.0731 61.0326C50.0731 61.0326 48.4788 60.1965 47.8028 60.0192C47.1268 59.8419 44.6406 58.2466 44.6406 58.2466L45.1159 58.6069L44.6812 58.4993C45.8039 59.1877 47.5755 60.2345 49.0331 60.8028C51.1651 61.6348 50.0731 61.0326 50.0731 61.0326ZM47.0971 59.8284C47.0258 59.8289 46.9556 59.8105 46.8938 59.7748C46.832 59.7391 46.7808 59.6876 46.7456 59.6256L46.7232 59.6167C46.7185 59.6095 46.7139 59.6032 46.7092 59.5965L46.0165 59.2881C46.2948 59.2995 46.547 59.363 46.7092 59.5959L46.7321 59.6063L46.7456 59.6256L47.2136 59.8128C47.1755 59.8223 47.1364 59.8276 47.0971 59.8284ZM49.7148 61.0326L49.3778 60.8361L49.3352 60.8257C49.329 60.82 49.3217 60.8153 49.3149 60.8101C48.8549 60.7097 48.4091 60.5525 47.9879 60.3421C47.926 60.313 47.8641 60.2823 47.8028 60.2516C48.3134 60.418 48.8724 60.4596 49.3144 60.808C49.3243 60.808 49.3336 60.8127 49.3435 60.8142L49.3784 60.8345L49.7569 60.9271L49.7148 61.0326Z" fill="white"/>
<path d="M49.3436 60.8163C49.3337 60.8163 49.3243 60.8121 49.3145 60.8101L49.3431 60.8163L49.3347 60.8257L49.3431 60.8163L49.3774 60.8361L49.3436 60.8163Z" fill="white"/>
<path d="M44.3057 48.6625L44.3145 48.6443L44.3218 48.636C44.3207 48.6187 44.3207 48.6013 44.3218 48.584C44.2646 48.6547 44.2178 48.7202 44.1855 48.7707C44.222 48.7308 44.2622 48.6946 44.3057 48.6625Z" fill="white"/>
<path d="M44.322 48.6505L44.3064 48.6624L44.2544 48.7664L44.0276 49.2344C44.0276 49.2432 44.0276 49.2521 44.0276 49.2604C44.0216 49.2675 44.0152 49.2743 44.0084 49.2807C43.9138 49.5719 43.83 49.8667 43.7198 50.1517C43.3964 50.9909 43.0521 51.8229 42.7318 52.6648C42.7079 52.7277 42.6855 52.7911 42.6621 52.8546C43.425 50.9213 44.5965 48.313 44.5965 48.313L44.3225 48.6364C44.322 48.6411 44.3219 48.6458 44.322 48.6505Z" fill="white"/>
<path d="M42.042 54.7283C42.0488 54.6821 42.0597 54.6275 42.0743 54.5656C42.0014 54.84 42.0243 55.1311 42.1393 55.3908C42.1677 55.4626 42.1776 55.5404 42.1679 55.617C41.9323 55.2723 41.8444 54.9062 41.9703 54.4949C42.0431 54.2572 42.0956 54.0118 42.158 53.7705C41.9536 54.3321 41.8184 54.7549 41.8174 54.8927C41.8132 55.4647 43.1741 57.5967 43.6374 57.8567C43.7497 57.9201 44.0014 58.0787 44.3503 58.294L44.642 58.2461C44.642 58.2461 41.8912 55.7959 42.042 54.7283ZM43.1798 57.2285C43.0014 57.0819 42.9198 56.8193 42.7898 56.6123C42.6702 56.4215 42.5402 56.2369 42.482 55.9919C42.6203 56.1589 42.7721 56.3164 42.8928 56.4953C43.0134 56.6742 43.0898 56.8759 43.2048 57.0574C43.3254 57.2519 43.4648 57.4344 43.652 57.7001C43.2432 57.6835 43.342 57.3621 43.1798 57.2285Z" fill="white"/>
<path d="M46.7328 59.6066L46.71 59.5962L46.7328 59.6061L46.724 59.6165L46.7328 59.6061L46.7464 59.6253L46.7328 59.6066Z" fill="white"/>
<path d="M44.3217 48.6507L44.3145 48.645L44.3217 48.6507Z" fill="white"/>
<path d="M44.0089 49.2856C44.0125 49.2757 44.0151 49.2658 44.0188 49.2559C44.0224 49.246 44.0245 49.244 44.0271 49.2377C44.0237 49.1874 44.0256 49.1368 44.0328 49.0869L43.9033 49.3989C43.9357 49.3586 43.971 49.3207 44.0089 49.2856Z" fill="white"/>
<path d="M44.0108 49.2846C44.0139 49.2752 44.017 49.2658 44.0196 49.2565L44.028 49.2632L44.0196 49.256C44.0222 49.2502 44.0254 49.2445 44.028 49.2383C44.0254 49.2445 44.0222 49.2502 44.0196 49.2565C44.017 49.2627 44.0134 49.2762 44.0098 49.2861L44.0108 49.2846Z" fill="white"/>
<path d="M42.1688 55.6172C42.1785 55.5406 42.1687 55.4627 42.1402 55.391C42.0253 55.1313 42.0024 54.8402 42.0752 54.5657C42.1626 54.2017 42.3872 53.5777 42.6665 52.8586C42.6899 52.7951 42.7122 52.7317 42.7361 52.6688C43.0544 51.8269 43.3986 50.9949 43.7241 50.1556C43.8338 49.8712 43.9181 49.5763 44.0117 49.2856C43.9744 49.3202 43.9396 49.3574 43.9077 49.3969C43.5026 50.3678 42.642 52.4524 42.1626 53.7706C42.1002 54.0119 42.0477 54.2574 41.9749 54.495C41.8454 54.9063 41.9333 55.2724 42.1688 55.6172Z" fill="white"/>
<path d="M44.0186 49.2563C44.0186 49.2657 44.0129 49.2751 44.0098 49.2844C44.0166 49.278 44.023 49.2713 44.029 49.2641L44.0186 49.2563Z" fill="white"/>
<path d="M44.0092 49.2857C43.9156 49.5764 43.8314 49.8712 43.7217 50.1557C43.8319 49.8707 43.9156 49.5759 44.0103 49.2847L44.0092 49.2857Z" fill="white"/>
<path d="M42.8932 56.4955C42.7726 56.3167 42.6207 56.1591 42.4824 55.9922C42.5407 56.2371 42.6707 56.4217 42.7903 56.6125C42.9213 56.8205 43.0019 57.0805 43.1803 57.2287C43.3425 57.3624 43.2447 57.6837 43.6483 57.7004C43.4621 57.4347 43.3217 57.2521 43.2011 57.0577C43.0903 56.8762 43.0123 56.6723 42.8932 56.4955Z" fill="white"/>
<path d="M47.8027 60.2534C47.8641 60.2841 47.926 60.3148 47.9879 60.3439C48.4089 60.5543 48.8545 60.7115 49.3144 60.8119C48.8724 60.4593 48.3134 60.4198 47.8027 60.2534Z" fill="white"/>
<path d="M47.9873 60.3438C48.4086 60.5541 48.8543 60.7113 49.3143 60.8117C48.8543 60.7114 48.4085 60.5542 47.9873 60.3438Z" fill="white"/>
<path d="M49.3154 60.8105C49.3222 60.8157 49.3295 60.8204 49.3357 60.8261L49.344 60.8168L49.3154 60.8105Z" fill="white"/>
<path d="M44.6404 58.2466L44.3486 58.2944C44.4526 58.3584 44.5624 58.427 44.6809 58.4993L45.1156 58.6069L44.6404 58.2466Z" fill="white"/>
<path d="M46.0166 59.2881L46.7092 59.5959C46.547 59.363 46.2948 59.2995 46.0166 59.2881Z" fill="white"/>
<path d="M46.71 59.5967C46.7146 59.6034 46.7193 59.6097 46.724 59.617L46.7328 59.6066L46.71 59.5967Z" fill="white"/>
<path d="M46.0166 59.2881L46.7092 59.5964L46.0166 59.2881Z" fill="white"/>
<path d="M44.027 49.2375C44.1022 49.0815 44.1778 48.9255 44.2537 48.7695C44.2708 48.7342 44.288 48.6988 44.3057 48.6655C44.2622 48.6976 44.222 48.7338 44.1856 48.7737C44.1476 48.8314 44.1268 48.8694 44.1268 48.8694L44.0327 49.0878C44.0256 49.1374 44.0237 49.1875 44.027 49.2375Z" fill="white"/>
<path d="M44.2541 48.7686C44.1788 48.9249 44.1033 49.0809 44.0273 49.2365L44.2541 48.7686Z" fill="white"/>
<path d="M44.0269 49.2633C44.0269 49.255 44.0269 49.2461 44.0269 49.2373C44.0243 49.2435 44.0212 49.2493 44.0186 49.255L44.0269 49.2633Z" fill="white"/>
<path d="M44.3135 48.6445L44.3047 48.6627C44.3078 48.6565 44.3109 48.6508 44.3135 48.6445Z" fill="white"/>
<path d="M44.314 48.6445C44.3114 48.6508 44.3083 48.6565 44.3057 48.6627L44.3213 48.6508L44.314 48.6451V48.6445Z" fill="white"/>
<path d="M47.0263 59.823C47.0497 59.8268 47.0733 59.8288 47.097 59.8288C47.1368 59.8281 47.1765 59.8229 47.2151 59.8132L46.7471 59.626C46.7782 59.6758 46.8189 59.7188 46.8668 59.7527C46.9148 59.7865 46.969 59.8104 47.0263 59.823Z" fill="white"/>
<path d="M46.7227 59.6168L46.745 59.6257L46.7315 59.6064L46.7227 59.6168Z" fill="white"/>
<path d="M46.7461 59.626C46.7773 59.676 46.8182 59.7192 46.8665 59.753C46.9147 59.7869 46.9693 59.8107 47.0269 59.8231C46.9693 59.8106 46.9148 59.7868 46.8665 59.7529C46.8183 59.7191 46.7774 59.6759 46.7461 59.626Z" fill="white"/>
<path d="M47.0971 59.8285C47.0734 59.8285 47.0497 59.8265 47.0264 59.8228C47.0497 59.8265 47.0734 59.8285 47.0971 59.8285Z" fill="white"/>
<path d="M44.3209 48.6359L44.5954 48.313C44.4939 48.3924 44.402 48.4833 44.3214 48.5839C44.3202 48.6012 44.32 48.6186 44.3209 48.6359Z" fill="white"/>
<path d="M44.3145 48.6445L44.3217 48.6367L44.3145 48.645V48.6445Z" fill="white"/>
<path d="M44.3145 48.6445L44.3217 48.6503C44.3215 48.6456 44.3215 48.6409 44.3217 48.6362L44.3145 48.644V48.6445Z" fill="white"/>
<path d="M49.7153 61.033L49.7575 60.929L49.3789 60.8364L49.7153 61.033Z" fill="white"/>
<path d="M49.3359 60.8258L49.3786 60.8362L49.3443 60.8164L49.3359 60.8258Z" fill="white"/>
<path d="M49.3799 60.8364L49.7168 61.033L49.3804 60.8364H49.3799Z" fill="white"/>
<path d="M41.7594 50.7139C41.69 50.8303 41.6228 50.9456 41.5576 51.0597C41.6148 50.9629 41.6835 50.848 41.7594 50.7139Z" fill="white"/>
<path d="M43.5686 48.2584C43.2566 48.0192 41.9789 50.1507 41.668 50.6816L41.8167 50.6156C42.8369 48.8647 43.5686 48.2584 43.5686 48.2584Z" fill="white"/>
<path d="M41.5578 51.0598C41.6236 50.9461 41.6909 50.8308 41.7595 50.714L41.7762 50.6854C41.7897 50.6615 41.8032 50.6386 41.8167 50.6157L41.668 50.6818C41.6238 50.7572 41.5994 50.8003 41.5994 50.8003C41.5994 50.8003 40.8704 52.2251 41.5578 51.0598Z" fill="white"/>
<path d="M10.4096 55.4842L10.2432 55.4707C10.4028 55.6095 10.7049 55.5466 10.7049 55.5466H10.7002C10.6425 55.5372 10.5853 55.5253 10.5281 55.5102L10.4096 55.4842Z" fill="white"/>
<path d="M10.2267 55.016C10.2278 55.0352 10.2298 55.0543 10.2329 55.0732C10.2335 55.0778 10.2344 55.0823 10.2355 55.0867C10.1726 54.2948 10.3915 52.7576 10.4581 52.4056C10.5179 52.0796 11.0046 52.0504 11.2272 52.0546C11.1418 52.049 11.0592 52.022 10.9869 51.9761C10.4565 52.0099 10.2886 52.5184 10.2886 52.5184C10.2886 52.5184 10.2366 53.4024 10.1924 54.1772C10.2007 54.1154 10.2095 54.0535 10.221 53.9916C10.221 54.3327 10.2085 54.6754 10.2267 55.016ZM10.2563 53.1248H10.2886V53.5044H10.2563V53.1248Z" fill="white"/>
<path d="M10.6995 55.5476L10.5273 55.5112C10.5845 55.5263 10.6402 55.5362 10.6995 55.5476Z" fill="white"/>
<path d="M11.3378 52.06C11.3378 52.06 11.6087 51.9716 11.0383 51.9747C11.0206 51.9747 11.0033 51.9747 10.9863 51.9747C11.0586 52.0206 11.1412 52.0476 11.2266 52.0532C11.2942 52.0559 11.3378 52.06 11.3378 52.06Z" fill="white"/>
<path d="M10.2882 55.3988C10.2592 55.2971 10.2418 55.1925 10.2362 55.0868C10.2351 55.0822 10.2342 55.0775 10.2336 55.0728C10.2305 55.0539 10.2284 55.0348 10.2273 55.0156C10.2091 54.675 10.2216 54.3323 10.2216 53.9912C10.2102 54.0531 10.2013 54.115 10.193 54.1768C10.1681 54.6402 10.1473 55.0609 10.1457 55.2272C10.1439 55.2832 10.1553 55.3388 10.179 55.3895L10.2882 55.3988Z" fill="white"/>
<path d="M10.2334 55.0732C10.234 55.078 10.2349 55.0827 10.236 55.0873C10.2348 55.0827 10.2339 55.078 10.2334 55.0732Z" fill="white"/>
<path d="M10.2881 53.1245H10.2559V53.5042H10.2881V53.1245Z" fill="white"/>
<path d="M7.28686 53.5106C7.44286 53.3743 7.49486 53.0685 7.46886 52.8865C7.44286 52.7045 7.40386 52.2157 7.40386 52.2157C7.40386 52.2157 7.16986 51.8517 6.81886 51.9443C6.81886 51.9443 7.22862 52.0483 7.29362 52.2755C7.35862 52.5028 7.37786 53.1725 7.29362 53.3415C7.20938 53.5106 6.57654 53.469 6.56822 53.4684L6.5599 53.4617C6.38622 53.3977 6.17302 53.3904 6.1049 53.1049C6.27546 53.2381 6.4169 53.3493 6.5599 53.4617L5.88391 52.886L5.75391 52.951L6.49854 53.5558C6.49854 53.5558 7.13086 53.6473 7.28686 53.5106Z" fill="white"/>
<path d="M6.55852 53.4617C6.41604 53.3494 6.27408 53.2381 6.10352 53.105C6.17164 53.3905 6.38484 53.3977 6.55852 53.4617Z" fill="white"/>
<path d="M6.56685 53.4686L6.55957 53.4624L6.56685 53.4686Z" fill="white"/>
<path d="M6.97785 52.4185C6.94769 52.4486 6.64453 53.1048 6.64453 53.1048L6.77453 53.1568L6.97785 52.4185Z" fill="white"/>
<path d="M5.62239 53.4888C5.384 53.7604 5.16555 54.0489 4.96875 54.352C5.01295 54.366 5.05715 54.38 5.10187 54.392C5.22147 54.1029 5.39619 53.7534 5.62239 53.4888Z" fill="white"/>
<path d="M4.76333 54.932H4.91257C4.96098 54.7656 5.01791 54.6017 5.08313 54.4411C5.03581 54.4281 4.98901 54.413 4.94169 54.3979C4.81221 54.6122 4.72693 54.8129 4.76333 54.932Z" fill="white"/>
<path d="M11.6517 54.9227L10.2721 54.8765C10.2721 54.9181 10.2721 54.9591 10.2695 55.0007C10.7297 55.021 11.2055 55.0398 11.6663 55.0564C11.665 55.0115 11.6602 54.9668 11.6517 54.9227Z" fill="white"/>
<path d="M14.9972 55.0541L15.5458 55.0853C15.4718 55.0687 15.3964 55.0595 15.3206 55.0577C15.2072 55.0505 14.8474 55.0359 14.3388 55.0172C14.3191 55.0499 14.3092 55.0749 14.2993 55.0749C13.7949 55.0749 13.2905 55.0749 12.7856 55.0749C12.7856 55.051 12.7856 55.0271 12.7856 55.0037H14.0258C13.4112 54.9813 12.6421 54.9548 11.8418 54.9277C11.8531 54.9714 11.8591 55.0163 11.8595 55.0614C13.6316 55.1227 15.201 55.1534 15.201 55.1534H15.228L15.0102 55.1435L14.9972 55.0541Z" fill="white"/>
<path d="M15.5447 55.0854L14.9961 55.0542L15.0117 55.1431L15.2296 55.153C15.3237 55.1447 15.6248 55.1145 15.5447 55.0854Z" fill="white"/>
<path d="M12.7852 55.077C13.2901 55.077 13.7945 55.077 14.2989 55.077C14.3088 55.077 14.3186 55.052 14.3384 55.0193C14.2396 55.0151 14.1351 55.0115 14.0264 55.0078H12.7857C12.7857 55.0291 12.7857 55.0531 12.7852 55.077Z" fill="white"/>
<path d="M7.72777 54.7934L7.25977 54.7783L7.72777 54.7934Z" fill="white"/>
<path d="M7.81943 54.7959H7.80487H7.72999C7.64433 54.7963 7.55875 54.8014 7.47363 54.811C8.05447 54.8843 9.03623 54.9457 10.108 54.9956C10.1106 54.955 10.1126 54.9145 10.1137 54.8739L7.81943 54.7985V54.7959Z" fill="white"/>
<path d="M11.8443 52.1079C11.8875 52.3856 11.7601 53.3558 11.7227 53.6267L11.8334 53.6309C11.8282 53.6761 11.823 53.7214 11.8173 53.7666C11.8173 53.7666 12.0705 52.7516 12.0773 52.3305C12.0277 52.2316 11.9454 52.1529 11.8443 52.1079Z" fill="white"/>
<path d="M11.7218 53.6265L11.7119 53.6993L11.8159 53.7663C11.8216 53.7211 11.8268 53.6759 11.832 53.6306L11.7218 53.6265Z" fill="white"/>
<path d="M11.8428 52.1077C11.9434 52.1529 12.0254 52.2315 12.0747 52.3302C12.0806 52.2749 12.072 52.2189 12.0497 52.168C11.9275 51.9954 11.8428 52.1077 11.8428 52.1077Z" fill="white"/>
<path d="M9.44422 58.6586L10.387 58.7496L9.38598 58.5806L9.35998 58.6586L9.12598 59.6336L10.322 59.8842L11.388 59.9653L9.25598 59.5883L9.44422 58.6586Z" fill="white"/>
<path d="M10.2051 60.6605C10.1723 60.6215 10.0881 60.4265 10.3543 60.0952C10.3543 60.0952 9.78491 60.4992 10.191 60.7592C10.5971 61.0192 10.7942 61.0681 10.7942 61.0681C10.7942 61.0681 10.2373 60.6995 10.2051 60.6605Z" fill="white"/>
<path d="M10.6024 61.9466C10.7064 61.9065 11.4017 61.6751 11.3855 62.4635C11.3684 63.3169 10.5322 63.2347 10.5322 63.2347C10.5322 63.2347 11.2514 63.3169 11.3944 62.8837C11.5374 62.4505 11.6918 61.5014 10.6024 61.9466Z" fill="white"/>
<path d="M10.6019 61.9468L10.5879 61.952L10.6019 61.9468Z" fill="white"/>
<path d="M11.9269 62.4519C11.8099 62.7421 11.8531 63.2361 11.2119 63.2881C11.2119 63.2881 12.2478 63.2663 12.0008 62.5601C12.0008 62.5601 12.1828 61.9838 11.6108 61.793C11.6108 61.7914 12.0439 62.1596 11.9269 62.4519Z" fill="white"/>
<path d="M6.06363 55.3502C6.48121 55.0555 6.96544 54.8691 7.47283 54.8078C7.39431 54.7979 7.32255 54.7881 7.25963 54.7777C6.75315 54.7615 6.05167 55.3575 6.06363 55.3502Z" fill="white"/>
<path d="M7.25977 54.7783C7.32269 54.7887 7.39445 54.7986 7.47297 54.8085C7.55809 54.7989 7.64366 54.7938 7.72933 54.7934L7.25977 54.7783Z" fill="white"/>
<path d="M9.61448 55.4218L10.0216 55.4545C10.019 55.4285 10.0164 55.4025 10.0154 55.3765C8.99515 55.2933 8.02587 55.2174 7.75495 55.2075C7.12211 55.1836 6.20898 55.6173 6.20898 55.6173C7.77783 55.1851 7.74611 55.2715 7.74611 55.2715L9.60876 55.4218H9.61448Z" fill="white"/>
<path d="M10.3508 55.4698C10.3505 55.4668 10.3505 55.4639 10.3508 55.4609C10.3514 55.4641 10.3523 55.4672 10.3534 55.4703H10.4027H10.3986L10.3508 55.4698Z" fill="white"/>
<path d="M11.8955 55.5424V55.5325L11.8435 55.5283C11.8435 55.5491 11.8482 55.5689 11.8508 55.5897C11.7848 55.5897 11.7198 55.5866 11.6553 55.5866L11.857 55.6027C11.855 55.5895 11.8522 55.5765 11.8487 55.5637C11.842 55.5361 11.8789 55.5242 11.8955 55.5424Z" fill="white"/>
<path d="M10.3457 55.4629L10.3135 55.466L10.4081 55.4863L10.4492 55.4894C10.432 55.4842 10.4149 55.478 10.3972 55.4717H10.3478C10.3469 55.4688 10.3462 55.4659 10.3457 55.4629Z" fill="white"/>
<path d="M10.213 55.4439C10.1949 55.4318 10.1804 55.4151 10.1709 55.3955C10.1717 55.4102 10.1717 55.425 10.1709 55.4397V55.4667L10.239 55.4725C10.2296 55.4636 10.2209 55.4541 10.213 55.4439Z" fill="white"/>
<path d="M10.3474 55.4622H10.364L10.3942 55.4721H11.1513L10.3281 55.4019C10.3349 55.4221 10.3411 55.4424 10.3474 55.4622Z" fill="white"/>
<path d="M11.8446 55.5284L11.153 55.4707H10.3984C10.4156 55.4769 10.4328 55.4832 10.4504 55.4884L11.6568 55.5856C11.7213 55.5856 11.7863 55.5856 11.8524 55.5887C11.8492 55.569 11.8466 55.5492 11.8446 55.5284Z" fill="white"/>
<path d="M10.361 55.462L10.3506 55.4698H10.3937L10.3636 55.46L10.361 55.462Z" fill="white"/>
<path d="M10.3276 55.402L10.2881 55.3989C10.295 55.4219 10.3037 55.4444 10.3141 55.466L10.3463 55.4629L10.3276 55.402Z" fill="white"/>
<path d="M10.2127 55.4441C10.1988 55.4282 10.187 55.4108 10.1773 55.3921H10.1711C10.1708 55.3942 10.1708 55.3963 10.1711 55.3983C10.1808 55.4169 10.1951 55.4327 10.2127 55.4441Z" fill="white"/>
<path d="M10.3277 55.4019L10.3464 55.4627C10.3401 55.4429 10.3339 55.4227 10.3271 55.4024L10.3277 55.4019Z" fill="white"/>
<path d="M10.3619 55.4619H10.3645H10.3478C10.3476 55.4649 10.3476 55.4678 10.3478 55.4708L10.3619 55.4619Z" fill="white"/>
<path d="M10.3506 55.4697L10.361 55.4619L10.3506 55.4697Z" fill="white"/>
<path d="M10.3142 55.4657C10.2793 55.4695 10.2441 55.4618 10.2139 55.4438C10.2226 55.4541 10.2322 55.4637 10.2425 55.4725L10.4089 55.486L10.3142 55.4657Z" fill="white"/>
<path d="M10.2875 55.3985L10.1777 55.3896C10.1874 55.4084 10.1992 55.4258 10.2131 55.4417C10.2433 55.4597 10.2785 55.4673 10.3135 55.4636C10.3031 55.4426 10.2944 55.4208 10.2875 55.3985Z" fill="white"/>
<path d="M12.5975 55.5923L12.0322 55.5444V55.5699C12.0322 55.5855 12.0322 55.6011 12.0322 55.6167L12.7602 55.6755C12.6808 55.6529 12.6033 55.6242 12.5283 55.5897L12.5975 55.5923Z" fill="white"/>
<path d="M12.7929 55.6173H12.8273L12.833 55.6126L12.5979 55.5923H12.5293C12.6043 55.6268 12.6818 55.6555 12.7612 55.6781L12.7976 55.6458L12.7929 55.6173Z" fill="white"/>
<path d="M12.792 55.6172L12.7967 55.6432L12.8263 55.6172H12.792Z" fill="white"/>
<path d="M15.4246 59.2086C12.5126 58.6715 11.0332 58.4463 11.0332 58.4463C11.0332 58.4463 14.0986 59.4988 19.8966 59.7874C24.7087 60.0266 25.276 60.0807 25.3301 60.0921L25.2984 59.9262C25.2984 59.9262 18.3366 59.7479 15.4246 59.2086Z" fill="white"/>
<path d="M25.3291 60.0923V60.0954C25.3291 60.0954 25.3401 60.0949 25.3291 60.0923Z" fill="white"/>
<path d="M17.0285 50.2842L27.6952 50.6638L27.8143 50.6508L25.5466 50.5546C24.66 50.5166 23.7739 50.4818 22.8883 50.4308C22.7795 50.4201 22.6725 50.3951 22.5701 50.3565L21.723 50.3237C21.4776 50.3346 21.2321 50.3445 20.9862 50.3487C20.7362 50.3481 20.4866 50.3308 20.2389 50.2967H20.9929L19.5312 50.2389H18.6342V50.2041L17.1824 50.1479C17.1056 50.1479 17.0291 50.1563 16.9541 50.1729L17.0196 50.1838C17.0222 50.2176 17.0253 50.2514 17.0285 50.2842Z" fill="white"/>
<path d="M28.3608 50.5803L27.0088 50.5283L27.1721 50.5356C27.5699 50.5522 27.9651 50.5663 28.3608 50.5803Z" fill="white"/>
<path d="M17.0293 50.2842C17.0262 50.2504 17.0231 50.2166 17.0205 50.1828L16.955 50.1719C16.812 50.2135 17.0293 50.2842 17.0293 50.2842Z" fill="white"/>
<path d="M22.8886 50.4306C23.7726 50.4826 24.6602 50.5164 25.5468 50.5544L27.8145 50.6506L28.4266 50.583H28.3605C27.9648 50.569 27.5696 50.5549 27.1739 50.5378L27.0106 50.5305L22.5703 50.3589C22.6728 50.3966 22.7798 50.4208 22.8886 50.4306Z" fill="white"/>
<path d="M20.2393 50.2955C20.4869 50.3296 20.7365 50.347 20.9865 50.3475C21.2325 50.3433 21.4779 50.3334 21.7233 50.3225L20.9953 50.2944L20.2393 50.2955Z" fill="white"/>
<path d="M19.5324 50.2389L18.6338 50.2041V50.2389H19.5324Z" fill="white"/>
<path d="M38.5508 56.0457L39.0448 55.8897C39.0448 55.8897 43.1045 49.528 43.0665 49.4807C42.9412 49.3247 38.5508 56.0457 38.5508 56.0457ZM39.9106 54.3401L39.8497 54.3006C39.9101 54.1966 39.9709 54.0926 40.0318 53.9886L40.1072 54.0582L39.9106 54.3401ZM40.7998 52.8742L40.3874 53.6641L40.2881 53.6058C40.3401 53.5065 40.389 53.4051 40.4441 53.3068C40.5297 53.1372 40.6502 52.9877 40.7977 52.868L41.2137 52.088L41.3084 52.1452C41.1638 52.4057 41.0546 52.6844 40.7998 52.8742Z" fill="white"/>
<path d="M40.7969 52.8701L40.8016 52.8743C41.0553 52.6844 41.1656 52.4061 41.3049 52.1461L41.2103 52.0889L40.7969 52.8701Z" fill="white"/>
<path d="M40.7969 52.8698L41.2129 52.0898L40.7969 52.8698Z" fill="white"/>
<path d="M40.4431 53.309C40.3911 53.4073 40.3391 53.5087 40.2871 53.608L40.3864 53.6662L40.7998 52.8743L40.7951 52.8701C40.6482 52.99 40.5282 53.1396 40.4431 53.309Z" fill="white"/>
<path d="M40.797 52.8701C40.6495 52.9898 40.529 53.1394 40.4434 53.309C40.529 53.1394 40.6495 52.9898 40.797 52.8701Z" fill="white"/>
<path d="M40.7969 52.8701L40.801 52.8744L40.7969 52.8701Z" fill="white"/>
<path d="M39.8496 54.3002L39.9105 54.3398L40.107 54.0584L40.0316 53.9888C39.9708 54.0928 39.9099 54.1962 39.8496 54.3002Z" fill="white"/>
<path d="M35.5337 60.0033C35.6169 59.8613 35.7334 59.5665 35.397 59.3996C34.942 59.1744 33.6768 59.008 33.486 59.3294C33.3123 59.6221 33.0382 60.6263 33.0039 60.9414C33.0293 60.8358 33.0631 60.7323 33.1048 60.632V60.944C33.1048 60.944 33.3388 59.4183 33.7865 59.3491C34.2342 59.28 35.5166 59.41 35.4994 59.748C35.4962 59.8216 35.4893 59.895 35.4786 59.9679C35.4916 59.9456 35.5046 59.9227 35.5181 59.9003C35.527 59.934 35.5322 59.9685 35.5337 60.0033Z" fill="white"/>
<path d="M35.4789 60.0845C35.498 60.0587 35.5153 60.0316 35.5309 60.0034C35.5286 59.9682 35.5225 59.9333 35.5127 59.8994C35.4992 59.9218 35.4862 59.9446 35.4732 59.967C35.4518 60.109 35.4248 60.1365 35.4248 60.1365L35.4789 60.0845Z" fill="white"/>
<path d="M33.0037 60.9402C33.0003 60.9638 32.9992 60.9876 33.0005 61.0114C33.0177 61.1933 33.1045 60.9423 33.1045 60.9423V60.6304C33.0627 60.7308 33.029 60.8344 33.0037 60.9402Z" fill="white"/>
<path d="M33.6235 63.1178C33.6235 63.1178 33.7405 62.9488 33.4675 62.7085C33.2907 62.5525 33.1664 62.1885 33.1035 61.9473V62.1553C33.2803 62.6201 33.6235 63.1178 33.6235 63.1178Z" fill="white"/>
<path d="M32.9996 61.6354C32.9799 61.7774 33.0267 61.9647 33.1036 62.1555V61.9475C33.0682 61.818 33.0516 61.7264 33.0516 61.7264C33.0516 61.7264 33.0646 61.1543 32.9996 61.6354Z" fill="white"/>
<path d="M42.3359 64.9037C42.6609 64.7794 43.4436 64.5808 43.5387 65.4757C43.623 66.2743 43.4503 66.4184 43.3385 66.4324C43.4945 66.4376 43.8066 66.3596 43.6947 65.6316C43.5559 64.7087 43.3874 64.458 42.3359 64.9037Z" fill="white"/>
<path d="M42.3362 64.9038C42.2881 64.9215 42.241 64.9419 42.1953 64.9652C42.2442 64.9433 42.2905 64.923 42.3362 64.9038Z" fill="white"/>
<path d="M43.3387 66.4315C43.3098 66.4309 43.281 66.4268 43.2529 66.4194C43.2799 66.4311 43.3096 66.4353 43.3387 66.4315Z" fill="white"/>
<path d="M46.221 65.1009C46.0197 65.9714 46.416 65.2325 46.377 64.9652C46.338 64.698 46.3447 63.9497 45.3438 64.0927C45.3438 64.0927 46.4227 64.231 46.221 65.1009Z" fill="white"/>
<path d="M44.3766 62.7796C44.3766 62.7796 44.5534 62.5887 44.5326 62.5456C44.5118 62.5024 44.4557 61.7827 44.4557 61.7827H43.1572L44.3766 61.9476V62.7796Z" fill="white"/>
<path d="M43.5732 64.4006C43.5732 64.4006 43.6689 64.5047 43.7183 64.227C43.7676 63.9493 43.5732 62.7798 43.5732 62.7798V64.4006Z" fill="white"/>
<path d="M72.3644 56.6436C72.3124 56.8744 72.5334 56.6436 72.5334 56.6436C72.5334 56.6436 72.4101 56.4424 72.3644 56.6436Z" fill="white"/>
<defs>
<radialGradient id="paint0_radial_463_22462" cx="0" cy="0" r="1" gradientUnits="userSpaceOnUse" gradientTransform="translate(19.2563 55.854) rotate(-173.367) scale(0.242582 0.210214)">
<stop stop-color="#8F8AD2"/>
<stop offset="1" stop-color="#4267B2"/>
</radialGradient>
<radialGradient id="paint1_radial_463_22462" cx="0" cy="0" r="1" gradientUnits="userSpaceOnUse" gradientTransform="translate(70.5067 52.9241) rotate(-177.843) scale(0.0953627 0.0270868)">
<stop stop-color="#8F8AD2"/>
<stop offset="1" stop-color="#4267B2"/>
</radialGradient>
<radialGradient id="paint2_radial_463_22462" cx="0" cy="0" r="1" gradientUnits="userSpaceOnUse" gradientTransform="translate(74.5771 58.1884) rotate(-132.316) scale(0.00869022 0.0326756)">
<stop stop-color="#8F8AD2"/>
<stop offset="1" stop-color="#4267B2"/>
</radialGradient>
<radialGradient id="paint3_radial_463_22462" cx="0" cy="0" r="1" gradientUnits="userSpaceOnUse" gradientTransform="translate(10.5277 55.5063) rotate(-167.862) scale(0.104841 0.162783)">
<stop stop-color="#8F8AD2"/>
<stop offset="1" stop-color="#4267B2"/>
</radialGradient>
<radialGradient id="paint4_radial_463_22462" cx="0" cy="0" r="1" gradientUnits="userSpaceOnUse" gradientTransform="translate(45.042 64.8412) rotate(-136.354) scale(0.01864 0.0703174)">
<stop stop-color="#8F8AD2"/>
<stop offset="1" stop-color="#4267B2"/>
</radialGradient>
<radialGradient id="paint5_radial_463_22462" cx="0" cy="0" r="1" gradientUnits="userSpaceOnUse" gradientTransform="translate(101.339 60.8518) rotate(-162.843) scale(88.3756 188.147)">
<stop stop-color="#8F8AD2"/>
<stop offset="1" stop-color="#4267B2"/>
</radialGradient>
<radialGradient id="paint6_radial_463_22462" cx="0" cy="0" r="1" gradientUnits="userSpaceOnUse" gradientTransform="translate(70.5108 52.929) rotate(-172.31) scale(0.0988888 0.0990499)">
<stop stop-color="#8F8AD2"/>
<stop offset="1" stop-color="#4267B2"/>
</radialGradient>
<radialGradient id="paint7_radial_463_22462" cx="0" cy="0" r="1" gradientUnits="userSpaceOnUse" gradientTransform="translate(22.5688 50.3441) rotate(-175.803) scale(0.734284 0.40484)">
<stop stop-color="#8F8AD2"/>
<stop offset="1" stop-color="#4267B2"/>
</radialGradient>
<radialGradient id="paint8_radial_463_22462" cx="0" cy="0" r="1" gradientUnits="userSpaceOnUse" gradientTransform="translate(73.0653 57.3097) rotate(-127.611) scale(2.56738 9.37523)">
<stop stop-color="#8F8AD2"/>
<stop offset="1" stop-color="#4267B2"/>
</radialGradient>
<radialGradient id="paint9_radial_463_22462" cx="0" cy="0" r="1" gradientUnits="userSpaceOnUse" gradientTransform="translate(11.852 54.7868) rotate(-115.011) scale(3.3295 9.63563)">
<stop stop-color="#8F8AD2"/>
<stop offset="1" stop-color="#4267B2"/>
</radialGradient>
<radialGradient id="paint10_radial_463_22462" cx="0" cy="0" r="1" gradientUnits="userSpaceOnUse" gradientTransform="translate(17.0715 55.7643) rotate(-177.655) scale(0.819764 0.253083)">
<stop stop-color="#8F8AD2"/>
<stop offset="1" stop-color="#4267B2"/>
</radialGradient>
<radialGradient id="paint11_radial_463_22462" cx="0" cy="0" r="1" gradientUnits="userSpaceOnUse" gradientTransform="translate(91.1607 58.1799) rotate(-134.336) scale(0.0115706 0.043686)">
<stop stop-color="#8F8AD2"/>
<stop offset="1" stop-color="#4267B2"/>
</radialGradient>
<radialGradient id="paint12_radial_463_22462" cx="0" cy="0" r="1" gradientUnits="userSpaceOnUse" gradientTransform="translate(41.4991 50.7619) rotate(-137.028) scale(0.0208909 0.0786993)">
<stop stop-color="#8F8AD2"/>
<stop offset="1" stop-color="#4267B2"/>
</radialGradient>
<radialGradient id="paint13_radial_463_22462" cx="0" cy="0" r="1" gradientUnits="userSpaceOnUse" gradientTransform="translate(70.409 52.9282) rotate(-138.981) scale(0.00655645 0.0245224)">
<stop stop-color="#8F8AD2"/>
<stop offset="1" stop-color="#4267B2"/>
</radialGradient>
</defs>
</svg>
