<svg width="105" height="104" viewBox="0 0 105 104" fill="none" xmlns="http://www.w3.org/2000/svg">
<path d="M28.7832 46.8438L28.7863 46.8479L28.7832 46.8438Z" fill="url(#paint0_radial_463_20318)"/>
<path d="M26.9579 66.1392L26.9502 66.1475L26.9579 66.1392Z" fill="url(#paint1_radial_463_20318)"/>
<path d="M37.1807 68.6426L37.3887 68.666L37.3179 68.6473L37.2462 68.6431L37.1807 68.6426Z" fill="url(#paint2_radial_463_20318)"/>
<path d="M102.297 50.2959C102.13 50.2662 101.95 50.2361 101.77 50.2028C101.073 50.0717 100.372 49.9563 99.6803 49.8039C99.0984 49.6755 98.5217 49.5824 97.9237 49.6656C97.3257 49.7488 96.7127 49.7961 96.1126 49.8929C93.9102 50.2478 91.7089 50.6118 89.5086 50.9849C88.9428 51.0805 88.3854 51.2267 87.8207 51.3291C87.426 51.4009 87.0037 51.3743 86.6314 51.5012C84.8567 52.1055 83.0954 52.744 81.3274 53.3795C81.0569 53.4767 80.7968 53.6009 80.5511 53.7502C80.1871 53.9723 80.1751 54.2432 80.5422 54.4371C80.8345 54.5931 81.1662 54.6852 81.4876 54.7663C81.7361 54.8287 81.9998 54.8292 82.2832 54.8604L72.451 64.9765L69.0419 64.5236L68.9852 64.431C69.0964 64.3597 69.2028 64.2814 69.304 64.1965C70.3117 63.2449 71.307 62.2793 72.3278 61.3412C72.62 61.0729 72.6679 60.7983 72.593 60.4385C72.3328 59.1624 71.9533 57.9136 71.4594 56.7085C69.4054 51.7612 66.4825 47.3844 62.7754 43.5254C62.4608 43.1984 62.271 42.7974 62.1233 42.3814C62.1495 42.3638 62.1771 42.3485 62.206 42.3357C62.2539 42.3204 62.3039 42.3121 62.3542 42.3112C63.0536 42.3861 63.6022 42.0819 64.1664 41.7008C69.0197 38.4348 73.8833 35.1825 78.7571 31.944C80.8246 30.5639 82.8914 29.1826 84.9575 27.8001C85.0797 27.7185 85.2565 27.6706 85.2924 27.4111C85.1312 27.4756 85.0241 27.5084 84.9284 27.5593C77.1967 31.5533 69.4645 35.5481 61.7317 39.5438C61.3677 39.7315 60.9824 39.875 60.5482 40.0638C60.6377 39.5688 60.6325 39.1491 60.3704 38.7836C59.5904 37.6994 58.6216 36.8476 57.3351 36.4321C56.6919 36.2241 56.0216 36.1201 55.3363 36.2657C54.8818 36.3624 54.5771 36.6157 54.4179 37.0457C54.3597 37.2017 54.2983 37.3624 54.2552 37.5252C53.9055 38.8237 53.9358 40.1953 54.3425 41.4772C54.3893 41.6285 54.4377 41.7793 54.4928 41.9545C53.9905 41.9925 53.5532 42.0185 53.1169 42.0585C51.0145 42.2566 48.9148 42.4896 46.8093 42.643C46.087 42.695 45.6019 42.9893 45.2285 43.5624C45.0725 43.8031 44.8931 44.0304 44.7428 44.2753C44.4922 44.6845 44.5868 44.8956 45.0548 44.9918C45.138 45.0077 45.2224 45.0171 45.307 45.0199C46.0834 45.0568 46.8597 45.1094 47.6371 45.1239C49.5819 45.1624 51.5273 45.1816 53.4721 45.2144C53.6281 45.2144 53.8043 45.1572 53.9619 45.3236C53.6754 45.6356 53.4102 45.9408 53.1237 46.2263C50.8206 48.5216 48.5076 50.8039 46.2134 53.1007C45.2701 54.0466 44.3622 55.0279 43.4449 55.9998C43.1454 56.317 43.1558 56.3258 43.3508 56.7335C43.374 56.7949 43.3925 56.858 43.4059 56.9222C44.1859 56.7018 44.9347 56.4948 45.6788 56.2774C45.7703 56.2504 45.8494 56.1734 45.9269 56.1115C49.622 53.1215 53.3166 50.1312 57.0107 47.1405C57.15 47.0277 57.2935 46.9195 57.5093 46.751C57.6705 47.9819 57.8213 49.1139 57.9701 50.2678C57.8141 50.3151 57.6867 50.3557 57.5593 50.3905C57.0174 50.5371 56.5827 50.8445 56.2317 51.2745C55.8519 51.7346 55.6124 52.2941 55.5417 52.8865C55.5042 53.1985 55.3571 53.3394 55.0846 53.4679C52.1032 54.8701 49.1259 56.2821 46.1525 57.7038C44.5468 58.4681 42.8213 58.9499 41.0519 59.1281C39.4716 59.295 37.8799 59.374 36.3017 59.5378C35.1946 59.6528 34.0953 59.8462 32.9924 60.0017C32.8937 60.0159 32.7938 60.0192 32.6944 60.0116C31.9378 59.946 31.1833 59.8472 30.4251 59.815C29.5479 59.7781 28.6655 59.763 27.7955 59.9351C27.5537 59.9835 27.314 60.0417 27.0566 60.0994C26.4503 58.4271 25.5288 56.9732 24.4431 55.6233C23.9402 54.9993 23.4811 54.316 22.7421 53.9203C22.7022 53.8932 22.6709 53.8553 22.6517 53.8111C22.5081 53.5303 22.3672 53.2479 22.2164 52.9468C22.3875 52.8319 22.4847 52.6021 22.7421 52.7466C23.4743 53.1585 24.0941 52.9323 24.6911 52.4346C25.5481 51.7201 26.4071 51.0046 27.2984 50.3343C28.2703 49.6027 29.2978 48.9444 30.2717 48.2148C32.8593 46.2768 35.5508 44.4952 38.2896 42.7813C38.6614 42.5484 39.0119 42.2806 39.3639 42.018C40.393 41.2504 41.4127 40.4694 42.4481 39.7097C42.8287 39.4299 42.8729 39.2661 42.5812 38.8907C42.5089 38.7971 42.4491 38.6941 42.3971 38.6156L21.2882 51.0119C21.0735 50.6162 20.8863 50.2595 20.6881 49.9085C20.2056 49.0557 19.5332 48.4005 18.6029 48.0697C18.0486 47.8747 17.4631 47.7603 16.8869 47.6423C16.3883 47.5383 15.9988 47.7463 15.7123 48.1623C15.394 48.6199 15.2682 49.1399 15.198 49.6807C15.0836 50.5647 15.3046 51.392 15.5927 52.2105C15.7637 52.6967 15.9338 53.1829 16.1127 53.6857C15.9395 53.7513 15.8007 53.8048 15.6587 53.8589C14.3363 54.3701 12.9958 54.8386 11.6963 55.4023C9.04742 56.5504 6.41934 57.747 3.78606 58.9315C3.48041 59.0747 3.18503 59.2389 2.90206 59.4229C2.69406 59.5524 2.60358 59.7349 2.80586 60.0027C3.16674 59.8639 3.53022 59.738 3.88278 59.5867C5.7761 58.7729 7.66162 57.9425 9.5591 57.1391C10.7093 56.6518 11.8663 56.176 13.0384 55.7444C14.041 55.3752 15.0851 55.1568 16.1641 55.1792C16.3753 55.1839 16.5859 55.227 16.8209 55.2556C16.7777 55.3539 16.7689 55.4085 16.7372 55.4413C15.9171 56.2946 15.1143 57.1656 14.2682 57.9924C13.0837 59.151 11.8658 60.2762 10.6651 61.4187C10.5796 61.5115 10.5009 61.6104 10.4296 61.7146C10.6048 61.9018 10.7416 61.791 10.8643 61.7187C11.1685 61.5367 11.4732 61.3521 11.7613 61.1467C13.7782 59.6942 15.7941 58.2399 17.8089 56.7839C17.9098 56.7111 18.0205 56.6518 18.1937 56.5447C18.0122 57.7719 18.1282 58.906 18.4402 60.0599C18.2938 60.0833 18.1462 60.0991 17.9982 60.1072C17.8453 60.1011 17.6932 60.1316 17.5545 60.196C17.4157 60.2605 17.2944 60.3572 17.2005 60.478C17.0632 60.6491 16.9239 60.8196 16.8017 61.0011C16.6815 61.1664 16.6083 61.3612 16.59 61.5647C16.5717 61.7683 16.6089 61.973 16.6977 62.1571C16.985 62.806 17.271 63.4557 17.5557 64.106C17.6144 64.2402 17.6695 64.3764 17.7501 64.5678C16.9306 64.7238 16.1584 64.8845 15.3826 65.0223C13.9006 65.2823 12.429 65.5891 11.0182 66.1283C10.2575 66.4185 9.52374 66.7664 8.92262 67.3353C8.39742 67.8324 8.4307 68.4273 9.0339 68.8266C9.6371 69.226 10.2679 69.5801 10.9688 69.8105C12.3728 70.2717 13.8137 70.5535 15.2619 70.8016C17.7267 71.2238 20.1983 71.6123 22.6693 71.9976C22.9626 72.0433 23.1795 72.1567 23.3537 72.3761C23.7525 72.88 24.1513 73.3834 24.5408 73.8935C24.8965 74.3615 24.9755 74.388 25.5174 74.1759C25.5803 74.1514 25.6427 74.1239 25.7046 74.0984C26.5231 73.7344 27.3592 73.4089 28.1517 72.9981C28.5017 72.8166 28.8105 72.8311 29.1589 72.8769C30.902 73.105 32.6454 73.3303 34.3891 73.5529L40.224 74.3053L46.9643 75.1748C48.9423 75.4303 50.9206 75.6865 52.899 75.9433C54.2224 76.1181 55.5443 76.3074 56.8671 76.4847C58.527 76.7098 60.1806 76.5502 61.8233 76.3365C63.2273 76.1534 64.6276 75.8955 66.0191 75.6183C67.5927 75.3063 69.1553 74.9351 70.722 74.5856C74.5591 73.7307 78.1929 72.3496 81.5952 70.3736C82.4272 69.8885 83.24 69.369 83.9576 68.7153C84.3216 68.3851 84.5712 67.9957 84.6149 67.497C84.6523 67.0706 84.5223 66.8693 84.1209 66.7279C83.9727 66.6759 83.8167 66.6426 83.6362 66.5932C83.7095 66.4856 83.7548 66.4159 83.8037 66.3493C84.995 64.7072 86.1957 63.0692 87.3776 61.4218C88.3459 60.0755 89.3219 58.7365 90.4415 57.5088C90.936 56.9664 91.4887 56.512 92.1621 56.1942C92.4849 56.0465 92.7739 55.8341 93.0113 55.5702C93.5178 54.9821 93.9801 54.3539 94.4366 53.7253C94.5604 53.5552 94.668 53.3212 94.6592 53.1221C94.6503 52.9229 94.4881 52.7284 94.3935 52.5334C97.0177 51.8325 99.6505 51.1286 102.292 50.4217C102.302 50.4191 102.307 50.3921 102.309 50.3759C102.308 50.3489 102.304 50.322 102.297 50.2959ZM28.783 46.8436L28.8256 46.8269C28.9093 46.7593 28.9899 46.6865 29.0763 46.6231C29.1087 46.5992 29.1424 46.577 29.1771 46.5565C33.3898 44.0907 37.6049 41.6276 41.8225 39.1673C41.9785 39.0753 42.1433 38.9952 42.4153 38.8501C42.3716 39.0545 42.3768 39.1663 42.3248 39.2344C42.2728 39.3025 42.1589 39.3452 42.0711 39.3951C37.8244 41.8037 33.5769 44.2112 29.3285 46.6174C29.1725 46.7063 28.9951 46.7604 28.8256 46.8254L28.7918 46.8524L28.745 46.8722L28.3654 47.1717C28.3446 47.1332 28.3243 47.0947 28.3035 47.0568L28.745 46.8722L28.783 46.8436ZM28.0082 47.2643L28.0446 47.3345L27.6509 47.5466L27.6151 47.478L28.0082 47.2643ZM24.7618 51.6447C26.0632 50.6488 27.3691 49.6589 28.6795 48.675C28.8592 48.5334 29.0675 48.4325 29.29 48.3791C29.1797 48.4831 29.0773 48.6001 28.9577 48.6911C27.6951 49.6791 26.4347 50.6671 25.1617 51.639C24.7898 51.9289 24.3972 52.1912 23.987 52.4237C23.6579 52.6073 23.2902 52.6416 22.9392 52.3597C23.7031 52.5033 24.2221 52.0571 24.7613 51.6447H24.7618ZM90.1679 52.4679H90.6879C90.6879 52.484 90.6879 52.5001 90.6879 52.5163H90.1679V52.4679ZM87.9871 52.2079C88.0838 52.1559 88.2008 52.1486 88.3084 52.1205C85.7999 53.2125 83.8661 54.9738 82.1381 57.0028C80.9983 58.3413 79.8543 59.676 78.7061 61.0068C78.5101 61.2346 78.3057 61.4551 78.0332 61.6277C78.0867 61.5378 78.1452 61.451 78.2085 61.3677C79.523 59.8226 80.8393 58.2789 82.1573 56.7366C83.3294 55.3705 84.6112 54.1205 86.1509 53.1699C86.737 52.8064 87.3709 52.5199 87.9871 52.2079ZM80.5984 54.0279C81.7668 53.4439 82.9561 53.0659 84.1344 52.6567C84.1521 52.6925 84.1703 52.7289 84.1864 52.7653C84.0663 52.8257 83.9498 52.8969 83.825 52.9453C83.2129 53.1819 82.5947 53.4029 81.9868 53.6493C81.7429 53.7481 81.5188 53.8984 81.1751 54.0867L82.5234 54.5339C81.9909 54.7819 81.0061 54.5391 80.5984 54.0279ZM73.1905 64.8346C74.0141 63.9422 74.8264 63.039 75.6709 62.1659C78.2182 59.533 80.7748 56.9092 83.3409 54.2947C84.0278 53.5994 84.8093 52.9983 85.5425 52.3483C85.8089 52.1109 86.1351 51.9508 86.4858 51.8855C86.8893 51.808 87.2981 51.7591 87.7042 51.6978C87.7146 51.7586 87.7255 51.8195 87.7359 51.8803C87.5669 51.9323 87.4 51.9963 87.2284 52.0399C86.4141 52.2479 85.6741 52.5792 85.0652 53.1839C84.0839 54.1621 83.0663 55.1038 82.0929 56.0892C80.2292 57.9763 78.391 59.8894 76.5289 61.7806C75.5336 62.792 74.5154 63.781 73.5045 64.7768C73.4161 64.8637 73.3033 64.925 73.1452 65.0368C73.1712 64.9167 73.165 64.8601 73.1905 64.833V64.8346ZM77.9261 61.8617L77.5184 62.3074L77.4498 62.247L77.8445 61.779L77.9261 61.8617ZM69.551 70.9903H70.331C70.331 70.9903 70.383 71.8333 59.9736 71.5363C49.5643 71.2394 34.997 68.4007 34.997 68.4007L35.2481 68.4283C35.4962 68.3883 35.5347 68.3841 35.6527 68.473L35.9403 68.5047C36.0476 68.4922 36.1556 68.4866 36.2637 68.4881C36.2923 68.4881 36.3204 68.5167 36.3485 68.55L37.0765 68.6306H37.2397H37.2621L37.3209 68.6462C37.4619 68.6488 37.6025 68.662 37.7415 68.6857C37.7637 68.6908 37.7849 68.6992 37.8045 68.7107L38.2725 68.7627C38.3528 68.7477 38.4357 68.7571 38.5106 68.7897C43.0658 69.3003 50.91 70.1968 55.0107 70.7657C61.01 71.5993 69.551 70.9903 69.551 70.9903ZM39.287 63.6906C39.5059 63.0666 40.2994 62.8996 40.8366 63.3786C41.2739 63.7701 41.4892 64.2714 41.4798 64.9661C41.4753 65.0835 41.4614 65.2004 41.4382 65.3156C41.2515 66.0841 40.4123 66.3348 39.8205 65.8028C39.3348 65.3639 39.0696 64.3151 39.2891 63.6906H39.287ZM47.4193 64.2626C47.7105 64.0452 48.1831 64.0863 48.5586 64.3364C49.0266 64.6484 49.4187 65.4191 49.4228 66.0353C49.4281 66.2729 49.3511 66.5052 49.2049 66.6927C49.0587 66.8802 48.8523 67.0114 48.6205 67.0643C48.2949 67.1465 48.0167 67.0742 47.8093 66.8043C47.4567 66.3452 47.1853 65.847 47.1015 65.2631C47.048 64.8793 47.0828 64.5168 47.4213 64.2646L47.4193 64.2626ZM53.9271 65.7919C53.9333 65.3852 54.2515 65.1159 54.666 65.1159C55.2151 65.1128 55.6602 65.3312 55.8989 65.8408C56.1589 66.3961 56.2629 66.9614 55.7829 67.4746L55.6202 67.6519C55.1522 68.0596 54.5188 67.9639 54.2396 67.4148C53.9796 66.9109 53.9208 66.3519 53.9291 65.794L53.9271 65.7919ZM55.3404 56.7652C56.2021 57.2883 54.2609 55.5962 47.6049 58.3663L54.5287 55.1646C54.5287 55.1646 54.4814 56.2442 55.3425 56.7673L55.3404 56.7652ZM55.7845 62.4088C55.9618 62.5648 56.1573 62.7119 56.2931 62.9007C56.837 63.6562 57.5712 64.1913 58.3211 64.7144C58.3746 64.7546 58.4254 64.7984 58.4729 64.8455C58.4791 64.8507 58.4729 64.8684 58.4729 64.923C58.3952 64.8992 58.3195 64.8691 58.2467 64.833C57.5067 64.3874 56.798 63.9074 56.2811 63.1893C55.9843 62.7617 55.5726 62.4269 55.0934 62.2236C55.5307 62.1919 55.5344 62.1888 55.7866 62.4108L55.7845 62.4088ZM63.5403 64.0546L63.5985 63.9953C63.7025 64.0842 63.8138 64.1674 63.9105 64.2626C64.3926 64.7306 64.8673 65.2064 65.3546 65.6666C65.5051 65.8 65.6683 65.9184 65.8418 66.0202C66.0873 66.1762 66.3254 66.1959 66.5922 66.0202C66.9141 65.8085 67.2645 65.6401 67.6046 65.4565C67.6998 65.4045 67.8012 65.367 67.8995 65.3234L67.9572 65.4222C67.498 65.7212 67.043 66.0264 66.5781 66.3155C66.4769 66.3787 66.3602 66.4126 66.2409 66.4136C66.1217 66.4146 66.0044 66.3827 65.9021 66.3213C65.6941 66.2095 65.4757 66.1013 65.3114 65.9406C64.7212 65.3639 64.1518 64.7664 63.5777 64.1726C63.5549 64.1518 63.5549 64.0982 63.5424 64.0566L63.5403 64.0546ZM68.0934 51.2459C70.0959 54.5344 71.709 57.9628 71.9846 59.5285C71.2867 59.9705 70.5988 60.4473 69.7127 60.6569C69.7127 60.3808 69.6805 60.1629 69.7184 59.958C69.8443 59.2789 69.7813 58.6143 69.6342 57.9477C69.304 56.4459 68.654 55.0679 67.9405 53.7258C66.7903 51.5626 65.5881 49.4269 64.3967 47.2856C64.1014 46.7541 63.7577 46.2497 63.4488 45.7256C63.3229 45.5124 63.2299 45.2804 63.1222 45.0568C63.7613 45.4406 67.3165 49.9719 68.0955 51.248L68.0934 51.2459ZM61.6002 39.9286C65.4201 37.9308 69.2411 35.9359 73.0631 33.9439C76.0752 32.3718 79.088 30.8008 82.1012 29.2311C82.2754 29.1401 82.4537 29.058 82.6305 28.9711L82.6825 29.0663L63.9922 41.5016L63.9168 41.3945C64.5007 40.9696 65.1097 40.5791 65.7045 40.1704C66.2994 39.7617 66.9083 39.3535 67.5105 38.9463L69.3601 37.6957L71.2082 36.4441L73.0147 35.22C73.6307 34.804 74.2468 34.3868 74.8628 33.9683C75.4649 33.56 76.0666 33.1514 76.6677 32.7427C77.2813 32.3267 77.8944 31.9107 78.4737 31.4255C78.385 31.4506 78.2981 31.4817 78.2137 31.5186C75.1259 33.1254 72.0387 34.734 68.9519 36.3442C68.3378 36.6651 67.7403 37.0202 67.1273 37.3411C66.0966 37.885 65.0566 38.4112 64.027 38.9572C63.4446 39.2656 62.883 39.6083 62.2991 39.9172C61.8753 40.1428 61.6049 40.497 61.3813 40.9052C61.3355 40.9878 61.2773 41.0612 61.2117 41.161C60.9044 40.4398 60.9554 40.2656 61.6002 39.9286ZM60.6808 58.2768C60.8004 58.4458 60.8888 58.5571 60.9621 58.6772C62.0674 60.5172 63.2857 62.2868 64.6099 63.976C64.8502 64.2797 65.1299 64.5527 65.3998 64.8309C65.8273 65.2703 66.3296 65.3447 66.8865 65.1117C67.0862 65.0285 67.2848 64.9412 67.5875 64.8112C67.1579 65.5516 66.4435 65.7992 65.8169 65.4627C65.5629 65.3286 65.3316 65.1554 65.1315 64.9495C64.677 64.4732 64.2205 63.9932 63.8232 63.4706C62.7083 62.0021 61.7198 60.4484 60.7911 58.8561C60.6605 58.6325 60.6642 58.6304 60.6803 58.2768H60.6808ZM60.6517 59.5706L63.4077 63.6692L55.9197 62.0427L55.9057 61.9387L60.6517 59.5706ZM59.2685 55.2135L59.5425 55.564L59.4318 55.6259C59.3774 55.4872 59.3229 55.3498 59.2685 55.2135C59.2586 55.201 59.2482 55.1885 59.2383 55.1755V55.1636C59.2144 55.1622 59.191 55.1564 59.1692 55.1464C59.167 55.1446 59.1651 55.1425 59.1635 55.1402C58.7527 54.3855 58.3448 53.6296 57.9399 52.8725C57.9285 52.8517 57.9529 52.8121 57.9711 52.7388C58.0281 52.7941 58.0795 52.8549 58.1245 52.9203C58.4864 53.6067 58.845 54.2945 59.2004 54.9837C59.2218 55.0414 59.2346 55.1021 59.2383 55.1636C59.2427 55.1643 59.2471 55.1654 59.2513 55.1667L59.2685 55.2135ZM54.4845 37.7529C54.5552 37.4784 54.6821 37.2168 54.7965 36.9552C54.8064 36.9319 54.8182 36.9095 54.8319 36.8882C54.8419 36.8733 54.8529 36.8591 54.8646 36.8455C54.9567 36.7389 55.0913 36.7082 55.251 36.7415C55.2549 36.6963 55.2731 36.6535 55.303 36.6193C55.3607 36.5621 55.4507 36.572 55.5318 36.5772C55.5571 36.579 55.5824 36.579 55.6077 36.5772C56.579 36.5032 57.5455 36.7724 58.3387 37.338C59.0106 37.8106 59.5951 38.4112 60.1941 38.9806C60.4541 39.2292 60.5019 39.6852 60.2893 39.9686C59.8317 40.5776 59.3065 41.1282 58.6705 41.5598C58.6262 41.5849 58.5768 41.5996 58.5259 41.603C58.4984 41.6061 58.4682 41.5853 58.3928 41.5588C58.5665 41.421 58.7313 41.3102 58.8728 41.174C59.2368 40.824 59.6034 40.4736 59.9466 40.1023C60.2217 39.8054 60.2586 39.4263 60.0053 39.1257C58.7984 37.6968 57.3856 36.6334 55.3893 36.6932C55.3402 36.7019 55.2925 36.7176 55.2479 36.74C55.1631 36.8299 55.0518 36.9058 54.9967 37.0114C54.5807 37.8153 54.5193 38.6894 54.5287 39.5724C54.5422 40.6701 54.8225 41.7044 55.2739 42.6997C55.3383 42.8329 55.3891 42.9723 55.4257 43.1157C55.0617 42.7371 54.8657 42.2629 54.6977 41.784C54.2411 40.4652 54.1325 39.1174 54.484 37.7519L54.4845 37.7529ZM57.2566 38.5974C56.8677 38.2277 56.4979 37.8372 56.1189 37.4565C56.0513 37.3889 55.9795 37.325 55.8802 37.2319C56.8583 37.3276 59.2243 38.7503 59.5249 39.7242C59.1567 40.1922 58.6575 40.5282 58.1281 40.823C57.9571 40.9187 57.8328 40.8095 57.786 40.641C57.7267 40.4299 57.6669 40.2354 57.4974 40.069C57.4339 40.0076 57.4579 39.809 57.4974 39.6967C57.643 39.2755 57.5925 38.9172 57.2561 38.5974H57.2566ZM45.8998 44.4802C46.7641 44.2685 47.6449 44.3101 48.5253 44.334C47.6585 44.4952 46.7901 44.6393 45.8998 44.4802ZM47.3699 43.1079C46.5633 43.2145 45.8754 43.6175 45.3471 44.2586C45.2235 44.4241 45.0683 44.5634 44.8905 44.6684C44.9071 44.5862 44.9051 44.4942 44.9425 44.424C45.0272 44.2779 45.1197 44.1364 45.2197 44.0002C46.0875 42.7522 46.0548 42.9238 47.309 42.7896C49.1394 42.5941 50.9703 42.405 52.8018 42.2223C53.3707 42.1656 53.9421 42.1365 54.5121 42.0944L54.5277 42.2093C54.4044 42.2358 54.2827 42.2717 54.1585 42.2868C51.898 42.5546 49.6319 42.8047 47.3725 43.1042L47.3699 43.1079ZM49.4348 52.4783C50.9948 50.9594 52.5985 49.4919 54.2708 48.0885C54.0929 48.4727 49.9418 52.2162 49.4374 52.4747L49.4348 52.4783ZM50.4145 49.7311C49.5232 50.6541 48.5508 51.4991 47.6345 52.3982C46.4905 53.523 45.3653 54.6685 44.2306 55.8037C44.0944 55.94 43.9524 56.0689 44.1344 56.3362L43.5655 56.291C43.7767 56.0424 43.8931 55.8869 44.0278 55.7496C45.5327 54.2187 47.0391 52.6898 48.5471 51.1627C50.1591 49.5257 51.7888 47.9023 53.3831 46.2466C54.2853 45.3106 55.1272 44.3169 56.0091 43.3606C56.2663 43.0926 56.5419 42.8429 56.8339 42.6134C57.0044 42.4735 57.2088 42.3898 57.4059 42.5125C57.162 42.6685 56.9119 42.7699 56.7408 42.9477C56.1547 43.5556 55.603 44.1957 55.0274 44.8145C53.4975 46.4546 51.9802 48.1108 50.4171 49.7275L50.4145 49.7311ZM56.3139 47.4338C56.1475 47.5815 55.9343 47.6756 55.7419 47.7947L55.6571 47.686C55.8994 47.4717 56.1532 47.27 56.382 47.0422C57.1633 46.2753 57.7977 45.3719 58.254 44.3767C58.4162 44.0194 58.475 43.6398 58.3346 43.2072C58.8088 43.2384 59.1312 43.4547 59.2243 43.8109C59.3444 44.2711 59.3283 44.7152 58.9388 45.0667C58.0694 45.8535 57.1989 46.6486 56.3165 47.4301L56.3139 47.4338ZM57.9342 47.0661C57.912 46.9582 57.9192 46.8464 57.955 46.7422C57.9907 46.6381 58.0538 46.5454 58.1375 46.4739C58.6752 45.9913 59.217 45.5134 59.7604 45.0303C59.9731 45.5254 59.9351 45.6809 59.5446 45.9596C59.476 46.0085 59.4037 46.0537 59.3366 46.1052C58.5171 46.7339 58.1141 47.5274 58.3445 48.5804C58.4126 48.8924 58.4604 49.2111 58.5005 49.5289C58.5207 49.6911 58.5041 49.8575 58.5041 50.0223L58.3694 50.0359C58.2893 49.5647 58.2004 49.0947 58.1323 48.622C58.0611 48.0999 58.0122 47.5799 57.9368 47.0625L57.9342 47.0661ZM59.6902 50.2288L59.7843 50.2964C59.723 50.4357 59.6939 50.6084 59.594 50.7077C59.3709 50.9344 59.1333 51.1591 58.866 51.3255C58.2987 51.6759 57.6825 51.9307 57.0502 52.1367C57.9467 51.5012 59.0615 51.2163 59.6928 50.2251L59.6902 50.2288ZM46.0995 58.3616C46.9883 57.9331 47.8779 57.5064 48.7681 57.0814C48.8867 57.0117 49.0021 56.9363 49.1212 56.8687C49.1613 56.8458 49.2013 56.824 49.2424 56.8037C51.2662 55.7917 53.2913 54.7817 55.3175 53.7736C55.3635 53.7589 55.4106 53.7485 55.4585 53.7424C55.5026 53.8766 55.5398 54.0131 55.5697 54.1511C55.72 55.0658 56.2307 55.7631 56.9025 56.3606C57.4027 56.8052 58.0257 56.8697 58.658 56.8915C58.7412 56.8915 58.8249 56.8822 58.9087 56.8806C58.9227 56.8806 58.9367 56.8983 58.9726 56.9228C58.9107 57.0959 58.7495 57.0819 58.6159 57.098C57.9034 57.1801 57.1854 57.0008 56.5952 56.5933C56.005 56.1859 55.5828 55.5781 55.407 54.8828C55.3394 54.6228 55.303 54.3529 55.0539 54.1491C54.9197 54.2073 54.7814 54.2614 54.6483 54.3259C52.8553 55.196 51.0624 56.0663 49.2694 56.9368C49.1197 57.0091 48.9574 57.0606 48.8014 57.1219L46.0522 58.5207L46.0142 58.4542C46.0423 58.423 46.0641 58.3788 46.0995 58.3616ZM44.8239 58.644C44.8858 59.0366 45.1573 59.2056 45.4479 59.3491C46.3507 59.7958 47.3002 60.088 48.3079 60.1374C48.8279 60.1629 49.3479 60.1421 49.9501 60.1421C49.7421 60.4135 49.5149 60.3932 49.3329 60.4083C47.881 60.5258 46.5082 60.2523 45.2441 59.5108C45.0563 59.3983 44.8908 59.2522 44.7558 59.0797C44.6856 58.9882 44.5624 58.8171 44.8239 58.644ZM27.3629 60.1904C28.2146 60.0989 29.0633 60.0022 29.9254 59.9939C30.8775 59.985 31.8073 60.1041 32.7428 60.23C32.9778 60.2524 33.2148 60.2449 33.4479 60.2076C34.6533 60.0578 35.8539 59.8561 37.0635 59.7505C39.0332 59.5789 41.0092 59.4718 42.9462 59.036C43.2894 58.9586 43.63 58.8691 43.9909 58.7802L44.0684 59.0251C44.0367 59.0626 44.0211 59.101 43.9966 59.1068C42.2635 59.554 40.5329 60.0121 38.794 60.4364C38.6947 60.4608 38.5954 60.4816 38.4961 60.4998C38.3827 60.5199 38.2692 60.5373 38.1555 60.5518C37.567 60.6138 36.9729 60.5935 36.3901 60.4915C36.4878 60.5435 36.5809 60.6163 36.6849 60.6382C37.3947 60.7864 38.1123 60.8982 38.8169 61.0687C40.0302 61.3627 41.2399 61.6747 42.446 62.0047C43.4548 62.2803 44.4412 62.6547 45.462 62.8695C47.1639 63.2278 48.8815 63.5148 50.5991 63.793C53.0509 64.1898 55.5084 64.5506 57.9633 64.9297C58.1496 64.9532 58.3255 65.0287 58.4708 65.1476C58.2779 65.1544 58.0819 65.1871 57.8936 65.1627C56.4693 64.9791 55.0445 64.7987 53.6249 64.5907C51.5186 64.2742 49.415 63.9426 47.3142 63.5959C45.6325 63.31 43.9726 62.9085 42.3461 62.3942C40.5599 61.8368 38.7841 61.22 36.9288 60.907C36.6459 60.8597 36.3599 60.8222 36.0744 60.7957C33.9424 60.5955 31.8135 60.3116 29.6633 60.2955C28.9171 60.2898 28.1777 60.2908 27.4409 60.4182C27.2664 60.452 27.0859 60.435 26.9209 60.3693C27.0685 60.308 27.211 60.2066 27.3629 60.1904ZM26.9469 66.1507C26.9432 66.1445 26.9401 66.1382 26.937 66.132C26.8356 66.0956 26.7253 66.0727 26.639 66.0145C25.2839 65.1024 23.7988 64.5584 22.167 64.4206C21.9189 64.3988 21.6744 64.3464 21.439 64.2646C22.2929 64.1742 23.1249 64.3 23.9444 64.5189C25.0177 64.806 25.9791 65.3171 26.8512 65.9988C26.8567 66.0033 26.862 66.0082 26.8668 66.0134C26.8943 66.0506 26.917 66.0912 26.9344 66.1341L26.9547 66.1413C26.9555 66.1411 26.9564 66.1411 26.9573 66.1413C27.0756 66.0668 27.1839 65.9775 27.2797 65.8756C27.4092 65.7361 27.5129 65.5746 27.5859 65.3988C27.6052 65.3535 27.6223 65.3072 27.6379 65.2594C27.9915 64.1861 28.3545 63.1165 28.7055 62.0422C28.7451 61.8953 28.7648 61.7439 28.7643 61.5918C28.7861 61.0833 28.6358 60.9023 28.1158 60.9257C27.4585 60.9559 26.8039 61.0412 26.1487 61.1046C25.9516 61.1233 25.7555 61.1483 25.5319 61.0895C25.5938 61.0583 25.6536 61.0079 25.7186 60.999C26.4217 60.9065 27.1226 60.8108 27.8298 60.739C28.0623 60.7151 28.3498 60.6709 28.5277 60.778C28.94 61.0271 29.3316 60.8597 29.7335 60.8373C30.3752 60.8014 31.0148 60.764 31.6367 61.0016C32.0387 61.1576 32.3523 61.401 32.4911 61.8087C32.6237 62.1723 32.72 62.5482 32.7787 62.9308C32.878 63.6812 33.0142 64.429 32.8582 65.1981C32.7625 65.6697 32.5535 65.9749 32.0839 66.0821C31.7381 66.1601 31.3929 66.2511 31.0439 66.2942C30.2057 66.3982 29.3654 66.4814 28.5245 66.5589C28.1267 66.5953 27.7757 66.5069 27.6379 66.0717C27.3982 66.1325 27.198 66.3395 26.9588 66.1439L26.9453 66.1533L26.9469 66.1507ZM13.8845 66.9343C12.82 67.0524 11.8102 67.4023 10.7993 67.7357C10.6329 67.7908 10.4644 67.8397 10.297 67.8917L10.2606 67.81C10.2958 67.7749 10.3363 67.7456 10.3807 67.7232C11.1945 67.4673 11.9355 67.0155 12.8018 66.8912C13.8715 66.7352 14.9302 66.5084 15.9977 66.3363C17.7709 66.0503 19.5608 65.9567 21.3537 65.8985C21.9283 65.8798 22.5071 65.8985 23.077 65.8325C23.622 65.7716 23.9761 66.002 24.3006 66.4565C24.1716 66.4877 24.0702 66.5313 23.9678 66.5329C23.4769 66.5417 22.9865 66.5433 22.4962 66.5402C19.6195 66.5168 16.7465 66.6166 13.8855 66.9343H13.8845ZM19.7688 70.3835C19.423 70.527 19.3627 70.5322 18.9149 70.4709C18.2462 70.3788 17.5765 70.2946 16.9098 70.1901C15.8802 70.0278 14.8527 69.8515 13.8247 69.681L13.8403 69.577L19.7688 70.3835ZM26.5865 61.5799C26.417 62.1181 26.1123 62.48 25.4945 62.5122C25.2496 62.5252 25.0099 62.6282 24.6708 62.715C24.7432 62.6059 24.8213 62.5007 24.9048 62.3999C25.1835 62.1072 25.481 61.8316 25.7457 61.5268C25.9994 61.2351 26.2906 61.1743 26.691 61.2793C26.6421 61.4244 26.6125 61.5014 26.5875 61.5799H26.5865ZM26.7451 63.3006C26.8876 63.013 27.0197 62.7208 27.1559 62.4306L27.2703 62.4899C26.9184 63.4121 26.4629 64.2913 25.9126 65.1107C25.8897 64.7618 26.1289 64.522 26.2631 64.2407C26.4154 63.923 26.5896 63.6162 26.7461 63.3006H26.7451ZM26.0603 62.6802L24.8944 64.6312L23.2304 64.1674C23.8575 63.1154 24.8112 62.7119 26.0613 62.6802H26.0603ZM27.6905 61.2559C27.6014 61.5249 27.5126 61.7939 27.4242 62.063C27.3436 61.739 27.4481 61.4748 27.6905 61.2559ZM26.8221 60.0188H26.8356H26.8319L26.8205 60.0256C26.7997 60.1098 26.8013 60.2336 26.7493 60.2632C26.5804 60.3616 26.3871 60.4099 26.1918 60.4026L26.821 60.0246C26.8111 60.0277 26.8018 60.0308 26.7929 60.0329C26.6135 60.0807 26.5725 59.9044 26.5049 59.7963C26.0467 59.0683 25.5793 58.3439 25.1492 57.5988C24.7474 56.8947 24.2532 56.2477 23.6797 55.6748C23.3195 55.3121 22.9891 54.921 22.6917 54.5053C24.6453 55.9093 25.8278 57.8936 26.8221 60.0188ZM21.9055 52.2375L22.4775 52.5854L22.1197 52.8454L21.8431 52.3119L21.9055 52.2375ZM21.0215 51.6655C21.1195 51.793 21.2106 51.9256 21.2945 52.0628C21.4723 52.3883 21.647 52.7159 21.8035 53.0508C22.0199 53.5188 21.8841 53.9832 21.4052 54.3082C21.4572 54.2167 21.5149 54.1277 21.5612 54.0336C21.7281 53.6946 21.7443 53.3613 21.5513 53.0196C21.3433 52.6525 21.1551 52.2755 20.9622 51.9006C20.9394 51.8452 20.922 51.7877 20.9102 51.729L21.0215 51.6655ZM21.9117 57.3855C22.1129 57.1313 22.2268 57.1349 22.4416 57.3486C23.2377 58.139 23.8898 59.0438 24.5127 59.9715C24.5741 60.081 24.6294 60.1938 24.6781 60.3095C24.4982 60.3095 24.3708 60.3371 24.2621 60.3054C22.985 59.9414 21.7775 60.1868 20.6351 60.7734C19.5863 61.31 19.1006 62.2502 19.2457 63.3593C19.3096 63.8507 19.4323 63.9438 19.9081 63.8954C20.3127 63.8538 20.6881 63.7535 21.0189 63.469C21.4085 63.1447 21.823 62.8513 22.2585 62.5918C23.1503 62.0416 24.0551 61.5133 24.9594 60.9834C25.1895 60.8415 25.447 60.7498 25.715 60.7146C25.6021 60.7905 25.4919 60.8706 25.3754 60.9418C24.2923 61.5986 23.2029 62.2455 22.127 62.9142C21.815 63.1092 21.503 63.3302 21.2534 63.5985C20.8176 64.0707 20.2409 64.0993 19.6793 64.1877C19.4573 64.2225 19.3517 64.0317 19.2763 63.8606C18.8832 62.9704 18.9643 62.115 19.4994 61.3069C19.6385 61.0969 19.7975 60.9008 19.9742 60.7214C20.5332 60.1494 21.2222 59.8306 22.0178 59.8597C22.7073 59.8847 23.3937 59.998 24.0811 60.0724L24.2954 60.0958C24.3001 60.0599 24.3053 60.024 24.3105 59.9882C23.5684 59.7412 22.7947 59.6814 22.0126 59.6892C21.2097 59.697 20.5103 59.9866 19.9144 60.5409L19.8405 60.4707C20.0387 60.087 20.1973 59.6762 20.4422 59.3267C20.9019 58.6559 21.4073 58.0205 21.9101 57.384L21.9117 57.3855ZM18.8796 58.4152C18.8999 58.9435 18.8837 59.4728 18.8837 60.1C18.8104 59.958 18.7527 59.8956 18.748 59.8296C18.7075 59.2056 18.6612 58.5816 18.6482 57.9576C18.6505 57.7048 18.6892 57.4536 18.7631 57.2119C18.8078 57.0512 18.9233 56.9103 19.0075 56.7605L19.1063 56.8312C18.8791 57.3377 18.8562 57.8697 18.878 58.4136L18.8796 58.4152ZM18.6149 52.3119L20.0823 51.2937C20.1125 51.3343 20.1421 51.3749 20.1723 51.4149C19.7511 51.8709 19.2779 52.2448 18.6149 52.3119ZM16.0019 54.251C14.8678 54.6904 13.7139 55.083 12.5949 55.5562C11.2897 56.1079 10.0177 56.7387 8.7219 57.3148C7.20922 57.9872 5.68718 58.6382 4.16722 59.295C4.01954 59.359 3.85938 59.3954 3.6181 59.4723C4.77094 58.4297 15.1621 53.9967 16.3961 53.991C16.3435 54.2 16.1413 54.1948 16.0019 54.2489V54.251ZM17.8645 54.6025C17.3815 55.2265 16.9452 55.9025 16.3935 56.462C15.1621 57.71 13.8767 58.906 12.6027 60.1156C12.3645 60.3412 12.078 60.516 11.8133 60.7141L11.7421 60.6101C13.7981 58.5732 16.0581 56.7345 17.7845 54.3773C17.7938 54.3643 17.8458 54.382 17.9223 54.3898C17.903 54.4626 17.9051 54.5479 17.8645 54.5999V54.6025ZM16.8173 48.2159C16.7008 48.2008 16.5547 48.2601 16.4533 48.3297C16.3444 48.4098 16.2554 48.5139 16.1933 48.6339C15.5817 49.7779 15.6041 51.2381 16.6805 52.2115C16.8682 52.3811 17.0773 52.5272 17.2723 52.6889C17.3846 52.7825 17.4886 52.886 17.6701 53.0529C17.1563 53.2744 16.7533 53.4689 16.2577 53.4465C15.9291 52.5017 15.5521 51.5881 15.4231 50.6193C15.3093 49.7649 15.498 48.9345 16.0815 48.2486C16.3373 47.947 16.6165 47.8326 17.057 47.9616C17.6883 48.1462 18.3424 48.245 18.9113 48.6053C19.4802 48.9657 19.9029 49.4675 20.2503 50.0343C20.3169 50.1425 20.3314 50.2818 20.4063 50.5153C20.0293 50.0884 19.7303 49.7493 19.4318 49.4103C18.735 48.6251 17.8089 48.3422 16.8173 48.2159ZM17.6825 63.3661C17.7073 63.5141 17.7231 63.6634 17.7299 63.8133L17.617 63.8393C17.3336 63.1461 17.0507 62.453 16.745 61.7042C17.1703 61.856 17.5047 61.7042 17.8219 61.5289C18.1 61.3783 18.3211 61.1409 18.4516 60.8529L17.9233 60.3293C18.2171 60.1925 18.3689 60.3293 18.4953 60.4749C18.6487 60.6553 18.695 60.8831 18.5619 61.0854C18.4287 61.2876 18.2712 61.5159 18.0689 61.6444C17.9917 61.6904 17.925 61.752 17.873 61.8254C17.8211 61.8987 17.7851 61.9821 17.7673 62.0702C17.6539 62.4966 17.5817 62.9241 17.6825 63.3661ZM12.7789 65.8428C14.6333 65.4008 16.5032 65.0218 18.3674 64.6214C18.9612 64.494 19.5592 64.3848 20.1557 64.2683C20.2545 64.2485 20.3637 64.1939 20.4515 64.2199C21.1379 64.4279 21.8581 64.56 22.5269 65.0998C22.257 65.158 22.0755 65.2136 21.8899 65.235C20.1286 65.4367 18.3601 65.5896 16.6061 65.8408C14.4981 66.1429 12.417 66.5896 10.415 67.3436C10.1784 67.433 9.94702 67.5303 9.71302 67.6317C9.5331 67.7102 9.3641 67.7591 9.18106 67.5079C10.349 66.8246 11.4878 66.1507 12.7789 65.8428ZM25.065 73.7833L23.999 72.4053C24.9511 73.5097 26.0961 73.3657 26.6406 73.2097L26.9583 73.0943C26.8556 73.141 26.7494 73.1796 26.6406 73.2097L25.065 73.7833ZM35.5586 73.1234C33.4817 73.0194 31.4173 72.7916 29.3586 72.4994C28.0888 72.3179 26.8106 72.1999 25.5387 72.0257C24.5907 71.8957 23.6511 71.7079 22.7042 71.5691C22.0214 71.4693 21.3324 71.4131 20.6465 71.3283C19.7937 71.2243 18.9357 71.1489 18.0902 71.0013C16.1106 70.6555 14.1382 70.28 12.1622 69.8989C11.9069 69.8469 11.6698 69.7007 11.4285 69.5869C11.0614 69.4158 10.6911 69.2494 10.3365 69.0575C9.95534 68.8495 9.58874 68.6176 9.2159 68.3961C9.23618 68.3498 9.25646 68.3035 9.27622 68.2572C9.4291 68.3139 9.58822 68.3612 9.73382 68.4288C10.0723 68.5848 10.4098 68.7408 10.7416 68.9067C11.8336 69.4563 12.9745 69.8458 14.1944 70.0289C15.4944 70.2239 16.7824 70.5218 18.0824 70.735C19.2155 70.9207 20.359 71.047 21.4962 71.2072C22.0812 71.2909 22.6605 71.411 23.2455 71.4958C25.2173 71.7804 27.19 72.0595 29.1636 72.333C30.2842 72.489 31.4059 72.6325 32.528 72.7724C33.0303 72.8348 33.5347 72.8826 34.0391 72.9211C34.7952 72.9788 35.5529 73.0251 36.3121 73.126C36.0604 73.1255 35.8082 73.1364 35.5586 73.1234ZM83.8349 68.2167C83.2535 68.7887 82.6347 69.3243 81.889 69.6607C81.4366 69.8656 80.9281 69.9436 80.4538 70.1048C79.9125 70.2894 79.3707 70.4807 78.8465 70.7085C73.9315 72.8447 68.8563 74.4629 63.5835 75.4405C61.8857 75.7525 60.1697 75.9714 58.4407 75.8404C56.8224 75.7182 55.2115 75.5065 53.5963 75.3495C52.2339 75.2174 50.8715 75.076 49.506 74.9954C47.8717 74.8992 46.2555 74.6772 44.6399 74.4276C43.0871 74.1878 41.5271 73.9923 39.9734 73.7604C38.8923 73.5987 37.8154 73.4078 36.7457 73.1405C37.3729 73.1873 38.001 73.2295 38.6281 73.2815C40.5319 73.4375 42.4366 73.5867 44.3383 73.7697C45.4823 73.88 46.619 74.0552 47.7604 74.1894C49.1368 74.3516 50.5164 74.5014 51.8928 74.6574C53.2193 74.8087 54.5448 74.9569 55.8724 75.1186C57.046 75.2621 58.2176 75.4265 59.3912 75.5752C60.3751 75.6995 61.3537 75.583 62.3209 75.4317C68.3529 74.491 74.1192 72.6679 79.6827 70.1797C80.8267 69.669 81.9363 69.0939 82.9717 68.3836C83.1209 68.2796 83.2587 68.1626 83.397 68.0549C83.2686 67.5817 82.9243 67.3821 82.5562 67.2635C81.8661 67.0415 81.1693 66.8215 80.4595 66.6837C78.9339 66.3795 77.3882 66.1866 75.8347 66.1065C74.9413 66.0649 74.0516 65.9354 73.1608 65.8403C72.9825 65.8215 72.7786 65.8231 72.7396 65.5802C72.8436 65.3722 73.0334 65.4102 73.1905 65.4243C73.9294 65.4929 74.6688 65.5678 75.4057 65.6588C76.931 65.8467 78.4563 66.0413 79.9817 66.2427C80.7351 66.3426 81.4897 66.4398 82.2364 66.5875C82.7117 66.6816 83.176 66.8475 83.6326 67.0155C84.1307 67.1954 84.2337 67.8251 83.8349 68.2167ZM94.2562 53.4944C93.7414 54.2031 93.1871 54.8859 92.6161 55.5505C92.4487 55.745 92.1798 55.8672 91.9375 55.98C91.1575 56.344 90.5335 56.8926 89.9745 57.54C88.7442 58.9601 87.6558 60.4858 86.5612 62.012C85.9227 62.9012 85.1941 63.728 84.5129 64.5844C84.2732 64.8871 84.0579 65.2085 83.8224 65.5147C83.6893 65.6879 83.5379 65.8465 83.4386 65.9609L81.226 65.3093C81.2494 65.263 81.2593 65.2053 81.2921 65.1845C82.6253 64.3437 83.8505 63.3562 85.0184 62.3074C86.2494 61.2011 87.443 60.0542 88.5991 58.8665C89.2085 58.2425 89.7025 57.5031 90.2454 56.8135C90.3068 56.735 90.3967 56.6383 90.3915 56.5535C90.3666 56.1485 90.6739 56.058 90.9438 55.9295C91.3551 55.734 91.7758 55.5577 92.1798 55.3466C92.6941 55.0778 93.0571 54.6852 93.198 54.0924C93.3717 53.3644 93.133 52.9167 92.3967 52.7248C92.199 52.6821 91.9984 52.6543 91.7966 52.6416C91.6161 52.6229 91.4326 52.6161 91.1955 52.6C91.288 52.5641 91.3203 52.5397 91.3515 52.5417C92.2084 52.5974 93.0675 52.6213 93.9197 52.7269C94.3883 52.7825 94.5281 53.1163 94.2562 53.4944ZM94.4886 52.2006C96.3606 51.4326 98.3564 51.0774 100.337 50.4846C99.2659 50.039 98.243 50.0322 97.1853 50.2199C95.9373 50.4415 94.6795 50.5902 93.4252 50.7659C93.285 50.7875 93.1417 50.7562 93.0233 50.6781C93.0992 50.6465 93.1777 50.6213 93.2578 50.6027C94.8115 50.3749 96.3632 50.1295 97.9217 49.9371C98.3995 49.8783 98.8993 49.9371 99.3818 49.9963C99.9835 50.0733 100.578 50.2075 101.174 50.3219C101.284 50.3427 101.389 50.3869 101.593 50.4508C99.1697 51.1029 96.8416 51.704 94.486 52.2006H94.4886Z" fill="url(#paint3_radial_463_20318)"/>
<path d="M37.1689 68.6399H37.1809H37.2464L37.3182 68.644L37.2594 68.6284L37.248 68.6383L37.1689 68.6399Z" fill="url(#paint4_radial_463_20318)"/>
<path d="M82.2376 66.5832C81.4925 66.4355 80.7364 66.3383 79.9829 66.2384C78.4576 66.0367 76.9322 65.842 75.4069 65.6545C74.6701 65.5635 73.9306 65.4886 73.1917 65.42C73.0357 65.4054 72.8444 65.368 72.7409 65.576C72.7799 65.8204 72.9837 65.8188 73.1621 65.836C74.0528 65.9311 74.9426 66.0606 75.8359 66.1022C77.3895 66.1823 78.9352 66.3752 80.4608 66.6794C81.1706 66.8172 81.8648 67.0372 82.5574 67.2592C82.9256 67.3778 83.2698 67.5774 83.3982 68.0506C83.2599 68.1583 83.1221 68.2768 82.9729 68.3793C81.9376 69.0896 80.8258 69.6647 79.6839 70.1754C74.1199 72.6636 68.3531 74.4867 62.3222 75.4273C61.355 75.5787 60.3763 75.6951 59.3925 75.5709C58.2189 75.4221 57.0473 75.2589 55.8737 75.1143C54.5482 74.9526 53.2217 74.8023 51.8941 74.6531C50.5166 74.4971 49.1381 74.3483 47.7617 74.1851C46.6177 74.0509 45.4831 73.8731 44.3396 73.7654C42.4379 73.5824 40.5332 73.4358 38.6295 73.2772C38.0023 73.2252 37.3742 73.183 36.7471 73.1362C37.8167 73.4035 38.8936 73.5943 39.9747 73.7561C41.5285 73.988 43.0885 74.1835 44.6412 74.4232C46.2568 74.6728 47.873 74.8949 49.5073 74.9911C50.8728 75.0717 52.2352 75.2131 53.5976 75.3452C55.2127 75.5012 56.8216 75.7139 58.4419 75.8361C60.1709 75.9671 61.8869 75.7508 63.5847 75.4362C68.8575 74.4607 73.9327 72.8424 78.8477 70.7042C79.3719 70.4764 79.9137 70.2851 80.4551 70.1005C80.9293 69.9393 81.4379 69.8613 81.8903 69.6564C82.6359 69.32 83.2547 68.7823 83.8361 68.2124C84.2349 67.8208 84.132 67.1911 83.6354 67.007C83.1799 66.8427 82.7119 66.6773 82.2376 66.5832Z" fill="white"/>
<path d="M64.3985 47.2877C65.5899 49.4291 66.7905 51.5647 67.9423 53.7279C68.6558 55.0701 69.3058 56.4481 69.636 57.9498C69.7831 58.6165 69.844 59.281 69.7202 59.9601C69.6823 60.165 69.7145 60.3829 69.7145 60.659C70.5985 60.451 71.2885 59.9726 71.9864 59.5306C71.7108 57.9649 70.0977 54.5386 68.0952 51.2481C67.3152 49.9694 63.761 45.4407 63.124 45.0601C63.2317 45.2837 63.3247 45.5156 63.4506 45.7288C63.7595 46.2519 64.1032 46.7563 64.3985 47.2877Z" fill="white"/>
<path d="M27.4403 60.4189C28.1772 60.2915 28.9166 60.2905 29.6628 60.2962C31.813 60.3123 33.9398 60.5962 36.0739 60.7964C36.3594 60.8229 36.6459 60.8604 36.9282 60.9077C38.7836 61.2197 40.5594 61.8374 42.3456 62.3949C43.972 62.909 45.632 63.3103 47.3137 63.5961C49.4141 63.9462 51.5175 64.2767 53.6239 64.5877C55.0435 64.7998 56.4683 64.9782 57.8926 65.1597C58.0808 65.1841 58.2768 65.1514 58.4698 65.1446C58.3244 65.0257 58.1485 64.9502 57.9622 64.9267C55.5073 64.5476 53.0498 64.1868 50.598 63.79C48.882 63.5118 47.1629 63.2248 45.4609 62.8665C44.4402 62.6517 43.4537 62.2774 42.4449 62.0018C41.2396 61.6724 40.0299 61.3604 38.8158 61.0658C38.1118 60.8957 37.3942 60.7834 36.6838 60.6352C36.5798 60.6134 36.4868 60.5395 36.389 60.4886H36.3796C35.8706 60.6342 35.3693 60.5588 34.867 60.4948L34.8716 60.3856L36.3796 60.4896H36.3838H36.3874C36.9711 60.5918 37.5662 60.6121 38.1554 60.5499C38.2695 60.5371 38.383 60.5198 38.496 60.4979C38.5954 60.4797 38.6947 60.4589 38.794 60.4345C40.5329 60.0102 42.2634 59.5505 43.9966 59.1049C44.021 59.0992 44.0366 59.0607 44.0684 59.0232L43.9909 58.7783C43.63 58.8672 43.2894 58.9567 42.9462 59.0342C41.0092 59.4699 39.0332 59.577 37.0634 59.7486C35.8539 59.8526 34.6532 60.0559 33.4479 60.2057C33.2147 60.243 32.9778 60.2505 32.7428 60.2281C31.8068 60.1022 30.8775 59.9831 29.9254 59.992C29.0632 60.0003 28.2146 60.096 27.3628 60.1885C27.211 60.2047 27.0685 60.3061 26.9219 60.3679C27.0863 60.4341 27.2662 60.4518 27.4403 60.4189Z" fill="white"/>
<path d="M36.3887 60.4897C36.9715 60.5918 37.5657 60.6121 38.1541 60.5501C37.5657 60.612 36.9715 60.5917 36.3887 60.4897Z" fill="white"/>
<path d="M93.9153 52.7237C93.0646 52.6197 92.204 52.5942 91.3471 52.5386C91.3169 52.5386 91.2847 52.5609 91.1911 52.5968C91.4308 52.6129 91.6117 52.6197 91.7922 52.6384C91.994 52.6512 92.1946 52.679 92.3923 52.7216C93.1286 52.9135 93.3673 53.3586 93.1936 54.0892C93.0527 54.682 92.6897 55.0772 92.1754 55.3435C91.7724 55.5546 91.3507 55.7309 90.9394 55.9264C90.6695 56.0548 90.3622 56.1453 90.3872 56.5504C90.3924 56.6336 90.3024 56.7303 90.241 56.8104C89.6982 57.4999 89.2042 58.2383 88.5947 58.8633C87.4393 60.0479 86.2457 61.1948 85.014 62.3042C83.8461 63.353 82.622 64.3405 81.2877 65.1813C81.255 65.2021 81.2451 65.2599 81.2217 65.3061L83.4343 65.9577C83.5336 65.8433 83.6849 65.6847 83.818 65.5115C84.0536 65.2058 84.2689 64.8839 84.5086 64.5813C85.1898 63.7227 85.9183 62.898 86.5569 62.0088C87.6488 60.4847 88.7408 58.959 89.9701 57.5368C90.5281 56.892 91.1531 56.3439 91.9331 55.9768C92.1754 55.864 92.4443 55.7418 92.6117 55.5473C93.1837 54.8827 93.737 54.2 94.2518 53.4912C94.5274 53.1163 94.3875 52.7825 93.9153 52.7237Z" fill="white"/>
<path d="M61.3793 40.9025C61.6029 40.4969 61.8733 40.1428 62.2971 39.9145C62.879 39.6056 63.4411 39.2629 64.0251 38.9546C65.0547 38.4086 66.0947 37.8823 67.1253 37.3384C67.7384 37.015 68.3359 36.6624 68.95 36.3416C72.0353 34.7292 75.1226 33.1207 78.2117 31.516C78.2961 31.479 78.383 31.4479 78.4717 31.4229C77.8924 31.9075 77.2793 32.3235 76.6658 32.7401C76.0643 33.1481 75.4626 33.5566 74.8608 33.9657C74.2452 34.3817 73.6291 34.7989 73.0128 35.2173L71.2063 36.4414L69.3582 37.6931L67.5091 38.9478C66.9069 39.355 66.3027 39.7601 65.7031 40.1719C65.1036 40.5837 64.4993 40.9711 63.9154 41.396L63.9908 41.5031L82.6832 29.0678L82.6312 28.9727C82.4544 29.059 82.276 29.1411 82.1018 29.2327C79.0889 30.8027 76.0762 32.3736 73.0637 33.9454C69.2414 35.9381 65.4201 37.9324 61.5998 39.9285C60.9555 40.2655 60.9046 40.4397 61.2103 41.1583C61.2748 41.0611 61.3336 40.9852 61.3793 40.9025Z" fill="white"/>
<path d="M9.71262 67.6315C9.94454 67.5301 10.1806 67.4329 10.4146 67.3435C12.4166 66.5894 14.4977 66.1428 16.6057 65.8406C18.3597 65.5895 20.1282 65.4366 21.8895 65.2348C22.0751 65.2135 22.2566 65.1579 22.5265 65.0996C21.8577 64.5599 21.1375 64.4273 20.4511 64.2198C20.3653 64.1938 20.2541 64.2484 20.1553 64.2681C19.5588 64.3846 18.9593 64.4938 18.367 64.6212C16.5028 65.0216 14.6329 65.4012 12.7785 65.8427C11.4874 66.1506 10.3486 66.8245 9.18066 67.5067C9.3637 67.7589 9.5327 67.7101 9.71262 67.6315Z" fill="white"/>
<path d="M19.91 60.5375C20.5059 59.9832 21.2053 59.6936 22.0082 59.6858C22.7881 59.678 23.564 59.7378 24.306 59.9848C24.3008 60.0207 24.2956 60.0565 24.2909 60.0924L24.0767 60.069C23.3893 59.9947 22.7029 59.8813 22.0134 59.8563C21.2162 59.8272 20.5288 60.1486 19.9698 60.718C19.7931 60.8975 19.6341 61.0935 19.495 61.3035C18.961 62.1116 18.8788 62.9675 19.2719 63.8572C19.3473 64.0278 19.4529 64.2212 19.6749 64.1843C20.2365 64.0959 20.8132 64.0673 21.249 63.5952C21.497 63.3263 21.8095 63.1058 22.1225 62.9108C23.1984 62.2421 24.2878 61.5952 25.371 60.9385C25.4875 60.8677 25.5977 60.7871 25.7105 60.7112C25.4425 60.7465 25.185 60.8381 24.955 60.9801C24.0507 61.5099 23.1459 62.0383 22.2541 62.5884C21.8186 62.848 21.4041 63.1413 21.0144 63.4657C20.6827 63.7501 20.3083 63.8505 19.9037 63.8921C19.4279 63.9404 19.3052 63.8474 19.2412 63.356C19.0962 62.2468 19.5818 61.3066 20.6307 60.77C21.7747 60.1855 22.9805 59.938 24.2577 60.302C24.3684 60.3337 24.4958 60.3061 24.6737 60.3061C24.6249 60.1905 24.5697 60.0776 24.5083 59.9681C23.8843 59.0405 23.2333 58.1357 22.4371 57.3453C22.2224 57.1315 22.1085 57.1279 21.9073 57.3822C21.4044 58.0187 20.899 58.6551 20.4357 59.3197C20.1908 59.6707 20.0322 60.0815 19.834 60.4637L19.91 60.5375Z" fill="white"/>
<path d="M26.9611 66.144C27.2003 66.3395 27.4005 66.1326 27.6402 66.0717C27.778 66.5059 28.129 66.5954 28.5268 66.559C29.3677 66.4815 30.208 66.3967 31.0462 66.2943C31.3967 66.2511 31.742 66.1601 32.0862 66.0821C32.5543 65.9781 32.7623 65.6708 32.8605 65.1981C33.0165 64.4291 32.8803 63.6813 32.781 62.9309C32.7224 62.5483 32.626 62.1724 32.4934 61.8088C32.3546 61.4011 32.041 61.1556 31.639 61.0017C31.015 60.7641 30.3775 60.8015 29.7358 60.8374C29.3339 60.8598 28.9423 61.0272 28.5299 60.7781C28.3526 60.671 28.0619 60.7152 27.8321 60.7391C27.127 60.8125 26.4239 60.9081 25.7209 60.9991C25.6559 61.008 25.5961 61.0584 25.5342 61.0896C25.7578 61.1484 25.9538 61.1234 26.1509 61.1047C26.8061 61.0412 27.4608 60.956 28.1181 60.9258C28.6381 60.9024 28.7884 61.0818 28.7665 61.5919C28.7671 61.744 28.7473 61.8954 28.7078 62.0422C28.3568 63.1166 27.9938 64.1862 27.6402 65.2595C27.6241 65.3073 27.6069 65.3536 27.5882 65.3989C27.5152 65.5747 27.4115 65.7362 27.2819 65.8757C27.1867 65.9783 27.0789 66.0685 26.9611 66.144ZM28.0817 65.624C28.2444 65.1638 28.4285 64.7104 28.5773 64.246C28.7728 63.636 28.9719 63.0251 29.1144 62.4016C29.2106 61.9793 29.2122 61.5352 29.2642 61.023C29.4722 61.023 29.6667 61.0168 29.8627 61.023C30.2506 61.0381 30.6386 61.0553 31.026 61.0813C31.5049 61.1135 31.8496 61.3512 32.0613 61.7828C32.5896 62.8607 32.7004 64.013 32.6421 65.1877C32.6349 65.3385 32.4861 65.5226 32.3504 65.6167C32.1787 65.7239 31.9852 65.7914 31.7841 65.8143C30.8824 65.9454 29.9787 66.0624 29.0749 66.1747C28.8574 66.2043 28.6373 66.2095 28.4187 66.1903C28.065 66.1523 27.9605 65.9641 28.0817 65.624Z" fill="white"/>
<path d="M26.9482 66.1505L26.9618 66.1411C26.9577 66.1444 26.9533 66.1473 26.9488 66.15L26.9482 66.1505Z" fill="white"/>
<path d="M27.5924 65.3989C27.5194 65.5748 27.4157 65.7362 27.2861 65.8758C27.4157 65.7362 27.5194 65.5748 27.5924 65.3989Z" fill="white"/>
<path d="M26.9492 66.1491C26.9537 66.1465 26.9581 66.1435 26.9622 66.1403C26.9613 66.1401 26.9604 66.1401 26.9596 66.1403L26.9518 66.1486L26.9492 66.1491Z" fill="white"/>
<path d="M76.531 61.781C78.391 59.8898 80.2292 57.9767 82.095 56.0896C83.0684 55.1016 84.0861 54.1625 85.0673 53.1844C85.6762 52.5776 86.4162 52.2453 87.2305 52.0404C87.4021 51.9967 87.569 51.9364 87.738 51.8808C87.7276 51.8199 87.7167 51.7591 87.7063 51.6982C87.3002 51.7596 86.8915 51.8085 86.4879 51.886C86.1372 51.9513 85.811 52.1113 85.5447 52.3488C84.8115 52.9988 84.0299 53.5999 83.343 54.2951C80.769 56.9021 78.2123 59.5258 75.673 62.1664C74.8285 63.0394 74.0163 63.9427 73.1926 64.835C73.1671 64.862 73.1733 64.9187 73.1494 65.043C73.3054 64.9286 73.4203 64.8672 73.5087 64.783C74.5175 63.7815 75.5362 62.7924 76.531 61.781Z" fill="white"/>
<path d="M22.4954 66.535C22.9857 66.5381 23.4761 66.535 23.967 66.5277C24.071 66.5277 24.1708 66.4825 24.2998 66.4513C23.9753 65.9994 23.6212 65.769 23.0762 65.8272C22.5042 65.8912 21.9275 65.8746 21.3529 65.8933C19.56 65.9515 17.7701 66.0451 15.9969 66.3312C14.9294 66.5033 13.8706 66.7316 12.801 66.886C11.9347 67.0114 11.1937 67.4633 10.3799 67.7181C10.3355 67.7405 10.2949 67.7698 10.2598 67.8049L10.2962 67.8866C10.4636 67.8346 10.6321 67.7873 10.7985 67.7306C11.8094 67.3957 12.8192 67.0472 13.8836 66.9292C16.7457 66.6167 19.6187 66.5168 22.4954 66.535Z" fill="white"/>
<path d="M32.527 72.772C31.4048 72.6322 30.2832 72.4881 29.1626 72.3326C27.189 72.0591 25.2163 71.78 23.2444 71.4954C22.6594 71.4107 22.0802 71.2905 21.4952 71.2068C20.3579 71.0441 19.2144 70.9203 18.0814 70.7347C16.7814 70.5215 15.4954 70.2235 14.1933 70.0285C12.9734 69.8454 11.8346 69.4565 10.7405 68.9063C10.4082 68.7399 10.0713 68.5824 9.73276 68.4284C9.58508 68.3614 9.42804 68.3135 9.27516 68.2568C9.2554 68.3031 9.23512 68.3494 9.21484 68.3957C9.58768 68.6172 9.95428 68.8512 10.3354 69.0571C10.6916 69.249 11.0634 69.4154 11.4274 69.5865C11.6687 69.6988 11.9058 69.8465 12.1612 69.8985C14.134 70.2797 16.1085 70.6551 18.0892 71.0009C18.9347 71.1486 19.7927 71.2245 20.6455 71.328C21.3314 71.4112 22.0204 71.4689 22.7031 71.5687C23.65 71.7076 24.5897 71.8953 25.5376 72.0253C26.809 72.1995 28.0856 72.3176 29.3576 72.499C31.4162 72.7934 33.4806 73.019 35.5575 73.123C35.8076 73.136 36.0593 73.123 36.3105 73.123C35.5513 73.019 34.7936 72.9759 34.0376 72.9182C33.5337 72.8823 33.0293 72.8344 32.527 72.772Z" fill="white"/>
<path d="M57.4087 42.5092C57.2121 42.3865 57.0078 42.4702 56.8367 42.6101C56.5447 42.8397 56.2691 43.0893 56.012 43.3573C55.128 44.3136 54.2882 45.3073 53.386 46.2433C51.7911 47.8989 50.162 49.5224 48.55 51.1593C47.043 52.6881 45.5366 54.217 44.0306 55.7462C43.896 55.8835 43.7795 56.0389 43.5684 56.2875L44.1372 56.3327C43.9552 56.0655 44.0972 55.9365 44.2334 55.8003C45.3681 54.6651 46.4923 53.5196 47.6374 52.3948C48.5536 51.4952 49.526 50.6507 50.4173 49.7278C51.9773 48.1111 53.4978 46.4549 55.0302 44.8112C55.6058 44.1929 56.1576 43.5523 56.7436 42.9444C56.9147 42.7666 57.1648 42.6647 57.4087 42.5092Z" fill="white"/>
<path d="M57.4966 40.0702C57.6661 40.2355 57.7259 40.43 57.7852 40.6422C57.832 40.8106 57.9562 40.9198 58.1273 40.8242C58.6567 40.5293 59.1559 40.1929 59.524 39.7254C59.2235 38.7504 56.8575 37.3276 55.8799 37.2319C55.9792 37.325 56.051 37.3879 56.1186 37.4566C56.4976 37.8372 56.8674 38.2278 57.2563 38.5975C57.5928 38.9173 57.6432 39.2735 57.4971 39.6978C57.457 39.8127 57.4331 40.0088 57.4966 40.0702Z" fill="white"/>
<path d="M19.4283 49.4098C19.7273 49.7488 20.0258 50.0858 20.4028 50.5148C20.3305 50.2813 20.316 50.1419 20.2468 50.0338C19.8995 49.467 19.4772 48.9657 18.9078 48.6048C18.3384 48.2439 17.6848 48.1456 17.0535 47.961C16.6131 47.8321 16.3338 47.9465 16.078 48.2481C15.4966 48.9319 15.3079 49.7639 15.4244 50.6188C15.5533 51.5876 15.9303 52.5012 16.259 53.4461C16.7545 53.4695 17.1575 53.2739 17.6713 53.0524C17.4898 52.886 17.3858 52.7825 17.2735 52.6884C17.0785 52.5267 16.8694 52.3806 16.6817 52.2111C15.6053 51.2376 15.583 49.7748 16.1945 48.6334C16.2566 48.5134 16.3456 48.4093 16.4545 48.3292C16.5585 48.2595 16.703 48.2002 16.8185 48.2153C17.8091 48.3422 18.7352 48.6251 19.4283 49.4098Z" fill="white"/>
<path d="M4.16716 59.2928C5.68712 58.636 7.20916 57.985 8.72184 57.3126C10.0177 56.7365 11.2896 56.1057 12.5948 55.554C13.7144 55.0802 14.8677 54.6882 16.0018 54.2488C16.1412 54.1968 16.3435 54.1999 16.396 53.9888C15.1641 53.9945 4.77088 58.4275 3.62012 59.4701C3.85932 59.3931 4.01948 59.3567 4.16716 59.2928Z" fill="white"/>
<path d="M99.3791 49.9966C98.8965 49.9352 98.3968 49.8785 97.9189 49.9373C96.3589 50.1297 94.8088 50.3751 93.255 50.6029C93.1749 50.6216 93.0965 50.6468 93.0205 50.6783C93.139 50.7565 93.2822 50.7878 93.4225 50.7662C94.6767 50.5904 95.9361 50.4417 97.1826 50.2202C98.2403 50.0325 99.2626 50.0392 100.334 50.4849C98.3536 51.0777 96.3584 51.4328 94.4859 52.2009C96.8415 51.7043 99.1695 51.1032 101.591 50.4511C101.386 50.3871 101.279 50.3429 101.172 50.3221C100.575 50.2077 99.9807 50.0761 99.3791 49.9966Z" fill="white"/>
<path d="M29.329 46.6173C33.5795 44.2125 37.827 41.8051 42.0716 39.3951C42.1595 39.3431 42.2682 39.3093 42.3254 39.2344C42.3826 39.1595 42.3722 39.0545 42.4159 38.8501C42.1439 38.9952 41.9801 39.0753 41.8231 39.1673C37.6069 41.6286 33.3918 44.0917 29.1777 46.5565C29.1429 46.5769 29.1093 46.5991 29.0768 46.6231C28.9905 46.686 28.9099 46.7588 28.8262 46.8269C28.9967 46.7603 29.1725 46.7063 29.329 46.6173Z" fill="white"/>
<path d="M28.7884 46.852L28.792 46.8561L28.8258 46.8291L28.7832 46.8457L28.7863 46.8499L28.7884 46.852Z" fill="white"/>
<path d="M28.792 46.8522L28.8258 46.8252L28.792 46.8522Z" fill="white"/>
<path d="M55.3034 65.5451C55.2214 65.4859 55.1332 65.436 55.0403 65.3963C54.4365 65.1452 54.0694 65.3802 54.0907 66.0344C54.1049 66.3534 54.1605 66.6693 54.2561 66.974C54.4329 67.5491 54.7667 67.743 55.3673 67.6775C55.4505 67.6687 55.5343 67.6614 55.6175 67.6536L55.7849 67.4758C56.0844 66.6453 55.9201 65.9818 55.3034 65.5451ZM54.7179 65.7921C55.1068 65.8477 55.241 66.1337 55.3419 66.4498L54.7179 65.7921ZM55.3533 65.9345C55.671 66.2392 55.671 66.2392 55.7033 66.7462L55.3533 65.9345Z" fill="url(#paint5_radial_463_20318)"/>
<path d="M59.2294 43.8073C59.1363 43.4511 58.8134 43.2353 58.3397 43.2036C58.4801 43.6363 58.4213 44.0159 58.2591 44.3731C57.8028 45.3683 57.1683 46.2717 56.387 47.0386C56.1582 47.2659 55.9044 47.4681 55.6621 47.6824L55.7469 47.791C55.9382 47.672 56.1514 47.5778 56.3189 47.4302C57.2029 46.6502 58.0719 45.8535 58.946 45.0631C59.3324 44.7116 59.3496 44.2675 59.2294 43.8073Z" fill="white"/>
<path d="M63.8219 63.4706C64.2192 63.9932 64.6758 64.4732 65.1302 64.9495C65.3304 65.1554 65.5616 65.3286 65.8156 65.4627C66.4396 65.7966 67.1567 65.5516 67.5862 64.8112C67.2835 64.9412 67.0849 65.0285 66.8852 65.1117C66.3283 65.3447 65.826 65.2677 65.3986 64.8309C65.1282 64.5527 64.8489 64.2797 64.6087 63.976C63.2844 62.2868 62.0662 60.5172 60.9609 58.6773C60.8876 58.5571 60.7992 58.4459 60.6796 58.2769C60.664 58.6305 60.6598 58.6325 60.7898 58.8561C61.7185 60.4484 62.7071 62.0021 63.8219 63.4706Z" fill="white"/>
<path d="M54.5307 42.2057L54.5151 42.0908C53.9431 42.1329 53.3711 42.1621 52.8048 42.2187C50.9724 42.4018 49.1414 42.5909 47.3121 42.7861C46.0578 42.9202 46.0906 42.7486 45.2227 43.9966C45.1228 44.1328 45.0303 44.2743 44.9456 44.4204C44.9076 44.4906 44.9097 44.5827 44.8936 44.6648C45.0714 44.5598 45.2266 44.4205 45.3501 44.2551C45.8784 43.6139 46.5664 43.2109 47.3729 43.1043C49.6323 42.8048 51.8969 42.5547 54.162 42.2832C54.2858 42.2681 54.4075 42.2323 54.5307 42.2057Z" fill="white"/>
<path d="M23.2334 64.1679L24.8974 64.6317L26.0632 62.6807C24.8116 62.7119 23.8579 63.1154 23.2334 64.1679Z" fill="white"/>
<path d="M48.8038 57.1222C48.9598 57.0608 49.1199 57.0093 49.2718 56.937C51.0658 56.0679 52.8587 55.1976 54.6507 54.3261C54.7838 54.2616 54.9221 54.2076 55.0563 54.1493C55.3059 54.3532 55.3417 54.622 55.4093 54.883C55.5851 55.5783 56.0074 56.1862 56.5976 56.5936C57.1878 57.001 57.9058 57.1803 58.6183 57.0982C58.7519 57.0821 58.9131 57.0982 58.975 56.923C58.9391 56.8986 58.923 56.8809 58.911 56.8809C58.8273 56.8809 58.7436 56.8944 58.6604 56.8918C58.0281 56.87 57.4051 56.8055 56.9049 56.3609C56.233 55.7639 55.7224 55.0661 55.5721 54.1514C55.5421 54.0133 55.505 53.8769 55.4608 53.7427C55.413 53.7487 55.3658 53.7592 55.3199 53.7739C53.294 54.7827 51.2689 55.7927 49.2447 56.8039C49.2037 56.8242 49.1636 56.846 49.1236 56.8689C49.0045 56.9365 48.8891 57.0119 48.7705 57.0816L48.8038 57.1222Z" fill="white"/>
<path d="M48.7676 57.0813C48.8861 57.0117 49.0016 56.9363 49.1207 56.8687C49.0016 56.9363 48.8861 57.0117 48.7676 57.0813Z" fill="white"/>
<path d="M17.7846 54.3733C16.0603 56.7305 13.7983 58.5693 11.7422 60.6061L11.8134 60.7101C12.0781 60.512 12.3646 60.3373 12.6028 60.1116C13.8768 58.9041 15.1622 57.7076 16.3936 56.458C16.9453 55.898 17.3816 55.2246 17.8647 54.5985C17.9052 54.5465 17.9031 54.4607 17.9224 54.3837C17.8459 54.378 17.7939 54.3603 17.7846 54.3733Z" fill="white"/>
<path d="M58.3726 50.0324L58.5073 50.0189C58.5073 49.854 58.5239 49.6876 58.5036 49.5254C58.4631 49.2077 58.4152 48.8894 58.3476 48.5769C58.1173 47.5239 58.5203 46.7304 59.3398 46.1017C59.4063 46.0497 59.4786 46.005 59.5478 45.9561C59.9383 45.6774 59.9762 45.5219 59.7636 45.0269C59.2202 45.5099 58.6784 45.9878 58.1407 46.4704C58.057 46.5419 57.9939 46.6346 57.9582 46.7388C57.9224 46.8429 57.9152 46.9548 57.9374 47.0627C58.0149 47.5795 58.0617 48.1027 58.1365 48.6185C58.2036 49.0912 58.2925 49.5613 58.3726 50.0324Z" fill="white"/>
<path d="M82.1563 56.7357C80.8352 58.2756 79.5189 59.8193 78.2075 61.3669C78.1442 61.4502 78.0857 61.537 78.0322 61.6269C78.3047 61.4542 78.5091 61.2338 78.7051 61.006C79.8491 59.6727 80.9931 58.338 82.1371 57.002C83.8651 54.9739 85.7989 53.2111 88.3074 52.1196C88.1998 52.1477 88.0828 52.1576 87.9861 52.207C87.3699 52.519 86.7381 52.8081 86.1489 53.1706C84.6102 54.1196 83.3284 55.3697 82.1563 56.7357Z" fill="white"/>
<path d="M23.9886 52.4265C24.3988 52.1939 24.7914 51.9317 25.1633 51.6418C26.4347 50.6678 27.6952 49.6798 28.9593 48.6938C29.0789 48.6002 29.1813 48.4858 29.2916 48.3818C29.0691 48.4352 28.8608 48.5361 28.6811 48.6777C27.3728 49.6644 26.0668 50.6543 24.7634 51.6475C24.2241 52.0599 23.7052 52.506 22.9434 52.3651C23.2918 52.6444 23.6594 52.61 23.9886 52.4265Z" fill="white"/>
<path d="M25.1485 57.5968C25.5785 58.342 26.046 59.0658 26.5042 59.7943C26.5712 59.9014 26.6123 60.0756 26.7922 60.0309C26.8018 60.0283 26.8111 60.0252 26.8203 60.0215C25.8261 57.8963 24.6436 55.9136 22.6904 54.5049C22.9878 54.9206 23.3182 55.3117 23.6784 55.6744C24.252 56.2468 24.7464 56.8933 25.1485 57.5968Z" fill="white"/>
<path d="M26.793 60.0308C26.8018 60.0308 26.8112 60.0256 26.821 60.0225C26.8119 60.0258 26.8025 60.0285 26.793 60.0308Z" fill="white"/>
<path d="M26.8331 60.0185H26.8368H26.8232C26.8232 60.0185 26.8357 60.0175 26.8331 60.0185Z" fill="white"/>
<path d="M55.251 36.7417C55.2956 36.7194 55.3433 36.7036 55.3924 36.6949C57.3887 36.6351 58.8015 37.6985 60.0084 39.1275C60.2622 39.4275 60.2248 39.8071 59.9497 40.1041C59.6065 40.4753 59.2409 40.8258 58.8759 41.1758C58.7344 41.312 58.5696 41.4228 58.3959 41.5606C58.4713 41.5871 58.4999 41.6079 58.529 41.6048C58.5799 41.6014 58.6293 41.5867 58.6736 41.5616C59.3096 41.13 59.8348 40.5793 60.2924 39.9704C60.505 39.6865 60.4593 39.2304 60.1972 38.9824C59.5982 38.413 59.0137 37.8124 58.3418 37.3397C57.5487 36.7742 56.5822 36.5049 55.6108 36.5789C55.5855 36.5807 55.5602 36.5807 55.5349 36.5789C55.4538 36.5737 55.3638 36.5638 55.3061 36.621C55.2763 36.6552 55.258 36.698 55.2541 36.7432L55.251 36.7417Z" fill="white"/>
<path d="M55.5335 36.5773C55.4524 36.5721 55.3624 36.5623 55.3047 36.6195C55.3624 36.5623 55.4524 36.5721 55.5335 36.5773Z" fill="white"/>
<path d="M48.6225 67.0665C48.8538 67.0137 49.0599 66.8828 49.2061 66.6959C49.3522 66.5089 49.4295 66.2773 49.4248 66.0401C49.4207 65.4239 49.0291 64.6533 48.5606 64.3413C48.1851 64.0912 47.7124 64.0501 47.4212 64.2675C47.0827 64.5197 47.0479 64.8821 47.1035 65.2674C47.1872 65.8513 47.4587 66.3495 47.8112 66.8086C48.0187 67.0764 48.2969 67.1487 48.6225 67.0665ZM47.2892 65.1041C47.2122 64.5457 47.6012 64.2566 48.1409 64.4198C48.7613 64.6065 49.1981 65.2341 49.196 65.9356C49.196 66.4207 48.9974 66.702 48.5835 66.806C48.3832 66.8502 48.1737 66.8209 47.9933 66.7233C47.8129 66.6257 47.6737 66.4664 47.6012 66.2746C47.4549 65.8969 47.3503 65.5045 47.2892 65.1041Z" fill="white"/>
<path d="M18.0682 61.6443C18.2705 61.5159 18.4244 61.2923 18.5611 61.0853C18.6979 60.8783 18.6485 60.6553 18.4925 60.4759C18.3672 60.3282 18.2153 60.1935 17.9205 60.3302L18.4488 60.8539C18.3183 61.1419 18.0972 61.3794 17.8191 61.5299C17.5019 61.7057 17.1675 61.857 16.7422 61.7052C17.0479 62.454 17.3308 63.1472 17.6142 63.8404L17.7271 63.8144C17.7203 63.6645 17.7045 63.5152 17.6797 63.3672C17.5789 62.9251 17.6511 62.4977 17.7635 62.0713C17.7814 61.9827 17.8179 61.8989 17.8704 61.8254C17.9229 61.7518 17.9903 61.6901 18.0682 61.6443Z" fill="white"/>
<path d="M55.4296 43.1165C55.393 42.9731 55.3421 42.8338 55.2777 42.7005C54.8263 41.7063 54.546 40.6725 54.5325 39.5733C54.5211 38.6893 54.5798 37.8162 55.0005 37.0123C55.0556 36.9083 55.1669 36.8308 55.2517 36.7408C55.0921 36.7075 54.9574 36.7382 54.8653 36.8448C54.8536 36.8584 54.8426 36.8726 54.8326 36.8875C54.8189 36.9088 54.8071 36.9312 54.7972 36.9545C54.6823 37.2145 54.5554 37.4777 54.4852 37.7522C54.1336 39.1167 54.2423 40.4645 54.7036 41.7838C54.8695 42.2637 55.0666 42.738 55.4296 43.1165Z" fill="white"/>
<path d="M55.2516 36.7418C55.092 36.7085 54.9573 36.7392 54.8652 36.8458C54.9573 36.7392 55.092 36.7085 55.2516 36.7418Z" fill="white"/>
<path d="M55.251 36.7417L55.25 36.7427L55.251 36.7417Z" fill="white"/>
<path d="M45.2457 59.5109C46.5098 60.2508 47.8826 60.5259 49.3344 60.4084C49.5164 60.3933 49.7416 60.4136 49.9516 60.1422C49.35 60.1422 48.8285 60.163 48.3095 60.1375C47.2997 60.0855 46.3501 59.7958 45.4495 59.3492C45.1593 59.2056 44.8879 59.0372 44.8255 58.644C44.5655 58.8172 44.6872 58.9883 44.759 59.0798C44.8934 59.2521 45.0584 59.3982 45.2457 59.5109Z" fill="white"/>
<path d="M41.4409 65.3172C41.464 65.202 41.4779 65.0851 41.4825 64.9677C41.4918 64.273 41.2744 63.7717 40.8392 63.3801C40.302 62.8996 39.5085 63.0681 39.2896 63.6921C39.0707 64.3161 39.3353 65.3676 39.8231 65.806C40.4149 66.3364 41.2542 66.0858 41.4409 65.3172ZM39.7051 65.2293C39.5553 64.8611 39.482 64.4622 39.3764 64.0759C39.3936 63.3416 39.9084 63.1809 40.4232 63.3707C40.5817 63.4276 40.7244 63.5216 40.8392 63.6448C41.0336 63.857 41.1768 64.1108 41.2579 64.3869C41.3391 64.663 41.3559 64.954 41.3072 65.2376C41.2157 65.8096 40.6541 66.0572 40.1585 65.7477C39.9598 65.6231 39.8021 65.4428 39.7051 65.2293Z" fill="white"/>
<path d="M25.7477 61.527C25.483 61.8317 25.1856 62.1073 24.9069 62.4C24.8233 62.5008 24.7452 62.606 24.6729 62.7151C25.0119 62.6283 25.2516 62.5253 25.4965 62.5123C26.1133 62.4801 26.418 62.1182 26.5885 61.58C26.6135 61.5015 26.6431 61.424 26.6925 61.2794C26.2921 61.1744 26.0015 61.2352 25.7477 61.527Z" fill="white"/>
<path d="M81.1743 54.0853C81.5191 53.8971 81.7422 53.7468 81.9861 53.648C82.5939 53.4015 83.2122 53.18 83.8243 52.9439C83.9491 52.8955 84.0655 52.8243 84.1857 52.764C84.168 52.7276 84.1498 52.6912 84.1337 52.6553C82.9569 53.0645 81.7677 53.4426 80.5977 54.0266C81.0053 54.5393 81.9902 54.7821 82.5217 54.5325L81.1743 54.0853Z" fill="white"/>
<path d="M55.6197 67.6517C55.5366 67.6595 55.4528 67.6668 55.3696 67.6756C54.7691 67.7411 54.4337 67.5472 54.2585 66.9721C54.1629 66.6674 54.1073 66.3515 54.0931 66.0325C54.0718 65.3784 54.4389 65.1433 55.0426 65.3945C55.1355 65.4342 55.2237 65.4841 55.3057 65.5432C55.9224 65.98 56.0856 66.6435 55.7872 67.4739C56.2682 66.9606 56.1631 66.3954 55.9031 65.8401C55.6645 65.3305 55.2194 65.1121 54.6703 65.1153C54.2543 65.1153 53.9376 65.3857 53.9314 65.7912C53.9231 66.3471 53.9834 66.9081 54.2392 67.4135C54.5158 67.9637 55.1471 68.0609 55.6197 67.6517Z" fill="white"/>
<path d="M65.3151 65.9458C65.4794 66.1064 65.6999 66.2146 65.9058 66.3264C66.0081 66.3878 66.1253 66.4198 66.2446 66.4188C66.3639 66.4178 66.4806 66.3838 66.5818 66.3207C67.0467 66.0316 67.5017 65.7263 67.9608 65.4273L67.9031 65.3285C67.8048 65.3722 67.7034 65.4107 67.6083 65.4616C67.2682 65.6452 66.9177 65.8137 66.5958 66.0253C66.3291 66.2 66.0909 66.1813 65.8455 66.0253C65.672 65.9235 65.5088 65.8051 65.3582 65.6717C64.871 65.2095 64.3962 64.7358 63.9142 64.2678C63.8154 64.1726 63.7062 64.0894 63.6022 64.0005L63.5439 64.0598C63.5564 64.1014 63.5564 64.1549 63.5829 64.1825C64.1555 64.7716 64.7249 65.3691 65.3151 65.9458Z" fill="white"/>
<path d="M54.2705 48.085C52.6003 49.489 50.9945 50.9559 49.4346 52.4748C49.941 52.2164 54.0921 48.4729 54.2705 48.085Z" fill="white"/>
<path d="M26.8545 65.9968C25.9825 65.315 25.021 64.8039 23.9477 64.5168C23.1282 64.2979 22.2962 64.1721 21.4424 64.2625C21.6777 64.3443 21.9222 64.3966 22.1704 64.4185C23.8011 64.5584 25.2862 65.1003 26.6424 66.0124C26.7287 66.0706 26.8389 66.0935 26.9403 66.1299C26.923 66.087 26.9003 66.0465 26.8727 66.0093C26.867 66.0046 26.8609 66.0005 26.8545 65.9968Z" fill="white"/>
<path d="M26.9499 66.1474L26.9577 66.1391L26.9375 66.1318L26.9474 66.15L26.9499 66.1474Z" fill="white"/>
<path d="M26.9375 66.1318C26.9406 66.1381 26.9437 66.1443 26.9474 66.1506L26.9375 66.1324V66.1318Z" fill="white"/>
<path d="M13.8262 69.6802C14.8542 69.8507 15.8817 70.027 16.9113 70.1893C17.578 70.2933 18.2477 70.3781 18.9165 70.4701C19.3642 70.5315 19.4245 70.5263 19.7703 70.3828L13.8423 69.5767L13.8262 69.6802Z" fill="white"/>
<path d="M56.282 63.1916C56.7988 63.9098 57.5076 64.3876 58.2476 64.8354C58.3204 64.8715 58.396 64.9016 58.4738 64.9253C58.4738 64.8733 58.479 64.8531 58.4738 64.8479C58.4262 64.8007 58.3755 64.7569 58.3219 64.7168C57.5736 64.1937 56.8394 63.6586 56.2939 62.903C56.1582 62.7142 55.9627 62.5671 55.7853 62.4111C55.5331 62.189 55.5295 62.1932 55.0938 62.2259C55.5731 62.4291 55.985 62.7639 56.282 63.1916Z" fill="white"/>
<path d="M19.0058 56.7617C18.9216 56.9115 18.8061 57.0524 18.7614 57.2131C18.6875 57.4548 18.6488 57.706 18.6465 57.9588C18.6595 58.5828 18.7058 59.2068 18.7463 59.8308C18.751 59.8968 18.8087 59.9592 18.882 60.1012C18.882 59.474 18.8982 58.9447 18.8779 58.4164C18.8571 57.8724 18.8779 57.3405 19.1046 56.835L19.0058 56.7617Z" fill="white"/>
<path d="M59.5957 50.704C59.6955 50.6 59.7246 50.4321 59.786 50.2927L59.6919 50.2251C59.0606 51.2162 57.9457 51.5012 57.0508 52.133C57.6831 51.925 58.2988 51.6723 58.8666 51.3218C59.1349 51.1554 59.3726 50.9307 59.5957 50.704Z" fill="white"/>
<path d="M45.9004 44.4802C46.7906 44.6394 47.659 44.4953 48.5259 44.3341C47.6455 44.3101 46.7646 44.2685 45.9004 44.4802Z" fill="white"/>
<path d="M21.5499 53.0206C21.7428 53.3622 21.7266 53.6966 21.5597 54.0346C21.5135 54.1287 21.4557 54.2176 21.4037 54.3091C21.8826 53.9841 22.0184 53.5177 21.802 53.0518C21.6461 52.7159 21.4708 52.3883 21.293 52.0638C21.2091 51.9266 21.118 51.794 21.02 51.6665L20.9082 51.731C20.92 51.7897 20.9374 51.8472 20.9602 51.9026C21.1536 52.2765 21.3424 52.6535 21.5499 53.0206Z" fill="white"/>
<path d="M25.9136 65.1107C26.4639 64.2914 26.9194 63.4121 27.2713 62.4899L27.1569 62.4307C27.0207 62.7208 26.8886 63.0131 26.7461 63.3006C26.5901 63.6163 26.4154 63.9246 26.2641 64.2408C26.13 64.5221 25.8908 64.7618 25.9136 65.1107Z" fill="white"/>
<path d="M48.8035 57.1221C48.7915 57.1086 48.7801 57.095 48.7681 57.082C47.8786 57.5081 46.989 57.9347 46.0995 58.3618C46.0641 58.3789 46.0423 58.4231 46.0137 58.4543L46.0516 58.5209L48.8035 57.1221Z" fill="white"/>
<path d="M48.7673 57.082C47.8777 57.5084 46.9882 57.9352 46.0986 58.3623C46.9875 57.9338 47.877 57.5072 48.7673 57.0826V57.082Z" fill="white"/>
<path d="M48.7676 57.0821C48.7795 57.0951 48.791 57.1086 48.8029 57.1221L48.7676 57.0815V57.0821Z" fill="white"/>
<path d="M59.1981 54.984C58.8431 54.2945 58.4844 53.6068 58.1221 52.9207C58.0771 52.8553 58.0257 52.7945 57.9687 52.7393C57.9505 52.8126 57.9261 52.8521 57.9375 52.8729C58.3424 53.6303 58.7503 54.3862 59.1612 55.1405C59.1628 55.1429 59.1647 55.145 59.1669 55.1468C59.1887 55.1568 59.2121 55.1626 59.236 55.1639C59.2323 55.1024 59.2196 55.0418 59.1981 54.984Z" fill="white"/>
<path d="M59.2363 55.1636V55.1755L59.2478 55.1667C59.244 55.1654 59.2402 55.1644 59.2363 55.1636Z" fill="white"/>
<path d="M59.2363 55.1636C59.2407 55.1643 59.2451 55.1654 59.2493 55.1667C59.2451 55.1654 59.2407 55.1643 59.2363 55.1636Z" fill="white"/>
<path d="M20.1726 51.4131C20.1425 51.3731 20.1128 51.3325 20.0827 51.292L18.6152 52.3121C19.2782 52.2451 19.7514 51.8712 20.1726 51.4131Z" fill="white"/>
<path d="M22.4781 52.5857L21.9062 52.2378L21.8438 52.3116L22.1219 52.8467L22.4781 52.5857Z" fill="white"/>
<path d="M27.4243 62.0629C27.5127 61.7935 27.6015 61.5245 27.6906 61.2559C27.4482 61.4748 27.3437 61.7389 27.4243 62.0629Z" fill="white"/>
<path d="M26.7498 60.2636C26.8018 60.2339 26.8018 60.1075 26.821 60.0259C26.6099 60.1517 26.4014 60.2776 26.1924 60.4029C26.3876 60.4103 26.5809 60.3619 26.7498 60.2636Z" fill="white"/>
<path d="M26.8213 60.0228L26.8281 60.0181L26.8213 60.0228Z" fill="white"/>
<path d="M26.8213 60.0248L26.8327 60.0181H26.8286L26.8213 60.0248Z" fill="white"/>
<path d="M77.5188 62.306L77.9265 61.8604L77.8449 61.7798L77.4502 62.2478L77.5188 62.306Z" fill="white"/>
<path d="M90.6889 52.4683H90.1689V52.5165H90.6889C90.6884 52.4978 90.6889 52.4818 90.6889 52.4683Z" fill="white"/>
<path d="M59.5416 55.5639L59.2676 55.2134C59.3217 55.352 59.3761 55.4895 59.4309 55.6257L59.5416 55.5639Z" fill="white"/>
<path d="M59.2497 55.167L59.2383 55.1758C59.2482 55.1888 59.2586 55.2013 59.2685 55.2138L59.2497 55.167Z" fill="white"/>
<path d="M59.249 55.167L59.2677 55.2138L59.249 55.167Z" fill="white"/>
<path d="M59.2497 55.167L59.2383 55.1758L59.2497 55.167Z" fill="white"/>
<path d="M37.1693 68.6398H37.2484L37.2598 68.6299H37.2374H37.0752L37.1693 68.6398Z" fill="white"/>
<path d="M38.2734 68.7649L38.5106 68.7914C38.436 68.759 38.3533 68.7498 38.2734 68.7649Z" fill="white"/>
<path d="M38.5126 68.7916C38.4377 68.7589 38.3547 68.7494 38.2744 68.7644C38.3547 68.7492 38.4377 68.7586 38.5126 68.7916Z" fill="white"/>
<path d="M28.3646 47.1735L28.7442 46.874L28.3027 47.0602C28.3235 47.0966 28.3438 47.1351 28.3646 47.1735Z" fill="white"/>
<path d="M28.7918 46.8518H28.7881L28.785 46.8477L28.7471 46.8778L28.7939 46.8581L28.7918 46.8518Z" fill="white"/>
<path d="M28.7919 46.8521L28.7451 46.8718L28.7919 46.8521Z" fill="white"/>
<path d="M28.0438 47.3344L28.0074 47.2642L27.6143 47.4758L27.6501 47.5444L28.0438 47.3344Z" fill="white"/>
<path d="M34.8691 60.4946C35.3715 60.5586 35.8727 60.634 36.3818 60.4883L34.8738 60.3843L34.8691 60.4946Z" fill="url(#paint6_radial_463_20318)"/>
<path d="M28.4185 66.189C28.6372 66.2082 28.8573 66.203 29.0748 66.1734C29.9785 66.061 30.8823 65.944 31.784 65.813C31.9851 65.7901 32.1786 65.7226 32.3503 65.6154C32.4855 65.5213 32.6347 65.3372 32.642 65.1864C32.7002 64.0117 32.59 62.8594 32.0611 61.7815C31.8495 61.3499 31.5047 61.1123 31.0258 61.08C30.6384 61.054 30.2505 61.0369 29.8626 61.0218C29.6665 61.0145 29.47 61.0218 29.264 61.0218C29.212 61.534 29.212 61.9781 29.1143 62.4003C28.9718 63.0243 28.7726 63.6348 28.5771 64.2447C28.4284 64.7091 28.2443 65.1625 28.0815 65.6227C27.9604 65.9638 28.0649 66.152 28.4185 66.189ZM30.7741 63.199C30.7741 63.1818 30.7741 63.1652 30.7741 63.147C30.8012 63.4115 30.8284 63.6762 30.8558 63.941L30.8641 63.9494L30.861 63.9909C30.8766 64.2052 30.892 64.4192 30.9073 64.6331H30.8157L30.8594 63.9816V63.9561V63.9452C30.6233 63.7268 30.7637 63.4538 30.7741 63.199ZM30.0082 61.2007H30.1709C30.2068 61.4607 30.2749 61.7207 30.2749 61.9807C30.264 63.1434 30.2354 64.3061 30.2073 65.4683C30.2021 65.6695 30.1782 65.8785 29.8433 65.8515C30.0576 64.2977 30.2208 62.757 30.0082 61.2007Z" fill="url(#paint7_radial_463_20318)"/>
<path d="M54.7178 65.792L55.3418 66.4498C55.2409 66.1336 55.1067 65.8476 54.7178 65.792Z" fill="white"/>
<path d="M55.3535 65.936L55.7035 66.7478C55.6723 66.2392 55.6723 66.2392 55.3535 65.936Z" fill="white"/>
<path d="M48.5833 66.8061C48.9993 66.7021 49.1948 66.4208 49.1958 65.9356C49.1958 65.2342 48.7611 64.6065 48.1408 64.4198C47.599 64.2566 47.2121 64.5457 47.2891 65.1042C47.3502 65.5045 47.4548 65.897 47.601 66.2746C47.6736 66.4665 47.8128 66.6258 47.9932 66.7234C48.1735 66.821 48.383 66.8503 48.5833 66.8061ZM48.9515 66.1135C48.8818 65.8285 48.8059 65.516 48.7284 65.1988C49.0019 65.5763 49.0035 65.5831 48.9515 66.1135ZM48.4835 65.8935L47.9635 64.8566C48.3711 65.0693 48.5131 65.4198 48.4814 65.8935H48.4835Z" fill="url(#paint8_radial_463_20318)"/>
<path d="M40.1571 65.748C40.6526 66.0574 41.2142 65.8088 41.3057 65.2378C41.3544 64.9542 41.3376 64.6632 41.2565 64.3872C41.1754 64.1111 41.0321 63.8572 40.8378 63.645C40.7229 63.5218 40.5803 63.4279 40.4218 63.371C39.907 63.1812 39.3922 63.3419 39.375 64.0761C39.479 64.4625 39.5539 64.8614 39.7036 65.2295C39.8007 65.4431 39.9584 65.6234 40.1571 65.748ZM39.6735 63.7667C40.4535 63.3065 41.0634 63.9092 41.0905 65.1219C40.7514 64.4921 40.6142 63.7522 39.6735 63.7667ZM39.8934 64.4266C39.9497 64.5946 40.0158 64.759 40.0916 64.9191C40.1826 65.0702 40.2825 65.2159 40.3906 65.3554C39.9678 65.1952 39.8076 64.8806 39.8934 64.4282V64.4266Z" fill="url(#paint9_radial_463_20318)"/>
<path d="M30.2064 65.4722C30.2345 64.31 30.2631 63.1473 30.274 61.9846C30.274 61.7246 30.2075 61.4646 30.17 61.2046H30.0073C30.22 62.7609 30.0567 64.3017 29.8398 65.8591C30.1773 65.8841 30.2012 65.6761 30.2064 65.4722Z" fill="white"/>
<path d="M30.8577 63.9425C30.8303 63.6776 30.8031 63.4129 30.776 63.1484C30.776 63.1656 30.776 63.1822 30.776 63.2004C30.7646 63.4526 30.6262 63.7241 30.8577 63.9425Z" fill="white"/>
<path d="M30.8628 63.9541L30.8545 63.9458V63.9526C30.8545 63.9526 30.8607 63.9526 30.8628 63.9541Z" fill="white"/>
<path d="M30.8626 63.9544C30.8626 63.9544 30.8595 63.9508 30.8574 63.9492V63.9601L30.8616 63.9549L30.8626 63.9544Z" fill="white"/>
<path d="M30.9079 64.6358C30.8923 64.4216 30.8768 64.2075 30.8616 63.9937C30.8465 64.2089 30.8319 64.4226 30.8174 64.6364L30.9079 64.6358Z" fill="white"/>
<path d="M30.8613 63.9854V63.9942L30.8645 63.9526C30.8629 63.9651 30.8618 63.975 30.8613 63.9854Z" fill="white"/>
<path d="M30.8635 63.9546L30.8594 63.9598L30.8635 63.9546Z" fill="white"/>
<path d="M47.9619 64.8564L48.4819 65.8933C48.5126 65.4196 48.3707 65.0691 47.9619 64.8564Z" fill="white"/>
<path d="M48.7285 65.1987C48.806 65.5159 48.8819 65.8285 48.9516 66.1134C49.0036 65.583 49.0021 65.5762 48.7285 65.1987Z" fill="white"/>
<path d="M41.0908 65.1218C41.0638 63.9092 40.4559 63.3065 39.6738 63.7667C40.6145 63.7521 40.7518 64.4921 41.0908 65.1218Z" fill="white"/>
<path d="M40.3906 65.355C40.2825 65.2155 40.1827 65.0698 40.0916 64.9187C40.0158 64.7586 39.9497 64.5942 39.8935 64.4263C39.8077 64.8802 39.9678 65.1948 40.3906 65.355Z" fill="white"/>
<path d="M68.1007 71.1455C66.9957 71.237 65.8907 71.3883 64.7842 71.4055C65.8887 71.3904 66.9905 71.2391 68.0966 71.1502L68.1007 71.1455Z" fill="white"/>
<path d="M68.1115 71.147H68.1084C68.3606 71.2384 68.6112 71.3179 68.8192 71.0581H68.8104C68.6092 71.3148 68.3627 71.24 68.1115 71.147Z" fill="white"/>
<path d="M68.0938 71.1484C68.006 71.2051 67.9217 71.2935 67.8281 71.3044C67.9248 71.293 68.0112 71.2004 68.1068 71.1484H68.0938Z" fill="white"/>
<path d="M68.8101 71.0591L68.1055 71.1449H68.1112C68.3426 71.1158 68.5766 71.0877 68.8101 71.0591Z" fill="white"/>
<path d="M37.9284 68.8043C37.8882 68.7708 37.8458 68.7398 37.8016 68.7118L37.3887 68.666C37.5676 68.7128 37.747 68.7591 37.9284 68.8043Z" fill="white"/>
<path d="M69.3047 71.1036C69.1529 71.088 69.0016 71.0718 68.8476 71.0547H68.8398L69.3047 71.1036Z" fill="white"/>
<path d="M35.7012 68.5109L35.6529 68.4729L35.2483 68.4282H35.2363C35.4064 68.461 35.553 68.4875 35.7012 68.5109Z" fill="white"/>
<path d="M36.408 68.6224C36.3877 68.6 36.3685 68.574 36.3487 68.5501L35.9405 68.5049L35.7705 68.5226C35.9811 68.5569 36.1922 68.5907 36.408 68.6224Z" fill="white"/>
<path d="M46.402 70.1393C46.7067 70.1393 47.0093 70.1434 47.3115 70.1465L46.4041 70.1377H46.3838V70.1413L46.402 70.1393Z" fill="white"/>
<path d="M47.3039 70.1549C46.9982 70.1549 46.6941 70.1521 46.3919 70.1466C46.3907 70.1433 46.3893 70.1402 46.3877 70.1372C46.3888 70.1408 46.3902 70.1443 46.3919 70.1476L47.3039 70.157L47.3372 70.1606L47.331 70.1559L47.3076 70.1533L47.3154 70.145L47.3039 70.1549Z" fill="white"/>
<path d="M44.9639 69.9495L44.9696 69.9453L44.9639 69.9495Z" fill="white"/>
<path d="M46.3963 70.1436L46.3916 70.1467L46.3963 70.1436Z" fill="white"/>
<path d="M44.9746 69.9398H44.9772H44.9912H44.9964H44.9798L44.9434 69.9341L44.9496 69.9393L44.9746 69.9398Z" fill="white"/>
<path d="M42.3479 69.4519L42.3359 69.4399L42.3479 69.4519Z" fill="white"/>
<path d="M41.6096 69.4451C41.6065 69.441 41.6038 69.4367 41.6013 69.4321H41.5977L41.607 69.4483L42.3236 69.4534L42.3517 69.4566L42.348 69.4529H42.3267L42.3361 69.4436L42.3251 69.4545C42.0849 69.4503 41.8457 69.4488 41.6096 69.4451Z" fill="white"/>
<path d="M43.0668 69.5241L43.0907 69.5392H43.0964L43.0694 69.5215L43.0371 69.5334H43.0397L43.0668 69.5241Z" fill="white"/>
<path d="M44.9646 69.9494L44.95 69.938H44.9453L44.962 69.952L44.9942 69.9427L44.9646 69.9494Z" fill="white"/>
<path d="M43.0575 69.5338C43.0575 69.5338 43.0648 69.526 43.0674 69.5239L43.0549 69.5359H43.0404H43.0352H43.0523L43.1012 69.5426L43.0913 69.5369L43.0575 69.5338Z" fill="white"/>
<path d="M50.0508 70.4542C50.0508 70.4542 50.0586 70.4459 50.0607 70.4443L50.0487 70.4558L50.003 70.4511H49.9941L50.0461 70.4568L50.0981 70.4615L50.0877 70.4568L50.0508 70.4542Z" fill="white"/>
<path d="M41.6201 69.4371H41.6227C41.8619 69.4371 42.099 69.4371 42.3356 69.4418L41.6253 69.4355L41.5967 69.4277L41.6008 69.434L41.6201 69.4371Z" fill="white"/>
<path d="M68.8223 71.0537L68.8254 71.0568L68.8223 71.0537Z" fill="white"/>
<path d="M50.061 70.4445L50.0901 70.458H50.0958L50.063 70.4419C50.0412 70.4419 50.0199 70.4471 49.998 70.4502H50.0032C50.0225 70.4487 50.0417 70.446 50.061 70.4445Z" fill="white"/>
<path d="M41.6166 69.4404L41.6104 69.4451L41.6166 69.4404Z" fill="white"/>
<path d="M40.58 69.1683L40.5576 69.1553C40.5654 69.16 40.5732 69.1641 40.581 69.1693L40.7032 69.1854H40.6944L40.58 69.1683Z" fill="white"/>
<path d="M39.2789 69.034H39.2821L39.3044 69.0382H39.3117L39.2847 69.033L39.2607 69.0288C39.2614 69.0306 39.2623 69.0324 39.2633 69.034H39.2789Z" fill="white"/>
<path d="M37.9784 68.8174L38.0008 68.8206C38.0907 68.8044 38.1823 68.7769 38.2717 68.7644L37.8037 68.7124C37.848 68.7405 37.8903 68.7714 37.9306 68.805L37.9784 68.8174Z" fill="white"/>
<path d="M38.6755 68.9301H38.6895H38.6947L38.6776 68.927L38.6562 68.9238L38.6594 68.928L38.6755 68.9301Z" fill="white"/>
<path d="M37.9632 68.827L37.9757 68.8182L37.9944 68.8213H38.0001L37.9778 68.8182L37.9258 68.8052C37.9367 68.8135 37.9476 68.8218 37.9591 68.8291C37.971 68.8291 37.9835 68.8254 37.9955 68.8228H37.9923L37.9632 68.827Z" fill="white"/>
<path d="M36.4072 68.6226L36.4197 68.6361L37.1805 68.6428H37.1685C36.9184 68.6428 36.6688 68.6392 36.4218 68.6361L36.4332 68.6298C36.6485 68.6298 36.8612 68.6298 37.0744 68.6298L36.4374 68.6257L36.4072 68.6226Z" fill="white"/>
<path d="M39.2691 69.0411L39.2634 69.0317H39.2598C39.2598 69.0359 39.2644 69.039 39.2665 69.0432L39.3081 69.038H39.3045L39.2691 69.0411Z" fill="white"/>
<path d="M38.6611 68.9277L38.6669 68.9355L38.6611 68.9277Z" fill="white"/>
<path d="M38.668 68.9353L38.6737 68.9316L38.668 68.9353Z" fill="white"/>
<path d="M36.4367 68.6262L37.0737 68.6304L36.3457 68.5498C36.3655 68.5737 36.3847 68.6018 36.405 68.6221L36.4367 68.6262Z" fill="white"/>
<path d="M55.0102 70.7671C50.9094 70.1982 43.0652 69.3018 38.51 68.7911C38.57 68.8216 38.621 68.8671 38.6582 68.9232L38.6795 68.9263L38.6967 68.9294H38.7071C38.9052 68.8858 39.1168 68.7625 39.2614 69.0282L39.2853 69.0324L39.3124 69.0376C39.4533 69.0145 39.5955 69.0009 39.7383 68.997C39.7809 68.997 39.8225 69.0943 39.8646 69.1484H39.8693C39.8984 69.139 39.927 69.1296 39.9556 69.1213C40.1579 69.0631 40.3586 69.0397 40.5557 69.1562H40.5921L40.6961 69.1853C40.9675 69.2227 41.2395 69.2586 41.5089 69.3059C41.5432 69.3116 41.5661 69.3787 41.5941 69.4266L41.6227 69.4344L42.3331 69.4406L42.345 69.4526C42.5738 69.4806 42.8026 69.5087 43.034 69.5347L43.0663 69.5228L43.0933 69.5404C43.6497 69.6252 44.2066 69.7063 44.7609 69.8004C44.8259 69.8113 44.8805 69.8821 44.9403 69.933L44.9767 69.9387H44.9934C45.4281 69.8134 45.842 69.9726 46.2632 70.0469C46.2918 70.0521 46.3204 70.0568 46.3496 70.0609C46.3636 70.0609 46.3724 70.1031 46.3834 70.1317H46.4036L47.311 70.1405C47.3164 70.1438 47.3216 70.1475 47.3266 70.1514C48.2151 70.2502 49.1045 70.3485 49.9948 70.4463C50.0166 70.4431 50.0379 70.44 50.0598 70.4379L50.0925 70.4541C51.3527 70.5719 52.6126 70.6901 53.8724 70.8087C55.097 70.9252 56.3206 71.0609 57.5467 71.1571C58.4713 71.2294 59.399 71.2611 60.3262 71.2938C61.8102 71.3427 63.2954 71.4207 64.7784 71.3978C65.885 71.3822 66.99 71.2309 68.095 71.1378L68.1002 71.1347V71.1373L68.8048 71.0515C68.8048 71.0484 68.81 71.0458 68.8126 71.0422L68.8167 71.0463L68.8448 71.0494L69.3014 71.0063C69.3014 71.037 69.3014 71.0676 69.3014 71.0983L68.8365 71.0505H68.8214H68.8152C68.6072 71.3105 68.3565 71.2309 68.1043 71.1394C68.0087 71.1914 67.9223 71.2855 67.8256 71.2954C66.484 71.4566 65.1393 71.5689 63.7847 71.5117C61.6932 71.4233 59.5987 71.3885 57.5103 71.2517C55.5915 71.1264 53.6795 70.8966 51.7643 70.7135C51.3109 70.6704 50.8559 70.6402 50.404 70.5846C50.3 70.5721 50.1996 70.5035 50.0977 70.4525L50.0457 70.4478L49.9937 70.4421C49.8377 70.4629 49.6776 70.4993 49.5257 70.4853C48.856 70.4244 48.1878 70.3459 47.5206 70.2637C47.4561 70.2559 47.3979 70.1951 47.3381 70.1504L47.3048 70.1467L46.3927 70.1374C46.391 70.1341 46.3896 70.1306 46.3886 70.127C45.9254 70.0615 45.4612 69.9965 44.996 69.932L44.9637 69.9413L44.9471 69.9273C44.4125 69.8441 43.8769 69.7666 43.3439 69.6725C43.2587 69.6574 43.1827 69.5878 43.1027 69.5347L43.0538 69.528H43.0366C42.7979 69.6148 42.5624 69.6538 42.3539 69.4474L42.3258 69.4442L41.6092 69.439L41.5999 69.4229L40.7034 69.178L40.5812 69.1619C40.5734 69.1567 40.5656 69.1525 40.5578 69.1478L39.8719 69.1395H39.8683C39.6837 69.1026 39.4991 69.0652 39.3119 69.0298L39.2703 69.035C39.2703 69.0308 39.2656 69.0277 39.2635 69.0236C39.0746 68.9889 38.8849 68.9554 38.6946 68.9232L38.6702 68.9279L38.6644 68.9201C38.4445 68.8847 38.2235 68.8488 38.0014 68.8161C37.9895 68.8161 37.977 68.8208 37.965 68.8223C37.9536 68.815 37.9427 68.8067 37.9318 68.7984C37.7503 68.7532 37.5709 68.7069 37.392 68.6601L37.184 68.6367L36.4232 68.6299L36.4108 68.6164C36.195 68.5847 35.9838 68.5509 35.7732 68.5166L35.7238 68.5213L35.7041 68.5051C35.5559 68.4817 35.4092 68.4531 35.2392 68.4245H35.2512L35 68.397C35 68.397 49.5678 71.2356 59.9767 71.5325C70.3856 71.8294 70.3341 70.9865 70.3341 70.9865H69.5541C69.5541 70.9865 61.01 71.5991 55.0102 70.7671Z" fill="white"/>
<path d="M40.5918 69.1564L40.6922 69.1834H40.6989L40.5949 69.1543L40.5918 69.1564Z" fill="white"/>
<path d="M35.7012 68.5112L35.7209 68.5274L35.7703 68.5227L35.7376 68.5175L35.7012 68.5112Z" fill="white"/>
<path d="M35.7381 68.5173L35.7708 68.5225L35.9409 68.5049L35.6533 68.4731L35.7017 68.5111L35.7381 68.5173Z" fill="white"/>
<path d="M50.4065 70.5948C50.8584 70.6504 51.3134 70.6806 51.7669 70.7237C53.682 70.9068 55.5941 71.1366 57.5129 71.262C59.6012 71.3982 61.6958 71.433 63.7873 71.522C65.1393 71.5792 66.4866 71.4668 67.8282 71.3056C67.9218 71.2942 68.006 71.2058 68.0939 71.1496C66.9879 71.2386 65.886 71.3899 64.7815 71.405C63.2985 71.4263 61.8133 71.3483 60.3292 71.301C59.4021 71.2703 58.4744 71.2365 57.5498 71.1642C56.3237 71.068 55.1001 70.9323 53.8755 70.8158C52.6202 70.6969 51.3635 70.5802 50.1055 70.4658C50.2048 70.5152 50.3025 70.5823 50.4065 70.5948Z" fill="white"/>
<path d="M68.1066 71.1475H68.0999L68.0957 71.1506L68.1066 71.1475Z" fill="white"/>
<path d="M53.8756 70.8131C52.6154 70.6935 51.3555 70.5753 50.0957 70.4585L50.1056 70.4632C51.3643 70.5776 52.621 70.6942 53.8756 70.8131Z" fill="white"/>
<path d="M68.1048 71.1447V71.1421L68.0996 71.1452H68.1069L68.1048 71.1447Z" fill="white"/>
<path d="M50.1002 70.4627H50.1054L50.0956 70.458H50.0898L50.1002 70.4627Z" fill="white"/>
<path d="M50.0996 70.4624C50.2036 70.5144 50.3003 70.582 50.4059 70.5945C50.3019 70.582 50.2041 70.5149 50.1048 70.4629L50.0996 70.4624Z" fill="white"/>
<path d="M50.0898 70.4598L50.0607 70.4463L50.0508 70.4562L50.0898 70.4598Z" fill="white"/>
<path d="M49.9899 70.4518C49.1062 70.3537 48.2222 70.2567 47.3379 70.1606C47.3977 70.2054 47.4559 70.2646 47.5204 70.274C48.1876 70.3562 48.8558 70.4347 49.5255 70.4955C49.6763 70.509 49.8334 70.4742 49.9899 70.4518Z" fill="white"/>
<path d="M47.3291 70.1559C47.3241 70.152 47.3189 70.1484 47.3135 70.145L47.3057 70.1533L47.3291 70.1559Z" fill="white"/>
<path d="M49.9904 70.4516H49.9982C49.1073 70.3545 48.2179 70.2562 47.3301 70.1567L47.3363 70.1614C48.2234 70.2564 49.1081 70.3531 49.9904 70.4516Z" fill="white"/>
<path d="M49.5234 70.4952C49.6794 70.5092 49.8354 70.4729 49.9914 70.4521H49.9873C49.8334 70.4739 49.6763 70.5087 49.5234 70.4952Z" fill="white"/>
<path d="M50.0606 70.4443C50.0414 70.4443 50.0222 70.4485 50.0029 70.4511L50.0487 70.4558L50.0606 70.4443Z" fill="white"/>
<path d="M43.3421 69.6827C43.8714 69.7763 44.4039 69.8532 44.9395 69.9323C44.8828 69.8803 44.8282 69.8111 44.7643 69.8002C44.2141 69.7061 43.6619 69.626 43.1055 69.5459C43.1829 69.5995 43.2578 69.6676 43.3421 69.6827Z" fill="white"/>
<path d="M43.0904 69.539L43.0665 69.5239C43.0639 69.5239 43.0566 69.5338 43.0566 69.5338L43.0904 69.539Z" fill="white"/>
<path d="M43.1007 69.5448H43.1054L43.0965 69.5386H43.0908L43.1007 69.5448Z" fill="white"/>
<path d="M43.0996 69.5449C43.1797 69.5969 43.2556 69.6676 43.3409 69.6827C43.2567 69.6676 43.1818 69.5995 43.1043 69.546L43.0996 69.5449Z" fill="white"/>
<path d="M43.3418 69.6826C43.8748 69.7767 44.4104 69.8542 44.945 69.9374C44.9433 69.9354 44.9414 69.9337 44.9392 69.9322C44.4036 69.8532 43.8712 69.7762 43.3418 69.6826Z" fill="white"/>
<path d="M44.9452 69.9398H44.9499L44.9436 69.9346H44.9395C44.9416 69.936 44.9435 69.9378 44.9452 69.9398Z" fill="white"/>
<path d="M44.9431 69.9329C44.8833 69.8809 44.8287 69.8112 44.7637 69.8003C44.8276 69.8112 44.8822 69.8804 44.9389 69.9324L44.9431 69.9329Z" fill="white"/>
<path d="M44.7633 69.8C44.209 69.7054 43.6521 69.6243 43.0957 69.54L43.1045 69.5463C43.6594 69.6279 44.2132 69.7059 44.7633 69.8Z" fill="white"/>
<path d="M44.9705 69.9453L44.9752 69.9416L44.9502 69.938L44.9648 69.9494L44.9705 69.9453Z" fill="white"/>
<path d="M44.999 69.9399C45.4597 70.0049 45.9205 70.0699 46.3848 70.1322C46.3749 70.1026 46.3666 70.0636 46.3526 70.0615C46.3235 70.0574 46.2949 70.0527 46.2663 70.0475C45.8466 69.9742 45.4337 69.8161 44.999 69.9399Z" fill="white"/>
<path d="M46.3844 70.1332C46.3735 70.1046 46.3646 70.0646 46.3506 70.0625C46.3662 70.0646 46.3745 70.1036 46.3844 70.1332Z" fill="white"/>
<path d="M44.9993 69.9399H44.9941C45.4601 70.0041 45.9242 70.0691 46.3867 70.1349V70.1313C45.9208 70.071 45.4601 70.006 44.9993 69.9399Z" fill="white"/>
<path d="M46.3965 70.1433L46.4023 70.1392H46.3877C46.3893 70.1422 46.3907 70.1453 46.3919 70.1485L46.3965 70.1433Z" fill="white"/>
<path d="M44.9696 69.945L44.9639 69.9492L44.9909 69.9419H44.9769H44.9743L44.9696 69.945Z" fill="white"/>
<path d="M46.2659 70.0489C45.8447 69.9745 45.4308 69.8152 44.9961 69.9407C45.4334 69.8163 45.8463 69.9745 46.2659 70.0489Z" fill="white"/>
<path d="M44.9744 69.9399L44.9697 69.9436L44.9744 69.9399Z" fill="white"/>
<path d="M41.5946 69.4252C41.5686 69.3758 41.5457 69.3108 41.5119 69.305C41.2457 69.2583 40.9774 69.2229 40.708 69.187C41.0023 69.2676 41.2967 69.3477 41.5946 69.4252Z" fill="white"/>
<path d="M41.5944 69.4253H41.597C41.5689 69.3775 41.545 69.3104 41.5117 69.3047C41.5455 69.3109 41.5684 69.3759 41.5944 69.4253Z" fill="white"/>
<path d="M41.5969 69.431H41.6005L41.5963 69.4248H41.5938L41.5969 69.431Z" fill="white"/>
<path d="M41.512 69.3052C41.2426 69.2579 40.9707 69.222 40.6992 69.1846H40.7081C40.9774 69.2231 41.2457 69.2584 41.512 69.3052Z" fill="white"/>
<path d="M40.6919 69.1833L40.5915 69.1562C40.5875 69.16 40.5836 69.164 40.5801 69.1682L40.6919 69.1833Z" fill="white"/>
<path d="M40.7079 69.187H40.7012L41.5977 69.4319L41.5945 69.4262C41.2966 69.3477 41.0023 69.2676 40.7079 69.187Z" fill="white"/>
<path d="M41.6151 69.4405L41.6198 69.4373L41.6006 69.4321C41.6031 69.4367 41.6058 69.441 41.6089 69.4451L41.6151 69.4405Z" fill="white"/>
<path d="M46.402 70.1393L46.3963 70.1434L46.3916 70.1465C46.6939 70.1507 46.9979 70.1535 47.3037 70.1549L47.3136 70.145C47.0114 70.1418 46.7088 70.1393 46.4041 70.1377L46.402 70.1393Z" fill="white"/>
<path d="M46.4022 70.1392L46.3965 70.1433L46.4022 70.1392Z" fill="white"/>
<path d="M36.4314 68.6284L36.4199 68.6347C36.6669 68.6378 36.9165 68.6399 37.1666 68.6414L37.0725 68.6305C36.8609 68.6295 36.6482 68.6284 36.4314 68.6284Z" fill="white"/>
<path d="M38.5123 68.7912L38.2752 68.7646C38.1863 68.7766 38.0953 68.8036 38.0059 68.8208C38.2227 68.8562 38.4395 68.891 38.6605 68.9248C38.6236 68.8681 38.5725 68.8221 38.5123 68.7912Z" fill="white"/>
<path d="M37.9639 68.8272L37.9951 68.8215L37.9763 68.8184L37.9639 68.8272Z" fill="white"/>
<path d="M38.658 68.9236C38.6208 68.8675 38.5697 68.822 38.5098 68.7915C38.5697 68.822 38.6208 68.8675 38.658 68.9236Z" fill="white"/>
<path d="M38.0035 68.8208C38.093 68.8036 38.184 68.7766 38.2729 68.7646C38.1834 68.7771 38.0919 68.8047 38.002 68.8208H38.0035Z" fill="white"/>
<path d="M38.0032 68.8208H37.998C38.2201 68.8551 38.4411 68.891 38.661 68.9248L38.6579 68.9206C38.4369 68.891 38.2201 68.8562 38.0032 68.8208Z" fill="white"/>
<path d="M38.6613 68.9275L38.6582 68.9233L38.6613 68.9275Z" fill="white"/>
<path d="M38.6747 68.9302H38.6611L38.6669 68.938L38.6726 68.9343L38.6747 68.9302Z" fill="white"/>
<path d="M43.0322 69.5356C42.8066 69.5081 42.5804 69.4805 42.3516 69.4556C42.5585 69.6609 42.7925 69.623 43.0322 69.5356Z" fill="white"/>
<path d="M42.3513 69.4553L42.3477 69.4517L42.3513 69.4553Z" fill="white"/>
<path d="M43.0671 69.5239L43.04 69.5338H43.0546L43.0671 69.5239Z" fill="white"/>
<path d="M43.032 69.5353H43.0367C42.8053 69.5093 42.5765 69.4833 42.3477 69.4531L42.3513 69.4568C42.5801 69.4802 42.8063 69.5077 43.032 69.5353Z" fill="white"/>
<path d="M42.3485 69.4519L42.3365 69.4399L42.3271 69.4493L42.3485 69.4519Z" fill="white"/>
<path d="M42.3516 69.4556C42.5596 69.6637 42.7956 69.6231 43.0343 69.5362C42.7925 69.6231 42.5585 69.6611 42.3516 69.4556Z" fill="white"/>
<path d="M68.8112 71.0591C68.5777 71.0877 68.3432 71.1158 68.1123 71.147C68.3635 71.2401 68.6099 71.315 68.8112 71.0591Z" fill="white"/>
<path d="M68.8285 71.0568L68.8254 71.0537L68.8223 71.0579L68.8285 71.0568Z" fill="white"/>
<path d="M68.8225 71.054L68.8184 71.0498C68.8184 71.0534 68.8131 71.0561 68.8105 71.0592H68.8194L68.8225 71.054Z" fill="white"/>
<path d="M38.7077 68.9277H38.6973C38.8824 68.961 39.068 68.9938 39.2584 69.024C39.1164 68.7616 38.9047 68.8839 38.7077 68.9277Z" fill="white"/>
<path d="M39.2604 69.0311H39.264C39.263 69.0295 39.2621 69.0277 39.2614 69.0259H39.2578L39.2604 69.0311Z" fill="white"/>
<path d="M39.2606 69.0311V69.0259C39.0703 68.9957 38.8847 68.963 38.6995 68.9297H38.6943C38.885 68.9626 39.0738 68.9964 39.2606 69.0311Z" fill="white"/>
<path d="M38.6747 68.9302L38.6689 68.9339L38.6934 68.9292H38.6793L38.6747 68.9302Z" fill="white"/>
<path d="M39.2793 69.0342H39.2637L39.2694 69.0435L39.2793 69.0342Z" fill="white"/>
<path d="M39.2577 69.0259H39.2614C39.1168 68.7602 38.9052 68.8835 38.707 68.9271C38.9041 68.884 39.1158 68.7618 39.2577 69.0259Z" fill="white"/>
<path d="M39.8645 69.1464C39.8224 69.0944 39.7808 68.9956 39.7382 68.9951C39.5965 68.9988 39.4552 69.0125 39.3154 69.0362C39.5005 69.0731 39.681 69.108 39.8645 69.1464Z" fill="white"/>
<path d="M39.2695 69.041L39.3049 69.0369L39.2825 69.0327H39.2794L39.2695 69.041Z" fill="white"/>
<path d="M39.7384 68.9951C39.5957 68.999 39.4534 69.0126 39.3125 69.0357H39.3156C39.4554 69.0122 39.5967 68.9986 39.7384 68.9951Z" fill="white"/>
<path d="M39.3086 69.0371C39.4958 69.0725 39.6804 69.1099 39.865 69.1469C39.6809 69.1105 39.501 69.0735 39.3159 69.0366L39.3086 69.0371Z" fill="white"/>
<path d="M39.2794 69.0342L39.2695 69.0409L39.2794 69.0342Z" fill="white"/>
<path d="M39.9564 69.1203C39.9278 69.1287 39.8992 69.138 39.8701 69.1474L40.555 69.1547C40.3584 69.0392 40.1582 69.0621 39.9564 69.1203Z" fill="white"/>
<path d="M40.5542 69.1547C40.3571 69.0383 40.1564 69.0617 39.9541 69.1199C40.1574 69.0622 40.3576 69.0394 40.5542 69.1547Z" fill="white"/>
<path d="M40.5559 69.1557L39.8711 69.1484L40.5559 69.1557Z" fill="white"/>
<path d="M40.5805 69.1682C40.5805 69.1682 40.5909 69.1568 40.5919 69.1562H40.5576L40.58 69.1693L40.5805 69.1682Z" fill="white"/>
<path d="M40.5801 69.1682C40.5836 69.164 40.5875 69.16 40.5915 69.1562L40.5801 69.1682Z" fill="white"/>
<path d="M69.3042 71.0117L68.8477 71.0549C69.0037 71.072 69.1529 71.0882 69.3047 71.1038C69.3047 71.0731 69.3042 71.0424 69.3042 71.0117Z" fill="white"/>
<path d="M68.8406 71.0558H68.8484L68.8203 71.0527L68.8406 71.0558Z" fill="white"/>
<path d="M68.8409 71.0562H68.8232L68.8264 71.0593L68.8409 71.0562Z" fill="white"/>
<path d="M41.6213 69.4371L41.6166 69.4403L41.6104 69.4449C41.8464 69.4486 42.0856 69.4501 42.3259 69.4507L42.3368 69.4397C42.1002 69.4397 41.8631 69.4356 41.6239 69.4351L41.6213 69.4371Z" fill="white"/>
<path d="M41.6209 69.437L41.6162 69.4401L41.6209 69.437Z" fill="white"/>
<path d="M47.6074 58.3686C54.2633 55.5986 56.2045 57.2907 55.3428 56.7676C54.4812 56.2444 54.5311 55.167 54.5311 55.167L47.6074 58.3686Z" fill="white"/>
<path d="M26.6396 73.2097C26.7484 73.1796 26.8547 73.141 26.9574 73.0942L26.6396 73.2097Z" fill="white"/>
<path d="M23.999 72.4053L25.065 73.7833L26.6406 73.2113C26.0962 73.3657 24.9511 73.5098 23.999 72.4053Z" fill="white"/>
<defs>
<radialGradient id="paint0_radial_463_20318" cx="0" cy="0" r="1" gradientUnits="userSpaceOnUse" gradientTransform="translate(28.7863 46.8471) rotate(-126.296) scale(0.00455716 0.0164224)">
<stop stop-color="#8F8AD2"/>
<stop offset="1" stop-color="#4267B2"/>
</radialGradient>
<radialGradient id="paint1_radial_463_20318" cx="0" cy="0" r="1" gradientUnits="userSpaceOnUse" gradientTransform="translate(26.9579 66.1458) rotate(-132.373) scale(0.00994325 0.037394)">
<stop stop-color="#8F8AD2"/>
<stop offset="1" stop-color="#4267B2"/>
</radialGradient>
<radialGradient id="paint2_radial_463_20318" cx="0" cy="0" r="1" gradientUnits="userSpaceOnUse" gradientTransform="translate(37.3887 68.6613) rotate(-173.443) scale(0.181 0.155099)">
<stop stop-color="#8F8AD2"/>
<stop offset="1" stop-color="#4267B2"/>
</radialGradient>
<radialGradient id="paint3_radial_463_20318" cx="0" cy="0" r="1" gradientUnits="userSpaceOnUse" gradientTransform="translate(102.309 66.7573) rotate(-153.231) scale(96.4579 292.979)">
<stop stop-color="#8F8AD2"/>
<stop offset="1" stop-color="#4267B2"/>
</radialGradient>
<radialGradient id="paint4_radial_463_20318" cx="0" cy="0" r="1" gradientUnits="userSpaceOnUse" gradientTransform="translate(37.3182 68.6409) rotate(-173.906) scale(0.129756 0.103458)">
<stop stop-color="#8F8AD2"/>
<stop offset="1" stop-color="#4267B2"/>
</radialGradient>
<radialGradient id="paint5_radial_463_20318" cx="0" cy="0" r="1" gradientUnits="userSpaceOnUse" gradientTransform="translate(55.9304 67.2113) rotate(-126.984) scale(2.64493 9.60032)">
<stop stop-color="#8F8AD2"/>
<stop offset="1" stop-color="#4267B2"/>
</radialGradient>
<radialGradient id="paint6_radial_463_20318" cx="0" cy="0" r="1" gradientUnits="userSpaceOnUse" gradientTransform="translate(36.3818 60.5346) rotate(-172.769) scale(1.31822 1.24332)">
<stop stop-color="#8F8AD2"/>
<stop offset="1" stop-color="#4267B2"/>
</radialGradient>
<radialGradient id="paint7_radial_463_20318" cx="0" cy="0" r="1" gradientUnits="userSpaceOnUse" gradientTransform="translate(32.656 65.164) rotate(-131.125) scale(6.07641 22.7386)">
<stop stop-color="#8F8AD2"/>
<stop offset="1" stop-color="#4267B2"/>
</radialGradient>
<radialGradient id="paint8_radial_463_20318" cx="0" cy="0" r="1" gradientUnits="userSpaceOnUse" gradientTransform="translate(49.1958 66.3358) rotate(-127.419) scale(2.72677 9.93945)">
<stop stop-color="#8F8AD2"/>
<stop offset="1" stop-color="#4267B2"/>
</radialGradient>
<radialGradient id="paint9_radial_463_20318" cx="0" cy="0" r="1" gradientUnits="userSpaceOnUse" gradientTransform="translate(41.3329 65.3653) rotate(-126.556) scale(2.8419 10.2699)">
<stop stop-color="#8F8AD2"/>
<stop offset="1" stop-color="#4267B2"/>
</radialGradient>
</defs>
</svg>
