<svg width="105" height="104" viewBox="0 0 105 104" fill="none" xmlns="http://www.w3.org/2000/svg">
<path d="M13.3853 51.7057C13.3619 51.7285 13.3369 51.7504 13.3125 51.7727L13.6042 51.584L13.3853 51.7057Z" fill="white"/>
<path d="M20.2275 55.0109C19.8834 54.4616 19.6814 53.8351 19.6399 53.1882C19.6342 53.1081 19.5671 53.0322 19.5042 52.9433L19.4465 52.8965C19.3134 53.0842 19.2042 53.2433 19.0887 53.3973C18.8719 53.6864 18.875 53.7186 19.0846 54.0161C19.3747 54.4274 19.6566 54.8445 19.9863 55.3245L19.9592 55.3213C20.0424 55.3733 20.1152 55.4155 20.1792 55.4534C20.3061 55.313 20.331 55.1783 20.2275 55.0109Z" fill="white"/>
<path d="M10.2891 53.9182L10.6141 55.1891L10.6338 55.2328C10.8247 54.9691 10.9978 54.7169 11.1881 54.4757C11.5698 53.9879 12.0493 53.6161 12.5797 53.2979C12.7201 53.2141 13.0799 53.2459 12.9239 52.8819C12.9878 52.8334 13.0577 52.7936 13.1319 52.7633C13.3976 52.6551 13.6659 52.5553 13.9202 52.4549C13.9244 52.3925 13.9389 52.3556 13.927 52.3327C13.7502 51.9973 13.6743 51.755 13.719 51.5366C13.6852 51.5782 13.6474 51.6164 13.6061 51.6505V51.7789L10.2891 53.9182Z" fill="white"/>
<path d="M13.8856 53.4081L14.47 52.9042L14.7909 53.0779C14.7909 53.0779 14.0026 54.0274 12.8362 54.5609C12.8195 54.588 12.8024 54.6129 12.7842 54.642C13.7389 54.07 14.7326 53.4138 14.9427 53.0534L14.1981 52.6978C14.145 52.9539 14.0385 53.1959 13.8856 53.4081Z" fill="white"/>
<path d="M10.8594 55.7335L11.0242 55.6445L10.8594 55.7335Z" fill="white"/>
<path d="M20.0731 43.2248C19.563 43.1884 19.1085 42.9882 18.6104 43.1416L19.8755 43.3558C19.6946 44.5388 19.5167 45.7063 19.3394 46.8742L19.5895 46.4488L19.6524 46.4717L19.8443 45.2331C19.8126 45.3891 19.7804 45.5409 19.7486 45.6943C19.668 44.8607 19.9197 44.0734 20.0731 43.2248Z" fill="white"/>
<path d="M45.6445 63.2524C45.6529 63.3315 45.6617 63.4162 45.6716 63.5083C45.6664 63.4506 45.6612 63.3928 45.6555 63.3351C45.6529 63.3076 45.6487 63.2805 45.6445 63.2524Z" fill="white"/>
<path d="M48.436 69.004C48.228 67.8355 47.6961 65.5787 47.3076 63.9756C47.3924 64.3879 47.4699 64.7701 47.5557 65.1503C47.8463 66.4341 48.1427 67.718 48.436 69.004Z" fill="white"/>
<path d="M46.2465 65.2705C46.2205 65.1696 46.1555 65.0734 46.1123 64.9741C46.156 65.0734 46.2205 65.1696 46.2465 65.2705Z" fill="white"/>
<path d="M48.3171 69.394C47.8796 67.3379 47.4441 65.2818 47.0104 63.2257C46.9865 63.1113 46.9667 62.9959 46.9449 62.8794H45.7977C45.7879 62.9002 45.7775 62.9205 45.7676 62.9413C45.8544 62.9813 45.9381 63.0453 46.0276 63.0578C46.5325 63.1332 46.8154 63.4301 46.9001 63.9194C47.0998 65.0722 47.3031 66.2251 47.4831 67.381C47.5752 67.9332 47.631 68.4908 47.65 69.0502C47.6578 69.395 47.546 69.7418 47.482 70.1194C47.2428 70.1714 47.014 70.2286 46.7842 70.2686C47.2974 70.2598 48.1788 70.1989 48.4456 69.8906C48.3396 69.9215 48.2307 69.9415 48.1206 69.9504C48.4716 69.8474 48.3639 69.6155 48.3171 69.394Z" fill="white"/>
<path d="M46.6088 68.1793V68.1653C46.562 68.0457 46.4991 67.9276 46.4824 67.8013C46.4975 67.9313 46.5635 68.0524 46.6088 68.1793Z" fill="white"/>
<path d="M59.7072 52.6043C60.0493 52.6636 60.4955 52.6106 60.8059 52.5565C61.0056 52.4567 61.0877 52.2856 61.0602 52.0292C60.9811 51.2877 60.9156 50.5452 60.8366 49.8037C60.8028 49.486 60.6239 49.264 60.3124 49.1881C60.0499 49.1253 59.7828 49.0832 59.5137 49.0622C59.2626 49.0414 59.0083 49.0581 58.7197 49.0581V49.0685C58.7473 49.4751 58.9397 52.061 59.3239 52.4374L59.7072 52.6043ZM60.0264 51.893C59.9656 51.3033 59.9048 50.7137 59.8346 50.0304C60.0748 50.3518 60.1585 51.072 60.0264 51.893ZM59.4389 49.4491L59.5491 49.461C59.6713 50.4568 59.794 51.4526 59.9256 52.5227C59.6536 52.2206 59.3733 50.2395 59.4389 49.4475V49.4491Z" fill="url(#paint0_radial_463_22234)"/>
<path d="M18.3694 45.9642C18.3694 45.9502 18.3741 45.9367 18.3767 45.9231C18.3764 45.9216 18.3764 45.92 18.3767 45.9185C18.3741 45.933 18.371 45.9481 18.3684 45.9627L18.3652 45.9975L18.3684 45.9933C18.3678 45.9824 18.3684 45.9736 18.3694 45.9642Z" fill="url(#paint1_radial_463_22234)"/>
<path d="M48.5222 69.7264C48.5139 69.7879 48.487 69.8453 48.4452 69.8912C48.6013 69.8351 48.6013 69.7321 48.5425 69.469C48.5071 69.313 48.4712 69.157 48.4385 69.001C48.5009 69.3681 48.5347 69.6281 48.5222 69.7264Z" fill="url(#paint2_radial_463_22234)"/>
<path d="M18.3787 45.9763L18.3662 45.9919L18.3803 45.9753C18.3803 45.9555 18.3803 45.9363 18.3761 45.9165V45.9191C18.3766 45.9399 18.3777 45.9581 18.3787 45.9763Z" fill="url(#paint3_radial_463_22234)"/>
<path d="M46.4053 70.2666C46.4791 70.3076 46.5951 70.3014 46.7838 70.2666C46.5722 70.2723 46.4209 70.2671 46.4053 70.2666Z" fill="url(#paint4_radial_463_22234)"/>
<path d="M53.4881 49.8843C53.5687 50.5915 53.6305 51.3008 53.708 52.0085C53.7813 52.6772 54.1037 52.9627 54.7782 52.9653C55.1172 52.9653 55.4573 52.9736 55.7953 52.9512C56.5004 52.9039 56.7859 52.5519 56.9008 51.9747C57.0282 51.3361 56.9419 50.7267 56.8379 50.1079C56.827 50.0408 56.8062 49.9758 56.7927 49.9092C56.5613 48.7465 56.0974 48.2972 54.8962 48.1839C54.6031 48.1591 54.3089 48.1504 54.0148 48.1579C53.5791 48.4314 53.4761 49.8291 53.4756 49.8291C53.4777 49.8344 53.4794 49.8398 53.4808 49.8453C53.4844 49.858 53.4869 49.8711 53.4881 49.8843ZM55.2561 51.0252C55.2212 50.4896 55.1869 49.9545 55.1474 49.3362C55.3538 49.657 55.3975 50.3486 55.2561 51.0252ZM54.5473 50.7132C54.5619 50.0371 54.5931 49.3611 54.6196 48.6851C54.6227 48.603 54.6404 48.5219 54.6513 48.4397L54.7849 48.4335C54.8141 48.5692 54.8655 48.7039 54.8681 48.8396C54.8744 49.2114 54.8499 49.5832 54.8562 49.955C54.8697 50.7319 54.8941 51.5082 54.9155 52.2851C54.9207 52.4666 54.9326 52.6491 54.9415 52.829C54.6107 52.8852 54.54 52.725 54.5405 52.4869C54.54 51.8962 54.5322 51.3054 54.5447 50.7137L54.5473 50.7132Z" fill="url(#paint5_radial_463_22234)"/>
<path d="M14.1493 51.3181C15.0657 51.1474 16.0102 51.2069 16.898 51.4913C17.6046 51.4036 18.2917 51.1991 18.9312 50.886C19.3945 51.4757 19.3124 52.0529 19.1309 52.6321L19.1117 52.6394C19.2281 52.7247 19.3399 52.811 19.446 52.8963L19.4595 52.8776C19.4736 52.9005 19.4887 52.9223 19.5037 52.9431C20.0362 53.3735 20.5191 53.8619 20.9436 54.3991L20.4273 55.6055C20.7283 55.3549 21.0429 55.1209 21.3633 54.8926C24.1167 52.9348 27.1223 51.5214 30.4113 50.7258C31.0826 50.5636 31.7492 50.3816 32.4179 50.2089C32.25 50.2259 32.0813 50.233 31.9125 50.2302C31.7565 50.2193 31.5693 50.2162 31.4445 50.1346C30.3374 49.3998 29.1227 48.8798 27.8809 48.4284C27.3089 48.2204 26.7161 48.0774 26.1233 47.9454C25.6579 47.8414 25.2071 47.8934 24.8925 48.3369C23.0543 47.9329 21.3913 47.0889 19.6514 46.4717L19.5963 46.8331L19.3477 47.0354C19.3578 47.0733 19.3603 47.1129 19.355 47.1518C19.1876 48.0795 19.0142 49.0063 18.835 49.9323C18.8154 49.9924 18.7882 50.0497 18.7539 50.1029C18.4003 50.0904 18.4003 50.0904 17.9053 49.7711C18.041 49.7389 18.1814 49.7446 18.2604 49.6775C18.3561 49.5958 18.4164 49.4596 18.4648 49.3364C18.7388 48.6505 19.1247 48.0041 19.2001 47.247C19.2051 47.2055 19.2163 47.165 19.2333 47.1269L19.1065 47.2309L18.3785 42.9211L20.1595 43.1421L19.8433 45.233L20.291 43.0724L18.3197 42.8722C18.2453 43.8649 18.1741 44.8176 18.0992 45.8123C17.924 45.7484 17.7976 45.7083 17.6754 45.6563C16.4498 45.1571 15.2231 44.6621 14.0006 44.1566C11.6959 43.2045 9.39598 42.242 7.08874 41.2966C6.8459 41.1968 6.56874 41.1625 6.30614 41.1333C5.6993 41.0668 5.09038 40.9909 4.48094 40.9773C3.80433 40.9634 3.12745 40.9841 2.45294 41.0392C2.03018 41.073 1.6875 41.3169 1.44362 41.6632C1.20702 42.0012 1.31414 42.4172 1.65162 42.5701C2.34582 42.8821 3.0473 43.1821 3.73162 43.5149C7.62226 45.4057 11.5106 47.3018 15.3968 49.2032C15.5445 49.275 15.6833 49.3644 15.8263 49.4456C15.7093 49.7976 15.5252 50.0243 15.2189 50.1928C14.8487 50.4009 14.4992 50.644 14.1753 50.9187C13.9054 51.1439 13.7593 51.3306 13.7182 51.5381C13.7239 51.5303 13.7307 51.5235 13.7364 51.5157C13.8689 51.4395 14.0069 51.3735 14.1493 51.3181ZM31.2464 50.263C31.2568 50.2999 31.2677 50.3369 31.2781 50.3738L30.9708 50.4258L30.9536 50.3639L31.2464 50.263ZM24.0751 52.0066C23.0938 52.1855 22.1115 52.3607 21.1272 52.5203C20.9095 52.5523 20.6882 52.5507 20.4709 52.5157C20.1938 52.473 20.0846 52.3352 20.1241 52.0544C20.1829 51.6384 20.1439 51.2474 19.8464 50.7731C20.1584 50.8298 20.3404 50.8428 20.5105 50.8985C21.6373 51.2661 22.7641 51.6265 23.9612 51.6883C24.086 51.6951 24.2087 51.7466 24.4443 51.8053C24.2571 51.9099 24.1718 51.9889 24.0751 52.0066ZM19.5188 48.1066C20.3508 48.0982 21.1828 48.0624 22.0091 48.1123C22.8182 48.1606 23.6211 48.2943 24.4276 48.403C24.5904 48.4253 24.8041 48.3998 24.9045 48.7212C23.0106 48.3343 21.1527 48.1851 19.2749 48.3265L19.2531 48.2095C19.3415 48.171 19.4299 48.1045 19.5188 48.104V48.1066ZM18.1419 47.2907C18.1809 46.9043 18.2193 46.518 18.2682 46.1326C18.2745 46.0848 18.3249 46.0432 18.3623 45.9985L18.3655 45.9636C18.3681 45.9491 18.3712 45.934 18.3738 45.9194C18.3519 45.6891 18.263 45.4473 18.4565 45.2507C18.4706 45.2366 18.4856 45.2232 18.5012 45.2107V45.205V45.2013L18.4492 44.7255L18.5012 44.7224V45.2086C18.4585 45.4457 18.4159 45.6823 18.3743 45.9205C18.3743 45.9402 18.3774 45.9595 18.3785 45.9792L18.3644 45.9959C18.2951 46.7062 18.2242 47.4169 18.1517 48.1279L18.0644 48.1222C18.0904 47.8424 18.1138 47.5652 18.1419 47.2881V47.2907ZM17.8881 48.4565C17.5537 48.5605 17.2121 48.6416 16.8871 48.7685C16.5855 48.8881 16.3037 49.0561 15.9547 49.2324C16.3297 48.6786 17.1669 48.3239 17.8881 48.4539V48.4565ZM15.5185 47.6958C13.6865 47.0754 11.8722 46.416 10.1105 45.6064C7.95246 44.6153 5.75286 43.7152 3.57146 42.7745C3.36918 42.6871 3.16638 42.5987 2.96982 42.4989C2.52782 42.2742 2.08582 42.0657 1.56946 42.2259C1.4483 41.9607 1.55074 41.7963 1.70934 41.6539C1.98234 41.4063 2.30266 41.2472 2.67186 41.2379C3.31458 41.2243 3.95834 41.2342 4.60158 41.2342C4.02958 41.4563 3.42482 41.4734 2.88558 41.8998C6.76322 43.8878 10.645 45.6958 14.6953 47.131C12.0053 45.9449 9.25662 44.8919 6.65506 43.4994C6.83966 43.5701 7.02686 43.6335 7.2073 43.7115C8.4527 44.2523 9.69394 44.8035 10.9414 45.337C12.126 45.8456 13.3178 46.337 14.5029 46.845C14.8768 47.0052 15.2439 47.183 15.6048 47.3708C15.7753 47.4597 15.9241 47.5918 16.0832 47.7041L16.0364 47.8081C15.8618 47.7791 15.6889 47.7408 15.5185 47.6932V47.6958ZM17.3473 49.4721C17.5725 49.4638 18.2625 49.6801 17.4773 49.6718C16.6921 49.6634 15.6396 49.9661 15.6396 49.9661C16.1102 49.7118 17.1216 49.4809 17.3473 49.4721ZM17.612 50.1798L15.5273 50.4601C16.1825 50.1346 16.8876 50.1065 17.612 50.1798Z" fill="url(#paint6_radial_463_22234)"/>
<path d="M12.6863 54.7419C12.7265 54.7165 12.7604 54.6823 12.7857 54.6421C12.0493 55.0836 11.3364 55.4741 11.0244 55.6446C11.6016 55.3337 12.1487 55.0425 12.6863 54.7419Z" fill="url(#paint7_radial_463_22234)"/>
<path d="M10.6279 55.2423L10.6862 55.47L10.6071 55.2714L10.5801 55.3083L10.8593 55.7337C10.8593 55.7337 10.7636 55.5168 10.6342 55.2329L10.6279 55.2423Z" fill="url(#paint8_radial_463_22234)"/>
<path d="M45.9552 66.5307C46.0592 67.6467 46.1596 68.7631 46.2672 69.879C46.2885 70.1 46.3192 70.216 46.4045 70.2654C46.4014 70.2363 45.8845 65.4679 45.6729 63.5054C45.7671 64.5145 45.8613 65.523 45.9552 66.5307Z" fill="url(#paint9_radial_463_22234)"/>
<path d="M97.8495 66.3915C97.3248 66.3546 96.796 66.3431 96.2755 66.2729C95.2833 66.1393 94.2963 65.9698 93.3063 65.8179C89.4482 65.2262 85.5902 64.6351 81.7321 64.0447C77.2043 63.3479 72.677 62.6503 68.1502 61.9517C67.7467 61.8904 67.339 61.8794 67.0681 61.5071C67.0483 61.4801 66.9807 61.4874 66.935 61.4791C66.5679 61.4395 66.1929 61.4359 65.8357 61.3548C64.5492 61.0641 63.3023 61.1364 62.113 61.7266C61.7646 61.9009 61.4377 62.1154 61.1391 62.3656C60.5447 62.8617 60.7574 63.3989 61.1729 63.8071C61.2769 63.9111 61.4136 63.986 61.6201 64.1362C61.2212 64.2283 60.904 64.3271 60.5801 64.3718C58.8297 64.611 57.0685 64.7441 55.3031 64.6666C53.6981 64.5928 52.0999 64.4116 50.5191 64.1243C49.8358 64.0016 49.1515 63.8861 48.4708 63.7525C48.1656 63.6922 47.8468 63.6407 47.6321 63.3412C51.9169 64.3229 56.2242 64.5042 60.5541 63.8851C60.5629 63.7842 60.5801 63.7442 60.5665 63.7208C60.1864 63.0546 60.3903 62.2648 61.1099 61.7697C61.6637 61.3891 62.2633 61.1317 62.9242 60.9227C62.4911 60.8436 62.0563 60.7708 61.6242 60.6845C60.3242 60.4245 59.031 60.1572 57.7341 59.8941C55.8252 59.5077 53.8913 59.4552 51.9533 59.4713C51.1041 59.4786 50.2549 59.4973 49.4053 59.5155C49.1905 59.5202 48.9825 59.5343 48.9846 59.2295C51.4702 58.8853 53.9563 58.9321 56.4487 59.1775C58.9083 59.4173 61.3335 59.8468 63.7469 60.3902C63.296 59.9633 62.7355 59.7787 62.1801 59.5821C61.7262 59.4214 61.7267 59.4204 61.3653 58.9669C61.515 59.0033 61.631 59.0189 61.735 59.059C62.8485 59.5159 63.9606 59.9759 65.0713 60.4391C65.1337 60.4651 65.2112 60.4827 65.2517 60.5301C65.6729 61.0241 66.363 61.0558 66.8367 61.4577C66.8596 61.477 66.9007 61.4744 66.9345 61.4816L65.2138 60.2529C65.9236 59.9893 66.6105 59.7459 67.2886 59.4802C71.2836 57.916 75.2775 56.3487 79.2704 54.7784C80.4872 54.3 81.6983 53.8106 82.7232 52.9745C84.8817 53.4981 87.0247 54.0145 89.1665 54.5381C91.4889 55.1054 93.8335 55.588 96.0945 56.3877C96.2077 56.4231 96.325 56.4433 96.4434 56.4481C96.9676 56.4876 97.4933 56.5099 98.0164 56.5588C99.6555 56.7148 101.292 56.8755 102.933 57.0325C103.183 57.0565 103.435 57.0653 103.687 57.0809C103.283 56.9017 102.868 56.7508 102.444 56.6295C99.0491 55.6088 95.6588 54.575 92.2574 53.5772C89.7677 52.8492 87.2654 52.1674 84.7663 51.4602C84.5271 51.3921 84.2983 51.2892 84.1043 51.2179C84.7803 49.2336 85.4423 47.2956 86.1001 45.356C86.7543 43.4278 87.4057 41.499 88.0543 39.5694C88.7027 37.6335 89.3787 35.7064 90.0037 33.708C89.7999 33.708 89.6829 33.708 89.5659 33.708C87.8681 33.7309 86.1703 33.76 84.4699 33.774C84.2281 33.774 84.1303 33.9035 84.0113 34.0928C82.3748 36.6928 80.7556 39.3048 79.0676 41.8709C78.1414 43.2751 77.0977 44.598 75.9476 45.8255C75.3484 46.4822 74.5428 46.9145 73.6643 47.0507C73.0289 47.1547 72.3945 47.2691 71.7549 47.3419C70.8043 47.45 69.8652 47.6018 68.9006 47.2899C68.2813 47.0876 67.5938 47.1027 66.9412 46.995C64.6147 46.6102 62.2971 46.1661 59.9446 45.9597C59.5052 45.9212 59.058 45.8744 58.55 46.111L63.3719 47.3954C63.2247 47.4359 63.0702 47.4423 62.9201 47.4141C61.6617 47.2264 60.4059 47.0158 59.1443 46.8505C57.3763 46.6185 55.6083 46.4209 53.8403 46.2057C51.8524 45.9639 49.8686 45.6857 47.8765 45.4855C46.3399 45.3295 44.7908 45.2608 43.2557 45.5375C42.5397 45.6659 41.8039 45.7715 41.1279 46.0237C39.0209 46.8089 37.1697 48.0298 35.5119 49.5388C35.2893 49.7411 35.06 49.804 34.7787 49.8165C34.5312 49.8274 34.2852 49.8841 34.0382 49.9205C34.2077 49.9096 34.3809 49.9044 34.5582 49.9039C34.617 49.9039 34.6757 49.9039 34.735 49.9039C34.9716 49.9075 35.2119 49.9195 35.4531 49.9387C35.8759 49.9725 36.3023 50.0282 36.7193 50.0999C36.8389 50.1207 36.957 50.1426 37.0745 50.1654C37.866 50.3169 38.6432 50.535 39.3979 50.8175C39.0859 50.8664 38.8909 50.9163 38.6922 50.9252C37.7432 50.9688 36.7895 50.9605 35.8447 51.0448C31.4866 51.4337 27.3297 52.5304 23.5004 54.6988C22.6476 55.1814 21.8484 55.7663 21.0564 56.3482C20.3284 56.8833 19.6977 57.5265 19.2567 58.331C18.9816 58.3091 18.8631 58.123 18.9119 57.9197C19.0159 57.4938 19.0352 57.0528 19.3519 56.6717C19.6793 56.2844 20.0415 55.9279 20.434 55.6067C20.434 55.6067 20.343 55.5505 20.1854 55.4554C20.161 55.4824 20.1349 55.5079 20.1074 55.5318C19.7476 55.8435 19.4159 56.1863 19.1163 56.5562C18.2125 57.6924 18.4965 59.2509 19.7668 59.9664C20.4283 60.3387 21.1443 60.6195 21.8494 60.9081C22.4921 61.1712 23.1531 61.3917 23.8077 61.6252C24.127 61.739 24.4463 61.8555 24.7723 61.945C26.3613 62.3796 27.9891 62.6568 29.6323 62.7728C31.8844 62.9356 34.1349 63.1368 36.3923 63.2283C38.8519 63.3261 41.3156 63.3105 43.7763 63.3516C44.1311 63.3649 44.485 63.3058 44.8163 63.1779C45.0581 63.0817 45.3201 62.9787 45.6124 63.0786C45.6228 63.1399 45.6342 63.1966 45.6436 63.2522C45.6056 62.8997 45.5827 62.6854 45.5827 62.6803L46.8599 62.1551C46.8599 62.1551 47.0523 62.9241 47.306 63.975C47.2816 63.8539 47.254 63.7312 47.2296 63.6043C47.4454 63.6604 47.5884 63.6911 47.7277 63.7343C48.9789 64.1121 50.2564 64.3961 51.5497 64.584C53.2657 64.844 54.9968 64.9204 56.7295 64.9376C58.2414 64.9555 59.7519 64.8368 61.2425 64.5829C61.5462 64.5309 61.8405 64.4659 62.0147 64.1877C64.7458 64.5164 67.4576 64.846 70.1704 65.169C74.1987 65.6481 78.2277 66.1247 82.2573 66.599C85.9826 67.0399 89.7068 67.4882 93.4332 67.9213C94.1445 68.004 94.8372 68.0773 95.5828 67.9515C97.2531 67.6644 98.9493 67.5246 100.636 67.3332C101.327 67.2552 102.021 67.2001 102.716 67.1314C102.863 67.1164 103.038 67.1236 103.028 66.8298C102.869 66.7945 102.698 66.7331 102.524 66.7206C100.964 66.6073 99.4074 66.5007 97.8495 66.3915ZM54.0244 57.6789C53.9576 57.688 53.8901 57.6917 53.8227 57.6898C52.4546 57.708 51.0864 57.7283 49.7183 57.7418C49.5139 57.7418 49.3085 57.7127 49.1016 57.6955L49.0626 57.7007C48.9196 57.8682 48.788 58.0382 48.6414 58.1937C48.4724 58.3731 48.2888 58.5395 48.0782 58.7439L47.2462 57.8656C47.2755 57.864 47.3048 57.864 47.3341 57.8656L47.1682 57.8183C47.1682 57.8183 50.3272 53.0993 50.4442 52.9953L50.6564 52.7873C50.8946 52.408 51.1635 52.0489 51.4603 51.7135L53.3323 52.7644L50.2232 56.1964L50.1546 56.1532C50.3725 55.7944 50.582 55.4299 50.8108 55.0779C51.0708 54.6801 51.3709 54.3088 51.6049 53.898C51.8779 53.417 51.9975 52.898 51.8612 52.3307C51.803 52.0905 51.6891 51.9865 51.427 51.9386L51.2128 52.247L47.5821 57.9368H47.579C47.7938 58.0523 47.9082 58.2821 48.1115 58.4412C48.2717 58.2629 48.4448 58.0881 48.5977 57.8968C48.8821 57.5406 49.1432 57.1657 49.4365 56.8173C49.5898 56.6452 49.7803 56.5103 49.9934 56.4226L49.0537 57.7028L49.0636 57.6961L49.1021 57.6992C50.7429 57.4731 52.4029 57.4208 54.0546 57.5432C54.0832 57.5432 54.1097 57.5739 54.182 57.617C54.1315 57.6426 54.0788 57.6633 54.0244 57.6789ZM45.8089 51.896C45.9161 51.574 46.0452 51.2597 46.1953 50.9553C46.6794 49.9283 47.1724 48.906 47.6648 47.8764C48.6528 47.8764 49.5847 47.8624 50.517 47.8847C50.7983 47.892 51.0864 47.9757 51.3563 48.0688C51.7806 48.2155 52.0536 48.515 52.1935 48.9575C52.4847 49.88 52.4956 50.8071 52.3318 51.7899C52.0775 51.6298 52.1971 51.4311 52.194 51.2663C52.1847 50.7593 52.2185 50.2492 52.1743 49.7458C52.0703 48.5659 51.2045 48.0085 50.1806 47.9669C49.4687 47.9378 48.7547 47.9638 48.0413 47.9669C47.9676 47.9728 47.8943 47.9832 47.8219 47.9981C47.435 48.8244 47.045 49.6522 46.6591 50.4826C46.4875 50.8518 46.3222 51.2236 46.1573 51.596C46.091 51.7335 46.0361 51.8763 45.993 52.0229C45.8693 52.5049 46.0845 52.8429 46.5889 52.8627C47.4532 52.896 48.3195 52.8788 49.1848 52.8819C49.5207 52.8819 49.8571 52.8819 50.3127 52.8819C50.1379 52.9714 50.062 53.0426 49.9856 53.0436C48.865 53.0572 47.7444 53.079 46.6238 53.0608C45.8885 53.0462 45.5885 52.6011 45.8089 51.896ZM46.2005 58.292L44.1725 58.8843C44.3836 58.5759 45.3841 58.2649 46.2005 58.292ZM46.369 46.423C46.3731 46.3877 46.3768 46.3518 46.3809 46.3159L49.3803 46.644C49.3725 46.6809 49.3652 46.7179 49.3574 46.7548L46.369 46.423ZM48.5093 49.5986C48.7329 49.1171 48.9567 48.6354 49.1806 48.1536L49.3054 48.2175C49.1702 48.4468 49.0631 48.6907 48.9414 48.9284C48.9113 48.9876 48.8811 49.0464 48.8489 49.1046C48.7546 49.2821 48.6397 49.4479 48.5067 49.5986C48.5067 49.6148 48.5129 49.6324 48.5155 49.6506C48.5201 49.6661 48.5201 49.6825 48.5155 49.698C48.0995 50.6043 47.6835 51.5096 47.253 52.4441C47.2244 52.1602 47.2239 52.1602 47.4334 51.7067C47.5468 51.4608 47.6596 51.2138 47.7745 50.9683C47.8827 50.738 47.9825 50.5045 48.1042 50.2809C48.1978 50.1062 48.3029 49.9377 48.4069 49.7687L48.5109 49.5997L48.5093 49.5986ZM47.8588 52.1232C48.4193 50.9259 48.9846 49.7299 49.5545 48.5352C49.6086 48.4119 49.6828 48.2984 49.7739 48.1993C49.8197 48.153 49.9403 48.1442 50.0095 48.1686C50.0787 48.1931 50.1104 48.2804 50.1572 48.3376C50.114 48.4936 50.0885 48.6273 50.0391 48.7536C49.5628 49.9496 49.0813 51.1456 48.605 52.3448C48.5129 52.5762 48.3855 52.7197 48.1073 52.6448C47.8026 52.5642 47.7199 52.4207 47.8588 52.1248V52.1232ZM53.2839 48.1712C53.194 48.1712 53.1025 48.1712 53.0089 48.1712C53.1513 48.0381 53.2117 47.9352 53.2657 47.9383C54.2116 47.9934 55.1622 48.0194 56.0737 48.3267C56.2529 48.3814 56.4155 48.4802 56.5466 48.614C56.6777 48.7478 56.7731 48.9124 56.8241 49.0927C57.1215 50.025 57.2463 50.9772 57.1418 51.9527C57.0695 52.6256 56.783 53.0582 56.0207 53.0842C55.4976 53.1024 54.9698 53.1362 54.4519 53.0842C53.7582 53.0135 53.5237 52.7202 53.4873 52.0099C53.4509 51.3152 53.429 50.6199 53.3968 49.9252C53.3916 49.8087 53.3671 49.6933 53.3515 49.5773L53.3203 49.0859H53.3427L53.2839 48.1712ZM60.7023 58.3923C60.5712 58.2589 60.421 58.1456 60.2566 58.0564C58.2837 56.953 56.1793 56.4085 53.909 56.5926C53.7759 56.6035 53.6448 56.6332 53.4555 56.6633C53.4685 56.8771 53.4784 57.0403 53.4904 57.2452C53.0947 57.1579 53.195 56.7845 53.0255 56.5963C53.1581 56.3035 53.4285 56.2557 53.6698 56.2427C54.1757 56.2161 54.689 56.1974 55.1913 56.252C56.7111 56.4126 58.2008 56.7862 59.6165 57.3617C60.363 57.6547 61.0243 58.1296 61.5405 58.7433C61.1843 58.7205 60.9243 58.6253 60.7023 58.3929V58.3923ZM61.1749 52.48C61.1136 52.532 61.0132 52.5595 60.8541 52.584C60.5941 52.6557 60.2135 52.7358 59.8526 52.7186H59.8271H59.7751C59.5962 52.7259 59.3815 52.7186 59.2182 52.532C59.1171 52.4522 59.0388 52.3473 58.9909 52.2278C58.9321 52.1354 58.894 52.0315 58.8792 51.923C58.564 50.8607 58.5765 48.8831 58.5625 48.8077C59.2385 48.7557 59.8687 48.8597 60.4865 49.0261C60.7288 49.0911 60.89 49.2747 60.9493 49.5253C61.0034 49.7385 61.0453 49.9547 61.0746 50.1727C61.1443 50.7785 61.2171 51.3848 61.2571 51.9927C61.2748 52.2626 61.2685 52.3983 61.1786 52.4768L61.1749 52.48ZM62.8785 52.2616C62.7999 51.8976 62.7391 51.5336 62.6959 51.1623C62.6439 50.7265 62.6211 50.2882 62.5857 49.8508C62.5711 49.6725 62.5566 49.4946 62.5399 49.2929C63.0922 49.2804 63.5716 49.3267 64.0334 49.504L64.1894 49.5955C64.479 49.6012 64.5612 49.8217 64.5872 50.0386C64.6699 50.7276 64.7302 51.4197 64.791 52.1108C64.8103 52.3286 64.7047 52.467 64.479 52.4919C64.1088 52.533 63.7391 52.5777 63.3678 52.6115C63.1083 52.6354 62.931 52.5054 62.8785 52.26V52.2616ZM79.246 54.5121C78.3162 54.8829 77.388 55.2562 76.4562 55.6213C76.2534 55.7008 76.0402 55.7497 75.8322 55.8168C75.5425 55.9093 75.2456 55.9863 74.9669 56.1049C73.9857 56.5209 73.0185 56.9753 72.031 57.3768C69.8636 58.2582 67.6822 59.1058 65.5169 59.9934C65.0843 60.1713 64.7135 60.1843 64.3272 59.93C64.2293 59.8724 64.1283 59.8203 64.0245 59.774C63.9881 59.476 64.2143 59.4651 64.3776 59.4157C65.0755 59.2035 65.7816 59.02 66.4748 58.7943C67.5382 58.4485 68.5933 58.0772 69.6515 57.7153C70.8865 57.2931 72.1308 56.8953 73.3539 56.4397C75.4027 55.6759 77.4379 54.8751 79.4795 54.0904C79.6292 54.0332 79.7956 53.9058 79.9215 54.2412C79.6797 54.34 79.4628 54.4258 79.246 54.5126V54.5121ZM66.0437 50.7978C66.0489 50.5289 66.2319 50.5268 66.442 50.5705C67.0884 50.7036 67.7347 50.842 68.3853 50.9543C70.0867 51.247 71.7907 51.5263 73.4932 51.8144C73.5213 51.8196 73.5452 51.8492 73.6347 51.9126C71.0867 52.1144 68.5647 51.9449 66.0427 52.48C66.0406 51.9048 66.0328 51.3516 66.0437 50.7983V50.7978ZM94.9557 55.2177C96.3597 55.5297 97.7918 55.7143 99.2036 55.9977C99.9118 56.1387 100.603 56.3659 101.302 56.5541C101.302 56.5786 101.305 56.6025 101.307 56.6269C101.122 56.6269 100.936 56.6451 100.754 56.6243C99.41 56.4709 98.0705 56.2707 96.7237 56.1657C95.8397 56.0971 95.0597 55.7268 94.2204 55.5256C91.9948 54.99 89.7687 54.457 87.5519 53.885C84.1719 53.0135 80.8034 52.1102 77.4301 51.2174C77.2221 51.1654 77.0245 51.0853 76.8223 51.0188L76.8462 50.8997C77.0126 50.9278 77.1821 50.9454 77.3459 50.985C81.0233 51.8676 84.7004 52.7516 88.3772 53.637C90.5711 54.1616 92.7556 54.7274 94.9567 55.2167L94.9557 55.2177ZM88.7823 53.0858L88.7407 53.1898L82.0363 51.428L82.0675 51.3079C84.3097 51.8846 86.5457 52.4867 88.7833 53.0837L88.7823 53.0858ZM85.7143 35.645L84.7039 36.6715C84.5432 36.9138 84.3742 37.1509 84.2172 37.3948C84.1652 37.4759 84.1132 37.5581 84.0612 37.6413C83.2417 39.0252 82.427 40.4118 81.6172 41.8013C80.5647 43.6098 79.2647 45.2369 77.9309 46.8395C77.8581 46.9274 77.7567 46.9919 77.6683 47.0673L77.3189 47.501L77.2388 47.4277L77.6449 47.0455C77.7151 46.9415 77.7796 46.8338 77.8529 46.7335C77.8768 46.6997 77.9018 46.6664 77.9283 46.6347C79.7832 44.388 81.4258 41.9742 82.835 39.4244C83.303 38.582 83.849 37.7858 84.3675 36.9731C84.3875 36.9421 84.4098 36.9125 84.434 36.8847C84.5063 36.8004 84.5942 36.7256 84.6706 36.6439C84.7561 36.5068 84.8504 36.3755 84.953 36.2508C85.1584 35.9955 85.4104 35.7815 85.6955 35.62C86.0186 35.2828 86.4383 35.0541 86.8967 34.9654C86.9664 34.9524 87.0371 34.943 87.1094 34.9368C87.1453 34.9336 87.1817 34.931 87.2181 34.9295L85.7143 35.645ZM69.679 47.9898C70.1184 47.9648 70.563 47.9128 70.9983 47.9445C72.2379 48.0345 73.4334 47.8286 74.6076 47.4641C75.099 47.3112 75.5233 47.0299 75.9076 46.6841C76.6221 46.0445 77.1852 45.2801 77.7276 44.5001C78.7471 43.0409 79.7573 41.5756 80.7582 40.104C81.313 39.2918 81.8559 38.4712 82.3941 37.6475C82.5974 37.3355 82.77 37.0038 82.9598 36.6829C83.4348 35.8818 83.91 35.0808 84.3857 34.28C84.5016 34.0834 84.6722 34.0153 84.8947 34.0106C86.3195 33.9784 87.7444 33.9373 89.1697 33.9066C89.2861 33.9066 89.4037 33.9493 89.5212 33.9727C89.517 34.0247 89.5123 34.073 89.5082 34.123C89.4383 34.1572 89.3647 34.183 89.2887 34.1999C88.5467 34.2784 87.8026 34.3408 87.0616 34.4282C86.2057 34.5322 85.4085 34.8073 84.7091 35.3195C84.5374 35.4555 84.3923 35.6221 84.2812 35.8109C83.7341 36.6886 83.2411 37.6012 82.6556 38.454C81.507 40.1347 80.3156 41.7862 79.1373 43.446C78.6074 44.1927 78.0973 44.954 77.5211 45.6675C77.0863 46.2096 76.5986 46.7071 76.0652 47.1526C75.6864 47.4664 75.2473 47.6993 74.775 47.8369C73.8302 48.1005 72.8666 48.3163 71.8667 48.2456C71.0903 48.1936 70.3124 48.1655 69.4783 48.1244C69.5693 48.061 69.6229 47.9908 69.6801 47.9877L69.679 47.9898ZM64.3792 46.8884C65.0136 47.059 65.6428 47.2524 66.2824 47.4011C66.4904 47.449 66.7187 47.3944 66.9376 47.385C67.2381 47.372 67.5387 47.3575 67.8393 47.3434L67.8564 47.4771C67.7332 47.5031 67.6105 47.5483 67.4867 47.5509C66.9625 47.5629 66.4347 47.5316 65.9142 47.5784C65.6542 47.6024 65.7005 47.321 65.4816 47.2893C65.0333 47.2238 64.5976 47.0709 64.1577 46.9519C64.0017 46.9087 63.8425 46.8588 63.7032 46.7324C63.9294 46.7818 64.1566 46.8265 64.3802 46.8863L64.3792 46.8884ZM43.3015 45.7964C44.1813 45.7444 45.0648 45.6269 45.941 45.668C47.3814 45.7351 48.8182 45.8869 50.2529 46.0398C51.2143 46.1438 52.1675 46.3164 53.1264 46.4428C54.4727 46.6196 55.8226 46.7657 57.1673 46.9545C58.8979 47.1973 60.6237 47.4745 62.3533 47.7272C64.0994 47.983 65.8487 48.2191 67.5943 48.4791C69.0041 48.6871 70.4101 48.9232 71.8188 49.1431C73.0257 49.3314 74.2337 49.5118 75.4406 49.7011C75.6596 49.7318 75.8711 49.8023 76.0646 49.9091C75.6325 49.8758 75.1993 49.8503 74.7683 49.8082C72.7283 49.6044 70.6748 49.452 68.6723 48.984C67.5881 48.7318 66.4883 48.711 65.3927 48.5857C63.8925 48.4141 62.386 48.2903 60.8889 48.0974C59.2769 47.8894 57.6696 47.6076 56.0561 47.3923C55.0811 47.2623 54.0977 47.1978 53.1181 47.1032C53.0042 47.0917 52.8913 47.0767 52.7775 46.9701C52.9439 46.9701 53.1113 46.9607 53.2772 46.9701C53.4431 46.9794 53.6131 47.0221 53.7816 47.0403C55.4804 47.2519 57.1803 47.4599 58.8776 47.6741C60.6102 47.893 62.3423 48.1198 64.075 48.3376C64.2918 48.3647 64.5123 48.36 64.7312 48.3699L64.7406 48.3012C60.7756 47.7563 56.8127 47.1937 52.8445 46.6737C51.0947 46.4443 49.3345 46.2935 47.5775 46.124C46.6316 46.033 45.6836 45.9535 44.7351 45.916C44.2151 45.8957 43.6905 45.9784 43.1673 46.006C43.1018 46.0089 43.0364 45.9986 42.9748 45.9758C42.9133 45.9531 42.8569 45.9182 42.8091 45.8734C42.9721 45.8386 43.1368 45.8122 43.3025 45.7943L43.3015 45.7964ZM38.9949 50.492C37.997 50.232 36.9778 50.051 35.9679 49.8347C35.8587 49.8113 35.7495 49.7905 35.5717 49.7552C35.6996 49.6132 35.774 49.5056 35.8717 49.426C37.3511 48.2206 38.92 47.164 40.6963 46.436C41.3723 46.1589 42.0452 46.1505 42.742 46.2353C43.5683 46.3277 44.3804 46.5198 45.1605 46.8073C45.2557 46.8432 45.3487 46.8843 45.4408 46.9269C46.1298 47.2472 46.2208 47.4734 45.9197 48.1608C45.797 48.4401 45.6389 48.7032 45.512 48.9804C45.174 49.7188 44.8428 50.4603 44.511 51.2018C44.4003 51.4488 44.3171 51.7119 44.1808 51.9438C43.9801 52.2839 43.8387 52.3151 43.4705 52.1466C42.0202 51.48 40.5403 50.8934 38.9949 50.492ZM36.6029 60.2025C38.1306 60.2435 39.6589 60.2742 41.1861 60.3267C41.4846 60.3371 41.69 60.2513 41.8975 60.0371C42.1847 59.7479 42.5089 59.4978 42.8616 59.2935C42.7056 59.6825 42.5444 60.0735 42.3515 60.5472L36.2279 60.3049C36.152 59.6029 36.4505 59.0319 36.5488 58.3809C37.9933 58.4095 39.3958 58.5889 40.7961 58.8687C40.6407 58.885 40.4845 58.8931 40.3281 58.8931C39.6334 58.8588 38.9392 58.8037 38.244 58.7808C37.9554 58.7782 37.6673 58.8029 37.3834 58.8546C36.7074 58.9617 36.4822 59.203 36.3917 59.8764C36.3808 59.9596 36.3767 60.0439 36.3668 60.1583C36.4445 60.1782 36.5236 60.1923 36.6034 60.2004L36.6029 60.2025ZM41.4155 58.9347C41.4155 58.9238 41.4155 58.9129 41.4155 58.9019H42.2152L42.1965 58.9773L41.4155 58.9347ZM42.7155 59.0387L42.7186 59.0148H43.0514L43.0327 59.0954L42.7155 59.0387ZM20.9119 57.4267C22.2411 56.2876 23.7187 55.3341 25.3043 54.5922C27.857 53.4056 30.5371 52.6406 33.2806 52.0499C35.3365 51.6014 37.4289 51.3403 39.532 51.2699C39.792 51.2621 40.0661 51.1961 40.3812 51.4067C40.1685 51.4862 40.0203 51.571 39.8612 51.5949C39.258 51.688 38.6548 51.8029 38.0474 51.8367C33.5343 52.0967 29.1877 53.0556 25.062 54.9266C23.3735 55.6909 21.8247 56.7323 20.4797 58.0075C20.442 58.0413 20.402 58.0726 20.3601 58.1011C20.3549 58.1048 20.3373 58.0902 20.2639 58.0543C20.4896 57.8344 20.6898 57.616 20.9139 57.4251L20.9119 57.4267ZM41.2121 62.8524C40.4519 62.8591 39.6917 62.8721 38.9325 62.8482C37.7495 62.8113 36.567 62.7478 35.3845 62.6922C33.3185 62.596 31.263 62.3901 29.2168 62.0958C27.7227 61.8805 26.2301 61.6572 24.7391 61.426C23.1713 61.1832 21.7714 60.5041 20.4147 59.7235C20.174 59.5847 19.9353 59.4292 19.7705 59.0767C19.9545 59.1526 20.0627 59.189 20.1636 59.2399C22.4412 60.3867 24.9008 61.1285 27.4327 61.4323C29.0311 61.6304 30.6223 61.8935 32.2229 62.0791C34.6841 62.3646 37.153 62.5674 39.6339 62.5882C40.3432 62.5939 41.052 62.6272 41.7613 62.648C41.7675 62.6932 41.7738 62.739 41.7795 62.7848C41.5902 62.8087 41.4014 62.8503 41.2121 62.8524ZM43.8023 62.1561C43.7633 62.1343 43.7253 62.1114 43.6873 62.0885C43.574 62.0188 43.4648 61.9455 43.3603 61.8664C42.923 61.5394 42.5717 61.1112 42.3364 60.6185L43.8444 62.1093L44.8131 62.6813C44.4179 62.6683 44.2292 62.5607 43.8023 62.1561ZM44.5303 61.8077C45.0378 61.9148 45.4111 62.0339 45.7918 62.0625C46.1558 62.09 46.5265 62.024 46.8635 62.0011C46.3981 62.3906 45.303 62.3407 44.5282 61.8077H44.5303ZM47.2135 60.8046C46.0419 60.9045 44.8849 60.789 43.7367 60.5587C43.3941 60.49 43.0529 60.412 42.6541 60.3262C42.7389 60.1182 42.8148 59.9248 42.9198 59.6637C43.3421 60.1837 43.8558 60.2305 44.3961 60.1983C44.9681 60.164 45.5463 60.1432 46.1199 60.0943C46.7408 60.0423 47.2285 59.8057 47.3903 59.1287C47.4225 58.9909 47.5437 58.8749 47.6503 58.7069C47.9264 59.2451 48.0548 59.7651 48.0241 60.3293C48.0111 60.5753 47.8947 60.7032 47.6653 60.7453C47.514 60.7703 47.3627 60.7916 47.2114 60.8046H47.2135ZM47.8687 61.9403C48.0423 61.6312 48.1762 61.3013 48.267 60.9585C48.358 60.6263 48.3767 60.2742 48.4427 59.8275C48.7131 60.8863 48.3107 62.1524 47.2467 62.7307C47.4563 62.4691 47.7002 62.2279 47.8666 61.9403H47.8687ZM92.1087 66.5043C91.9158 66.5043 91.7203 66.5225 91.5294 66.5043C89.4208 66.2734 87.3101 66.055 85.2052 65.7935C84.1797 65.6661 83.1678 65.4295 82.1429 65.2875C80.5455 65.0702 78.9413 64.9043 77.3428 64.6973C75.8452 64.5032 74.3497 64.2952 72.8562 64.0733C71.1277 63.8164 69.4013 63.5471 67.677 63.2652C66.1534 63.0177 64.635 62.739 63.1109 62.4946C62.6949 62.4286 62.2836 62.3906 61.9118 62.1701C62.8322 61.3236 65.3485 61.1203 66.7618 61.8061C66.4717 61.8061 66.2418 61.8061 66.0125 61.8061C65.8939 61.8061 65.764 61.7853 65.6589 61.8254C65.5539 61.8654 65.4192 61.9549 65.3724 62.0563C65.3469 62.1129 65.4504 62.2866 65.5336 62.3256C65.8988 62.501 66.2752 62.652 66.6604 62.7775C66.9496 62.8669 67.2595 62.8924 67.5621 62.9335C69.5282 63.2086 71.4928 63.4961 73.4615 63.7494C75.7495 64.0442 78.0458 64.2922 80.3344 64.5918C81.9146 64.7998 83.4871 65.066 85.0663 65.2917C86.7964 65.5392 88.5301 65.7633 90.2601 66.0129C90.7801 66.0878 91.2923 66.2116 91.8066 66.3197C91.9146 66.3497 92.0203 66.3876 92.1227 66.4331C92.1155 66.456 92.1113 66.4804 92.1066 66.5043H92.1087Z" fill="url(#paint10_radial_463_22234)"/>
<path d="M15.7882 53.2424C16.1263 53.4024 16.486 53.5121 16.8558 53.5679C15.8543 53.0542 15.0223 52.7089 14.9838 52.9564C14.9766 52.9908 14.9636 53.0237 14.9453 53.0536C15.3504 53.2476 15.7466 53.4358 16.145 53.6194C16.3441 53.7114 16.5646 53.7572 16.7658 53.8456C16.9317 53.9184 17.1059 53.9985 17.2385 54.1181C17.8864 54.702 18.6477 55.0541 19.4854 55.2548C19.6428 55.2849 19.8016 55.3072 19.9612 55.3214C19.3627 54.9615 18.2827 54.324 17.2806 53.79C16.4736 53.7161 15.7617 53.2304 15.7882 53.2424Z" fill="url(#paint11_radial_463_22234)"/>
<path d="M53.3525 49.5819C53.3603 49.5985 53.3691 49.6152 53.3779 49.6339L53.3634 49.4082L53.3525 49.5834V49.5819Z" fill="url(#paint12_radial_463_22234)"/>
<path d="M20.4284 55.6049L20.9448 54.3984C20.5203 53.8612 20.0374 53.3728 19.5049 52.9424C19.5678 53.0308 19.6349 53.1072 19.6406 53.1873C19.6821 53.8342 19.884 54.4606 20.2282 55.01C20.3322 55.1774 20.3067 55.3121 20.1798 55.4525C20.3358 55.5477 20.4284 55.6038 20.4284 55.6038V55.6049ZM20.4164 54.2403L20.5792 54.5056L20.5043 54.5576L20.353 54.2783L20.4164 54.2403Z" fill="url(#paint13_radial_463_22234)"/>
<path d="M19.0842 54.016C18.8762 53.7186 18.8716 53.6863 19.0884 53.3972C19.2038 53.2412 19.313 53.0852 19.4462 52.8965C19.3422 52.8112 19.2283 52.7249 19.1118 52.6396C19.0598 52.6593 19.0317 52.6775 19.0078 52.6739C17.8825 52.534 16.7557 52.4009 15.632 52.2454C15.1801 52.183 14.735 52.0686 14.2862 51.9854C14.0595 51.9428 13.9581 51.8294 14.0512 51.5174C15.0132 51.5824 15.9679 51.6188 16.9002 51.493C16.0125 51.2086 15.068 51.1491 14.1515 51.3198C14.009 51.3752 13.8708 51.4413 13.7381 51.5174C13.7324 51.5252 13.7256 51.532 13.7199 51.5398C13.6773 51.7582 13.7532 52.0005 13.9279 52.3359C13.9399 52.3588 13.9253 52.3957 13.9212 52.4581C13.6669 52.5569 13.3986 52.6583 13.1328 52.7665C13.0586 52.7967 12.9887 52.8366 12.9248 52.885C13.0808 53.249 12.721 53.2157 12.5806 53.301C12.0502 53.6192 11.5708 53.991 11.1891 54.4788C11.0008 54.7201 10.8251 54.9723 10.6348 55.2359C10.7642 55.5198 10.8599 55.7361 10.8599 55.7367L11.0248 55.6478C11.3368 55.4782 12.0497 55.0867 12.786 54.6452C12.8037 54.6187 12.8208 54.5932 12.838 54.5641C12.6791 54.6374 12.5156 54.7007 12.3487 54.7534C12.3242 54.7612 13.2504 53.9604 13.8874 53.4112C14.0401 53.199 14.1464 52.957 14.1994 52.7009L14.944 53.0566C14.9623 53.0266 14.9753 52.9938 14.9825 52.9594C15.0225 52.7119 15.8545 53.0571 16.8545 53.5709C18.3474 53.7882 19.2746 52.9074 19.2746 52.9074C19.2746 52.9074 19.1794 53.275 18.1134 53.691C17.8469 53.7908 17.5606 53.8264 17.2778 53.795C18.2798 54.329 19.3578 54.9666 19.9584 55.3264L19.9854 55.3295C19.6562 54.8444 19.3754 54.4273 19.0842 54.016Z" fill="url(#paint14_radial_463_22234)"/>
<path d="M19.3402 46.8746C19.3402 46.8907 19.3355 46.9063 19.3335 46.9219C19.3307 46.9273 19.3283 46.9329 19.3262 46.9385C19.3335 46.9708 19.3423 47.0035 19.3496 47.0358L19.5981 46.8335L19.6533 46.4721L19.5903 46.4492L19.3402 46.8746Z" fill="url(#paint15_radial_463_22234)"/>
<path d="M19.3323 46.9218C19.3323 46.9062 19.337 46.8906 19.3391 46.8745C19.3329 46.886 19.3261 46.8974 19.3193 46.9088L19.3323 46.9218Z" fill="url(#paint16_radial_463_22234)"/>
<path d="M18.3809 42.9204L19.1089 47.2302L19.2357 47.1262C19.2617 47.0627 19.2976 47.0009 19.3247 46.9374C19.3247 46.9275 19.3205 46.9177 19.3189 46.9078C19.3257 46.8963 19.3325 46.8849 19.3387 46.8734C19.516 45.7055 19.6939 44.5381 19.8748 43.3551L18.6097 43.1409C19.1078 42.9875 19.5623 43.1877 20.0724 43.2241C19.919 44.0727 19.6673 44.86 19.7459 45.6936C19.7776 45.5376 19.8098 45.3862 19.8415 45.2323L20.1619 43.1404L18.3809 42.9204Z" fill="url(#paint17_radial_463_22234)"/>
<path d="M45.584 62.6815C45.584 62.6857 45.6069 62.8999 45.6448 63.2535C45.649 63.2816 45.6531 63.3086 45.6557 63.3362C45.6615 63.3939 45.6667 63.4516 45.6719 63.5094C45.883 65.4693 46.3999 70.2377 46.4035 70.2694C46.4191 70.2694 46.5689 70.2752 46.7821 70.2694C47.013 70.2294 47.2407 70.1722 47.4799 70.1202C47.5434 69.7427 47.6557 69.3958 47.6479 69.0511C47.6289 68.4916 47.5731 67.934 47.481 67.3819C47.301 66.2259 47.0977 65.073 46.898 63.9202C46.8133 63.4308 46.5304 63.1339 46.0255 63.0585C45.9345 63.045 45.8507 62.9821 45.7655 62.942C45.7753 62.9212 45.7857 62.901 45.7956 62.8802H46.9428C46.9646 62.9966 46.9844 63.1121 47.0083 63.2265C47.443 65.2826 47.8786 67.3387 48.3151 69.3948C48.3619 69.6163 48.4711 69.8482 48.118 69.9517C48.2281 69.9429 48.337 69.9228 48.443 69.8919C48.4847 69.846 48.5116 69.7886 48.5199 69.7271C48.5324 69.6283 48.4986 69.3688 48.4336 69.0038C48.1403 67.7188 47.8439 66.4349 47.5532 65.15C47.4674 64.7699 47.39 64.3877 47.3052 63.9753C47.0514 62.9259 46.859 62.1553 46.859 62.1553L45.584 62.6815ZM46.1118 64.9737V64.4963L46.1638 64.5C46.1472 64.6581 46.1309 64.8161 46.1149 64.9742C46.1581 65.0735 46.2231 65.1697 46.2491 65.2706C46.2529 65.2851 46.2557 65.2999 46.2574 65.3148C46.3812 66.2644 46.494 67.2149 46.6094 68.1655L46.6219 68.1972V68.2778C46.6476 68.6124 46.6732 68.9467 46.6989 69.2809L46.6204 69.284V68.2607L46.6162 68.205L46.6131 68.1775C46.5678 68.0506 46.5018 67.9294 46.4846 67.8015C46.3557 66.8592 46.2376 65.9154 46.1165 64.9721L46.1118 64.9737Z" fill="url(#paint18_radial_463_22234)"/>
<path d="M21.3633 54.8918C21.043 55.1201 20.7284 55.3541 20.4273 55.6047C20.0348 55.9259 19.6726 56.2824 19.3452 56.6697C19.0285 57.0493 19.0082 57.4902 18.9053 57.9177C18.8564 58.1184 18.9749 58.3071 19.25 58.329C19.691 57.5245 20.3217 56.8813 21.0497 56.3462C21.8417 55.7643 22.6409 55.1793 23.4937 54.6968C27.323 52.5284 31.4799 51.4317 35.838 51.0427C36.7829 50.9585 37.7365 50.9668 38.6855 50.9231C38.8842 50.9143 39.0807 50.8644 39.3912 50.8155C38.6365 50.533 37.8593 50.3149 37.0678 50.1634C36.9503 50.1405 36.8323 50.1187 36.7127 50.0979C36.2967 50.0261 35.8692 49.9705 35.4465 49.9367C35.2052 49.9175 34.9649 49.9055 34.7283 49.9019C34.6691 49.9019 34.6103 49.9019 34.5515 49.9019C34.3758 49.9019 34.2026 49.9076 34.0315 49.9185L34.0456 49.905L33.4153 50.0641L32.4175 50.2081C31.7487 50.3808 31.0821 50.5628 30.4108 50.725C27.1233 51.5206 24.1167 52.9361 21.3633 54.8918Z" fill="white"/>
<path d="M10.0951 54.1086C10.0873 54.0906 10.0837 54.071 10.0844 54.0514C10.0851 54.0318 10.0902 54.0126 10.0992 53.9952L10.0732 53.9297C9.96353 54.3082 10.2147 54.4804 10.2859 54.7066L10.3754 54.6878L10.339 54.5958C10.249 54.4081 10.1627 54.236 10.0951 54.1086Z" fill="url(#paint19_radial_463_22234)"/>
<path d="M10.0948 54.1085C10.1624 54.2338 10.2508 54.408 10.3387 54.5957L10.0989 53.9951C10.0899 54.0125 10.0848 54.0317 10.0841 54.0513C10.0834 54.0709 10.087 54.0905 10.0948 54.1085Z" fill="url(#paint20_radial_463_22234)"/>
<path d="M33.416 50.0641L34.0463 49.9023C33.832 49.9283 33.5829 49.8363 33.416 50.0641Z" fill="url(#paint21_radial_463_22234)"/>
<path d="M65.2515 60.5279C65.211 60.4806 65.1335 60.4629 65.0711 60.4369C63.9593 59.9755 62.8472 59.5155 61.7348 59.0569C61.6308 59.0142 61.5148 59.0012 61.365 58.9648C61.729 59.4183 61.7259 59.4193 62.1799 59.58C62.7352 59.7765 63.2958 59.9611 63.7466 60.3881C61.3333 59.8447 58.9106 59.4152 56.4484 59.1754C53.9561 58.9326 51.47 58.8858 48.9844 59.2274C48.9844 59.5322 49.1924 59.5181 49.405 59.5134C50.2542 59.4952 51.1034 59.4765 51.953 59.4692C53.8911 59.4531 55.825 59.5056 57.7339 59.892C59.0308 60.1551 60.3266 60.4218 61.624 60.6824C62.0561 60.7687 62.4908 60.8415 62.924 60.9205C62.2631 61.1285 61.6635 61.3885 61.1097 61.7676C60.39 62.2626 60.1862 63.0525 60.5663 63.7186C60.5798 63.742 60.5627 63.782 60.5538 63.8829C56.2229 64.5069 51.9156 64.3256 47.6318 63.339C47.8456 63.6385 48.1654 63.69 48.4706 63.7503C49.1513 63.8839 49.8356 63.9993 50.5189 64.1221C52.0997 64.4094 53.6979 64.5905 55.3029 64.6644C57.0683 64.7419 58.8295 64.6088 60.5798 64.3696C60.9043 64.3249 61.2215 64.2261 61.6198 64.134C61.4118 63.9837 61.2782 63.9089 61.1726 63.8049C60.7566 63.3967 60.5445 62.8595 61.1388 62.3635C61.4375 62.1133 61.7644 61.8988 62.1128 61.7244C63.302 61.1342 64.549 61.0619 65.8355 61.3526C66.1927 61.4337 66.5676 61.4374 66.9348 61.4769C66.901 61.4696 66.8599 61.4722 66.837 61.453C66.3628 61.0531 65.6727 61.0214 65.2515 60.5279Z" fill="white"/>
<path d="M90.2575 66.013C88.5275 65.7634 86.7938 65.5392 85.0637 65.2917C83.485 65.066 81.9125 64.7988 80.3317 64.5918C78.0437 64.2923 75.7479 64.0442 73.4589 63.7494C71.4902 63.4961 69.5256 63.2086 67.5595 62.9335C67.2569 62.8908 66.9469 62.8654 66.6578 62.7775C66.2726 62.652 65.8962 62.501 65.531 62.3256C65.4478 62.2866 65.3443 62.1129 65.3698 62.0562C65.4166 61.9548 65.544 61.8685 65.6563 61.8253C65.7686 61.7822 65.8913 61.8071 66.0099 61.8061C66.2392 61.8061 66.4691 61.8061 66.7592 61.8061C65.3459 61.1197 62.8296 61.323 61.9092 62.1701C62.281 62.3932 62.6949 62.4301 63.1083 62.4946C64.6324 62.739 66.1508 63.0177 67.6744 63.2652C69.3987 63.5457 71.1251 63.8151 72.8536 64.0733C74.3471 64.2952 75.8426 64.5032 77.3402 64.6974C78.9387 64.9054 80.5429 65.0702 82.1403 65.2876C83.1652 65.4274 84.1771 65.6661 85.2026 65.7935C87.3075 66.0535 89.4182 66.2735 91.5268 66.5044C91.7177 66.5252 91.9132 66.5044 92.1061 66.5044C92.1108 66.4805 92.115 66.4571 92.1196 66.4331C92.0172 66.3877 91.9115 66.3498 91.8035 66.3198C91.2923 66.2116 90.777 66.0879 90.2575 66.013Z" fill="white"/>
<path d="M74.7799 47.8352C75.2522 47.6976 75.6913 47.4647 76.07 47.1509C76.6035 46.7054 77.0912 46.2079 77.526 45.6658C78.1017 44.9549 78.6123 44.191 79.1422 43.4443C80.3205 41.784 81.5118 40.1324 82.6605 38.4523C83.2435 37.5995 83.739 36.6843 84.2861 35.8091C84.3972 35.6204 84.5423 35.4537 84.714 35.3177C85.4134 34.8055 86.2106 34.5279 87.0665 34.4265C87.8075 34.3391 88.5516 34.2767 89.2937 34.1982C89.3696 34.1812 89.4432 34.1554 89.5131 34.1212C89.5173 34.0692 89.5219 34.0209 89.5261 33.9709C89.4086 33.9475 89.2911 33.9023 89.1746 33.9049C87.7493 33.9361 86.3245 33.9772 84.8997 34.0089C84.6771 34.0136 84.5065 34.0817 84.3906 34.2783C83.9167 35.0801 83.4414 35.8811 82.9647 36.6812C82.7749 37.002 82.6007 37.3338 82.399 37.6458C81.8608 38.4695 81.3179 39.29 80.7631 40.1023C79.7577 41.5718 78.7475 43.0372 77.7325 44.4984C77.1886 45.2784 76.6254 46.0433 75.9125 46.6824C75.5282 47.0271 75.1039 47.3064 74.6125 47.4624C73.4383 47.8264 72.2429 48.0344 71.0032 47.9429C70.5669 47.9111 70.1233 47.9631 69.6839 47.9881C69.6267 47.9912 69.5732 48.0614 69.4863 48.1233C70.3183 48.1644 71.0983 48.1899 71.8747 48.2445C72.8715 48.3147 73.8351 48.0999 74.7799 47.8352Z" fill="white"/>
<path d="M43.1667 46.0083C43.6898 45.9807 44.214 45.898 44.7345 45.9183C45.683 45.9552 46.6309 46.0348 47.5768 46.1263C49.3339 46.2958 51.0941 46.4466 52.8439 46.676C56.812 47.196 60.775 47.7586 64.74 48.3036L64.7306 48.3722C64.5117 48.3623 64.2912 48.367 64.0744 48.34C62.3417 48.1221 60.6096 47.8954 58.877 47.6765C57.1781 47.4622 55.4782 47.2542 53.781 47.0426C53.6125 47.0218 53.4456 46.9848 53.2766 46.9724C53.1076 46.9599 52.9432 46.9724 52.7768 46.9724C52.8907 47.0764 53.0036 47.094 53.1174 47.1055C54.0971 47.2001 55.0804 47.2646 56.0554 47.3946C57.6674 47.6099 59.2737 47.8917 60.8883 48.0997C62.3854 48.2927 63.8919 48.4164 65.3921 48.588C66.4841 48.7133 67.5875 48.7341 68.6717 48.9863C70.6758 49.4544 72.7277 49.6078 74.7719 49.8095C75.2029 49.8516 75.6361 49.8771 76.0682 49.9104C75.8746 49.8036 75.6632 49.7331 75.4442 49.7024C74.2373 49.5131 73.0293 49.3327 71.8224 49.1444C70.4137 48.9245 69.0076 48.6905 67.5979 48.4804C65.8523 48.2204 64.103 47.9843 62.3568 47.7285C60.6273 47.4757 58.9014 47.1986 57.1708 46.9557C55.8261 46.767 54.4762 46.6208 53.1299 46.444C52.171 46.3177 51.2179 46.1435 50.2564 46.041C48.8217 45.8881 47.3849 45.7363 45.9445 45.6692C45.0683 45.6281 44.1848 45.7451 43.305 45.7977C43.1392 45.8162 42.9745 45.8433 42.8115 45.8788C42.8593 45.9227 42.9152 45.9567 42.9762 45.979C43.0371 46.0012 43.1019 46.0111 43.1667 46.0083Z" fill="white"/>
<path d="M77.3469 50.9813C77.1831 50.9418 77.0136 50.9241 76.8472 50.896L76.8232 51.0151C77.0255 51.0816 77.2252 51.1591 77.4311 51.2137C80.8044 52.1065 84.1745 53.0098 87.5529 53.8813C89.7697 54.4533 91.9958 54.9863 94.2214 55.5219C95.0581 55.7231 95.8422 56.0939 96.7247 56.162C98.0715 56.266 99.411 56.4672 100.755 56.6206C100.937 56.6414 101.123 56.6232 101.308 56.6232C101.308 56.5988 101.305 56.5749 101.303 56.5504C100.604 56.3622 99.9128 56.1344 99.2046 55.994C97.7928 55.7132 96.3607 55.5292 94.9567 55.214C92.7555 54.7247 90.571 54.159 88.3782 53.6301C84.7018 52.7458 81.0247 51.8628 77.3469 50.9813Z" fill="white"/>
<path d="M39.6331 62.5888C37.1521 62.568 34.6832 62.3652 32.222 62.0797C30.6214 61.8941 29.0302 61.6309 27.4317 61.4328C24.8999 61.1291 22.4402 60.3872 20.1627 59.2404C20.0618 59.1884 19.9547 59.1531 19.7695 59.0771C19.9344 59.4297 20.1731 59.5852 20.4138 59.724C21.7705 60.5041 23.1698 61.1837 24.7381 61.4266C26.2288 61.6575 27.7214 61.8807 29.2159 62.0963C31.2621 62.3907 33.3176 62.5966 35.3836 62.6928C36.5661 62.7479 37.7486 62.8114 38.9316 62.8488C39.6908 62.8727 40.451 62.8597 41.2113 62.853C41.4005 62.853 41.5893 62.8093 41.7786 62.7859C41.7729 62.7401 41.7666 62.6944 41.7604 62.6491C41.0511 62.6278 40.3423 62.5945 39.6331 62.5888Z" fill="white"/>
<path d="M79.4773 54.0906C77.4358 54.8753 75.4005 55.6761 73.3517 56.4399C72.1287 56.8955 70.8843 57.2933 69.6493 57.7155C68.5912 58.0795 67.5361 58.4487 66.4727 58.7945C65.7795 59.0202 65.0734 59.2037 64.3755 59.4159C64.2123 59.4679 63.9861 59.4762 64.0225 59.7742C64.1262 59.8205 64.2272 59.8726 64.3251 59.9302C64.7115 60.1845 65.0822 60.1715 65.5148 59.9936C67.6801 59.106 69.8615 58.2584 72.0288 57.377C73.0168 56.9755 73.9835 56.5226 74.9647 56.1051C75.2435 55.9865 75.5404 55.9095 75.83 55.817C76.038 55.7499 76.2533 55.701 76.454 55.6215C77.3859 55.2575 78.3141 54.8831 79.2438 54.5123C79.4606 54.4255 79.6775 54.3376 79.9198 54.2409C79.7934 53.906 79.627 54.0334 79.4773 54.0906Z" fill="white"/>
<path d="M16.0824 47.704C15.9233 47.5916 15.7746 47.4596 15.604 47.3706C15.2431 47.1829 14.876 47.0066 14.5021 46.8449C13.3171 46.3374 12.1252 45.846 10.9407 45.3369C9.69267 44.8013 8.45195 44.2522 7.20655 43.7114C7.02611 43.6334 6.83891 43.5699 6.65431 43.4992C9.25431 44.8918 12.0046 45.9432 14.6945 47.1309C10.6463 45.6962 6.76455 43.8882 2.88743 41.8976C3.42511 41.4712 4.03143 41.454 4.60343 41.232C3.96019 41.232 3.31643 41.2221 2.67371 41.2356C2.30451 41.244 1.98419 41.4031 1.71119 41.6516C1.55259 41.7952 1.45119 41.9595 1.57131 42.2236C2.08611 42.0635 2.52967 42.272 2.97167 42.4966C3.16823 42.5965 3.37103 42.6849 3.57331 42.7722C5.75731 43.7129 7.95431 44.6131 10.1123 45.6042C11.8751 46.4138 13.6894 47.0732 15.5203 47.6936C15.69 47.7416 15.8622 47.7805 16.0361 47.81L16.0824 47.704Z" fill="white"/>
<path d="M73.4933 51.8147C71.7909 51.5276 70.0868 51.2474 68.3854 50.9546C67.7349 50.8423 67.0886 50.704 66.4422 50.5709C66.2342 50.5272 66.0491 50.5293 66.0439 50.7981C66.033 51.3514 66.0408 51.9046 66.0408 52.4802C68.5648 51.9452 71.0847 52.1163 73.6327 51.9129C73.5453 51.8495 73.5214 51.8199 73.4933 51.8147Z" fill="white"/>
<path d="M20.3603 58.1C20.4021 58.0714 20.4421 58.0402 20.4799 58.0064C21.8248 56.7311 23.3736 55.6898 25.0621 54.9254C29.1878 53.0534 33.5345 52.0972 38.0475 51.8356C38.6549 51.8003 39.2581 51.6869 39.8613 51.5938C40.0173 51.5699 40.1671 51.4851 40.3813 51.4056C40.0662 51.195 39.7906 51.261 39.5321 51.2688C37.429 51.3392 35.3366 51.6003 33.2807 52.0488C30.5372 52.6395 27.8571 53.4044 25.3044 54.5911C23.72 55.3327 22.2435 56.2857 20.9151 57.424C20.691 57.6148 20.4908 57.8332 20.2656 58.0521C20.3374 58.089 20.3551 58.1036 20.3603 58.1Z" fill="white"/>
<path d="M44.181 51.9432C44.3172 51.7113 44.4004 51.4481 44.5112 51.2011C44.8429 50.4596 45.1742 49.7181 45.5122 48.9797C45.6391 48.7025 45.7972 48.4394 45.9199 48.1601C46.2215 47.4727 46.1279 47.2465 45.441 46.9261C45.3489 46.8835 45.2558 46.8424 45.1607 46.8065C44.3805 46.519 43.5684 46.327 42.7421 46.2345C42.049 46.1508 41.373 46.1591 40.697 46.4358C38.9196 47.1638 37.3507 48.2199 35.8713 49.4232C35.7736 49.5028 35.6992 49.6104 35.5713 49.7524C35.7491 49.7878 35.8583 49.8086 35.9675 49.832C36.9774 50.0483 37.9955 50.2287 38.9945 50.4892C40.5389 50.8928 42.0199 51.4809 43.4712 52.1455C43.8404 52.3145 43.9818 52.2833 44.181 51.9432ZM38.9747 50.2641C37.9716 50.0306 36.9561 49.8481 35.8849 49.6333C36.0377 49.5054 36.1449 49.3941 36.2697 49.3145C37.4137 48.5902 38.5545 47.8528 39.7209 47.1622C40.1369 46.9152 40.619 46.7686 41.0828 46.61C41.6639 46.4121 42.2885 46.3791 42.8872 46.5148C43.5492 46.6583 44.2122 46.7972 44.8731 46.9475C45.0384 46.9849 45.1984 47.0427 45.3494 47.1196C45.8653 47.3869 45.9136 47.5564 45.6578 48.0873C45.0983 49.248 44.5403 50.4093 43.9839 51.5714C43.804 51.9468 43.6443 52.0144 43.2621 51.8439C41.868 51.2199 40.4671 50.612 38.9747 50.2641Z" fill="white"/>
<path d="M18.9316 50.8862C18.2921 51.1993 17.605 51.4039 16.8984 51.4915C17.7507 51.7577 18.499 52.1894 19.1121 52.6397L19.1313 52.6324C19.3128 52.0521 19.395 51.4759 18.9316 50.8862Z" fill="white"/>
<path d="M14.0491 51.5157C13.956 51.8278 14.0574 51.9406 14.2841 51.9838C14.7329 52.069 15.178 52.1834 15.6299 52.2438C16.7536 52.3998 17.8804 52.5324 19.0057 52.6723C19.0317 52.6759 19.0613 52.6577 19.1097 52.6379C18.4966 52.1876 17.7483 51.7539 16.8961 51.4897C15.9658 51.6171 15.0111 51.5807 14.0491 51.5157Z" fill="white"/>
<path d="M63.0233 52.0273C63.0753 52.37 63.2038 52.4485 63.5563 52.4355C63.742 52.4288 63.9261 52.3638 64.1107 52.3659C64.5553 52.3705 64.6161 52.1787 64.5886 51.8266C64.5464 51.303 64.5007 50.7778 64.4222 50.2588C64.3878 50.0311 64.2693 49.8163 64.1887 49.5959L64.0327 49.5043L62.665 49.3853C62.7904 50.3212 62.8923 51.1766 63.0233 52.0273ZM63.8231 50.9905L63.8751 50.9853L63.8985 51.4013L63.8252 51.4049L63.8231 50.9905ZM63.2511 50.1585C63.4492 50.6722 63.3728 51.2089 63.3832 51.7387C63.2272 51.2198 63.145 50.6962 63.2511 50.1564V50.1585Z" fill="url(#paint22_radial_463_22234)"/>
<path d="M20.5117 50.8988C20.3417 50.8431 20.1576 50.8301 19.8477 50.7734C20.1451 51.2477 20.1841 51.6377 20.1253 52.0547C20.0858 52.3355 20.195 52.4733 20.4722 52.5159C20.6894 52.551 20.9107 52.5526 21.1284 52.5206C22.1128 52.361 23.0951 52.1858 24.0763 52.0069C24.173 51.9892 24.2583 51.9102 24.4455 51.8056C24.2099 51.7469 24.0872 51.6954 23.9624 51.6886C22.7654 51.6278 21.6385 51.2664 20.5117 50.8988Z" fill="white"/>
<path d="M48.0224 60.3304C48.0531 59.7662 47.9246 59.2462 47.6485 58.708C47.5414 58.876 47.4202 58.9919 47.3885 59.1297C47.2268 59.8057 46.739 60.0439 46.1182 60.0954C45.5461 60.1432 44.9689 60.164 44.3943 60.1994C43.8551 60.2316 43.3403 60.1869 42.9181 59.6648C42.8141 59.9248 42.7371 60.1167 42.6523 60.3273C43.0512 60.4131 43.3923 60.4911 43.735 60.5597C44.8831 60.7901 46.0401 60.9055 47.2117 60.8057C47.363 60.7927 47.5144 60.7714 47.6641 60.7454C47.8929 60.7043 48.0094 60.5764 48.0224 60.3304Z" fill="white"/>
<path d="M49.9848 53.0403C50.0612 53.0403 50.1372 52.968 50.3119 52.8786C49.8564 52.8786 49.5199 52.8786 49.184 52.8786C48.3187 52.8755 47.4524 52.8926 46.5882 52.8593C46.0838 52.8396 45.8685 52.5016 45.9923 52.0195C46.0353 51.873 46.0903 51.7302 46.1566 51.5926C46.3214 51.2203 46.4868 50.8485 46.6584 50.4793C47.0442 49.6473 47.4342 48.821 47.8211 47.9947C47.8935 47.9798 47.9668 47.9694 48.0405 47.9635C48.754 47.9598 49.4679 47.9338 50.1798 47.9635C51.2037 48.0051 52.0705 48.5625 52.1735 49.7424C52.2177 50.2458 52.1839 50.7559 52.1932 51.2629C52.1964 51.4278 52.0768 51.6269 52.331 51.7866C52.4948 50.8038 52.4839 49.8766 52.1927 48.9541C52.0528 48.5116 51.7798 48.212 51.3555 48.0654C51.0856 47.9723 50.7976 47.8886 50.5162 47.8813C49.5839 47.859 48.6505 47.873 47.6641 47.873C47.1716 48.9026 46.6761 49.9249 46.1945 50.952C46.0442 51.2575 45.9151 51.573 45.8082 51.8963C45.5877 52.604 45.8877 53.0491 46.623 53.0616C47.7436 53.0772 48.8642 53.0554 49.9848 53.0403Z" fill="white"/>
<path d="M48.1068 52.6465C48.385 52.7213 48.5124 52.5778 48.6044 52.3464C49.0808 51.1504 49.5623 49.9544 50.0386 48.7553C50.0906 48.6305 50.1135 48.4953 50.1566 48.3393C50.1098 48.2821 50.0714 48.1922 50.009 48.1703C49.9466 48.1485 49.8192 48.1547 49.7734 48.201C49.6822 48.3001 49.6081 48.4136 49.554 48.5369C48.9854 49.7308 48.4202 50.9268 47.8582 52.1249C47.7194 52.4208 47.8021 52.5643 48.1068 52.6465Z" fill="white"/>
<path d="M51.4287 51.9371C51.6887 51.9849 51.8046 52.0889 51.8629 52.3292C51.9991 52.8965 51.8795 53.4154 51.6065 53.8964C51.3725 54.3072 51.0704 54.6764 50.8125 55.0763C50.5837 55.4284 50.3741 55.7929 50.1562 56.1517L50.2249 56.1948L53.334 52.7628L51.462 51.7119C51.1655 52.0477 50.8969 52.4072 50.6591 52.7868L51.215 52.2439L51.4287 51.9371Z" fill="white"/>
<path d="M37.3806 58.8536C37.6644 58.8019 37.9526 58.7771 38.2412 58.7798C38.9364 58.8026 39.6306 58.8578 40.3253 58.8921C40.4816 58.8921 40.6378 58.884 40.7933 58.8676C39.393 58.59 37.9905 58.4085 36.546 58.3799C36.4477 59.0299 36.1492 59.6008 36.2251 60.3039L42.3486 60.5462C42.5415 60.0709 42.7001 59.6814 42.8587 59.2925C42.506 59.4968 42.1819 59.7468 41.8947 60.0361C41.6867 60.2503 41.4818 60.3361 41.1833 60.3257C39.6561 60.2737 38.1278 60.2425 36.6 60.2014C36.5195 60.1931 36.4397 60.1787 36.3614 60.1583C36.3712 60.0439 36.3754 59.9596 36.3863 59.8764C36.4794 59.202 36.7051 58.9607 37.3806 58.8536Z" fill="white"/>
<path d="M59.6165 57.3621C58.2007 56.7866 56.711 56.413 55.1912 56.2524C54.6889 56.2004 54.1756 56.2166 53.6697 56.2431C53.4284 56.2561 53.158 56.3039 53.0254 56.5967C53.1949 56.7849 53.0946 57.1583 53.4903 57.2456C53.4783 57.0407 53.4684 56.8775 53.4554 56.6637C53.6447 56.6336 53.7758 56.604 53.9089 56.593C56.1792 56.409 58.2837 56.9534 60.2566 58.0568C60.421 58.146 60.5712 58.2592 60.7022 58.3927C60.9222 58.6251 61.1827 58.7203 61.5384 58.7437C61.0228 58.1303 60.3622 57.6554 59.6165 57.3621Z" fill="white"/>
<path d="M54.1553 48.112C54.1053 48.1146 54.0569 48.1304 54.0149 48.1578C54.309 48.1503 54.6032 48.159 54.8964 48.1838C56.0976 48.2976 56.5604 48.7464 56.7928 49.9092C56.8063 49.9757 56.8271 50.0407 56.8381 50.1078C56.9421 50.7266 57.0284 51.3361 56.901 51.9746C56.7861 52.5518 56.5006 52.9039 55.7954 52.9512C55.4574 52.9736 55.1194 52.9668 54.7783 52.9653C54.1023 52.9653 53.7815 52.6772 53.7081 52.0084C53.6307 51.3007 53.5688 50.5914 53.4882 49.8842C53.487 49.871 53.4846 49.8579 53.4809 49.8452C53.4796 49.8397 53.4778 49.8343 53.4757 49.8291L53.3977 49.9289C53.4299 50.6237 53.4497 51.3189 53.4882 52.0136C53.5246 52.7224 53.7591 53.0173 54.4528 53.088C54.9728 53.14 55.4985 53.1062 56.0216 53.088C56.784 53.062 57.0705 52.6293 57.1428 51.9564C57.2468 50.9799 57.1225 50.0277 56.8251 49.0964C56.7741 48.9161 56.6787 48.7515 56.5476 48.6177C56.4165 48.4838 56.2539 48.3851 56.0747 48.3304C55.1621 48.0231 54.2115 47.9971 53.2666 47.942C53.2146 47.9388 53.1522 48.0418 53.0098 48.1749C53.1034 48.1749 53.1949 48.1749 53.2849 48.1749L53.2812 48.1151C53.2812 48.1151 54.7102 48.086 54.1553 48.112Z" fill="white"/>
<path d="M53.3525 49.5815C53.3681 49.6975 53.3926 49.8129 53.3978 49.9294L53.3785 49.6325C53.3692 49.6153 53.3603 49.5987 53.3525 49.5815Z" fill="white"/>
<path d="M53.3525 49.5815C53.3603 49.5987 53.3691 49.6153 53.3779 49.6335C53.3691 49.6169 53.3603 49.6003 53.3525 49.5815Z" fill="white"/>
<path d="M84.695 36.6599L84.6788 36.6448L84.6742 36.6406C84.5977 36.7223 84.5098 36.7966 84.4376 36.8814C84.4133 36.9092 84.391 36.9388 84.371 36.9698C83.851 37.7825 83.304 38.5787 82.8386 39.4211C81.4293 41.971 79.7867 44.3847 77.9318 46.6314C77.9053 46.6631 77.8798 46.6964 77.8564 46.7302C77.7842 46.8342 77.7197 46.9382 77.6484 47.0422L77.6614 47.0541L77.6718 47.064C77.7602 46.9886 77.8616 46.9241 77.9344 46.8363C79.2682 45.2336 80.5682 43.6065 81.6207 41.798C82.4298 40.4079 83.2445 39.0212 84.0647 37.638C84.1167 37.5548 84.1656 37.4726 84.2207 37.3915C84.3767 37.1476 84.5468 36.9105 84.7074 36.6682L84.695 36.6599Z" fill="white"/>
<path d="M77.6494 47.0439C77.7196 46.9399 77.7841 46.8323 77.8574 46.7319C77.7841 46.8323 77.7201 46.9405 77.6494 47.0439Z" fill="white"/>
<path d="M84.7045 36.6694C84.5438 36.9118 84.3748 37.1489 84.2178 37.3928C84.3738 37.1489 84.5438 36.9118 84.7045 36.6694Z" fill="white"/>
<path d="M64.789 52.1113C64.7282 51.4203 64.6679 50.7281 64.5852 50.0391C64.5592 49.8223 64.4771 49.6018 64.1874 49.5961C64.268 49.8165 64.3866 50.0313 64.4209 50.2591C64.4994 50.7791 64.5452 51.3032 64.5873 51.8269C64.6148 52.1789 64.554 52.3708 64.1094 52.3661C63.9248 52.3661 63.7408 52.4291 63.5551 52.4358C63.2026 52.4488 63.0752 52.3703 63.0221 52.0276C62.8911 51.1769 62.7892 50.3215 62.6649 49.3855L64.0325 49.5045C63.5707 49.3272 63.0913 49.2809 62.5391 49.2934C62.5557 49.4952 62.5703 49.673 62.5848 49.8514C62.6202 50.2887 62.6446 50.7271 62.6951 51.1628C62.7382 51.5315 62.7991 51.8992 62.8776 52.2621C62.9296 52.5055 63.1074 52.6355 63.3643 52.6121C63.7356 52.5783 64.1053 52.5336 64.4755 52.4925C64.7027 52.4681 64.8083 52.3292 64.789 52.1113Z" fill="white"/>
<path d="M54.5376 52.4889C54.5376 52.726 54.6079 52.8872 54.9386 52.8311C54.9298 52.6496 54.9178 52.4671 54.9126 52.2872C54.8913 51.5103 54.8669 50.7339 54.8533 49.9571C54.8471 49.5853 54.8715 49.2135 54.8653 48.8417C54.8653 48.7059 54.8133 48.5713 54.7821 48.4355L54.6484 48.4418C54.6375 48.5239 54.6198 48.6051 54.6167 48.6872C54.5902 49.3632 54.559 50.0392 54.5444 50.7152C54.5319 51.3054 54.5397 51.8961 54.5376 52.4889Z" fill="white"/>
<path d="M61.2513 51.9971C61.2113 51.3886 61.1385 50.7823 61.0688 50.177C61.0395 49.959 60.9976 49.7428 60.9435 49.5296C60.8842 49.2789 60.723 49.0954 60.4807 49.0304C59.8624 48.8645 59.2326 48.7594 58.5566 48.812L58.7126 49.0153C58.7126 49.0153 58.7126 49.034 58.7163 49.0673V49.0569C59.0049 49.0569 59.2592 49.0402 59.5103 49.061C59.7795 49.0821 60.0465 49.1241 60.3091 49.1869C60.6211 49.2628 60.7994 49.4849 60.8332 49.8026C60.9123 50.5441 60.9778 51.2867 61.0568 52.0282C61.0844 52.2846 61.0022 52.4557 60.8026 52.5555C61.0106 52.5191 61.1562 52.4833 61.1666 52.4801C61.2628 52.4027 61.269 52.2669 61.2513 51.9971Z" fill="white"/>
<path d="M61.1724 52.4814C61.1573 52.4872 61.0346 52.5335 60.8516 52.5855C61.0107 52.5611 61.111 52.534 61.1724 52.4814Z" fill="white"/>
<path d="M24.9043 48.7188C24.8039 48.3975 24.5923 48.4229 24.4275 48.4006C23.6225 48.2919 22.8154 48.1583 22.0089 48.1099C21.1816 48.0579 20.3486 48.0959 19.5187 48.1042C19.4297 48.1042 19.3413 48.1713 19.2529 48.2082L19.2748 48.3252C21.1525 48.1827 23.0104 48.3319 24.9043 48.7188Z" fill="white"/>
<path d="M19.204 47.2473C19.1286 48.0044 18.7427 48.6513 18.4687 49.3366C18.4193 49.4599 18.36 49.5966 18.2643 49.6778C18.1853 49.7448 18.0449 49.7391 17.9092 49.7714C18.4042 50.0906 18.4042 50.0906 18.7578 50.1031C18.7921 50.05 18.8193 49.9927 18.8389 49.9326C19.0154 49.0063 19.1887 48.0795 19.3589 47.1521C19.3642 47.1132 19.3617 47.0736 19.3517 47.0356L19.2393 47.1272C19.2216 47.1652 19.2096 47.2057 19.204 47.2473Z" fill="white"/>
<path d="M19.2363 47.1272L19.3486 47.0357C19.3414 47.0035 19.3325 46.9707 19.3252 46.9385C19.2982 47.0019 19.2623 47.0638 19.2363 47.1272Z" fill="white"/>
<path d="M19.3193 46.9087C19.3193 46.9186 19.323 46.9284 19.3251 46.9383C19.3272 46.9326 19.3296 46.9271 19.3323 46.9217L19.3193 46.9087Z" fill="white"/>
<path d="M82.0361 51.4282L88.7441 53.1874L88.7857 53.0834C86.5497 52.4864 84.3137 51.8842 82.0689 51.3086L82.0361 51.4282Z" fill="white"/>
<path d="M49.055 57.7002L49.9947 56.4199C49.7816 56.5076 49.5911 56.6426 49.4378 56.8146C49.1445 57.163 48.8834 57.5379 48.599 57.8941C48.4461 58.0855 48.273 58.2581 48.1128 58.4386C47.9095 58.2794 47.7951 58.0496 47.5803 57.9342L47.3359 57.8655C47.3067 57.8639 47.2773 57.8639 47.248 57.8655L48.08 58.7438C48.288 58.5394 48.4742 58.373 48.6432 58.1936C48.7909 58.0376 48.923 57.866 49.0618 57.7012L49.055 57.7002Z" fill="white"/>
<path d="M49.0646 57.6934L49.0547 57.7001L49.0646 57.6934Z" fill="white"/>
<path d="M49.1094 57.693C49.3114 57.7191 49.5147 57.7349 49.7183 57.7403C51.0865 57.7284 52.4546 57.7081 53.8228 57.6883C53.8902 57.6901 53.9577 57.6865 54.0245 57.6774C54.0816 57.66 54.1368 57.637 54.1894 57.6087C54.1171 57.5655 54.0906 57.5369 54.062 57.5348C52.4101 57.4131 50.7501 57.4661 49.1094 57.693Z" fill="white"/>
<path d="M49.1016 57.6939C49.3096 57.711 49.5139 57.7422 49.7183 57.7401C49.5146 57.7347 49.3114 57.7189 49.1094 57.6929L49.1016 57.6939Z" fill="white"/>
<path d="M49.0625 57.699L49.1015 57.6938H49.0693L49.0625 57.699Z" fill="white"/>
<path d="M49.0677 57.6915L49.0625 57.6977L49.0693 57.6899L49.0677 57.6915Z" fill="white"/>
<path d="M49.0646 57.6934L49.0547 57.7001H49.0594L49.0646 57.6934Z" fill="white"/>
<path d="M65.4825 47.2874C65.7014 47.3191 65.6531 47.5994 65.9151 47.5765C66.4351 47.5297 66.9635 47.5609 67.4876 47.5489C67.6114 47.5489 67.7341 47.5011 67.8573 47.4751L67.8402 47.3415C67.5396 47.3555 67.2391 47.3701 66.9385 47.3831C66.7196 47.3924 66.4892 47.447 66.2833 47.3992C65.6437 47.2489 65.0145 47.057 64.3801 46.8865C64.1565 46.8267 63.9293 46.7825 63.7041 46.7305C63.8435 46.8568 64 46.9067 64.1586 46.9499C64.5985 47.069 65.0322 47.2219 65.4825 47.2874Z" fill="white"/>
<path d="M48.4412 59.8276C48.3752 60.2743 48.3564 60.6264 48.2654 60.9586C48.1746 61.3014 48.0408 61.6313 47.8671 61.9404C47.7007 62.228 47.4548 62.4692 47.2432 62.7308C48.3091 62.1526 48.7116 60.8864 48.4412 59.8276Z" fill="white"/>
<path d="M59.5496 49.4592L59.4393 49.4473C59.3738 50.2392 59.6541 52.2204 59.9261 52.521C59.7945 51.4508 59.6718 50.455 59.5496 49.4592Z" fill="white"/>
<path d="M16.8884 48.7676C17.2124 48.6392 17.5551 48.5565 17.8894 48.4556C17.1682 48.3256 16.3294 48.6802 15.9561 49.2356C16.305 49.0552 16.5868 48.8872 16.8884 48.7676Z" fill="white"/>
<path d="M48.4068 49.7701C48.3028 49.9392 48.1988 50.1076 48.1042 50.2824C47.9836 50.506 47.8827 50.7395 47.7745 50.9698C47.6596 51.2153 47.5468 51.4623 47.4334 51.7083C47.2254 52.1617 47.2254 52.1617 47.253 52.4456C47.6835 51.5096 48.1006 50.6058 48.5155 49.6994C48.52 49.684 48.52 49.6675 48.5155 49.6521C48.5155 49.6349 48.5082 49.6173 48.5067 49.6001L48.4068 49.7701Z" fill="white"/>
<path d="M45.7918 62.0625C45.4112 62.0339 45.0378 61.9148 44.5303 61.8076C45.3051 62.3407 46.4023 62.3907 46.8635 62.0011C46.524 62.024 46.1558 62.088 45.7918 62.0625Z" fill="white"/>
<path d="M44.1729 58.8856L46.2009 58.2933C45.3834 58.2647 44.3829 58.5757 44.1729 58.8856Z" fill="white"/>
<path d="M46.4805 67.8033C46.4971 67.9276 46.56 68.0456 46.6068 68.1673C46.4914 67.2168 46.3785 66.2662 46.2548 65.3167C46.2531 65.3018 46.2503 65.287 46.2465 65.2725C46.2205 65.1716 46.1549 65.0754 46.1123 64.9761C46.2335 65.9173 46.3515 66.8611 46.4805 67.8033Z" fill="white"/>
<path d="M46.616 68.2007L46.6035 68.1689V68.183C46.6108 68.1866 46.6139 68.1934 46.616 68.2007Z" fill="white"/>
<path d="M46.6166 68.201C46.6166 68.1937 46.6115 68.187 46.6094 68.1797L46.6125 68.2073L46.6166 68.201Z" fill="white"/>
<path d="M49.3805 46.6438L46.3811 46.3188C46.3769 46.3547 46.3733 46.3906 46.3691 46.426L49.3576 46.7546C49.3654 46.7161 49.3727 46.6792 49.3805 46.6438Z" fill="white"/>
<path d="M59.834 50.0303C59.9042 50.7136 59.965 51.3032 60.0258 51.8929C60.1579 51.0718 60.0742 50.3516 59.834 50.0303Z" fill="white"/>
<path d="M42.3359 60.6196C42.5712 61.1123 42.9226 61.5406 43.3598 61.8676C43.4638 61.9467 43.5735 62.02 43.6869 62.0897C43.7249 62.1125 43.7628 62.1354 43.8018 62.1573L43.8434 62.1115L42.3359 60.6196Z" fill="white"/>
<path d="M43.6865 62.0878C43.5731 62.0181 43.4639 61.9448 43.3594 61.8657C43.4639 61.9453 43.5731 62.0186 43.6865 62.0878Z" fill="white"/>
<path d="M43.8024 62.156C43.7634 62.1341 43.7255 62.1113 43.6875 62.0884C43.7255 62.1113 43.7645 62.1341 43.8024 62.156Z" fill="white"/>
<path d="M15.5283 50.4602L17.613 50.1799C16.8886 50.1066 16.1835 50.1347 15.5283 50.4602Z" fill="white"/>
<path d="M55.1445 49.3359C55.184 49.9542 55.2184 50.4893 55.2532 51.0249C55.3972 50.3484 55.3536 49.6568 55.1445 49.3359Z" fill="white"/>
<path d="M18.3624 45.998C18.3244 46.0412 18.275 46.0828 18.2687 46.1301C18.2199 46.5154 18.1814 46.9018 18.1424 47.2882C18.1143 47.5653 18.0904 47.8425 18.0654 48.1202L18.1528 48.1259C18.2235 47.4173 18.2934 46.708 18.3624 45.998Z" fill="white"/>
<path d="M18.3688 45.9644C18.3688 45.9737 18.3688 45.9826 18.3662 45.9919L18.3787 45.9763L18.3688 45.9644Z" fill="white"/>
<path d="M18.1523 48.1256C18.2217 47.4153 18.2926 46.7047 18.365 45.9937L18.3619 45.9973C18.2936 46.709 18.2238 47.4184 18.1523 48.1256Z" fill="white"/>
<path d="M18.3627 45.9961C18.3252 46.0408 18.2748 46.0824 18.2686 46.1303C18.2748 46.0829 18.3242 46.0413 18.3622 45.9982L18.3627 45.9961Z" fill="white"/>
<path d="M18.3664 45.9946L18.3633 45.9988L18.3664 45.9946Z" fill="white"/>
<path d="M58.9848 52.2305C58.94 52.1322 58.9026 52.0307 58.873 51.9268C58.8879 52.0349 58.9261 52.1386 58.9848 52.2305Z" fill="white"/>
<path d="M58.873 51.9268C58.8879 52.0352 58.926 52.1392 58.9848 52.2316C58.9259 52.1393 58.8878 52.0353 58.873 51.9268Z" fill="white"/>
<path d="M86.8965 34.9651C86.4379 35.0538 86.0182 35.2827 85.6953 35.6203L85.7151 35.6426L87.2179 34.9292C87.1815 34.9292 87.1451 34.9334 87.1092 34.9365C87.0369 34.9438 86.9662 34.9521 86.8965 34.9651Z" fill="white"/>
<path d="M85.6953 35.62C86.0182 35.2825 86.4379 35.0535 86.8965 34.9648C86.438 35.0537 86.0183 35.2826 85.6953 35.62Z" fill="white"/>
<path d="M86.8965 34.9651C86.9662 34.9521 87.0369 34.9428 87.1092 34.9365C87.0369 34.9438 86.9662 34.9521 86.8965 34.9651Z" fill="white"/>
<path d="M48.8523 49.1044C48.8845 49.0462 48.9147 48.9874 48.9448 48.9281C49.0639 48.6905 49.171 48.4466 49.3088 48.2173L49.184 48.1533C48.9597 48.6348 48.7359 49.1165 48.5127 49.5984C48.6448 49.4476 48.7588 49.2818 48.8523 49.1044Z" fill="white"/>
<path d="M84.9552 36.2482C84.8526 36.373 84.7583 36.5043 84.6729 36.6414L84.6775 36.6455L84.6937 36.6606L84.7035 36.6694L85.7139 35.643L85.6941 35.6206C85.4104 35.7813 85.1597 35.9943 84.9552 36.2482Z" fill="white"/>
<path d="M84.7041 36.6695L85.7145 35.6431L84.7041 36.6695Z" fill="white"/>
<path d="M85.695 35.6201C85.4113 35.7812 85.1607 35.9943 84.9561 36.2483C85.1605 35.9941 85.4112 35.781 85.695 35.6201Z" fill="white"/>
<path d="M84.7052 36.6695L84.6953 36.6606L84.7052 36.6695Z" fill="white"/>
<path d="M59.3223 52.4375C59.4117 52.5253 59.5485 52.5768 59.7081 52.6043L59.3223 52.4375Z" fill="white"/>
<path d="M59.7686 52.7221H59.8206H59.8461C59.6126 52.7112 59.3874 52.6602 59.208 52.5396C59.3749 52.7211 59.5902 52.7279 59.7686 52.7221Z" fill="white"/>
<path d="M59.2109 52.5356C59.3742 52.7214 59.589 52.7297 59.7679 52.7224C59.5895 52.7281 59.3742 52.7214 59.2109 52.5356Z" fill="white"/>
<path d="M43.8008 62.1562C44.2277 62.5607 44.4165 62.6684 44.8111 62.6814L43.8424 62.1094L43.8008 62.1562Z" fill="white"/>
<path d="M46.6951 69.2829C46.6695 68.9487 46.6438 68.6143 46.6182 68.2798C46.6182 68.6164 46.6182 68.9518 46.6182 69.286L46.6951 69.2829Z" fill="white"/>
<path d="M46.6133 68.2054L46.6174 68.2611V68.1997L46.6133 68.2054Z" fill="white"/>
<path d="M46.6164 68.2012L46.6133 68.2053L46.6164 68.2012Z" fill="white"/>
<path d="M42.2158 58.8999H41.416C41.416 58.9108 41.416 58.9217 41.416 58.9327L42.196 58.9753L42.2158 58.8999Z" fill="white"/>
<path d="M77.6493 47.0439L77.2432 47.4261L77.3232 47.4995L77.6727 47.0658L77.6623 47.0559L77.6493 47.0439Z" fill="white"/>
<path d="M77.6493 47.0439L77.2432 47.4261L77.6493 47.0439Z" fill="white"/>
<path d="M77.6735 47.0655L77.6631 47.0557L77.6735 47.0655Z" fill="white"/>
<path d="M18.3748 45.9161C18.417 45.6816 18.4596 45.4481 18.5017 45.2104C18.4861 45.223 18.4712 45.2364 18.457 45.2505C18.2646 45.4439 18.3514 45.6842 18.3748 45.9161Z" fill="white"/>
<path d="M18.4571 45.2485C18.2636 45.4451 18.353 45.6869 18.3744 45.9173V45.9162C18.3515 45.6843 18.2646 45.4441 18.4571 45.2485Z" fill="white"/>
<path d="M18.3763 45.9189C18.4179 45.6808 18.4605 45.4442 18.5032 45.207C18.461 45.4436 18.4184 45.6782 18.3763 45.9127C18.3759 45.9147 18.3759 45.9169 18.3763 45.9189Z" fill="white"/>
<path d="M18.3781 45.9763C18.3781 45.9581 18.3781 45.9399 18.3745 45.9243C18.3719 45.9378 18.3693 45.9514 18.3672 45.9654L18.3781 45.9763Z" fill="white"/>
<path d="M18.3691 45.9639L18.379 45.9758L18.3691 45.9639Z" fill="white"/>
<path d="M43.0527 59.0117H42.7199L42.7168 59.0356L43.034 59.0923L43.0527 59.0117Z" fill="white"/>
<path d="M53.352 49.5808L53.3629 49.405L53.3427 49.0894H53.3203L53.352 49.5808Z" fill="white"/>
<path d="M53.3633 49.4062L53.3525 49.582L53.3633 49.4062Z" fill="white"/>
<path d="M20.5787 54.5054L20.416 54.2402L20.3525 54.2777L20.5039 54.5569L20.5787 54.5054Z" fill="white"/>
<path d="M18.4521 44.7233L18.5041 45.1991V44.7202L18.4521 44.7233Z" fill="white"/>
<path d="M31.2786 50.3739C31.2682 50.337 31.2573 50.3001 31.2469 50.2632L30.9541 50.362L30.9713 50.4239L31.2786 50.3739Z" fill="white"/>
<path d="M46.1614 64.4997L46.1094 64.4961V64.9734C46.1286 64.8154 46.1447 64.6578 46.1614 64.4997Z" fill="white"/>
<path d="M46.1123 64.9742C46.1286 64.8162 46.1449 64.6581 46.1612 64.5C46.1445 64.656 46.1284 64.8156 46.1123 64.9737V64.9742Z" fill="white"/>
<path d="M43.9828 51.5703C44.5374 50.4086 45.0954 49.2472 45.6566 48.0863C45.9125 47.5553 45.8646 47.3858 45.3483 47.1185C45.1972 47.0417 45.0373 46.9839 44.872 46.9464C44.211 46.7961 43.548 46.6573 42.8861 46.5138C42.2874 46.3781 41.6628 46.411 41.0817 46.6089C40.6179 46.7649 40.1369 46.9142 39.7198 47.1612C38.5535 47.8517 37.4152 48.5891 36.2686 49.3135C36.1427 49.393 36.0367 49.5043 35.8838 49.6322C36.955 49.8491 37.9705 50.0295 38.9736 50.263C40.466 50.6109 41.8669 51.2187 43.261 51.8417C43.6432 52.0133 43.8028 51.9478 43.9828 51.5703ZM38.6159 49.6686C38.4651 49.8361 38.3304 49.9094 38.0901 49.8475C37.736 49.756 37.3668 49.7227 37.0039 49.665C36.9903 49.6249 36.9763 49.5854 36.9628 49.5459C38.5124 48.0733 40.3397 47.1019 42.4488 46.4555C42.4056 46.8107 42.1976 46.8492 42.0458 46.9235C41.1777 47.3547 40.3762 47.9084 39.6657 48.5678C39.2919 48.9099 38.9533 49.2911 38.6159 49.6686ZM43.1331 46.9277C41.8102 47.4883 40.7447 48.3925 39.7781 49.4305C39.7397 49.4611 39.6971 49.4861 39.6517 49.5048C39.5737 49.6345 39.4955 49.764 39.4172 49.8933L39.3184 49.8163L39.6361 49.4897C39.6454 49.4412 39.663 49.3946 39.6881 49.3519C40.6439 48.2781 41.7239 47.3718 43.0509 46.7816C43.0925 46.7634 43.1456 46.7722 43.2589 46.7629C43.1955 46.8455 43.1726 46.9095 43.1305 46.9277H43.1331Z" fill="url(#paint23_radial_463_22234)"/>
<path d="M63.25 50.1567C63.146 50.6965 63.2261 51.2196 63.3821 51.737C63.3717 51.2071 63.4481 50.6705 63.25 50.1567Z" fill="white"/>
<path d="M63.8723 50.9854L63.8203 50.9906V51.4066L63.8936 51.4029L63.8723 50.9854Z" fill="white"/>
<path d="M39.6655 48.5682C40.3752 47.9094 41.1759 47.3561 42.043 46.925C42.1948 46.8507 42.4028 46.8122 42.446 46.457C40.3368 47.1013 38.5096 48.0747 36.96 49.5473C36.9735 49.5869 36.9875 49.6264 37.001 49.6664C37.365 49.7241 37.7332 49.7574 38.0873 49.8489C38.3276 49.9108 38.4622 49.8375 38.613 49.6701C38.9531 49.2915 39.2916 48.9104 39.6655 48.5682Z" fill="white"/>
<path d="M39.6858 49.3524C39.6605 49.3949 39.6429 49.4416 39.6338 49.4902V49.4928L39.6447 49.5032C39.6901 49.4845 39.7327 49.4595 39.7711 49.4288C40.7377 48.3888 41.8032 47.4866 43.1261 46.9261C43.1682 46.9079 43.1911 46.8439 43.253 46.7612C43.1412 46.7706 43.0881 46.7612 43.045 46.7799C41.7237 47.3722 40.6436 48.2786 39.6858 49.3524Z" fill="white"/>
<path d="M39.6338 49.4898C39.6429 49.4412 39.6605 49.3946 39.6858 49.3521C39.6607 49.3947 39.6431 49.4413 39.6338 49.4898Z" fill="white"/>
<path d="M39.6362 49.4922L39.3164 49.8161L39.4152 49.8931C39.4936 49.7635 39.5717 49.634 39.6497 49.5047L39.6388 49.4943L39.6362 49.4922Z" fill="white"/>
<path d="M39.6341 49.4898L39.3164 49.8158L39.6341 49.4893V49.4898Z" fill="white"/>
<path d="M47.5833 57.9354L51.214 52.2456L50.1828 53.7302C50.2192 53.5404 50.4121 53.1748 50.6581 52.7885L50.4459 52.9965C50.3289 53.1005 47.1699 57.8195 47.1699 57.8195L47.3358 57.8668C47.4212 57.8721 47.5045 57.8955 47.5802 57.9354H47.5833ZM49.2473 54.9257L49.3087 54.9636L49.1106 55.2756L49.0383 55.2236L49.2473 54.9257Z" fill="white"/>
<path d="M51.2138 52.2456L50.6579 52.7885C50.4119 53.1748 50.219 53.5404 50.1826 53.7302L51.2138 52.2456Z" fill="white"/>
<path d="M47.335 57.8657L47.5794 57.9344C47.5037 57.8944 47.4204 57.871 47.335 57.8657Z" fill="white"/>
<path d="M49.3104 54.9642L49.249 54.9263L49.041 55.2221L49.1133 55.2741L49.3104 54.9642Z" fill="white"/>
<path d="M53.4758 49.8291C53.4726 49.8187 53.469 49.8083 53.4648 49.7974C53.469 49.8083 53.4726 49.8187 53.4758 49.8291Z" fill="white"/>
<path d="M53.4287 49.7222C53.4287 49.7258 53.4323 49.729 53.4338 49.7321C53.4353 49.7352 53.4302 49.7258 53.4287 49.7222Z" fill="white"/>
<path d="M53.3647 49.4062L53.3792 49.6319L53.4312 49.7224C53.4312 49.726 53.4349 49.7292 53.4364 49.7323C53.4479 49.7541 53.4583 49.7754 53.4671 49.7973C53.4713 49.8082 53.4749 49.8186 53.478 49.829C53.478 49.829 53.5821 48.4312 54.0174 48.1577C53.7844 48.1614 53.5425 48.1681 53.2861 48.1718L53.3459 49.0901H53.386C53.3777 49.1962 53.3714 49.3012 53.3647 49.4062Z" fill="white"/>
<path d="M54.1555 48.1121C54.7104 48.0861 53.2803 48.1121 53.2803 48.1121L53.2839 48.1719C53.5403 48.1683 53.7821 48.1615 54.0151 48.1579C54.057 48.1305 54.1055 48.1148 54.1555 48.1121Z" fill="white"/>
<path d="M53.4749 49.8289C53.4717 49.8185 53.4681 49.8081 53.4639 49.7972C53.4551 49.7754 53.4447 49.754 53.4332 49.7322C53.4332 49.7291 53.4296 49.726 53.428 49.7223L53.376 49.6318L53.3952 49.9288L53.4733 49.8289H53.4749Z" fill="white"/>
<path d="M53.4355 49.7324C53.447 49.7543 53.4575 49.7756 53.4663 49.7974C53.4554 49.7756 53.4449 49.7543 53.4355 49.7324Z" fill="white"/>
<path d="M53.4281 49.7223L53.376 49.6318L53.4281 49.7223Z" fill="white"/>
<path d="M53.3829 49.0913H53.3428L53.3631 49.407C53.3694 49.3009 53.3756 49.1963 53.3829 49.0913Z" fill="white"/>
<path d="M53.3842 49.0913C53.3774 49.1953 53.3711 49.2993 53.3643 49.4059C53.3706 49.3014 53.3769 49.1963 53.3842 49.0913Z" fill="white"/>
<path d="M59.1148 52.3472L59.1055 52.356L59.1148 52.3472Z" fill="white"/>
<path d="M59.1003 52.3603C59.0557 52.3231 59.0167 52.2797 58.9844 52.2314C59.0322 52.3509 59.1106 52.4557 59.2116 52.5354C59.1663 52.4827 59.1288 52.4238 59.1003 52.3603Z" fill="white"/>
<path d="M60.8058 52.5566C60.4938 52.6086 60.0492 52.6637 59.707 52.6045L59.967 52.7172C59.9279 52.7149 59.8886 52.7149 59.8495 52.7172C60.2104 52.7344 60.591 52.6544 60.851 52.5826C60.799 52.5899 60.747 52.5967 60.6841 52.6039C60.7259 52.5915 60.7666 52.5757 60.8058 52.5566Z" fill="white"/>
<path d="M58.8291 51.4724C58.786 51.1604 58.8192 50.8338 58.8192 50.3944C58.93 51.126 59.022 51.737 59.1146 52.3475L59.3226 52.4375C58.9383 52.061 58.7459 49.4735 58.7184 49.0684C58.7064 49.111 58.6861 49.1859 58.6513 49.3133L58.5566 48.8115C58.5707 48.8869 58.5566 50.8645 58.8733 51.9268C58.8546 51.8156 58.8504 51.7006 58.8416 51.5883C58.838 51.5493 58.8343 51.5103 58.8291 51.4724Z" fill="white"/>
<path d="M58.7173 49.0683C58.7173 49.0335 58.7136 49.0163 58.7136 49.0163L58.5576 48.813L58.6523 49.3148C58.6876 49.1858 58.7053 49.1109 58.7173 49.0683Z" fill="white"/>
<path d="M60.6846 52.6048C60.7465 52.5975 60.8016 52.5908 60.8515 52.5835C61.0345 52.5315 61.1572 52.4873 61.1723 52.4795C61.1598 52.4826 61.0163 52.5185 60.8083 52.5549C60.7685 52.575 60.7271 52.5917 60.6846 52.6048Z" fill="white"/>
<path d="M58.8297 51.472C58.8349 51.51 58.8386 51.549 58.8417 51.588C58.8505 51.7003 58.8547 51.8152 58.8734 51.9265C58.903 52.0304 58.9403 52.1319 58.9852 52.2302C59.0174 52.2788 59.0565 52.3226 59.1011 52.3602L59.1058 52.356L59.1152 52.3472C59.0226 51.7367 58.9306 51.1257 58.8199 50.394C58.8199 50.8334 58.7866 51.1579 58.8297 51.472Z" fill="white"/>
<path d="M59.1003 52.3604C59.0557 52.3228 59.0166 52.2791 58.9844 52.2305C59.0166 52.2791 59.0556 52.3229 59.1003 52.3604Z" fill="white"/>
<path d="M58.8418 51.5884C58.8506 51.7007 58.8548 51.8156 58.8735 51.9269C58.8548 51.8156 58.8506 51.7007 58.8418 51.5884Z" fill="white"/>
<path d="M59.9675 52.7168L59.7075 52.604C59.5478 52.5764 59.4111 52.525 59.3216 52.4371L59.1137 52.3472L59.1043 52.356L59.0996 52.3602C59.1281 52.4236 59.1655 52.4826 59.2109 52.5354C59.3903 52.656 59.6154 52.7069 59.8489 52.7178C59.8884 52.7151 59.928 52.7148 59.9675 52.7168Z" fill="white"/>
<path d="M59.1006 52.3604C59.129 52.4238 59.1665 52.4828 59.2119 52.5355C59.1665 52.4828 59.129 52.4238 59.1006 52.3604Z" fill="white"/>
<path d="M59.1006 52.3606L59.1053 52.3564L59.1006 52.3606Z" fill="white"/>
<path d="M17.3473 49.4724C17.1216 49.4812 16.1102 49.7105 15.6396 49.9664C15.6396 49.9664 16.6921 49.6658 17.4773 49.6721C18.2625 49.6783 17.5725 49.4641 17.3473 49.4724Z" fill="white"/>
<path d="M17.2786 53.79C17.1351 53.7137 16.994 53.6397 16.8554 53.5679C16.4856 53.5121 16.1259 53.4024 15.7878 53.2424C15.7613 53.2304 16.4732 53.7162 17.2786 53.79Z" fill="white"/>
<path d="M18.1144 53.6879C19.1804 53.2719 19.2755 52.9043 19.2755 52.9043C19.2755 52.9043 18.3484 53.7852 16.8555 53.5678C16.9941 53.6389 17.1352 53.7129 17.2787 53.7899C17.5614 53.822 17.8477 53.787 18.1144 53.6879Z" fill="white"/>
<path d="M10.6147 55.1893C10.5424 55.0333 10.4613 54.856 10.3818 54.687H10.375L10.6074 55.2705C10.6142 55.2606 10.621 55.2507 10.6282 55.2413L10.6147 55.1893Z" fill="url(#paint24_radial_463_22234)"/>
<path d="M10.1249 53.9429C10.1629 53.8826 10.2074 53.8267 10.2575 53.776C10.3916 53.7068 10.5279 53.6408 10.6548 53.5591C10.7831 53.4668 10.9047 53.3655 11.0188 53.256C11.1623 53.1737 11.3128 53.1041 11.4686 53.048C11.4998 53.0365 11.4764 52.9903 11.4452 53.0017C11.4051 53.0163 11.3656 53.0319 11.3266 53.048L11.4608 52.9851C11.4627 52.9884 11.4653 52.9912 11.4684 52.9934C11.4715 52.9956 11.4751 52.9971 11.4788 52.9978C11.4826 52.9985 11.4865 52.9983 11.4902 52.9974C11.4938 52.9965 11.4973 52.9947 11.5003 52.9923L11.5752 52.9315L11.6589 52.892C11.6621 52.8906 11.6651 52.8884 11.6674 52.8857C11.6697 52.883 11.6714 52.8798 11.6724 52.8764C11.6733 52.873 11.6735 52.8694 11.6729 52.8658C11.6722 52.8623 11.6708 52.859 11.6688 52.8561C11.8194 52.7316 11.9801 52.6198 12.1492 52.5217C12.352 52.4094 12.5424 52.2909 12.7379 52.1671C12.8226 52.1151 12.9095 52.0631 12.9948 52.0111C12.9973 52.0116 13 52.0116 13.0026 52.0111C13.1789 51.9322 13.3481 51.8384 13.5085 51.7308C13.5418 51.7074 13.5756 51.6814 13.6078 51.6544V51.5889C13.5421 51.6468 13.4714 51.699 13.3967 51.7449C13.3541 51.7719 13.3099 51.7969 13.2657 51.8213C13.2823 51.8067 13.2984 51.7917 13.3146 51.7766L10.0469 53.8639L10.0744 53.9335C10.0812 53.9112 10.0885 53.8878 10.0978 53.8639C10.1056 53.8888 10.115 53.9159 10.1249 53.9429Z" fill="url(#paint25_radial_463_22234)"/>
<path d="M13.3952 51.74C13.4699 51.6942 13.5405 51.642 13.6063 51.584L13.3135 51.7707C13.2974 51.7857 13.2813 51.8008 13.2646 51.8154C13.3068 51.792 13.351 51.7681 13.3952 51.74Z" fill="url(#paint26_radial_463_22234)"/>
<path d="M13.0007 52.0091C12.9981 52.0095 12.9955 52.0095 12.9929 52.0091C12.9076 52.0611 12.8208 52.1131 12.736 52.1651C12.5405 52.2888 12.3502 52.4074 12.1474 52.5197C11.9783 52.6177 11.8176 52.7295 11.6669 52.8541C11.669 52.857 11.6704 52.8603 11.671 52.8638C11.6717 52.8673 11.6715 52.8709 11.6706 52.8744C11.6696 52.8778 11.6679 52.881 11.6656 52.8837C11.6632 52.8864 11.6603 52.8885 11.657 52.8899L11.5733 52.9295L11.4984 52.9903C11.4955 52.9927 11.492 52.9944 11.4883 52.9954C11.4846 52.9963 11.4808 52.9964 11.477 52.9957C11.4733 52.995 11.4697 52.9935 11.4666 52.9913C11.4635 52.9892 11.4609 52.9863 11.4589 52.983L11.3248 53.0459C11.3638 53.0298 11.4033 53.0142 11.4433 52.9997C11.4745 52.9882 11.4979 53.0345 11.4667 53.0459C11.311 53.102 11.1605 53.1716 11.0169 53.2539C10.9029 53.3634 10.7812 53.4647 10.6529 53.5571C10.526 53.6387 10.3898 53.7048 10.2556 53.7739C10.2056 53.8246 10.1611 53.8806 10.123 53.9409L10.383 54.6839H10.3784C10.4579 54.8529 10.539 55.0282 10.6113 55.1863L10.2863 53.9154L13.6044 51.7808V51.6523C13.5722 51.6794 13.5384 51.7043 13.5051 51.7288C13.3452 51.8363 13.1765 51.9301 13.0007 52.0091Z" fill="url(#paint27_radial_463_22234)"/>
<path d="M10.6272 55.2422C10.62 55.2515 10.6132 55.2614 10.6064 55.2713L10.6855 55.4699L10.6272 55.2422Z" fill="url(#paint28_radial_463_22234)"/>
<path d="M10.3369 54.5957L10.3733 54.6877H10.3801C10.3655 54.656 10.351 54.6259 10.3369 54.5957Z" fill="url(#paint29_radial_463_22234)"/>
<path d="M10.1248 53.9425C10.1149 53.9155 10.1055 53.8905 10.0957 53.8599C10.0863 53.8838 10.079 53.9072 10.0723 53.9295L10.0983 53.9951C10.1057 53.9769 10.1146 53.9593 10.1248 53.9425Z" fill="url(#paint30_radial_463_22234)"/>
<path d="M10.1242 53.9429C10.114 53.9595 10.1052 53.9769 10.0977 53.9949L10.3374 54.5955C10.3514 54.6256 10.366 54.6558 10.3805 54.6865H10.3852L10.1242 53.9429Z" fill="url(#paint31_radial_463_22234)"/>
<path d="M14.7906 53.078L14.4698 52.9043L13.8853 53.4082C13.6544 53.7368 13.3351 54.0088 13.006 54.2745C12.9368 54.3307 12.9139 54.4419 12.8609 54.522L12.8359 54.561C14.0023 54.028 14.7906 53.078 14.7906 53.078Z" fill="url(#paint32_radial_463_22234)"/>
<path d="M13.0055 54.2746C13.3347 54.0088 13.654 53.7369 13.8849 53.4082C13.2479 53.9573 12.3217 54.7603 12.3462 54.7504C12.5131 54.6977 12.6766 54.6344 12.8355 54.5611L12.8605 54.5221C12.9135 54.4441 12.9364 54.3307 13.0055 54.2746Z" fill="url(#paint33_radial_463_22234)"/>
<defs>
<radialGradient id="paint0_radial_463_22234" cx="0" cy="0" r="1" gradientUnits="userSpaceOnUse" gradientTransform="translate(61.0653 51.9147) rotate(-122.679) scale(3.75564 12.892)">
<stop stop-color="#8F8AD2"/>
<stop offset="1" stop-color="#4267B2"/>
</radialGradient>
<radialGradient id="paint1_radial_463_22234" cx="0" cy="0" r="1" gradientUnits="userSpaceOnUse" gradientTransform="translate(18.3767 45.9817) rotate(-98.0626) scale(0.0705162 0.0739651)">
<stop stop-color="#8F8AD2"/>
<stop offset="1" stop-color="#4267B2"/>
</radialGradient>
<radialGradient id="paint2_radial_463_22234" cx="0" cy="0" r="1" gradientUnits="userSpaceOnUse" gradientTransform="translate(48.5787 69.7132) rotate(-98.7647) scale(0.795674 0.905079)">
<stop stop-color="#8F8AD2"/>
<stop offset="1" stop-color="#4267B2"/>
</radialGradient>
<radialGradient id="paint3_radial_463_22234" cx="0" cy="0" r="1" gradientUnits="userSpaceOnUse" gradientTransform="translate(18.3803 45.9768) rotate(-100.33) scale(0.0676984 0.0902057)">
<stop stop-color="#8F8AD2"/>
<stop offset="1" stop-color="#4267B2"/>
</radialGradient>
<radialGradient id="paint4_radial_463_22234" cx="0" cy="0" r="1" gradientUnits="userSpaceOnUse" gradientTransform="translate(46.7838 70.2894) rotate(-175.608) scale(0.328238 0.189312)">
<stop stop-color="#8F8AD2"/>
<stop offset="1" stop-color="#4267B2"/>
</radialGradient>
<radialGradient id="paint5_radial_463_22234" cx="0" cy="0" r="1" gradientUnits="userSpaceOnUse" gradientTransform="translate(56.9645 52.0045) rotate(-125.362) scale(5.21167 18.579)">
<stop stop-color="#8F8AD2"/>
<stop offset="1" stop-color="#4267B2"/>
</radialGradient>
<radialGradient id="paint6_radial_463_22234" cx="0" cy="0" r="1" gradientUnits="userSpaceOnUse" gradientTransform="translate(32.4179 52.679) rotate(-154.326) scale(29.8331 87.9888)">
<stop stop-color="#8F8AD2"/>
<stop offset="1" stop-color="#4267B2"/>
</radialGradient>
<radialGradient id="paint7_radial_463_22234" cx="0" cy="0" r="1" gradientUnits="userSpaceOnUse" gradientTransform="translate(12.7857 55.4441) rotate(-149.817) scale(1.76143 5.78215)">
<stop stop-color="#8F8AD2"/>
<stop offset="1" stop-color="#4267B2"/>
</radialGradient>
<radialGradient id="paint8_radial_463_22234" cx="0" cy="0" r="1" gradientUnits="userSpaceOnUse" gradientTransform="translate(10.8593 55.6335) rotate(-118.624) scale(0.503925 1.60056)">
<stop stop-color="#8F8AD2"/>
<stop offset="1" stop-color="#4267B2"/>
</radialGradient>
<radialGradient id="paint9_radial_463_22234" cx="0" cy="0" r="1" gradientUnits="userSpaceOnUse" gradientTransform="translate(46.4045 68.9134) rotate(-96.0465) scale(6.00475 4.75094)">
<stop stop-color="#8F8AD2"/>
<stop offset="1" stop-color="#4267B2"/>
</radialGradient>
<radialGradient id="paint10_radial_463_22234" cx="0" cy="0" r="1" gradientUnits="userSpaceOnUse" gradientTransform="translate(103.687 61.1569) rotate(-157.61) scale(79.5668 211.665)">
<stop stop-color="#8F8AD2"/>
<stop offset="1" stop-color="#4267B2"/>
</radialGradient>
<radialGradient id="paint11_radial_463_22234" cx="0" cy="0" r="1" gradientUnits="userSpaceOnUse" gradientTransform="translate(19.9612 54.832) rotate(-153.507) scale(4.84515 14.6111)">
<stop stop-color="#8F8AD2"/>
<stop offset="1" stop-color="#4267B2"/>
</radialGradient>
<radialGradient id="paint12_radial_463_22234" cx="0" cy="0" r="1" gradientUnits="userSpaceOnUse" gradientTransform="translate(53.3779 49.5888) rotate(-96.2815) scale(0.200559 0.164753)">
<stop stop-color="#8F8AD2"/>
<stop offset="1" stop-color="#4267B2"/>
</radialGradient>
<radialGradient id="paint13_radial_463_22234" cx="0" cy="0" r="1" gradientUnits="userSpaceOnUse" gradientTransform="translate(20.9448 55.0724) rotate(-117.891) scale(2.66098 8.31003)">
<stop stop-color="#8F8AD2"/>
<stop offset="1" stop-color="#4267B2"/>
</radialGradient>
<radialGradient id="paint14_radial_463_22234" cx="0" cy="0" r="1" gradientUnits="userSpaceOnUse" gradientTransform="translate(19.9854 54.8343) rotate(-153.755) scale(9.01293 27.001)">
<stop stop-color="#8F8AD2"/>
<stop offset="1" stop-color="#4267B2"/>
</radialGradient>
<radialGradient id="paint15_radial_463_22234" cx="0" cy="0" r="1" gradientUnits="userSpaceOnUse" gradientTransform="translate(19.6533 46.9185) rotate(-118.623) scale(0.590268 1.87477)">
<stop stop-color="#8F8AD2"/>
<stop offset="1" stop-color="#4267B2"/>
</radialGradient>
<radialGradient id="paint16_radial_463_22234" cx="0" cy="0" r="1" gradientUnits="userSpaceOnUse" gradientTransform="translate(19.3391 46.9124) rotate(-112.227) scale(0.0451596 0.119443)">
<stop stop-color="#8F8AD2"/>
<stop offset="1" stop-color="#4267B2"/>
</radialGradient>
<radialGradient id="paint17_radial_463_22234" cx="0" cy="0" r="1" gradientUnits="userSpaceOnUse" gradientTransform="translate(20.1619 46.3682) rotate(-112.021) scale(4.10653 10.7813)">
<stop stop-color="#8F8AD2"/>
<stop offset="1" stop-color="#4267B2"/>
</radialGradient>
<radialGradient id="paint18_radial_463_22234" cx="0" cy="0" r="1" gradientUnits="userSpaceOnUse" gradientTransform="translate(48.5225 68.6486) rotate(-109.51) scale(7.60652 18.0864)">
<stop stop-color="#8F8AD2"/>
<stop offset="1" stop-color="#4267B2"/>
</radialGradient>
<radialGradient id="paint19_radial_463_22234" cx="0" cy="0" r="1" gradientUnits="userSpaceOnUse" gradientTransform="translate(10.3754 54.5512) rotate(-112.541) scale(0.743006 1.98698)">
<stop stop-color="#8F8AD2"/>
<stop offset="1" stop-color="#4267B2"/>
</radialGradient>
<radialGradient id="paint20_radial_463_22234" cx="0" cy="0" r="1" gradientUnits="userSpaceOnUse" gradientTransform="translate(10.3387 54.4756) rotate(-112.539) scale(0.574407 1.536)">
<stop stop-color="#8F8AD2"/>
<stop offset="1" stop-color="#4267B2"/>
</radialGradient>
<radialGradient id="paint21_radial_463_22234" cx="0" cy="0" r="1" gradientUnits="userSpaceOnUse" gradientTransform="translate(34.0463 50.0317) rotate(-165.309) scale(0.56327 1.04372)">
<stop stop-color="#8F8AD2"/>
<stop offset="1" stop-color="#4267B2"/>
</radialGradient>
<radialGradient id="paint22_radial_463_22234" cx="0" cy="0" r="1" gradientUnits="userSpaceOnUse" gradientTransform="translate(64.5942 51.8265) rotate(-121.745) scale(3.16981 10.7125)">
<stop stop-color="#8F8AD2"/>
<stop offset="1" stop-color="#4267B2"/>
</radialGradient>
<radialGradient id="paint23_radial_463_22234" cx="0" cy="0" r="1" gradientUnits="userSpaceOnUse" gradientTransform="translate(45.8077 50.8316) rotate(-150.478) scale(9.85945 31.9314)">
<stop stop-color="#8F8AD2"/>
<stop offset="1" stop-color="#4267B2"/>
</radialGradient>
<radialGradient id="paint24_radial_463_22234" cx="0" cy="0" r="1" gradientUnits="userSpaceOnUse" gradientTransform="translate(10.6282 55.1538) rotate(-113.016) scale(0.559944 1.52199)">
<stop stop-color="#8F8AD2"/>
<stop offset="1" stop-color="#4267B2"/>
</radialGradient>
<radialGradient id="paint25_radial_463_22234" cx="0" cy="0" r="1" gradientUnits="userSpaceOnUse" gradientTransform="translate(13.6078 53.4721) rotate(-145.963) scale(3.71498 13.0153)">
<stop stop-color="#8F8AD2"/>
<stop offset="1" stop-color="#4267B2"/>
</radialGradient>
<radialGradient id="paint26_radial_463_22234" cx="0" cy="0" r="1" gradientUnits="userSpaceOnUse" gradientTransform="translate(13.6063 51.7691) rotate(-145.312) scale(0.359167 1.2695)">
<stop stop-color="#8F8AD2"/>
<stop offset="1" stop-color="#4267B2"/>
</radialGradient>
<radialGradient id="paint27_radial_463_22234" cx="0" cy="0" r="1" gradientUnits="userSpaceOnUse" gradientTransform="translate(13.6044 54.4795) rotate(-133.954) scale(4.33625 16.3654)">
<stop stop-color="#8F8AD2"/>
<stop offset="1" stop-color="#4267B2"/>
</radialGradient>
<radialGradient id="paint28_radial_463_22234" cx="0" cy="0" r="1" gradientUnits="userSpaceOnUse" gradientTransform="translate(10.6855 55.4244) rotate(-108.76) scale(0.212476 0.488706)">
<stop stop-color="#8F8AD2"/>
<stop offset="1" stop-color="#4267B2"/>
</radialGradient>
<radialGradient id="paint29_radial_463_22234" cx="0" cy="0" r="1" gradientUnits="userSpaceOnUse" gradientTransform="translate(10.3801 54.6693) rotate(-114.654) scale(0.0894501 0.256142)">
<stop stop-color="#8F8AD2"/>
<stop offset="1" stop-color="#4267B2"/>
</radialGradient>
<radialGradient id="paint30_radial_463_22234" cx="0" cy="0" r="1" gradientUnits="userSpaceOnUse" gradientTransform="translate(10.1248 53.968) rotate(-110.817) scale(0.127764 0.320561)">
<stop stop-color="#8F8AD2"/>
<stop offset="1" stop-color="#4267B2"/>
</radialGradient>
<radialGradient id="paint31_radial_463_22234" cx="0" cy="0" r="1" gradientUnits="userSpaceOnUse" gradientTransform="translate(10.3852 54.5378) rotate(-110.73) scale(0.702323 1.75616)">
<stop stop-color="#8F8AD2"/>
<stop offset="1" stop-color="#4267B2"/>
</radialGradient>
<radialGradient id="paint32_radial_463_22234" cx="0" cy="0" r="1" gradientUnits="userSpaceOnUse" gradientTransform="translate(14.7906 54.2297) rotate(-139.107) scale(2.23544 8.35577)">
<stop stop-color="#8F8AD2"/>
<stop offset="1" stop-color="#4267B2"/>
</radialGradient>
<radialGradient id="paint33_radial_463_22234" cx="0" cy="0" r="1" gradientUnits="userSpaceOnUse" gradientTransform="translate(13.8849 54.482) rotate(-138.297) scale(1.78224 6.68629)">
<stop stop-color="#8F8AD2"/>
<stop offset="1" stop-color="#4267B2"/>
</radialGradient>
</defs>
</svg>
