<svg width="105" height="104" viewBox="0 0 105 104" fill="none" xmlns="http://www.w3.org/2000/svg">
<path d="M32.2668 63.3629L32.221 63.3452H32.2158L32.2678 63.365L32.3172 63.3806L32.311 63.3749L32.2668 63.3629Z" fill="url(#paint0_radial_463_24116)"/>
<path d="M91.3779 32.5857L91.4991 32.5031C91.4887 32.4978 91.4788 32.4917 91.4695 32.4849C91.4377 32.5171 91.4071 32.5519 91.3779 32.5857Z" fill="url(#paint1_radial_463_24116)"/>
<path d="M41.5947 50.8838L41.601 50.8895L41.5947 50.8838Z" fill="url(#paint2_radial_463_24116)"/>
<path d="M99.1532 71.0052C96.6234 70.2054 94.078 69.454 91.5555 68.6319C88.4058 67.6054 85.2957 66.451 82.1268 65.489C76.9965 63.929 71.9156 62.225 66.8144 60.5781C66.1535 60.3644 65.8633 59.9614 65.8722 59.2698C65.8789 58.7014 66.01 58.1669 66.3589 57.7051C66.5887 57.3999 66.8191 57.0946 67.0666 56.804C68.2387 55.4317 69.7508 54.4848 71.2942 53.6262C75.2431 51.433 79.4411 49.7221 83.7981 48.5302C84.8501 48.2406 85.9135 47.9302 87.0252 48.1761C87.5827 48.2999 88.1328 48.4606 88.6835 48.6155C89.5259 48.8526 89.6304 48.8142 90.0615 48.0633C90.0766 48.0362 90.1135 48.0201 90.1525 47.9868C90.2227 48.0113 90.3038 48.0357 90.3824 48.0659C91.5815 48.524 92.7837 48.9754 93.9781 49.4444C94.4958 49.6568 95.0675 49.6996 95.6109 49.5666C95.9313 49.4891 96.2542 49.4231 96.5766 49.3544C98.3061 48.9858 99.94 48.239 101.715 48.0451C101.835 48.0321 101.947 47.9307 102.147 47.8256C101.927 47.666 101.793 47.5365 101.634 47.4564C100.998 47.1372 100.362 46.8158 99.7127 46.5262C97.4148 45.5018 95.1112 44.4904 92.8097 43.4732C92.6381 43.3973 92.4696 43.3136 92.2824 43.2257C92.3495 43.0125 92.4036 42.831 92.4639 42.6537C93.0803 40.8101 93.6973 38.9671 94.3151 37.1246C95.1703 34.5745 96.0249 32.0241 96.8787 29.4733C96.924 29.3376 96.9 29.179 96.9084 29.0308L96.4924 29.0791L96.8174 29.1311C96.5054 30.1904 96.1076 31.1929 95.704 32.2246C95.7602 31.7306 95.444 31.4904 95.0982 31.3245C94.7597 31.1633 94.389 30.9948 94.0244 30.9761C92.9844 30.9241 92.0406 31.2543 91.219 31.8965C90.243 32.6593 89.4115 33.5709 88.6164 34.5147C87.9571 35.2978 87.3029 36.0866 86.6758 36.8952C85.6498 38.2315 84.5326 39.4951 83.3322 40.6772C82.366 41.6205 81.2449 42.3412 80.0265 42.9132C79.9925 42.9293 79.9551 42.9373 79.9174 42.9367C79.8798 42.9361 79.8427 42.9268 79.8092 42.9096C79.9132 42.8404 80.0089 42.7629 80.116 42.7016C81.7519 41.7791 83.1481 40.5732 84.3472 39.1323C85.7339 37.4652 87.1244 35.8012 88.5187 34.1403C88.9517 33.6195 89.4115 33.1215 89.8961 32.6484C90.2986 32.2678 90.7309 31.92 91.1889 31.6084C91.7609 31.2142 92.3521 30.8502 92.9569 30.5065C93.9865 29.9194 95.119 29.5809 96.2329 29.2003C96.3277 29.1617 96.4199 29.117 96.509 29.0666C95.4221 29.2909 94.3679 29.6515 93.3713 30.1399C92.5944 30.5195 91.8493 30.9719 91.1202 31.4399C90.6253 31.7583 90.1598 32.1203 89.7292 32.5215C89.2393 32.9891 88.7738 33.4817 88.3346 33.9973C86.7916 35.7611 85.2545 37.5303 83.7232 39.3049C83.5672 39.4859 83.4045 39.6627 83.2552 39.8286C81.844 39.2222 80.4732 38.6414 79.1098 38.0439C78.4858 37.772 77.8706 37.7319 77.2378 37.9841C75.983 38.4885 74.7267 38.9888 73.4798 39.5103C73.2253 39.6203 72.9924 39.7745 72.7918 39.9658C72.3888 40.3465 72.3909 40.7198 72.8074 41.0776C73.0838 41.3149 73.389 41.5163 73.7158 41.6772C74.8214 42.219 75.9399 42.7338 77.0527 43.2606C77.165 43.3126 77.2711 43.3786 77.4832 43.494C77.0381 43.6162 76.7121 43.7384 76.3756 43.7904C75.5535 43.9184 74.7257 44.0099 73.9015 44.1227C72.889 44.2616 71.8797 44.4243 70.8652 44.5455C68.1659 44.8689 65.4941 44.5455 62.8302 44.1498C61.1849 43.9054 59.5692 43.5024 57.9058 43.3276C55.9297 43.1196 53.9896 43.194 52.063 43.6396C48.7938 44.3936 45.9494 45.9573 43.483 48.2208C43.3629 48.3311 43.2917 48.4938 43.1981 48.6332L43.2132 48.6223L43.2085 48.6264C44.4008 47.5968 45.6275 46.6177 46.9972 45.8361C47.0956 45.7807 47.1946 45.7257 47.2941 45.6713C47.3934 45.6193 47.4943 45.5647 47.5952 45.5153C48.7122 44.9433 49.8832 44.5148 51.0745 44.1409C51.1447 44.1212 51.2196 44.1267 51.2861 44.1565C49.4235 44.8845 47.538 45.5428 45.8979 46.7357C44.2578 47.9286 42.8024 49.2993 41.3453 50.6914L41.5736 50.8994L41.5928 50.8962L41.5866 50.8905L41.5928 50.8947C41.594 50.8944 41.5953 50.8944 41.5965 50.8947L41.6043 50.9004C41.9096 50.866 42.2184 50.8809 42.519 50.9446L42.6193 50.9602C42.7721 50.996 42.9229 51.0397 43.0712 51.0912C43.9718 51.4032 44.8486 51.7984 45.7658 52.0465C47.2369 52.4432 48.5536 53.177 49.918 53.8077C50.4034 54.0395 50.8696 54.3096 51.3122 54.6153C51.5524 54.7765 51.7724 54.8233 52.0401 54.7552C53.1503 54.478 54.26 54.1982 55.3037 53.712C55.4451 53.646 55.5824 53.5644 55.7306 53.5207C57.4918 53.0007 58.8116 51.8198 60.0903 50.5848C60.4387 50.2478 60.747 49.8692 61.0783 49.512C61.6856 48.8511 61.7345 48.0867 61.4792 47.276C61.2712 46.6094 60.8594 46.0868 60.3024 45.664C59.3607 44.949 58.3108 44.4924 57.1674 44.2007C55.9063 43.8742 54.6045 43.7321 53.3027 43.779C53.19 43.7832 53.0773 43.7704 52.9684 43.741C55.3806 43.494 57.7097 43.7442 59.8459 44.989C60.6945 45.4841 61.4469 46.0935 61.7616 47.094C62.0101 47.8849 61.9399 48.6394 61.5218 49.3498C61.3466 49.6472 61.1578 49.9545 60.9119 50.189C59.9946 51.0616 59.069 51.9269 58.107 52.749C57.7591 53.0459 57.3208 53.269 56.8886 53.4302C55.3806 53.9975 53.8518 54.5154 52.3386 55.0729C52.1867 55.1345 52.0231 55.1618 51.8594 55.1529C51.6956 55.1439 51.536 55.0988 51.3917 55.0209C50.2285 54.4395 49.0684 53.8504 47.8942 53.2914C45.8886 52.3372 43.8522 51.4589 41.6817 50.9368C41.6655 50.9322 41.6505 50.9238 41.6381 50.9124L41.6147 50.8926L41.9594 51.1848L42.0364 51.2504C41.8627 51.2628 41.7369 51.3024 41.6204 51.2758C40.5742 51.0585 39.5492 51.2301 38.541 51.4776C37.62 51.7033 36.721 52.009 35.8084 52.2763C35.695 52.3091 35.5759 52.3221 35.4589 52.345L35.4677 52.3372L34.9379 52.5535H34.9415L34.9498 52.5488L34.9618 52.5415L34.4226 52.815L34.2395 52.8566C34.175 52.9093 34.1065 52.9567 34.0346 52.9986C32.3087 53.8363 30.6338 54.7604 29.092 55.9106C29.0342 55.945 28.9731 55.9734 28.9095 55.9954L28.2725 56.5674L27.8009 57.0296L27.296 57.2662C27.0713 56.9168 26.8462 56.5258 26.5804 56.1644C25.985 55.3532 25.3844 54.5456 24.7578 53.7573C23.9804 52.7781 23.177 51.8198 22.383 50.8541C22.3048 50.7609 22.2195 50.674 22.1277 50.5941C21.863 50.3612 21.7829 50.371 21.5307 50.6394C20.8214 51.3949 20.484 52.3361 20.1787 53.2602C20.4096 53.4754 20.6218 53.6538 20.8116 53.853C21.2182 54.2809 21.6098 54.7234 22.0143 55.153C22.9888 56.1888 23.839 57.3432 24.9648 58.2355C25.1613 58.3915 25.3158 58.5995 25.4702 58.7644C25.268 59.0524 25.0729 59.2786 24.9357 59.5355C24.6642 60.0441 24.7204 60.4237 25.152 60.7939C25.3969 61.0019 25.6975 61.1579 25.9923 61.2947C26.2523 61.4164 26.543 61.4803 26.8243 61.5718C26.8228 61.6502 26.8138 61.7282 26.7973 61.8048C26.555 62.5281 26.3293 63.2582 26.0584 63.9711C25.53 65.3665 24.9866 66.7555 24.4282 68.1384C24.2867 68.492 24.3335 68.779 24.5842 69.0453C24.918 69.3978 25.2518 69.7499 25.5914 70.0972C25.7245 70.2335 25.8514 70.3916 26.0162 70.4779C26.647 70.8107 27.0833 70.8466 27.3131 70.0941C27.3684 69.9299 27.4146 69.7627 27.4514 69.5934C27.5554 69.0307 27.6594 68.4676 27.7515 67.9028C28 66.3787 28.2387 64.853 28.4904 63.3268C28.5772 62.8027 28.6932 62.2827 28.8091 61.6899C28.9423 61.8194 29.0218 61.8979 29.1045 61.9774C29.3707 62.2239 29.6042 62.526 29.9105 62.7054C31.0831 63.3861 32.2994 63.9774 33.6285 64.2998C33.9329 64.3674 34.2319 64.4576 34.5229 64.5696C35.1604 64.8296 35.8229 64.9732 36.5041 64.944C37.4744 64.9024 38.4453 64.8291 39.4083 64.7106C40.0599 64.63 40.7042 64.4755 41.2481 64.0502C41.5861 63.786 41.988 63.6986 42.4207 63.6888C43.9479 63.6534 45.4751 63.6019 47.0024 63.5504C47.3633 63.5385 47.7242 63.4698 48.0835 63.4839C48.674 63.512 49.2553 63.6413 49.8021 63.8661C50.2348 64.0449 50.6779 64.1974 51.1291 64.3226C53.4774 64.9404 55.8294 65.5436 58.1808 66.1499C60.55 66.7604 62.9191 67.3693 65.2882 67.9767C68.4149 68.7764 71.5459 69.5585 74.6685 70.3734C76.2285 70.781 77.7744 71.248 79.3277 71.6832C80.7473 72.0816 82.1669 72.4804 83.5917 72.8647C84.6795 73.1585 85.7694 73.4486 86.8677 73.7076C87.8806 73.9463 88.9055 74.135 89.9216 74.3602C90.1161 74.4034 90.3376 74.4642 90.4728 74.5989C90.5793 74.7131 90.7081 74.8044 90.8512 74.867C90.9943 74.9296 91.1487 74.9622 91.3048 74.9629C91.7728 74.9629 92.2502 74.9837 92.7031 74.8911C94.2496 74.575 95.7888 74.2214 97.3269 73.8662C98.3912 73.6201 99.4519 73.358 100.509 73.08C100.825 72.9898 101.128 72.8585 101.41 72.6894C101.67 72.5371 101.855 72.3036 101.728 71.899C100.885 71.6073 100.027 71.2813 99.1532 71.0052ZM50.867 50.643L50.7703 50.5697C51.2201 49.9424 51.7501 49.3769 52.347 48.8875L50.867 50.643ZM51.0547 47.4346C49.6201 48.7159 48.3679 50.1448 47.4147 51.8588C47.4553 51.1053 49.3003 48.7273 50.9133 47.3166C52.5175 45.9126 54.6947 44.7285 55.9937 44.6183C54.2018 45.3135 52.4993 46.1455 51.0547 47.4346ZM53.3947 44.0671C54.1295 43.8237 54.584 43.8175 55.4399 44.0478C55.2543 44.1201 55.1191 44.1789 54.9802 44.2257C53.3646 44.7712 51.8223 45.4737 50.3814 46.3894C48.449 47.6166 47.0045 49.3014 45.8516 51.2561C45.7643 51.4038 45.6764 51.5504 45.575 51.721L42.8273 50.8406C42.9672 50.6654 43.0738 50.5192 43.1913 50.3846C44.0233 49.4449 44.9744 48.6368 45.9874 47.9016C48.2655 46.2506 50.723 44.9516 53.3947 44.0671ZM56.1586 43.5606H55.3203V43.5086H56.1586V43.5606ZM65.504 59.0098C65.5232 59.575 65.7754 60.0696 65.8982 60.6608C65.6267 60.6608 65.387 60.6988 65.1639 60.6546C63.2274 60.2744 61.2764 60.1632 59.3072 60.2536C58.2152 60.3056 57.12 60.3056 56.0259 60.3207C55.8921 60.3242 55.762 60.2766 55.6619 60.1876C55.7945 60.1439 55.9245 60.0888 56.0597 60.0581C58.225 59.5693 60.3945 59.0977 62.5556 58.5922C63.6866 58.3276 64.8041 58.0072 65.8358 57.4482C65.8877 57.4186 65.9642 57.4264 66.0957 57.4072C65.8659 57.9828 65.4832 58.403 65.504 59.0098ZM65.2575 50.8458C65.8493 50.9566 66.4738 50.5858 66.7489 50.0289C67.0427 49.4335 66.7541 48.8849 66.6173 48.3129C66.8076 48.2432 66.9106 48.2817 66.9813 48.4351C67.4561 49.4402 67.3219 50.4054 66.1826 50.8962C65.9116 51.0126 65.6327 51.1096 65.348 51.1864C65.0807 51.2587 64.9554 51.1812 64.8888 50.9129C64.8532 50.7622 64.8448 50.6063 64.8639 50.4527C64.9273 49.9212 65.0147 49.3929 65.076 48.8615C65.0968 48.6774 65.1124 48.5214 65.3807 48.5006C65.635 49.3035 65.219 50.0715 65.2575 50.8448V50.8458ZM85.2806 47.9671C85.278 47.94 85.2754 47.9151 85.2734 47.8854L86.5297 47.7404V47.8797L85.2806 47.9671ZM85.1766 40.4385C85.1995 40.3928 85.2182 40.3439 85.2427 40.2992C85.2509 40.2845 85.2599 40.2702 85.2697 40.2565C86.6117 38.4386 87.9548 36.6214 89.2992 34.8048L89.3387 34.7149C89.3387 34.7149 91.191 31.87 92.3318 31.7072C93.4727 31.5444 94.0062 31.7072 94.0062 31.7072C94.0062 31.7072 92.3064 31.636 91.4697 32.4872C91.4791 32.494 91.489 32.5001 91.4993 32.5054L91.5071 32.5002C91.5113 32.509 91.5071 32.5096 91.4993 32.5054L91.3782 32.5881L91.3485 32.6245C90.5685 33.6198 89.0309 35.4179 89.0309 35.4179C87.8921 36.9696 86.7498 38.5189 85.6041 40.0657C85.5619 40.1222 85.5163 40.1761 85.4673 40.2269C85.3867 40.3132 85.3004 40.3948 85.2193 40.4806L84.8714 40.9757L84.7768 40.907L85.1766 40.4385ZM85.3358 44.0036C86.7003 43.488 88.1226 43.1407 89.5712 42.9694C90.9351 42.8004 91.9392 42.1509 92.5762 40.9341C92.6067 40.8726 92.6425 40.8139 92.6834 40.7588C92.7 40.737 92.7416 40.7344 92.8674 40.6871C92.5814 41.5097 92.3167 42.271 92.0521 43.0338C89.3538 43.0858 86.7959 43.6854 84.3041 44.6131L84.264 44.5091C84.6202 44.3364 84.9676 44.1435 85.3352 44.0026L85.3358 44.0036ZM89.6138 45.8122L89.555 45.8814L89.2456 45.7342L89.2721 45.6744L89.6138 45.8122ZM84.1247 45.0026C84.5875 44.6562 85.134 44.495 85.6945 44.3224C85.5229 44.8315 85.5547 45.0041 85.9941 45.2995C86.3353 45.5368 86.7047 45.7307 87.0939 45.8767C88.9914 46.547 90.8987 47.1892 92.8019 47.8423C93.2283 47.9889 93.6563 48.133 94.0775 48.2936C94.6299 48.509 95.2246 48.5941 95.8153 48.5422C96.5236 48.4777 97.2276 48.3763 97.9343 48.2942C98.1153 48.2734 98.2983 48.2645 98.4694 48.251C98.5547 48.5838 98.3316 48.588 98.1792 48.629C97.4424 48.8287 96.7009 49.0102 95.9645 49.2125C95.2945 49.4055 94.5795 49.3715 93.9308 49.1158C92.4228 48.5438 90.9029 48.0004 89.3803 47.4679C88.398 47.1242 87.3991 46.8283 86.4163 46.4934C85.7273 46.2594 85.0482 45.9963 84.3665 45.742C84.2864 45.708 84.2112 45.6634 84.1429 45.6094C83.8371 45.3868 83.8241 45.2262 84.1247 45.002V45.0026ZM79.5346 43.1306C79.4306 43.1826 79.3266 43.2346 79.22 43.2772C79.1271 43.3198 79.0221 43.3281 78.9236 43.3006L79.4686 43.0406L79.5346 43.1306ZM77.1328 40.4453L79.1275 41.451C79.1134 41.4858 79.0989 41.5201 79.0843 41.555L77.0802 40.5524L77.1328 40.4453ZM74.3799 41.6985C73.9407 41.4938 73.5182 41.2551 73.1163 40.9845C72.6696 40.6756 72.6774 40.3605 73.1074 40.0293C73.3163 39.8734 73.5433 39.7435 73.7834 39.6424C74.5759 39.294 75.3757 38.9612 76.1754 38.6242C76.2372 38.6035 76.3005 38.5879 76.3647 38.5774C76.3793 38.6034 76.3933 38.6294 76.4074 38.6554C76.241 38.7433 76.0714 38.8265 75.9076 38.9201C75.6674 39.0579 75.4204 39.1874 75.1952 39.3481C74.6118 39.7641 74.6009 40.1307 75.1713 40.5852C75.4163 40.7781 75.6815 40.9439 75.9622 41.0797C76.6315 41.4057 77.3142 41.7037 77.9902 42.0157C78.3204 42.1675 78.6543 42.3131 78.9782 42.4795C79.0698 42.5263 79.1285 42.6355 79.2663 42.7879L77.9299 43.3469C76.7022 42.7811 75.5353 42.2502 74.3799 41.6974V41.6985ZM78.4728 43.5705L78.0568 43.792C78.0365 43.754 78.0157 43.7161 77.9949 43.6781L78.4405 43.5008L78.4728 43.5705ZM84.4273 48.1179C79.5835 49.4179 74.8198 50.9259 70.405 53.3543C69.664 53.8341 68.9489 54.3528 68.2626 54.908L68.2662 54.9127L68.0062 55.1207C67.1862 55.8186 66.4462 56.5845 66.037 57.3338C66.037 57.3338 66.361 55.4057 70.2246 53.2482L71.2048 52.7724C74.4854 50.9441 82.3993 48.1205 84.4273 48.1179ZM69.2844 46.7659C70.146 46.6619 71.0035 46.5236 71.8615 46.3925C72.7195 46.2615 73.564 46.0218 74.4787 45.9843C74.4215 46.2963 74.2286 46.2766 74.0689 46.3088C73.1329 46.4976 72.1933 46.6645 71.2645 46.8808C70.0478 47.1652 68.8408 47.4897 67.6297 47.7955C67.4633 47.8376 67.2959 47.875 67.1045 47.9198C66.9444 47.6078 66.8113 47.3452 66.6475 47.0248C67.5476 46.9411 68.4181 46.8735 69.2839 46.7685L69.2844 46.7659ZM66.4046 47.2542C66.5128 47.4861 66.5716 47.7404 66.6646 48.03L65.153 48.3732C65.0334 47.9166 64.9247 47.5017 64.7984 47.0212C65.282 47.0212 65.6964 47.0061 66.1082 47.0321C66.2138 47.041 66.3573 47.1554 66.4041 47.2568L66.4046 47.2542ZM66.1009 46.7409C65.8503 46.7929 65.855 46.7851 65.3615 46.536C65.1348 46.4216 64.8857 46.3525 64.6465 46.2625L64.569 46.3468C64.5798 46.3642 64.5869 46.3837 64.5898 46.404C64.6876 46.7487 64.9018 48.3326 64.9907 48.484C64.8685 48.5562 64.6106 46.9281 64.4879 47.0004C64.3938 46.5844 63.9159 46.4003 63.8806 45.8803C64.7037 46.0816 65.4749 46.1762 66.1004 46.7435L66.1009 46.7409ZM62.1344 45.8372C62.2566 45.9074 62.3809 45.9734 62.4984 46.0478C62.9934 46.3551 63.4297 46.7617 64.0163 46.9136C64.0626 46.9315 64.1049 46.9585 64.1407 46.9931C64.1764 47.0277 64.2048 47.0691 64.2243 47.1148C64.4296 47.5767 64.5484 48.0723 64.5747 48.577C64.2284 48.653 63.9294 48.7382 63.6252 48.7798C63.2779 48.8272 63.1141 48.7393 63.0371 48.4158C62.866 47.6993 62.5213 47.0638 62.177 46.4263C62.0954 46.2745 62.0772 46.0888 62.0299 45.9188L62.1344 45.8372ZM20.4205 53.1681C20.3685 52.8 20.7476 51.9472 21.032 51.6419C21.216 51.2437 21.4938 50.8962 21.8417 50.629C22.0169 50.8037 22.2057 50.9545 22.3476 51.1391C23.6788 52.8457 25.0045 54.5567 26.3246 56.272C26.5398 56.5651 26.7344 56.8728 26.907 57.1929C26.9741 57.3115 26.9808 57.4644 27.0152 57.6016L26.9054 57.65C26.8337 57.5715 26.766 57.4894 26.7026 57.404C26.2014 56.6568 25.7256 55.8914 25.1983 55.1634C24.4464 54.1254 23.6735 53.1028 22.8796 52.0954C22.1552 51.1718 21.9805 51.1204 21.0939 51.7121C20.9124 52.0969 20.5926 53.0319 21.2671 53.855C22.0512 54.8118 24.8358 57.6334 25.4016 58.2043L25.9216 58.1378C25.7136 58.3385 25.6689 58.3822 25.4999 58.3062V58.586C25.4999 58.586 20.4793 53.6122 20.4205 53.1681ZM25.7105 57.8762C25.7105 57.8762 22.2629 54.6158 21.9935 52.9268C21.9935 52.9268 24.8644 57.0608 25.502 57.3723C26.1395 57.6838 25.7105 57.8762 25.7105 57.8762ZM25.1473 68.6922C24.8811 67.9829 26.3043 64.3284 26.7229 63.2842C26.7523 63.1876 26.7902 63.0938 26.8363 63.0039C26.8363 63.0039 26.7941 63.1079 26.7229 63.2842C26.2752 64.6362 25.4318 69.4509 25.1473 68.6922ZM28.3578 62.7517C28.0884 64.4303 27.8173 66.1087 27.5445 67.7869C27.4467 68.3859 27.3578 68.9876 27.2325 69.5814C27.1696 69.8809 27.0354 70.1654 26.9179 70.5023L26.0542 70.3702C26.724 69.9589 26.843 69.3822 26.9418 68.8056C27.2434 67.0438 27.5395 65.2812 27.83 63.5177C27.8612 63.33 27.8394 63.1329 27.8773 62.9457C27.9688 62.4974 27.7697 62.2177 27.3942 62.017C27.2476 61.9384 27.1134 61.837 26.973 61.746L27.011 61.6088L28.4971 61.7752C28.4498 62.1158 28.4087 62.4345 28.3578 62.7512V62.7517ZM30.665 58.8959C30.6406 59.4378 30.5865 59.9676 30.3697 60.4705C30.1705 60.9312 29.8429 61.2172 29.3385 61.3295C28.5902 61.4959 27.8565 61.4138 27.012 61.2671C27.2835 61.1917 27.4618 61.1356 27.6438 61.094C27.8291 61.0518 28.0163 61.0192 28.2049 60.9962C28.6729 60.9395 29.1217 60.8402 29.5371 60.5916C30.0956 60.2604 30.351 59.7508 30.429 59.1408C30.4924 58.6494 30.221 58.2615 29.753 58.0956C29.2023 57.9012 28.6558 57.9693 28.1176 58.1372C26.9507 58.5012 25.998 59.1533 25.3683 60.2276C25.3326 60.2853 25.2932 60.3405 25.2503 60.393C25.2414 60.4039 25.218 60.4029 25.1952 60.4086C25.1171 60.3396 25.0648 60.2461 25.0469 60.1435C25.0291 60.0408 25.0467 59.9352 25.0969 59.8439C25.2201 59.599 25.3356 59.3239 25.5316 59.1466C26.1494 58.5919 26.7883 58.0601 27.4483 57.5512C27.8388 57.2522 28.3089 57.1602 28.8117 57.1186C29.715 57.0411 30.7066 57.9802 30.665 58.8954V58.8959ZM28.702 59.8839L29.3427 59.4367C29.248 59.7539 29.0088 59.8662 28.7624 59.9682L28.702 59.8839ZM30.9307 60.2926C30.9411 60.251 30.9521 60.2094 30.9625 60.1678C31.1835 60.1678 31.4045 60.1678 31.6255 60.1678C33.0669 60.1746 34.5089 60.1772 35.9503 60.1918C36.5068 60.199 37.0605 60.1127 37.5883 59.9364C38.1161 59.7596 38.217 59.5839 38.255 59.0218C38.2888 58.5288 38.255 58.0499 37.7781 57.8034C37.3834 57.6001 36.9425 57.4217 36.5072 57.3749C35.6284 57.2808 34.746 57.3021 33.8786 57.5652C32.939 57.8507 31.9832 58.0852 30.9999 58.2984C31.0633 58.2496 31.1195 58.1794 31.1913 58.156C31.7685 57.9682 32.3472 57.7826 32.9286 57.6094C34.5073 57.1383 36.0876 56.6734 37.6507 56.2106C38.5748 56.9652 38.8701 59.2516 38.1941 60.5017C35.8463 60.4648 33.473 60.4289 31.0992 60.3873C31.0426 60.3852 30.9869 60.3238 30.9307 60.2911V60.2926ZM32.3155 59.5782C32.9431 59.185 35.9087 58.8283 37.3075 58.9942L32.3155 59.5782ZM36.8015 60.6067V60.6436H34.4418V60.6067H36.8015ZM33.9067 60.5027C33.9067 60.5178 33.9067 60.5334 33.9067 60.549H32.1673V60.5027H33.9067ZM33.2104 63.085C33.9332 63.2811 34.6935 63.3367 35.4376 63.4542C33.9 63.4464 32.4024 63.2884 31.132 62.2848C31.8236 62.5531 32.4975 62.888 33.2104 63.0809V63.085ZM40.272 64.281C39.128 64.5858 37.9695 64.7402 36.7849 64.6383C36.1869 64.5863 35.5889 64.526 34.992 64.4693L34.9888 64.3507C35.9524 64.3507 36.9196 64.4027 37.879 64.3362C38.828 64.2727 39.7687 64.0938 40.751 64.0564C40.5913 64.1282 40.4395 64.2316 40.272 64.2764V64.281ZM41.753 63.3482H41.7494C41.6693 63.3924 41.5933 63.4662 41.5107 63.4813H41.494C39.5784 63.6508 37.6642 63.8578 35.7449 63.9571C34.6707 64.0196 33.594 63.8903 32.5651 63.5754C32.4705 63.5458 32.3946 63.4563 32.3129 63.3835L32.2635 63.3679L32.2115 63.3482L31.8038 63.3175C31.8111 63.2764 31.8184 63.2353 31.8262 63.1942C31.9558 63.2462 32.086 63.2982 32.2167 63.3502L32.275 63.3544L32.3046 63.3794C33.6384 63.8052 35.0086 63.8676 36.3887 63.7751L36.5239 63.7657C38.2654 63.6362 40.0079 63.4875 41.7467 63.3497H41.7514L42.7649 63.2977C42.7649 63.3305 42.7649 63.3632 42.7649 63.3965L41.753 63.3482ZM43.6141 53.6481C41.726 53.7141 39.8363 53.7848 37.9731 54.1208C37.6882 54.1728 37.4042 54.23 37.1208 54.2913C34.5697 55.089 30.1393 57.2917 30.1393 57.2917C30.4361 56.9692 30.7675 56.6803 31.1273 56.4301L31.0997 56.3781L31.5355 56.1586C31.8812 55.9428 32.2383 55.7458 32.6051 55.5684V55.5648L32.6265 55.5591C34.798 54.5066 37.3392 53.9934 37.9773 53.9533C38.6013 53.8493 39.2325 53.7739 39.8654 53.7152C41.0889 53.6023 42.3208 53.5711 43.5491 53.5072C43.7529 53.4968 43.9578 53.5072 44.1621 53.5072C44.1621 53.5446 44.1658 53.582 44.1679 53.6195C43.9802 53.6257 43.7971 53.6372 43.6141 53.6434V53.6481ZM44.2428 52.7781C44.0223 52.7781 43.8013 52.775 43.5808 52.7781C42.35 52.7958 41.1165 52.7781 39.8888 52.8421C37.5779 52.9679 35.3908 53.6309 33.2562 54.4879C32.2558 54.8838 31.294 55.3712 30.3832 55.9439C30.2272 56.0432 30.065 56.1337 29.9058 56.2283L29.8289 56.1321C29.9656 56.0068 30.0889 55.8602 30.2449 55.7608C30.7982 55.4036 31.3519 55.0453 31.9229 54.7177C34.1631 53.4328 36.5187 52.4516 39.0734 51.9773C40.2991 51.7501 41.5112 51.632 42.7207 52.0382C43.1799 52.1942 43.6396 52.3429 44.0961 52.503C44.1663 52.528 44.2209 52.5966 44.2823 52.645C44.2672 52.6835 44.2552 52.7282 44.2428 52.7734V52.7781ZM44.9931 63.2504L44.7482 63.2275L44.9936 63.2457L44.9931 63.2504ZM47.9426 59.2376C47.5473 59.2896 47.1542 59.3525 46.759 59.4024C46.5422 59.4385 46.3203 59.4288 46.1075 59.3738C46.1075 59.3738 60.2515 56.4862 63.2441 55.0058C65.7375 53.7713 62.1126 56.6272 52.5612 58.4472C51.0327 58.7654 49.4932 59.0273 47.9426 59.2329V59.2376ZM86.7673 72.8376C85.9826 72.6915 85.1974 72.5428 84.4221 72.3551C83.6645 72.1715 82.9183 71.9391 82.1679 71.7243C80.3672 71.2074 78.5648 70.6958 76.7672 70.1643C75.5026 69.7915 74.2535 69.3646 72.9832 69.012C71.5792 68.623 70.171 68.2476 68.7483 67.9429C65.7614 67.3038 62.787 66.6184 59.8292 65.8561C57.6119 65.2841 55.3801 64.7683 53.1608 64.2036C52.5409 64.0476 51.9382 63.8146 51.3356 63.5946C50.7911 63.396 50.5166 62.9186 50.2628 62.4428C50.2071 62.3388 50.2472 62.1308 50.3221 62.0294C50.3663 61.9691 50.5821 61.9878 50.6934 62.0326C51.3881 62.3035 52.0734 62.5988 52.7671 62.8739C54.5793 63.592 56.4773 64.0236 58.3504 64.5353C66.0484 66.6385 73.7486 68.7341 81.4508 70.8221C84.1626 71.5543 86.8906 72.2261 89.6148 72.9094C90.7817 73.2011 91.9465 73.1975 93.1051 72.8018C93.6282 72.6229 94.1804 72.5256 94.7212 72.3998C95.2323 72.2679 95.7708 72.2886 96.2703 72.4591C95.8782 72.5459 95.5985 72.6021 95.3218 72.6671C94.4118 72.8881 93.4867 73.0628 92.5996 73.353C91.9678 73.561 91.3516 73.6426 90.711 73.537C89.3943 73.3228 88.0803 73.082 86.7673 72.8376ZM98.8558 72.4648C97.2629 72.6147 95.7075 73.0368 94.2574 73.7128C93.8565 73.8969 93.4056 74.044 93.208 74.5136C93.1897 74.5422 93.1656 74.5666 93.1373 74.5854C93.109 74.6042 93.0772 74.6169 93.0437 74.6228C92.4114 74.7455 91.776 74.8469 91.1348 74.692C91.0064 74.6613 90.8878 74.588 90.7645 74.536C90.7588 74.484 90.7531 74.432 90.7469 74.3841C90.9705 74.2708 91.1873 74.1413 91.4187 74.0466C92.9044 73.4393 94.456 73.067 96.0316 72.7955C97.3316 72.5719 98.6368 72.3847 99.941 72.1923C100.205 72.1533 100.477 72.1611 100.744 72.1471C100.744 72.1819 100.749 72.2162 100.752 72.2511C100.12 72.3249 99.4886 72.4071 98.8558 72.4648Z" fill="url(#paint3_radial_463_24116)"/>
<path d="M33.8353 52.9769C33.8566 52.9691 33.8785 52.9618 33.9008 52.9546L33.9341 52.9447C34.0345 52.9145 34.1385 52.8927 34.2378 52.8594L34.4213 52.8178C34.4438 52.7648 34.4772 52.7171 34.5194 52.6779C34.5617 52.6388 34.6117 52.609 34.6663 52.5906L34.6845 52.5843C34.7743 52.559 34.8672 52.5455 34.9606 52.5443L34.9486 52.5516L34.9403 52.5562H34.9367L35.4665 52.3399C35.4879 52.3212 35.5081 52.2994 35.5289 52.2796L35.5378 52.2713C35.544 52.2657 35.5503 52.2605 35.5565 52.2557C35.5625 52.2508 35.5687 52.2463 35.5752 52.2422L35.5851 52.2359C35.5918 52.2321 35.5987 52.2288 35.6059 52.226C37.2382 51.5979 38.8975 51.0716 40.6535 50.926C40.8184 50.912 40.9874 50.9468 41.1543 50.9588C41.1026 50.9013 41.072 50.828 41.0675 50.7508C41.0675 50.7461 41.0675 50.742 41.0675 50.7373C41.0684 50.7241 41.0707 50.711 41.0742 50.6983C41.0974 50.63 41.1399 50.5699 41.1964 50.5251C41.6322 50.1356 42.0523 49.729 42.4767 49.3291C42.7242 49.0951 42.9681 48.858 43.214 48.6219L43.2021 48.6323V48.6276L42.0237 49.5184C41.3997 49.2064 40.7653 48.8944 40.1289 48.5767C30.7588 43.9299 21.3898 39.278 12.0218 34.6209C11.4888 34.3455 10.8805 34.2513 10.2892 34.3526C9.15661 34.5231 8.01937 34.6599 6.88785 34.8336C5.85721 34.9896 4.83437 35.1976 3.89993 35.691C3.63993 35.8268 3.37993 35.9848 3.17869 36.1908C2.66857 36.7108 2.77413 37.4221 3.38669 37.8028C6.10075 39.4872 8.8148 41.171 11.5289 42.8541C17.6468 46.6261 23.7667 50.3944 29.8885 54.1589C30.0897 54.2832 30.2837 54.4189 30.4735 54.5463L30.2135 54.9196C31.3783 54.2894 32.541 53.6555 33.71 53.0326C33.7503 53.011 33.7922 52.9924 33.8353 52.9769ZM20.1177 44.075L26.3884 47.247C26.3619 47.2819 26.3364 47.3172 26.3099 47.351L20.0579 44.1931L20.1177 44.075ZM15.0123 41.4958L19.8093 43.9081L19.7516 44.0313L14.9635 41.5925L15.0123 41.4958ZM32.5129 53.4558C32.4121 53.4969 32.2467 53.4444 32.1359 53.3867C30.0273 52.2874 27.9364 51.1507 25.8138 50.0821C22.3714 48.3446 18.9798 46.5157 15.6389 44.5955C13.339 43.268 11.0447 41.9264 8.79313 40.5198C7.49989 39.7112 6.28309 38.7767 5.05953 37.8626C4.70697 37.5989 4.42721 37.2256 4.15941 36.8688C4.03201 36.6988 3.99561 36.4528 3.94569 36.236C3.88849 35.988 4.00757 35.8392 4.32009 35.7909C4.34713 35.936 4.37625 36.0509 4.38925 36.17C4.43761 36.6187 4.67733 36.9536 5.04029 37.1886C6.01685 37.8194 6.97885 38.4788 7.99233 39.045C11.0083 40.7278 14.0436 42.3731 17.0715 44.0293C19.1727 45.1798 21.2737 46.3304 23.3745 47.481C24.3484 48.0156 25.3245 48.547 26.2901 49.0962C27.6171 49.8512 28.9234 50.6426 30.2608 51.379C31.2025 51.899 32.1807 52.3508 33.1421 52.835C33.2149 52.8719 33.2862 52.9124 33.4287 52.991C33.0839 53.1683 32.8083 53.3357 32.5129 53.4558Z" fill="url(#paint4_radial_463_24116)"/>
<path d="M34.9395 52.5564L34.9478 52.5518L34.9395 52.5564Z" fill="url(#paint5_radial_463_24116)"/>
<path d="M35.4659 52.3423L35.457 52.3501L35.4659 52.3423Z" fill="url(#paint6_radial_463_24116)"/>
<path d="M34.9602 52.5444L34.9482 52.5516L34.9602 52.5444Z" fill="url(#paint7_radial_463_24116)"/>
<path d="M43.2202 48.6201L43.2051 48.631V48.6357L43.2202 48.6201Z" fill="url(#paint8_radial_463_24116)"/>
<path d="M43.2022 48.6349L43.2142 48.6245L43.2012 48.636L43.2022 48.6349Z" fill="url(#paint9_radial_463_24116)"/>
<path d="M42.4766 49.3321C42.0523 49.7335 41.6321 50.1402 41.1963 50.5281C41.1398 50.5728 41.0974 50.633 41.0741 50.7012C41.0706 50.714 41.0684 50.727 41.0674 50.7402C41.0674 50.7449 41.0674 50.7491 41.0674 50.7538C41.0719 50.8309 41.1025 50.9043 41.1542 50.9618L41.5811 50.8921L41.3529 50.6841C42.8089 49.292 44.2721 47.9166 45.9055 46.7285C47.5388 45.5403 49.4311 44.8767 51.2937 44.1493C51.2271 44.1195 51.1523 44.114 51.0821 44.1337C49.8892 44.5075 48.7197 44.9381 47.6027 45.508C47.5019 45.56 47.401 45.612 47.3017 45.664C47.2023 45.716 47.103 45.7732 47.0047 45.8289C45.6345 46.6089 44.4073 47.5906 43.2145 48.6207C42.968 48.861 42.7241 49.0981 42.4766 49.3321Z" fill="white"/>
<path d="M47.0036 45.833C45.6339 46.613 44.4072 47.5937 43.2148 48.6233C44.4062 47.5948 45.6354 46.6146 47.0036 45.833Z" fill="white"/>
<path d="M43.2021 48.6347L43.2151 48.6233L43.2198 48.6191L43.2021 48.6347Z" fill="white"/>
<path d="M28.8809 55.9688L28.9074 55.9995C28.9709 55.9775 29.0321 55.9491 29.0899 55.9147C30.6317 54.7635 32.3066 53.8395 34.0325 53.0028C34.1044 52.9609 34.1729 52.9135 34.2374 52.8608C34.1375 52.8926 34.0335 52.916 33.9332 52.9461L33.8999 52.956C33.8775 52.9633 33.8557 52.9706 33.8344 52.9784C33.7911 52.9938 33.7491 53.0124 33.7085 53.034C32.5396 53.658 31.3769 54.2908 30.2121 54.921L29.1201 55.6443L28.8809 55.9688Z" fill="white"/>
<path d="M28.594 56.1128C28.334 56.3291 28.074 56.5376 27.827 56.768C27.7781 56.8143 27.8072 56.9432 27.7999 57.0342L28.2716 56.572L28.594 56.1128Z" fill="url(#paint10_radial_463_24116)"/>
<path d="M28.881 55.9688L28.6626 55.9979L28.5929 56.1128L28.2705 56.572L28.9075 56L28.881 55.9688Z" fill="white"/>
<path d="M29.1186 55.6431L28.6631 55.9977L28.8815 55.9686L29.1186 55.6431Z" fill="url(#paint11_radial_463_24116)"/>
<path d="M29.118 55.6431L28.8809 55.9686L29.118 55.6431Z" fill="url(#paint12_radial_463_24116)"/>
<path d="M92.6011 73.3563C93.4883 73.0662 94.4133 72.8915 95.3233 72.6705C95.6 72.6034 95.8797 72.5472 96.2718 72.4625C95.7723 72.2919 95.2338 72.2713 94.7227 72.4032C94.1819 72.529 93.6307 72.6263 93.1066 72.8051C91.948 73.2009 90.7832 73.2045 89.6163 72.9128C86.891 72.2316 84.1631 71.5577 81.4523 70.8255C73.748 68.7455 66.0479 66.6499 58.3519 64.5387C56.4799 64.0271 54.5808 63.5955 52.7686 62.8774C52.0749 62.6023 51.3896 62.3054 50.6949 62.036C50.581 61.9913 50.3678 61.9726 50.3236 62.0329C50.2487 62.1369 50.2087 62.3423 50.2643 62.4463C50.5181 62.92 50.7926 63.3994 51.3371 63.5981C51.9397 63.818 52.5424 64.0489 53.1623 64.207C55.3816 64.7717 57.6135 65.2881 59.8307 65.8595C62.7885 66.6219 65.7629 67.3072 68.7498 67.9463C70.1725 68.251 71.5822 68.6264 72.9847 69.0154C74.255 69.368 75.5041 69.7954 76.7687 70.1677C78.5663 70.6976 80.3687 71.2077 82.1694 71.7277C82.9198 71.943 83.666 72.1749 84.4236 72.3585C85.1989 72.5462 85.9836 72.6949 86.7688 72.841C88.0818 73.0854 89.3959 73.3262 90.7135 73.5441C91.3511 73.646 91.9678 73.5633 92.6011 73.3563Z" fill="white"/>
<path d="M43.1951 50.3842C43.076 50.5189 42.9694 50.665 42.8311 50.8402L45.5766 51.7206C45.678 51.55 45.7659 51.4034 45.8533 51.2557C47.0061 49.3011 48.4533 47.6158 50.383 46.3891C51.8239 45.4744 53.3662 44.7709 54.9818 44.2254C55.1206 44.1786 55.2558 44.1214 55.4415 44.0475C54.5856 43.8172 54.1311 43.8234 53.3963 44.0668C50.7246 44.9508 48.2671 46.2508 45.9926 47.9012C44.9781 48.6365 44.0276 49.4446 43.1951 50.3842Z" fill="white"/>
<path d="M62.5587 58.5918C60.3976 59.0973 58.2281 59.5689 56.0628 60.0577C55.9276 60.0884 55.7976 60.1435 55.665 60.1872C55.7651 60.2761 55.8952 60.3237 56.029 60.3203C57.121 60.3026 58.2177 60.3031 59.3102 60.2532C61.2795 60.1627 63.2305 60.274 65.167 60.6541C65.3901 60.6983 65.6298 60.6604 65.9012 60.6604C65.7785 60.0691 65.5263 59.5746 65.5071 59.0094C65.4863 58.4025 65.8711 57.9824 66.0994 57.4067C65.9699 57.426 65.896 57.4182 65.8394 57.4478C64.8072 58.0068 63.6897 58.3271 62.5587 58.5918Z" fill="white"/>
<path d="M84.1404 45.6093C84.2087 45.6633 84.2839 45.7079 84.364 45.7419C85.0457 45.9962 85.7248 46.2619 86.4139 46.4933C87.4019 46.8281 88.3982 47.124 89.3779 47.4677C90.9004 48.0002 92.4204 48.542 93.9284 49.1156C94.5771 49.3713 95.2921 49.4053 95.9621 49.2123C96.6984 49.01 97.44 48.8286 98.1768 48.6289C98.3292 48.5878 98.5523 48.5836 98.467 48.2508C98.2954 48.2644 98.1129 48.2732 97.9319 48.294C97.2252 48.3762 96.5211 48.4776 95.8129 48.542C95.222 48.5938 94.6271 48.5086 94.0745 48.293C93.6533 48.1323 93.2254 47.9883 92.799 47.8416C90.8958 47.1885 88.9884 46.5463 87.0909 45.876C86.7017 45.7301 86.3323 45.5362 85.9911 45.2988C85.5517 45.0035 85.52 44.8309 85.6916 44.3218C85.131 44.4944 84.5845 44.6556 84.1217 45.0019C83.8237 45.226 83.8367 45.3867 84.1404 45.6093Z" fill="white"/>
<path d="M92.9563 30.5062C92.3541 30.85 91.7603 31.214 91.1883 31.6081C90.7303 31.9197 90.298 32.2675 89.8956 32.6481C89.4109 33.1212 88.9511 33.6192 88.5181 34.14C87.1193 35.7967 85.7288 37.4607 84.3466 39.132C83.1475 40.5729 81.7513 41.7788 80.1154 42.7013C80.0083 42.7616 79.9105 42.8391 79.8086 42.9093C79.8421 42.9265 79.8792 42.9358 79.9168 42.9364C79.9545 42.937 79.9919 42.929 80.026 42.9129C81.2443 42.3409 82.366 41.6212 83.3316 40.6769C84.532 39.4948 85.6492 38.2312 86.6752 36.895C87.3023 36.0864 87.9565 35.2975 88.6158 34.5144C89.4109 33.5706 90.2424 32.659 91.2184 31.8962C92.04 31.254 92.9838 30.9217 94.0238 30.9758C94.3878 30.9945 94.7591 31.163 95.0976 31.3242C95.446 31.4901 95.7596 31.7303 95.7034 32.2243C96.1069 31.1926 96.5042 30.1901 96.8167 29.1308L96.4917 29.0788C96.4917 29.0788 96.5084 29.0669 96.5068 29.0674C96.4177 29.1178 96.3255 29.1624 96.2307 29.201C95.1184 29.5806 93.9859 29.9192 92.9563 30.5062Z" fill="white"/>
<path d="M41.6113 50.897L41.6347 50.9168C41.6472 50.9282 41.6621 50.9366 41.6784 50.9412C43.8489 51.4612 45.8852 52.3416 47.8908 53.2958C49.065 53.8548 50.2251 54.4439 51.3883 55.0253C51.5326 55.1032 51.6923 55.1483 51.856 55.1573C52.0197 55.1662 52.1833 55.1389 52.3352 55.0773C53.8484 54.5198 55.3762 54.0019 56.8852 53.4346C57.3173 53.2724 57.7557 53.0503 58.1036 52.7534C59.0656 51.9313 59.9912 51.066 60.9084 50.1934C61.1554 49.9589 61.3431 49.6516 61.5184 49.3542C61.9344 48.6438 62.0067 47.8893 61.7581 47.0984C61.4461 46.0979 60.6911 45.4864 59.8424 44.9935C57.7063 43.7455 55.3772 43.4964 52.965 43.7455C53.0739 43.7748 53.1866 43.7876 53.2993 43.7834C54.6009 43.7348 55.9026 43.8751 57.1639 44.1999C58.3079 44.4917 59.3573 44.9482 60.299 45.6632C60.8559 46.0865 61.2662 46.6091 61.4758 47.2752C61.7311 48.0859 61.6838 48.8503 61.0748 49.5112C60.7457 49.8684 60.4373 50.247 60.0868 50.584C58.8082 51.819 57.4868 52.9978 55.7272 53.5199C55.579 53.5636 55.4417 53.6452 55.3003 53.7112C54.2566 54.1974 53.147 54.4772 52.0368 54.7544C51.7684 54.8214 51.5485 54.7757 51.3088 54.6145C50.8662 54.3088 50.4 54.0387 49.9146 53.8069C48.5502 53.1762 47.2335 52.4424 45.7625 52.0457C44.8452 51.7976 43.9685 51.4019 43.0678 51.0904C42.9208 51.0392 42.7712 50.9957 42.6196 50.9599L42.5281 50.9402C42.2268 50.8766 41.9172 50.862 41.6113 50.897Z" fill="white"/>
<path d="M41.5992 50.8887L41.6091 50.8975L41.6013 50.8918C41.6001 50.8916 41.5989 50.8916 41.5977 50.8918L41.5992 50.8887Z" fill="white"/>
<path d="M42.5264 50.9414L42.62 50.9601L42.5264 50.9414Z" fill="white"/>
<path d="M41.6794 50.9414C41.6632 50.9368 41.6482 50.9284 41.6357 50.917C41.6482 50.9284 41.6632 50.9368 41.6794 50.9414Z" fill="white"/>
<path d="M42.526 50.9411C42.2255 50.8774 41.9166 50.8625 41.6113 50.8969C41.9166 50.8625 42.2255 50.8774 42.526 50.9411Z" fill="white"/>
<path d="M41.6123 50.8973L41.6045 50.8916L41.6123 50.8973Z" fill="white"/>
<path d="M42.719 52.0316C41.5095 51.6255 40.2973 51.7435 39.0717 51.9708C36.517 52.445 34.1613 53.4268 31.9212 54.7113C31.3492 55.0389 30.7964 55.3972 30.2431 55.7544C30.0871 55.8537 29.9665 56.0004 29.8271 56.1257L29.9041 56.2219C30.0632 56.1273 30.225 56.0368 30.3815 55.9374C31.2923 55.3647 32.254 54.8773 33.2545 54.4814C35.3891 53.6244 37.5762 52.9614 39.8871 52.8355C41.1153 52.769 42.3488 52.7893 43.5791 52.7716C43.7996 52.7679 44.0205 52.7716 44.241 52.7716C44.2535 52.7263 44.2655 52.6816 44.2774 52.6369C44.2161 52.5885 44.1615 52.5199 44.0913 52.4949C43.6378 52.3363 43.1782 52.1855 42.719 52.0316Z" fill="white"/>
<path d="M79.2614 42.7886C79.1236 42.6372 79.0649 42.5286 78.9734 42.4802C78.6505 42.3138 78.3166 42.1682 77.9854 42.0164C77.3094 41.7044 76.6272 41.4043 75.9574 41.0804C75.6767 40.9446 75.4115 40.7788 75.1665 40.5858C74.5945 40.1314 74.607 39.7653 75.1904 39.3488C75.4156 39.1881 75.6626 39.0586 75.9028 38.9208C76.0666 38.8272 76.2361 38.744 76.4025 38.6561C76.3885 38.6301 76.3744 38.6041 76.3599 38.5781C76.2956 38.5886 76.2323 38.6042 76.1706 38.6249C75.3729 38.9619 74.5732 39.2947 73.7787 39.6431C73.5385 39.7442 73.3115 39.8741 73.1027 40.03C72.6726 40.3628 72.6648 40.6763 73.1115 40.9852C73.5134 41.2558 73.9359 41.4945 74.3751 41.6992C75.531 42.2519 76.6974 42.7828 77.9188 43.3496L79.2614 42.7886Z" fill="white"/>
<path d="M37.6516 56.2119C36.0885 56.6747 34.5082 57.1396 32.9295 57.6107C32.3481 57.7839 31.7694 57.9695 31.1922 58.1572C31.1204 58.1806 31.0642 58.2508 31.0008 58.2997C31.9841 58.0855 32.9399 57.852 33.8795 57.5665C34.7469 57.3034 35.6293 57.2821 36.5081 57.3762C36.9433 57.423 37.3843 57.6014 37.779 57.8047C38.2584 58.0512 38.2896 58.5327 38.2558 59.023C38.2179 59.5852 38.117 59.7609 37.5892 59.9377C37.0613 60.114 36.5076 60.2003 35.9512 60.193C34.5098 60.1785 33.0678 60.1759 31.6264 60.1691C31.4054 60.1691 31.1844 60.1691 30.9634 60.1691C30.953 60.2107 30.942 60.2523 30.9316 60.2939C30.9878 60.3267 31.0434 60.388 31.1001 60.3891C33.4739 60.4307 35.8472 60.4666 38.195 60.5035C38.871 59.2503 38.5756 56.9638 37.6516 56.2119Z" fill="white"/>
<path d="M28.8126 57.1155C28.3098 57.1571 27.8397 57.2492 27.4492 57.5482C26.7905 58.0543 26.1516 58.5861 25.5325 59.1435C25.3364 59.3198 25.2205 59.596 25.0978 59.8409C25.0476 59.9322 25.0299 60.0378 25.0478 60.1405C25.0657 60.2431 25.1179 60.3366 25.196 60.4056C25.2189 60.3999 25.2423 60.4009 25.2512 60.39C25.2941 60.3375 25.3335 60.2823 25.3692 60.2246C25.9989 59.1503 26.9516 58.4982 28.1184 58.1342C28.6566 57.9663 29.2032 57.8981 29.7538 58.0926C30.2218 58.2585 30.4928 58.6464 30.4298 59.1378C30.3518 59.7478 30.0965 60.2574 29.538 60.5886C29.122 60.8346 28.6743 60.9365 28.2058 60.9932C28.0172 61.0169 27.8299 61.0502 27.6447 61.093C27.4627 61.1346 27.2844 61.1908 27.0129 61.2662C27.8574 61.4128 28.5911 61.495 29.3394 61.3286C29.8438 61.2163 30.1714 60.9303 30.3706 60.4696C30.5874 59.9667 30.6415 59.4368 30.6659 58.895C30.707 57.9798 29.7154 57.0406 28.8126 57.1155Z" fill="white"/>
<path d="M99.9412 72.1945C98.637 72.3869 97.3313 72.5741 96.0318 72.7977C94.4562 73.0691 92.9045 73.4414 91.4189 74.0488C91.1875 74.1434 90.9707 74.2729 90.7471 74.3862C90.7533 74.4382 90.759 74.4902 90.7647 74.5381C90.888 74.5901 91.0065 74.6613 91.135 74.6941C91.7761 74.8501 92.4116 74.7461 93.0439 74.6249C93.0774 74.619 93.1092 74.6063 93.1375 74.5875C93.1658 74.5687 93.1899 74.5443 93.2082 74.5157C93.4058 74.0477 93.8567 73.899 94.2576 73.7149C95.7077 73.039 97.2631 72.6169 98.856 72.467C99.4888 72.4092 100.12 72.3271 100.752 72.2559C100.752 72.221 100.747 72.1867 100.745 72.1519C100.477 72.1633 100.205 72.1555 99.9412 72.1945Z" fill="white"/>
<path d="M26.9745 61.747C27.1149 61.838 27.249 61.9395 27.3957 62.018C27.7711 62.2192 27.9677 62.4985 27.8787 62.9467C27.8408 63.1323 27.8626 63.3294 27.8314 63.5187C27.5392 65.2822 27.2431 67.0448 26.9433 68.8066C26.8445 69.3848 26.7254 69.9599 26.0557 70.3713L26.9194 70.5033C27.0369 70.1664 27.171 69.8793 27.234 69.5824C27.3582 68.9886 27.4472 68.3864 27.546 67.7879C27.8191 66.11 28.0902 64.4316 28.3592 62.7527C28.4112 62.4361 28.4513 62.1173 28.4996 61.7777L27.0135 61.6113L26.9745 61.747Z" fill="white"/>
<path d="M67.6317 47.7985C68.8428 47.4927 70.0497 47.1682 71.2665 46.8838C72.1952 46.6669 73.1354 46.5 74.0709 46.3118C74.2305 46.2795 74.4234 46.2983 74.4806 45.9873C73.5659 46.0247 72.722 46.265 71.8635 46.3955C71.0049 46.526 70.1475 46.6643 69.2863 46.7689C68.4252 46.8734 67.5501 46.9415 66.6494 47.0289C66.8132 47.3492 66.9463 47.6107 67.1065 47.9238C67.2958 47.878 67.4632 47.8401 67.6317 47.7985Z" fill="white"/>
<path d="M63.037 48.42C63.114 48.7418 63.2777 48.8297 63.6251 48.784C63.9293 48.7424 64.2283 48.6571 64.5746 48.5812C64.5483 48.0764 64.4295 47.5808 64.2242 47.1189C64.2047 47.0732 64.1763 47.0318 64.1405 46.9972C64.1048 46.9627 64.0625 46.9356 64.0162 46.9177C63.4296 46.7659 62.9933 46.3592 62.4983 46.0519C62.3787 45.9775 62.2544 45.9115 62.1343 45.8413L62.0303 45.9245C62.0776 46.0945 62.0958 46.2802 62.1774 46.432C62.5212 47.0695 62.8659 47.7034 63.037 48.42Z" fill="white"/>
<path d="M92.0512 43.0328C92.3159 42.27 92.5806 41.5087 92.8666 40.686C92.7407 40.7334 92.6991 40.738 92.6825 40.7578C92.6416 40.8129 92.6058 40.8715 92.5753 40.933C91.9383 42.1498 90.9342 42.7993 89.5703 42.9683C88.1217 43.1396 86.6994 43.487 85.3349 44.0026C84.9672 44.1435 84.6199 44.3364 84.2637 44.5054L84.3037 44.6094C86.795 43.6844 89.3529 43.0838 92.0512 43.0328Z" fill="white"/>
<path d="M71.9672 52.4035C71.9672 52.4035 71.3027 52.7675 70.4072 53.3541C74.822 50.9241 79.5857 49.4156 84.4295 48.1177C82.4015 48.1177 74.4882 50.9439 71.2075 52.7727L71.9672 52.4035Z" fill="white"/>
<path d="M21.1898 51.5322C21.1548 51.5902 21.1228 51.6501 21.0941 51.7116C21.9807 51.1198 22.1554 51.1713 22.8798 52.0948C23.6709 53.1036 24.4438 54.1263 25.1985 55.1628C25.7258 55.8908 26.2016 56.6563 26.7029 57.4035C26.7663 57.4889 26.834 57.571 26.9057 57.6495L27.0154 57.6011C26.9811 57.4638 26.9743 57.3109 26.9072 57.1924C26.7347 56.8723 26.54 56.5646 26.3248 56.2715C25.0075 54.5551 23.6818 52.8441 22.3478 51.1385C22.2038 50.9539 22.0171 50.8031 21.8419 50.6284C21.494 50.8956 21.2162 51.2432 21.0322 51.6414C21.0728 51.5902 21.1276 51.5522 21.1898 51.5322Z" fill="white"/>
<path d="M65.3833 48.5C65.1149 48.5208 65.0993 48.6768 65.0785 48.8609C65.0172 49.3923 64.9298 49.9206 64.8664 50.4521C64.8473 50.6057 64.8558 50.7616 64.8913 50.9123C64.9579 51.1806 65.0832 51.2581 65.3505 51.1858C65.6352 51.109 65.9142 51.012 66.1851 50.8956C67.3245 50.4047 67.4586 49.4396 66.9839 48.4345C66.9116 48.2811 66.8086 48.2426 66.6198 48.3123C66.7566 48.8843 67.0452 49.4323 66.7514 50.0283C66.4763 50.5852 65.8518 50.9559 65.26 50.8452C65.22 50.0714 65.636 49.3034 65.3833 48.5Z" fill="white"/>
<path d="M47.4131 51.8586C48.3678 50.1426 49.6199 48.7158 51.053 47.4345C52.4971 46.1454 54.2 45.3134 55.993 44.6182C54.693 44.7284 52.5168 45.9135 50.9126 47.3164C49.2986 48.7272 47.4552 51.1052 47.4131 51.8586Z" fill="white"/>
<path d="M64.7979 47.0236C64.9242 47.5041 65.0329 47.919 65.1525 48.3756L66.6641 48.0324C66.5716 47.7428 66.5128 47.4885 66.4041 47.2566C66.3573 47.1552 66.2138 47.0408 66.1072 47.0345C65.6959 47.008 65.2815 47.0236 64.7979 47.0236Z" fill="white"/>
<path d="M34.9902 64.346L34.9934 64.4646C35.5908 64.5212 36.1894 64.5826 36.7863 64.6336C37.9709 64.7375 39.131 64.5816 40.2734 64.2764C40.4409 64.2316 40.5932 64.1282 40.7524 64.0518C39.7701 64.0892 38.8284 64.268 37.8804 64.3315C36.921 64.3959 35.9538 64.346 34.9902 64.346Z" fill="white"/>
<path d="M43.5461 53.5079C42.3179 53.5719 41.086 53.6031 39.8625 53.7159C39.2296 53.7747 38.5999 53.8522 37.9744 53.9541C38.2344 53.9374 38.1771 54.0004 37.6467 54.1371C37.4835 54.1793 37.3077 54.2302 37.1221 54.289C37.4055 54.2276 37.6894 54.1694 37.9744 54.1184C39.8375 53.7825 41.7272 53.7117 43.6153 53.6457C43.7984 53.6395 43.9793 53.628 44.165 53.6187C44.165 53.5812 44.1613 53.5438 44.1592 53.5063C43.9549 53.5037 43.75 53.4949 43.5461 53.5079Z" fill="white"/>
<path d="M36.5265 63.7616L36.3913 63.771C35.0138 63.863 33.6473 63.8017 32.3135 63.3811C32.3951 63.4539 32.4695 63.5433 32.5657 63.5729C33.5946 63.8878 34.6713 64.017 35.7455 63.9545C37.6648 63.8552 39.5789 63.6483 41.4946 63.4788H41.5112C41.5929 63.4637 41.6698 63.3899 41.7494 63.3457C40.0084 63.4835 38.268 63.6322 36.5265 63.7616Z" fill="white"/>
<path d="M32.2666 63.3631L32.3072 63.3755L32.2775 63.3506L32.2666 63.3631Z" fill="white"/>
<path d="M36.3917 63.7711C35.0111 63.8637 33.6414 63.8013 32.3076 63.3755L32.3139 63.3812C33.6477 63.8039 35.0142 63.8631 36.3917 63.7711Z" fill="white"/>
<path d="M41.5899 50.8999L41.5806 50.8921L41.1536 50.9602C40.9867 50.9482 40.8177 50.9134 40.6529 50.9274C38.8968 51.0725 37.2375 51.5987 35.6052 52.2274C35.5981 52.2301 35.5911 52.2334 35.5844 52.2372L35.5746 52.2435C35.5681 52.2476 35.5618 52.2522 35.5558 52.257C35.5496 52.2615 35.5434 52.2667 35.5371 52.2726L35.5283 52.2809C35.5075 52.3007 35.4872 52.3225 35.4659 52.3412L35.481 52.335L35.457 52.349C35.574 52.3262 35.6931 52.3132 35.8065 52.2804C36.7175 52.0131 37.6182 51.7084 38.5391 51.4817C39.5474 51.2342 40.5723 51.0626 41.6185 51.28C41.7324 51.3039 41.8582 51.267 42.0345 51.2545L41.9576 51.189L41.6128 50.8968L41.5899 50.8999Z" fill="white"/>
<path d="M41.5947 50.8937L41.5978 50.8906L41.5947 50.8937Z" fill="white"/>
<path d="M41.5947 50.8838L41.6004 50.889L41.5947 50.8838Z" fill="white"/>
<path d="M35.481 52.3359L35.457 52.3501L35.481 52.3359Z" fill="white"/>
<path d="M41.6003 50.8887L41.5811 50.8918L41.6003 50.8887Z" fill="white"/>
<path d="M41.9551 51.1897L41.6104 50.8975L41.9551 51.1897Z" fill="white"/>
<path d="M35.4809 52.3359L35.4658 52.3423L35.4809 52.3359Z" fill="white"/>
<path d="M35.4659 52.3422L35.457 52.3501L35.481 52.3359L35.4659 52.3422Z" fill="white"/>
<path d="M41.1543 50.9598L41.5812 50.8901L41.1543 50.9598Z" fill="white"/>
<path d="M41.5911 50.8974L41.5942 50.8937L41.5974 50.8906L41.5781 50.8937L41.5875 50.9015L41.5911 50.8974Z" fill="white"/>
<path d="M41.6105 50.8975L41.6006 50.8887L41.6105 50.8975Z" fill="white"/>
<path d="M41.5971 50.8908L41.5939 50.8939L41.5908 50.8975H41.6111L41.6012 50.8887L41.5971 50.8908Z" fill="white"/>
<path d="M41.5995 50.8884L41.5938 50.8843L41.5995 50.8884Z" fill="white"/>
<path d="M41.6 50.8884L41.5938 50.8843L41.5995 50.8884H41.6Z" fill="white"/>
<path d="M41.5908 50.8977L41.5939 50.894L41.5908 50.8977Z" fill="white"/>
<path d="M85.2189 40.4774C85.3001 40.3916 85.3864 40.31 85.467 40.2237C85.5159 40.1729 85.5616 40.119 85.6037 40.0625C86.7477 38.5156 87.89 36.9664 89.0305 35.4147L89.2983 34.8037C87.9536 36.6196 86.6105 38.4368 85.2689 40.2554C85.2591 40.2691 85.25 40.2833 85.2418 40.298C85.2174 40.3428 85.1987 40.3916 85.1758 40.4374L85.2189 40.4774Z" fill="white"/>
<path d="M85.1758 40.4372C85.1987 40.3915 85.2174 40.3426 85.2418 40.2979C85.2174 40.3426 85.1987 40.3915 85.1758 40.4372Z" fill="white"/>
<path d="M85.2188 40.4774C85.2999 40.3916 85.3862 40.31 85.4668 40.2236C85.3862 40.31 85.2999 40.3916 85.2188 40.4774Z" fill="white"/>
<path d="M46.1084 59.369C46.3212 59.424 46.5432 59.4337 46.76 59.3976C47.1552 59.3456 47.5483 59.2848 47.9435 59.2328C49.4948 59.0286 51.0344 58.7647 52.5621 58.4409C50.648 58.8054 48.4962 59.1288 46.1084 59.369Z" fill="white"/>
<path d="M32.3164 59.5764L37.3084 58.9924C35.9122 58.8265 32.944 59.1832 32.3164 59.5764Z" fill="white"/>
<path d="M64.5554 46.6867C64.4737 46.5468 64.6011 46.5047 64.5892 46.4064C64.5843 46.3867 64.5773 46.3675 64.5684 46.3492L64.6458 46.265C64.885 46.3549 65.1341 46.4241 65.3608 46.5385C65.8543 46.7876 65.8496 46.7985 66.1003 46.7434C65.4763 46.1714 64.7036 46.0814 63.8799 45.8833C63.9137 46.4033 64.3931 46.5879 64.4872 47.0034C64.61 46.9311 64.4332 46.7585 64.5554 46.6867Z" fill="white"/>
<path d="M64.5564 46.6865C64.4342 46.7583 64.611 46.9309 64.4883 47.0032C64.611 46.9309 64.8689 48.559 64.9911 48.4867C64.9022 48.3349 64.688 46.751 64.5902 46.4067C64.6022 46.5045 64.4748 46.5466 64.5564 46.6865Z" fill="white"/>
<path d="M33.2118 63.0806C32.4989 62.8876 31.825 62.5528 31.1318 62.2803C32.4022 63.2839 33.8998 63.442 35.4374 63.4498C34.6949 63.3322 33.9367 63.2766 33.2118 63.0806Z" fill="white"/>
<path d="M50.7715 50.5694L50.8682 50.6427L52.3481 48.8872C51.7513 49.3766 51.2212 49.9422 50.7715 50.5694Z" fill="white"/>
<path d="M79.1288 41.4495L77.134 40.4438L77.082 40.5504L79.0861 41.553C79.1002 41.5187 79.1147 41.4844 79.1288 41.4495Z" fill="white"/>
<path d="M36.8026 60.6419V60.605H34.4434V60.6419H36.8026Z" fill="white"/>
<path d="M33.0383 60.5538C33.717 60.5538 34.2671 60.5391 34.2671 60.521C34.2671 60.5029 33.717 60.4883 33.0383 60.4883C32.3597 60.4883 31.8096 60.5029 31.8096 60.521C31.8096 60.5391 32.3597 60.5538 33.0383 60.5538Z" fill="white"/>
<path d="M85.2744 47.8843C85.2744 47.9114 85.2791 47.9363 85.2817 47.966L86.5297 47.8786V47.7393L85.2744 47.8843Z" fill="white"/>
<path d="M29.3428 59.436L28.7021 59.8832L28.7625 59.9675C29.0089 59.8645 29.2481 59.7522 29.3428 59.436Z" fill="white"/>
<path d="M55.3213 43.5603H56.1595V43.5083H55.3213V43.5603Z" fill="white"/>
<path d="M41.7549 63.3434L42.7694 63.3913C42.7694 63.358 42.7694 63.3252 42.7694 63.2925L41.7549 63.3434Z" fill="white"/>
<path d="M41.7539 63.3433L42.7689 63.3911L41.7544 63.3433H41.7539Z" fill="white"/>
<path d="M31.0977 56.3763L31.1252 56.4283C31.2566 56.3347 31.3927 56.2437 31.5334 56.1553L31.0977 56.3763Z" fill="white"/>
<path d="M32.6016 55.5628V55.5665L32.6208 55.5571L32.6016 55.5628Z" fill="white"/>
<path d="M25.9253 58.1362L25.4053 58.2028L25.5056 58.3067C25.6726 58.3816 25.7209 58.3379 25.9253 58.1362Z" fill="white"/>
<path d="M78.0565 43.7897L78.4725 43.5682L78.4398 43.4985L77.9941 43.6759C78.0155 43.7138 78.0363 43.7518 78.0565 43.7897Z" fill="white"/>
<path d="M79.2202 43.2758C79.3273 43.2327 79.4282 43.1786 79.5348 43.1292L79.4688 43.0366L78.9238 43.2966C79.022 43.3249 79.127 43.3175 79.2202 43.2758Z" fill="white"/>
<path d="M85.2199 40.4775L85.1767 40.4375L84.7773 40.9055L84.872 40.9741L85.2199 40.4775Z" fill="white"/>
<path d="M85.1767 40.4375L84.7773 40.9055L85.1767 40.4375Z" fill="white"/>
<path d="M84.8721 40.9726L85.22 40.4775L84.8721 40.9726Z" fill="white"/>
<path d="M34.9592 52.5444C34.8658 52.5457 34.7729 52.5591 34.683 52.5844L34.6648 52.5907C34.6103 52.6091 34.5602 52.6389 34.518 52.678C34.4758 52.7171 34.4424 52.7648 34.4199 52.8178L34.9592 52.5444Z" fill="white"/>
<path d="M89.5555 45.8808L89.6143 45.8116L89.2726 45.6738L89.2461 45.7336L89.5555 45.8808Z" fill="white"/>
<path d="M31.8066 63.3153L32.2143 63.3459L31.829 63.1899C31.8212 63.2321 31.8139 63.2742 31.8066 63.3153Z" fill="white"/>
<path d="M32.2671 63.3632L32.277 63.3523L32.2188 63.3481L32.2645 63.3658L32.2671 63.3632Z" fill="white"/>
<path d="M31.8281 63.1919L32.2134 63.3479H32.2186C32.0876 63.2959 31.9574 63.2439 31.8281 63.1919Z" fill="white"/>
<path d="M32.2666 63.363L32.2765 63.3521L32.2666 63.363Z" fill="white"/>
<path d="M44.9945 63.2455V63.2409L44.749 63.2227L44.9945 63.2455Z" fill="white"/>
<path d="M30.2596 51.379C28.9222 50.6427 27.6159 49.8513 26.2889 49.0962C25.3232 48.5471 24.3472 48.0157 23.3732 47.4811C21.2735 46.3288 19.1725 45.1782 17.0703 44.0294C14.0424 42.3711 11.0056 40.7279 7.99112 39.0452C6.97764 38.4789 6.01512 37.8195 5.03908 37.1888C4.67508 36.9537 4.4364 36.6168 4.38804 36.1701C4.37504 36.0521 4.34592 35.9361 4.31888 35.791C4.00688 35.8394 3.88728 35.9881 3.94448 36.2361C3.99648 36.4535 4.0308 36.6989 4.1582 36.869C4.426 37.2257 4.70576 37.597 5.05832 37.8627C6.28188 38.7768 7.49868 39.7113 8.79192 40.5199C11.0435 41.9239 13.3378 43.2681 15.6377 44.5956C18.9754 46.5227 22.367 48.3511 25.8126 50.0806C27.9352 51.1513 30.0246 52.2859 32.1347 53.3852C32.2455 53.4429 32.4108 53.4954 32.5117 53.4543C32.8071 53.3358 33.0837 53.1683 33.4274 52.9863C33.285 52.9099 33.2137 52.8693 33.1409 52.8303C32.1794 52.3509 31.2013 51.8959 30.2596 51.379Z" fill="white"/>
<path d="M26.3881 47.2452L20.1174 44.0732L20.0576 44.1913L26.3096 47.3487C26.3356 47.3154 26.3616 47.2801 26.3881 47.2452Z" fill="white"/>
<path d="M19.8088 43.9105L15.0118 41.4961L14.9629 41.5928L19.7511 44.0316L19.8088 43.9105Z" fill="white"/>
<path d="M67.9375 55.0839L67.9827 55.1401L68.0067 55.1208C68.0909 55.0491 68.1762 54.978 68.2625 54.9076L68.2178 54.853L67.9375 55.0839Z" fill="white"/>
<path d="M66.6963 56.1367L66.7436 56.1887L67.1019 55.8689L67.0541 55.8169L66.6963 56.1367Z" fill="white"/>
<path d="M67.4297 55.4995L67.4749 55.5557L67.7495 55.3352L67.7069 55.2832L67.4297 55.4995Z" fill="white"/>
<path d="M68.5371 54.5529L68.6 54.633L69.0233 54.2986L68.9635 54.2217L68.5371 54.5529Z" fill="white"/>
<path d="M71.2058 52.7725L70.2256 53.2483C66.362 55.4058 66.0381 57.334 66.0381 57.334C66.4489 56.5847 67.1873 55.8187 68.0073 55.1208L67.9834 55.1401L67.9382 55.0839L68.2184 54.853L68.2632 54.9076C68.9495 54.3524 69.6646 53.8337 70.4056 53.3538C70.2756 53.4256 70.1456 53.498 70.0156 53.5712C70.2589 53.3424 70.6708 53.0704 71.2058 52.7725ZM66.7422 56.1889L66.6948 56.1369L67.0526 55.8166L67.1004 55.8686L66.7422 56.1889ZM67.4748 55.5556L67.4296 55.4994L67.7068 55.2815L67.7494 55.3335L67.4748 55.5556ZM68.6006 54.6325L68.5377 54.5525L68.9641 54.2212L69.0239 54.2982L68.6006 54.6325Z" fill="white"/>
<path d="M71.2049 52.7725C70.6699 53.0705 70.258 53.3446 70.0146 53.5713C70.1446 53.4978 70.2746 53.4254 70.4046 53.354C71.3011 52.7694 71.9647 52.4033 71.9647 52.4033L71.2049 52.7725Z" fill="white"/>
<path d="M56.835 57.2612C56.8064 57.2742 56.7856 57.3132 56.7617 57.3465C56.7856 57.3143 56.8064 57.2742 56.835 57.2612Z" fill="white"/>
<path d="M58.8721 56.7726C58.8835 56.7695 58.8846 56.7274 58.8898 56.6978C58.8846 56.729 58.8835 56.7695 58.8721 56.7726Z" fill="white"/>
<path d="M56.7637 57.3464C57.4672 57.1566 58.1713 56.9668 58.8743 56.7744C58.1718 56.9689 57.4704 57.1582 56.7637 57.3464Z" fill="white"/>
<path d="M58.9092 56.6915C59.1437 56.7887 59.3195 56.6457 59.5176 56.5938C59.3195 56.6463 59.1442 56.7882 58.9092 56.6915Z" fill="white"/>
<path d="M55.5462 57.6621C55.4206 57.7295 55.2903 57.7877 55.1562 57.8363C55.2906 57.7876 55.4213 57.7294 55.5473 57.6621H55.5462Z" fill="white"/>
<path d="M55.5791 57.6484L55.5869 57.6583L55.5791 57.6484Z" fill="white"/>
<path d="M56.7441 57.3521L56.7509 57.3609L56.7441 57.3521Z" fill="white"/>
<path d="M55.1281 57.72C55.2654 57.6922 55.4044 57.6738 55.5441 57.6649L55.5764 57.6503C55.965 57.5522 56.3531 57.4534 56.7407 57.3539L56.7589 57.3493C56.7828 57.3175 56.8036 57.277 56.8322 57.264H56.8389L57.3537 57.1215C57.8644 56.9806 58.375 56.8423 58.8862 56.7029C58.8862 56.6977 58.8862 56.6925 58.8862 56.6884L58.9039 56.6956L59.5045 56.4944C59.5133 56.5277 59.5227 56.5609 59.5315 56.5937L59.5118 56.5984C59.3136 56.6504 59.1379 56.7934 58.9034 56.6962H58.8955L58.8846 56.6993C58.8794 56.7289 58.8784 56.771 58.8669 56.7742C58.1639 56.9686 57.4598 57.1584 56.7563 57.3461C56.7529 57.351 56.7492 57.3557 56.7453 57.3602L55.5816 57.6576L55.5426 57.6618C55.4166 57.7291 55.2859 57.7873 55.1515 57.836L55.1219 57.8438C54.2708 58.0601 53.4159 58.2589 52.5573 58.4402C62.1086 56.6202 65.7336 53.7644 63.2402 54.9989C60.247 56.4809 46.1035 59.3669 46.1035 59.3669C46.9048 59.2535 47.7067 59.1417 48.508 59.0268C50.7364 58.7095 52.9463 58.2733 55.1281 57.72ZM60.5637 56.1866C60.5715 56.2141 60.5798 56.2417 60.5882 56.2692L60.1009 56.4252L60.0734 56.3353L60.5637 56.1866Z" fill="white"/>
<path d="M58.9006 56.6943L58.8896 56.6975L58.9006 56.6943H58.9084H58.9006Z" fill="white"/>
<path d="M55.1262 57.8441L55.1558 57.8363C55.2898 57.7877 55.4202 57.7295 55.5458 57.6621C55.4061 57.671 55.2671 57.6894 55.1298 57.7172C52.9494 58.2719 50.741 58.7097 48.5139 59.0287C47.7125 59.1436 46.9107 59.2554 46.1094 59.3687C48.4977 59.1285 50.649 58.8051 52.5631 58.4405C53.4221 58.2596 54.2765 58.0608 55.1262 57.8441Z" fill="white"/>
<path d="M55.5781 57.6484L55.5459 57.663L55.5781 57.6484Z" fill="white"/>
<path d="M55.5869 57.6583L55.5791 57.6484L55.5479 57.6625L55.5869 57.6583Z" fill="white"/>
<path d="M56.7637 57.3466C57.4678 57.1563 58.1718 56.967 58.8743 56.7746C58.8858 56.7715 58.8868 56.7309 58.8905 56.6997C58.3793 56.8391 57.8687 56.9774 57.358 57.1183L56.8432 57.2608H56.8365C56.8053 57.2743 56.7845 57.3143 56.7637 57.3466Z" fill="white"/>
<path d="M58.8926 56.6851C58.8926 56.6887 58.8926 56.6929 58.8926 56.6975L58.9035 56.6944L58.8926 56.6851Z" fill="white"/>
<path d="M58.8879 56.6978C58.3767 56.8371 57.8661 56.9754 57.3555 57.1164C57.8661 56.9754 58.3767 56.8371 58.8879 56.6978Z" fill="white"/>
<path d="M58.8926 56.6851C58.8926 56.6892 58.8926 56.6944 58.8926 56.6996C58.891 56.6929 58.8915 56.6887 58.8926 56.6851Z" fill="white"/>
<path d="M56.7437 57.3519L56.7614 57.3472L56.7432 57.3519H56.7437Z" fill="white"/>
<path d="M56.7441 57.3519L56.7509 57.3607L56.7618 57.3472L56.7441 57.3519Z" fill="white"/>
<path d="M56.749 57.3607C56.7529 57.3562 56.7566 57.3516 56.7599 57.3467L56.749 57.3607Z" fill="white"/>
<path d="M56.7501 57.3609L56.7434 57.3521L55.5791 57.6484L55.5864 57.6583L56.7501 57.3609Z" fill="white"/>
<path d="M56.7434 57.3521C56.3555 57.4512 55.9674 57.55 55.5791 57.6484L56.7434 57.3521Z" fill="white"/>
<path d="M55.5869 57.6583L56.7507 57.3608L55.5869 57.6583Z" fill="white"/>
<path d="M60.588 56.2668C60.5797 56.2392 60.5714 56.2116 60.5636 56.1841L60.0732 56.3312L60.1008 56.4212L60.588 56.2668Z" fill="white"/>
<path d="M59.5171 56.5943L59.5368 56.5896C59.528 56.5568 59.5186 56.5235 59.5098 56.4902L58.9092 56.6916C59.1442 56.7884 59.3195 56.6463 59.5171 56.5943Z" fill="white"/>
<path d="M58.9082 56.6918L58.8926 56.6851L58.9009 56.6944L58.9082 56.6918Z" fill="white"/>
<path d="M59.5098 56.4902L58.9092 56.6915L59.5098 56.4902Z" fill="white"/>
<path d="M58.9083 56.6919L58.8906 56.6846L58.9083 56.6919Z" fill="white"/>
<path d="M58.8926 56.6851L58.9009 56.6944L58.8926 56.6851Z" fill="white"/>
<path d="M21.3383 54.1066C21.3248 54.0822 21.3118 54.0546 21.2988 54.0317C21.3118 54.0567 21.3248 54.0801 21.3383 54.1066Z" fill="white"/>
<path d="M21.9945 54.871C21.8083 54.7406 21.6462 54.5787 21.5156 54.3926C21.6462 54.5787 21.8083 54.7406 21.9945 54.871L22.8536 55.8512L21.9945 54.871Z" fill="white"/>
<path d="M21.5151 54.3921C21.4906 54.3583 21.4672 54.3234 21.4443 54.2881C21.4672 54.324 21.4906 54.3588 21.5151 54.3921Z" fill="white"/>
<path d="M20.7649 53.1581C20.7477 52.9224 20.7311 52.6868 20.7129 52.4351C20.7311 52.6863 20.7477 52.9224 20.7649 53.1581Z" fill="white"/>
<path d="M20.7803 53.1958L21.1739 53.7881L20.7803 53.1958Z" fill="white"/>
<path d="M20.6434 52.4683C20.5451 52.7205 20.5337 52.9503 20.7666 53.1588C20.5337 52.9493 20.5451 52.7194 20.6434 52.4683Z" fill="white"/>
<path d="M20.7803 53.1987C20.8156 53.4275 20.9103 53.6147 21.098 53.7457C20.9118 53.6167 20.8172 53.427 20.7803 53.1987Z" fill="white"/>
<path d="M21.2012 53.8237L22.0477 54.8216L21.2012 53.8237Z" fill="white"/>
<path d="M25.5018 58.3054C25.4545 58.2836 25.3978 58.2534 25.3245 58.2134L25.4015 58.2035C24.8357 57.6315 22.0511 54.811 21.267 53.8542C20.591 53.031 20.9123 52.0961 21.0938 51.7113L20.9576 51.8033C20.9815 51.7487 21.0059 51.6952 21.0319 51.6416C20.7475 51.9468 20.371 52.7996 20.4204 53.1678C20.4792 53.6108 25.5018 58.5852 25.5018 58.5852V58.3054ZM22.8524 55.851L21.9934 54.8708C21.8072 54.7404 21.6451 54.5785 21.5145 54.3924C21.4901 54.3586 21.4667 54.3238 21.4438 54.2884C21.4063 54.2291 21.3705 54.1688 21.3398 54.1064C21.3263 54.082 21.3133 54.0544 21.3003 54.0315C21.2659 53.9634 21.2337 53.8942 21.2025 53.8235L21.1864 53.8038L21.177 53.7908C21.1509 53.7769 21.1256 53.7616 21.1011 53.745C20.9134 53.6166 20.8187 53.4268 20.7834 53.198C20.7782 53.1912 20.7735 53.1839 20.7688 53.1766V53.1579C20.5359 52.9499 20.5473 52.7196 20.6456 52.4674C20.6643 52.42 20.6856 52.3722 20.709 52.3233L20.7168 52.4351C20.735 52.6868 20.7517 52.9224 20.7688 53.1579L20.7797 53.1678C20.7797 53.1782 20.7829 53.1881 20.7844 53.198L21.1781 53.7908L21.1931 53.7986C21.1963 53.8069 21.1999 53.8152 21.2035 53.8235L22.0501 54.8214L22.9512 55.7642L22.8524 55.851ZM23.7073 56.735L23.4146 56.4355L23.4302 56.4199L23.7422 56.7017C23.7297 56.7147 23.7188 56.7262 23.7073 56.7371V56.735Z" fill="white"/>
<path d="M20.7769 53.168L20.7676 53.1763L20.7769 53.168Z" fill="white"/>
<path d="M21.0946 51.7116C21.1233 51.6502 21.1553 51.5903 21.1903 51.5322C21.1287 51.5527 21.0744 51.5908 21.0343 51.6419C21.0083 51.6939 20.9823 51.7491 20.96 51.8037L21.0946 51.7116Z" fill="white"/>
<path d="M21.9951 54.8707L22.8542 55.8509L22.9493 55.764L22.0482 54.8213L21.9951 54.8707Z" fill="white"/>
<path d="M21.9938 54.8707L22.0458 54.8187L21.1992 53.8208C21.2304 53.8915 21.2627 53.9607 21.297 54.0288C21.31 54.0538 21.323 54.0808 21.3365 54.1037C21.3698 54.1661 21.4057 54.2264 21.4405 54.2857C21.4634 54.321 21.4868 54.3559 21.5112 54.3897C21.6427 54.577 21.806 54.7398 21.9938 54.8707Z" fill="white"/>
<path d="M21.1904 53.7988L21.2065 53.8186C21.1961 53.8155 21.1961 53.8071 21.1904 53.7988Z" fill="white"/>
<path d="M21.1846 53.8037L21.2007 53.8235L21.1846 53.8037Z" fill="white"/>
<path d="M21.9951 54.8708L22.0471 54.8188L21.9951 54.8708Z" fill="white"/>
<path d="M20.7643 53.1579C20.7477 52.9224 20.731 52.6862 20.7123 52.4351L20.7045 52.3232C20.6811 52.3721 20.6598 52.42 20.6411 52.4673C20.5433 52.719 20.5318 52.9489 20.7643 53.1579Z" fill="white"/>
<path d="M20.7765 53.1681L20.7656 53.1582C20.769 53.1618 20.7727 53.1651 20.7765 53.1681Z" fill="white"/>
<path d="M20.7672 53.1768L20.7765 53.1685C20.7727 53.1655 20.769 53.1622 20.7656 53.1587L20.7672 53.1768Z" fill="white"/>
<path d="M21.0996 53.7452C21.124 53.7617 21.1494 53.777 21.1755 53.7909L20.7803 53.1987C20.8172 53.427 20.9118 53.6167 21.0996 53.7452Z" fill="white"/>
<path d="M20.7666 53.1768C20.7713 53.1841 20.776 53.1914 20.7812 53.1982L20.7666 53.1768Z" fill="white"/>
<path d="M20.7666 53.1768L20.7806 53.1981C20.7806 53.1882 20.7775 53.1784 20.7765 53.168L20.7671 53.1763L20.7666 53.1768Z" fill="white"/>
<path d="M20.7801 53.1961C20.7801 53.1862 20.7764 53.1764 20.7754 53.166C20.7801 53.1785 20.7801 53.1883 20.7801 53.1961Z" fill="white"/>
<path d="M21.1758 53.791L21.1851 53.804L21.1758 53.791Z" fill="white"/>
<path d="M21.1879 53.8003L21.1729 53.7925L21.1822 53.8055L21.1879 53.8003Z" fill="white"/>
<path d="M25.5025 58.3057L25.4022 58.2017L25.3252 58.2115C25.398 58.2531 25.4552 58.2838 25.5025 58.3057Z" fill="white"/>
<path d="M23.416 56.4375L23.7088 56.737C23.7202 56.7261 23.7311 56.7146 23.7421 56.7037L23.4301 56.4219L23.416 56.4375Z" fill="white"/>
<path d="M21.9951 52.9253C22.2645 54.6143 25.7121 57.8747 25.7121 57.8747C25.7121 57.8747 26.1416 57.6817 25.5041 57.3708C24.8666 57.0598 21.9951 52.9253 21.9951 52.9253ZM23.8068 55.7156C23.708 55.6026 23.6089 55.4899 23.5094 55.3776L23.5723 55.3256C23.6697 55.44 23.7673 55.5542 23.865 55.6683L23.8068 55.7156Z" fill="white"/>
<path d="M23.5088 55.3802C23.6079 55.4925 23.7071 55.6052 23.8062 55.7182L23.8645 55.6693C23.7667 55.5549 23.6691 55.4407 23.5717 55.3267L23.5088 55.3802Z" fill="white"/>
<path d="M26.7236 63.2842C26.7949 63.1069 26.837 63.0039 26.837 63.0039C26.791 63.0938 26.753 63.1876 26.7236 63.2842Z" fill="white"/>
<path d="M25.1472 68.6921C25.4316 69.4513 26.275 64.6362 26.7228 63.2842C26.3042 64.3278 24.881 67.9823 25.1472 68.6921ZM25.2481 68.2761C25.1768 67.9121 25.5601 66.647 25.8653 66.2018C25.6989 66.9044 25.5252 67.6058 25.2481 68.2761Z" fill="white"/>
<path d="M25.2489 68.2759C25.526 67.6062 25.6997 66.9047 25.8661 66.2017C25.5604 66.6463 25.1777 67.9119 25.2489 68.2759Z" fill="white"/>
<path d="M33.2357 55.3965L32.6221 55.5577L33.2357 55.3965Z" fill="white"/>
<path d="M34.6812 54.8345C34.7983 54.7607 34.921 54.6962 35.0483 54.6416C34.9209 54.6963 34.798 54.7608 34.6807 54.8345H34.6812Z" fill="white"/>
<path d="M33.332 55.3523L34.5941 54.8594L33.332 55.3523Z" fill="white"/>
<path d="M35.0853 54.7529C34.9506 54.7831 34.8149 54.8081 34.6797 54.8346C34.8149 54.8081 34.9506 54.7831 35.0853 54.7529Z" fill="white"/>
<path d="M34.5958 54.8599C34.1357 54.9034 33.6969 55.0749 33.3291 55.3549H33.3317C33.6985 55.075 34.1365 54.9035 34.5958 54.8599Z" fill="white"/>
<path d="M33.286 55.3707L33.3282 55.3546C33.6959 55.0746 34.1347 54.9031 34.5949 54.8596L34.6354 54.8435L34.6802 54.8346C34.7975 54.7609 34.9204 54.6964 35.0478 54.6417L35.0759 54.6323C36.0241 54.3354 36.9926 54.1079 37.9738 53.9517C37.3358 53.9917 34.7946 54.5049 32.623 55.5574L33.2366 55.3962L33.286 55.3707Z" fill="white"/>
<path d="M33.2945 55.38L33.2861 55.3696L33.2945 55.38Z" fill="white"/>
<path d="M33.2864 55.3706L33.3285 55.3545L33.2864 55.3706L33.2344 55.3961L33.2864 55.3706Z" fill="white"/>
<path d="M34.6798 54.8346C34.6678 54.8414 34.6558 54.8481 34.6434 54.8544L34.5945 54.8596L33.3325 55.3525L33.2966 55.3806L33.2373 55.3962L32.6523 55.6942L32.6055 55.5662C32.2386 55.7436 31.8815 55.9407 31.5358 56.1564L31.6367 56.1044C31.6497 56.1289 31.6622 56.1564 31.6747 56.1783L31.1417 56.456L31.1276 56.4284C30.7677 56.6791 30.4364 56.9686 30.1396 57.2916C30.1396 57.2916 34.57 55.0889 37.1212 54.2881C36.4415 54.4352 35.765 54.6032 35.0859 54.7561C34.9512 54.7831 34.8155 54.8081 34.6798 54.8346Z" fill="white"/>
<path d="M34.6435 54.8542L34.6357 54.8438L34.6435 54.8542Z" fill="white"/>
<path d="M34.6797 54.835L34.6802 54.8345H34.6807H34.6802L34.6797 54.835Z" fill="white"/>
<path d="M37.9729 53.9513C36.9917 54.1076 36.0231 54.3351 35.0749 54.632L35.0468 54.6413C34.9196 54.6959 34.7968 54.7604 34.6797 54.8342C34.8149 54.8077 34.9506 54.7822 35.0853 54.7526C35.7644 54.6013 36.441 54.4333 37.1206 54.2846C37.3062 54.2259 37.4846 54.1749 37.6453 54.1328C38.1757 53.9976 38.2334 53.9347 37.9729 53.9513Z" fill="white"/>
<path d="M34.6348 54.8433L34.6426 54.8537L34.6784 54.8345L34.6348 54.8433Z" fill="white"/>
<path d="M34.6436 54.8542C34.656 54.848 34.668 54.8412 34.68 54.8345L34.6436 54.8542Z" fill="white"/>
<path d="M34.6343 54.8433L34.6785 54.835L34.6338 54.8438L34.6343 54.8433Z" fill="white"/>
<path d="M33.3301 55.3533L34.5921 54.8604C34.1337 54.9038 33.6966 55.0745 33.3301 55.3533Z" fill="white"/>
<path d="M34.6357 54.8433L34.5957 54.8594L34.6441 54.8542L34.6363 54.8438L34.6357 54.8433Z" fill="white"/>
<path d="M33.2861 55.3706L33.2945 55.381C33.3054 55.3717 33.3168 55.3633 33.3283 55.3545L33.2861 55.3706Z" fill="white"/>
<path d="M34.5957 54.8602L34.6446 54.855L34.5957 54.8602Z" fill="white"/>
<path d="M33.2939 55.3801L33.3298 55.3521H33.3272C33.3163 55.3635 33.3049 55.3718 33.2939 55.3801Z" fill="white"/>
<path d="M34.6353 54.8433L34.5947 54.8594L34.6353 54.8433Z" fill="white"/>
<path d="M31.672 56.1798C31.6596 56.1554 31.6471 56.1278 31.6341 56.106L31.5332 56.158C31.3945 56.2464 31.2585 56.3374 31.125 56.431L31.139 56.4585L31.672 56.1798Z" fill="white"/>
<path d="M33.2353 55.3965L32.6228 55.5572L32.6035 55.5665L32.6503 55.6945L33.2353 55.3965Z" fill="white"/>
<path d="M33.2373 55.3961L33.295 55.381L33.2867 55.3706L33.2373 55.3961Z" fill="white"/>
<path d="M32.6504 55.6945L33.2354 55.3965L32.6504 55.6945Z" fill="white"/>
<path d="M33.2373 55.396L33.2966 55.3804L33.2373 55.396Z" fill="white"/>
<path d="M89.9883 33.9893L90.0075 34.0069L89.9883 33.9893Z" fill="white"/>
<path d="M90.0654 33.9334L90.4242 33.4846L91.1096 32.7598L90.4237 33.4846C90.3048 33.6344 90.1854 33.784 90.0654 33.9334Z" fill="white"/>
<path d="M90.4233 33.4837L90.4082 33.4702L90.4233 33.4837Z" fill="white"/>
<path d="M89.9736 33.9765L90.0002 33.9453L89.9736 33.9765Z" fill="white"/>
<path d="M91.1092 32.7602L90.4238 33.4851L90.065 33.9338L90.0068 34.0072C89.8508 34.2432 89.6948 34.484 89.5356 34.719C89.4819 34.797 89.4273 34.8743 89.3718 34.951C89.2585 35.1059 89.145 35.2605 89.0312 35.4148C89.0312 35.4148 90.5689 33.6166 91.3489 32.6214L91.3785 32.585L91.143 32.7456L91.1092 32.7602Z" fill="white"/>
<path d="M91.4053 32.4541C91.2618 32.4946 91.2763 32.6943 91.1328 32.7349L91.1422 32.7463L91.3777 32.5856C91.4069 32.5508 91.4375 32.517 91.4693 32.4848C91.4355 32.4624 91.3954 32.4317 91.4053 32.4541Z" fill="white"/>
<path d="M89.9737 33.9763L90.0002 33.9451L90.4043 33.4667C90.5499 33.1849 90.7376 32.9467 91.0174 32.8021C91.047 32.787 91.0782 32.773 91.1099 32.76L91.1338 32.735C91.2774 32.6945 91.2628 32.4948 91.4063 32.4542C91.3954 32.4319 91.4365 32.4626 91.4703 32.4849C92.307 31.6347 94.0068 31.7049 94.0068 31.7049C94.0068 31.7049 93.4733 31.5416 92.3324 31.7049C91.1916 31.8682 89.3393 34.7126 89.3393 34.7126L89.2998 34.8026L89.631 34.3554C89.7324 34.2202 89.8588 34.1027 89.9737 33.9763Z" fill="white"/>
<path d="M89.3718 34.9506C89.4277 34.8739 89.4823 34.7966 89.5356 34.7186C89.6963 34.4836 89.8477 34.2428 90.0068 34.0068L89.9875 33.9891L89.973 33.9761C89.8581 34.1024 89.7312 34.22 89.6303 34.3562L89.2991 34.8034L89.0312 35.4144C89.1446 35.2601 89.2581 35.1055 89.3718 34.9506Z" fill="white"/>
<path d="M89.3721 34.9507C89.4279 34.8741 89.4825 34.7967 89.5359 34.7188C89.4825 34.7967 89.4279 34.8741 89.3721 34.9507Z" fill="white"/>
<path d="M90.0063 34.0078C89.8503 34.2439 89.6943 34.4847 89.5352 34.7197C89.6958 34.4847 89.8472 34.2439 90.0063 34.0078Z" fill="white"/>
<path d="M90.4085 33.4701L90.4235 33.4836L91.1099 32.7598C91.0782 32.7728 91.047 32.7868 91.0174 32.8019C90.7376 32.9459 90.5494 33.1846 90.4043 33.4665H90.4074L90.4085 33.4701Z" fill="white"/>
<path d="M91.0174 32.8022C90.7376 32.9463 90.5494 33.185 90.4043 33.4668C90.5499 33.185 90.7376 32.9463 91.0174 32.8022Z" fill="white"/>
<path d="M91.1094 32.7598L91.1426 32.7463L91.1333 32.7349L91.1094 32.7598Z" fill="white"/>
<path d="M91.1362 32.7349L91.1123 32.7598L91.1362 32.7349Z" fill="white"/>
<path d="M90.0651 33.9335C90.1847 33.7837 90.3041 33.6341 90.4234 33.4847L90.4083 33.4712H90.4052L90.0011 33.9496L89.9746 33.9808L89.9892 33.9938L90.0084 34.0115L90.0651 33.9335Z" fill="white"/>
<path d="M90.4031 33.4668L89.999 33.9452L90.4031 33.4668Z" fill="white"/>
<path d="M90.0068 34.0079L90.0651 33.9346L90.0068 34.0079Z" fill="white"/>
<path d="M89.9736 33.9761L89.9882 33.9891L89.9736 33.9761Z" fill="white"/>
<defs>
<radialGradient id="paint0_radial_463_24116" cx="0" cy="0" r="1" gradientUnits="userSpaceOnUse" gradientTransform="translate(32.3172 63.3735) rotate(-160.389) scale(0.0930601 0.222228)">
<stop stop-color="#8F8AD2"/>
<stop offset="1" stop-color="#4267B2"/>
</radialGradient>
<radialGradient id="paint1_radial_463_24116" cx="0" cy="0" r="1" gradientUnits="userSpaceOnUse" gradientTransform="translate(91.4991 32.5656) rotate(-139.611) scale(0.137523 0.512656)">
<stop stop-color="#8F8AD2"/>
<stop offset="1" stop-color="#4267B2"/>
</radialGradient>
<radialGradient id="paint2_radial_463_24116" cx="0" cy="0" r="1" gradientUnits="userSpaceOnUse" gradientTransform="translate(41.601 50.8884) rotate(-136.887) scale(0.00739074 0.0278514)">
<stop stop-color="#8F8AD2"/>
<stop offset="1" stop-color="#4267B2"/>
</radialGradient>
<radialGradient id="paint3_radial_463_24116" cx="0" cy="0" r="1" gradientUnits="userSpaceOnUse" gradientTransform="translate(102.147 65.778) rotate(-150.205) scale(81.6571 265.96)">
<stop stop-color="#8F8AD2"/>
<stop offset="1" stop-color="#4267B2"/>
</radialGradient>
<radialGradient id="paint4_radial_463_24116" cx="0" cy="0" r="1" gradientUnits="userSpaceOnUse" gradientTransform="translate(43.214 50.7983) rotate(-152.45) scale(39.3549 121.898)">
<stop stop-color="#8F8AD2"/>
<stop offset="1" stop-color="#4267B2"/>
</radialGradient>
<radialGradient id="paint5_radial_463_24116" cx="0" cy="0" r="1" gradientUnits="userSpaceOnUse" gradientTransform="translate(34.9478 52.5555) rotate(-150.12) scale(0.00829917 0.0270779)">
<stop stop-color="#8F8AD2"/>
<stop offset="1" stop-color="#4267B2"/>
</radialGradient>
<radialGradient id="paint6_radial_463_24116" cx="0" cy="0" r="1" gradientUnits="userSpaceOnUse" gradientTransform="translate(35.4659 52.3485) rotate(-137.982) scale(0.0102896 0.0386496)">
<stop stop-color="#8F8AD2"/>
<stop offset="1" stop-color="#4267B2"/>
</radialGradient>
<radialGradient id="paint7_radial_463_24116" cx="0" cy="0" r="1" gradientUnits="userSpaceOnUse" gradientTransform="translate(34.9602 52.5502) rotate(-148.449) scale(0.0121323 0.0408624)">
<stop stop-color="#8F8AD2"/>
<stop offset="1" stop-color="#4267B2"/>
</radialGradient>
<radialGradient id="paint8_radial_463_24116" cx="0" cy="0" r="1" gradientUnits="userSpaceOnUse" gradientTransform="translate(43.2202 48.6326) rotate(-133.408) scale(0.0189708 0.0715345)">
<stop stop-color="#8F8AD2"/>
<stop offset="1" stop-color="#4267B2"/>
</radialGradient>
<radialGradient id="paint9_radial_463_24116" cx="0" cy="0" r="1" gradientUnits="userSpaceOnUse" gradientTransform="translate(43.2142 48.6337) rotate(-138.032) scale(0.0151118 0.0567521)">
<stop stop-color="#8F8AD2"/>
<stop offset="1" stop-color="#4267B2"/>
</radialGradient>
<radialGradient id="paint10_radial_463_24116" cx="0" cy="0" r="1" gradientUnits="userSpaceOnUse" gradientTransform="translate(28.594 56.85) rotate(-130.218) scale(1.06595 3.96972)">
<stop stop-color="#8F8AD2"/>
<stop offset="1" stop-color="#4267B2"/>
</radialGradient>
<radialGradient id="paint11_radial_463_24116" cx="0" cy="0" r="1" gradientUnits="userSpaceOnUse" gradientTransform="translate(29.1186 55.9268) rotate(-141.498) scale(0.503203 1.85172)">
<stop stop-color="#8F8AD2"/>
<stop offset="1" stop-color="#4267B2"/>
</radialGradient>
<radialGradient id="paint12_radial_463_24116" cx="0" cy="0" r="1" gradientUnits="userSpaceOnUse" gradientTransform="translate(29.118 55.9035) rotate(-125.486) scale(0.35313 1.26076)">
<stop stop-color="#8F8AD2"/>
<stop offset="1" stop-color="#4267B2"/>
</radialGradient>
</defs>
</svg>
