<svg width="105" height="104" viewBox="0 0 105 104" fill="none" xmlns="http://www.w3.org/2000/svg">
<path d="M68.7621 43.1948V42.9795L71.2373 42.8412L78.0015 43.4407H80.0295V43.5967L83.5961 44.058L83.4729 44.396L80.0144 44.812L80.0908 55.9114L76.1783 57.7558L53.2276 60.1411L59.6756 60.5898L94.4272 59.8291L95.2114 59.0678L98.5087 50.8814L99.6158 49.3136L100.307 48.8061H100.677L97.7479 59.4599L96.9409 60.244L93.9967 60.751L54.9488 61.8799L44.111 61.5159C44.111 61.5159 38.5075 62.4109 28.0383 66.262C28.0383 66.262 23.4722 68.0144 14.9629 67.51C6.45362 67.0056 7.51494 64.5621 7.51494 64.5621C7.51494 64.5621 12.9339 58.7449 24.2792 56.7735C24.2792 56.7735 8.65426 49.2211 4.90246 43.9176C4.90246 43.9176 3.80214 42.4876 4.63206 41.9114C4.63206 41.9114 5.92374 36.9995 7.26118 36.3994C7.49193 36.6355 7.63094 36.9462 7.65326 37.2756C7.67614 37.806 6.31582 42.1636 6.31582 42.1636C6.31582 42.1636 17.9394 51.0759 31.1749 56.1433C31.1749 56.1433 35.8549 55.8687 39.0914 56.4553C41.0382 56.814 43.0085 57.0304 44.9867 57.1027L49.6495 57.2556C50.7273 57.2902 51.8052 57.2807 52.8834 57.227L69.1916 56.3997C69.1916 56.3997 70.033 56.3716 70.3595 55.6472L72.4208 44.2519L68.7621 43.1948Z" fill="url(#paint0_radial_463_24685)"/>
<path d="M29.3757 65.502C14.7788 69.0761 8.14355 65.6861 8.14355 65.6861L8.28187 65.1177C8.28187 65.1177 11.287 66.6975 17.4001 66.7817C19.2477 66.8033 21.0942 66.6816 22.923 66.4177C25.1647 66.1042 29.1765 65.5347 29.3757 65.502Z" fill="white"/>
<path d="M8.75644 64.8767C10.3006 63.9019 12.0101 63.2179 13.8004 62.8586C13.9429 62.83 13.8826 62.6126 13.7406 62.6407C11.9305 63.0049 10.2021 63.6965 8.64048 64.6817C8.51828 64.7592 8.63112 64.9547 8.75436 64.8767H8.75644Z" fill="white"/>
<path d="M12.6963 61.3002C12.2205 61.529 10.4187 62.4661 8.23993 64.4869C8.23278 64.494 8.22843 64.5034 8.22766 64.5135C8.22689 64.5235 8.22976 64.5335 8.23574 64.5417C8.24173 64.5498 8.25042 64.5555 8.26026 64.5578C8.27009 64.56 8.28041 64.5587 8.28933 64.5539C9.20089 63.9949 11.66 62.5732 13.4316 62.3475C13.4612 62.3443 13.4892 62.3327 13.5124 62.3142C13.5355 62.2956 13.5529 62.2708 13.5625 62.2426C13.572 62.2145 13.5734 62.1842 13.5663 62.1554C13.5593 62.1265 13.5441 62.1003 13.5226 62.0797C13.2938 61.854 13.083 61.6105 12.8924 61.3517C12.8712 61.3212 12.8398 61.2992 12.8039 61.2898C12.7679 61.2803 12.7298 61.284 12.6963 61.3002Z" fill="white"/>
<path d="M13.3571 61.0251C17.0361 58.838 21.4197 57.7112 25.6161 57.1075C26.5542 56.9723 27.4963 56.8668 28.4423 56.7908C28.91 56.7527 29.378 56.7213 29.8463 56.6967C30.0543 56.6858 30.3226 56.6218 30.5275 56.666C30.9929 56.7654 30.9841 57.106 30.827 57.4356C30.2852 58.5723 29.1968 59.6601 28.1308 60.3049C27.0269 60.9731 25.6775 61.348 24.429 61.6138C22.9974 61.9179 21.5601 62.1956 20.1228 62.4702C19.3179 62.6262 18.5249 62.7583 17.7043 62.8108C16.9202 62.8628 16.085 62.8841 15.3217 62.6698C14.8661 62.537 14.4397 62.3193 14.0648 62.0282C13.9005 61.9029 13.0576 61.2856 13.3805 61.0074C13.4902 60.9123 13.3285 60.7532 13.2204 60.8478C12.7451 61.2581 13.4185 61.7838 13.7305 62.049C14.3134 62.5543 15.0286 62.8825 15.7918 62.9948C16.9332 63.1581 18.1458 63.0541 19.2794 62.8591C20.3886 62.6688 21.493 62.4374 22.5965 62.218C24.3016 61.8784 25.9973 61.5488 27.5885 60.8244C28.7387 60.3013 29.7408 59.4074 30.4958 58.3997C30.7558 58.0555 31.202 57.4918 31.1718 57.0295C31.1198 56.1642 29.8744 56.4664 29.3409 56.5002C25.7643 56.7248 22.1976 57.3321 18.7849 58.4356C16.8765 59.0507 14.9702 59.8026 13.2417 60.8275C13.1179 60.9045 13.2318 61.1 13.3571 61.0251Z" fill="white"/>
<path d="M19.9054 65.2264C22.3869 64.7033 24.8428 63.9945 27.2374 63.1661C27.3736 63.1193 27.3154 62.9009 27.1776 62.9487C24.782 63.7766 22.326 64.4859 19.8456 65.0085C19.7037 65.0387 19.764 65.2561 19.9059 65.2264H19.9054Z" fill="white"/>
<path d="M16.2656 62.1458C17.5042 61.1302 19.0252 60.3809 20.5295 59.8609C20.6663 59.8136 20.6075 59.5952 20.4697 59.643C18.9254 60.1776 17.3789 60.943 16.1075 61.9861C15.9952 62.0782 16.1558 62.2368 16.2671 62.1458H16.2656Z" fill="white"/>
<path d="M21.2655 59.5456C23.8608 58.6616 26.5845 58.0668 29.2906 57.655C29.4336 57.6331 29.3727 57.4152 29.2303 57.4371C26.5263 57.8489 23.8004 58.4432 21.2057 59.3277C21.0689 59.3745 21.1277 59.5929 21.2655 59.5456Z" fill="white"/>
<path d="M28.6178 58.3347C28.3578 58.7154 28.0214 59.1418 27.6075 59.3586C27.2695 59.5354 26.8795 59.6373 26.5181 59.7517C25.8535 59.9628 25.1838 60.1573 24.5114 60.343C24.3715 60.3815 24.4308 60.5993 24.5717 60.5603C25.3356 60.3523 26.0979 60.1298 26.8509 59.8843C27.2055 59.7678 27.5913 59.6618 27.8997 59.4444C28.2637 59.1875 28.5643 58.8204 28.8128 58.4512C28.8945 58.3306 28.6989 58.2172 28.6178 58.3373V58.3347Z" fill="white"/>
<path d="M15.6157 61.8651C15.2239 61.7398 14.8804 61.4964 14.6324 61.1683C14.6143 61.1449 14.6016 61.1179 14.595 61.0891C14.5884 61.0603 14.5881 61.0304 14.5942 61.0015C14.6003 60.9725 14.6126 60.9453 14.6302 60.9216C14.6478 60.8979 14.6704 60.8782 14.6963 60.8641C15.3203 60.5256 17.3442 59.4668 18.9359 59.0388C19.0633 59.0042 19.1986 59.0141 19.3196 59.0669L19.9223 59.3321C19.9428 59.3413 19.9603 59.3562 19.9725 59.3751C19.9847 59.394 19.9913 59.416 19.9913 59.4385C19.9913 59.461 19.9847 59.483 19.9725 59.5018C19.9603 59.5207 19.9428 59.5356 19.9223 59.5448C19.2203 59.8615 17.1362 60.8371 15.792 61.8329C15.7671 61.8516 15.7382 61.8642 15.7076 61.8698C15.677 61.8754 15.6456 61.8738 15.6157 61.8651Z" fill="white"/>
<path d="M20.7522 59.2188C20.4584 59.1116 20.1506 58.9837 19.9426 58.8943C19.9242 58.8862 19.9088 58.8727 19.8985 58.8555C19.8882 58.8383 19.8835 58.8183 19.8851 58.7983C19.8866 58.7783 19.8943 58.7593 19.9071 58.7439C19.9199 58.7285 19.9372 58.7174 19.9566 58.7123C21.2888 58.3587 27.3193 56.8163 30.6831 56.9391C30.6831 56.9391 30.5271 56.9463 30.3332 56.9614C30.0161 56.9885 29.7037 57.0556 29.4034 57.1611C29.203 57.222 28.9969 57.262 28.7883 57.2807C28.0467 57.367 24.4619 58.1028 20.8136 59.2198C20.7935 59.226 20.772 59.2256 20.7522 59.2188Z" fill="white"/>
<path d="M29.6202 56.056C26.4836 56.056 24.375 56.6212 24.375 56.6212L24.544 56.7715C26.6116 56.4472 28.6942 56.2278 30.784 56.1142L29.366 55.5146L29.6925 55.8984C29.7043 55.9123 29.7119 55.9292 29.7143 55.9473C29.7168 55.9653 29.7141 55.9836 29.7065 56.0002C29.6989 56.0167 29.6868 56.0308 29.6715 56.0406C29.6562 56.0505 29.6384 56.0558 29.6202 56.056Z" fill="white"/>
<path d="M11.8877 48.5634C13.636 49.9674 15.6416 51.1052 17.5781 52.2201C18.9249 52.9954 20.2894 53.7385 21.6648 54.4613C21.7932 54.5289 21.9076 54.3339 21.7787 54.2663C18.5916 52.5913 15.3827 50.8415 12.4649 48.7173C12.3245 48.6133 12.1831 48.5125 12.0489 48.4053C11.9366 48.3149 11.7759 48.474 11.8893 48.565L11.8877 48.5634Z" fill="white"/>
<path d="M6.94836 36.8927C6.52353 37.5796 5.32857 39.6393 4.93077 41.6533C4.87148 41.951 4.90543 42.2597 5.02801 42.5373C5.28801 43.1291 5.92605 44.1129 7.39972 44.6324C7.41907 44.6396 7.44039 44.6393 7.45959 44.6318C7.47878 44.6242 7.4945 44.6098 7.50372 44.5913C7.51277 44.574 7.51533 44.554 7.51095 44.5349C7.50656 44.5158 7.49552 44.499 7.4798 44.4873C7.1678 44.2486 5.60781 43.0131 5.80489 42.0953C5.80489 42.0953 6.10337 39.3798 7.24632 37.0565C7.25826 37.0321 7.26412 37.0051 7.2634 36.978C7.26267 36.9508 7.25539 36.9242 7.24216 36.9005C7.228 36.8742 7.20716 36.8522 7.18177 36.8366C7.15638 36.821 7.12732 36.8124 7.09752 36.8116C7.06773 36.8108 7.03825 36.8179 7.01206 36.8321C6.98587 36.8463 6.9639 36.8672 6.94836 36.8927Z" fill="white"/>
<path d="M31.454 56.4094L31.5954 56.5888C31.64 56.6458 31.697 56.6917 31.762 56.7233C31.8271 56.7548 31.8985 56.7711 31.9708 56.7708C32.9068 56.7662 36.5801 56.8088 40.6267 57.6471C40.6445 57.6508 40.6629 57.6484 40.6791 57.6402C40.6953 57.6321 40.7083 57.6188 40.716 57.6024C40.7237 57.586 40.7257 57.5675 40.7215 57.5498C40.7174 57.5322 40.7075 57.5164 40.6933 57.5051L40.5258 57.373C40.5258 57.373 36.8645 56.2732 31.5132 56.2882C31.4992 56.2884 31.4855 56.2924 31.4737 56.2998C31.4618 56.3073 31.4523 56.3179 31.4461 56.3305C31.44 56.3431 31.4375 56.3571 31.4388 56.3711C31.4402 56.385 31.4455 56.3983 31.454 56.4094Z" fill="white"/>
<path d="M40.2281 57.6412C42.5681 57.8061 44.9081 57.9756 47.2528 58.1363C48.6568 58.2325 50.0805 58.0931 51.4845 58.0203L56.9867 57.7348C60.5757 57.5487 64.1637 57.3634 67.7507 57.1789C68.227 57.1545 68.7252 57.167 69.1963 57.0931C70.1198 56.9481 70.7677 56.2247 70.9555 55.3329C71.1338 54.4869 71.2675 53.6284 71.4235 52.7777L72.9065 44.6454L72.9393 44.4665C72.9783 44.2533 72.6517 44.1618 72.6127 44.376L71.333 51.3867L70.6882 54.9227C70.6029 55.3907 70.5041 55.8389 70.1682 56.2065C69.6399 56.7889 68.9295 56.7785 68.2145 56.816C64.8342 56.9893 61.4542 57.1637 58.0745 57.3391L52.4351 57.6319C51.0238 57.7047 49.6 57.8367 48.1862 57.8336C46.9974 57.8305 45.8004 57.6948 44.6158 57.6111L40.4792 57.3199L40.2281 57.3043C40.0107 57.2887 40.0117 57.6277 40.2281 57.6428V57.6412Z" fill="white"/>
<path d="M30.3447 65.1176C30.3447 65.1176 39.5227 62.0886 41.9927 61.6279L30.3447 65.1176Z" fill="white"/>
<path d="M30.375 65.2266C33.4258 64.2198 36.4886 63.2339 39.5789 62.3561C40.3849 62.1273 41.1956 61.8933 42.0198 61.7368C42.1623 61.7098 42.102 61.4919 41.9595 61.5189C40.258 61.8424 38.5868 62.3998 36.9327 62.9047C35.1106 63.4594 33.2941 64.0335 31.4831 64.627C31.0931 64.7535 30.7036 64.8808 30.3146 65.0087C30.1768 65.0539 30.2361 65.2723 30.3744 65.2266H30.375Z" fill="white"/>
<path d="M31.4402 59.8747C31.4402 59.8747 31.423 58.6142 33.8363 58.322C35.9969 58.062 39.0935 58.9896 39.7191 59.1878C39.793 59.211 39.8609 59.25 39.9182 59.3022C40.0131 59.3888 40.1361 59.4385 40.2646 59.442C41.4839 59.4748 47.9533 59.6641 49.5938 59.9979C51.0899 60.3021 52.6275 60.0416 53.121 59.9412C53.1409 59.9372 53.1597 59.9287 53.176 59.9166C53.1923 59.9044 53.2057 59.8889 53.2153 59.8709C53.2248 59.853 53.2304 59.8332 53.2314 59.8129C53.2325 59.7926 53.229 59.7723 53.2214 59.7535C53.2089 59.7239 53.1865 59.6996 53.158 59.6847C53.1296 59.6698 53.0968 59.6652 53.0654 59.6719C52.6592 59.7655 51.2105 60.0468 49.6729 59.7239C47.8591 59.3391 44.0158 59.2112 44.0158 59.2112C44.0158 59.2112 40.9717 59.232 40.249 59.0474C39.5262 58.8628 36.3136 57.621 33.5004 58.0802C30.6872 58.5393 31.4402 59.8747 31.4402 59.8747Z" fill="white"/>
<path d="M36.0747 58.76C35.1885 58.6307 34.2844 58.7067 33.4321 58.982C33.4079 58.9902 33.3859 59.0039 33.368 59.0222C33.3501 59.0404 33.3367 59.0626 33.3289 59.0869C33.3212 59.1113 33.3193 59.1371 33.3234 59.1623C33.3275 59.1876 33.3375 59.2115 33.3525 59.2321C33.3757 59.2644 33.4099 59.287 33.4487 59.2956L36.263 59.9352C36.2628 59.8973 36.2526 59.8601 36.2334 59.8274C36.2143 59.7947 36.1868 59.7677 36.1538 59.749C36.0139 59.6689 35.7898 59.5109 35.771 59.3179C35.7544 59.1099 35.9744 59.0122 36.0934 58.9732C36.1152 58.9659 36.1341 58.9519 36.1474 58.9332C36.1608 58.9145 36.1679 58.8921 36.1678 58.8692C36.1681 58.8428 36.1588 58.8172 36.1417 58.7971C36.1246 58.7771 36.1008 58.7639 36.0747 58.76Z" fill="white"/>
<path d="M31.7861 59.5518L34.8453 60.1352C35.668 60.2918 36.5017 60.3837 37.3387 60.4103L39.8248 60.4893C40.4762 60.5101 41.1258 60.5679 41.7706 60.6625L45.991 61.2813L42.1861 61.0509L36.8535 60.5673C36.339 60.5209 35.8275 60.4452 35.3216 60.3406L34.9925 60.2725C34.1933 60.1077 33.3841 59.9953 32.5703 59.936L31.7861 59.5518Z" fill="white"/>
<path d="M48.1926 60.68C49.4266 60.8131 50.66 60.9613 51.8966 61.0757C53.5486 61.2281 55.2115 61.2515 56.8688 61.3055C58.7787 61.3669 60.6799 61.3659 62.5888 61.3139L70.7314 61.0913L80.3764 60.8276L83.9342 60.7309C84.5062 60.7148 85.1437 60.773 85.7126 60.682C85.7403 60.6802 85.7681 60.6802 85.7958 60.682C85.9409 60.6779 85.9414 60.4522 85.7958 60.4563L81.4023 60.576L71.9805 60.8334L63.3386 61.0695C61.5378 61.1215 59.7444 61.1735 57.9421 61.1163C56.692 61.0757 55.4419 61.0353 54.1918 60.9951C52.3687 60.9332 50.5596 60.7122 48.7474 60.5161L48.1926 60.4563C48.0486 60.4407 48.0496 60.6644 48.1926 60.682V60.68Z" fill="white"/>
<path d="M73.4963 45.5942L71.6398 54.9261L71.3746 56.2583C71.3465 56.4003 71.5639 56.4611 71.5925 56.3181L73.449 46.9862L73.7163 45.6561C73.7444 45.5141 73.527 45.4533 73.4984 45.5963L73.4963 45.5942Z" fill="white"/>
<path d="M56.8403 59.2959L63.2278 58.5581C63.3702 58.5414 63.3718 58.3158 63.2278 58.3324L56.8403 59.0718C56.6973 59.0879 56.6957 59.3141 56.8403 59.2975V59.2959Z" fill="white"/>
<path d="M100.493 48.9136C99.8865 49.4652 99.3635 50.1019 98.9401 50.8038C98.2641 51.9415 97.6484 53.7558 97.6484 53.7558L95.7764 58.8518C95.6863 59.0876 95.6836 59.3479 95.7686 59.5856C95.8264 59.7379 95.9246 59.882 96.0806 59.9371C96.4805 60.0759 97.2335 59.2184 97.495 58.571C97.7566 57.9236 98.0868 56.5243 98.0868 56.5243C98.0868 56.5243 98.079 58.2616 97.5257 59.3224L97.508 59.3578C97.3939 59.5763 97.2355 59.7688 97.0431 59.9229C96.8506 60.0771 96.6283 60.1896 96.39 60.2532C95.8976 60.3869 95.0802 60.546 93.998 60.5366C93.998 60.5366 94.1468 60.4326 94.362 60.2574C94.9931 59.7315 95.4747 59.0487 95.7582 58.2778L96.9906 54.9409C96.9906 54.9409 97.8362 52.7735 98.5283 51.2052C99.2204 49.6369 100.493 48.9136 100.493 48.9136Z" fill="white"/>
<path d="M98.7473 52.7886L97.6553 56.5398C97.6514 56.5543 97.6533 56.5696 97.6607 56.5826C97.6682 56.5956 97.6804 56.6051 97.6948 56.609C97.7092 56.6129 97.7246 56.611 97.7376 56.6036C97.7506 56.5962 97.7601 56.5839 97.764 56.5695L98.856 52.8187C98.8583 52.8049 98.8555 52.7906 98.848 52.7788C98.8404 52.7669 98.8288 52.7583 98.8153 52.7545C98.8017 52.7507 98.7873 52.7522 98.7747 52.7584C98.7622 52.7647 98.7524 52.7755 98.7473 52.7886Z" fill="white"/>
<path d="M79.9236 45.6235L77.8945 56.139L79.9236 55.4011V45.6235Z" fill="white"/>
<path d="M69.3311 43.1187H69.6691L72.7896 43.9793L80.3228 44.3329L82.6904 44.0562L83.3669 44.1483L80.1689 44.6865L72.6825 44.0713L69.3311 43.1187Z" fill="white"/>
<defs>
<radialGradient id="paint0_radial_463_24685" cx="0" cy="0" r="1" gradientUnits="userSpaceOnUse" gradientTransform="translate(100.677 61.3608) rotate(-161.692) scale(87.7411 197.641)">
<stop stop-color="#8F8AD2"/>
<stop offset="1" stop-color="#4267B2"/>
</radialGradient>
</defs>
</svg>
