<svg width="105" height="104" viewBox="0 0 105 104" fill="none" xmlns="http://www.w3.org/2000/svg">
<path d="M77.3416 44.7964C78.6234 44.9404 79.7856 45.3559 80.7918 46.2576C80.3046 46.8093 79.6015 46.7058 79.0384 47.0111C80.0513 47.9055 80.6067 49.0724 81.1184 50.2663C81.2962 50.6823 81.6748 50.7811 82.0627 50.832C82.5458 50.8955 82.9909 50.7103 83.4417 50.572C83.6315 50.5138 83.8276 50.4774 84.021 50.4306L84.0148 50.4212C83.4428 50.7702 82.8188 50.9168 82.1584 50.9511C81.958 50.9542 81.7589 50.9843 81.5666 51.0405C78.111 52.2081 74.6575 53.3814 71.2061 54.5604C70.7324 54.7227 70.4396 55.1085 70.2608 55.5562C70.214 55.6737 70.2987 55.8849 70.3892 56.0019C70.4474 56.0773 70.6284 56.0866 70.7532 56.0773C70.8655 56.0684 70.9721 55.9946 71.0818 55.9504C77.2574 53.4734 83.4331 50.997 89.6089 48.5212C89.7914 48.4478 89.9797 48.3875 90.1648 48.321C88.8128 49.1041 87.4566 49.8607 86.0958 50.6089C85.0147 51.2017 83.9253 51.7795 82.8442 52.3717C82.5806 52.5158 82.3341 52.69 82.0793 52.8507L81.5812 53.0862L81.6259 53.1715L82.1095 52.8834C82.9794 52.4783 83.8588 52.092 84.7173 51.663C85.9861 51.0289 87.246 50.3777 88.4972 49.7094C89.7764 49.0219 91.0379 48.3017 92.303 47.5893C92.4653 47.4983 92.6046 47.3678 92.7544 47.2555C92.2739 47.3595 91.8392 47.5363 91.3967 47.6876C89.2413 48.4255 87.0651 49.1072 85.0007 50.0941C84.8551 50.1638 84.683 50.1789 84.5228 50.2195L84.5311 50.2299C84.5602 50.1945 84.5831 50.1425 84.6206 50.1259C86.9221 49.1093 89.2049 48.0459 91.6198 47.3122C92.056 47.1796 92.4949 47.0558 92.9338 46.9331C93.0258 46.9076 93.1246 46.9055 93.2796 46.9716C93.1371 47.1187 93.0134 47.2934 92.848 47.4078C92.3207 47.7718 91.7997 48.1577 91.236 48.4629C89.7524 49.2694 88.2481 50.0385 86.751 50.8211C86.5882 50.9064 86.4198 50.9823 86.2159 51.0811C86.2967 51.135 86.3807 51.1838 86.4676 51.2272C89.7124 52.5258 92.9581 53.8217 96.2046 55.1147C96.5769 55.2629 96.8941 55.4673 97.1463 55.7741C97.4677 56.1662 97.7922 56.5541 98.1036 56.9561C98.9232 58.0101 99.7422 59.0657 100.548 60.1281C100.843 60.517 101.108 60.9294 101.383 61.3339C101.539 61.5617 101.472 61.7666 101.262 61.9023C101.022 62.0583 100.772 62.2143 100.503 62.2985C99.3761 62.6521 98.2414 62.9813 97.1073 63.3125C96.6695 63.4405 96.2296 63.5642 95.7844 63.6594C95.6073 63.6999 95.4224 63.6904 95.2504 63.6318C92.3731 62.5003 89.5001 61.3611 86.6314 60.2144C85.9731 59.9544 85.322 59.672 84.5472 59.3501C84.6762 59.5956 84.7485 59.7537 84.8384 59.9013C86.1962 62.1217 87.569 64.3338 88.9126 66.563C89.9594 68.2998 90.9479 70.0725 92.0077 71.8015C92.6213 72.803 92.9031 73.9117 93.1116 75.0255C93.3202 76.1393 93.3654 77.3036 93.4658 78.4461C93.5146 79.0004 93.5245 79.5578 93.5573 80.1137C93.5765 80.4382 93.446 80.6337 93.1413 80.7835C91.928 81.379 90.7226 81.9902 89.5252 82.617C89.1799 82.7979 88.9012 82.7933 88.5419 82.617C78.2563 77.6323 67.9648 72.6533 57.6674 67.68C56.2993 67.018 54.9275 66.3634 53.5677 65.6837C53.2111 65.4944 52.7942 65.4535 52.4076 65.5698C48.5404 66.6031 44.6643 67.6025 40.8022 68.6534C40.1158 68.8406 39.5449 68.8016 38.8886 68.5162C36.3802 67.4242 33.8446 66.3977 31.3164 65.3442C31.1334 65.2677 30.9524 65.1819 30.7033 65.0691L31.6206 64.0811L31.58 64.0057C31.4282 64.0577 31.2743 64.1024 31.125 64.1586C29.8453 64.6416 28.5828 65.1772 27.2828 65.5979C25.7139 66.106 24.1144 66.5178 22.5268 66.9681C20.9258 67.4226 19.2748 67.5802 17.631 67.7804C16.1381 67.9624 14.6483 68.1683 13.1533 68.3326C11.8268 68.4777 10.4956 68.5869 9.16544 68.6966C8.54144 68.7486 7.91744 68.7699 7.29344 68.8006C6.20144 68.8573 5.1422 68.6051 4.06944 68.4808C3.5796 68.4241 3.3846 68.0648 3.6394 67.6384C3.97226 67.0719 4.35604 66.5368 4.786 66.0399C5.71108 64.9926 6.84416 64.1892 8.02248 63.4508C8.08292 63.4234 8.14675 63.4042 8.21228 63.3936C8.10204 63.4904 7.997 63.5933 7.88104 63.6823C7.18424 64.2147 6.4396 64.6947 5.80104 65.2885C5.1864 65.8605 4.66796 66.5365 4.13236 67.185C3.97636 67.3763 3.79644 67.6056 3.88432 67.9332C7.9554 64.1534 12.7607 61.7453 18.0039 59.9897C17.9207 59.3226 18.3492 58.8161 18.6799 58.2581C18.2561 58.4266 17.8661 58.6221 17.4787 58.8208C16.2484 59.4531 15.0435 60.1411 13.7867 60.7079C11.9844 61.5196 10.1987 62.3604 8.47436 63.325C8.3922 63.3713 8.29028 63.3827 8.19772 63.4108C8.32616 63.311 8.44316 63.1888 8.58512 63.1144C9.93158 62.4103 11.2808 61.7115 12.6328 61.0178C14.4226 60.1047 16.2153 59.1971 18.0106 58.2951C18.1761 58.2112 18.3457 58.1357 18.5187 58.0689C19.5316 57.6804 20.4645 57.1427 21.387 56.578C21.8896 56.2657 22.4191 55.999 22.9694 55.7814C23.858 55.4387 24.2049 54.7611 24.2049 53.887C24.1957 53.1108 24.1458 52.3357 24.0556 51.5647C23.9844 50.8918 23.975 50.8539 24.6058 50.5632C25.066 50.3515 25.5246 50.1321 25.9968 49.9501C28.1116 49.1342 30.1448 48.141 32.1796 47.1484C33.3756 46.5634 34.5955 46.0142 35.8196 45.4844C36.1555 45.3393 36.2923 45.1474 36.2814 44.8084C36.2339 43.3388 36.1874 41.869 36.142 40.3988C36.1233 39.7748 36.1139 39.1476 36.0999 38.5221C36.0624 36.8831 36.0302 35.2461 35.986 33.6039C35.934 31.6446 35.8674 29.6852 35.8092 27.7279C35.7676 26.3257 35.7274 24.9232 35.6886 23.5206C35.6823 23.3215 35.6704 23.1228 35.6589 22.8842C36.6573 22.5602 37.6656 22.2258 38.6786 21.9066C39.1939 21.7448 39.7186 21.6122 40.2386 21.4635C40.5978 21.3585 40.9796 21.3585 41.3389 21.4635C42.7186 21.8591 44.0975 22.2563 45.4755 22.6554C45.9622 22.7952 46.4453 22.9518 46.9377 23.0677C47.4624 23.191 47.895 23.4634 48.3173 23.7827C52.5516 26.9797 56.5894 30.4293 60.6116 33.8988C60.7156 33.9861 60.8196 34.0657 60.9283 34.1505C61.2923 33.5114 65.3764 22.8145 65.3925 22.4411L71.0184 21.2451C71.151 21.9404 71.2919 22.6616 71.4245 23.3839C71.8057 25.4587 72.1905 27.5329 72.555 29.6103C72.6044 29.8927 72.8088 30.0263 72.9528 30.2245C72.9715 30.5365 73.2378 30.6176 73.4437 30.7554C74.1036 31.3336 74.7567 31.9207 75.4275 32.4854C75.6428 32.6664 75.7265 32.8557 75.7239 33.1354C75.7109 34.6434 75.7239 36.1467 75.7098 37.6521C75.7074 37.8877 75.6619 38.1209 75.5757 38.3401C75.065 39.6188 74.2684 40.6239 72.8956 41.0592C72.8212 41.0831 72.763 41.1585 72.697 41.2094C72.7094 41.2469 72.7214 41.2838 72.7339 41.3207L75.8466 41.0384C75.8716 38.2169 75.8986 35.4489 75.9215 32.6565C75.4254 32.2457 74.9028 31.8167 74.3859 31.3815C74.3062 31.3023 74.2333 31.2165 74.168 31.1251C74.4587 31.3222 74.7577 31.5073 75.037 31.7184C75.3854 31.9815 75.7171 32.2665 76.0588 32.5442C76.039 34.4859 76.0177 36.4442 75.999 38.4051C75.9917 39.1653 75.9922 39.9256 75.9844 40.6863C75.9797 41.1366 75.948 41.1413 75.4935 41.1928C74.8758 41.263 74.2622 41.368 73.5524 41.472C73.7016 41.5838 73.7676 41.6447 73.8436 41.6884C74.7166 42.1891 75.349 42.8755 75.5596 43.8926C75.6147 44.1526 75.6875 44.4126 75.7546 44.683C76.298 44.7231 76.8278 44.7621 77.3593 44.8021C77.0161 44.8406 76.6562 44.8281 76.3276 44.9228C71.492 46.3139 66.6587 47.7136 61.8279 49.1218C61.6054 49.1862 61.387 49.2658 61.167 49.3386C62.2642 49.14 63.351 48.9179 64.4253 48.6439C65.5865 48.3475 66.7346 48.0012 67.8896 47.6782C69.2877 47.2868 70.6866 46.8968 72.0865 46.5082C73.0625 46.2394 74.0396 45.9721 75.0203 45.7199C75.7036 45.5442 76.3921 45.5686 77.0806 45.7199C77.6458 45.8432 78.1523 46.0319 78.3197 46.7079C79.0176 46.5301 79.7237 46.5145 80.3789 46.1515C79.691 45.6066 78.8829 45.2446 77.807 44.969C77.6487 44.9204 77.4933 44.8628 77.3416 44.7964V44.7964ZM27.1517 49.6964L26.6317 49.8867L26.25 50.0479C26.3769 50.0058 26.6395 50.1477 26.6239 49.8778C26.8491 49.9558 27.0264 49.9054 27.1439 49.6865C27.3665 49.7619 27.5313 49.6589 27.6832 49.5138L28.1902 49.31C28.6478 49.1467 29.1106 48.998 29.5624 48.8181C31.6856 47.9819 33.7328 46.9814 35.7645 45.9472C35.9517 45.8515 36.1248 45.7277 36.3042 45.617L36.2522 45.513C36.0864 45.578 35.9163 45.6336 35.7551 45.709C33.2789 46.8689 30.8037 48.0303 28.3295 49.193C28.2775 49.2174 28.2422 49.2762 28.199 49.3188L27.692 49.5222L27.1517 49.6964ZM86.4582 64.0281C86.557 64.1997 86.6555 64.3714 86.7536 64.5434C86.8316 64.7087 86.8961 64.8824 86.9897 65.0384C88.2228 67.0986 89.4586 69.1571 90.6973 71.2139C91.3213 72.2539 91.7492 73.3693 92.0373 74.5419C92.1502 74.9985 92.2453 75.4706 92.2594 75.9386C92.29 76.9188 92.2484 77.9011 92.2656 78.8818C92.2708 79.1819 92.1538 79.3368 91.9125 79.4824C91.1325 79.9541 90.3619 80.447 89.5881 80.9317C89.2309 81.1553 88.8731 81.3778 88.5128 81.6025C88.3276 81.5156 88.1586 81.4402 87.9928 81.3591C76.5181 75.7431 65.0434 70.1237 53.5688 64.5007C53.2448 64.3447 52.9588 64.3068 52.6052 64.403C48.4483 65.535 44.2852 66.6473 40.1294 67.7772C39.7914 67.877 39.4302 67.8641 39.1003 67.7403C37.4451 67.1506 35.7822 66.5844 34.1213 66.0108C33.9653 65.9588 33.8093 65.9151 33.6533 65.8673C33.741 65.9692 33.8537 66.0464 33.9804 66.0914C35.8113 66.8355 37.6448 67.5724 39.4716 68.3274C39.7451 68.4402 39.9869 68.4174 40.2552 68.3461C44.1911 67.3061 48.1296 66.2729 52.0634 65.2214C52.4622 65.1174 52.8148 65.0831 53.1652 65.3223C53.2385 65.3642 53.3148 65.4005 53.3935 65.431L69.2535 73.023C75.5327 76.0289 81.8108 79.0364 88.0879 82.0455C88.4088 82.2015 88.6552 82.2145 88.9719 82.033C90.1471 81.3638 91.341 80.7278 92.5266 80.0773C92.6551 80.0066 92.7757 79.9213 92.8813 79.8542C92.8813 79.758 92.8854 79.7076 92.8813 79.6577C92.704 77.7045 92.5298 75.7509 92.342 73.7988C92.3155 73.6174 92.2502 73.4438 92.1507 73.2898C91.743 72.608 91.3187 71.9378 90.9027 71.2581C89.6224 69.148 88.3432 67.0368 87.0651 64.9245C86.9798 64.7836 86.868 64.6588 86.7687 64.5267L86.4473 64.0332C86.3433 63.8648 86.2407 63.6966 86.1395 63.5288L85.8374 63.0177L85.5347 62.5081L85.2373 61.9933L85.0059 61.5544L84.9112 61.6236C85.023 61.7437 85.1354 61.8643 85.2466 61.9876C85.2362 62.2226 85.3506 62.3859 85.5446 62.5018L85.8478 63.0109C85.948 63.1815 86.0487 63.3519 86.1499 63.5221C86.2511 63.6923 86.3539 63.861 86.4582 64.0281ZM64.9942 43.888L64.2662 43.9738C64.0832 43.9977 63.8991 44.0169 63.7171 44.0471C61.8534 44.356 59.9819 44.6243 58.1292 44.9872C55.4007 45.5218 52.6858 46.1229 49.9652 46.7032C49.8092 46.7365 49.6625 46.8192 49.5117 46.879L48.8076 46.9934L48.8217 47.0688H49.208C49.1503 47.1035 49.0896 47.1329 49.0266 47.1567C43.7881 48.5929 38.5465 50.0167 33.3127 51.4727C32.267 51.7633 31.3096 52.2932 30.3539 52.8247C30.4262 52.8511 30.5033 52.8619 30.5801 52.8564C31.4251 52.8356 32.2748 52.7524 33.114 52.8117C33.867 52.8637 34.5451 52.6947 35.2419 52.4742C37.9792 51.6079 40.7076 50.7062 43.4693 49.9262C46.9954 48.9268 50.5455 48.0074 54.095 47.0932C57.8239 46.1328 61.506 44.9805 65.3078 44.3133C65.3743 44.3019 65.432 44.24 65.4934 44.2015C65.2396 44.1344 65.0056 44.1547 64.7768 44.1277C64.6021 44.1074 64.4352 44.0268 64.2683 43.9769C64.5226 44.058 64.7716 44.1038 64.989 43.8859L65.509 43.9259C65.509 43.8926 65.509 43.8594 65.509 43.8261L64.9942 43.888ZM66.0441 55.3929L64.6125 55.7049L64.6474 55.8381C65.0982 55.6415 65.6135 55.6821 66.0368 55.3825C66.2484 55.4371 66.431 55.3825 66.6026 55.2869C66.5922 55.252 66.5818 55.2172 66.5708 55.1829L66.0441 55.3929ZM56.3929 31.356L56.7272 31.668L56.8016 31.5744L56.4272 31.3206C56.3503 31.2331 56.2684 31.1501 56.1818 31.0721C53.3166 28.7595 50.4489 26.45 47.5789 24.1436C47.3928 24.0015 47.1809 23.8969 46.9549 23.8358C45.2836 23.3615 43.6024 22.9211 41.9369 22.4266C41.3706 22.2586 40.8688 22.2295 40.3576 22.556C40.1616 22.6808 39.9245 22.7412 39.7045 22.8275C39.1237 23.0552 38.5402 23.2773 37.9615 23.5102C37.8159 23.5685 37.6126 23.5799 37.6183 23.8165C37.593 24.1795 37.5672 24.5423 37.5408 24.9049L37.6089 24.908V23.8056C37.6724 23.802 37.7441 23.816 37.7992 23.7921C38.885 23.3163 40.0098 22.9653 41.1595 22.6782C41.4006 22.6126 41.6556 22.6188 41.8932 22.6959C43.4421 23.1722 44.9929 23.6418 46.5456 24.1046C46.8847 24.2016 47.2023 24.362 47.4816 24.5773C50.3073 26.7526 53.1368 28.9226 55.9701 31.0871C56.1043 31.188 56.252 31.2686 56.3929 31.356ZM87.1649 59.9705C86.9569 59.7807 86.7037 59.7199 86.4146 59.7745L87.1738 59.9601C87.2814 60.0272 87.3818 60.1161 87.4977 60.1587C90.0681 61.1405 92.6416 62.1144 95.2109 63.0993C95.4291 63.1859 95.6716 63.189 95.8921 63.1082C97.449 62.6001 99.0121 62.1035 100.568 61.6002C100.689 61.5612 100.804 61.505 100.941 61.4494C100.883 61.3641 100.849 61.3064 100.808 61.2544C99.3449 59.4157 97.8858 57.5738 96.4105 55.7455C96.2727 55.5749 96.0465 55.4481 95.8385 55.3664C94.0282 54.6644 92.2146 53.9711 90.3978 53.2864C90.239 53.2356 90.0773 53.1941 89.9136 53.1621L89.5309 52.95L89.4924 53.054L89.9225 53.1502C90.0603 53.2318 90.1903 53.3317 90.3385 53.393C92.1588 54.1619 93.9811 54.9269 95.8052 55.6878C96.0429 55.7871 96.2462 55.9062 96.411 56.1194C97.6658 57.7355 98.9325 59.3434 100.193 60.9554C100.258 61.051 100.318 61.1505 100.371 61.2533C100.207 61.311 100.081 61.3573 99.9548 61.4C98.608 61.8461 97.2581 62.284 95.9165 62.7436C95.6347 62.8498 95.3236 62.8481 95.0429 62.739C92.6163 61.8522 90.1856 60.975 87.751 60.1073C87.5596 60.0459 87.3589 60.0183 87.1649 59.9726V59.9705ZM63.82 27.5719L63.7493 27.547C63.6786 27.7061 63.6001 27.8621 63.5382 28.0243C63.3077 28.6241 63.0804 29.2247 62.8565 29.8261C62.6324 30.4278 62.414 31.0315 62.1935 31.6347C61.9671 32.2528 61.7418 32.8714 61.5175 33.4906C61.3032 34.0777 61.1103 34.672 60.881 35.2544C60.569 36.0407 60.2934 36.8389 60.0032 37.6324C59.5389 38.9022 59.0704 40.1705 58.6148 41.4429C58.3616 42.1506 58.8603 42.8313 59.58 42.7783C60.88 42.6826 62.18 42.5869 63.4753 42.4829C64.1658 42.4273 64.8616 42.3924 65.5438 42.2796C66.6104 42.1038 67.6675 41.8719 68.7278 41.6603C69.2088 41.5646 69.6888 41.4611 70.1687 41.3613C70.164 41.3202 70.1588 41.2791 70.1536 41.238C66.7128 41.6899 63.2553 41.7825 59.8202 41.8137C59.4739 41.2937 59.4078 40.7862 59.6065 40.2017C60.9808 36.1535 62.3323 32.098 63.69 28.0441C63.7394 27.8891 63.7764 27.7295 63.82 27.5719ZM25.9334 65.1356L25.8751 65.0483C24.9343 65.2435 23.9936 65.4386 23.0531 65.6338C22.2102 65.8106 21.3719 66.0124 20.5243 66.1637C19.5446 66.3389 18.5577 66.4731 17.5733 66.6213C16.1028 66.8428 14.6312 67.0565 13.1616 67.2822C12.2293 67.4252 11.2694 67.395 10.3661 67.7299C10.2434 67.7752 10.0999 67.77 9.96572 67.7819C9.34432 67.8339 8.72396 67.8968 8.10152 67.9234C7.47908 67.9499 6.8686 68.0996 6.23524 67.9904C5.74751 67.902 5.24439 67.9653 4.7938 68.1719C5.7064 68.2811 6.52592 68.3992 7.3496 68.4688C7.68084 68.4969 8.02196 68.4236 8.35788 68.3908C10.1259 68.2161 11.8986 68.096 13.6551 67.8506C15.8636 67.5386 18.06 67.1449 20.2555 66.7534C21.1353 66.5974 22.0063 66.3784 22.869 66.1434C23.6324 65.9354 24.3801 65.6681 25.1336 65.4222C25.4024 65.3343 25.6676 65.2313 25.9334 65.1356ZM48.402 56.915C48.3864 56.8833 48.3714 56.8521 48.3558 56.8209C48.2432 56.8289 48.1316 56.8463 48.0219 56.8729C47.1899 57.1443 46.3579 57.422 45.5228 57.6976C45.3944 57.7402 45.269 57.7912 45.1385 57.825C44.3736 58.0236 43.5983 58.189 42.8432 58.4204C41.6472 58.7844 40.4684 59.1957 39.2818 59.5852C39.0675 59.6559 38.8512 59.7334 38.6058 59.6705C38.6708 59.3985 39.001 59.2929 38.9271 58.9237C38.7462 59.0761 38.5974 59.1811 38.4732 59.3096C37.5195 60.2913 36.5752 61.2819 35.6178 62.2595C35.3365 62.5466 35.0193 62.7983 34.7234 63.0702C34.6571 63.1396 34.5958 63.2137 34.5399 63.2917C34.9455 63.0983 35.2892 62.856 35.6438 62.6303C36.4696 62.1056 37.2792 61.5513 38.1336 61.0781C39.4081 60.3714 40.8137 59.9695 42.1797 59.4843C44.1557 58.7839 46.101 58.0252 48.011 57.1672C48.1498 57.1037 48.2715 56.9997 48.402 56.915ZM32.5145 53.6182C31.8905 53.6535 31.4656 53.6587 31.0455 53.7045C28.8495 53.9442 26.7295 54.4939 24.6604 55.2645C23.3084 55.7668 22.0521 56.4605 20.7963 57.1604C20.1083 57.5437 19.4848 58.0007 18.9794 58.6008C18.7745 58.8462 18.6091 59.122 18.489 59.4183C18.3523 59.7573 18.4792 60.1192 18.7438 60.27C18.9614 60.3992 19.1927 60.5039 19.4334 60.582C20.2503 60.8264 21.0927 60.946 21.9392 60.8555C23.0136 60.7432 24.0915 60.6174 25.1492 60.4047C27.7239 59.8925 30.1992 58.9684 32.4796 57.6679C33.3876 57.1479 34.2955 56.6222 34.934 55.7439C35.61 54.8157 35.4208 54.2037 34.3184 53.8595C34.207 53.8195 34.0921 53.7902 33.9752 53.7721C33.4245 53.7102 32.8702 53.6551 32.5145 53.6182V53.6182ZM72.4593 31.356L72.5592 31.3331C72.0288 28.0649 71.4989 24.7972 70.9596 21.4734C69.2161 21.8067 67.5214 22.1426 65.8335 22.5098L65.8522 22.6091L70.1219 21.8358C70.3913 22.9278 70.6539 23.9871 70.9128 25.0468C71.1687 26.0962 71.4068 27.1497 71.6767 28.1954C71.9466 29.2411 72.1437 30.316 72.4593 31.356ZM37.7561 44.709H37.8356C37.7823 38.4815 37.7289 32.254 37.6755 26.0265H37.611C37.6592 32.254 37.7076 38.4815 37.7561 44.709ZM12.4841 62.9464L12.5418 63.0967C14.3779 62.1607 16.3503 61.6407 18.3398 61.1483C18.1474 60.7354 18.1464 60.7323 17.7678 60.8332C15.9858 61.3111 14.2952 62.0245 12.6453 62.8414C12.59 62.8732 12.5367 62.9082 12.4856 62.9464H12.4841ZM24.1357 55.1127C24.5005 54.0764 24.6295 52.9718 24.5132 51.8793C24.4378 51.1305 24.4243 51.1315 24.9771 50.6667C24.26 50.8034 24.1524 50.9428 24.2434 51.6198C24.248 51.6531 24.2558 51.6859 24.2595 51.7197C24.39 52.8117 24.4498 53.8974 24.129 54.9697C24.1238 55.0175 24.1266 55.0658 24.1373 55.1127H24.1357ZM58.9133 49.9792C58.9258 50.0234 58.9388 50.0676 58.9518 50.1118L60.2664 49.6886C60.2565 49.6584 60.2466 49.6282 60.2372 49.5981L58.9133 49.9792ZM45.3299 47.9746L45.3158 47.8779L44.0205 48.2185L44.0413 48.3012L45.3299 47.9746ZM10.9745 63.7472L11.0198 63.8289L11.5918 63.5028C11.5772 63.4763 11.5621 63.4509 11.5476 63.4228L10.9745 63.7472ZM48.18 47.2435L48.1613 47.1619L47.5648 47.3002L47.5877 47.3954L48.18 47.2435ZM63.6266 56.0835L63.6058 56.0019L63.0889 56.1417L63.1097 56.2234L63.6266 56.0835ZM57.2259 32.0351L57.2888 31.9665L56.9846 31.7527L56.943 31.8105L57.2259 32.0351ZM85.918 59.5592C85.937 59.5494 85.9545 59.5369 85.97 59.5223C85.9731 59.5176 85.9627 59.4942 85.9538 59.4911C85.8498 59.451 85.7458 59.4136 85.645 59.3751L85.6278 59.4271L85.918 59.5592Z" fill="url(#paint0_radial_463_22797)"/>
<path d="M74.1664 31.1271C74.2317 31.2185 74.3046 31.3042 74.3843 31.3834C74.9011 31.8187 75.4243 32.2477 75.9198 32.6585C75.8949 35.4509 75.8678 38.2188 75.845 41.0403L72.7322 41.3227C72.7198 41.2858 72.7078 41.2489 72.6953 41.2114C72.7614 41.1594 72.8196 41.0851 72.894 41.0611C74.2668 40.6259 75.0634 39.6207 75.574 38.3421C75.6603 38.1228 75.7057 37.8897 75.7082 37.6541C75.7207 36.1461 75.7082 34.6428 75.7222 33.1374C75.7222 32.8576 75.6411 32.6694 75.4258 32.4874C74.755 31.9227 74.1019 31.3356 73.442 30.7573L73.4847 30.709L73.7244 30.7371L73.7634 30.7771C73.8154 30.9986 73.9761 31.1016 74.1846 31.1473L74.1664 31.1271Z" fill="white"/>
<path d="M73.4411 30.7575C73.2331 30.6197 72.9689 30.5375 72.9502 30.2266L73.2539 30.3716C73.3303 30.484 73.4068 30.5968 73.4837 30.7091L73.4411 30.7575Z" fill="white"/>
<path d="M73.4837 30.7091C73.4068 30.5967 73.3277 30.4839 73.2539 30.3716L73.7219 30.7356L73.4837 30.7091Z" fill="url(#paint1_radial_463_22797)"/>
<path d="M74.1839 31.1481C73.9759 31.1023 73.8199 30.9994 73.7627 30.7778L74.1839 31.1481Z" fill="url(#paint2_radial_463_22797)"/>
<path d="M84.0228 50.4304L84.5324 50.2287L84.5241 50.2183L84.0166 50.4211L84.0228 50.4304Z" fill="url(#paint3_radial_463_22797)"/>
<path d="M86.7756 64.5256C86.8749 64.6576 86.9867 64.7824 87.072 64.9234C88.3546 67.0335 89.6338 69.1447 90.9096 71.257C91.3219 71.9366 91.7488 72.609 92.1576 73.2886C92.2571 73.4426 92.3223 73.6162 92.3489 73.7977C92.5366 75.7498 92.7129 77.7034 92.8882 79.6565C92.8928 79.7085 92.8882 79.7569 92.8882 79.8531C92.7842 79.9196 92.662 80.0054 92.5335 80.0762C91.3479 80.7267 90.154 81.3626 88.9788 82.0319C88.66 82.2134 88.4136 82.1988 88.0948 82.0444C81.8201 79.0304 75.542 76.0229 69.2604 73.0218L53.4004 65.4298C53.3217 65.3993 53.2454 65.363 53.1721 65.3212C52.8216 65.082 52.4691 65.1132 52.0702 65.2203C48.1364 66.2717 44.198 67.3003 40.2621 68.345C39.9938 68.4162 39.752 68.4391 39.4784 68.3262C37.6517 67.5717 35.8182 66.8349 33.9872 66.0902C33.8606 66.0452 33.7479 65.968 33.6602 65.8661C33.8162 65.914 33.9722 65.9566 34.1282 66.0096C35.789 66.5816 37.452 67.1495 39.1072 67.7392C39.4371 67.8629 39.7983 67.8759 40.1362 67.7761C44.2962 66.6461 48.4562 65.5338 52.6121 64.4018C52.9657 64.3056 53.2517 64.341 53.5756 64.4996C65.0479 70.1239 76.5225 75.7434 87.9996 81.358C88.1655 81.4391 88.3345 81.514 88.5196 81.6013C88.88 81.3767 89.2378 81.1541 89.595 80.9305C90.3688 80.4459 91.1373 79.9529 91.9194 79.4813C92.1607 79.3357 92.2777 79.1807 92.2725 78.8807C92.2553 77.9 92.2969 76.9177 92.2662 75.9375C92.2517 75.4695 92.157 74.9973 92.0442 74.5408C91.7561 73.3702 91.3308 72.2528 90.7042 71.2128C89.4624 69.1577 88.2265 67.0992 86.9966 65.0372C86.903 64.8812 86.8406 64.7076 86.7605 64.5422L86.7756 64.5256Z" fill="white"/>
<path d="M64.2633 43.9717C64.4339 44.0237 64.6008 44.1058 64.7755 44.1277C65.0043 44.1547 65.2383 44.1344 65.4921 44.2015C65.4307 44.24 65.373 44.3019 65.3064 44.3133C61.5047 44.9805 57.8226 46.1333 54.0937 47.0932C50.5441 48.0074 46.9941 48.9267 43.468 49.9262C40.7063 50.7093 37.9778 51.6105 35.2405 52.4742C34.5437 52.6947 33.8657 52.8652 33.1127 52.8117C32.2734 52.7513 31.4237 52.8356 30.5787 52.8564C30.5019 52.8619 30.4248 52.8511 30.3525 52.8247C31.3083 52.2906 32.2656 51.7607 33.3113 51.4727C38.5451 50.0167 43.7867 48.5945 49.0252 47.1567C49.0882 47.1329 49.149 47.1035 49.2067 47.0688L49.1921 47.0828L49.8442 46.9435C49.8411 46.9263 49.8375 46.9092 49.8338 46.8915L49.501 46.866L49.5119 46.8774C49.6627 46.8176 49.8089 46.735 49.9654 46.7017C52.6855 46.1234 55.4004 45.5223 58.1294 44.9857C59.9821 44.6217 61.8536 44.3544 63.7173 44.0455C63.8993 44.0154 64.0813 43.9935 64.269 43.9743L64.2633 43.9717Z" fill="white"/>
<path d="M84.0178 50.4211L84.5253 50.2183C84.6855 50.1778 84.8576 50.1627 85.0032 50.093C87.0655 49.105 89.2417 48.4244 91.3992 47.6865C91.8417 47.5352 92.2764 47.3594 92.7569 47.2544C92.6071 47.3667 92.4678 47.4972 92.3055 47.5882C91.0404 48.3006 89.7789 49.0208 88.4997 49.7082C87.2517 50.3797 85.9917 51.0309 84.7198 51.6618C83.8613 52.0908 82.982 52.4772 82.112 52.8822L82.0818 52.8495C82.3366 52.6888 82.5831 52.5146 82.8468 52.3706C83.9278 51.7783 85.0172 51.2006 86.0983 50.6078C87.4591 49.8606 88.8153 49.104 90.1673 48.3199C89.9822 48.3864 89.7939 48.4467 89.6114 48.5201C83.4352 50.9959 77.2595 53.4723 71.0844 55.9491C70.9747 55.9933 70.8681 56.0672 70.7557 56.076C70.6335 56.0854 70.4526 56.076 70.3917 56.0006C70.3013 55.8836 70.2165 55.6725 70.2633 55.555C70.4422 55.1073 70.7349 54.723 71.2087 54.5592C74.6601 53.3781 78.1136 52.2049 81.5691 51.0394C81.7615 50.9831 81.9605 50.953 82.1609 50.95C82.8223 50.9167 83.4479 50.77 84.0178 50.4211Z" fill="white"/>
<path d="M8.19607 63.4115C8.28863 63.3834 8.39056 63.372 8.47272 63.3257C10.1981 62.3611 11.9827 61.5202 13.785 60.7085C15.0445 60.1417 16.2493 59.4538 17.477 58.8214C17.8644 58.6218 18.257 58.4273 18.6782 58.2588C18.346 58.8167 17.9175 59.3232 18.0022 59.9904C12.7591 61.7459 7.95375 64.154 3.88267 67.9339C3.79479 67.6063 3.97263 67.377 4.13071 67.1856C4.66631 66.5351 5.18475 65.8591 5.79939 65.2892C6.43899 64.6954 7.18363 64.2154 7.87939 63.6829C7.99535 63.594 8.10039 63.491 8.21063 63.3943L8.19607 63.4115Z" fill="white"/>
<path d="M63.82 27.5719C63.7763 27.7279 63.7394 27.8891 63.6879 28.0435C62.3302 32.0995 60.9787 36.1555 59.6043 40.2011C59.4057 40.7861 59.4717 41.2931 59.818 41.8131C63.2532 41.7819 66.7107 41.6893 70.1515 41.2374C70.1567 41.2785 70.1619 41.3196 70.1666 41.3607C69.6866 41.4605 69.2067 41.564 68.7257 41.6597C67.6654 41.8713 66.6082 42.1032 65.5417 42.279C64.8594 42.3918 64.1637 42.4267 63.4731 42.4823C62.1731 42.5863 60.8762 42.682 59.5778 42.7777C58.8581 42.8297 58.3594 42.15 58.6127 41.4423C59.0682 40.1699 59.5367 38.9016 60.0011 37.6318C60.2912 36.8382 60.5694 36.04 60.8788 35.2538C61.1081 34.6714 61.3011 34.077 61.5153 33.49C61.7413 32.8712 61.9667 32.2525 62.1913 31.6341C62.4118 31.0309 62.6302 30.4272 62.8543 29.8255C63.0784 29.2239 63.3057 28.6233 63.536 28.0237C63.5979 27.8615 63.6764 27.7055 63.7472 27.5464L63.82 27.5719Z" fill="white"/>
<path d="M25.9335 65.1358C25.6667 65.2314 25.4026 65.3344 25.1337 65.4223C24.3803 65.6683 23.6325 65.9355 22.8691 66.1435C22.0065 66.3786 21.1355 66.597 20.2556 66.7535C18.0602 67.1451 15.8637 67.5413 13.6553 67.8507C11.8987 68.0962 10.1245 68.2147 8.35802 68.391C8.0221 68.4238 7.68202 68.495 7.34974 68.469C6.52606 68.3993 5.70655 68.2813 4.79395 68.1721C5.24442 67.9652 5.74755 67.9014 6.23539 67.9896C6.86875 68.0988 7.48339 67.949 8.10167 67.9225C8.71995 67.896 9.34446 67.831 9.96586 67.7811C10.1 67.7701 10.2435 67.7753 10.3663 67.7291C11.2695 67.3942 12.2294 67.4243 13.1618 67.2813C14.6313 67.0556 16.1029 66.8419 17.5735 66.6204C18.5578 66.4722 19.5448 66.338 20.5245 66.1628C21.3721 66.0115 22.2103 65.8097 23.0532 65.6329C23.9934 65.436 24.9341 65.2408 25.8753 65.0474L25.9335 65.1358Z" fill="white"/>
<path d="M48.4028 56.915C48.2723 56.9997 48.1506 57.1037 48.0102 57.1666C46.1002 58.0246 44.1523 58.7833 42.1789 59.4838C40.8129 59.9689 39.4073 60.3709 38.1328 61.0775C37.2784 61.5507 36.4688 62.1051 35.643 62.6298C35.2884 62.8554 34.9447 63.0978 34.5391 63.2912C34.595 63.2131 34.6563 63.1391 34.7226 63.0697C35.0185 62.7977 35.3357 62.546 35.617 62.259C36.5743 61.2814 37.5187 60.2908 38.4723 59.309C38.5966 59.1806 38.7453 59.0756 38.9263 58.9232C39.0001 59.2924 38.6699 59.398 38.6049 59.6699C38.8519 59.7328 39.0683 59.6554 39.2809 59.5846C40.4676 59.1952 41.6485 58.7854 42.8424 58.4198C43.5975 58.1884 44.3728 58.0231 45.1377 57.8244C45.2682 57.7906 45.3935 57.7397 45.522 57.697C46.354 57.4214 47.186 57.1438 48.0211 56.8723C48.1307 56.8457 48.2424 56.8283 48.3549 56.8203C48.3721 56.852 48.3872 56.8832 48.4028 56.915Z" fill="white"/>
<path d="M77.3417 44.7964C77.493 44.8632 77.648 44.9214 77.806 44.9706C78.8819 45.2462 79.69 45.6081 80.3779 46.1531C79.7227 46.5171 79.0166 46.5316 78.3187 46.7095C78.1513 46.0335 77.6427 45.8447 77.0796 45.7215C76.3911 45.5707 75.7026 45.5462 75.0193 45.7215C74.0386 45.9737 73.0615 46.2415 72.0855 46.5098C70.6853 46.8956 69.2863 47.2856 67.8886 47.6798C66.7337 48.0027 65.5855 48.349 64.4243 48.6454C63.3505 48.9195 62.2632 49.1415 61.166 49.3401C61.386 49.2673 61.6044 49.1878 61.8269 49.1233C66.6591 47.7203 71.4923 46.3207 76.3266 44.9243C76.6553 44.8297 77.0151 44.8421 77.3583 44.8037C77.3557 44.8026 77.3417 44.7964 77.3417 44.7964Z" fill="white"/>
<path d="M32.5151 53.6182C32.8708 53.6551 33.4251 53.7102 33.9779 53.7742C34.0948 53.7923 34.2097 53.8215 34.3211 53.8615C35.4235 54.2058 35.6117 54.8178 34.9368 55.746C34.2982 56.6237 33.3903 57.1499 32.4824 57.6699C30.2011 58.9689 27.7254 59.8914 25.1504 60.402C24.0927 60.6146 23.0147 60.7405 21.9404 60.8528C21.0938 60.9412 20.2514 60.8237 19.4345 60.5793C19.1938 60.5011 18.9626 60.3965 18.745 60.2673C18.4803 60.1165 18.3534 59.7546 18.4902 59.4155C18.6103 59.1193 18.7757 58.8435 18.9806 58.5981C19.486 57.9981 20.1095 57.541 20.7974 57.1577C22.0532 56.4584 23.309 55.7642 24.6616 55.2619C26.7296 54.4938 28.8507 53.9442 31.0466 53.7019C31.4663 53.6587 31.8901 53.6535 32.5151 53.6182ZM21.5977 60.6698L21.605 60.623C21.9425 60.6396 22.2893 60.715 22.6148 60.6625C23.763 60.4763 24.9325 60.3952 26.0396 59.9948C26.468 59.8388 26.9038 59.7047 27.3364 59.5617C28.6364 59.1327 29.9136 58.6512 31.1439 58.0443C32.4246 57.412 33.6399 56.6924 34.6097 55.6201C34.7225 55.4953 34.8541 55.3809 34.9409 55.2395C35.1869 54.8417 35.1328 54.5188 34.7293 54.2931C34.3965 54.107 34.0268 53.9146 33.6581 53.8771C32.9194 53.8033 32.1759 53.7903 31.4351 53.8381C30.1174 53.927 28.8424 54.265 27.559 54.5692C25.219 55.1241 23.049 56.073 20.9612 57.2394C20.2076 57.6625 19.5364 58.218 18.98 58.8794C18.381 59.584 18.5245 60.0624 19.4023 60.3146C19.483 60.3389 19.5652 60.3584 19.6482 60.3729C20.2989 60.4734 20.9488 60.5724 21.5977 60.6698Z" fill="white"/>
<path d="M87.165 59.9725C87.359 60.0182 87.5597 60.0458 87.7459 60.1129C90.1784 60.9847 92.6091 61.862 95.0378 62.7446C95.3185 62.8537 95.6296 62.8554 95.9114 62.7493C97.253 62.2885 98.603 61.8517 99.9498 61.4056C100.078 61.3635 100.204 61.3167 100.366 61.2589C100.312 61.1562 100.253 61.0566 100.188 60.961C98.9274 59.349 97.6607 57.7411 96.406 56.125C96.2411 55.9118 96.0378 55.7927 95.8002 55.6934C93.9763 54.9328 92.1541 54.1679 90.3334 53.3986C90.1873 53.3372 90.0573 53.2374 89.9174 53.1558L89.9091 53.1656C90.0725 53.198 90.234 53.2397 90.3927 53.2904C92.2085 53.9786 94.0221 54.6719 95.8334 55.3704C96.0414 55.4521 96.2692 55.5784 96.4054 55.7495C97.8807 57.5779 99.3398 59.4197 100.803 61.2584C100.844 61.3104 100.878 61.3681 100.936 61.4534C100.799 61.5091 100.683 61.5652 100.563 61.6042C99.0028 62.1065 97.4428 62.6031 95.887 63.1122C95.6666 63.1931 95.4241 63.19 95.2058 63.1034C92.6365 62.1185 90.063 61.1445 87.4926 60.1628C87.3762 60.1186 87.2763 60.0312 87.1687 59.9641L87.165 59.9725Z" fill="white"/>
<path d="M37.6168 23.8158C37.6121 23.5802 37.8154 23.5688 37.961 23.5105C38.5398 23.2776 39.1232 23.0555 39.7041 22.8278C39.924 22.7414 40.1611 22.6811 40.3572 22.5563C40.8683 22.2298 41.3701 22.2589 41.9364 22.4268C43.6004 22.9214 45.2831 23.3628 46.9544 23.836C47.1804 23.8972 47.3924 24.0017 47.5784 24.1439C50.4509 26.4475 53.3185 28.757 56.1813 31.0723C56.2679 31.1503 56.3498 31.2333 56.4267 31.3209L56.3924 31.3589C56.2515 31.2694 56.1038 31.1888 55.9717 31.0879C53.1405 28.9206 50.311 26.7506 47.4833 24.5781C47.2039 24.3628 46.8863 24.2024 46.5473 24.1054C44.9928 23.645 43.441 23.1751 41.8917 22.6957C41.6541 22.6185 41.3991 22.6124 41.158 22.678C40.0083 22.965 38.8835 23.316 37.7977 23.7918C37.7426 23.8158 37.6709 23.8017 37.6074 23.8054L37.6168 23.8158Z" fill="white"/>
<path d="M72.4602 31.3562C72.1445 30.3162 71.949 29.2461 71.6802 28.1957C71.4113 27.1453 71.1721 26.0964 70.9163 25.0471C70.6563 23.9873 70.3963 22.9281 70.1254 21.8361L65.8556 22.6093L65.8369 22.51C67.5248 22.1429 69.2169 21.807 70.9631 21.4736C71.5023 24.7975 72.0322 28.0652 72.5626 31.3334L72.4602 31.3562Z" fill="white"/>
<path d="M28.1973 49.32C28.2405 49.2774 28.2758 49.216 28.3278 49.1942C30.802 48.0297 33.2772 46.8684 35.7534 45.7102C35.9146 45.6348 36.0847 45.5792 36.2506 45.5142L36.3026 45.6182C36.1232 45.7289 35.95 45.8527 35.7628 45.9484C33.7312 46.9826 31.6839 47.9831 29.5608 48.8193C29.1089 48.9971 28.6461 49.1479 28.1885 49.3112L28.1973 49.32Z" fill="white"/>
<path d="M37.7569 44.709C37.7083 38.4814 37.6601 32.2539 37.6123 26.0264H37.6768C37.7305 32.2539 37.7839 38.4814 37.8369 44.709H37.7569Z" fill="white"/>
<path d="M12.4863 62.9464C12.5377 62.9085 12.5914 62.8738 12.647 62.8424C14.297 62.0255 15.9875 61.312 17.7695 60.8341C18.1486 60.7301 18.1496 60.7364 18.3415 61.1492C16.352 61.6406 14.3796 62.1627 12.5435 63.0977L12.4863 62.9464Z" fill="white"/>
<path d="M24.1377 55.1125C24.1276 55.0655 24.1253 55.0172 24.131 54.9695C24.4518 53.8973 24.391 52.8094 24.2615 51.7195C24.2579 51.6857 24.2501 51.6529 24.2454 51.6197C24.1544 50.9437 24.262 50.8033 24.9791 50.6665C24.4264 51.1314 24.4399 51.1303 24.5153 51.8791C24.6315 52.9716 24.5026 54.0762 24.1377 55.1125Z" fill="white"/>
<path d="M58.915 49.9793L60.239 49.5981C60.2483 49.6283 60.2582 49.6585 60.2681 49.6886L58.9535 50.1119C58.9405 50.0677 58.9275 50.024 58.915 49.9793Z" fill="white"/>
<path d="M45.3299 47.9747L44.0413 48.3012L44.0205 48.2185L45.3158 47.8779L45.3299 47.9747Z" fill="white"/>
<path d="M66.037 55.3848C65.6143 55.6822 65.101 55.6448 64.6481 55.8408L64.6133 55.7077L66.0448 55.3957L66.037 55.3848Z" fill="white"/>
<path d="M37.6091 23.8057V24.9081L37.541 24.9049C37.567 24.542 37.5927 24.179 37.618 23.8161L37.6091 23.8057Z" fill="white"/>
<path d="M87.1742 59.962L86.415 59.7764C86.7042 59.7244 86.9569 59.7827 87.1654 59.9724L87.1742 59.962Z" fill="white"/>
<path d="M10.9746 63.7473L11.5466 63.4229C11.5612 63.4499 11.5762 63.4748 11.5908 63.5029L11.0188 63.829L10.9746 63.7473Z" fill="white"/>
<path d="M49.207 47.0689H48.8207L48.8066 46.9935L49.5123 46.8786L49.5014 46.8672L49.1925 47.083L49.207 47.0689Z" fill="white"/>
<path d="M48.1806 47.2436L47.5883 47.3955L47.5654 47.3003L48.1619 47.1641L48.1806 47.2436Z" fill="white"/>
<path d="M82.1094 52.8843L81.6258 53.1723L81.5811 53.0871L82.0792 52.8516L82.1094 52.8843Z" fill="white"/>
<path d="M63.6275 56.0821L63.1106 56.222L63.0898 56.1404L63.6067 56.0005L63.6275 56.0821Z" fill="white"/>
<path d="M64.9848 43.8813C64.7705 44.1024 64.5215 44.0566 64.2656 43.9734C64.2656 43.9734 64.2708 43.9797 64.2687 43.9776C64.509 43.9469 64.7513 43.9183 64.9967 43.8897L64.9848 43.8813Z" fill="white"/>
<path d="M85.2539 61.9839L84.918 61.6199L85.0126 61.5508L85.244 61.9902L85.2539 61.9839Z" fill="white"/>
<path d="M85.5515 62.4982C85.3559 62.3827 85.2431 62.2194 85.2535 61.9839L85.2441 61.9927C85.3433 62.1636 85.4424 62.3351 85.5416 62.507L85.5515 62.4982Z" fill="white"/>
<path d="M85.8541 63.0076L85.5509 62.498L85.541 62.5069L85.8437 63.0165L85.8541 63.0076Z" fill="white"/>
<path d="M66.0444 55.3945L66.5711 55.1865C66.5821 55.2219 66.5925 55.2567 66.6029 55.2905C66.4313 55.3857 66.2487 55.4408 66.0371 55.3857C66.0394 55.3887 66.0418 55.3917 66.0444 55.3945V55.3945Z" fill="white"/>
<path d="M86.459 64.0276C86.3585 63.8581 86.2578 63.6886 86.1569 63.519L86.1465 63.5279L86.4543 64.0318L86.459 64.0276Z" fill="white"/>
<path d="M86.7541 64.5437L86.4588 64.0278L86.4541 64.032L86.7755 64.526L86.7541 64.5437Z" fill="white"/>
<path d="M85.8438 63.0167C85.9439 63.1872 86.0446 63.3576 86.1459 63.5278L86.1563 63.519C86.0554 63.3484 85.9547 63.178 85.8542 63.0078L85.8438 63.0167Z" fill="white"/>
<path d="M56.4269 31.3203L56.8013 31.5741L56.7269 31.6677L56.3926 31.3557L56.4269 31.3203Z" fill="white"/>
<path d="M57.2262 32.0353L56.9434 31.8106L56.985 31.7529L57.2892 31.9667L57.2262 32.0353Z" fill="white"/>
<path d="M64.9951 43.8882L65.5073 43.8232C65.5073 43.8565 65.5073 43.8898 65.5073 43.9231C65.3336 43.9096 65.1599 43.8966 64.9873 43.8815L64.9951 43.8882Z" fill="white"/>
<path d="M28.1896 49.3101L27.6826 49.5139L27.6904 49.5233L28.1974 49.3199L28.1896 49.3101Z" fill="white"/>
<path d="M26.6227 49.8755C26.6414 50.148 26.3788 50.006 26.252 50.0481L26.6336 49.8869L26.6227 49.8755Z" fill="white"/>
<path d="M85.9186 59.5594L85.6279 59.4294L85.6451 59.3774C85.7491 59.4159 85.8531 59.4534 85.954 59.4934C85.9628 59.4965 85.9732 59.5199 85.9701 59.5246C85.9546 59.5385 85.9373 59.5502 85.9186 59.5594V59.5594Z" fill="white"/>
<path d="M26.6334 49.8869L27.1534 49.6965L27.143 49.6846C27.0292 49.9056 26.8518 49.956 26.623 49.877L26.6334 49.8869Z" fill="white"/>
<path d="M27.1515 49.6961L27.6897 49.523L27.6819 49.5137C27.53 49.6587 27.3652 49.7616 27.1416 49.6852L27.1515 49.6961Z" fill="white"/>
<path d="M89.9212 53.1559L89.4912 53.0597L89.5297 52.9556L89.9124 53.1674L89.9212 53.1559Z" fill="white"/>
<path d="M49.1934 47.083L49.5022 46.8672L49.835 46.8927C49.8387 46.9093 49.8423 46.9265 49.8454 46.9447L49.1934 47.083Z" fill="url(#paint4_radial_463_22797)"/>
<path d="M21.5979 60.6699C20.9489 60.5718 20.2991 60.4725 19.6484 60.372C19.5653 60.3575 19.4832 60.338 19.4024 60.3137C18.5247 60.0615 18.3811 59.5832 18.9802 58.8786C19.5366 58.2172 20.2077 57.6616 20.9614 57.2385C23.0492 56.0722 25.2192 55.1232 27.5592 54.5684C28.8425 54.2642 30.1176 53.9262 31.4353 53.8373C32.1761 53.7894 32.9196 53.8025 33.6583 53.8763C34.0269 53.9127 34.3967 54.1051 34.7295 54.2923C35.133 54.518 35.1871 54.8409 34.9411 55.2387C34.8543 55.3801 34.7227 55.4945 34.6099 55.6193C33.6395 56.6915 32.4259 57.4112 31.1441 58.0435C29.9137 58.6503 28.6366 59.1318 27.3366 59.5608C26.904 59.7038 26.4682 59.8385 26.0397 59.9939C24.9326 60.3943 23.7632 60.4755 22.615 60.6616C22.2895 60.7136 21.9426 60.6387 21.6051 60.6221L21.5979 60.6699ZM34.3031 54.3864L34.2953 54.2481C33.9833 54.0448 33.6271 53.972 33.2584 53.9881C32.7701 54.0084 32.2777 54.0271 31.7961 54.1046C29.3917 54.492 27.0438 55.0925 24.785 56.0176C24.7052 56.0576 24.6289 56.104 24.5567 56.1564L24.5811 56.2547C25.0299 56.2334 25.5171 56.315 25.9206 56.1726C27.2659 55.6994 28.6496 55.4264 30.0489 55.1981C31.2309 55.0052 32.4092 54.7946 33.5849 54.5824C33.8325 54.5382 34.0644 54.4524 34.3031 54.3864V54.3864ZM24.8271 56.5761L24.8146 56.4721C24.4074 56.4414 24.0034 56.3254 23.591 56.51C22.0649 57.1917 20.6334 58.0681 19.3322 59.1172C19.1585 59.2576 19.0202 59.4402 18.8642 59.6029L18.9417 59.7017C19.5849 59.358 20.1486 58.8786 20.7903 58.5323C21.4575 58.1724 22.1137 57.7892 22.7949 57.459C23.4579 57.1361 24.1485 56.8683 24.8271 56.5761ZM31.3573 56.6801C31.3489 56.6593 31.3401 56.639 31.3318 56.6182L31.0146 56.7565L31.0401 56.8179L31.3573 56.6801ZM30.2965 57.0623C30.3037 57.0799 30.311 57.0981 30.3188 57.1143L30.6308 56.9869L30.6043 56.9239L30.2965 57.0623Z" fill="url(#paint5_radial_463_22797)"/>
<path d="M34.3023 54.3861C34.0636 54.4522 33.8291 54.538 33.5868 54.5811C32.4085 54.7933 31.2302 55.0039 30.0508 55.1968C28.6515 55.425 27.2678 55.698 25.9225 56.1712C25.5164 56.3137 25.0318 56.2321 24.583 56.2534L24.5586 56.1551C24.6308 56.1027 24.7071 56.0563 24.7869 56.0163C27.0457 55.0928 29.3935 54.4906 31.798 54.1033C32.2795 54.0258 32.772 54.0071 33.2602 53.9868C33.6289 53.9717 33.9856 54.0445 34.2971 54.2468L34.3023 54.3861Z" fill="white"/>
<path d="M24.8272 56.5758C24.1486 56.8676 23.458 57.1354 22.794 57.4599C22.1128 57.7901 21.4565 58.1733 20.7894 58.5332C20.1477 58.8795 19.584 59.359 18.9408 59.7027L18.8633 59.6039C19.0193 59.4411 19.1586 59.2586 19.3313 59.1182C20.6324 58.069 22.0639 57.1925 23.5901 56.5108C24.0024 56.3262 24.4065 56.4422 24.8136 56.4729L24.8272 56.5758Z" fill="white"/>
<path d="M31.3564 56.683L31.0392 56.8208L31.0137 56.7594L31.3309 56.6211C31.3392 56.6419 31.348 56.6622 31.3564 56.683Z" fill="white"/>
<path d="M30.2959 57.062L30.6053 56.9253L30.6318 56.9882L30.3198 57.1156C30.3079 57.0958 30.3006 57.0797 30.2959 57.062Z" fill="white"/>
<path d="M71.5106 53.7539L41.4697 62.4899C41.4697 62.4899 70.5746 54.8979 71.5106 53.7539Z" fill="white"/>
<path d="M37.6087 23.8062L38.1271 44.7966L34.0498 46.8064L37.8364 44.6541L37.4511 23.8062L37.6591 23.6851L37.6087 23.8062Z" fill="white"/>
<path d="M21.8447 59.5432C21.8447 59.5432 31.4881 56.7003 32.6669 55.9032C33.8458 55.106 33.8073 56.6489 21.8447 59.5432Z" fill="white"/>
<path d="M80.3779 54.8979L91.7909 73.2539C91.7909 73.2539 82.7455 57.0819 80.3779 54.8979Z" fill="white"/>
<path d="M62.2031 65.0483L86.6145 78.8179C86.6145 78.8179 66.2591 66.1507 62.2031 65.0483Z" fill="white"/>
<path d="M39.6352 26.4158C39.5265 25.9759 39.6352 44.7094 39.6352 44.7094C39.6352 44.7094 40.4361 29.6637 39.6352 26.4158Z" fill="white"/>
<path d="M66.9623 24.9082C66.8063 25.8052 63.0889 40.0002 63.0889 40.0002H66.0367C66.0367 40.0002 63.7513 39.6102 64.2651 37.5822C64.7789 35.5542 66.9623 24.9082 66.9623 24.9082Z" fill="white"/>
<path d="M72.5245 41.5601C72.6025 41.5601 75.2545 42.053 75.1765 44.4845L72.3945 45.0961C72.3945 45.0961 74.969 44.3681 74.6825 43.4321C74.396 42.4961 72.5245 41.5601 72.5245 41.5601Z" fill="white"/>
<defs>
<radialGradient id="paint0_radial_463_22797" cx="0" cy="0" r="1" gradientUnits="userSpaceOnUse" gradientTransform="translate(101.469 70.4498) rotate(-147.314) scale(100.604 345.381)">
<stop stop-color="#8F8AD2"/>
<stop offset="1" stop-color="#4267B2"/>
</radialGradient>
<radialGradient id="paint1_radial_463_22797" cx="0" cy="0" r="1" gradientUnits="userSpaceOnUse" gradientTransform="translate(73.7219 30.6628) rotate(-141.526) scale(0.516798 1.90132)">
<stop stop-color="#8F8AD2"/>
<stop offset="1" stop-color="#4267B2"/>
</radialGradient>
<radialGradient id="paint2_radial_463_22797" cx="0" cy="0" r="1" gradientUnits="userSpaceOnUse" gradientTransform="translate(74.1839 31.074) rotate(-138.072) scale(0.489442 1.83781)">
<stop stop-color="#8F8AD2"/>
<stop offset="1" stop-color="#4267B2"/>
</radialGradient>
<radialGradient id="paint3_radial_463_22797" cx="0" cy="0" r="1" gradientUnits="userSpaceOnUse" gradientTransform="translate(84.5324 50.388) rotate(-157.206) scale(0.48373 1.30499)">
<stop stop-color="#8F8AD2"/>
<stop offset="1" stop-color="#4267B2"/>
</radialGradient>
<radialGradient id="paint4_radial_463_22797" cx="0" cy="0" r="1" gradientUnits="userSpaceOnUse" gradientTransform="translate(49.8454 47.0398) rotate(-161.317) scale(0.595087 1.36394)">
<stop stop-color="#8F8AD2"/>
<stop offset="1" stop-color="#4267B2"/>
</radialGradient>
<radialGradient id="paint5_radial_463_22797" cx="0" cy="0" r="1" gradientUnits="userSpaceOnUse" gradientTransform="translate(35.0891 59.3056) rotate(-156.917) scale(15.4796 42.1707)">
<stop stop-color="#8F8AD2"/>
<stop offset="1" stop-color="#4267B2"/>
</radialGradient>
</defs>
</svg>
