<svg width="105" height="104" viewBox="0 0 105 104" fill="none" xmlns="http://www.w3.org/2000/svg">
<path d="M27.5436 66.9198C27.6684 67.3182 27.9976 67.4565 28.3574 67.5069C28.8123 67.5663 29.271 67.5915 29.7297 67.5823L29.4088 67.5048C29.8732 67.4315 29.9725 67.0732 30.0895 66.7014C30.2767 66.104 30.4993 65.5174 30.7161 64.9012C30.595 64.558 30.3251 64.4493 29.9361 64.4493C29.4109 64.4493 28.8857 64.388 28.3616 64.3386C28.1927 64.3219 28.0272 64.2808 27.8702 64.2164C27.6913 64.1436 27.5155 64.0021 27.5701 63.8004C27.6122 63.6412 27.7443 63.4551 27.8868 63.3844C28.0756 63.2939 28.3148 63.2726 28.5306 63.2804C29.243 63.3058 29.9538 63.362 30.6662 63.3984C30.9174 63.4109 31.1696 63.3984 31.4342 63.3984L31.6771 62.7562C31.5299 62.6662 31.389 62.5763 31.2444 62.491C29.8748 61.6819 28.6382 60.71 27.6044 59.4916C26.9284 58.6945 26.385 57.8214 26.0543 56.822C25.9283 56.4512 25.9274 56.0493 26.0517 55.678C26.4677 54.3556 27.1916 53.2147 28.1146 52.2002C30.4057 49.6824 33.1929 47.983 36.5183 47.2082C37.0383 47.0865 37.5895 47.0746 38.1246 47.0038C38.2204 46.9921 38.312 46.9577 38.3918 46.9035C39.8349 45.8484 41.4859 45.2977 43.206 44.9228C43.934 44.7637 44.674 44.6493 45.4082 44.5141C45.5086 44.4959 45.6074 44.4725 45.7083 44.4564C46.351 44.3555 46.793 44.0305 46.988 43.3826C47.0753 43.0924 47.2334 42.8236 47.352 42.5422C47.3962 42.4382 47.4664 42.3067 47.4398 42.2115C47.3187 41.7784 47.6047 41.5995 47.911 41.4929C48.5178 41.2812 49.1382 41.1034 49.7606 40.9432C50.0872 40.859 50.4324 40.8496 50.7663 40.7872C50.9197 40.7592 51.0653 40.6832 51.215 40.6312L51.2072 40.5085C51.0695 40.4841 50.9327 40.4482 50.7938 40.4373C50.1142 40.3853 49.4418 40.2943 48.8262 39.9755C48.7693 39.9398 48.7023 39.9234 48.6353 39.9287C47.8439 40.1294 47.0836 39.857 46.3177 39.7618C43.9085 39.4618 41.5051 39.1201 39.099 38.7967C36.6623 38.4698 34.2232 38.143 31.7816 37.8165C29.3757 37.4962 26.9697 37.1748 24.5635 36.8524C22.1573 36.53 19.7521 36.2059 17.348 35.88C15.1945 35.5909 13.041 35.3033 10.8875 35.0173C8.734 34.7313 6.58154 34.4384 4.43013 34.1385C3.55549 34.0205 2.68033 33.9076 1.80569 33.7932C1.42505 33.7412 1.42453 33.7449 1.29297 33.2665C1.39697 33.2363 1.50097 33.1875 1.60913 33.1776C2.36937 33.1079 3.12909 33.0106 3.89089 32.9945C4.47901 32.9815 5.07077 33.0642 5.65889 33.1214C7.95729 33.3454 10.2552 33.5733 12.5525 33.8052C14.8 34.0281 17.0474 34.2507 19.2948 34.4729C21.5423 34.6951 23.7899 34.9138 26.0377 35.1291C27.8969 35.3108 29.7557 35.4928 31.6142 35.6751C33.5236 35.8627 35.4329 36.0523 37.342 36.244C39.2854 36.4364 41.2284 36.6292 43.1712 36.8222C44.8601 36.9907 46.5486 37.1654 48.238 37.3266C48.3689 37.3382 48.4996 37.3028 48.6067 37.2268C49.6223 36.4135 50.8162 36.3121 52.0351 36.4016C52.9224 36.4637 53.7751 36.7712 54.4978 37.2897C54.9689 37.6251 55.3595 38.0136 55.2835 38.7104C56.0698 38.806 56.8227 38.936 57.5804 38.9818C59.156 39.078 60.7342 39.1378 62.3124 39.1971C65.944 39.3312 69.5762 39.4595 73.209 39.5819C74.8048 39.6365 76.4007 39.6755 77.9961 39.7311C80.3361 39.8133 82.6797 39.9058 85.0213 39.9911C85.7004 40.015 86.3806 40.0067 87.0586 40.0431C87.38 40.0613 87.5412 39.9287 87.6915 39.6646C88.5984 38.0708 89.5203 36.4863 90.4387 34.8988C90.514 34.7682 90.5947 34.6419 90.6986 34.4781C91.318 34.567 91.9373 34.6518 92.5551 34.7464C93.5951 34.9024 94.635 35.0698 95.6719 35.2326C96.0359 35.2898 96.1399 35.424 96.0312 35.7874C95.9049 36.2097 95.7416 36.6194 95.5934 37.0354C95.2679 37.946 94.9403 38.8554 94.6168 39.768C94.5617 39.924 94.5238 40.0868 94.464 40.2948C95.5243 40.3343 96.5372 40.3733 97.5502 40.4097C98.5512 40.4456 99.5527 40.4617 100.552 40.5179C101.552 40.574 102.58 40.3889 103.708 40.6598C103.533 40.8158 103.457 40.9198 103.354 40.963C103.075 41.0836 102.73 41.1148 102.509 41.2989C102.134 41.6109 101.729 41.5501 101.32 41.5428C99.1457 41.5033 96.9719 41.4612 94.7983 41.4164C94.5961 41.4128 94.3943 41.4164 94.1598 41.4164C94.0506 41.7102 93.9393 41.9884 93.8421 42.275C93.4411 43.446 93.0376 44.615 92.6492 45.7922C92.4625 46.3564 92.4807 46.9362 92.6549 47.4984C92.8405 48.0964 93.0589 48.685 93.2877 49.2664C93.634 50.1504 94.0318 51.0151 94.3516 51.9085C94.7084 52.9048 94.6116 53.9292 94.2997 54.913C94.1702 55.3166 93.8956 55.7014 93.6065 56.0222C92.3189 57.4497 90.8353 58.6873 89.2 59.6981C89.0229 59.7992 88.8607 59.9243 88.718 60.0699C88.406 60.4178 88.0061 60.5758 87.5641 60.6653C87.029 60.7734 86.549 60.6949 86.1694 60.2664C85.9578 60.0272 85.6978 59.9024 85.378 59.8504C84.7363 59.746 84.1348 59.4696 83.6376 59.0507C82.6575 58.2388 81.6938 57.4078 80.7464 56.5578C80.543 56.3758 80.347 56.2567 80.0839 56.2333C78.0732 56.0565 76.0612 55.8794 74.0477 55.7019C73.4903 55.6499 72.9323 55.5979 72.3759 55.5355C72.0858 55.5017 71.8091 55.4835 71.5335 55.6244C71.2215 55.7861 70.9028 55.7232 70.6043 55.5688C69.8316 55.1694 68.985 55.2568 68.1603 55.1892C68.0923 55.1827 68.0243 55.2012 67.9689 55.2412C67.6991 55.4814 67.3865 55.4741 67.074 55.3972C65.3393 57.9566 63.2536 60.1942 61.2406 62.4915C60.9718 62.7978 60.692 63.0952 60.4346 63.4109C59.8179 64.167 59.1346 64.845 58.2756 65.3271C58.1284 65.4098 58.0182 65.558 57.8596 65.7041L59.4716 65.9183L59.0853 66.1045C59.0026 66.0431 58.9225 65.9339 58.8367 65.9292C58.4857 65.909 58.1326 65.9209 57.7806 65.9209C58.0583 65.9968 58.337 65.9849 58.6126 66.0015C58.7686 66.0109 58.9246 66.0665 59.0806 66.0998C59.4077 66 59.5356 66.2761 59.7301 66.4773C59.8133 66.1695 59.5403 66.0837 59.4503 65.9053C59.871 66.0171 60.0077 66.1601 59.9703 66.4524C59.9438 66.6682 59.6115 66.9869 59.3598 66.9765C59.0561 66.9646 58.779 66.9708 58.5928 67.2516C58.3848 67.5672 58.4321 67.8881 58.5574 68.224C58.741 68.7164 58.8981 69.2188 59.0863 69.7772C59.4139 69.7882 59.7623 69.8006 60.1133 69.8116C60.6551 69.8282 61.1996 69.8209 61.7388 69.8724C61.9395 69.8916 62.1548 70.0154 62.315 70.1485C62.4907 70.2941 62.549 70.5172 62.4471 70.7512C62.3488 70.9774 62.1657 71.0065 61.9442 71.0029C60.9427 70.9862 59.9412 70.9862 58.9396 70.9706C54.0672 70.8968 49.1952 70.8197 44.3235 70.7392C43.5284 70.7257 42.7188 70.72 42.0355 70.2057C41.9835 70.1646 41.9216 70.1314 41.867 70.0913C41.2217 69.6181 41.1874 69.5401 41.295 68.7679C41.1796 68.757 41.0647 68.7383 40.9497 68.7362C37.1813 68.6717 33.4128 68.5979 29.6439 68.5532C28.7864 68.5433 28.0319 68.2604 27.293 67.8813C27.0538 67.7523 26.8286 67.5987 26.6211 67.4232C26.3611 67.21 26.2847 66.9635 26.3778 66.7581C26.4849 66.521 26.7236 66.4295 27.0766 66.5049C27.1689 66.534 27.258 66.5725 27.3424 66.6198L27.3522 66.6094L27.1 66.6338L27.2867 66.9391L27.4526 66.8278L27.5436 66.9198ZM58.0374 68.952C58.0686 69.0834 58.0995 69.215 58.13 69.3467L58.234 69.3082L58.0291 68.9598L57.7202 68.2484C57.6735 67.8612 57.4922 67.5027 57.2081 67.2355L56.9969 66.8496L56.8981 66.924L57.2179 67.2261L57.7306 68.2406C57.8326 68.4778 57.9348 68.7149 58.0374 68.952ZM34.4814 48.1697L35.2094 47.8634C35.1912 47.827 35.173 47.7906 35.1574 47.7542C34.9344 47.8956 34.6291 47.8821 34.4851 48.1702L33.7696 48.5758C33.0717 48.8535 32.4748 49.2872 31.9153 49.7786C31.7754 49.8706 31.6215 49.9465 31.4993 50.0573C30.7936 50.6917 30.076 51.3141 29.3995 51.9813C28.6143 52.7535 27.8577 53.5579 27.2987 54.5204C27.2129 54.6676 27.1359 54.8194 27.0548 54.9687L27.1443 55.016C27.2358 54.898 27.3372 54.7867 27.4178 54.6619C28.2415 53.3842 29.271 52.2839 30.3703 51.246C30.8862 50.7588 31.427 50.298 31.9569 49.8248C32.3926 49.5394 32.831 49.2575 33.2636 48.9663C33.4399 48.8478 33.6037 48.71 33.7732 48.581L34.4814 48.1697ZM63.6701 47.9227V48.4531L63.732 48.4468C63.7091 48.2735 63.6864 48.1014 63.6638 47.9305C63.6472 47.5041 63.603 47.0844 63.3518 46.7163C63.4564 47.1188 63.42 47.5566 63.6711 47.9232L63.6701 47.9227ZM44.5528 67.5553V67.0951L44.4582 67.106C44.4925 67.2532 44.5273 67.4008 44.5622 67.548C44.5538 68.0446 44.6178 68.5261 44.8289 68.978C44.7935 68.5315 44.7337 68.0873 44.65 67.6473C44.6433 67.6125 44.5856 67.5865 44.5528 67.5553ZM42.4375 69.3727L41.8764 68.9224C41.9232 69.159 41.9507 69.3004 41.9954 69.5261C42.0927 69.0914 42.3002 69.3997 42.4494 69.3607C42.5622 69.4507 42.6621 69.5807 42.791 69.6244C43.4223 69.837 44.0749 69.8781 44.7343 69.8324C43.9642 69.6961 43.1571 69.7632 42.4375 69.3727ZM58.5283 62.737C58.4046 62.8196 58.2631 62.8841 58.1596 62.9876C57.4207 63.7244 56.5331 64.1113 55.4941 64.2091C54.7692 64.2772 54.0501 64.4114 53.3283 64.5159C53.3325 64.5497 53.3372 64.5835 53.3413 64.6199C54.2451 64.505 55.1494 64.3984 56.0516 64.2725C57.0978 64.1264 57.8716 63.5253 58.5398 62.7515C58.7894 62.6642 58.9532 62.4816 59.1263 62.3095L59.0452 62.2216L58.5283 62.737ZM86.7877 41.2183C86.132 41.2183 85.6068 41.2282 85.0821 41.2183C79.3621 41.0966 73.6407 40.9725 67.918 40.846C63.6911 40.7514 59.4642 40.6531 55.2373 40.5512C54.4224 40.5324 53.6071 40.5236 52.7933 40.5116C52.5853 40.5085 52.3773 40.4976 52.2342 40.7238C52.5983 40.7789 52.9487 40.8314 53.2997 40.8855C54.4552 41.0649 55.608 41.2604 56.7666 41.418C57.4795 41.5152 57.6766 41.6546 57.8227 42.3504C57.9787 43.095 58.1274 43.8417 58.2829 44.6035C58.7784 44.7398 59.2886 44.8677 59.7909 45.0195C61.9749 45.681 64.1001 46.4755 66.0517 47.6778C66.8457 48.1666 67.6637 48.645 68.0417 49.5498L80.9377 51.3396L86.7877 41.2183ZM57.8378 69.7986C57.8237 69.6426 57.8341 69.5557 57.8055 69.4808C57.5835 68.8948 57.3589 68.3098 57.1228 67.73C57.058 67.5916 56.9768 67.4616 56.881 67.3426C56.6361 67.0077 56.3209 66.8273 55.8862 66.833C55.2929 66.8413 54.6991 66.8158 54.1052 66.795C51.3253 66.6962 48.5454 66.5959 45.7654 66.494C45.6344 66.4893 45.5055 66.494 45.3276 66.494L45.5226 67.8595C45.7441 67.8595 45.9277 67.8595 46.1107 67.8595C46.3655 67.8595 46.6219 67.8439 46.8741 67.8699C47.1731 67.9006 47.3338 68.1008 47.3384 68.379C47.3431 68.6572 47.1538 68.7658 46.9282 68.8173C46.778 68.8434 46.6255 68.8539 46.4732 68.8485C46.2236 68.8527 45.974 68.8485 45.6843 68.8485C45.727 69.1683 45.7597 69.4138 45.8003 69.7206L57.8378 69.7986ZM42.2653 65.364C42.0828 65.3474 41.9013 65.3286 41.7204 65.312C40.8925 65.2454 40.06 65.2153 39.2374 65.104C37.9961 64.9397 36.7663 64.688 35.5235 64.5362C34.6 64.4244 33.664 64.4124 32.7327 64.3635C32.6386 64.3588 32.5091 64.3765 32.4514 64.4368C32.1961 64.7036 31.8757 64.9527 31.7358 65.2761C31.4291 65.9859 31.2158 66.7368 30.9558 67.5048C31.1337 67.5163 31.2803 67.5314 31.4275 67.5345C34.0573 67.5945 36.6868 67.6527 39.3159 67.7092C40.3171 67.73 41.3182 67.7423 42.3194 67.7461C42.4822 67.7461 42.6834 67.7461 42.8014 67.6562C43.1904 67.3603 43.5112 66.9926 43.8108 66.508L43.218 66.4394C43.0162 66.4165 42.8098 66.4128 42.6127 66.3686C42.0074 66.2319 41.932 66.039 42.2487 65.4935C42.2599 65.4512 42.2655 65.4077 42.2653 65.364ZM89.2453 54.132C89.681 54.2069 90.1292 54.288 90.5811 54.3592C90.7475 54.3852 90.9217 54.4112 91.085 54.3889C91.1703 54.3764 91.2623 54.262 91.3029 54.172C91.318 54.1388 91.2036 54.0056 91.1287 53.9828C90.9325 53.9295 90.7329 53.8901 90.5312 53.8647C90.1698 53.8091 89.8074 53.7607 89.4143 53.7035C89.4512 53.4186 89.4813 53.1882 89.4964 53.0712C90.3165 52.5096 91.0595 52.0073 91.7943 51.4935C91.9503 51.3833 92.1364 51.2595 92.0688 51.013C91.411 50.8284 91.1542 50.8607 90.6701 51.1862C90.2899 51.4415 89.9129 51.7015 89.5302 51.9522C89.4396 52.0026 89.3448 52.045 89.2468 52.079C89.0549 51.9173 89.1844 51.8144 89.2468 51.702C89.629 51.0422 90.0128 50.3828 90.3908 49.7198C90.4709 49.5794 90.5276 49.426 90.6248 49.2138C90.2977 49.2138 90.0497 49.2222 89.8022 49.2112C89.5801 49.2014 89.4746 49.3038 89.3919 49.5045C89.2416 49.8685 89.0555 50.2185 88.8844 50.5742L88.8126 50.5471C88.9317 49.8191 89.0513 49.0911 89.1693 48.3725C88.3025 48.1733 88.1252 48.2971 88.0773 49.0854C88.0773 49.1192 88.0773 49.1535 88.0737 49.1894C88.0383 49.7167 88.0024 50.244 87.9593 50.881C87.6312 50.192 87.6338 49.5056 87.3166 48.9315C86.5501 49.2892 86.4253 49.5555 86.6879 50.2606C86.8205 50.6158 86.9812 50.9605 87.1465 51.3526L85.9224 50.8778C85.8039 51.2881 85.691 51.6376 85.6032 51.9932C85.4966 52.4264 85.5616 52.506 85.9953 52.5413C86.2438 52.5621 86.4919 52.5845 86.744 52.6063C86.8715 53.1658 86.3801 53.3265 86.1773 53.6463C85.9656 53.9828 85.6089 54.2183 85.4441 54.6967C85.8881 54.7425 86.2901 54.8366 86.6801 54.8007C86.8678 54.783 87.0321 54.5184 87.2074 54.366C88.1881 54.964 88.3966 54.9437 89.2453 54.132ZM48.3213 37.5383L46.7997 38.1228C46.4831 38.2439 46.1757 38.3921 45.8466 38.4784C45.5741 38.5502 45.2746 38.6032 45 38.5715C42.9252 38.3354 40.853 38.076 38.7803 37.8238C36.423 37.5367 34.0639 37.2499 31.7031 36.9632C29.613 36.7104 27.5232 36.4588 25.4334 36.2081C23.2938 35.9485 21.154 35.6885 19.014 35.4281C17.1951 35.2066 15.3751 34.9854 13.554 34.7646C11.7167 34.5427 9.8806 34.3224 8.04569 34.1037C6.58189 33.93 5.11705 33.7626 3.65325 33.5884C3.44161 33.5629 3.23309 33.5171 3.02301 33.4812L3.00377 33.578C3.21177 33.6185 3.41977 33.6721 3.63193 33.6981C4.84093 33.8468 6.05201 33.9841 7.26049 34.1354C8.74041 34.3205 10.2182 34.5192 11.6976 34.7074C13.4656 34.93 15.2336 35.1437 17.0016 35.3652C19.3243 35.6557 21.648 35.9483 23.9728 36.243C26.0105 36.4978 28.0487 36.7508 30.0874 37.0022C32.4292 37.2937 34.7704 37.5866 37.1111 37.881C39.436 38.1722 41.7594 38.4696 44.0853 38.752C44.9766 38.8601 45.872 38.9345 46.7654 39.0265C47.1164 39.0629 47.3988 38.9537 47.6031 38.6584C47.7701 38.4176 47.9406 38.1794 48.1122 37.9361C48.7284 38.661 49.4184 38.9511 50.0747 38.7317C49.7232 38.635 49.4158 38.5601 49.1153 38.4649C48.6956 38.3287 48.3467 38.116 48.3228 37.5393L48.3213 37.5383ZM45.5439 48.5784C45.4524 48.5451 45.3635 48.4952 45.2694 48.4817C44.531 48.3735 43.7941 48.2144 43.0521 48.1816C41.6288 48.1192 40.2025 48.1348 38.7777 48.1062C38.4545 48.0984 38.1377 48.1975 37.8765 48.3881C36.2552 49.5118 34.6973 50.7125 33.2771 52.0853C32.7374 52.6053 32.2506 53.1684 31.8612 53.8127C31.6012 54.2412 31.4207 54.6967 31.4233 55.2027C31.4301 56.3238 31.7301 56.5692 32.6937 56.6431C34.3171 56.7679 35.9421 56.8708 37.5671 56.98C38.5135 57.044 39.1536 56.59 39.5608 55.77C39.7496 55.3899 39.9123 54.9978 40.0855 54.6104C40.8327 52.9386 41.8706 51.4498 43.0193 50.0386C43.66 49.2528 44.4717 48.712 45.5439 48.5784ZM65.9763 56.3961L65.9071 56.3326C65.8457 56.3735 65.788 56.4196 65.7345 56.4704C64.722 57.5926 63.7065 58.7111 62.7024 59.8416C61.5755 61.1104 60.5496 62.4671 59.2958 63.6251C58.7125 64.1688 58.0322 64.598 57.2902 64.8903C56.114 65.3552 54.8701 65.4763 53.6357 65.4337C51.7709 65.3692 49.9114 65.1737 48.0488 65.0411C46.8476 64.9548 45.6459 64.8669 44.4436 64.8019C43.0365 64.726 41.6278 64.6844 40.2212 64.6079C39.514 64.5694 38.8094 64.4873 38.0174 64.4176C38.1448 64.4904 38.1963 64.5408 38.2546 64.5497C38.8078 64.6339 39.3601 64.7384 39.9186 64.7852C41.2378 64.895 42.5591 64.9828 43.8804 65.0681C46.7602 65.2543 49.6296 65.5502 52.5 65.8429C53.7318 65.9688 54.9736 65.9989 56.2107 66.0754C56.5128 66.0936 56.752 66.0062 56.9907 65.7951C57.4233 65.415 57.9126 65.1004 58.3619 64.7384C58.7701 64.4098 59.1996 64.0921 59.5465 63.7042C61.5703 61.4432 63.5728 59.1635 65.5785 56.8885C65.7194 56.732 65.8447 56.5604 65.9763 56.3961ZM46.624 57.0476C46.6094 56.7065 46.5761 56.4756 46.5933 56.2531C46.7035 54.8132 46.9708 53.3978 47.2719 51.9891C47.3941 51.4171 47.483 50.8409 47.5948 50.2242C46.9906 50.2242 46.4508 50.2315 45.91 50.2242C45.5956 50.214 45.2824 50.2683 44.9897 50.3836C44.697 50.499 44.431 50.673 44.208 50.895C43.5539 51.5221 42.9793 52.2142 42.5357 53.001C42.0033 53.9464 41.5103 54.9141 41.009 55.8766C40.8995 56.0876 40.8106 56.3085 40.7433 56.5365C40.6575 56.8246 40.7527 56.9826 41.0444 57.0778C41.1572 57.1148 41.2751 57.1344 41.3938 57.136C42.0698 57.136 42.7547 57.1802 43.428 57.1178C44.3567 57.0237 45.292 57.0134 46.2225 57.0872C46.364 57.096 46.5059 57.0596 46.624 57.0476ZM68.2768 52.3921C68.6564 51.9007 68.907 51.364 68.8914 50.7047L80.1463 51.6677C80.1499 51.6329 80.1536 51.598 80.1567 51.5637L68.139 49.7853C68.3896 50.9912 68.4572 51.584 68.2778 52.3921H68.2768ZM48.1195 43.3358L47.9968 43.2458C47.8928 43.3618 47.7768 43.4673 47.6941 43.5958C47.5199 43.8656 47.3608 44.1464 47.2017 44.4278C46.9895 44.8006 46.6588 44.9597 46.2439 44.9998C45.6381 45.0611 45.0281 45.1074 44.4317 45.2213C42.6746 45.5567 40.9887 46.1053 39.4443 47.0309C39.3294 47.1 39.2244 47.1869 39.1152 47.2649C39.4012 47.2649 39.6399 47.1916 39.8764 47.1089C40.3231 46.9529 40.7636 46.774 41.2155 46.6331C42.6449 46.1859 44.1212 45.9867 45.6043 45.8312C46.1281 45.7777 46.6375 45.628 47.107 45.3898C47.3894 45.2468 47.5782 45.0429 47.6588 44.7086C47.7487 44.3336 47.9214 43.9806 48.0534 43.6129C48.0806 43.5218 48.1026 43.4293 48.1195 43.3358ZM60.638 45.8073C60.6957 46.0153 60.7508 46.2233 60.8122 46.4313C61.1106 47.4334 61.2802 48.451 61.1486 49.4993C61.0737 50.0885 60.9827 50.6771 60.8652 51.2585C60.7742 51.7088 60.8689 52.0686 61.2495 52.3312C61.9193 52.793 62.5885 53.2574 63.2718 53.6988C63.537 53.8704 63.7398 53.7862 63.9036 53.5028C63.9543 53.4145 63.9946 53.3206 64.0237 53.223C64.4366 51.7915 64.6898 50.3412 64.4459 48.8493C64.3528 48.281 64.2083 47.7214 64.0819 47.1593C64.045 46.996 63.9935 46.8291 63.7268 46.8931C64.0313 47.5448 64.1758 48.2599 64.148 48.9788C64.1209 49.895 64.0788 50.8113 64.0138 51.726C63.9768 52.2336 63.9073 52.7383 63.8058 53.2371C63.7257 53.6375 63.5614 53.6687 63.2473 53.4279C62.8579 53.1284 62.4673 52.8289 62.0555 52.5616C61.1554 51.9771 61.0675 52.0302 61.3374 50.8456C61.5974 49.7104 61.6655 48.5644 61.4934 47.4068C61.3992 46.7854 61.2193 46.2166 60.638 45.8073ZM95.7926 35.476L90.8526 34.644C89.8256 36.4468 88.8116 38.2257 87.7882 40.0213C88.0706 40.1716 88.1559 39.9901 88.2489 39.8341C88.5791 39.2798 88.9359 38.7421 89.2291 38.167C89.692 37.2557 90.3631 36.4663 91.188 35.8628C91.2153 35.8427 91.2412 35.8206 91.2654 35.7968C91.6851 35.3714 92.1983 35.2711 92.7656 35.3714C93.4006 35.4838 94.0339 35.6018 94.6688 35.7136C94.9522 35.7656 95.2367 35.8103 95.5227 35.8441C95.7343 35.8691 95.8378 35.7672 95.7926 35.476ZM53.3231 52.2163C53.3231 52.0837 53.3231 51.999 53.3231 51.9142C53.3179 51.0728 53.1463 50.8264 52.3284 50.6288C51.8008 50.5024 51.2656 50.4099 50.7262 50.3516C50.0695 50.2793 49.4081 50.2445 48.7471 50.22C48.3181 50.2039 48.1112 50.388 48.0628 50.7359C47.898 51.9267 47.7279 53.1164 47.561 54.3067C47.4762 54.911 47.3722 55.5131 47.3192 56.12C47.2812 56.5536 47.482 56.7876 47.9011 56.8802C48.067 56.9136 48.2367 56.9244 48.4055 56.9124C49.5568 56.8511 50.7075 56.7382 51.8578 56.9317C51.9756 56.9479 52.0949 56.9514 52.2134 56.9421C52.5915 56.9218 52.8603 56.7476 52.9607 56.3701C53.021 56.1413 53.0886 55.9088 53.1047 55.6748C53.1874 54.5064 53.254 53.3374 53.3231 52.2163ZM45.3723 47.3616L45.3276 47.4802C45.4534 47.5823 45.5852 47.6767 45.7223 47.763C46.195 48.0262 46.6682 48.2898 47.1539 48.5285C47.3923 48.6502 47.6466 48.7377 47.9094 48.7885C48.7414 48.933 49.5828 49.037 50.4169 49.178C51.4179 49.3475 52.4147 49.542 53.4146 49.7177C53.4973 49.7323 53.5873 49.7084 53.6747 49.7021C53.5853 49.5962 53.4633 49.523 53.3278 49.4941C51.6947 49.1197 50.061 48.7481 48.4268 48.3792C47.9292 48.2669 47.4518 48.1161 46.9999 47.8665C46.4945 47.5909 45.9402 47.4432 45.3723 47.3616ZM84.78 50.9168C85.0624 50.0874 85.7103 49.5331 86.3182 48.9538C86.5737 48.7061 86.8563 48.4879 87.1606 48.3033C88.4138 47.5618 89.6872 47.5103 90.967 48.2513C91.0632 48.3075 91.1687 48.348 91.2836 48.4016C91.2894 48.0594 91.2935 48.0532 91.0548 47.8878C90.2821 47.3512 89.4267 47.1078 88.5011 47.3158C86.5387 47.7573 85.4779 49.1598 84.78 50.9168ZM54.4385 51.2574C54.4729 52.7852 54.4562 54.2573 54.2914 55.7248C54.266 55.909 54.2868 56.0965 54.3517 56.2708C54.4201 56.4212 54.5424 56.5407 54.6944 56.6056C55.0661 56.7368 55.4717 56.7356 55.8426 56.6024C56.2136 56.4692 56.5273 56.2121 56.7307 55.8745C57.0573 55.3405 57.3433 54.7825 57.6214 54.2188C58.1794 53.093 58.1586 53.0421 57.4655 52.001C57.2382 51.6589 56.9496 51.4878 56.5523 51.4457C56.0635 51.3937 55.5779 51.3141 55.0891 51.2611C54.892 51.2398 54.6866 51.2574 54.4385 51.2574ZM53.7771 37.8487C53.7885 37.8149 53.8005 37.7811 53.8125 37.7447C53.7277 37.6979 53.645 37.6454 53.5577 37.6043C52.2769 36.998 50.9369 36.9866 49.575 37.22C49.459 37.243 49.3497 37.2917 49.2552 37.3625C49.0789 37.492 49.0872 37.6854 49.2947 37.7494C49.5448 37.8264 49.8402 37.9096 50.0788 37.8466C51.3133 37.5242 52.539 37.3838 53.7771 37.8487ZM57.1571 42.3301H56.9923C56.9481 42.5729 56.8841 42.8142 56.8638 43.0581C56.8118 43.731 56.7598 44.4049 56.7401 45.0793C56.7359 45.2249 56.8118 45.4262 56.921 45.5104C57.1628 45.696 58.194 45.6747 58.5881 45.4943C58.2834 45.3149 58.0208 45.1407 57.7416 45.0008C57.4525 44.8557 57.3178 44.6436 57.3074 44.3206C57.2918 43.8656 57.2554 43.4112 57.2195 42.9562C57.2049 42.7482 57.18 42.5391 57.1581 42.328L57.1571 42.3301ZM50.0175 57.8261V57.7678C49.8866 57.7533 49.755 57.7461 49.6233 57.7465C48.7086 57.7985 47.7929 57.8308 46.8814 57.9119C45.7509 58.0122 44.623 58.1474 43.4951 58.2759C42.6059 58.3799 41.7042 58.4319 40.8863 58.8609C39.762 59.4502 38.6371 60.0395 37.5115 60.6289C37.5133 60.6642 37.5196 60.6991 37.5302 60.7329C37.7819 60.6174 38.031 60.5145 38.2691 60.3907C38.7948 60.1162 39.3133 59.827 39.838 59.5509C40.9866 58.9451 42.1904 58.4932 43.4894 58.3669C44.8414 58.2353 46.1934 58.1506 47.5454 58.0408C48.3696 57.9738 49.1938 57.8984 50.0185 57.8271L50.0175 57.8261ZM38.0128 47.1302C37.8396 47.1895 37.7247 47.2092 37.6316 47.2644C37.2676 47.4796 36.9322 47.7391 36.5568 47.9237C34.8808 48.7479 33.2574 49.6584 31.7728 50.7988C31.3505 51.1233 30.9558 51.4847 30.5482 51.8294L30.6106 51.9074C30.9106 51.676 31.2023 51.4337 31.5112 51.2153C33.3221 49.93 35.2479 48.8147 37.264 47.8837C37.5858 47.736 37.8495 47.5654 38.0128 47.1302ZM80.594 54.6255L80.5789 54.6515C80.7136 54.6988 80.8447 54.7648 80.983 54.7898C81.399 54.8636 81.8186 54.9323 82.2393 54.9838C84.142 55.2167 86.0457 55.4419 87.9489 55.6717C88.9761 55.7955 90.0031 55.9225 91.0299 56.0529C91.1859 56.0732 91.319 56.0742 91.4105 55.874L80.594 54.6255ZM83.0999 48.2815L83.1872 48.3392C84.5819 45.9992 85.976 43.6592 87.419 41.2386C87.2375 41.2786 87.1263 41.2719 87.068 41.3239C86.9833 41.4003 86.9339 41.5173 86.8751 41.6198C85.6753 43.724 84.4762 45.829 83.2777 47.9346C83.2132 48.048 83.1592 48.1634 83.0999 48.2794V48.2815ZM33.7035 60.5337C33.2418 60.2961 32.7478 60.1078 32.3328 59.8099C31.9033 59.502 31.5528 59.0876 31.091 58.6498C31.3105 59.3918 31.5783 60.0018 32.0848 60.4786C32.6011 60.9658 33.0463 60.9752 33.7035 60.5337ZM44.5252 68.9146C44.0463 68.7622 42.5945 68.7097 42.1239 68.8194C42.8311 69.4434 43.8227 69.7169 44.6069 69.4897C44.5793 69.2957 44.5513 69.0986 44.5252 68.9146ZM30.6766 61.7505C32.0754 62.9398 36.0737 64.4119 36.9598 64.2283C34.7986 63.5991 32.6484 62.9127 30.6766 61.7505ZM57.6766 69.9566V69.9114H45.9766V69.9566H57.6766ZM90.6477 56.9171C90.6073 56.9467 90.57 56.9803 90.5364 57.0175C90.0289 57.7034 89.3186 58.0159 88.498 58.1162C88.2999 58.1407 88.0773 58.1729 87.8985 58.1105C87.4825 57.966 87.0612 57.8115 86.6957 57.577C86.0571 57.1672 85.535 56.641 85.4108 55.835C85.4035 55.7892 85.3697 55.7476 85.3167 55.639C85.2205 56.5308 86.0738 57.4657 87.1273 57.9961C88.3035 58.5879 90.032 58.0694 90.6477 56.9171ZM26.3627 56.0737C26.8645 56.0102 28.27 54.6213 29.1156 53.3385C28.1172 54.2235 27.384 55.2921 26.3627 56.0737ZM91.9602 53.5023C91.9128 54.1715 91.9181 54.8434 91.5899 55.4611C92.0818 54.8751 92.0813 54.1965 91.9602 53.5023ZM41.32 67.9671L41.3382 67.9988H44.0625C44.0625 67.9884 44.0625 67.9775 44.0625 67.9671H41.32ZM42.8872 66.0228C42.8571 65.8388 42.8353 65.701 42.7957 65.4706C42.7411 65.7389 42.7063 65.9095 42.672 66.0764H44.3765V66.0244L42.8872 66.0228ZM59.8923 69.992C59.8923 70.0149 59.8923 70.0372 59.8923 70.0601H61.5272C61.4409 70.0117 61.3427 69.9884 61.2438 69.993C60.794 69.992 60.3431 69.992 59.8923 69.992ZM59.6131 61.7817C59.9651 61.5259 60.3026 61.255 60.5048 60.853L59.6131 61.7817ZM33.3692 67.808V67.7747H32.0764V67.808H33.3692ZM29.8191 63.596V63.6277H30.9002V63.596H29.8191ZM46.9225 68.1008C46.587 67.9292 46.2797 67.9333 45.8528 68.1008H46.9225ZM84.2902 52.7259H84.2506V53.352H84.2902V52.7259ZM56.0121 66.404C56.0121 66.4342 56.0157 66.4638 56.0178 66.494L56.6059 66.598C56.6106 66.5704 56.6152 66.5423 56.6194 66.5148L56.0121 66.404ZM50.8219 38.8752V38.831H50.4002V38.8752H50.8219ZM28.8847 63.5284V63.5045H28.5243V63.5284H28.8847ZM51.746 38.9844C51.7506 38.9652 51.7548 38.9459 51.7595 38.9262H51.3804V38.9641L51.746 38.9844Z" fill="url(#paint0_radial_463_25131)"/>
<path d="M27.5439 66.9201L27.455 66.8317L27.3546 66.6133L27.3447 66.6237C27.4882 66.696 27.6489 66.7475 27.7716 66.8458C28.2339 67.2161 28.3322 67.2723 28.8766 67.381C28.2584 67.5027 28.068 67.4366 27.5439 66.9201Z" fill="url(#paint1_radial_463_25131)"/>
<path d="M89.2449 54.1316C88.3963 54.9423 88.1878 54.9636 87.2086 54.3625C87.0334 54.5148 86.8691 54.7785 86.6813 54.7972C86.2913 54.8336 85.8894 54.7395 85.4453 54.6932C85.6102 54.2174 85.9653 53.9792 86.1785 53.6428C86.3797 53.3225 86.8727 53.1618 86.7453 52.6028C86.4931 52.581 86.2451 52.5586 85.9965 52.5378C85.5628 52.5025 85.4978 52.4229 85.6044 51.9898C85.6923 51.6341 85.8052 51.2847 85.9237 50.8744L87.1478 51.3492C86.9824 50.9581 86.8217 50.6134 86.6891 50.2572C86.4291 49.5542 86.5513 49.2859 87.3178 48.9281C87.635 49.5001 87.6324 50.1886 87.9605 50.8775C88.0037 50.2406 88.0396 49.7133 88.0749 49.186C88.0749 49.1522 88.0749 49.1179 88.0786 49.082C88.1274 48.2937 88.3048 48.17 89.1706 48.3691C89.0525 49.0903 88.9329 49.8168 88.8138 50.5437L88.8856 50.5707C89.0567 50.2151 89.2428 49.8656 89.3931 49.5011C89.4758 49.3004 89.5814 49.198 89.8034 49.2079C90.0509 49.2188 90.2989 49.2105 90.626 49.2105C90.5288 49.4226 90.47 49.5745 90.392 49.7164C90.014 50.3794 89.6302 51.0387 89.248 51.6986C89.183 51.8109 89.0536 51.9139 89.248 52.0756C89.346 52.0416 89.4408 51.9991 89.5314 51.9487C89.9142 51.6981 90.2911 51.4381 90.6713 51.1828C91.1554 50.8573 91.4123 50.825 92.0701 51.0096C92.1377 51.2561 91.9531 51.3798 91.7955 51.4901C91.0607 52.0038 90.3177 52.5061 89.4976 53.0677C89.4826 53.1847 89.4524 53.4151 89.4155 53.7C89.8086 53.7562 90.171 53.804 90.5324 53.8612C90.7341 53.8866 90.9337 53.926 91.1299 53.9792C91.2048 54.0021 91.3192 54.1352 91.3041 54.1685C91.2635 54.2585 91.1715 54.3729 91.0862 54.3854C90.9229 54.4098 90.7487 54.3817 90.5823 54.3557C90.13 54.2876 89.6796 54.2075 89.2449 54.1316ZM89.311 53.1847C89.3224 52.5644 89.0764 52.1021 88.7036 51.7178C88.5824 51.5925 88.3443 51.5291 88.1581 51.5275C87.777 51.5234 87.4941 51.749 87.2653 52.0402C86.828 52.5976 86.8633 53.5373 87.2492 54.0988C87.6964 54.7499 88.4722 54.7748 88.9652 54.1649C89.1902 53.8883 89.3124 53.5423 89.311 53.1858V53.1847Z" fill="white"/>
<path d="M48.3232 37.5392C48.3471 38.1138 48.6961 38.3285 49.1193 38.4627C49.4199 38.5579 49.7272 38.6327 50.0787 38.7295C49.4225 38.9489 48.7325 38.6587 48.1163 37.9339C47.9447 38.1772 47.7741 38.4154 47.6072 38.6561C47.4028 38.9515 47.1204 39.0607 46.7695 39.0243C45.8761 38.9323 44.9807 38.8579 44.0894 38.7497C41.7634 38.4674 39.4401 38.1699 37.1151 37.8787C34.7741 37.5861 32.4329 37.2932 30.0915 36.9999C28.0538 36.7455 26.0156 36.4924 23.9768 36.2407C21.6541 35.9495 19.3304 35.6569 17.0057 35.363C15.2377 35.1414 13.4697 34.9277 11.7017 34.7052C10.2223 34.5185 8.74445 34.3198 7.26453 34.1332C6.05605 33.9818 4.84497 33.8446 3.63597 33.6958C3.42485 33.6698 3.21997 33.6163 3.00781 33.5757L3.02705 33.479C3.23505 33.5149 3.44305 33.5606 3.65729 33.5861C5.12109 33.7603 6.58593 33.9278 8.04973 34.1014C9.88707 34.3198 11.7232 34.5402 13.5581 34.7624C15.3777 34.9818 17.1977 35.203 19.0181 35.4259C21.1581 35.6862 23.2979 35.9462 25.4375 36.2059C27.5275 36.4586 29.6174 36.7103 31.7071 36.9609C34.0662 37.2466 36.4253 37.5335 38.7843 37.8215C40.8571 38.0737 42.9293 38.3332 45.0041 38.5693C45.2802 38.601 45.5761 38.548 45.8506 38.4762C46.1772 38.3899 46.4871 38.2417 46.8038 38.1205L48.3232 37.5392Z" fill="white"/>
<path d="M45.5444 48.5785C44.4722 48.7122 43.6594 49.2546 43.0198 50.0387C41.8711 51.45 40.8358 52.9388 40.086 54.6106C39.9128 54.998 39.7501 55.3906 39.5613 55.7702C39.1541 56.5902 38.514 57.0442 37.5676 56.9802C35.9426 56.871 34.3176 56.7681 32.6942 56.6433C31.7306 56.5694 31.4306 56.324 31.4238 55.2028C31.4238 54.6958 31.6022 54.2414 31.8617 53.8129C32.2511 53.1686 32.7379 52.6075 33.2776 52.0854C34.6977 50.7126 36.2557 49.5119 37.877 48.3882C38.1382 48.1976 38.455 48.0986 38.7782 48.1064C40.203 48.135 41.6293 48.1194 43.0526 48.1818C43.7946 48.2145 44.5315 48.3737 45.2699 48.4818C45.364 48.4953 45.4529 48.5453 45.5444 48.5785ZM44.2319 48.6019C44.0395 48.5411 43.9501 48.4979 43.857 48.4865C43.2512 48.4241 42.6454 48.3445 42.037 48.317C41.1577 48.2764 40.2763 48.2676 39.3954 48.2598C38.7084 48.2479 38.0389 48.4774 37.5037 48.9082C36.2037 49.943 34.8678 50.9362 33.6801 52.1073C33.0181 52.7664 32.4364 53.5014 31.9469 54.297C31.7166 54.6657 31.5887 55.064 31.6089 55.5029C31.6391 56.1492 32.0369 56.4815 32.6786 56.403C32.7786 56.393 32.8793 56.3907 32.9797 56.3963C34.5185 56.4521 36.0575 56.5087 37.5967 56.5663C37.6487 56.5663 37.7007 56.5663 37.7491 56.5663C38.3731 56.5569 38.8094 56.2709 39.0689 55.701C39.2514 55.3001 39.4235 54.8903 39.6476 54.5128C40.3836 53.2731 41.1319 52.0407 41.8925 50.8156C42.4582 49.9025 43.0588 49.0169 44.2325 48.6019H44.2319Z" fill="white"/>
<path d="M65.9763 56.396C65.8447 56.5603 65.7194 56.7308 65.5806 56.8884C63.5723 59.1634 61.5698 61.4431 59.5486 63.704C59.2017 64.092 58.7722 64.4097 58.364 64.7383C57.9147 65.1023 57.428 65.4143 56.9928 65.795C56.7531 66.0061 56.5139 66.0934 56.2128 66.0752C54.9757 65.9993 53.7339 65.9712 52.502 65.8428C49.6316 65.55 46.7623 65.2542 43.8825 65.068C42.5612 64.9827 41.2399 64.8948 39.9207 64.7851C39.3637 64.7383 38.8115 64.6338 38.2567 64.5496C38.1984 64.5407 38.1469 64.4903 38.0195 64.4175C38.8115 64.4872 39.5161 64.5693 40.2233 64.6078C41.6273 64.6842 43.0386 64.7258 44.4457 64.8018C45.6479 64.8668 46.8497 64.9546 48.0508 65.041C49.9135 65.1746 51.773 65.3691 53.6377 65.4336C54.8722 65.4762 56.1161 65.355 57.2923 64.8902C58.0342 64.5979 58.7146 64.1687 59.2979 63.625C60.5516 62.467 61.5776 61.1103 62.7045 59.8415C63.708 58.711 64.7241 57.5925 65.7366 56.4703C65.79 56.4195 65.8478 56.3734 65.9092 56.3325L65.9763 56.396Z" fill="white"/>
<path d="M46.6239 57.0476C46.5048 57.0595 46.3639 57.0954 46.2224 57.0835C45.2919 57.0097 44.3566 57.02 43.4279 57.1141C42.7545 57.1765 42.0718 57.1349 41.3937 57.1323C41.275 57.1307 41.1571 57.1111 41.0443 57.0741C40.7526 56.9789 40.6574 56.8209 40.7432 56.5328C40.8105 56.3048 40.8995 56.0838 41.0089 55.8729C41.5102 54.9104 42.0032 53.9426 42.5356 52.9973C42.9792 52.2105 43.5538 51.5184 44.2079 50.8913C44.4309 50.6693 44.6969 50.4952 44.9896 50.3799C45.2823 50.2645 45.5955 50.2103 45.9099 50.2204C46.4502 50.2298 46.9905 50.2204 47.5947 50.2204C47.4829 50.8372 47.394 51.4165 47.2718 51.9853C46.9707 53.3956 46.7034 54.811 46.5932 56.2494C46.5771 56.4777 46.6103 56.7065 46.6239 57.0476ZM46.2692 56.6669C46.6457 54.5505 47.0118 52.4955 47.3805 50.4269C47.0596 50.4269 46.7726 50.4472 46.4887 50.4232C45.3597 50.3265 44.5283 50.8247 43.8736 51.6957C43.7815 51.8174 43.6796 51.9318 43.5876 52.0535C42.5887 53.3758 41.8919 54.8667 41.2107 56.3679C41.1665 56.4647 41.167 56.5811 41.1431 56.7059C42.8965 56.9191 44.5959 56.4584 46.2703 56.6669H46.2692Z" fill="white"/>
<path d="M68.2774 52.392C68.4568 51.5849 68.3892 50.9911 68.1396 49.7842L80.1574 51.5626C80.1542 51.5979 80.1506 51.6328 80.147 51.6666L68.8921 50.7035C68.9077 51.3639 68.657 51.9006 68.2774 52.392Z" fill="white"/>
<path d="M48.1196 43.3356C48.1027 43.4291 48.0807 43.5216 48.0535 43.6127C47.9214 43.9767 47.7488 44.3334 47.6588 44.7084C47.5782 45.0427 47.3895 45.2466 47.1071 45.3896C46.6376 45.6278 46.1281 45.7775 45.6043 45.831C44.1213 45.987 42.645 46.1857 41.2155 46.6329C40.7636 46.7738 40.3232 46.9511 39.8765 47.1087C39.6399 47.1919 39.4012 47.2647 39.1152 47.2647C39.2244 47.1862 39.3295 47.0998 39.4444 47.0307C40.9888 46.103 42.6746 45.5565 44.4317 45.2211C45.0282 45.1072 45.6381 45.0609 46.2439 44.9996C46.6599 44.9574 46.9896 44.7983 47.2018 44.4276C47.3609 44.1478 47.52 43.867 47.6942 43.5956C47.7769 43.4671 47.8949 43.3616 47.9968 43.2456L48.1196 43.3356Z" fill="white"/>
<path d="M60.6377 45.8071C61.2191 46.2164 61.399 46.7852 61.4921 47.403C61.6663 48.5605 61.5961 49.7065 61.3361 50.8417C61.0667 52.0262 61.1541 51.9732 62.0542 52.5576C62.4655 52.8249 62.8566 53.1244 63.2461 53.424C63.5581 53.6647 63.7245 53.6319 63.8046 53.2331C63.9061 52.7344 63.9756 52.2296 64.0126 51.722C64.0776 50.8074 64.1197 49.8911 64.1467 48.9749C64.1745 48.2561 64.0301 47.541 63.7255 46.8892C63.9923 46.8253 64.0438 46.9932 64.0807 47.1555C64.2081 47.7176 64.3527 48.2771 64.4447 48.8454C64.6886 50.3373 64.4353 51.7875 64.0225 53.2191C63.9934 53.3167 63.9531 53.4105 63.9023 53.4988C63.7411 53.7822 63.5383 53.8665 63.2705 53.6949C62.5872 53.2534 61.9185 52.789 61.2482 52.3273C60.8675 52.0673 60.7729 51.7033 60.8639 51.2545C60.9814 50.6732 61.0719 50.0846 61.1473 49.4954C61.2799 48.4492 61.1093 47.4316 60.8109 46.4275C60.7505 46.2231 60.6954 46.0146 60.6377 45.8071Z" fill="white"/>
<path d="M95.7925 35.476C95.8377 35.7672 95.7342 35.8691 95.5205 35.8441C95.2345 35.8103 94.9485 35.763 94.6667 35.7136C94.0317 35.6018 93.3984 35.4838 92.7635 35.3715C92.1961 35.2711 91.6829 35.3715 91.2632 35.7968C91.239 35.8206 91.2131 35.8427 91.1858 35.8629C90.3615 36.4669 89.6911 37.2566 89.229 38.168C88.9357 38.74 88.579 39.2808 88.2488 39.8352C88.1557 39.9912 88.0704 40.1726 87.7881 40.0224C88.8114 38.2268 89.8255 36.4479 90.8525 34.645L95.7925 35.476Z" fill="white"/>
<path d="M53.3229 52.2166C53.2537 53.3377 53.1872 54.5046 53.1045 55.6741C53.0884 55.9081 53.0208 56.1421 52.9604 56.3693C52.8601 56.7479 52.5912 56.9221 52.2132 56.9413C52.0946 56.9506 51.9754 56.9471 51.8575 56.9309C50.7073 56.7375 49.5565 56.8503 48.4053 56.9117C48.2364 56.9237 48.0668 56.9128 47.9009 56.8794C47.4818 56.7869 47.281 56.5529 47.319 56.1192C47.371 55.5124 47.475 54.9102 47.5608 54.3059C47.7277 53.1157 47.8977 51.9259 48.0626 50.7351C48.1109 50.3872 48.3179 50.2031 48.7469 50.2192C49.4078 50.2437 50.0693 50.2785 50.726 50.3508C51.2654 50.4091 51.8005 50.5016 52.3281 50.628C53.1461 50.8256 53.3161 51.072 53.3229 51.9134C53.3234 52.0003 53.3229 52.084 53.3229 52.2166ZM53.0629 52.7033C53.0629 52.318 53.0629 51.9618 53.0629 51.6056C53.0629 51.2494 52.871 51.0336 52.5429 50.9436C52.2148 50.8536 51.8856 50.76 51.5512 50.7236C50.6912 50.6306 49.8285 50.5676 48.9663 50.4959C48.3585 50.4439 48.2716 50.5167 48.1624 51.1168C48.1531 51.1688 48.1505 51.2208 48.1437 51.2686C47.9731 52.5114 47.7989 53.7537 47.6331 54.9976C47.5793 55.3666 47.5446 55.7382 47.5291 56.1109C47.5187 56.4603 47.6622 56.6054 48.0069 56.6434C48.1761 56.6543 48.3458 56.6543 48.515 56.6434C49.5992 56.6257 50.6823 56.4749 51.767 56.6558C52.5044 56.7786 52.729 56.6038 52.8304 55.8758C52.8398 55.8082 52.8429 55.7406 52.8481 55.6725L53.0629 52.7033Z" fill="white"/>
<path d="M45.3724 47.3618C45.9402 47.4435 46.4946 47.5911 46.9995 47.8699C47.4514 48.1195 47.9287 48.2703 48.4264 48.3826C50.0609 48.7514 51.6946 49.123 53.3274 49.4974C53.4629 49.5264 53.585 49.5995 53.6743 49.7054C53.5874 49.7117 53.4975 49.7356 53.4143 49.721C52.4143 49.5432 51.4175 49.3508 50.4164 49.1813C49.5844 49.0404 48.7425 48.9364 47.909 48.7918C47.6462 48.741 47.3918 48.6535 47.1534 48.5318C46.6677 48.2931 46.1945 48.0295 45.7218 47.7664C45.5847 47.68 45.4529 47.5856 45.3271 47.4835L45.3724 47.3618Z" fill="white"/>
<path d="M84.7803 50.9166C85.4781 49.1595 86.5389 47.7571 88.5014 47.3172C89.4269 47.1092 90.2823 47.352 91.0551 47.8892C91.2937 48.0545 91.2896 48.0608 91.2839 48.4029C91.1689 48.3509 91.0634 48.3088 90.9672 48.2527C89.6875 47.5106 88.414 47.5621 87.1608 48.3047C86.8565 48.4892 86.5739 48.7074 86.3184 48.9552C85.7105 49.5329 85.0626 50.0872 84.7803 50.9166Z" fill="white"/>
<path d="M54.4389 51.2574C54.6869 51.2574 54.8903 51.2397 55.0894 51.261C55.5782 51.313 56.0639 51.3941 56.5527 51.4456C56.95 51.4877 57.2386 51.6588 57.4658 52.001C58.159 53.0409 58.1798 53.0929 57.6218 54.2187C57.3436 54.7798 57.0576 55.3403 56.7311 55.8743C56.5276 56.2119 56.214 56.469 55.843 56.6022C55.472 56.7354 55.0665 56.7366 54.6947 56.6054C54.5427 56.5405 54.4205 56.421 54.3521 56.2706C54.2871 56.0964 54.2664 55.9088 54.2917 55.7246C54.4566 54.2572 54.4732 52.7851 54.4389 51.2574ZM54.585 51.4409C54.5686 51.5235 54.5572 51.6071 54.5507 51.691C54.5226 52.9092 54.4958 54.1275 54.4701 55.346C54.4654 55.566 54.4389 55.787 54.4498 56.0059C54.4654 56.3179 54.5757 56.4286 54.8658 56.4905C55.559 56.6361 56.209 56.3865 56.5735 55.7807C56.8981 55.2449 57.1916 54.6907 57.4523 54.1209C57.952 53.016 58.0144 53.2604 57.2719 52.1091C57.1159 51.8647 56.911 51.7269 56.6151 51.6931C55.9459 51.6219 55.2756 51.5288 54.585 51.4409Z" fill="white"/>
<path d="M53.7765 37.8485C52.5385 37.3836 51.3129 37.524 50.0784 37.8485C49.8398 37.9114 49.5444 37.8282 49.2943 37.7513C49.0863 37.6873 49.0785 37.4913 49.2548 37.3644C49.3493 37.2935 49.4586 37.2449 49.5746 37.2219C50.9364 36.9885 52.2785 36.9999 53.5571 37.6062C53.6445 37.6473 53.7271 37.6998 53.8119 37.7466C53.7994 37.7809 53.788 37.8147 53.7765 37.8485Z" fill="white"/>
<path d="M57.1584 42.3281C57.1798 42.5361 57.2052 42.7441 57.2208 42.9558C57.2541 43.4108 57.2931 43.8653 57.3087 44.3203C57.3191 44.6432 57.4538 44.8553 57.743 45.0004C58.0222 45.1403 58.2848 45.3124 58.5896 45.4939C58.1954 45.6743 57.1642 45.6957 56.9223 45.51C56.8131 45.4258 56.7372 45.2245 56.7414 45.0789C56.7632 44.4029 56.8111 43.7306 56.8651 43.0577C56.8854 42.8128 56.9494 42.5715 56.9936 42.3297L57.1584 42.3281Z" fill="white"/>
<path d="M50.0188 57.8272C49.1941 57.8985 48.3699 57.9739 47.5447 58.0404C46.1927 58.1501 44.8407 58.2349 43.4887 58.3664C42.1887 58.4928 40.9859 58.9447 39.8372 59.5504C39.3125 59.8265 38.7941 60.1157 38.2684 60.3902C38.0302 60.514 37.7811 60.6169 37.5295 60.7323C37.5189 60.6986 37.5126 60.6637 37.5107 60.6284C38.635 60.039 39.7599 59.4497 40.8855 58.8604C41.7035 58.4314 42.6052 58.3784 43.4944 58.2755C44.6223 58.1444 45.7501 58.0092 46.8806 57.9115C47.7922 57.8303 48.7079 57.796 49.6226 57.7461C49.7543 57.7457 49.8859 57.7528 50.0167 57.7674L50.0188 57.8272Z" fill="white"/>
<path d="M38.0129 47.1304C37.8496 47.5656 37.586 47.7351 37.2631 47.8839C35.2475 48.8149 33.3223 49.9302 31.5119 51.2155C31.203 51.4339 30.9113 51.6762 30.6112 51.9076L30.5488 51.8296C30.9565 51.4849 31.3512 51.1235 31.7734 50.799C33.2575 49.6586 34.8809 48.7481 36.5574 47.9239C36.9329 47.7393 37.2709 47.4798 37.6323 47.2645C37.7248 47.2094 37.8397 47.1897 38.0129 47.1304Z" fill="white"/>
<path d="M80.5937 54.6255L91.4097 55.8734C91.3182 56.0736 91.1866 56.0726 91.0291 56.0523C90.0026 55.9213 88.9756 55.7942 87.9481 55.6712C86.0449 55.4413 84.1412 55.2162 82.2385 54.9832C81.8178 54.9312 81.3992 54.8631 80.9822 54.7893C80.8438 54.7643 80.7128 54.6983 80.5781 54.651L80.5937 54.6255Z" fill="white"/>
<path d="M83.0996 48.2792C83.1589 48.1632 83.213 48.0452 83.2775 47.9324C84.4755 45.8267 85.6747 43.7218 86.8748 41.6175C86.9336 41.5135 86.983 41.398 87.0677 41.3216C87.126 41.2696 87.2373 41.2764 87.4187 41.2363C85.9757 43.6569 84.5816 45.9969 83.187 48.3369L83.0996 48.2792Z" fill="white"/>
<path d="M33.7033 60.534C33.046 60.9755 32.6009 60.9661 32.0845 60.4788C31.5781 60.0015 31.3103 59.392 31.0908 58.6499C31.5505 59.0878 31.9031 59.5022 32.3326 59.8101C32.7475 60.1081 33.2415 60.2963 33.7033 60.534Z" fill="white"/>
<path d="M44.5254 68.9147C44.5514 69.0989 44.5774 69.296 44.607 69.4899C43.8229 69.7172 42.8312 69.4437 42.124 68.8196C42.5946 68.7098 44.0465 68.7624 44.5254 68.9147Z" fill="white"/>
<path d="M30.6768 61.7505C32.6486 62.9126 34.7988 63.599 36.9599 64.2281C36.0738 64.4117 32.0756 62.9397 30.6768 61.7505Z" fill="white"/>
<path d="M51.8269 69.9659C56.396 69.9659 60.1 69.9514 60.1 69.9336C60.1 69.9158 56.396 69.9014 51.8269 69.9014C47.2577 69.9014 43.5537 69.9158 43.5537 69.9336C43.5537 69.9514 47.2577 69.9659 51.8269 69.9659Z" fill="white"/>
<path d="M31.9557 49.8251C31.4259 50.2983 30.8851 50.7611 30.3692 51.2462C29.27 52.2862 28.2403 53.3845 27.4167 54.6621C27.3361 54.7869 27.2347 54.8982 27.1431 55.0162L27.0537 54.9689C27.1348 54.8197 27.2097 54.6678 27.2976 54.5207C27.8566 53.5582 28.6132 52.7527 29.3984 51.9815C30.0744 51.3164 30.7925 50.694 31.4981 50.0575C31.6214 49.9468 31.7753 49.8708 31.9141 49.7788L31.9557 49.8251Z" fill="white"/>
<path d="M90.6481 56.9174C90.0324 58.0697 88.3039 58.5882 87.1276 57.9964C86.0741 57.466 85.2208 56.531 85.317 55.6392C85.369 55.7478 85.4038 55.7894 85.4111 55.8352C85.5354 56.6397 86.0575 57.1675 86.696 57.5773C87.06 57.8118 87.4849 57.9663 87.8988 58.1108C88.0777 58.1732 88.3003 58.141 88.4984 58.1165C89.319 58.0162 90.0293 57.7036 90.5368 57.0177C90.5704 56.9806 90.6077 56.947 90.6481 56.9174Z" fill="white"/>
<path d="M58.5395 62.7489C57.8728 63.5227 57.0975 64.1238 56.0513 64.2699C55.1491 64.3958 54.2449 64.5024 53.3411 64.6173C53.337 64.5835 53.3323 64.5497 53.3281 64.5133C54.0499 64.4093 54.769 64.2746 55.4939 64.2065C56.5339 64.1087 57.4204 63.7219 58.1594 62.985C58.2634 62.881 58.4043 62.8171 58.528 62.7344L58.5395 62.7489Z" fill="white"/>
<path d="M26.3623 56.0736C27.3831 55.2936 28.1168 54.2234 29.1152 53.3384C28.2676 54.6212 26.8636 56.0101 26.3623 56.0736Z" fill="white"/>
<path d="M91.9601 53.5024C92.0813 54.1966 92.0818 54.8752 91.5898 55.4613C91.9159 54.8435 91.9128 54.1717 91.9601 53.5024Z" fill="white"/>
<path d="M41.3203 67.9673H44.0623C44.0623 67.9777 44.0623 67.9886 44.0623 67.999H41.3359L41.3203 67.9673Z" fill="white"/>
<path d="M42.4375 69.3722C43.1567 69.7633 43.9637 69.6962 44.7338 69.8346C44.0745 69.8783 43.4219 69.8346 42.7906 69.6265C42.6616 69.5828 42.5618 69.4528 42.4489 69.3628L42.4375 69.3722Z" fill="white"/>
<path d="M33.772 48.5812C33.6024 48.7102 33.4386 48.848 33.2624 48.9666C32.8297 49.2578 32.3914 49.5386 31.9556 49.8251L31.915 49.7809C32.4746 49.2895 33.0715 48.8558 33.7694 48.5781L33.772 48.5812Z" fill="white"/>
<path d="M42.8846 66.023H44.3738V66.075H42.6719C42.7062 65.9081 42.741 65.7376 42.7956 65.4692C42.8315 65.7012 42.8544 65.839 42.8846 66.023Z" fill="white"/>
<path d="M59.8926 69.9918C60.3434 69.9918 60.7943 69.9918 61.2446 69.9918C61.3435 69.9872 61.4417 70.0104 61.528 70.0589H59.8931C59.8931 70.0371 59.8931 70.0147 59.8926 69.9918Z" fill="white"/>
<path d="M59.6133 61.7817L60.5051 60.853C60.3028 61.256 59.9653 61.5259 59.6133 61.7817Z" fill="white"/>
<path d="M44.5518 67.5562C44.5856 67.5863 44.6433 67.6123 44.6495 67.6472C44.7332 68.0872 44.7929 68.5314 44.8284 68.9779C44.6173 68.526 44.5533 68.0419 44.5616 67.5479L44.5518 67.5562Z" fill="white"/>
<path d="M63.6734 47.9201C63.4201 47.5561 63.456 47.1188 63.3525 46.7168C63.6037 47.085 63.6479 47.5046 63.6645 47.931L63.6734 47.9201Z" fill="white"/>
<path d="M33.3693 67.8082H32.0771V67.7749H33.3693V67.8082Z" fill="white"/>
<path d="M59.0852 66.1053C58.9292 66.071 58.7732 66.0154 58.6172 66.006C58.3395 65.9894 58.0608 66.0013 57.7852 65.9254C58.1372 65.9254 58.4903 65.9134 58.8413 65.9337C58.9271 65.9384 59.0072 66.0476 59.0898 66.1085C59.0857 66.1085 59.0852 66.1053 59.0852 66.1053Z" fill="white"/>
<path d="M29.8193 63.5962H30.9004V63.6279H29.8193V63.5962Z" fill="white"/>
<path d="M46.9222 68.0989H45.8525C46.2795 67.9314 46.5868 67.9272 46.9222 68.0989Z" fill="white"/>
<path d="M57.2061 67.2359C57.4903 67.5032 57.6716 67.862 57.7183 68.2494L57.7287 68.2406C57.5578 67.9026 57.3868 67.5646 57.2159 67.2266L57.2061 67.2359Z" fill="white"/>
<path d="M42.45 69.3607C42.3007 69.3997 42.0933 69.0914 41.996 69.5261C41.9513 69.3004 41.9238 69.159 41.877 68.9224L42.438 69.3727L42.45 69.3607Z" fill="white"/>
<path d="M59.4547 65.9092C59.5446 66.0886 59.8186 66.1744 59.7344 66.4812C59.5399 66.2799 59.412 66.0038 59.085 66.1037V66.1078L59.4713 65.9222L59.4547 65.9092Z" fill="white"/>
<path d="M34.4841 48.1723C34.6281 47.8827 34.9334 47.8962 35.1565 47.7563C35.1741 47.7927 35.1923 47.8291 35.2085 47.8655L34.4805 48.1718L34.4841 48.1723Z" fill="white"/>
<path d="M34.482 48.1704L33.7712 48.5812L33.7686 48.5781L34.4841 48.1725L34.482 48.1704Z" fill="white"/>
<path d="M58.5283 62.7368L59.0452 62.2168L59.1263 62.3047C58.9532 62.4768 58.7894 62.6593 58.5398 62.7467L58.5283 62.7368Z" fill="white"/>
<path d="M84.2905 52.7241V53.3522H84.251V52.7257L84.2905 52.7241Z" fill="white"/>
<path d="M58.038 68.9521L57.7292 68.2407L57.7188 68.2496L58.0276 68.9604L58.038 68.9521Z" fill="white"/>
<path d="M56.0117 66.4038L56.6191 66.5156C56.6149 66.5432 56.6102 66.5712 56.6056 66.5988L56.0174 66.4948C56.0154 66.462 56.0138 66.4324 56.0117 66.4038Z" fill="white"/>
<path d="M27.3547 66.6118L27.455 66.8302L27.2892 66.9415L27.1025 66.6363L27.3547 66.6118Z" fill="white"/>
<path d="M50.8226 38.8738H50.4014V38.8296H50.8231L50.8226 38.8738Z" fill="white"/>
<path d="M63.665 47.9312C63.6872 48.1046 63.7099 48.2767 63.7332 48.4476L63.6713 48.4538C63.6713 48.277 63.6713 48.1002 63.6713 47.9219L63.665 47.9312Z" fill="white"/>
<path d="M28.8848 63.5268H28.5244V63.5029H28.8848V63.5268Z" fill="white"/>
<path d="M51.746 38.984L51.3789 38.9637V38.9258H51.758C51.7549 38.9481 51.7507 38.9648 51.746 38.984Z" fill="white"/>
<path d="M57.2163 67.2266L56.8965 66.9245L56.9953 66.8501L57.2064 67.2359L57.2163 67.2266Z" fill="white"/>
<path d="M44.562 67.5481C44.5277 67.401 44.4928 67.2533 44.458 67.1061L44.5526 67.0952C44.5526 67.2488 44.5526 67.4024 44.5526 67.5559L44.562 67.5481Z" fill="white"/>
<path d="M58.0273 68.9604L58.2322 69.3088L58.1282 69.3473L58.0362 68.9526L58.0273 68.9604Z" fill="white"/>
<path d="M89.3108 53.186C89.3119 53.5432 89.1889 53.8896 88.9629 54.1662C88.472 54.7777 87.6962 54.7512 87.2469 54.1001C86.8611 53.5386 86.8258 52.599 87.2631 52.0416C87.4919 51.7504 87.7747 51.5247 88.1559 51.5289C88.342 51.5289 88.5802 51.5939 88.7013 51.7192C89.0763 52.104 89.3222 52.5657 89.3108 53.186Z" fill="url(#paint2_radial_463_25131)"/>
<path d="M44.2321 48.6019C43.059 49.0179 42.4584 49.9019 41.8921 50.814C41.1326 52.0395 40.3843 53.2719 39.6473 54.5113C39.4231 54.8888 39.251 55.2986 39.0685 55.6995C38.8085 56.2715 38.3717 56.5554 37.7487 56.5648C37.6967 56.5648 37.6447 56.5679 37.5964 56.5648C36.0572 56.5083 34.5181 56.4516 32.9793 56.3947C32.8789 56.3892 32.7782 56.3915 32.6782 56.4015C32.0365 56.48 31.6382 56.1477 31.6085 55.5014C31.5883 55.0625 31.7162 54.6642 31.9465 54.2955C32.436 53.4998 33.0177 52.7648 33.6797 52.1057C34.8674 50.9347 36.2033 49.9415 37.5033 48.9067C38.039 48.4761 38.7089 48.2472 39.3961 48.2598C40.277 48.2676 41.1584 48.2764 42.0377 48.317C42.6456 48.3445 43.2514 48.4241 43.8577 48.4865C43.9497 48.4964 44.0392 48.5411 44.2321 48.6019ZM33.6724 52.762C33.0888 53.2942 32.6338 53.9521 32.3417 54.686C32.3376 54.6959 32.374 54.7219 32.3651 54.713C32.7479 54.1639 33.1347 53.6143 33.5149 53.0599C33.5722 52.9623 33.6219 52.8605 33.6636 52.7552L34.0879 52.3517L33.9751 52.2664L33.6724 52.762ZM41.1053 48.4735C40.7866 48.4444 40.4663 48.4215 40.1485 48.3835C39.8611 48.3433 39.5692 48.4146 39.3327 48.5827C38.7861 48.9545 38.2105 49.2857 37.6796 49.6778C35.7296 51.1182 34.2606 52.9575 33.2361 55.1509C33.0801 55.4801 32.9829 55.8347 32.8305 56.2533C33.1529 56.2533 33.388 56.2481 33.623 56.2533C33.8581 56.2585 34.0864 56.2783 34.2871 56.2902C35.9422 53.1114 37.9713 50.3362 41.1048 48.4735H41.1053ZM35.4659 56.232C35.7675 56.3854 35.8076 56.18 35.885 56.0448C36.2693 55.3688 36.613 54.6642 37.0441 54.0168C38.485 51.8431 40.1964 49.9378 42.5343 48.6815C42.5933 48.6395 42.6468 48.5902 42.6934 48.5349L42.5941 48.4413C39.3082 50.1864 37.1965 53.0137 35.4654 56.232H35.4659ZM34.1748 52.0522C34.2231 52.0735 34.2611 52.0974 34.2668 52.0917C34.4051 51.9419 34.5398 51.7896 34.6755 51.6377L34.5996 51.5769C34.4602 51.7308 34.3204 51.8868 34.1748 52.0522Z" fill="url(#paint3_radial_463_25131)"/>
<path d="M46.2698 56.6674C44.5949 56.4594 42.896 56.9196 41.1426 56.7038C41.1665 56.579 41.166 56.4625 41.2102 56.3658C41.8914 54.8671 42.5882 53.3762 43.5881 52.0528C43.6802 51.9311 43.7821 51.8167 43.8741 51.695C44.5288 50.824 45.3603 50.3258 46.4892 50.4226C46.7731 50.4465 47.0612 50.4262 47.381 50.4262C47.0123 52.4958 46.6463 54.5509 46.2698 56.6674ZM44.3905 56.4235C44.4342 56.2618 44.4841 56.1042 44.5195 55.943C44.8887 54.2514 45.366 52.5967 46.1871 51.0591C46.2257 51.0033 46.2516 50.9397 46.263 50.8729C46.263 50.7975 46.2521 50.6909 46.2032 50.6529C46.1543 50.615 46.0212 50.6009 45.9713 50.6358C45.8522 50.7279 45.7471 50.8368 45.6593 50.9592C44.6853 52.2696 43.9194 53.7012 43.2257 55.1713C43.1035 55.4317 42.9974 55.6993 42.908 55.9726C42.8081 56.2748 42.8731 56.3887 43.1872 56.4152C43.558 56.4453 43.9303 56.4235 44.3905 56.4235ZM45.2438 55.0949L46.5105 51.5104C46.1325 51.9691 45.3863 54.0803 45.2438 55.0949Z" fill="url(#paint4_radial_463_25131)"/>
<path d="M53.0644 52.7029L52.845 55.6711C52.8398 55.7392 52.8366 55.8068 52.8273 55.8744C52.7259 56.6024 52.5012 56.7766 51.7639 56.6544C50.6792 56.4734 49.596 56.6242 48.5118 56.6419C48.3427 56.6528 48.173 56.6528 48.0038 56.6419C47.659 56.604 47.5155 56.4589 47.5259 56.1094C47.5414 55.7368 47.5761 55.3652 47.6299 54.9961C47.7958 53.7523 47.97 52.51 48.1406 51.2672C48.1473 51.2152 48.1499 51.1632 48.1593 51.1154C48.2685 50.5153 48.3553 50.4446 48.9632 50.4945C49.8253 50.5647 50.688 50.6292 51.5481 50.7222C51.8824 50.7586 52.2126 50.8543 52.5397 50.9422C52.8668 51.0301 53.0628 51.2448 53.0597 51.6042C53.0566 51.9635 53.0644 52.3176 53.0644 52.7029ZM48.5794 50.8699C48.3059 52.5594 48.0714 55.9259 48.2206 56.3538L49.4509 56.2935C49.4743 56.0938 49.5061 55.9602 49.5029 55.8255C49.4759 54.7751 49.4473 53.7247 49.4093 52.6748C49.3943 52.2516 49.3771 51.8262 49.3209 51.4071C49.2559 50.9198 49.128 50.8408 48.5794 50.8699ZM49.856 51.1429C49.96 52.7742 49.9143 54.4158 50.1571 56.0387C50.1399 54.4018 50.1124 52.7658 49.856 51.1429ZM50.492 53.6249C50.6511 52.9832 50.623 52.3249 50.4171 51.9978L50.492 53.6249ZM50.9246 53.1647C51.1253 53.0227 51.0806 52.8938 51.0244 52.7669C51.0166 52.7497 50.9693 52.7502 50.9043 52.7331C50.9106 52.8646 50.9163 52.9879 50.9246 53.1647Z" fill="url(#paint5_radial_463_25131)"/>
<path d="M54.5844 51.4409C55.275 51.5288 55.9453 51.6219 56.6172 51.6947C56.913 51.7269 57.1164 51.8647 57.2739 52.1107C58.0165 53.262 57.9541 53.0176 57.4544 54.1226C57.1936 54.6924 56.9002 55.2466 56.5756 55.7825C56.2115 56.3904 55.561 56.6379 54.8678 56.4923C54.5751 56.4304 54.4648 56.3171 54.4518 56.0077C54.4409 55.7887 54.4674 55.5677 54.4721 55.3478C54.4992 54.1296 54.526 52.9112 54.5527 51.6926C54.5583 51.6082 54.5689 51.5241 54.5844 51.4409ZM56.0176 54.561H56.0046C56.0046 54.3234 56.0342 54.081 55.9989 53.8491C55.9032 53.2136 55.7857 52.5818 55.6603 51.9516C55.6463 51.8793 55.5298 51.8273 55.4606 51.7659C55.4118 51.8439 55.3275 51.9188 55.3213 51.9999C55.3083 52.1669 55.3546 52.3385 55.3457 52.5064C55.2854 53.6239 55.2225 54.7425 55.1492 55.8574C55.1216 56.2734 55.1923 56.3207 55.5865 56.2448C55.8756 56.1897 55.9427 56.0072 55.9604 55.782C55.9921 55.3753 55.9999 54.9676 56.0176 54.561Z" fill="url(#paint6_radial_463_25131)"/>
<path d="M41.1048 48.4734C37.9713 50.3355 35.9423 53.1113 34.2866 56.2916C34.0859 56.2797 33.8545 56.2609 33.6226 56.2547C33.3906 56.2484 33.1546 56.2547 32.8301 56.2547C32.9824 55.8387 33.0818 55.4814 33.2357 55.1523C34.2601 52.9589 35.7317 51.1197 37.6791 49.6793C38.21 49.2872 38.7856 48.9559 39.3322 48.5841C39.5687 48.416 39.8606 48.3448 40.148 48.385C40.4658 48.4229 40.7861 48.4443 41.1048 48.4734Z" fill="white"/>
<path d="M35.4658 56.2316C37.1969 53.0133 39.3086 50.1861 42.594 48.4404L42.6933 48.534C42.6467 48.5894 42.5932 48.6387 42.5342 48.6807C40.1942 49.937 38.4849 51.8423 37.044 54.0159C36.615 54.6638 36.2692 55.3678 35.8849 56.0438C35.8085 56.1822 35.7674 56.385 35.4658 56.2316Z" fill="white"/>
<path d="M33.663 52.7529C33.6213 52.8582 33.5716 52.9601 33.5143 53.0577C33.1341 53.612 32.7473 54.1616 32.3646 54.7108C32.3734 54.7196 32.337 54.6936 32.3412 54.6837C32.6332 53.9498 33.0882 53.2919 33.6718 52.7597L33.663 52.7529Z" fill="white"/>
<path d="M34.1748 52.0519C34.3204 51.8891 34.4603 51.7332 34.5996 51.5767L34.6756 51.6375C34.5398 51.7893 34.4052 51.9416 34.2668 52.0914C34.2611 52.0945 34.2232 52.0706 34.1748 52.0519Z" fill="white"/>
<path d="M33.6719 52.7618L33.9746 52.2642L34.0874 52.3494L33.6631 52.753L33.6719 52.7618Z" fill="white"/>
<path d="M44.3911 56.4232C43.9309 56.4232 43.559 56.445 43.1893 56.417C42.8773 56.393 42.8102 56.2766 42.9101 55.9744C42.9995 55.7011 43.1056 55.4335 43.2278 55.1731C43.9215 53.701 44.6875 52.2694 45.6614 50.9611C45.7492 50.8387 45.8543 50.7297 45.9734 50.6376C46.0254 50.6007 46.1518 50.6132 46.2054 50.6548C46.2589 50.6964 46.2672 50.7993 46.2652 50.8747C46.2537 50.9416 46.2278 51.0051 46.1892 51.0609C45.3681 52.5986 44.8892 54.2532 44.5216 55.9448C44.4847 56.1039 44.4347 56.2641 44.3911 56.4232Z" fill="white"/>
<path d="M45.2441 55.0946C45.3866 54.078 46.1328 51.9689 46.5109 51.5103L45.2441 55.0946Z" fill="white"/>
<path d="M48.5801 50.87C49.1287 50.8408 49.2561 50.922 49.3216 51.4092C49.3778 51.8283 49.395 52.2537 49.41 52.677C49.448 53.7268 49.4766 54.7772 49.5036 55.8276C49.5068 55.9602 49.475 56.0939 49.4516 56.2956L48.2213 56.3559C48.072 55.9259 48.3066 52.5594 48.5801 50.87Z" fill="white"/>
<path d="M49.8564 51.1431C50.1128 52.766 50.1404 54.4019 50.1575 56.0389C49.9147 54.4159 49.9604 52.7743 49.8564 51.1431Z" fill="white"/>
<path d="M50.4922 53.625L50.4199 52C50.6233 52.3224 50.6514 52.9833 50.4922 53.625Z" fill="white"/>
<path d="M50.9246 53.165C50.9163 52.9856 50.9105 52.865 50.9043 52.7334C50.9693 52.7506 51.0166 52.75 51.0244 52.7672C51.0822 52.8941 51.1253 53.023 50.9246 53.165Z" fill="white"/>
<path d="M56.0183 54.5611C56.0006 54.9678 55.9928 55.3754 55.9611 55.7815C55.9434 56.0067 55.8763 56.1892 55.5872 56.2443C55.193 56.3203 55.1223 56.2714 55.1498 55.8569C55.2231 54.7405 55.2861 53.621 55.3464 52.5061C55.3552 52.3381 55.309 52.1665 55.322 51.9996C55.3282 51.9185 55.4124 51.8436 55.4613 51.7656C55.5305 51.827 55.647 51.879 55.661 51.9513C55.7864 52.5815 55.9039 53.2133 55.9996 53.8487C56.0349 54.0806 56.0053 54.323 56.0053 54.5606L56.0183 54.5611Z" fill="white"/>
<defs>
<radialGradient id="paint0_radial_463_25131" cx="0" cy="0" r="1" gradientUnits="userSpaceOnUse" gradientTransform="translate(103.708 63.4012) rotate(-159.233) scale(94.6919 237.126)">
<stop stop-color="#8F8AD2"/>
<stop offset="1" stop-color="#4267B2"/>
</radialGradient>
<radialGradient id="paint1_radial_463_25131" cx="0" cy="0" r="1" gradientUnits="userSpaceOnUse" gradientTransform="translate(28.8766 67.2693) rotate(-151.324) scale(1.50952 4.80013)">
<stop stop-color="#8F8AD2"/>
<stop offset="1" stop-color="#4267B2"/>
</radialGradient>
<radialGradient id="paint2_radial_463_25131" cx="0" cy="0" r="1" gradientUnits="userSpaceOnUse" gradientTransform="translate(89.3112 53.9916) rotate(-126.937) scale(3.40211 12.3429)">
<stop stop-color="#8F8AD2"/>
<stop offset="1" stop-color="#4267B2"/>
</radialGradient>
<radialGradient id="paint3_radial_463_25131" cx="0" cy="0" r="1" gradientUnits="userSpaceOnUse" gradientTransform="translate(44.2321 54.9048) rotate(-146.089) scale(13.1523 45.9962)">
<stop stop-color="#8F8AD2"/>
<stop offset="1" stop-color="#4267B2"/>
</radialGradient>
<radialGradient id="paint4_radial_463_25131" cx="0" cy="0" r="1" gradientUnits="userSpaceOnUse" gradientTransform="translate(47.381 55.4924) rotate(-133.866) scale(7.7828 29.3695)">
<stop stop-color="#8F8AD2"/>
<stop offset="1" stop-color="#4267B2"/>
</radialGradient>
<radialGradient id="paint5_radial_463_25131" cx="0" cy="0" r="1" gradientUnits="userSpaceOnUse" gradientTransform="translate(53.0644 55.4484) rotate(-131.125) scale(7.28072 27.2452)">
<stop stop-color="#8F8AD2"/>
<stop offset="1" stop-color="#4267B2"/>
</radialGradient>
<radialGradient id="paint6_radial_463_25131" cx="0" cy="0" r="1" gradientUnits="userSpaceOnUse" gradientTransform="translate(57.8311 55.5146) rotate(-123.024) scale(5.36468 18.5155)">
<stop stop-color="#8F8AD2"/>
<stop offset="1" stop-color="#4267B2"/>
</radialGradient>
</defs>
</svg>
