<svg width="105" height="104" viewBox="0 0 105 104" fill="none" xmlns="http://www.w3.org/2000/svg">
<path d="M34.8635 51.5386C34.9378 51.4788 35.0033 51.3888 35.0881 51.3633C37.152 50.7471 39.2387 50.3987 41.3801 50.925C42.2641 51.1429 43.1554 51.0903 44.0482 51.0331C45.5843 50.9354 47.1204 50.8374 48.6565 50.7393C48.91 50.7249 49.1615 50.6866 49.4079 50.6249C48.3679 50.4492 47.4173 50.0389 46.4995 49.5574C45.5115 49.0374 44.5375 48.4924 43.6775 47.7748C43.4501 47.5761 43.2592 47.3393 43.1133 47.0749C42.9271 46.7494 42.9671 46.4218 43.1569 46.0703C43.587 45.2757 44.3228 45.0214 45.1231 44.8951C45.8385 44.7807 46.5596 44.7048 47.2831 44.6678C48.9243 44.5867 50.5669 44.6205 52.1904 44.8815C53.6037 45.1093 55.0166 45.3646 56.3748 45.8451C56.4359 45.8591 56.4979 45.8681 56.5605 45.8721C56.4398 45.596 56.3275 45.3584 56.2313 45.1145C55.6648 43.6855 55.1006 42.2555 54.5387 40.8245C54.429 40.5447 54.221 40.2478 54.2558 39.9847C54.2865 39.7538 54.5678 39.5261 54.7841 39.3555C55.2324 39.0019 55.7087 38.6831 56.1803 38.3602C56.2573 38.3082 56.3686 38.3082 56.4923 38.2744C56.7404 39.2941 56.99 40.2915 57.225 41.2904C57.6299 43.0172 58.0298 44.7453 58.4247 46.4748C58.4784 46.7211 58.5182 46.9702 58.5437 47.221C58.604 47.7618 59.0461 48.0083 59.5177 47.741C60.5577 47.1467 61.5977 46.5398 62.6346 45.9382C63.6146 45.3703 64.595 44.8028 65.5757 44.2357C65.7031 44.1624 65.8357 44.0989 66.0187 44.0038C66.4763 45.2674 66.4925 46.4998 66.246 47.7655C63.8774 48.2855 61.5285 48.7015 59.2078 49.2412C59.2125 49.2797 59.2177 49.3182 59.2223 49.3561C59.3288 49.3621 59.4356 49.3621 59.5421 49.3561C61.273 49.1672 63.0041 48.9765 64.7354 48.7841C66.3994 48.5987 68.0634 48.4108 69.7274 48.2205L75.6751 47.5507C77.5399 47.3406 79.4046 47.1285 81.2693 46.9142C81.4869 46.8926 81.7004 46.84 81.9032 46.7582C82.3062 46.5832 82.7394 46.488 83.1787 46.4779C83.6504 46.4675 84.1215 46.4259 84.5921 46.3901C85.3092 46.3381 85.9961 46.4514 86.6841 46.6667C87.4724 46.9137 88.2742 47.1238 89.0818 47.2969C89.5212 47.3911 89.984 47.3812 90.4369 47.4093C90.9741 47.4431 91.5117 47.4836 92.0489 47.4904C92.4031 47.4879 92.7569 47.4636 93.1081 47.4176C93.8954 47.3302 94.6796 47.221 95.4674 47.1378C96.2885 47.0505 97.1069 46.9907 97.9306 47.1727C98.6004 47.3209 99.2826 47.4108 100.039 47.5398C99.9025 47.7665 99.8265 47.9558 99.6981 48.0957C98.8926 48.9797 97.9233 49.6037 96.745 49.86C95.4237 50.1471 94.1263 50.5137 92.8289 50.8953C91.8929 51.1699 90.9101 51.2729 89.9476 51.4507C89.8004 51.4777 89.6512 51.4959 89.4499 51.5261C89.373 52.3742 89.2939 53.2088 89.217 54.0819C89.3549 54.1007 89.4938 54.112 89.633 54.1157C91.1893 54.0751 92.7447 54.0164 94.3005 53.9982C94.6671 53.9935 94.8085 53.7819 94.9583 53.539C95.5267 52.6165 96.394 52.1132 97.4163 51.927C98.0403 51.8152 98.6966 51.875 99.3403 51.8833C99.8083 51.8885 100.276 51.9322 100.786 51.9608C100.715 52.902 100.648 53.7897 100.578 54.7324L101.604 54.8926C101.594 55.0403 101.585 55.1677 101.573 55.3356L100.398 55.4672C100.426 56.2763 100.454 57.0792 100.482 57.8919C100.095 58.1613 99.6804 58.1067 99.2941 58.0287C97.759 57.7167 96.3613 57.1156 95.2417 55.9789C95.1756 55.9039 95.0936 55.8446 95.0016 55.8055C94.9097 55.7663 94.8101 55.7483 94.7103 55.7527C92.5455 55.7979 90.3807 55.8322 88.2196 55.8697C88.1676 57.0428 87.9076 58.1852 87.7324 59.3391C87.5561 60.5065 87.3684 61.6723 87.1812 62.8569C86.2639 63.1237 85.3648 63.3571 84.485 63.6473C83.2219 64.0633 81.9141 64.2193 80.6053 64.3628C77.8846 64.6665 75.1633 64.9612 72.4413 65.2468C70.98 65.4028 69.5142 65.5193 68.054 65.6847C67.4342 65.7549 66.8258 65.9192 66.208 66.0128C65.4748 66.1241 64.7385 66.2208 64.0011 66.2962C62.9762 66.4002 61.9497 66.487 60.9227 66.5666C60.2836 66.6186 59.642 66.6363 59.0013 66.6737C58.5796 66.6987 58.1579 66.7257 57.7367 66.7605C56.8293 66.8344 55.9209 66.8989 55.0155 66.9935C54.4321 67.0543 53.884 67.2488 53.4982 67.7147C53.194 68.0787 52.8466 68.1666 52.3859 68.1245C50.4494 67.9467 48.5098 67.8016 46.5713 67.6445C45.6441 67.5691 44.7133 67.5234 43.7908 67.4111C42.8683 67.2987 41.9443 67.1953 41.0114 67.2332C40.9098 67.2406 40.8078 67.2268 40.7119 67.1927C40.2486 67.0039 39.7561 67.0049 39.272 66.9327C38.3209 66.7964 37.375 66.6175 36.4297 66.4433C35.3034 66.2353 34.1812 66.0008 33.0299 65.979C32.9622 65.9825 32.8943 65.9767 32.8282 65.9618C31.6842 65.6202 30.4928 65.4709 29.3561 65.057C28.5434 64.7611 27.8382 64.2448 26.9984 64.0337C26.142 63.3759 25.0708 63.0457 24.2944 62.2657C24.2158 62.1972 24.1309 62.1365 24.0407 62.0842C23.6814 62.1731 23.3579 62.2568 23.0324 62.3322C22.3855 62.483 21.9596 62.1435 21.6253 61.6562C21.474 61.4368 21.372 61.1794 21.2722 60.9282C21.1354 60.5876 21.1162 60.2522 21.2992 59.9038C21.4168 59.6839 21.4755 59.4327 21.5509 59.2211C21.5415 59.1771 21.5263 59.1346 21.5057 59.0947C21.0159 58.492 21.0309 58.4244 21.4849 57.7885C21.9388 57.1525 22.619 56.8374 23.2898 56.5264C23.9471 56.2217 24.633 55.9804 25.3053 55.7085C25.4689 55.6497 25.6174 55.5554 25.74 55.4323C25.5981 55.4323 25.4561 55.4323 25.3147 55.4323C23.7583 55.4661 22.2025 55.5363 20.6466 55.5254C19.2608 55.5176 17.875 55.4417 16.4913 55.3668C14.532 55.2628 12.5747 55.1266 10.6153 55.0065C10.4838 54.9987 10.3517 55.0065 10.1811 55.0065C10.0771 55.8905 9.95701 56.7401 9.89513 57.595C9.88057 57.7983 10.0251 58.0495 10.1686 58.219C10.3246 58.4052 10.5555 58.543 10.7744 58.6652C11.7333 59.2008 12.701 59.7213 13.6625 60.2533C13.8126 60.3289 13.9495 60.428 14.0681 60.5471C14.2824 60.7831 14.1773 61.0931 13.8643 61.1648C13.7308 61.1856 13.5952 61.1894 13.4608 61.1763C12.0412 61.1289 10.619 61.118 9.20353 61.0145C8.45265 60.9594 7.70073 60.7894 6.97325 60.5845C6.45325 60.4384 6.11525 59.9943 5.88125 59.5143C5.70653 59.154 5.83393 58.7863 6.15737 58.5206C6.51149 58.2273 6.94153 58.1285 7.37885 58.0739C7.69793 58.0394 8.01903 58.0273 8.33981 58.0375C8.88009 58.0453 8.88633 58.0521 8.98513 57.504C9.05065 57.14 9.10109 56.7729 9.24513 56.412C9.21705 56.6543 9.19989 56.8982 9.15881 57.14C9.08861 57.556 9.12813 57.9356 9.49785 58.2279C9.12761 57.5519 9.44585 56.8696 9.44273 56.1915C9.44273 56.0324 9.44273 55.8733 9.36109 55.7033L9.28621 55.9477H9.25293C9.28725 55.6273 9.32209 55.3065 9.36369 54.9233C9.10993 54.8874 8.86865 54.8421 8.62529 54.8193C7.14433 54.6877 5.66909 54.5322 4.21309 54.2057C3.73677 54.0991 3.41385 53.7954 3.03997 53.5515C2.87773 53.4475 2.94221 53.3019 3.05661 53.1636C3.50693 52.6186 4.07997 52.2754 4.77261 52.1704C5.21929 52.1028 5.67793 52.1111 6.13137 52.0919C6.31701 52.0841 6.50317 52.0986 6.68933 52.0955C13.337 51.9814 19.9847 51.8667 26.6324 51.7513C28.9665 51.71 31.3008 51.6651 33.6352 51.6166C33.9561 51.6103 34.2769 51.5885 34.5982 51.5739C33.0211 52.2167 31.4403 52.849 29.8694 53.5047C29.0592 53.8427 28.2657 54.2197 27.4664 54.5821C27.3219 54.6477 27.1311 54.6861 27.1732 54.9087C27.2023 54.9305 27.2148 54.9472 27.2299 54.9498C27.2784 54.9601 27.3279 54.9653 27.3775 54.9654C28.9094 54.9014 30.3644 55.2197 31.7601 55.8395C33.2359 56.4952 34.7688 56.9752 36.3766 57.1312C38.7624 57.3626 41.1534 57.5352 43.5428 57.7261C43.6609 57.7276 43.7779 57.7023 43.8849 57.6522C44.3815 57.451 44.6207 56.9762 44.4928 56.3491C44.1954 54.8978 43.6749 53.5307 42.8808 52.2728C42.521 51.7008 42.0213 51.2931 41.3661 51.1673C40.6074 51.0212 39.831 50.8943 39.0614 50.887C37.6283 50.873 36.2388 51.1803 34.8635 51.5386ZM58.2759 47.3931C58.2016 47.1498 58.0679 46.9771 57.7559 46.9111L58.2437 47.4223C58.2603 47.7421 58.4122 47.9459 58.719 48.0676C58.9353 48.1534 59.1251 48.3052 59.3269 48.4279C59.2489 48.2579 59.1423 48.0806 58.9941 48.0343C58.6457 47.9256 58.4387 47.6927 58.2759 47.3931ZM48.515 55.021C48.6278 55.1162 48.7459 55.2051 48.852 55.3075C49.0688 55.5155 49.3143 55.71 49.4859 55.9539C49.892 56.5327 49.7131 56.9851 49.0355 57.1639C48.8721 57.2049 48.7062 57.2355 48.5389 57.2555C48.1749 57.3075 47.8109 57.3475 47.4438 57.3922C48.0727 57.4866 48.7152 57.4267 49.3158 57.2175C49.7713 57.0615 49.945 56.6346 49.7547 56.1915C49.5139 55.631 49.1177 55.2124 48.5218 55.0132C47.9415 54.5452 47.2441 54.3637 46.5411 54.2041C46.2847 54.1459 46.0159 54.1412 45.7705 54.1141C45.5786 54.5821 45.5567 54.5889 45.6431 54.9461C45.7991 55.6019 45.9748 56.255 46.1683 56.9013C46.2811 57.2768 46.6961 57.5113 47.1516 57.5025C46.9691 57.3922 46.7834 57.3054 46.6316 57.179C46.5063 57.075 46.3716 56.9429 46.3237 56.7958C46.1417 56.2342 45.9873 55.6632 45.8355 55.0923C45.7668 54.8323 45.7174 54.566 45.8807 54.2857C46.2899 54.2228 46.6831 54.3227 47.0632 54.4563C47.5515 54.6274 48.0309 54.8307 48.515 55.021ZM55.0369 59.5528C55.2449 59.6917 55.3811 59.7879 55.522 59.8737C56.4466 60.4358 57.3789 60.9854 58.2941 61.5621C58.5775 61.7431 58.9112 61.8292 59.2468 61.8081C62.8805 61.677 66.5148 61.5557 70.1496 61.4441C70.9546 61.4207 71.6737 61.143 72.3607 60.7925C72.9597 60.4867 73.5047 60.0739 74.0689 59.7005C74.1859 59.6235 74.2841 59.5185 74.4812 59.3495C73.6523 59.2112 72.9451 59.0796 72.2333 58.9782C71.6067 58.8969 71.028 58.6002 70.5963 58.1389C69.9271 57.4255 69.2708 56.7069 68.4217 56.1967C68.3416 56.1489 68.2943 56.047 68.2334 55.9726C68.3374 55.7339 68.5043 55.6351 68.742 55.5863C68.9012 55.5476 69.0446 55.4608 69.1528 55.3377C69.3509 55.1094 69.5168 54.8505 69.6863 54.5993C69.7809 54.4605 69.8834 54.3128 69.7253 54.1511C69.6913 54.1422 69.6564 54.1373 69.6213 54.1365C67.6408 54.3695 65.6599 54.6026 63.6787 54.8359C63.3109 54.8805 62.9565 55.002 62.6387 55.1926C60.7537 56.2903 58.8599 57.373 56.9681 58.4587C56.3483 58.8118 55.7311 59.1592 55.0369 59.5528ZM4.10181 53.1261C4.47569 53.1261 4.82565 53.1261 5.17613 53.1261C13.1581 53.1452 21.1403 53.1615 29.1226 53.175C29.4835 53.175 29.8564 53.083 30.2037 52.9712C30.9567 52.7278 31.6972 52.4449 32.4397 52.1745C32.5884 52.1225 32.7309 52.0503 32.8765 51.9873C31.5687 51.9561 30.288 51.9743 29.0077 52.0087C24.6467 52.1269 20.2856 52.2482 15.9245 52.3727C12.1719 52.4767 8.41902 52.5807 4.66601 52.6847C4.37897 52.6888 4.20009 52.7829 4.10181 53.1261ZM51.0963 55.3913C49.814 54.6113 48.3554 53.942 46.7969 53.5286C45.8953 53.2894 45.2889 52.668 44.6436 52.0835C44.5578 52.0061 44.4912 51.8267 44.5214 51.7263C44.5448 51.6478 44.7294 51.5859 44.848 51.5703C47.3183 51.2978 49.7894 51.0305 52.2611 50.7685C54.9682 50.4809 57.6753 50.2017 60.3819 49.9136C63.8139 49.5496 67.2413 49.1903 70.6681 48.8013C71.4943 48.7077 72.3539 48.7722 73.1349 48.3895C73.1982 48.3649 73.2652 48.351 73.3331 48.3484C75.6023 48.1009 77.8714 47.8547 80.1404 47.61C80.4872 47.5725 80.8361 47.558 81.1804 47.5346C81.2412 48.3146 81.4227 48.5642 82.1507 48.7306C82.5391 48.8195 82.9531 48.8096 83.3555 48.8211C83.5219 48.8257 83.6956 48.7769 83.7445 48.5657C83.6691 48.326 83.459 48.3733 83.2833 48.3494C82.9666 48.3057 82.6421 48.2907 82.3343 48.2121C82.0134 48.13 81.9307 47.9698 81.9058 47.6661C81.8808 47.3625 82.0306 47.1955 82.2895 47.0848C82.6784 46.9117 83.1096 46.8575 83.5292 46.9288C83.6171 46.9433 83.7071 46.948 83.8896 46.9667C83.2999 46.6397 82.4549 46.701 81.9469 47.0848C81.7762 47.2207 81.5685 47.3021 81.3509 47.3183C80.2558 47.4084 79.161 47.5046 78.0666 47.6069C76.8041 47.7275 75.541 47.845 74.2815 47.9927C73.2103 48.118 72.1464 48.3021 71.0752 48.43C69.1783 48.6567 67.2792 48.8616 65.3797 49.0743L59.4314 49.7394C57.4821 49.9574 55.5329 50.1758 53.584 50.3946C51.601 50.6171 49.6183 50.8397 47.6357 51.0623C46.6779 51.1699 45.7195 51.2703 44.7622 51.3821C44.3571 51.4294 44.2162 51.6941 44.3982 52.0581C44.44 52.1511 44.5017 52.2339 44.5791 52.3004C45.1383 52.7351 45.7015 53.1646 46.2686 53.5889C46.3227 53.6293 46.3866 53.6544 46.4537 53.6617C47.136 53.7267 47.761 53.9821 48.3835 54.2415C49.9528 54.8967 51.4749 55.6273 52.5689 57.0038C52.5795 57.017 52.5913 57.0292 52.6043 57.0402C52.8087 57.2191 52.9454 57.2144 53.1191 57.0126C53.1841 56.9347 53.2409 56.8504 53.2886 56.7609C53.6355 56.1317 54.1009 55.6429 54.8107 55.4235C54.897 55.397 54.9589 55.2935 55.0317 55.2254C54.8598 55.1261 54.6623 55.0802 54.4643 55.0933C54.0437 55.1287 53.6261 55.2004 53.2054 55.2327C52.753 55.2675 52.2985 55.2685 51.8456 55.2956C51.6246 55.3101 51.4083 55.3512 51.0963 55.3913ZM60.4043 55.4063L60.3747 55.3341C60.2129 55.3341 60.0502 55.3211 59.8895 55.3341C58.7639 55.4381 57.6382 55.5462 56.5126 55.6585C56.1611 55.6929 55.7846 55.6637 55.4627 55.7792C53.8721 56.346 53.7582 57.4952 54.13 58.9397C54.1523 59.0271 54.2303 59.1004 54.3016 59.2091L60.4043 55.4063ZM81.4872 63.2063C81.6952 63.5043 81.9079 63.4294 82.1003 63.405C82.5017 63.353 82.9 63.2817 83.3015 63.2308C84.1704 63.1205 85.0414 63.0228 85.9108 62.9125C86.4828 62.8413 86.7366 62.5901 86.8312 62.0197C86.9498 61.3049 87.0668 60.5894 87.1822 59.8731C87.3039 59.1238 87.4204 58.3745 87.5462 57.6257C87.5759 57.4458 87.5909 57.2898 87.3991 57.2575C87.1079 57.9263 86.8271 58.5742 86.5431 59.2195C86.1344 60.143 85.4725 60.8518 84.6347 61.3957C84.2255 61.6614 83.7929 61.8923 83.3623 62.1237C82.9026 62.3712 82.4263 62.5917 81.9697 62.8429C81.7987 62.9359 81.6572 63.0758 81.4851 63.2079L81.4872 63.2063ZM28.0951 60.4758L28.0868 60.611C28.1607 60.6375 28.2329 60.6703 28.3083 60.6901C29.3213 60.9537 30.3472 61.1763 31.3462 61.4862C33.4262 62.1331 35.5093 62.782 37.5633 63.5085C41.7987 65.0055 46.1625 65.8609 50.6262 66.2541C50.9289 66.2811 51.2362 66.2577 51.5414 66.2577C51.4401 66.1648 51.3134 66.1041 51.1774 66.0835C50.1088 65.9124 49.0376 65.7585 47.9716 65.576C46.1396 65.264 44.2952 64.9993 42.4846 64.588C39.2845 63.8652 36.1952 62.7461 33.0632 61.7826C31.6254 61.3401 30.1912 60.8934 28.7259 60.5538C28.522 60.506 28.3062 60.4992 28.0951 60.4758ZM55.1632 66.1672C55.1632 66.227 55.1632 66.2868 55.1632 66.3466C55.3509 66.3627 55.5387 66.3903 55.7269 66.3929C57.8267 66.4205 59.9134 66.2567 61.9971 66.005C64.245 65.733 66.4982 65.5073 68.7472 65.2484C71.2484 64.9603 73.748 64.6592 76.2477 64.3597C76.4375 64.3368 76.6236 64.2833 76.8113 64.2443C76.8046 64.2042 76.7983 64.1642 76.7921 64.1247C75.5441 64.2209 74.2961 64.2921 73.0564 64.42C71.5609 64.576 70.0701 64.7793 68.5771 64.9587C66.3931 65.2187 64.2159 65.4938 62.0324 65.7356C60.5208 65.9025 59.0065 66.0476 57.4902 66.1573C56.7185 66.2109 55.9396 66.1651 55.1632 66.1651V66.1672ZM79.1186 53.3232C77.2643 53.2192 75.776 53.2743 75.152 53.4662C75.1073 53.9789 75.0615 54.5062 75.0116 55.0824C75.9715 54.9987 76.8597 54.9264 77.7458 54.838C77.8605 54.8264 77.9674 54.7744 78.0474 54.6913C78.3963 54.2623 78.7275 53.8229 79.1186 53.3201V53.3232ZM51.3116 49.1674L51.3563 49.0358C51.0199 48.9011 50.6886 48.7519 50.3465 48.6339C49.2649 48.2605 48.3153 47.7233 47.7309 46.6797C47.5837 46.4197 47.3669 46.1919 47.1729 45.959C47.0846 45.8669 46.9892 45.7821 46.8874 45.7052C46.6794 45.8695 46.6212 46.0406 46.6638 46.2647C46.7569 46.7494 46.5832 47.1586 46.2785 47.5278C46.1885 47.637 46.1225 47.766 46.0076 47.9438C47.7823 48.5517 49.5015 49.054 51.3116 49.1674ZM85.8287 55.97L85.8235 55.8447C85.24 55.7719 84.6587 55.6825 84.0742 55.6294C83.0129 55.532 81.9674 55.3062 80.9604 54.9571C80.7068 54.8654 80.462 54.7513 80.2288 54.6159C80.0473 54.5119 79.9168 54.3559 80.0057 54.0523C80.338 53.9727 80.6911 53.8671 81.0519 53.8058C81.9167 53.6576 82.7055 53.9535 83.4918 54.2779C83.2157 53.7865 82.6827 53.7189 82.2557 53.4855C82.5797 53.1875 82.4117 52.8193 82.4346 52.4902C82.4575 52.161 82.4414 51.8142 82.4409 51.4757C82.4409 51.1205 82.4539 50.7643 82.4331 50.4102C82.4138 50.0821 82.5199 49.7342 82.3187 49.4222C82.2621 49.5402 82.2309 49.6688 82.2271 49.7997C82.1925 50.7804 82.1594 51.761 82.1278 52.7413C82.1205 52.9935 82.1211 53.2442 81.9266 53.4392C81.664 53.4569 81.4107 53.4647 81.1596 53.4912C80.5688 53.5511 79.9981 53.7384 79.4867 54.0403C79.2169 54.2025 79.0401 54.5468 79.1051 54.7465C79.2247 55.1151 80.0041 55.5415 80.4389 55.4745C80.1133 55.2784 79.7109 55.1999 79.3989 54.7943C79.9792 54.9425 80.4794 55.033 80.9537 55.1989C82.3088 55.6715 83.7097 55.8655 85.1324 55.9341L85.8287 55.97ZM81.3442 52.4959C81.0639 52.4959 80.7815 52.4787 80.5023 52.499C79.2891 52.5864 78.0729 52.6472 76.8654 52.7861C73.7974 53.1402 70.7294 53.5297 67.6614 53.9087C67.4929 53.9295 67.3073 53.942 67.1705 54.1261C67.2527 54.1537 67.299 54.1859 67.3406 54.1781C68.4638 54.045 69.5885 53.9181 70.7091 53.7689C73.4215 53.4017 76.1437 53.1365 78.8731 52.9545C79.4124 52.9187 79.9542 52.9202 80.4929 52.8802C80.8028 52.8599 81.1362 52.8765 81.3442 52.4959ZM88.893 47.7686L88.9221 47.6677C88.8369 47.6266 88.7557 47.5637 88.6658 47.5476C87.4599 47.298 86.2545 47.0395 85.0429 46.8196C84.7065 46.7577 84.3493 46.8102 83.9749 46.8102C83.9941 47.3271 83.7986 47.6339 83.3176 47.7291C83.2521 47.7421 83.2058 47.8544 83.1143 47.9636C83.2536 48.0005 83.3306 48.0411 83.4054 48.0374C85.2348 47.9504 87.064 47.8608 88.893 47.7686ZM28.3161 55.5493C28.3161 55.4973 28.3203 55.4453 28.3219 55.3933C28.0728 55.1853 27.7327 55.2243 27.4446 55.1214C26.9246 54.9368 26.5414 55.1604 26.1498 55.4594C25.867 55.6676 25.5667 55.851 25.2523 56.0075C24.984 56.1463 24.686 56.2274 24.4114 56.3569C23.6798 56.7027 22.9471 57.0475 22.23 57.4219C21.9942 57.5533 21.7838 57.7261 21.6092 57.932C21.3762 58.1961 21.4142 58.3911 21.736 58.6938C21.58 58.1956 21.8364 57.998 22.1999 57.8561C23.2205 57.4567 24.2386 57.0511 25.2544 56.6393C25.5664 56.5134 25.9179 56.4209 26.1602 56.2087C26.6422 55.788 27.194 55.6695 27.7951 55.6367C27.9702 55.6167 28.1441 55.5876 28.3161 55.5493ZM73.4958 60.9438L73.6461 61.0312C73.9467 60.793 74.2701 60.5809 74.5421 60.312C75.4853 59.3693 76.4203 58.4171 77.335 57.4463C77.6563 57.1047 77.9143 56.7017 78.1914 56.3195C78.2689 56.2123 78.3739 56.0693 78.3568 55.9601C78.3048 55.6195 78.5128 55.3881 78.6402 55.1224C78.7379 54.9191 78.8482 54.7147 78.6662 54.4719C78.5174 54.7236 78.3901 54.9779 78.2273 55.2077C76.8405 57.1639 75.45 59.1181 73.5941 60.6781C73.5312 60.7327 73.527 60.8549 73.4958 60.9438ZM40.7592 66.5775L40.8263 66.4979C40.5273 66.3939 40.2335 66.2702 39.9282 66.1896C37.726 65.6072 35.5296 65.0009 33.3149 64.4694C31.9972 64.1533 30.7721 63.6894 29.6926 62.8574C29.2111 62.4872 28.7103 62.1414 28.2101 61.7956C28.0821 61.7072 27.9651 61.5595 27.7062 61.612C27.8034 61.7264 27.8596 61.8226 27.9417 61.8829C28.5137 62.3031 29.0982 62.7051 29.6635 63.1309C30.6609 63.8915 31.8178 64.4161 33.0471 64.6655C33.6914 64.7986 34.3289 64.9634 34.9674 65.1225C36.8987 65.6065 38.8293 66.0915 40.7592 66.5775ZM47.0559 52.4044L47.0497 52.5188C47.1053 52.538 47.1641 52.5812 47.2166 52.5744C52.6079 51.871 57.9986 51.165 63.3886 50.4565L63.3792 50.3493C63.2653 50.3423 63.151 50.3423 63.0371 50.3493C57.7112 51.0337 52.3842 51.7187 47.0559 52.4044ZM74.6237 59.1384C74.9981 58.8867 75.1707 58.4931 75.437 58.1852C75.7032 57.8774 75.9617 57.5659 76.2071 57.243C76.4525 56.9201 76.7963 56.6533 76.9559 56.1754C76.2357 56.3039 75.5763 56.4261 74.9149 56.5358C74.7001 56.5717 74.6294 56.7131 74.6273 56.8904C74.619 57.6247 74.6237 58.3589 74.6237 59.1384ZM54.6989 39.9161C54.7847 39.8797 54.8699 39.8407 54.9589 39.8069C55.5433 39.5812 56.2921 39.9707 56.4377 40.5796C56.5469 41.0387 56.6457 41.5005 56.7497 41.9607C57.0108 43.0953 57.2723 44.2298 57.5344 45.3641C57.5791 45.557 57.6145 45.7536 57.8911 45.907C57.7804 45.0188 57.5635 44.2253 57.3831 43.4266C57.2047 42.6367 56.9967 41.8531 56.8049 41.0663C56.613 40.2795 56.6078 39.446 56.2849 38.6223C55.6317 38.9645 55.1003 39.3472 54.6989 39.9161ZM60.1178 47.6869C60.1323 47.7233 60.1464 47.7592 60.1604 47.7956C60.2644 47.7581 60.3663 47.715 60.4657 47.6667C61.4105 47.1467 62.3527 46.6173 63.2986 46.0968C63.5638 45.9507 63.829 45.7957 64.1114 45.6891C65.0994 45.3142 65.3219 45.5851 65.4753 46.2783C65.5273 46.518 65.6709 46.6147 65.9563 46.544C66.0546 45.868 66.1123 45.2029 65.7312 44.491L60.1178 47.6869ZM56.3436 47.6349C56.3181 47.7727 56.2916 47.8367 56.2984 47.8949C56.3244 48.1123 56.3597 48.3286 56.3961 48.5449C56.5121 49.2319 56.3852 49.4113 55.6842 49.5387C55.5184 49.5688 55.352 49.5964 55.1845 49.6161C53.9625 49.7607 52.7405 49.9001 51.5185 50.0477C51.244 50.081 50.9731 50.1393 50.7001 50.1861C53.3037 49.9781 55.8928 49.691 58.4813 49.3998C58.5333 49.3936 58.5853 49.3255 58.6748 49.2532C58.5494 49.2012 58.4668 49.1445 58.3799 49.1372C58.1959 49.1216 58.0092 49.1305 57.8235 49.131C57.3644 49.131 57.2791 49.1424 57.1387 48.6547C57.0825 48.4395 56.983 48.238 56.8463 48.0626C56.7096 47.8872 56.5385 47.7415 56.3436 47.6344V47.6349ZM15.8985 54.4137L15.8871 54.3164C15.3998 54.2831 14.9131 54.2337 14.4254 54.2181C12.0079 54.1412 9.58937 54.0793 7.17293 53.9971C6.29673 53.9675 5.41273 53.9784 4.55993 53.7153C4.53757 53.7085 4.50273 53.7408 4.42733 53.7772C4.53653 53.8526 4.61661 53.9425 4.71437 53.968C4.95819 54.0367 5.20779 54.0831 5.46005 54.1063C6.55621 54.1838 7.65341 54.279 8.75165 54.3071C10.9663 54.3632 13.1826 54.3804 15.3983 54.4137C15.5652 54.4157 15.7316 54.4137 15.8985 54.4137ZM94.6515 54.2649C94.6515 54.2327 94.6515 54.1999 94.6515 54.1677C94.5327 54.1459 94.4124 54.1331 94.2917 54.1292C91.7457 54.2273 89.2002 54.3284 86.6549 54.4324C86.4948 54.4391 86.2613 54.3949 86.2681 54.6367C86.2748 54.8785 86.5083 54.8078 86.6643 54.8078C86.8203 54.8078 86.9675 54.7886 87.1188 54.7787C87.8764 54.7267 88.6335 54.6747 89.3907 54.6289C91.0571 54.5249 92.7239 54.4209 94.391 54.3169C94.4788 54.3052 94.5659 54.2879 94.6515 54.2649ZM70.6956 55.6731C70.8651 55.736 70.9556 55.8031 71.0409 55.7963C73.3554 55.6123 75.6923 55.7111 77.9886 55.2379C77.7924 55.1669 77.5846 55.1339 77.3761 55.1406C74.2451 55.1999 71.1834 55.4266 70.6956 55.6731ZM34.293 65.589C34.2998 65.5567 34.3065 65.5245 34.3128 65.4923C34.1762 65.4454 34.0374 65.4055 33.8968 65.3727C33.3165 65.2661 32.7372 65.1454 32.1522 65.07C30.9967 64.9208 29.925 64.5599 28.936 63.9359C28.5091 63.6665 28.04 63.4679 27.6011 63.2147C27.0177 62.8798 26.4452 62.5246 25.8664 62.1814C25.7775 62.1294 25.6792 62.0909 25.5856 62.0462C25.5893 62.0994 25.6045 62.1511 25.6302 62.1978C25.6559 62.2445 25.6914 62.285 25.7343 62.3166C26.1217 62.586 26.5008 62.8704 26.9074 63.1075C27.7233 63.5823 28.5611 64.0201 29.378 64.4928C30.0169 64.8737 30.723 65.1284 31.458 65.2432C31.9582 65.317 32.4584 65.3992 32.9602 65.4579C33.4028 65.5125 33.8484 65.5463 34.293 65.589ZM70.7065 54.0751L70.7008 53.9956C70.5724 54.0528 70.4242 54.0866 70.3202 54.1729C70.1798 54.2899 70.0773 54.4506 69.952 54.5889C69.5599 55.0153 69.315 55.5904 68.6921 55.7849C68.5231 55.8369 68.5361 56.0298 68.7004 56.1401C68.937 56.2987 69.2006 56.4229 69.4185 56.6029C69.977 57.0641 70.5042 57.5628 71.069 58.0157C71.3118 58.2097 71.6015 58.3927 71.8973 58.4624C72.2853 58.5534 72.7007 58.5326 73.1053 58.5466C73.1843 58.5492 73.266 58.4905 73.3466 58.4598C73.0376 58.3519 72.7157 58.2858 72.3893 58.2632C71.8781 58.2206 71.4657 58.0136 71.0976 57.6491C70.692 57.2471 70.238 56.8941 69.8007 56.5243C69.5766 56.3351 69.3431 56.1562 69.132 55.9872L70.7065 54.0751ZM29.6463 56.295L29.6166 56.4167C29.7508 56.4567 29.8824 56.515 30.0191 56.5337C30.8065 56.6423 31.569 56.8872 32.2723 57.2575C33.6882 58.0027 35.2145 58.3433 36.789 58.4671C38.3376 58.5887 39.8913 58.6449 41.443 58.7271C41.6931 58.7401 41.9448 58.7271 42.1954 58.7271C41.9797 58.6163 41.7649 58.5939 41.5491 58.5804C39.8804 58.4764 38.2091 58.4036 36.5441 58.2611C35.073 58.1353 33.6524 57.7848 32.3259 57.0963C31.904 56.8838 31.463 56.7116 31.0087 56.5821C30.5667 56.4505 30.1018 56.3881 29.6463 56.295ZM53.5798 66.8609C53.5637 66.824 53.5481 66.7871 53.5325 66.7501C53.3858 66.8229 53.2403 66.8983 53.0921 66.9675C52.4681 67.2577 51.8357 67.4241 51.1322 67.2868C50.5545 67.1739 49.9632 67.1209 49.3756 67.0699C48.2836 66.9748 47.1916 66.8718 46.0929 66.825C45.0321 66.7798 43.9681 66.799 42.9058 66.7964C42.8267 66.7964 42.7498 66.8484 42.5875 66.9004C43.1179 66.9004 43.5527 66.8807 43.9848 66.9035C46.4459 67.0341 48.9102 67.1381 51.348 67.5307C52.2242 67.6721 52.9111 67.318 53.5798 66.8609ZM89.7547 47.7811L89.737 47.9064C89.807 47.9341 89.8799 47.9542 89.9543 47.9662C91.5903 48.0515 93.2267 48.0905 94.8616 47.9662C96.1902 47.8622 97.5172 47.7093 98.85 47.9053C98.8697 47.9053 98.8942 47.8762 98.9446 47.8409C98.7132 47.6505 98.4428 47.6173 98.1828 47.6147C97.4252 47.6074 96.6618 47.5694 95.9109 47.6453C94.0458 47.8253 92.1702 47.8714 90.2986 47.7831C90.1176 47.7743 89.9361 47.7811 89.7547 47.7811ZM63.4427 53.8942L63.3439 53.7751C59.6796 56.1342 56.0153 58.4936 52.3511 60.8533C52.2826 60.9009 52.2175 60.953 52.1561 61.0093C52.1504 61.0143 52.146 61.0205 52.1433 61.0274C52.1406 61.0344 52.1396 61.0419 52.1405 61.0494C52.1462 61.0629 52.1649 61.0712 52.2091 61.1066L63.4427 53.8942ZM57.6306 48.2324L57.6992 48.2127C57.7084 48.1375 57.7084 48.0616 57.6992 47.9865C57.5001 47.2065 57.07 46.5882 56.3145 46.2803C55.6453 46.0073 54.9578 45.7505 54.2548 45.5929C51.9501 45.0755 49.6034 44.9689 47.2499 44.9757C47.2062 44.9757 47.163 45.0037 47.0538 45.0407C47.9576 45.0843 48.7833 45.1119 49.6075 45.167C50.4317 45.2221 51.2585 45.2923 52.0817 45.3797C53.276 45.5044 54.4507 45.7735 55.5802 46.181C56.5064 46.5159 57.1876 47.0931 57.5349 48.0322C57.5631 48.1007 57.595 48.1675 57.6306 48.2324ZM48.4828 56.6798C47.9981 55.9679 47.4428 55.3855 46.8937 54.8031C46.8136 54.7184 46.6898 54.6752 46.5858 54.6133L46.4818 54.6929C46.6175 55.02 46.7798 55.3393 46.8822 55.6767C46.993 56.0444 47.0486 56.4287 47.1334 56.8306C47.5764 56.8779 47.9976 56.8634 48.4828 56.6798ZM91.3864 50.6868C92.4301 50.6473 96.6623 49.314 97.2697 48.8351C97.0997 48.8689 96.9894 48.8824 96.8844 48.9126C95.2159 49.3927 93.5477 49.8742 91.8799 50.3571C91.766 50.3881 91.6551 50.4293 91.5487 50.4804C91.5003 50.5033 91.4733 50.5709 91.3864 50.6853V50.6868ZM6.53229 59.5877C6.50109 59.6875 6.47769 59.7218 6.48445 59.7483C6.49839 59.7966 6.52133 59.8417 6.55205 59.8815C6.86093 60.2933 7.26653 60.5705 7.78133 60.6058C9.31533 60.7098 10.8493 60.7909 12.3859 60.8783C12.4072 60.8783 12.4306 60.8481 12.5539 60.7592C12.0484 60.6838 11.6434 60.6256 11.23 60.6032C10.1666 60.5398 9.10369 60.4675 8.04081 60.3952C7.53225 60.3604 7.08609 60.1872 6.74809 59.7863C6.68029 59.7157 6.60822 59.6494 6.53229 59.5877ZM54.6136 59.8388C54.6396 59.9121 54.6411 59.9563 54.6614 59.9678C54.7789 60.0317 54.9006 60.0889 55.0218 60.1472C55.8574 60.5533 56.7029 60.9693 57.3384 61.6552C57.8797 62.2391 58.4949 62.4939 59.2671 62.4435C59.4688 62.4305 59.6721 62.4399 59.8739 62.4269C59.9539 62.4131 60.0322 62.3906 60.1074 62.3598L60.098 62.2495C59.8853 62.2402 59.6732 62.2293 59.461 62.2209C58.6992 62.1923 58.0482 61.9885 57.4699 61.4103C56.7419 60.6823 55.7992 60.2262 54.8393 59.8419C54.7789 59.8175 54.6999 59.8388 54.6141 59.8388H54.6136ZM43.6306 45.7343L43.6957 45.8623C44.2156 45.6449 44.7481 45.5211 45.3077 45.5404C45.7112 45.5544 45.8797 45.6964 45.9904 46.0848C46.0416 46.2464 46.0508 46.4184 46.0169 46.5844C45.9831 46.7505 45.9074 46.9052 45.797 47.0338C45.4028 47.5231 44.85 47.6703 44.2047 47.4763C44.0342 47.4243 43.8787 47.2626 43.5854 47.3687C43.7757 47.4867 43.8932 47.5767 44.0248 47.637C44.7736 47.975 45.5848 47.7618 46.0445 47.1035C46.3565 46.6579 46.3513 46.1899 46.0965 45.7203C45.8615 45.2866 45.4543 45.2632 45.0399 45.3173C44.7063 45.3648 44.3762 45.4342 44.0519 45.5253C43.9031 45.5659 43.7705 45.6631 43.6306 45.7343ZM61.1619 62.2781C61.1619 62.3265 61.1583 62.3743 61.1562 62.4227L70.1325 61.9167L70.1273 61.8185C67.1315 61.8351 64.1483 62.1003 61.1619 62.2781ZM8.88477 58.2918C7.89677 58.3636 6.97169 58.2731 6.32169 59.1555C6.72365 59.3802 7.06269 59.6105 7.48649 59.7218C7.46881 58.9689 7.61805 58.7759 8.32369 58.5737C8.43705 58.5409 8.55353 58.5159 8.66325 58.4733C8.71629 58.4509 8.75685 58.3958 8.88477 58.2918ZM90.5352 51.0378C90.5211 51.0066 90.5071 50.9749 90.4936 50.9432C90.3641 50.9687 90.2336 50.9905 90.1051 51.0201C89.0527 51.263 88.0184 51.5745 86.9331 51.692C85.7746 51.8173 84.6233 52.0087 83.4699 52.1766C83.3659 52.1917 83.2697 52.2458 83.1704 52.2806C83.1982 52.3106 83.2327 52.3335 83.2712 52.3472C83.3097 52.361 83.3509 52.3652 83.3914 52.3597C84.6644 52.1927 85.9363 52.0149 87.2103 51.8594C88.3569 51.7201 89.4468 51.3836 90.5352 51.0363V51.0378ZM95.1725 53.8214L95.249 53.9113C95.509 53.6737 95.7731 53.4433 96.0186 53.1969C96.5459 52.6613 97.1974 52.4252 97.9291 52.3872C98.4855 52.3586 99.0429 52.3571 99.5998 52.3352C99.8281 52.3264 100.055 52.2952 100.337 52.2687C100.254 52.1974 100.233 52.1647 100.21 52.1647C99.3663 52.1714 98.5213 52.16 97.6784 52.1948C96.5245 52.2375 95.7695 52.9171 95.1725 53.8198V53.8214ZM100.606 55.0891L100.612 54.982C99.5151 54.67 95.9323 54.3934 95.3603 54.6222L100.606 55.0891ZM99.8203 57.1879C99.0361 57.4369 98.3227 57.2024 97.6363 56.8613C97.0799 56.5841 96.5443 56.2664 95.9993 55.9664C95.8605 55.8894 95.7237 55.8104 95.5833 55.7308L95.5131 55.8182C95.5969 55.8998 95.6691 56.0028 95.7664 56.0595C96.4216 56.4365 97.0726 56.8233 97.746 57.1655C98.071 57.3303 98.4361 57.4338 98.7943 57.5144C99.1635 57.5966 99.5239 57.5373 99.8203 57.1879ZM22.866 58.0672C22.88 58.1067 22.8936 58.1457 22.9071 58.1852C23.2352 58.0724 23.568 57.9694 23.8914 57.8441C24.4874 57.6127 25.1082 57.4234 25.6621 57.1161C26.3469 56.736 26.9927 56.2877 27.7561 56.048C27.592 56.0314 27.4263 56.0522 27.2715 56.1089C26.8705 56.2799 26.4493 56.4297 26.09 56.6689C25.5128 57.0478 24.8881 57.3487 24.232 57.5638C23.7724 57.7198 23.321 57.8992 22.866 58.0672ZM89.114 51.9951L88.9669 51.9593C88.7292 52.6316 88.4911 53.304 88.2503 53.9873C88.7079 53.9919 88.8842 53.9285 88.9195 53.6862C89.0043 53.123 89.0521 52.5583 89.1151 51.9951H89.114ZM22.3294 59.5112L22.2472 59.4592C22.1874 59.5086 22.0876 59.5492 22.0751 59.6085C21.9872 60.0323 21.8499 60.4618 21.8588 60.8866C21.8686 61.3687 22.4396 61.7904 23.0168 61.7935C22.8384 61.6375 22.71 61.5117 22.567 61.404C22.203 61.1315 22.0756 60.78 22.1708 60.337C22.2295 60.0598 22.2768 59.7858 22.3294 59.5112ZM25.2507 62.0072L25.3324 61.9292C25.1244 61.5829 24.9408 61.2225 24.7084 60.8949C24.4962 60.5959 24.2367 60.3307 23.9918 60.0562C23.9024 59.9563 23.7781 59.8851 23.699 59.779C23.3673 59.3339 22.8993 59.1176 22.3866 58.9751C22.3122 58.9543 22.2269 58.972 22.1468 58.972C22.3616 59.1089 22.5921 59.2194 22.8333 59.3011C23.2321 59.4509 23.4458 59.8211 23.7573 60.0697C24.165 60.3957 24.4598 60.7857 24.7042 61.2381C24.8519 61.5158 25.0661 61.754 25.2523 62.0093L25.2507 62.0072ZM65.0531 46.9272C65.1535 47.3115 64.9361 47.3755 64.6491 47.4347C63.8067 47.6089 62.9695 47.8076 62.1317 48.0031C61.9804 48.0456 61.8313 48.0958 61.6851 48.1534C61.7833 48.2329 61.8629 48.247 61.9357 48.2309C62.9081 48.0187 63.881 47.8076 64.8508 47.585C65.2699 47.493 65.3022 47.3942 65.0531 46.9314V46.9272ZM55.5517 41.2811L55.405 41.3429C55.6874 42.3818 56.0387 43.4006 56.4565 44.3927L56.5553 44.36C56.2204 43.3335 55.8858 42.3072 55.5517 41.2811ZM71.1995 61.7009L71.2307 61.832C72.0003 61.8507 72.6581 61.5059 73.3216 61.196C73.2889 60.897 73.1459 60.974 72.9977 61.0369C72.5817 61.2127 72.1657 61.3905 71.7497 61.5533C71.5718 61.6198 71.3825 61.6526 71.1995 61.7009ZM10.4448 59.0073C10.9371 59.3482 11.4871 59.5969 12.0682 59.7416C11.5841 59.4712 11.0802 59.2382 10.58 59.0099C10.5355 59.0004 10.4896 58.9995 10.4448 59.0073ZM48.5431 56.2155L48.6362 56.1484C48.528 55.9924 48.4344 55.8203 48.307 55.6804C48.1895 55.5525 48.1136 55.3294 47.7699 55.3892L48.5431 56.2155ZM83.0087 49.7181L82.964 49.7259V51.536H83.0087V49.7181ZM66.4249 51.2484C66.4571 51.6727 66.4093 52.0659 66.0031 52.3331C66.5777 52.0477 66.6178 51.9478 66.4249 51.2484ZM74.5701 53.9732L74.4396 53.9306C74.2555 54.2218 74.2717 54.5546 74.3465 54.9009C74.4211 54.5913 74.4956 54.283 74.5701 53.9758V53.9732ZM23.7443 60.6074C23.5919 60.104 23.3964 60.0177 23.061 60.2595L23.7443 60.6074ZM20.6596 54.8598C20.1948 54.8567 19.7439 54.7007 19.3128 54.9305L20.6596 54.8598ZM43.7804 47.0265L43.7544 47.1264L44.393 47.2943L44.4164 47.2065L43.7804 47.0265ZM44.0056 46.0505L43.9385 45.9917L43.6431 46.3147L43.718 46.3833C43.8163 46.272 43.9099 46.1613 44.0056 46.0505Z" fill="url(#paint0_radial_463_27579)"/>
<path d="M34.8636 51.5387C36.239 51.1805 37.6295 50.8731 39.0553 50.8872C39.8249 50.8945 40.6013 51.0213 41.36 51.1675C42.0152 51.2933 42.5149 51.7015 42.8748 52.273C43.6683 53.5309 44.1888 54.898 44.4868 56.3493C44.6147 56.9733 44.3755 57.4512 43.8789 57.6525C43.7719 57.7026 43.6549 57.7278 43.5367 57.7263C41.1447 57.5355 38.7563 57.3623 36.3706 57.1314C34.7627 56.9754 33.2298 56.4954 31.754 55.8397C30.3583 55.2199 28.9034 54.9037 27.3714 54.9656C27.3218 54.9655 27.2723 54.9603 27.2237 54.95C27.2087 54.95 27.1962 54.9307 27.1671 54.9089C27.1249 54.6853 27.3158 54.6489 27.4604 54.5823C28.2596 54.2183 29.0531 53.8429 29.8633 53.5049C31.4342 52.8492 33.015 52.2168 34.5922 51.5741L34.8636 51.5387ZM27.6216 54.6983C29.9938 54.9307 29.999 54.9183 32.2641 55.8038C33.547 56.3056 34.8594 56.7024 36.2271 56.8246C38.6014 57.0362 40.9819 57.1818 43.3599 57.3488C43.7827 57.3784 43.9839 57.2105 44.0432 56.7924C44.0688 56.6254 44.064 56.4553 44.0292 56.29C43.726 54.9822 43.2762 53.7321 42.5815 52.5751C42.2175 51.9709 41.6975 51.5902 41.0178 51.4691C40.4042 51.3593 39.7792 51.2611 39.1588 51.2522C37.3785 51.2268 35.6085 51.5275 33.9364 52.1394C31.9084 52.8876 29.9184 53.7326 27.9122 54.5387C27.8122 54.5859 27.7151 54.6393 27.6216 54.6983Z" fill="white"/>
<path d="M55.0361 59.5529C55.7303 59.1593 56.3486 58.8119 56.9638 58.4609C58.8555 57.3752 60.7494 56.2925 62.6344 55.1948C62.9522 55.0042 63.3065 54.8827 63.6744 54.8381C65.6556 54.6079 67.6364 54.3748 69.6169 54.1387C69.652 54.1394 69.687 54.1443 69.7209 54.1532C69.8769 54.315 69.7766 54.4652 69.6819 54.6015C69.5114 54.8526 69.3465 55.1116 69.1484 55.3399C69.0403 55.463 68.8968 55.5497 68.7376 55.5884C68.5 55.6373 68.333 55.7361 68.229 55.9748C68.2899 56.0492 68.3372 56.1511 68.4173 56.1989C69.2664 56.709 69.9253 57.4277 70.5919 58.1411C71.0236 58.6024 71.6024 58.8991 72.2289 58.9804C72.9408 59.0844 73.648 59.2134 74.4768 59.3517C74.2798 59.5207 74.1815 59.6257 74.0645 59.7027C73.4998 60.0745 72.9553 60.4874 72.3563 60.7947C71.6694 61.1452 70.9523 61.4229 70.1452 61.4463C66.5104 61.5531 62.8762 61.6744 59.2424 61.8103C58.9068 61.8314 58.5732 61.7453 58.2898 61.5643C57.3746 60.9876 56.4422 60.438 55.5177 59.8759C55.3804 59.788 55.2457 59.6918 55.0361 59.5529Z" fill="white"/>
<path d="M4.10156 53.1266C4.19984 52.7833 4.37872 52.6892 4.66732 52.6819C8.41999 52.5849 12.1728 52.4808 15.9258 52.3699C20.2866 52.2482 24.6476 52.1269 29.009 52.0059C30.2893 51.9716 31.57 51.9539 32.8778 51.9846C32.7322 52.0475 32.5898 52.1182 32.441 52.1718C31.6969 52.4422 30.9564 52.7251 30.205 52.9685C29.8577 53.0803 29.4848 53.1728 29.124 53.1723C21.142 53.1643 13.1598 53.1481 5.17744 53.1234C4.8254 53.1255 4.47544 53.1266 4.10156 53.1266Z" fill="white"/>
<path d="M51.096 55.3916C51.408 55.3515 51.6243 55.3104 51.8448 55.2969C52.2977 55.2699 52.7522 55.2688 53.2046 55.234C53.6252 55.2018 54.0428 55.13 54.4635 55.0946C54.6615 55.0815 54.859 55.1275 55.0308 55.2267C54.958 55.2948 54.8961 55.3983 54.8098 55.4248C54.1 55.6443 53.6346 56.1331 53.2878 56.7623C53.24 56.8517 53.1832 56.9361 53.1183 57.014C52.9446 57.2157 52.8062 57.222 52.6034 57.0415C52.5905 57.0306 52.5787 57.0184 52.5681 57.0051C51.4761 55.6287 49.952 54.8981 48.3826 54.2429C47.7586 53.9829 47.1346 53.7281 46.4529 53.6631C46.3858 53.6558 46.3219 53.6306 46.2678 53.5903C45.702 53.1646 45.1389 52.7351 44.5783 52.3017C44.5009 52.2352 44.4391 52.1525 44.3973 52.0594C44.2174 51.6954 44.3583 51.4313 44.7613 51.3834C45.7187 51.2716 46.677 51.1713 47.6349 51.0636C49.6174 50.8421 51.6002 50.6195 53.5831 50.3959C55.5321 50.1772 57.4812 49.9588 59.4305 49.7407L65.3788 49.0757C67.2773 48.863 69.1748 48.6597 71.0744 48.4314C72.1456 48.3035 73.2095 48.1194 74.2807 47.9941C75.5401 47.8464 76.8032 47.7289 78.0658 47.6082C79.1598 47.5042 80.2546 47.408 81.3501 47.3196C81.5677 47.3035 81.7754 47.2221 81.946 47.0862C82.454 46.7024 83.298 46.641 83.8887 46.9681C83.7062 46.9494 83.6162 46.9447 83.5284 46.9302C83.1088 46.8588 82.6775 46.9131 82.2887 47.0862C82.0287 47.1969 81.88 47.3633 81.9049 47.6675C81.9299 47.9717 82.0126 48.1314 82.3334 48.2135C82.6412 48.292 82.9657 48.3071 83.2824 48.3508C83.4582 48.3747 83.6682 48.3274 83.7436 48.5671C83.6948 48.7782 83.5211 48.8271 83.3547 48.8224C82.9522 48.811 82.5383 48.8224 82.1498 48.732C81.4218 48.5661 81.2404 48.316 81.1795 47.536C80.8337 47.5604 80.4848 47.5739 80.1395 47.6114C77.8702 47.854 75.6011 48.1002 73.3322 48.3498C73.2643 48.3524 73.1974 48.3662 73.1341 48.3908C72.3541 48.7736 71.4935 48.7091 70.6672 48.8027C67.2404 49.1916 63.8105 49.5499 60.3811 49.9149C57.6771 50.203 54.9674 50.4823 52.2603 50.7698C49.7889 51.0323 47.3178 51.2995 44.8471 51.5717C44.7281 51.5847 44.544 51.6465 44.5206 51.7277C44.4904 51.828 44.557 52.0074 44.6428 52.0849C45.2886 52.6694 45.8944 53.2908 46.7961 53.53C48.3551 53.9423 49.8137 54.6121 51.096 55.3916Z" fill="white"/>
<path d="M60.4037 55.4065L54.3009 59.2115C54.2297 59.1028 54.1517 59.0295 54.1293 58.9421C53.7575 57.4991 53.8693 56.3483 55.4621 55.7814C55.785 55.666 56.1605 55.6951 56.512 55.6608C57.6373 55.5509 58.7629 55.4427 59.8889 55.3363C60.0495 55.3212 60.2123 55.3363 60.374 55.3363L60.4037 55.4065Z" fill="white"/>
<path d="M81.4844 63.2083C81.6565 63.0762 81.7964 62.9363 81.9659 62.8442C82.4245 62.5941 82.8988 62.3726 83.3585 62.1251C83.789 61.8931 84.2217 61.6623 84.6309 61.397C85.4686 60.8531 86.1306 60.1443 86.5393 59.2208C86.8248 58.5755 87.1041 57.9275 87.3953 57.2588C87.5871 57.291 87.5721 57.447 87.5424 57.627C87.4176 58.3758 87.3011 59.1251 87.1784 59.8745C87.0623 60.59 86.9453 61.3055 86.8274 62.0211C86.7328 62.5931 86.4764 62.8427 85.907 62.9139C85.0376 63.0226 84.1666 63.1219 83.2976 63.2322C82.8962 63.2842 82.4979 63.3559 82.0964 63.4064C81.9051 63.4313 81.6913 63.5062 81.4844 63.2083Z" fill="white"/>
<path d="M28.0945 60.4761C28.3056 60.5016 28.5214 60.5083 28.7273 60.5562C30.1927 60.8957 31.6268 61.3424 33.0646 61.7849C36.1966 62.7485 39.2859 63.8649 42.486 64.5903C44.2966 65.0001 46.1411 65.2601 47.9756 65.5721C49.0416 65.7546 50.1128 65.9085 51.1814 66.0796C51.3174 66.1002 51.4441 66.1609 51.5454 66.2538C51.2402 66.2538 50.9329 66.2772 50.6302 66.2502C46.1665 65.8571 41.8027 65.0022 37.5673 63.5046C35.5133 62.7766 33.4312 62.1292 31.3502 61.4823C30.3513 61.1703 29.3253 60.9498 28.3123 60.6862C28.2369 60.6664 28.1647 60.6342 28.0908 60.6071L28.0945 60.4761Z" fill="white"/>
<path d="M55.1631 66.1651C55.9394 66.1651 56.7184 66.2109 57.4906 66.1552C59.0069 66.046 60.5212 65.9004 62.0328 65.7335C64.2168 65.4917 66.3961 65.2187 68.5775 64.9566C70.0705 64.7772 71.5613 64.5724 73.0568 64.4179C74.2991 64.29 75.5471 64.2188 76.7925 64.1226C76.7987 64.1621 76.805 64.2021 76.8117 64.2422C76.624 64.2812 76.4378 64.3347 76.248 64.3576C73.7484 64.6571 71.2488 64.9582 68.7476 65.2463C66.4986 65.5063 64.2454 65.7309 61.9974 66.0029C59.9138 66.2545 57.8271 66.4189 55.7273 66.3908C55.5391 66.3908 55.3513 66.3606 55.1636 66.3445C55.1636 66.2847 55.1636 66.2249 55.1631 66.1651Z" fill="white"/>
<path d="M79.1187 53.3204C78.7276 53.8232 78.3959 54.2626 78.0475 54.6885C77.9675 54.7715 77.8606 54.8235 77.7459 54.8351C76.8619 54.922 75.9716 54.9958 75.0117 55.0795C75.0637 54.5023 75.1074 53.9761 75.1521 53.4634C75.7761 53.2715 77.2644 53.2174 79.1187 53.3204Z" fill="white"/>
<path d="M51.3108 49.1678C49.5007 49.0544 47.7816 48.5521 46.0068 47.9432C46.1218 47.7643 46.1878 47.6354 46.2778 47.5272C46.5825 47.158 46.7562 46.7472 46.6631 46.2641C46.6204 46.04 46.6766 45.8689 46.8867 45.7046C46.9884 45.7815 47.0839 45.8663 47.1722 45.9584C47.3672 46.1913 47.583 46.4165 47.7301 46.6791C48.3146 47.7227 49.2641 48.2599 50.3457 48.6332C50.6879 48.7513 51.0217 48.9005 51.3556 49.0352L51.3108 49.1678Z" fill="white"/>
<path d="M85.8283 55.9704L85.1346 55.9387C83.7108 55.8701 82.311 55.6787 80.9559 55.2034C80.4816 55.0376 79.9814 54.9471 79.401 54.7989C79.7099 55.2045 80.1129 55.283 80.441 55.479C80.0063 55.5446 79.2268 55.1182 79.1072 54.751C79.0422 54.5514 79.219 54.2071 79.4889 54.0449C80.0003 53.743 80.571 53.5556 81.1618 53.4958C81.4129 53.4677 81.6662 53.4599 81.9288 53.4438C82.1233 53.2488 82.1227 52.9981 82.13 52.7459C82.1595 51.7652 82.1926 50.7847 82.2293 49.8043C82.2331 49.6734 82.2643 49.5448 82.3209 49.4268C82.5221 49.7388 82.416 50.0856 82.4353 50.4148C82.4561 50.7689 82.4425 51.1251 82.4431 51.4802C82.4431 51.8182 82.4618 52.1562 82.4368 52.4948C82.4119 52.8333 82.5819 53.1921 82.2579 53.49C82.6849 53.7235 83.2179 53.7911 83.494 54.2825C82.7077 53.958 81.9189 53.6622 81.0541 53.8104C80.6933 53.8717 80.3402 53.9773 80.0079 54.0568C79.9205 54.3626 80.0495 54.5186 80.231 54.6205C80.4642 54.7558 80.709 54.87 80.9626 54.9616C81.9696 55.3108 83.0151 55.5365 84.0764 55.634C84.6609 55.686 85.2422 55.7765 85.8257 55.8493L85.8283 55.9704Z" fill="white"/>
<path d="M81.3443 52.4959C81.1363 52.8766 80.803 52.8599 80.4962 52.8828C79.9575 52.9228 79.4157 52.9213 78.8764 52.9572C76.1459 53.1391 73.4237 53.4043 70.7124 53.7715C69.5918 53.9233 68.4671 54.0476 67.3439 54.1807C67.3023 54.1859 67.256 54.1536 67.1738 54.1287C67.3106 53.9446 67.4962 53.9321 67.6647 53.9113C70.7327 53.5323 73.7971 53.1428 76.8687 52.7887C78.0761 52.6498 79.2924 52.589 80.5056 52.5016C80.7817 52.4788 81.0641 52.4959 81.3443 52.4959Z" fill="white"/>
<path d="M88.893 47.7685C87.0637 47.8587 85.2345 47.9479 83.4055 48.0363C83.3306 48.04 83.2536 47.9994 83.1143 47.9625C83.2058 47.8533 83.2521 47.741 83.3176 47.728C83.7986 47.6328 83.9936 47.326 83.9749 46.8091C84.3493 46.8091 84.7065 46.7571 85.0429 46.8185C86.2545 47.0395 87.4599 47.2979 88.6658 47.5465C88.7557 47.5647 88.8369 47.6255 88.9221 47.6666L88.893 47.7685Z" fill="white"/>
<path d="M28.3161 55.5495C28.1443 55.5868 27.9708 55.6151 27.7961 55.6342C27.1949 55.6696 26.6432 55.7902 26.1612 56.2062C25.9189 56.4184 25.5663 56.511 25.2553 56.6368C24.24 57.0483 23.2218 57.4539 22.2009 57.8536C21.8369 57.9956 21.5831 58.1932 21.737 58.6914C21.4152 58.3887 21.3772 58.1937 21.6102 57.9295C21.7848 57.7236 21.9951 57.5508 22.231 57.4194C22.9481 57.045 23.6808 56.7002 24.4124 56.3544C24.687 56.225 24.9844 56.1464 25.2533 56.005C25.568 55.8477 25.8684 55.6635 26.1513 55.4543C26.5429 55.1553 26.9282 54.9343 27.4461 55.1163C27.7342 55.2203 28.0743 55.1798 28.3233 55.3883C28.3202 55.4439 28.3202 55.4964 28.3161 55.5495Z" fill="white"/>
<path d="M73.4951 60.9441C73.5263 60.8536 73.5305 60.7314 73.5934 60.6784C75.4493 59.1184 76.8398 57.1642 78.2266 55.208C78.3894 54.9781 78.5168 54.7238 78.6655 54.4722C78.8491 54.715 78.7373 54.9194 78.6395 55.1227C78.5116 55.3894 78.3031 55.6198 78.3561 55.9604C78.3733 56.0696 78.2682 56.2126 78.1908 56.3197C77.9136 56.7019 77.6557 57.1049 77.3343 57.4466C76.4196 58.4174 75.4847 59.3706 74.5414 60.3123C74.272 60.5811 73.946 60.7933 73.6454 61.0314L73.4951 60.9441Z" fill="white"/>
<path d="M40.7591 66.5776C38.8289 66.0923 36.8983 65.6082 34.9673 65.1253C34.3288 64.9662 33.6913 64.8013 33.047 64.6682C31.8177 64.4189 30.6608 63.8943 29.6633 63.1337C29.0981 62.7053 28.5131 62.3018 27.9416 61.8858C27.8595 61.8254 27.8033 61.7298 27.7061 61.6148C27.9661 61.5628 28.082 61.71 28.2099 61.7984C28.7102 62.1442 29.2109 62.49 29.6925 62.8602C30.772 63.6922 31.9971 64.156 33.3148 64.4722C35.5295 65.0036 37.7259 65.6099 39.9281 66.1923C40.2334 66.2729 40.5272 66.3967 40.8262 66.5007L40.7591 66.5776Z" fill="white"/>
<path d="M47.0555 52.4045C52.3838 51.7188 57.7114 51.0343 63.0383 50.351C63.1522 50.3439 63.2665 50.3439 63.3804 50.351L63.3898 50.4581C57.9984 51.1653 52.6077 51.8713 47.2177 52.5761C47.1657 52.5829 47.1064 52.5397 47.0508 52.5205L47.0555 52.4045Z" fill="white"/>
<path d="M74.6234 59.1387C74.6234 58.3587 74.6187 57.625 74.627 56.8908C74.627 56.7135 74.6998 56.572 74.9146 56.5361C75.5761 56.4264 76.2354 56.3042 76.9557 56.1758C76.796 56.6537 76.4549 56.9173 76.2068 57.2433C75.9588 57.5694 75.7014 57.8783 75.4367 58.1856C75.172 58.4929 74.9978 58.8871 74.6234 59.1387Z" fill="white"/>
<path d="M54.6982 39.9163C55.1002 39.3474 55.6311 38.9647 56.2858 38.6226C56.6082 39.4462 56.6134 40.2782 56.8058 41.0666C56.9982 41.8549 57.2057 42.637 57.384 43.4268C57.5645 44.2256 57.7813 45.0191 57.8921 45.9072C57.6154 45.7512 57.5801 45.5573 57.5354 45.3644C57.2743 44.2297 57.0128 43.0953 56.7507 41.961C56.6467 41.5008 56.5427 41.039 56.4387 40.5798C56.2931 39.9709 55.5443 39.5814 54.9598 39.8071C54.8693 39.8409 54.784 39.8799 54.6982 39.9163Z" fill="white"/>
<path d="M60.1172 47.6871L65.7332 44.4912C66.1144 45.2031 66.0566 45.8671 65.9584 46.5442C65.6729 46.6149 65.5309 46.5182 65.4774 46.2784C65.3214 45.5858 65.1035 45.3144 64.1134 45.6893C63.831 45.7959 63.5658 45.9493 63.3006 46.097C62.3548 46.617 61.4125 47.1448 60.4677 47.6668C60.3683 47.7152 60.2664 47.7583 60.1624 47.7958C60.1437 47.7594 60.1317 47.7235 60.1172 47.6871Z" fill="white"/>
<path d="M56.3438 47.6348C56.5387 47.7419 56.7098 47.8877 56.8465 48.0632C56.9832 48.2387 57.0827 48.4403 57.1388 48.6555C57.2792 49.1433 57.3645 49.1334 57.8237 49.1318C58.0093 49.1318 58.196 49.1225 58.3801 49.1381C58.4669 49.1454 58.5496 49.2026 58.6749 49.254C58.5829 49.3263 58.5356 49.3944 58.4815 49.4007C55.8929 49.6919 53.3038 49.9779 50.7002 50.1869C50.9732 50.1401 51.2441 50.0829 51.5187 50.0486C52.7402 49.9009 53.9627 49.7616 55.1847 49.617C55.3521 49.5972 55.5185 49.5697 55.6844 49.5395C56.3854 49.4121 56.5122 49.2327 56.3963 48.5458C56.3599 48.3295 56.3245 48.1132 56.2985 47.8958C56.2912 47.8365 56.3183 47.7726 56.3438 47.6348Z" fill="white"/>
<path d="M15.8981 54.4137C15.7312 54.4137 15.5648 54.4137 15.3978 54.4137C13.1821 54.3804 10.9659 54.3617 8.7512 54.3071C7.65296 54.279 6.55576 54.1838 5.4596 54.1063C5.20665 54.0832 4.95635 54.0369 4.71184 53.968C4.61408 53.9425 4.534 53.8526 4.4248 53.7771C4.5002 53.7407 4.53504 53.7085 4.5574 53.7153C5.4102 53.9784 6.2942 53.9675 7.1704 53.9971C9.58736 54.0793 12.0064 54.1412 14.4228 54.2181C14.9106 54.2337 15.3973 54.2831 15.8846 54.3164L15.8981 54.4137Z" fill="white"/>
<path d="M94.6511 54.265C94.5656 54.2879 94.4788 54.3053 94.3911 54.317C92.7246 54.421 91.0579 54.525 89.3907 54.629C88.6336 54.6769 87.8765 54.7289 87.1189 54.7788C86.9675 54.7887 86.8162 54.8059 86.6644 54.8079C86.5125 54.81 86.277 54.887 86.2697 54.6389C86.2624 54.3909 86.4964 54.4413 86.6566 54.4345C89.2018 54.3305 91.7474 54.2295 94.2933 54.1313C94.414 54.1352 94.5343 54.1481 94.6532 54.1698C94.6521 54.2 94.6516 54.2328 94.6511 54.265Z" fill="white"/>
<path d="M70.6953 55.6734C71.1831 55.427 74.2448 55.2003 77.3758 55.141C77.5843 55.1343 77.7921 55.1673 77.9883 55.2382C75.692 55.7114 73.3551 55.6126 71.0406 55.7966C70.9558 55.8034 70.8648 55.7363 70.6953 55.6734Z" fill="white"/>
<path d="M34.2929 65.5891C33.8483 65.5465 33.4027 65.5127 32.9596 65.4581C32.4578 65.3968 31.9576 65.3172 31.4574 65.2434C30.7224 65.1286 30.0163 64.8739 29.3773 64.493C28.5604 64.0203 27.7227 63.5825 26.9068 63.1077C26.5002 62.8706 26.1211 62.5877 25.7337 62.3168C25.6908 62.2852 25.6553 62.2446 25.6296 62.1979C25.6039 62.1513 25.5887 62.0995 25.585 62.0464C25.6786 62.0911 25.7768 62.1286 25.8658 62.1816C26.4445 62.5248 27.017 62.88 27.6005 63.2148C28.0394 63.466 28.5084 63.6667 28.9353 63.9361C29.9233 64.5601 30.9961 64.9209 32.1516 65.0702C32.7366 65.1456 33.3158 65.2662 33.8962 65.3728C34.0368 65.4056 34.1756 65.4455 34.3122 65.4924C34.3064 65.5247 34.3002 65.5569 34.2929 65.5891Z" fill="white"/>
<path d="M70.7058 54.0753L69.1312 55.9852C69.3423 56.1542 69.5758 56.333 69.7999 56.5223C70.2372 56.892 70.6912 57.2451 71.0968 57.647C71.465 58.011 71.8768 58.219 72.3885 58.2611C72.7149 58.2838 73.0369 58.3499 73.3458 58.4577C73.2652 58.4884 73.1836 58.5471 73.1045 58.5445C72.7 58.5305 72.2845 58.5513 71.8966 58.4603C71.6007 58.3906 71.311 58.2076 71.0682 58.0136C70.5035 57.5607 69.9762 57.0621 69.4177 56.6008C69.1998 56.4209 68.9362 56.2966 68.6996 56.1381C68.5353 56.0278 68.5223 55.8354 68.6913 55.7829C69.3153 55.5884 69.5592 55.0133 69.9512 54.587C70.0766 54.4507 70.179 54.29 70.3194 54.171C70.4234 54.0847 70.5716 54.0509 70.7 53.9937L70.7058 54.0753Z" fill="white"/>
<path d="M29.6459 56.2954C30.1014 56.3885 30.5663 56.4514 31.0103 56.5825C31.4646 56.7121 31.9056 56.8843 32.3275 57.0968C33.654 57.7853 35.0747 58.1368 36.5457 58.2616C38.2097 58.4041 39.8821 58.4769 41.5507 58.5809C41.7665 58.5944 41.9813 58.6168 42.1971 58.7276C41.9465 58.7276 41.6948 58.7385 41.4447 58.7276C39.893 58.6475 38.3392 58.5913 36.7907 58.4676C35.2161 58.3438 33.6899 58.0032 32.2739 57.258C31.57 56.8874 30.8068 56.6424 30.0187 56.5341C29.8819 56.5154 29.7504 56.4571 29.6162 56.4171L29.6459 56.2954Z" fill="white"/>
<path d="M53.5791 66.8612C52.9104 67.3183 52.2235 67.6724 51.3473 67.5315C48.9095 67.1389 46.4453 67.0349 43.9841 66.9044C43.552 66.8815 43.1173 66.9013 42.5869 66.9013C42.7471 66.8493 42.8261 66.7973 42.9052 66.7973C43.9675 66.7973 45.0314 66.7806 46.0922 66.8258C47.1884 66.8726 48.2819 66.9756 49.3749 67.0708C49.9625 67.1228 50.5538 67.1748 51.1315 67.2876C51.835 67.4249 52.4684 67.2585 53.0913 66.9683C53.2395 66.8992 53.3851 66.8238 53.5318 66.751C53.5474 66.7874 53.563 66.8243 53.5791 66.8612Z" fill="white"/>
<path d="M89.754 47.7811C89.9355 47.7811 90.118 47.7743 90.2979 47.7811C92.1696 47.8694 94.0452 47.8233 95.9103 47.6433C96.6612 47.5674 97.4245 47.6053 98.1822 47.6126C98.4422 47.6152 98.7126 47.6485 98.944 47.8388C98.892 47.8742 98.8691 47.9059 98.8493 47.9033C97.5166 47.7073 96.1895 47.8622 94.8609 47.9642C93.226 48.0895 91.5896 48.0505 89.9537 47.9642C89.8793 47.9522 89.8064 47.9321 89.7363 47.9044L89.754 47.7811Z" fill="white"/>
<path d="M63.4416 53.8944L52.2096 61.1078C52.1654 61.0725 52.1466 61.0642 52.1409 61.0507C52.1401 61.0432 52.1411 61.0357 52.1438 61.0287C52.1465 61.0217 52.1509 61.0155 52.1565 61.0106C52.218 60.9543 52.2831 60.9022 52.3515 60.8546C56.0147 58.4942 59.679 56.1347 63.3443 53.7764L63.4416 53.8944Z" fill="white"/>
<path d="M57.6302 48.2326C57.5937 48.1678 57.5609 48.1009 57.5319 48.0324C57.1845 47.0933 56.5033 46.5161 55.5772 46.1812C54.4477 45.7736 53.273 45.5046 52.0787 45.3799C51.2557 45.2925 50.431 45.2216 49.6045 45.1672C48.7803 45.1121 47.9545 45.0845 47.0508 45.0408C47.16 45.0039 47.2031 44.9764 47.2468 44.9758C49.6003 44.9696 51.9471 45.0757 54.2517 45.5931C54.9548 45.7491 55.6422 46.0091 56.3115 46.2805C57.067 46.5884 57.4971 47.2061 57.6962 47.9866C57.7054 48.0618 57.7054 48.1377 57.6962 48.2128L57.6302 48.2326Z" fill="#254D9B"/>
<path d="M48.4823 56.6798C47.9972 56.8649 47.576 56.8794 47.134 56.8306C47.0492 56.4286 46.9936 56.0443 46.8828 55.6767C46.7788 55.3392 46.6181 55.0199 46.4824 54.6928L46.5864 54.6133C46.6904 54.6752 46.8142 54.7173 46.8943 54.8031C47.4444 55.3839 47.9977 55.9663 48.4823 56.6798Z" fill="#254D9B"/>
<path d="M91.3857 50.6853C91.4726 50.5709 91.4996 50.5033 91.548 50.4773C91.6544 50.4263 91.7653 50.385 91.8792 50.3541C93.5474 49.8712 95.2155 49.3896 96.8837 48.9095C96.9877 48.8794 97.099 48.8658 97.269 48.832C96.6617 49.3125 92.4294 50.6479 91.3857 50.6853Z" fill="#254D9B"/>
<path d="M6.53176 59.5879C6.6076 59.6486 6.67967 59.7139 6.74756 59.7834C7.08556 60.1848 7.53172 60.3554 8.04028 60.3923C9.10316 60.4656 10.166 60.5379 11.2294 60.6003C11.6454 60.6248 12.0479 60.683 12.5534 60.7563C12.4301 60.8452 12.4067 60.8764 12.3854 60.8754C10.8504 60.788 9.3148 60.7074 7.7808 60.6029C7.266 60.5676 6.8604 60.2909 6.55152 59.8786C6.52079 59.8389 6.49786 59.7937 6.48392 59.7454C6.47976 59.722 6.50108 59.6877 6.53176 59.5879Z" fill="#254D9B"/>
<path d="M54.6143 59.8392C54.7001 59.8392 54.7791 59.8179 54.8399 59.8423C55.7999 60.2266 56.7411 60.6805 57.4706 61.4106C58.0489 61.9889 58.6999 62.1906 59.4617 62.2213C59.6739 62.2296 59.886 62.2406 60.0987 62.2499L60.1081 62.3602C60.0329 62.391 59.9546 62.4135 59.8746 62.4272C59.6728 62.4402 59.4695 62.4309 59.2677 62.4439C58.4955 62.4959 57.8804 62.2395 57.3391 61.6556C56.7036 60.9697 55.8581 60.5537 55.0225 60.1475C54.9013 60.0893 54.7796 60.0321 54.6621 59.9681C54.6418 59.9562 54.6403 59.9125 54.6143 59.8392Z" fill="#254D9B"/>
<path d="M43.6307 45.7344C43.7706 45.6632 43.9032 45.566 44.0514 45.5265C44.3758 45.4354 44.7058 45.3659 45.0394 45.3185C45.4554 45.2665 45.861 45.2878 46.096 45.7214C46.3513 46.1894 46.356 46.6574 46.044 47.1046C45.5843 47.7619 44.7726 47.9751 44.0244 47.6371C43.8928 47.5778 43.7753 47.4868 43.585 47.3688C43.8782 47.2648 44.0337 47.4249 44.2043 47.4764C44.8496 47.6704 45.4003 47.5232 45.7965 47.0339C45.9069 46.9053 45.9826 46.7506 46.0164 46.5845C46.0503 46.4185 46.0412 46.2465 45.9899 46.0849C45.8787 45.6965 45.7107 45.5545 45.3072 45.5405C44.7487 45.5213 44.2152 45.6445 43.6952 45.8624L43.6307 45.7344Z" fill="#254D9B"/>
<path d="M61.162 62.2785C64.1494 62.1007 67.1316 61.8355 70.1273 61.8188L70.1325 61.9171L61.1562 62.4231C61.1583 62.3747 61.1599 62.3269 61.162 62.2785Z" fill="#254D9B"/>
<path d="M8.88437 58.292C8.75645 58.3991 8.71589 58.4527 8.66285 58.4735C8.55313 58.5161 8.43665 58.5411 8.32329 58.5738C7.61765 58.7761 7.46841 58.969 7.48609 59.722C7.06229 59.6107 6.72325 59.3803 6.32129 59.1557C6.97129 58.2717 7.89637 58.3622 8.88437 58.292Z" fill="#254D9B"/>
<path d="M90.535 51.0364C89.4467 51.3838 88.3567 51.7203 87.2127 51.8596C85.9387 52.0156 84.6647 52.193 83.3939 52.3599C83.3534 52.3655 83.3121 52.3612 83.2737 52.3475C83.2352 52.3337 83.2006 52.3108 83.1729 52.2809C83.2722 52.2445 83.3694 52.1904 83.4724 52.1768C84.6257 52.0089 85.777 51.8175 86.9356 51.6922C88.0182 51.5747 89.0525 51.2632 90.1076 51.0203C90.236 50.9907 90.3676 50.9683 90.496 50.9434C90.5069 50.9735 90.521 51.0052 90.535 51.0364Z" fill="#254D9B"/>
<path d="M95.1719 53.82C95.7688 52.9173 96.5239 52.2376 97.6778 52.1903C98.5207 52.1555 99.3657 52.1669 100.21 52.1602C100.231 52.1602 100.253 52.1955 100.337 52.2642C100.055 52.2907 99.8274 52.3219 99.5992 52.3307C99.0422 52.3531 98.4848 52.3546 97.9284 52.3827C97.1968 52.4207 96.5452 52.6568 96.0179 53.1924C95.7725 53.4414 95.5057 53.6692 95.2483 53.9068L95.1719 53.82Z" fill="#254D9B"/>
<path d="M100.606 55.0879L95.3613 54.6198C95.9333 54.3909 99.5151 54.6718 100.613 54.9797L100.606 55.0879Z" fill="#254D9B"/>
<path d="M99.8201 57.1879C99.5263 57.5373 99.166 57.5966 98.7978 57.5145C98.4395 57.4339 98.0745 57.3304 97.7495 57.1656C97.0735 56.8234 96.425 56.4376 95.7698 56.0596C95.6716 56.0029 95.6003 55.9 95.5166 55.8183L95.5868 55.731C95.7246 55.8095 95.8614 55.887 96.0028 55.9665C96.5472 56.2665 97.0834 56.5842 97.6398 56.8614C98.3199 57.2025 99.0334 57.437 99.8201 57.1879Z" fill="#254D9B"/>
<path d="M48.5152 55.0213C48.0311 54.8309 47.5517 54.6276 47.0592 54.4545C46.6791 54.3208 46.286 54.221 45.8767 54.2839C45.7135 54.5642 45.7629 54.832 45.8315 55.0904C45.9833 55.6624 46.1378 56.2344 46.3198 56.794C46.3676 56.9411 46.5023 57.0748 46.6276 57.1772C46.7836 57.3036 46.9672 57.3904 47.1476 57.5006C46.6921 57.5095 46.2772 57.275 46.1643 56.8995C45.9709 56.2532 45.7977 55.5995 45.6391 54.9443C45.5528 54.5891 45.5746 54.5839 45.7665 54.1123C46.0119 54.1393 46.2808 54.144 46.5372 54.2023C47.2402 54.3619 47.9375 54.546 48.5178 55.0114L48.5152 55.0213Z" fill="#254D9B"/>
<path d="M22.8662 58.0672C23.3212 57.8992 23.7726 57.7209 24.2323 57.5654C24.8884 57.3496 25.5131 57.048 26.0902 56.6684C26.4495 56.4292 26.8702 56.2794 27.2717 56.1084C27.4265 56.0518 27.5922 56.0309 27.7563 56.0475C26.9929 56.2872 26.3471 56.7355 25.6623 57.1156C25.1085 57.4234 24.4876 57.6127 23.8917 57.8436C23.5682 57.9689 23.2354 58.0719 22.9073 58.1847C22.8938 58.1457 22.8803 58.1067 22.8662 58.0672Z" fill="#254D9B"/>
<path d="M89.1147 51.9955C89.0518 52.5586 89.0019 53.1233 88.9202 53.6838C88.8849 53.9261 88.7086 53.9896 88.251 53.9849C88.4917 53.3043 88.7299 52.633 88.9675 51.957L89.1147 51.9955Z" fill="#254D9B"/>
<path d="M22.3294 59.5116C22.2774 59.7861 22.2296 60.0622 22.1708 60.3358C22.0756 60.7778 22.2036 61.1303 22.5671 61.4028C22.7101 61.5104 22.8385 61.6368 23.0169 61.7923C22.4397 61.7892 21.8687 61.3674 21.8588 60.8854C21.85 60.4606 21.9872 60.031 22.0751 59.6072C22.0876 59.548 22.1874 59.5074 22.2472 59.458L22.3294 59.5116Z" fill="#254D9B"/>
<path d="M25.2523 62.0095C25.0677 61.7542 24.8535 61.5155 24.7058 61.2404C24.4614 60.788 24.1666 60.398 23.7589 60.072C23.4469 59.8224 23.2337 59.4532 22.8348 59.3034C22.5937 59.2217 22.3632 59.1112 22.1484 58.9743C22.2285 58.9743 22.3138 58.9566 22.3882 58.9774C22.9009 59.1199 23.3689 59.3362 23.7006 59.7813C23.7797 59.8853 23.904 59.9586 23.9934 60.0585C24.2383 60.333 24.4978 60.5982 24.71 60.8972C24.9424 61.2248 25.126 61.5852 25.334 61.9315L25.2523 62.0095Z" fill="#254D9B"/>
<path d="M65.0526 46.9316C65.3017 47.3944 65.2694 47.4932 64.8503 47.5895C63.8805 47.812 62.9076 48.0231 61.9352 48.2353C61.8624 48.2514 61.7828 48.2353 61.6846 48.1578C61.8308 48.1002 61.9799 48.05 62.1312 48.0075C62.969 47.812 63.8062 47.6134 64.6486 47.4392C64.9356 47.3799 65.153 47.3159 65.0526 46.9316Z" fill="#254D9B"/>
<path d="M48.5213 55.0161C49.1173 55.2153 49.5135 55.6338 49.7543 56.1944C49.9446 56.6374 49.7709 57.0643 49.3154 57.2203C48.7148 57.4294 48.0723 57.4894 47.4434 57.395C47.8074 57.3502 48.1714 57.3076 48.5385 57.2582C48.7058 57.2382 48.8717 57.2076 49.0351 57.1667C49.7111 56.9878 49.8916 56.5355 49.4854 55.9567C49.3138 55.7129 49.0694 55.5205 48.8515 55.3104C48.7475 55.2064 48.6274 55.1191 48.5146 55.0239L48.5213 55.0161Z" fill="#254D9B"/>
<path d="M55.5509 41.2812C55.8851 42.3074 56.2196 43.3337 56.5545 44.3602L56.4557 44.3929C56.0379 43.4008 55.6867 42.3819 55.4043 41.3431L55.5509 41.2812Z" fill="#254D9B"/>
<path d="M71.1992 61.7009C71.3823 61.6525 71.5715 61.6208 71.7468 61.5532C72.1675 61.3905 72.5824 61.2127 72.9948 61.037C73.143 60.9741 73.286 60.8971 73.3187 61.1961C72.6552 61.508 71.9974 61.8506 71.2278 61.8319L71.1992 61.7009Z" fill="#254D9B"/>
<path d="M10.4443 59.0075C10.489 58.9988 10.5349 58.9988 10.5795 59.0075C11.0824 59.2357 11.5837 59.4686 12.0678 59.739C11.4869 59.5952 10.9369 59.3473 10.4443 59.0075Z" fill="#254D9B"/>
<path d="M48.5424 56.2156L47.7676 55.3899C48.1113 55.3301 48.1872 55.5531 48.3047 55.681C48.4321 55.8204 48.5257 55.993 48.6339 56.149L48.5424 56.2156Z" fill="white"/>
<path d="M83.0086 49.7183V51.5383H82.9639V49.7261L83.0086 49.7183Z" fill="white"/>
<path d="M58.2753 47.3936C58.4381 47.6931 58.6451 47.926 58.9945 48.0347C59.1427 48.081 59.2493 48.2583 59.3273 48.4284C59.1255 48.3056 58.9357 48.1538 58.7194 48.068C58.4126 47.9463 58.2608 47.7425 58.2441 47.4227L58.2753 47.3936Z" fill="#254D9B"/>
<path d="M66.4245 51.2485C66.6174 51.9474 66.5774 52.0478 66.0029 52.3333C66.4089 52.066 66.4568 51.6729 66.4245 51.2485Z" fill="#254D9B"/>
<path d="M74.5702 53.9762C74.4953 54.2855 74.4208 54.5947 74.3467 54.9039C74.2719 54.5576 74.2557 54.2248 74.4397 53.9336L74.5702 53.9762Z" fill="#254D9B"/>
<path d="M23.7438 60.6079L23.0605 60.2599C23.3933 60.018 23.5878 60.1044 23.7438 60.6079Z" fill="white"/>
<path d="M20.6593 54.86L19.3125 54.9307C19.7436 54.7039 20.1944 54.86 20.6593 54.86Z" fill="white"/>
<path d="M43.7799 47.0269L44.4159 47.2068L44.3925 47.2947L43.7539 47.1267L43.7799 47.0269Z" fill="white"/>
<path d="M58.2446 47.4242L57.7568 46.9131C58.0652 46.977 58.2014 47.1518 58.2768 47.3951L58.2446 47.4242Z" fill="white"/>
<path d="M44.005 46.0505C43.9093 46.1612 43.8131 46.272 43.7175 46.3833L43.6426 46.3146L43.9379 45.9917L44.005 46.0505Z" fill="white"/>
<path d="M27.6211 54.6985C27.7148 54.6394 27.8121 54.5861 27.9123 54.5388C29.9185 53.7328 31.9095 52.8878 33.9365 52.1396C35.6084 51.5278 37.3782 51.2271 39.1584 51.2525C39.7787 51.2587 40.4064 51.3596 41.0174 51.4693C41.6981 51.5905 42.2186 51.9711 42.581 52.5753C43.2757 53.7323 43.725 54.9824 44.0287 56.2902C44.0636 56.4554 44.0683 56.6256 44.0427 56.7925C43.9829 57.2085 43.7827 57.3785 43.3595 57.3489C40.9815 57.182 38.6009 57.0369 36.2266 56.8247C34.859 56.7025 33.5465 56.3047 32.2637 55.804C29.9985 54.9184 29.9933 54.9309 27.6211 54.6985ZM29.3543 54.3833C29.3652 54.4353 29.3756 54.4842 29.3865 54.5347C29.6117 54.5035 29.8431 54.4962 30.0625 54.4364C30.5014 54.3157 30.933 54.1681 31.3667 54.0287C32.3942 53.698 33.3988 53.2888 34.4789 53.1447C35.1819 53.0496 35.8829 52.932 36.587 52.8577C38.3404 52.6726 40.0907 52.5613 41.8021 53.1603C41.9159 53.2004 42.073 53.1187 42.2097 53.0932C42.1609 52.9601 42.1432 52.801 42.0574 52.6991C41.6481 52.2098 41.1016 51.9711 40.4797 51.8702C39.2083 51.6669 37.9462 51.7839 36.7008 52.0309C34.3496 52.5051 32.0518 53.2132 29.8415 54.1447C29.672 54.2123 29.516 54.3027 29.3543 54.3833ZM38.8183 56.3073V56.4113C38.849 56.4248 38.8796 56.4514 38.9098 56.4503C39.9904 56.4176 41.0715 56.3983 42.1505 56.3411C42.6221 56.3172 42.9206 56.0369 42.9305 55.5684C42.9393 55.1197 42.8473 54.6673 42.7843 54.2164C42.7771 54.1644 42.6772 54.1207 42.5358 54.0027V54.4707C42.5358 54.7733 42.5597 55.0786 42.5311 55.3786C42.4666 56.04 42.3678 56.1149 41.7152 56.1373C40.8879 56.1654 40.0611 56.2007 39.2343 56.2387C39.0942 56.2538 38.955 56.2763 38.8172 56.3063L38.8183 56.3073ZM40.6383 54.4119C38.448 54.0386 34.6786 54.0635 33.7519 54.7239C36.0264 54.1525 38.3357 54.3568 40.6347 54.4109L40.6383 54.4119Z" fill="url(#paint1_radial_463_27579)"/>
<path d="M29.3545 54.3833C29.5157 54.3027 29.6732 54.2123 29.8396 54.1426C32.0499 53.2111 34.3478 52.503 36.699 52.0288C37.947 51.7818 39.2064 51.6648 40.4778 51.8681C41.1018 51.9679 41.6463 52.2077 42.0555 52.697C42.1413 52.801 42.1595 52.957 42.2079 53.0911C42.0711 53.1166 41.9141 53.1983 41.8002 53.1582C40.0889 52.5592 38.3385 52.6705 36.5851 52.8556C35.8805 52.9299 35.1811 53.0475 34.477 53.1426C33.397 53.2887 32.3923 53.698 31.3648 54.0266C30.9311 54.166 30.4995 54.3137 30.0606 54.4343C29.8433 54.4941 29.6119 54.5014 29.3846 54.5326C29.3758 54.4842 29.3654 54.4338 29.3545 54.3833Z" fill="white"/>
<path d="M38.8174 56.3062C38.9549 56.2782 39.0937 56.2575 39.2334 56.2443C40.0602 56.2063 40.887 56.171 41.7143 56.1429C42.3669 56.1205 42.4657 56.0457 42.5302 55.3842C42.5588 55.0842 42.5349 54.7789 42.5349 54.4763V54.0083C42.6763 54.1263 42.7761 54.1679 42.7834 54.222C42.8463 54.6708 42.9394 55.1232 42.9295 55.574C42.9207 56.042 42.6222 56.3228 42.1495 56.3467C41.0705 56.3987 39.9895 56.4232 38.9089 56.4559C38.8787 56.4559 38.8481 56.4305 38.8174 56.4169V56.3062Z" fill="white"/>
<path d="M40.6344 54.4105C38.3355 54.3585 36.0262 54.1506 33.748 54.7224C34.6747 54.0622 38.4442 54.0372 40.6344 54.4105Z" fill="white"/>
<defs>
<radialGradient id="paint0_radial_463_27579" cx="0" cy="0" r="1" gradientUnits="userSpaceOnUse" gradientTransform="translate(101.604 62.1622) rotate(-162.817) scale(89.28 190.332)">
<stop stop-color="#8F8AD2"/>
<stop offset="1" stop-color="#4267B2"/>
</radialGradient>
<radialGradient id="paint1_radial_463_27579" cx="0" cy="0" r="1" gradientUnits="userSpaceOnUse" gradientTransform="translate(44.0589 56.1319) rotate(-159.231) scale(15.1984 38.0619)">
<stop stop-color="#8F8AD2"/>
<stop offset="1" stop-color="#4267B2"/>
</radialGradient>
</defs>
</svg>
