<svg width="105" height="104" viewBox="0 0 105 104" fill="none" xmlns="http://www.w3.org/2000/svg">
<path d="M24.7415 45.6041L24.4659 42.9276C24.4659 42.9276 23.7899 42.7644 22.9033 43.3566L23.2912 45.2874L5.2228 40.7925L4.86816 41.0073L23.5668 46.8698L24.0676 50.2794C24.0676 50.2794 23.2403 50.7203 23.0104 51.5326L18.838 54.3463C19.0346 54.7444 19.33 55.0855 19.696 55.3369L23.5668 52.3906C23.5668 52.3906 24.4966 52.7941 25.0993 52.8066C25.0993 52.8066 24.4659 53.0213 24.1695 53.5216L24.2413 54.3489C24.2413 54.3489 24.6146 54.9209 25.5974 54.9209C26.5802 54.9209 28.6738 54.5569 28.6738 54.5569L29.4444 55.3421L21.7333 57.0368C20.7745 57.2459 19.8781 57.6771 19.1162 58.2957C18.0028 59.202 16.408 60.6393 15.4242 62.1395C14.0498 64.2351 12.9932 67.2391 12.6921 68.1413C12.6259 68.3396 12.5966 68.5482 12.6058 68.757C12.6167 69.0134 12.6546 69.3633 12.7685 69.6363C12.9048 69.9634 13.9078 70.1995 14.5604 70.3206C14.9238 70.3883 15.2939 70.4117 15.6628 70.3903C17.9228 70.2468 20.1587 69.8431 22.3261 69.1871L53.6644 58.9504C53.6644 58.9504 53.5906 59.4428 53.8012 59.8208L49.806 63.752L50.7358 64.7327L54.5661 60.4532L54.655 60.5093L54.1267 61.256C54.1267 61.256 53.8969 62.1062 54.862 62.4817L55.4595 62.5046C55.4595 62.5046 56.0315 62.9335 57.0455 62.7037C57.0455 62.7037 58.5696 62.3007 59.1827 62.0579C59.1827 62.0579 60.102 62.9564 61.3734 63.9985C61.3734 63.9985 62.1394 63.5466 62.6604 62.3054L61.1348 61.3403L62.6604 60.7886C62.6604 60.7886 65.4794 60.0231 65.5865 58.6134L65.8012 57.7554L97.6528 63.6231L97.7448 63.4239L100.137 62.8415V62.673L65.9552 55.1684C65.9552 55.1684 65.027 54.0645 62.1976 54.2324L65.9682 49.8421C65.9682 49.8421 66.6962 48.6367 65.4726 48.6367C65.4726 48.6367 68.4959 38.321 68.9452 37.4427L79.2214 39.465L81.2426 38.9133V38.6273L69.3149 36.5041C69.3149 36.5041 70.0226 35.9321 69.4438 35.2374C68.8651 34.5427 65.9442 35.7688 65.9442 35.7688L56.1594 33.603L54.3618 34.032V34.2977L65.2922 36.5644C65.2922 36.5644 65.3036 36.9851 65.6598 37.4833C65.6598 37.4833 64.1274 42.3858 62.5752 45.5115C62.5752 45.5115 60.4042 47.2478 58.9565 48.0241C58.9565 48.0241 56.5031 49.2649 54.9098 49.6632C53.3166 50.0615 49.3178 50.829 49.3178 50.829C49.3178 50.829 46.9564 50.1229 43.0497 50.2321L38.3005 49.0527C38.3005 49.0527 38.469 47.9035 35.3282 47.7199C35.3282 47.7199 34.0282 47.6123 33.0605 47.7501L24.7415 45.6041Z" fill="url(#paint0_radial_463_21374)"/>
<path d="M16.5223 61.117C15.8426 62.0036 13.5495 65.1668 12.899 68.2805C12.8322 68.5886 12.8502 68.909 12.951 69.2077C12.965 69.2487 12.9811 69.2893 12.9983 69.3288C13.0078 69.3514 13.024 69.3705 13.0446 69.3838C13.0652 69.3971 13.0893 69.4039 13.1138 69.4032C13.1383 69.4026 13.1621 69.3947 13.182 69.3804C13.2019 69.3661 13.2171 69.3461 13.2255 69.3231C13.4751 68.6398 14.2619 66.6259 15.4688 64.8355C16.4048 63.4508 16.9768 62.7727 17.2711 62.4607C17.3402 62.3878 17.3832 62.2941 17.3934 62.1942C17.4036 62.0942 17.3803 61.9938 17.3272 61.9085L17.1848 61.6797C17.1848 61.6797 16.9996 61.3807 16.8592 61.1383C16.8426 61.1093 16.819 61.0849 16.7906 61.0672C16.7622 61.0495 16.7299 61.0391 16.6965 61.037C16.6631 61.0349 16.6297 61.0411 16.5993 61.0551C16.5689 61.069 16.5424 61.0903 16.5223 61.117Z" fill="white"/>
<path d="M17.7987 62.7118C17.2017 63.3103 16.6672 63.9801 16.1664 64.6592C15.1415 66.0497 14.2658 67.5801 13.7708 69.242C13.7297 69.3813 13.9465 69.4406 13.9881 69.3018C14.4775 67.6581 15.3474 66.1475 16.3609 64.7731C16.8502 64.1096 17.3744 63.4554 17.9578 62.8709C18.0618 62.7669 17.9011 62.6109 17.7987 62.7118Z" fill="white"/>
<path d="M14.7934 69.7875C16.3309 69.7881 17.8657 69.6584 19.3814 69.3995C20.4214 69.2217 21.44 68.9632 22.4613 68.7032C23.5752 68.4203 24.6718 68.0657 25.7732 67.7375L27.4065 67.2503C27.5454 67.2092 27.4861 66.9903 27.3467 67.0334C24.9339 67.7526 22.5289 68.5514 20.0563 69.0464C18.3232 69.3911 16.5604 69.5639 14.7934 69.5623C14.6483 69.5623 14.6483 69.7875 14.7934 69.7875Z" fill="white"/>
<path d="M17.3173 61.0777C17.6553 61.3279 17.9849 61.6014 18.3375 61.8312C18.5164 61.9482 18.6349 61.9238 18.7759 61.761C19.0021 61.4979 19.2106 61.214 19.4155 60.9342C19.5449 60.7585 19.9084 60.3966 19.8393 60.1542C19.7977 60.0076 19.6131 59.8641 19.5184 59.7564C19.3848 59.6041 19.2584 59.4106 19.1024 59.2801C18.8944 59.1075 18.7509 59.2801 18.6017 59.4299C18.2969 59.7419 17.9912 60.0471 17.6787 60.3487C17.4878 60.5323 17.0547 60.7782 17.3038 61.0668C17.3672 61.1401 17.4728 61.0335 17.4078 60.9628C17.2871 60.8224 18.1092 60.1371 18.2137 60.0331C18.3365 59.9109 18.7925 59.3025 18.9937 59.3883C19.0426 59.4091 19.1009 59.5099 19.1367 59.551L19.3931 59.8433C19.4738 59.9236 19.549 60.0093 19.6183 60.0996C19.6942 60.2145 19.6703 60.2759 19.6006 60.408C19.4295 60.7397 19.1508 61.0476 18.9215 61.3403C18.7811 61.5197 18.6136 61.8536 18.3718 61.6752L17.3922 60.9514C17.3152 60.8921 17.2403 61.0205 17.3173 61.0777Z" fill="white"/>
<path d="M20.4213 60.4673L19.8961 61.2103C19.7188 61.462 19.4801 61.7184 19.3428 61.9945C19.1447 62.3959 19.697 62.4011 19.9507 62.4359C20.4797 62.508 21.0093 62.5774 21.5393 62.6439C22.1441 62.7178 22.7494 62.7885 23.3567 62.8368C23.6833 62.8628 23.9807 62.9408 24.0546 62.555L24.2803 61.3549C24.3156 61.1656 24.4493 60.8297 24.2153 60.7169C24.0312 60.6285 23.7103 60.6612 23.5122 60.6451C23.1846 60.6181 22.857 60.5896 22.5294 60.5598C22.1306 60.5234 21.7317 60.4855 21.3334 60.4428C21.064 60.4137 20.6574 60.2707 20.4322 60.4543C20.3574 60.5151 20.464 60.6212 20.5362 60.5583C20.6922 60.4314 21.2356 60.5806 21.4202 60.6004C21.7281 60.6326 22.0359 60.6628 22.3438 60.6909C22.8291 60.7359 23.3153 60.7779 23.8024 60.8167C23.9365 60.8276 24.1711 60.8073 24.195 60.9727C24.2085 61.0679 24.1487 61.2176 24.1315 61.3107L23.935 62.3553C23.922 62.4245 23.9246 62.5602 23.8856 62.6195C23.7816 62.7812 23.3765 62.6845 23.2137 62.6715C22.7369 62.6304 22.2606 62.5774 21.7853 62.5207C21.2864 62.4614 20.7883 62.3981 20.2908 62.3309C20.0974 62.3049 19.9037 62.2784 19.71 62.2513C19.5628 62.2311 19.4359 62.1879 19.4968 62.0283C19.5389 61.9185 19.6559 61.8031 19.723 61.7074L20.0729 61.2114L20.5456 60.5411C20.607 60.4636 20.477 60.3887 20.4213 60.4673Z" fill="white"/>
<path d="M24.9305 62.7013C25.0022 62.3061 25.0636 61.9089 25.1239 61.5116C25.1458 61.3707 25.1317 61.0384 25.2877 60.9708C25.3283 60.9532 25.4125 60.9646 25.4546 60.9625C25.8857 60.9407 26.3386 60.8726 26.7702 60.896C27.1862 60.9183 27.208 61.2735 27.2756 61.586C27.3209 61.794 27.455 62.106 27.4316 62.3139C27.4067 62.5677 26.7499 62.5927 26.5549 62.6259C26.3123 62.6679 26.0681 62.7043 25.8223 62.7351C25.6767 62.7533 24.932 62.9213 24.931 62.6795C24.931 62.6596 24.9231 62.6406 24.9091 62.6265C24.895 62.6125 24.876 62.6046 24.8561 62.6046C24.8363 62.6046 24.8172 62.6125 24.8032 62.6265C24.7891 62.6406 24.7812 62.6596 24.7812 62.6795C24.7813 63.1059 25.346 62.9395 25.6096 62.9104C26.0551 62.8604 26.4981 62.7928 26.9387 62.7076C27.1347 62.6691 27.5294 62.6639 27.585 62.4164C27.6235 62.2443 27.5159 61.9947 27.481 61.8314C27.3843 61.3847 27.362 60.7561 26.7655 60.7447C26.2987 60.7438 25.8322 60.7674 25.3678 60.8154C25.0849 60.8398 25.0506 60.9864 25.0106 61.2527C24.9398 61.7238 24.8707 62.1918 24.7838 62.6597C24.7688 62.7559 24.9133 62.796 24.9305 62.7013Z" fill="white"/>
<path d="M17.7703 60.9756L19.0636 59.8243C19.0723 59.8167 19.0826 59.8111 19.0937 59.808C19.1049 59.8049 19.1166 59.8043 19.128 59.8064C19.1394 59.8084 19.1502 59.813 19.1595 59.8198C19.1689 59.8266 19.1766 59.8355 19.1821 59.8456C19.189 59.8588 19.1919 59.8736 19.1905 59.8884C19.1891 59.9032 19.1835 59.9172 19.1743 59.9288L18.1255 61.2632C18.1132 61.2784 18.0956 61.2883 18.0762 61.2908C18.0568 61.2933 18.0372 61.2883 18.0215 61.2767L17.7797 61.0937C17.7705 61.0872 17.7628 61.0787 17.7572 61.0689C17.7516 61.0591 17.7482 61.0481 17.7473 61.0369C17.7464 61.0256 17.748 61.0143 17.752 61.0037C17.756 60.9931 17.7622 60.9835 17.7703 60.9756Z" fill="white"/>
<path d="M19.1091 60.4505L18.6973 61.0848L19.2199 60.5394C19.2317 60.527 19.2388 60.5107 19.2397 60.4936C19.2407 60.4764 19.2355 60.4595 19.2251 60.4458C19.218 60.437 19.2089 60.4301 19.1987 60.4254C19.1884 60.4207 19.1772 60.4185 19.1659 60.419C19.1546 60.4195 19.1436 60.4225 19.1338 60.428C19.1239 60.4335 19.1155 60.4412 19.1091 60.4505Z" fill="white"/>
<path d="M20.6242 61.017L20.1094 61.7971L20.7375 61.1049C20.7448 61.0969 20.7502 61.0873 20.7533 61.0769C20.7563 61.0664 20.757 61.0554 20.7552 61.0447C20.7534 61.034 20.7492 61.0238 20.7429 61.015C20.7366 61.0061 20.7283 60.9988 20.7188 60.9936C20.703 60.985 20.6845 60.9826 20.6669 60.987C20.6494 60.9913 20.6342 61.002 20.6242 61.017Z" fill="white"/>
<path d="M21.173 60.7185L20.5771 62.0487C20.5711 62.0621 20.5681 62.0765 20.5684 62.0912C20.5686 62.1058 20.572 62.1202 20.5784 62.1333C20.5848 62.1465 20.594 62.158 20.6054 62.1672C20.6168 62.1764 20.63 62.183 20.6442 62.1865L20.9562 62.265C20.9808 62.2713 21.0069 62.2679 21.0291 62.2557C21.0513 62.2434 21.068 62.2231 21.0758 62.199L21.5126 60.8469C21.5233 60.8135 21.5207 60.7773 21.5054 60.7458C21.4901 60.7142 21.4633 60.6898 21.4304 60.6774L21.3426 60.6447C21.3102 60.6335 21.2748 60.6349 21.2434 60.6486C21.212 60.6623 21.1869 60.6872 21.173 60.7185Z" fill="white"/>
<path d="M22.3281 60.9009L21.8627 62.2373C21.8582 62.2501 21.8566 62.2638 21.8578 62.2773C21.8591 62.2908 21.8633 62.3039 21.8701 62.3157C21.8769 62.3275 21.8862 62.3376 21.8973 62.3454C21.9085 62.3533 21.9211 62.3586 21.9345 62.3611L21.9834 62.3699C21.9956 62.3721 22.0082 62.3719 22.0204 62.3693C22.0326 62.3666 22.0441 62.3615 22.0543 62.3544C22.0645 62.3472 22.0732 62.3381 22.0799 62.3275C22.0865 62.317 22.091 62.3052 22.0931 62.2929L22.3281 60.9009Z" fill="white"/>
<path d="M25.6456 61.0771L25.5078 62.4406L25.9831 62.5175L25.6456 61.0771Z" fill="white"/>
<path d="M29.8909 66.1651C30.5424 64.5853 31.0411 62.6666 30.4894 60.9782C30.413 60.7426 30.2637 60.5736 30.5414 60.4161C31.0812 60.1103 31.8414 60.0308 32.0713 60.7405C32.363 61.6453 32.2653 62.704 32.1082 63.6213C32.0182 64.1483 31.8958 64.6693 31.7416 65.1812C31.6126 65.6108 31.4785 65.8921 31.025 66.0226C30.8831 66.0637 30.74 66.1021 30.597 66.1385C30.5227 66.1578 29.8581 66.3465 29.8903 66.1661C29.907 66.0715 29.7624 66.0309 29.7458 66.1261C29.7208 66.268 29.765 66.3944 29.921 66.4287C30.077 66.463 30.2913 66.3673 30.441 66.332C30.6244 66.2883 30.8071 66.2408 30.9891 66.1895C31.2372 66.1193 31.4707 66.0455 31.6355 65.8349C31.8435 65.5749 31.9059 65.1766 31.9902 64.8609C32.2907 63.7326 32.4987 62.5241 32.3511 61.3567C32.2991 60.9574 32.2361 60.4566 31.8888 60.1998C31.4592 59.882 30.8326 60.063 30.4156 60.3178C30.127 60.4941 30.2102 60.6433 30.3058 60.9033C30.414 61.2045 30.4868 61.5172 30.5227 61.8351C30.7021 63.2989 30.3012 64.784 29.7473 66.1261C29.7094 66.2145 29.8545 66.2529 29.8909 66.1651Z" fill="white"/>
<path d="M35.6553 60.8609C35.6376 60.6337 35.5211 60.4366 35.283 60.3846C35.0615 60.3363 34.8322 60.4049 34.7958 60.6514C34.7949 60.6581 34.7949 60.6649 34.7958 60.6717C34.7958 61.123 34.7807 61.5765 34.7958 62.0278C34.802 62.2187 34.8478 62.3918 35.0495 62.4657C35.2674 62.5463 35.4853 62.4314 35.5815 62.2317C35.6777 62.032 35.6579 61.7897 35.6579 61.5671C35.6553 61.3341 35.6735 61.0934 35.6553 60.8609ZM35.2393 62.3351C34.8233 62.3351 34.9429 61.7434 34.9429 61.4766V60.6805C34.9845 60.4767 35.2898 60.4819 35.4109 60.6176C35.4665 60.6909 35.4992 60.779 35.505 60.8708C35.5136 61.0074 35.5136 61.1445 35.505 61.2811C35.5055 61.4995 35.6038 62.3367 35.2393 62.3351Z" fill="white"/>
<path d="M35.2754 60.6206C35.2925 60.6209 35.3093 60.6251 35.3246 60.6327C35.3399 60.6404 35.3533 60.6513 35.3638 60.6648C35.3861 60.6901 35.4038 60.7191 35.4158 60.7506C35.4368 60.8082 35.4501 60.8684 35.4554 60.9295C35.4608 60.9902 35.4583 61.0514 35.4481 61.1115C35.4378 61.1725 35.4164 61.2312 35.3852 61.2846C35.3712 61.2265 35.3606 61.1677 35.3534 61.1084C35.3467 61.0517 35.3404 60.996 35.3357 60.9399C35.331 60.8837 35.3269 60.827 35.3243 60.7714C35.3236 60.7452 35.3204 60.7191 35.3149 60.6934C35.3097 60.6656 35.2959 60.6401 35.2754 60.6206Z" fill="white"/>
<path d="M36.7283 60.5217C36.7111 60.2991 36.5967 60.1057 36.3642 60.0537C36.1474 60.0064 35.9232 60.074 35.8873 60.3137C35.8865 60.3202 35.8865 60.3269 35.8873 60.3334C35.8873 60.7754 35.8728 61.2174 35.8873 61.6609C35.8936 61.8481 35.9393 62.0176 36.1359 62.0894C36.3491 62.1684 36.5629 62.0561 36.656 61.8606C36.7491 61.6651 36.7308 61.428 36.7308 61.2101C36.7282 60.9844 36.7444 60.7489 36.7283 60.5217ZM36.3205 61.9646C35.9139 61.9646 36.0309 61.3853 36.0309 61.1238V60.3438C36.0709 60.1442 36.3699 60.1494 36.489 60.2825C36.5435 60.3541 36.5755 60.4402 36.5811 60.53C36.5894 60.6638 36.5894 60.7981 36.5811 60.9319C36.5811 61.1462 36.6773 61.9656 36.3205 61.9646Z" fill="white"/>
<path d="M36.3555 60.2861C36.3722 60.2866 36.3887 60.2906 36.4037 60.2981C36.4187 60.3056 36.4319 60.3162 36.4423 60.3293C36.4633 60.3545 36.4797 60.3832 36.4907 60.4141C36.5319 60.5268 36.5428 60.6483 36.5224 60.7666C36.5124 60.8264 36.4917 60.8838 36.461 60.9361C36.447 60.8795 36.4366 60.822 36.4298 60.764C36.4231 60.7084 36.4173 60.6538 36.4127 60.5987C36.408 60.5435 36.4038 60.4884 36.4012 60.4343C36.4005 60.4084 36.3974 60.3827 36.3919 60.3574C36.3873 60.3305 36.3746 60.3056 36.3555 60.2861Z" fill="white"/>
<path d="M37.7946 60.1995C37.778 59.9806 37.6657 59.7908 37.4364 59.7409C37.2232 59.6946 37.0027 59.7606 36.9684 59.9978C36.9676 60.0041 36.9676 60.0106 36.9684 60.017C36.9684 60.4512 36.9538 60.888 36.9684 61.3217C36.9741 61.5058 37.0204 61.6722 37.2123 61.7434C37.4203 61.8209 37.6319 61.7101 37.7244 61.5177C37.817 61.3253 37.7978 61.0929 37.7978 60.8786C37.7946 60.6545 37.8123 60.4242 37.7946 60.1995ZM37.3943 61.6202C36.9949 61.6202 37.1093 61.0482 37.1093 60.7939V60.0284C37.1493 59.8319 37.4431 59.8371 37.5601 59.9681C37.6137 60.0385 37.6452 60.1232 37.6506 60.2115C37.6587 60.3429 37.6587 60.4747 37.6506 60.6062C37.6506 60.8136 37.7452 61.6202 37.3943 61.6202Z" fill="white"/>
<path d="M37.4287 59.9678C37.4451 59.9682 37.4613 59.9722 37.476 59.9795C37.4907 59.9868 37.5037 59.9971 37.514 60.0099C37.5346 60.0347 37.5507 60.0629 37.5619 60.0931C37.6021 60.2041 37.6127 60.3236 37.5926 60.4399C37.5829 60.4988 37.5624 60.5554 37.5322 60.6069C37.5186 60.5511 37.5085 60.4944 37.5021 60.4373C37.4953 60.3853 37.4891 60.3287 37.4849 60.2751C37.4807 60.2215 37.4761 60.1664 37.4735 60.1129C37.4729 60.0877 37.4699 60.0626 37.4646 60.038C37.4603 60.0114 37.4477 59.9868 37.4287 59.9678Z" fill="white"/>
<path d="M38.7813 59.9405C38.7647 59.7258 38.6545 59.5396 38.4293 59.4908C38.2213 59.445 38.004 59.51 37.9691 59.7424C37.9683 59.7488 37.9683 59.7553 37.9691 59.7617C37.9691 60.188 37.9551 60.6165 37.9691 61.0423C37.9754 61.2228 38.0211 61.3865 38.2088 61.4583C38.4168 61.5342 38.6207 61.4255 38.7117 61.2368C38.8026 61.048 38.7839 60.8208 38.7839 60.6092C38.7813 60.3872 38.7985 60.16 38.7813 59.9405ZM38.3882 61.3325C37.9956 61.3325 38.1085 60.774 38.1085 60.5218V59.77C38.1475 59.5771 38.4361 59.5823 38.5505 59.7107C38.6031 59.7799 38.6341 59.8631 38.6394 59.9499C38.6474 60.0789 38.6474 60.2083 38.6394 60.3373C38.6394 60.5432 38.7325 61.334 38.3882 61.3325Z" fill="white"/>
<path d="M38.4219 59.7134C38.438 59.7138 38.4539 59.7177 38.4684 59.7249C38.4828 59.7321 38.4955 59.7423 38.5056 59.755C38.526 59.7792 38.5418 59.8068 38.5524 59.8366C38.5724 59.8908 38.585 59.9475 38.5899 60.0051C38.5951 60.0625 38.5929 60.1204 38.5831 60.1772C38.5734 60.2348 38.5533 60.2901 38.5238 60.3405C38.5103 60.2859 38.5003 60.2305 38.4936 60.1746C38.4874 60.1226 38.4817 60.0706 38.477 60.015C38.4723 59.9593 38.4687 59.911 38.4661 59.8564C38.4653 59.8314 38.4623 59.8065 38.4572 59.782C38.4527 59.7561 38.4404 59.7321 38.4219 59.7134Z" fill="white"/>
<path d="M39.8069 59.6866C39.7903 59.4786 39.6821 59.2934 39.4616 59.2451C39.2568 59.2009 39.0456 59.2643 39.0108 59.4926C39.0091 59.4987 39.0082 59.505 39.0082 59.5113C39.0082 59.9273 38.9942 60.3496 39.0082 60.7672C39.0139 60.944 39.0602 61.1041 39.2427 61.1728C39.445 61.2471 39.6468 61.1405 39.7362 60.9559C39.8257 60.7713 39.8069 60.5467 39.8069 60.3402C39.8069 60.1244 39.8236 59.9039 39.8069 59.6866ZM39.4216 61.0516C39.0363 61.0516 39.147 60.5035 39.147 60.2565V59.5191C39.185 59.3304 39.4679 59.3351 39.5807 59.4614C39.6321 59.5292 39.6625 59.6105 39.6681 59.6954C39.6759 59.822 39.6759 59.949 39.6681 60.0755C39.6681 60.2778 39.7601 61.0532 39.4216 61.0516Z" fill="white"/>
<path d="M39.4541 59.4639C39.4699 59.4642 39.4855 59.468 39.4997 59.475C39.5139 59.482 39.5264 59.492 39.5363 59.5044C39.5563 59.5282 39.572 59.5553 39.5826 59.5845C39.6018 59.6378 39.6141 59.6934 39.619 59.7499C39.6243 59.8061 39.622 59.8627 39.6122 59.9183C39.6031 59.9748 39.5835 60.0291 39.5545 60.0785C39.541 60.025 39.5311 59.9706 39.5248 59.9157C39.5186 59.8637 39.5129 59.8117 39.5087 59.7597C39.5046 59.7077 39.5004 59.6557 39.4978 59.6037C39.497 59.5793 39.494 59.5549 39.489 59.5309C39.4846 59.5055 39.4724 59.482 39.4541 59.4639Z" fill="white"/>
<path d="M40.6962 59.3842C40.6801 59.1762 40.574 58.9989 40.3582 58.9521C40.1575 58.9084 39.9494 58.9703 39.9162 59.1939C39.9156 59.1999 39.9156 59.206 39.9162 59.2121C39.9162 59.6213 39.9026 60.0331 39.9162 60.4418C39.9219 60.615 39.965 60.772 40.146 60.8391C40.2384 60.8713 40.3397 60.8673 40.4292 60.8279C40.5188 60.7884 40.5901 60.7164 40.6286 60.6264C40.7191 60.4392 40.6983 60.226 40.6983 60.0243C40.6962 59.8126 40.7107 59.5922 40.6962 59.3842ZM40.3187 60.7205C39.9416 60.7205 40.0498 60.1839 40.0498 59.9405V59.2188C40.0873 59.0337 40.3644 59.0384 40.4747 59.1616C40.5251 59.2282 40.5548 59.3081 40.5599 59.3914C40.5677 59.5153 40.5677 59.6394 40.5599 59.7632C40.5584 59.9624 40.6473 60.7216 40.3171 60.72L40.3187 60.7205Z" fill="white"/>
<path d="M40.3486 59.165C40.3641 59.1653 40.3793 59.1691 40.3932 59.176C40.4071 59.1829 40.4192 59.1929 40.4287 59.2051C40.4484 59.2283 40.4637 59.2549 40.474 59.2836C40.4931 59.3357 40.5051 59.3901 40.5098 59.4453C40.5146 59.5003 40.5123 59.5557 40.5031 59.6102C40.4939 59.6652 40.4747 59.7181 40.4464 59.7662C40.4332 59.7136 40.4235 59.6603 40.4173 59.6065C40.411 59.5545 40.4058 59.5025 40.4017 59.4536C40.3975 59.4048 40.3934 59.3496 40.3908 59.3013C40.3901 59.2773 40.3873 59.2535 40.3824 59.23C40.3777 59.2055 40.366 59.1829 40.3486 59.165Z" fill="white"/>
<path d="M41.585 59.0826C41.5694 58.8819 41.4659 58.7077 41.2558 58.662C41.0608 58.6198 40.8586 58.6802 40.8263 58.8975C40.8255 58.9034 40.8255 58.9093 40.8263 58.9152C40.8263 59.3135 40.8128 59.7139 40.8263 60.1112C40.8315 60.2797 40.8736 60.4325 41.0499 60.4975C41.1398 60.5283 41.2379 60.5239 41.3247 60.4854C41.4115 60.4468 41.4805 60.3768 41.5179 60.2895C41.6058 60.1075 41.5855 59.9001 41.5855 59.7035C41.585 59.4997 41.6006 59.2875 41.585 59.0826ZM41.2179 60.3826C40.8539 60.3826 40.9579 59.8626 40.9579 59.6255V58.923C40.9943 58.7431 41.2636 58.7478 41.3708 58.8679C41.42 58.9323 41.449 59.01 41.454 59.091C41.4616 59.2122 41.4616 59.3337 41.454 59.4549C41.4524 59.6442 41.5392 60.3842 41.2158 60.3826H41.2179Z" fill="white"/>
<path d="M41.249 58.8701C41.264 58.8705 41.2788 58.8742 41.2922 58.8808C41.3057 58.8875 41.3176 58.8969 41.327 58.9086C41.3459 58.9314 41.3607 58.9572 41.3707 58.985C41.3893 59.0352 41.401 59.0877 41.4056 59.141C41.4105 59.1945 41.4084 59.2483 41.3993 59.3012C41.3905 59.3552 41.3716 59.407 41.3437 59.4541C41.331 59.4027 41.3218 59.3506 41.3161 59.2981C41.3099 59.2461 41.3047 59.1982 41.3005 59.1494C41.2963 59.1005 41.2927 59.0495 41.2901 59.0006C41.2895 58.9774 41.2867 58.9542 41.2818 58.9315C41.277 58.9083 41.2657 58.887 41.249 58.8701Z" fill="white"/>
<path d="M42.5806 58.8194C42.565 58.6197 42.4625 58.4471 42.254 58.4034C42.06 58.3608 41.8588 58.4211 41.8271 58.6369C41.8263 58.6428 41.8263 58.6487 41.8271 58.6546C41.8271 59.0503 41.8141 59.4481 41.8271 59.8433C41.8328 60.0112 41.8744 60.1625 42.0496 60.2275C42.1395 60.2589 42.2379 60.2549 42.3248 60.2163C42.4118 60.1776 42.4808 60.1073 42.5176 60.0195C42.605 59.8386 42.5847 59.6322 42.5847 59.4372C42.5806 59.2339 42.5962 59.0227 42.5806 58.8194ZM42.2166 60.1116C41.8525 60.1116 41.9565 59.5916 41.9565 59.3586V58.6608C41.993 58.482 42.2608 58.4866 42.3668 58.6088C42.4159 58.6727 42.4447 58.7499 42.4495 58.8303C42.4571 58.9502 42.4571 59.0703 42.4495 59.1902C42.449 59.3789 42.5353 60.1121 42.216 60.1121L42.2166 60.1116Z" fill="white"/>
<path d="M42.2461 58.6089C42.261 58.6094 42.2757 58.6131 42.289 58.6197C42.3024 58.6263 42.3142 58.6358 42.3236 58.6474C42.3427 58.6696 42.3575 58.6951 42.3673 58.7228C42.3859 58.773 42.3976 58.8254 42.4021 58.8788C42.4069 58.932 42.4046 58.9857 42.3953 59.0384C42.3868 59.092 42.3683 59.1435 42.3407 59.1902C42.3282 59.1389 42.3188 59.0868 42.3127 59.0342C42.3069 58.9822 42.3012 58.9354 42.2976 58.8866C42.2939 58.8377 42.2898 58.7878 42.2872 58.7389C42.2866 58.7158 42.2838 58.6928 42.2789 58.6702C42.2745 58.6469 42.2631 58.6255 42.2461 58.6089Z" fill="white"/>
<path d="M43.4702 58.5889C43.4551 58.3944 43.3553 58.2249 43.152 58.1822C42.9632 58.1412 42.7677 58.1994 42.736 58.4095C42.7352 58.4154 42.7352 58.4213 42.736 58.4272C42.736 58.812 42.7235 59.2 42.736 59.5848C42.7417 59.7481 42.7823 59.8968 42.9523 59.9587C43.0393 59.9891 43.1347 59.9853 43.219 59.9481C43.3033 59.911 43.3705 59.8432 43.4068 59.7585C43.4921 59.5822 43.4723 59.3814 43.4723 59.1916C43.4702 58.9925 43.4853 58.787 43.4702 58.5889ZM43.1151 59.8469C42.7605 59.8469 42.8619 59.3419 42.8619 59.1141V58.4345C42.8972 58.2602 43.1582 58.2649 43.2617 58.3824C43.3093 58.4451 43.3373 58.5203 43.3423 58.5988C43.3496 58.7153 43.3496 58.8322 43.3423 58.9488C43.3423 59.1334 43.426 59.8484 43.1151 59.8469Z" fill="white"/>
<path d="M43.1455 58.3833C43.1601 58.3836 43.1744 58.3872 43.1874 58.3936C43.2004 58.4001 43.2119 58.4094 43.2209 58.4207C43.2394 58.4426 43.2539 58.4676 43.2636 58.4946C43.2995 58.593 43.3088 58.6992 43.2906 58.8024C43.2825 58.8544 43.2648 58.9045 43.2386 58.9501C43.2264 58.9006 43.2174 58.8504 43.2116 58.7998C43.2053 58.7515 43.2001 58.7036 43.1965 58.6558C43.1928 58.6079 43.1887 58.5596 43.1861 58.5123C43.1856 58.4897 43.183 58.4672 43.1783 58.4452C43.174 58.4217 43.1625 58.4001 43.1455 58.3833Z" fill="white"/>
<path d="M44.3415 58.3657C44.327 58.1769 44.2303 58.0131 44.0326 57.9705C43.8491 57.9305 43.6593 57.9871 43.6286 58.1915C43.6281 58.197 43.6281 58.2026 43.6286 58.2081C43.6286 58.5825 43.6161 58.959 43.6286 59.3329C43.6338 59.4888 43.6733 59.635 43.8366 59.6968C43.9211 59.7265 44.0137 59.723 44.0956 59.687C44.1776 59.651 44.2428 59.5852 44.2781 59.5029C44.3603 59.3313 44.341 59.1389 44.341 58.9517C44.3415 58.7598 44.3566 58.5581 44.3415 58.3657ZM43.9968 59.5876C43.652 59.5876 43.7508 59.0973 43.7508 58.8758V58.2159C43.7851 58.0464 44.0384 58.0506 44.1392 58.1639C44.1852 58.224 44.2124 58.2964 44.2173 58.3719C44.2243 58.4854 44.2243 58.5991 44.2173 58.7125C44.2173 58.8945 44.2989 59.5887 43.9968 59.5876Z" fill="white"/>
<path d="M44.0244 58.166C44.0386 58.1664 44.0525 58.1698 44.0651 58.1761C44.0778 58.1824 44.0889 58.1914 44.0978 58.2024C44.1157 58.2237 44.1298 58.248 44.1394 58.2742C44.174 58.3699 44.1832 58.4729 44.1659 58.5732C44.1575 58.6238 44.1399 58.6724 44.1139 58.7167C44.1021 58.6686 44.0932 58.6198 44.0874 58.5706C44.0816 58.5238 44.0769 58.4775 44.0728 58.4307C44.0686 58.3839 44.0655 58.3376 44.0634 58.2913C44.0627 58.2695 44.0601 58.2477 44.0556 58.2263C44.0515 58.2035 44.0407 58.1825 44.0244 58.166Z" fill="white"/>
<path d="M45.1871 58.1501C45.173 57.9675 45.0794 57.8089 44.8881 57.7673C44.7102 57.7288 44.5241 57.784 44.4965 57.9816C44.496 57.9871 44.496 57.9927 44.4965 57.9982C44.4965 58.3622 44.4846 58.7262 44.4965 59.0903C44.5017 59.2463 44.5397 59.3825 44.7004 59.4418C44.7822 59.4705 44.8719 59.4671 44.9513 59.4321C45.0307 59.3972 45.0938 59.3333 45.1278 59.2535C45.2079 59.0877 45.1892 58.8989 45.1892 58.72C45.1871 58.5302 45.2017 58.3368 45.1871 58.1501ZM44.8527 59.3347C44.5189 59.3347 44.6151 58.8589 44.6151 58.6446V58.005C44.6478 57.8412 44.8933 57.8453 44.9911 57.953C45.0358 58.0118 45.0622 58.0825 45.067 58.1563C45.0737 58.2661 45.0737 58.3762 45.067 58.486C45.067 58.6628 45.1455 59.3357 44.8527 59.3347Z" fill="white"/>
<path d="M44.8809 57.957C44.8946 57.9573 44.9081 57.9606 44.9204 57.9667C44.9327 57.9728 44.9435 57.9816 44.9521 57.9924C44.9693 58.013 44.9828 58.0364 44.9921 58.0615C45.0087 58.1078 45.0194 58.1561 45.0238 58.2051C45.0282 58.2538 45.0261 58.303 45.0175 58.3512C45.009 58.4005 44.9914 58.4477 44.9656 58.4906C44.9539 58.444 44.9454 58.3968 44.9401 58.3491C44.9344 58.3034 44.9292 58.2586 44.9256 58.2134C44.9219 58.1681 44.9188 58.1229 44.9162 58.0782C44.9159 58.057 44.9135 58.0359 44.9089 58.0153C44.9056 57.9935 44.8958 57.9732 44.8809 57.957Z" fill="white"/>
<path d="M46.0852 57.8892C46.0711 57.7103 45.9812 57.5549 45.7919 57.5143C45.6177 57.4763 45.4372 57.5304 45.4086 57.7223C45.4079 57.7275 45.4079 57.7327 45.4086 57.7379C45.4086 58.0931 45.3967 58.4503 45.4086 58.805C45.4133 58.9558 45.4508 59.092 45.6078 59.1498C45.688 59.1778 45.7758 59.1743 45.8536 59.1402C45.9313 59.106 45.9933 59.0437 46.0269 58.9657C46.1054 58.8029 46.0872 58.6178 46.0872 58.4425C46.0852 58.2616 46.0992 58.0718 46.0852 57.8892ZM45.7576 59.0494C45.4305 59.0494 45.5246 58.5814 45.5246 58.3734V57.7493C45.5568 57.5887 45.7971 57.5933 45.8928 57.6973C45.9365 57.755 45.9624 57.8243 45.9671 57.8965C45.9736 58.0041 45.9736 58.1119 45.9671 58.2194C45.9671 58.3916 46.0441 59.0504 45.7576 59.0494Z" fill="white"/>
<path d="M45.7852 57.6997C45.7986 57.7 45.8118 57.7033 45.8239 57.7093C45.8359 57.7154 45.8465 57.724 45.8548 57.7345C45.8718 57.7546 45.8852 57.7775 45.8943 57.8021C45.9106 57.8476 45.9211 57.895 45.9255 57.9431C45.9296 57.9908 45.9275 58.0389 45.9193 58.0861C45.9114 58.1341 45.8948 58.1802 45.8704 58.2223C45.8586 58.1768 45.8498 58.1306 45.8439 58.084C45.8382 58.0387 45.8335 57.9951 45.8299 57.9509C45.8262 57.9067 45.8226 57.8625 45.8205 57.8188C45.8202 57.798 45.8178 57.7772 45.8132 57.7569C45.8099 57.7354 45.8001 57.7155 45.7852 57.6997Z" fill="white"/>
<path d="M46.9422 57.6882C46.9292 57.516 46.8382 57.3668 46.6603 57.3278C46.4929 57.2914 46.3198 57.3434 46.2922 57.5295C46.2914 57.5345 46.2914 57.5396 46.2922 57.5446C46.2922 57.8863 46.2808 58.2295 46.2922 58.5706C46.2969 58.7152 46.3328 58.8463 46.4841 58.9019C46.5611 58.9288 46.6455 58.9254 46.7202 58.8925C46.7949 58.8596 46.8544 58.7996 46.8865 58.7246C46.9619 58.5686 46.9442 58.3902 46.9442 58.2222C46.9422 58.0459 46.9557 57.8639 46.9422 57.6882ZM46.6276 58.8031C46.3156 58.8031 46.4035 58.3554 46.4035 58.1536V57.5514C46.4347 57.3954 46.6635 57.4011 46.7576 57.5041C46.7995 57.5595 46.8242 57.6261 46.8288 57.6954C46.8354 57.7993 46.8354 57.9035 46.8288 58.0075C46.8288 58.1707 46.9032 58.8041 46.6276 58.8031Z" fill="white"/>
<path d="M46.6533 57.5063C46.6662 57.5067 46.6789 57.5098 46.6905 57.5156C46.7021 57.5213 46.7123 57.5295 46.7204 57.5396C46.7367 57.5591 46.7496 57.5813 46.7584 57.6051C46.7741 57.6486 46.784 57.6938 46.788 57.7398C46.7924 57.7858 46.7904 57.8322 46.7823 57.8776C46.7747 57.9238 46.7586 57.9683 46.735 58.0087C46.724 57.9649 46.716 57.9204 46.711 57.8755C46.7058 57.8324 46.7012 57.7903 46.6975 57.7481C46.6939 57.706 46.6908 57.6629 46.6887 57.6207C46.6883 57.6008 46.6861 57.581 46.6819 57.5615C46.6781 57.5407 46.6681 57.5215 46.6533 57.5063Z" fill="white"/>
<path d="M47.7043 57.4973C47.6918 57.3329 47.6071 57.1905 47.435 57.153C47.2748 57.1182 47.1095 57.1676 47.083 57.3459C47.0824 57.3508 47.0824 57.3557 47.083 57.3605C47.083 57.6865 47.0721 58.0152 47.083 58.3412C47.0877 58.4795 47.122 58.6043 47.2665 58.6579C47.3402 58.6837 47.4209 58.6805 47.4924 58.6491C47.5638 58.6176 47.6206 58.5602 47.6513 58.4884C47.723 58.3391 47.7064 58.1691 47.7064 58.0079C47.7064 57.8467 47.7163 57.6678 47.7043 57.4973ZM47.4038 58.5632C47.1033 58.5632 47.1896 58.1353 47.1896 57.9424V57.3667C47.2192 57.2191 47.4402 57.2232 47.5281 57.3215C47.5682 57.3745 47.5918 57.4382 47.5962 57.5045C47.6022 57.6034 47.6022 57.7026 47.5962 57.8015C47.5962 57.959 47.6669 58.5643 47.4043 58.5632H47.4038Z" fill="white"/>
<path d="M47.4287 57.3237C47.441 57.3241 47.4531 57.3272 47.4641 57.3326C47.4752 57.3381 47.4849 57.3459 47.4927 57.3554C47.5082 57.374 47.5204 57.3951 47.5286 57.4178C47.5585 57.5011 47.5666 57.5906 47.5519 57.6778C47.5446 57.7218 47.5292 57.7641 47.5067 57.8026C47.4964 57.7608 47.4886 57.7185 47.4833 57.6758C47.4786 57.6347 47.4739 57.5941 47.4708 57.5536C47.4677 57.513 47.4646 57.4719 47.4625 57.4319C47.4616 57.4129 47.4593 57.3939 47.4558 57.3752C47.452 57.3558 47.4426 57.3378 47.4287 57.3237Z" fill="white"/>
<path d="M49.5011 57.0291C49.4891 56.8772 49.4111 56.7452 49.252 56.7108C49.1038 56.6786 48.9509 56.7244 48.9265 56.8887C48.926 56.8932 48.926 56.8977 48.9265 56.9022C48.9265 57.2038 48.9161 57.507 48.9265 57.8086C48.9307 57.936 48.9624 58.052 49.096 58.1009C49.1639 58.1248 49.2384 58.122 49.3044 58.093C49.3703 58.064 49.4228 58.0111 49.4511 57.9449C49.5177 57.8071 49.5031 57.65 49.5031 57.5013C49.5031 57.3526 49.513 57.1841 49.5011 57.0291ZM49.2239 58.0141C48.9463 58.0141 49.0258 57.6183 49.0258 57.442V56.9105C49.0534 56.7743 49.2577 56.7774 49.3378 56.8684C49.3749 56.9173 49.3968 56.9761 49.4007 57.0374C49.4064 57.1289 49.4064 57.2206 49.4007 57.312C49.4007 57.4555 49.4662 58.0146 49.2239 58.0141Z" fill="white"/>
<path d="M49.2461 56.8682C49.2575 56.8684 49.2687 56.8711 49.279 56.8761C49.2892 56.8812 49.2982 56.8884 49.3053 56.8973C49.3197 56.9144 49.331 56.934 49.3386 56.955C49.3528 56.9935 49.3617 57.0337 49.3651 57.0746C49.3688 57.115 49.3671 57.1558 49.3599 57.1958C49.3534 57.2367 49.3393 57.276 49.3183 57.3117C49.3087 57.2731 49.3016 57.2338 49.297 57.1942C49.2923 57.1563 49.2882 57.1188 49.2856 57.0814C49.283 57.0439 49.2794 57.006 49.2773 56.969C49.277 56.9516 49.2751 56.9342 49.2716 56.917C49.268 56.8986 49.2592 56.8816 49.2461 56.8682Z" fill="white"/>
<path d="M50.1476 56.8718C50.1367 56.7278 50.0629 56.603 49.9121 56.5702C49.7717 56.5395 49.6272 56.5832 49.6038 56.7387C49.6032 56.743 49.6032 56.7474 49.6038 56.7517C49.6038 57.0372 49.5944 57.3237 49.6038 57.6097C49.6079 57.7309 49.6376 57.8401 49.7639 57.8869C49.8284 57.9094 49.899 57.9066 49.9616 57.8791C50.0241 57.8516 50.0739 57.8014 50.1008 57.7387C50.1638 57.6081 50.1492 57.4589 50.1492 57.318C50.1492 57.1771 50.1601 57.0185 50.1476 56.8718ZM49.8845 57.8042C49.6214 57.8042 49.6968 57.4298 49.6968 57.2608V56.7574C49.7234 56.6279 49.9163 56.6316 49.9932 56.7174C50.0284 56.7637 50.0492 56.8194 50.053 56.8775C50.0582 56.9641 50.0582 57.051 50.053 57.1375C50.053 57.2753 50.1149 57.8052 49.8845 57.8042Z" fill="white"/>
<path d="M49.9072 56.7197C49.918 56.72 49.9286 56.7227 49.9383 56.7274C49.948 56.7322 49.9565 56.7389 49.9634 56.7473C49.9766 56.7627 49.9872 56.7803 49.9946 56.7993C50.0081 56.8357 50.0165 56.8739 50.0195 56.9126C50.0231 56.951 50.0216 56.9896 50.0148 57.0276C50.0088 57.0663 49.9954 57.1036 49.9753 57.1373C49.9663 57.1006 49.9596 57.0635 49.955 57.026C49.9509 56.9896 49.9473 56.9548 49.9441 56.9189C49.941 56.883 49.9384 56.8476 49.9369 56.8149C49.9364 56.7974 49.9345 56.78 49.9311 56.7629C49.9273 56.7466 49.919 56.7316 49.9072 56.7197Z" fill="white"/>
<path d="M51.2951 56.5396C51.2842 56.3956 51.2098 56.2708 51.0596 56.238C50.9192 56.2078 50.7741 56.251 50.7512 56.407C50.7507 56.4113 50.7507 56.4157 50.7512 56.42C50.7512 56.7055 50.7419 56.992 50.7512 57.278C50.7549 57.3987 50.785 57.5084 50.9114 57.5552C50.9759 57.5777 51.0465 57.575 51.109 57.5475C51.1716 57.52 51.2213 57.4698 51.2483 57.407C51.3112 57.2759 51.2967 57.1272 51.2967 56.9863C51.2967 56.8454 51.3066 56.6868 51.2951 56.5396ZM51.032 57.4725C50.7689 57.4725 50.8443 57.0981 50.8443 56.9291V56.4257C50.8703 56.2962 51.0637 56.2999 51.1407 56.3857C51.1759 56.432 51.1967 56.4877 51.2005 56.5458C51.2057 56.6324 51.2057 56.7193 51.2005 56.8059C51.2 56.9437 51.2624 57.473 51.032 57.4725Z" fill="white"/>
<path d="M51.0547 56.3877C51.0655 56.3879 51.0761 56.3904 51.0858 56.3952C51.0955 56.4 51.1041 56.4068 51.1108 56.4153C51.1241 56.4307 51.1346 56.4483 51.142 56.4673C51.1551 56.5037 51.1635 56.5416 51.167 56.5801C51.1706 56.6186 51.169 56.6574 51.1623 56.6955C51.156 56.7342 51.1426 56.7714 51.1228 56.8053C51.1137 56.7684 51.107 56.7311 51.1025 56.6935C51.0983 56.6576 51.0942 56.6222 51.0916 56.5895C51.089 56.5567 51.0859 56.5182 51.0843 56.4855C51.084 56.468 51.0819 56.4505 51.0781 56.4335C51.0751 56.4162 51.0669 56.4002 51.0547 56.3877Z" fill="white"/>
<path d="M52.0668 56.3279C52.0559 56.1838 51.9816 56.059 51.8313 56.0263C51.6909 55.9956 51.5458 56.0393 51.5229 56.1953C51.5224 56.1994 51.5224 56.2036 51.5229 56.2078C51.5229 56.4932 51.5131 56.7797 51.5229 57.0657C51.5266 57.1869 51.5567 57.2961 51.6831 57.3429C51.7476 57.3654 51.8182 57.3627 51.8808 57.3352C51.9433 57.3077 51.9931 57.2575 52.0201 57.1947C52.083 57.0642 52.0684 56.9149 52.0684 56.7745C52.0684 56.6341 52.0783 56.4745 52.0668 56.3279ZM51.8037 57.2602C51.5406 57.2602 51.616 56.8858 51.616 56.7168V56.2119C51.642 56.083 51.8355 56.0861 51.9124 56.1724C51.9479 56.2186 51.9685 56.2744 51.9717 56.3325C51.9772 56.4191 51.9772 56.506 51.9717 56.5925C51.9717 56.7319 52.032 57.2613 51.8037 57.2602Z" fill="white"/>
<path d="M51.8242 56.1758C51.835 56.1761 51.8456 56.1788 51.8552 56.1836C51.8648 56.1885 51.8732 56.1954 51.8799 56.2039C51.8937 56.22 51.9044 56.2385 51.9116 56.2585C51.938 56.3313 51.945 56.4098 51.9319 56.4862C51.9254 56.5249 51.912 56.562 51.8924 56.5959C51.8834 56.5593 51.8766 56.5221 51.8721 56.4847C51.8679 56.4488 51.8638 56.4134 51.8612 56.3807C51.8586 56.3479 51.8554 56.3094 51.8534 56.2767C51.8533 56.2592 51.8513 56.2417 51.8476 56.2247C51.8452 56.2063 51.837 56.1892 51.8242 56.1758Z" fill="white"/>
<path d="M52.8011 56.1159C52.7897 55.9724 52.7158 55.8477 52.565 55.8149C52.4251 55.7842 52.28 55.8274 52.2571 55.9834C52.2565 55.9877 52.2565 55.992 52.2571 55.9964C52.2571 56.2818 52.2477 56.5683 52.2571 56.8543C52.2613 56.9749 52.2914 57.0846 52.4178 57.1314C52.4823 57.1539 52.553 57.1512 52.6155 57.1237C52.6781 57.0962 52.7278 57.046 52.7548 56.9832C52.8178 56.8522 52.8032 56.7035 52.8032 56.5626C52.8032 56.4217 52.8126 56.2641 52.8011 56.1159ZM52.5374 57.0487C52.2748 57.0487 52.3502 56.6744 52.3502 56.5054V56.0042C52.3762 55.8747 52.5697 55.8783 52.6466 55.9641C52.6815 56.0106 52.7021 56.0663 52.7059 56.1243C52.7114 56.2108 52.7114 56.2977 52.7059 56.3842C52.7085 56.5199 52.7684 57.0498 52.5374 57.0487Z" fill="white"/>
<path d="M52.5596 55.9639C52.5704 55.964 52.581 55.9666 52.5907 55.9714C52.6005 55.9761 52.609 55.983 52.6157 55.9914C52.629 56.007 52.6397 56.0245 52.6475 56.0434C52.6738 56.1165 52.6808 56.1951 52.6677 56.2717C52.6612 56.3104 52.6479 56.3475 52.6282 56.3814C52.6192 56.3446 52.6124 56.3073 52.6079 56.2696C52.6033 56.2337 52.5996 56.1984 52.597 56.163C52.5944 56.1277 52.5913 56.0918 52.5892 56.059C52.5891 56.0416 52.5871 56.0241 52.5835 56.007C52.58 55.9906 52.5717 55.9755 52.5596 55.9639Z" fill="white"/>
<path d="M53.4525 55.904C53.441 55.76 53.3672 55.6352 53.2164 55.6024C53.0765 55.5718 52.9313 55.6154 52.9085 55.7714C52.9079 55.7756 52.9079 55.7798 52.9085 55.7839C52.9085 56.0694 52.8991 56.3559 52.9085 56.6418C52.9126 56.763 52.9428 56.8727 53.0692 56.919C53.1337 56.9415 53.2043 56.9387 53.2669 56.9112C53.3294 56.8837 53.3792 56.8335 53.4062 56.7708C53.4691 56.6403 53.4546 56.4916 53.4546 56.3507C53.4546 56.2098 53.4639 56.0506 53.4525 55.904ZM53.1888 56.8363C52.9287 56.8363 53.0016 56.4619 53.0016 56.2935V55.7896C53.0276 55.6607 53.221 55.6638 53.298 55.7501C53.333 55.7965 53.3537 55.8522 53.3573 55.9103C53.3628 55.9968 53.3628 56.0837 53.3573 56.1702C53.3573 56.3075 53.4197 56.8358 53.1888 56.8358V56.8363Z" fill="white"/>
<path d="M53.2109 55.752C53.2218 55.7522 53.2325 55.7549 53.2422 55.7597C53.2519 55.7646 53.2604 55.7715 53.2671 55.78C53.2805 55.7955 53.2912 55.8131 53.2989 55.832C53.3253 55.9049 53.3322 55.9834 53.3191 56.0598C53.3126 56.0984 53.2992 56.1356 53.2796 56.1695C53.2706 56.1329 53.2638 56.0957 53.2593 56.0582C53.2546 56.0224 53.251 55.987 53.2484 55.9542C53.2458 55.9215 53.2427 55.883 53.2406 55.8502C53.2405 55.8327 53.2386 55.8153 53.2349 55.7982C53.232 55.7807 53.2236 55.7645 53.2109 55.752Z" fill="white"/>
<path d="M19.2412 58.825L20.4304 59.6049C20.4304 59.6049 20.5979 58.3486 21.8573 57.8276C23.1168 57.3066 29.3224 55.8516 29.3224 55.8516L40.3194 53.2584C40.3327 53.2552 40.3452 53.249 40.3559 53.2404C40.3665 53.2317 40.3751 53.2208 40.381 53.2083C40.3869 53.1959 40.3899 53.1823 40.3899 53.1686C40.3898 53.1549 40.3867 53.1413 40.3807 53.1289C40.372 53.1096 40.3569 53.0939 40.338 53.0844C40.319 53.075 40.2974 53.0723 40.2767 53.0769L25.9622 56.3233C24.474 56.6609 22.9961 57.0409 21.5287 57.4631C20.8046 57.6716 20.1354 58.0371 19.5688 58.5338L19.2412 58.825Z" fill="white"/>
<path d="M23.6946 58.2644C24.6987 57.6264 25.7949 57.2941 26.9321 57.0112L30.1431 56.212L38.4355 54.1496L40.4115 53.6577C40.5519 53.6229 40.4926 53.4055 40.3517 53.4409L34.938 54.7872L27.1073 56.7346C25.8703 57.0419 24.6737 57.3736 23.5786 58.0689C23.457 58.1464 23.5698 58.3414 23.6925 58.2634L23.6946 58.2644Z" fill="white"/>
<path d="M5.02868 40.854L23.2297 46.288L22.9437 45.4092L23.3524 45.5319L23.4954 46.717L4.92676 40.9564L5.02868 40.854Z" fill="white"/>
<path d="M23.6377 44.4541L23.7152 46.3843H23.945L23.6377 44.4541Z" fill="white"/>
<path d="M23.0098 43.3515C23.0098 43.3515 23.6395 42.9521 24.2968 43.0754L24.8022 49.0814H24.6644L24.0669 43.3052C23.716 43.2342 23.3531 43.2501 23.0098 43.3515Z" fill="white"/>
<path d="M24.8027 45.8179L24.8792 47.0284L27.1313 47.8095L25.0939 46.8906L25.0326 45.925L24.8027 45.8179Z" fill="white"/>
<path d="M25.9668 46.5532C26.3334 46.5938 26.6948 46.651 27.0588 46.7149C27.2398 46.7451 27.4197 46.7815 27.6001 46.8148L28.1394 46.925L28.6765 47.0446C28.8549 47.0878 29.0338 47.1278 29.2116 47.1741C29.5673 47.2635 29.9219 47.3592 30.2729 47.4726C29.9089 47.4325 29.5449 47.3753 29.1809 47.3114C29 47.2812 28.82 47.2448 28.6396 47.2115L28.1009 47.1008L27.5637 46.9812C27.3854 46.938 27.206 46.898 27.0286 46.8517C26.6724 46.7623 26.3178 46.6666 25.9668 46.5532Z" fill="white"/>
<path d="M28.2039 48.376C28.0942 48.428 27.9834 48.4753 27.8721 48.5195C27.7609 48.5637 27.6501 48.6053 27.5383 48.6459C27.4265 48.6864 27.3141 48.7249 27.2013 48.7623C27.0884 48.7998 26.9746 48.8372 26.8555 48.8663C26.9524 48.7932 27.056 48.7295 27.1649 48.676C27.2727 48.6214 27.3839 48.5737 27.4977 48.533C27.6112 48.4916 27.727 48.4569 27.8446 48.429C27.9625 48.4006 28.0828 48.3829 28.2039 48.376Z" fill="white"/>
<path d="M29.6128 48.2427C29.6129 48.2691 29.6204 48.2949 29.6345 48.3172C29.6485 48.3396 29.6686 48.3575 29.6923 48.369L30.0777 48.5541C30.0945 48.5624 30.1091 48.5746 30.1202 48.5898C30.1312 48.605 30.1383 48.6227 30.1409 48.6413C30.1434 48.6599 30.1414 48.6789 30.1349 48.6965C30.1284 48.7141 30.1177 48.7299 30.1037 48.7424C29.9703 48.8588 29.8171 48.9502 29.6513 49.0122L28.0731 49.6326C27.86 49.7242 27.679 49.8772 27.5531 50.072C27.5342 50.1009 27.5272 50.1361 27.5336 50.1701C27.54 50.2041 27.5592 50.2344 27.5874 50.2545C27.6064 50.2681 27.6287 50.2765 27.652 50.2788C27.6752 50.2811 27.6987 50.2772 27.72 50.2675L28.3996 49.9586C28.4053 49.9558 28.4112 49.9536 28.4173 49.9519L30.958 49.2119C31.0103 49.1966 31.0558 49.1639 31.0869 49.1191C31.1181 49.0744 31.1329 49.0203 31.1291 48.966L31.1202 48.8438C31.1177 48.8101 31.1223 48.7762 31.1339 48.7445C31.1455 48.7127 31.1637 48.6838 31.1873 48.6597L31.3121 48.5323C31.3289 48.5153 31.341 48.4943 31.3474 48.4713C31.3538 48.4482 31.3541 48.424 31.3484 48.4008C31.3427 48.3776 31.3312 48.3562 31.3149 48.3387C31.2987 48.3212 31.2782 48.3082 31.2554 48.3009C30.957 48.2042 30.3683 48.0482 29.7428 48.1002C29.7071 48.1031 29.6739 48.1194 29.6497 48.1458C29.6256 48.1723 29.6124 48.2069 29.6128 48.2427Z" fill="white"/>
<path d="M19.3184 54.8262L19.7749 54.9796L22.7197 52.8037" fill="white"/>
<path d="M20.5127 53.6639C20.5839 53.5858 20.6607 53.513 20.7425 53.4461C20.8231 53.3785 20.9063 53.3151 20.9916 53.2548C21.0769 53.1945 21.1653 53.1388 21.2558 53.0858C21.3465 53.0313 21.4412 52.9838 21.5392 52.9438C21.4683 53.0223 21.3917 53.0953 21.3099 53.1622C21.2293 53.2293 21.1461 53.2932 21.0608 53.353C20.9755 53.4128 20.8871 53.4695 20.7961 53.522C20.7054 53.5765 20.6107 53.624 20.5127 53.6639Z" fill="white"/>
<path d="M23.7908 50.6743C23.6475 50.8162 23.5345 50.9857 23.4585 51.1724C23.3952 51.3546 23.4043 51.5542 23.484 51.7299C23.5221 51.8172 23.5769 51.8964 23.6452 51.9628C23.7169 52.03 23.7959 52.089 23.8808 52.1386C24.055 52.2435 24.2409 52.328 24.4346 52.3902C24.2258 52.373 24.0224 52.3155 23.8355 52.2207C23.7385 52.1744 23.648 52.1153 23.5667 52.045C23.4855 51.97 23.4205 51.8792 23.3758 51.7781C23.3311 51.6771 23.3075 51.5679 23.3067 51.4574C23.3054 51.3471 23.3285 51.2379 23.3743 51.1376C23.4668 50.9471 23.6112 50.7865 23.7908 50.6743Z" fill="white"/>
<path d="M24.2969 50.4141C24.4601 50.2585 24.6438 50.1259 24.8429 50.0199C25.0456 49.9085 25.2663 49.8333 25.4949 49.7979C25.7345 49.7598 25.98 49.7914 26.2021 49.8889C26.3151 49.9399 26.4189 50.0091 26.5094 50.0938C26.5978 50.1807 26.672 50.2808 26.7294 50.3907C26.7838 50.4986 26.824 50.6131 26.849 50.7313C26.8751 50.8459 26.8906 50.9627 26.8953 51.0802C26.8988 51.1957 26.8955 51.3114 26.8854 51.4265C26.8807 51.4855 26.8727 51.5442 26.8615 51.6023C26.8486 51.6614 26.8313 51.7195 26.8095 51.776C26.7252 52.0005 26.5719 52.1926 26.3716 52.3245C26.274 52.3878 26.1669 52.435 26.0544 52.4644C25.9456 52.4934 25.8337 52.5096 25.7211 52.5128C25.9354 52.4525 26.1439 52.3708 26.3014 52.2299C26.4589 52.0943 26.5737 51.9161 26.6321 51.7167C26.646 51.6679 26.6562 51.6182 26.6628 51.568C26.6696 51.516 26.6727 51.4681 26.6748 51.412C26.6785 51.3057 26.6763 51.1992 26.668 51.0932C26.6577 50.887 26.6059 50.6851 26.5157 50.4994C26.4716 50.4115 26.4143 50.331 26.3456 50.2607C26.274 50.1933 26.1929 50.1367 26.1049 50.0927C25.9203 50.0043 25.7156 49.9664 25.5116 49.983C25.2976 49.9998 25.0873 50.0481 24.8876 50.1265C24.6825 50.2046 24.4848 50.3008 24.2969 50.4141Z" fill="white"/>
<path d="M27.4531 52.6826C27.6122 52.822 27.762 52.9686 27.9092 53.1189C28.0563 53.2691 28.1988 53.422 28.3402 53.577C28.4817 53.7319 28.6184 53.889 28.7521 54.0533C28.8857 54.2176 29.0168 54.3793 29.1384 54.5514C28.9793 54.4126 28.8296 54.2654 28.6824 54.1157C28.5352 53.9659 28.3922 53.8125 28.2513 53.657C28.1104 53.5016 27.9731 53.3451 27.84 53.1813C27.7069 53.0175 27.5753 52.8552 27.4531 52.6826Z" fill="white"/>
<path d="M30.4824 55.1252L30.5526 55.1096C30.5748 55.1046 30.5949 55.093 30.6104 55.0763L30.6717 55.0092C30.6983 54.9805 30.7152 54.9442 30.72 54.9054C30.7247 54.8665 30.7171 54.8272 30.6982 54.7929L30.68 54.7596C30.6488 54.7024 30.6072 54.6514 30.5573 54.6094L27.2158 51.7852L30.2708 54.678C30.3087 54.7139 30.3366 54.7591 30.3519 54.809C30.3672 54.8589 30.3694 54.912 30.3582 54.963L30.3509 54.9936C30.3504 54.9997 30.3504 55.0058 30.3509 55.0118C30.3502 55.0285 30.3533 55.0452 30.3599 55.0605C30.3666 55.0758 30.3766 55.0894 30.3893 55.1003C30.4019 55.1112 30.4169 55.1191 30.433 55.1234C30.4491 55.1278 30.466 55.1284 30.4824 55.1252Z" fill="white"/>
<path d="M31.8193 53.0785C32.0793 53.0083 32.3393 52.9563 32.6035 52.91C32.7345 52.8851 32.8666 52.8669 32.9982 52.8455L33.3939 52.7935C33.6581 52.7597 33.9233 52.7343 34.189 52.714C34.4547 52.6937 34.722 52.6807 34.9908 52.6849C34.7308 52.7551 34.4708 52.8076 34.2067 52.8533C33.9425 52.8991 33.6804 52.9397 33.4163 52.9719L33.019 53.0166C32.8864 53.028 32.7538 53.0426 32.6207 53.0509C32.3549 53.0686 32.0882 53.0821 31.8193 53.0785Z" fill="white"/>
<path d="M31.5146 49.6929C32.1345 49.7969 32.7465 49.929 33.3554 50.0714C33.9644 50.2139 34.5712 50.3668 35.1754 50.5301C35.7797 50.6934 36.3798 50.866 36.9767 51.0501C37.2762 51.1416 37.5737 51.2394 37.8706 51.3377L37.8987 51.3471L37.9314 51.359C37.9803 51.3784 38.0215 51.4132 38.0487 51.4582C38.076 51.5032 38.0877 51.5558 38.0822 51.6081C38.0822 51.6289 38.0786 51.6497 38.0749 51.6705C38.0684 51.7121 38.0576 51.7529 38.0427 51.7922C38.0137 51.8695 37.9695 51.9402 37.9127 52.0002C37.8573 52.0578 37.7921 52.1051 37.7203 52.1401C37.7974 52.0854 37.8605 52.0134 37.9047 51.9298C37.9489 51.8463 37.9728 51.7536 37.9746 51.6591C37.9769 51.6266 37.9741 51.594 37.9663 51.5623C37.9572 51.5379 37.9404 51.5171 37.9184 51.5031C37.9079 51.4965 37.8963 51.4917 37.8841 51.489L37.8321 51.4781C37.5258 51.4131 37.2201 51.3471 36.9159 51.2748C36.3059 51.1338 35.7001 50.9789 35.0959 50.8156C34.4916 50.6523 33.891 50.4791 33.2941 50.2925C32.6971 50.1058 32.1017 49.9165 31.5146 49.6929Z" fill="white"/>
<path d="M32.9501 48.5517L40.3726 50.5932C40.384 50.5967 40.3949 50.6012 40.4054 50.6068L40.4574 50.6328C40.4824 50.6462 40.5033 50.6661 40.5181 50.6903C40.5329 50.7145 40.5411 50.7422 40.5417 50.7706C40.5423 50.7989 40.5354 50.827 40.5217 50.8518C40.508 50.8767 40.488 50.8974 40.4636 50.912C40.4366 50.928 40.4148 50.9516 40.4011 50.9799C40.3874 51.0082 40.3823 51.0399 40.3864 51.071C40.3906 51.1022 40.4038 51.1314 40.4245 51.1551C40.4451 51.1788 40.4723 51.1959 40.5026 51.2043L47.4535 53.1283C47.4839 53.137 47.5159 53.1385 47.547 53.1327C47.578 53.127 47.6074 53.114 47.6326 53.095C47.6578 53.0759 47.6782 53.0512 47.6923 53.0229C47.7063 52.9946 47.7136 52.9633 47.7135 52.9317C47.7134 52.8874 47.7277 52.8443 47.7543 52.8089C47.7808 52.7734 47.8181 52.7476 47.8606 52.7352C47.8903 52.7269 47.9236 52.718 47.96 52.7092C48.2632 52.6402 48.5787 52.6457 48.8793 52.7253L50.8475 53.2375C50.8711 53.2436 50.8958 53.2438 50.9196 53.2383C50.9433 53.2328 50.9653 53.2216 50.9838 53.2057C51.0023 53.1898 51.0167 53.1697 51.0257 53.1471C51.0348 53.1245 51.0382 53.1 51.0358 53.0758C51.0326 53.0449 51.0201 53.0158 50.9998 52.9923C50.9795 52.9689 50.9525 52.9523 50.9224 52.9447L32.986 48.416C32.9757 48.4132 32.9648 48.4128 32.9544 48.415C32.9439 48.4172 32.9341 48.4218 32.9257 48.4284C32.9154 48.4364 32.9075 48.4471 32.9029 48.4593C32.8983 48.4716 32.8972 48.4848 32.8998 48.4976C32.9023 48.5104 32.9084 48.5223 32.9173 48.5318C32.9262 48.5414 32.9375 48.5482 32.9501 48.5517Z" fill="white"/>
<path d="M43.6211 50.3523L53.2681 52.5586L47.1555 51.0117C47.1358 51.0066 47.1184 50.9952 47.1059 50.9791C47.0935 50.9631 47.0867 50.9433 47.0867 50.923C47.0867 50.9027 47.0935 50.8829 47.1059 50.8669C47.1184 50.8508 47.1358 50.8394 47.1555 50.8344C47.1687 50.8315 47.1824 50.8315 47.1956 50.8344L50.9151 51.6518C50.9217 51.6532 50.9285 51.6524 50.9345 51.6494C50.9405 51.6464 50.9452 51.6414 50.948 51.6353C50.9507 51.6292 50.9513 51.6223 50.9496 51.6159C50.9479 51.6094 50.944 51.6037 50.9385 51.5998C50.8064 51.5036 50.6591 51.4301 50.5028 51.3824C49.8075 51.1677 47.7452 50.5749 46.3121 50.5198C46.0677 50.5104 45.8243 50.4912 45.581 50.4678L44.1442 50.3357C43.9972 50.3222 43.8492 50.3247 43.7027 50.343L43.6211 50.3523Z" fill="white"/>
<path d="M44.3486 53.4475C44.4254 53.4424 44.5024 53.4539 44.5743 53.4813C44.6473 53.508 44.7171 53.5429 44.7823 53.5853C44.91 53.6736 45.0238 53.7803 45.1203 53.902L45.19 53.994C45.2129 54.0252 45.2321 54.058 45.2534 54.0897L45.371 54.2722C45.45 54.387 45.539 54.4947 45.6367 54.5941C45.7328 54.6927 45.84 54.78 45.956 54.8542C46.0131 54.89 46.0729 54.9215 46.1348 54.9483L46.1801 54.9665L46.1988 54.9727L46.2258 54.98L46.3298 55.0097C46.6165 55.0871 46.899 55.1796 47.1759 55.2868C46.8798 55.2713 46.5847 55.2402 46.2919 55.1938L46.1822 55.1771L46.1562 55.1719C46.1416 55.1719 46.1328 55.1667 46.1213 55.1641C46.101 55.1589 46.0813 55.1532 46.062 55.1464C45.9857 55.1213 45.9119 55.0891 45.8416 55.0502C45.7036 54.973 45.5772 54.8767 45.4661 54.7642C45.3574 54.6525 45.2614 54.529 45.1801 54.396C45.1 54.2577 45.0418 54.1329 44.9669 54.0122C44.8932 53.8911 44.806 53.7788 44.7069 53.6773C44.609 53.5715 44.4857 53.4924 44.3486 53.4475Z" fill="white"/>
<path d="M38.27 51.4424C38.27 51.4424 38.5612 51.979 37.3048 52.6826C36.0485 53.3861 30.4102 54.2592 30.4102 54.2592L30.602 54.4085C30.7085 54.4912 30.7879 54.6038 30.8301 54.7319C30.8724 54.86 30.8755 54.9978 30.8392 55.1276L39.0474 53.1995C39.1602 53.1736 39.2667 53.1252 39.3605 53.0573C39.4542 52.9893 39.5332 52.903 39.5928 52.8037C39.7117 52.6054 39.7635 52.374 39.7405 52.1439C39.6792 51.5017 38.27 51.4424 38.27 51.4424Z" fill="white"/>
<path d="M51.6754 55.4088L49.6869 55.5939L47.6412 55.8341C47.2677 55.8784 46.8892 55.8492 46.5269 55.7483C45.8392 55.5555 45.2459 55.1175 44.8592 54.517C44.6779 54.2367 44.4658 53.9775 44.2269 53.7443C43.321 52.8603 42.0366 52.4844 40.7892 52.6939L39.7023 52.8769C39.6872 52.8796 39.673 52.8862 39.6613 52.8962C39.6478 52.908 39.6385 52.9238 39.6347 52.9413C39.6309 52.9588 39.6329 52.977 39.6403 52.9933C39.6477 53.0096 39.6602 53.0231 39.6759 53.0317C39.6915 53.0403 39.7096 53.0437 39.7273 53.0413L40.7054 52.9092C42.1011 52.7199 43.5082 53.2633 44.3782 54.3714C44.4058 54.4068 44.4339 54.4432 44.4609 54.4801C44.701 54.8094 44.8936 55.1709 45.0329 55.5539C45.165 55.9069 45.5009 56.4841 46.2871 56.4769C47.4187 56.4659 50.4524 55.752 50.4524 55.752H50.1554L51.6754 55.4088Z" fill="white"/>
<path d="M50.4951 54.2824L54.6344 54.8387C54.652 54.8412 54.67 54.8401 54.6872 54.8355C54.7044 54.831 54.7205 54.823 54.7345 54.8121C54.7486 54.8012 54.7603 54.7876 54.769 54.772C54.7777 54.7565 54.7832 54.7394 54.7852 54.7217L54.9604 53.1618C54.9628 53.1412 54.9726 53.1222 54.988 53.1084C55.0035 53.0945 55.0235 53.0869 55.0442 53.0869C55.0554 53.0869 55.0665 53.0891 55.0769 53.0935C55.0872 53.0978 55.0966 53.1041 55.1045 53.1121C55.1124 53.1201 55.1186 53.1296 55.1228 53.14C55.127 53.1504 55.1291 53.1615 55.1289 53.1727L55.1014 55.1762C55.1011 55.1959 55.0965 55.2154 55.0878 55.2331C55.0791 55.2508 55.0666 55.2664 55.0512 55.2787C55.0358 55.2911 55.0179 55.2998 54.9987 55.3044C54.9795 55.309 54.9595 55.3092 54.9402 55.3052L50.4951 54.3588V54.2824Z" fill="white"/>
<path d="M55.4036 52.225C55.5455 52.2135 55.791 52.1413 55.9267 52.1823C55.9787 52.1985 56.1243 52.3503 56.1383 52.4137C56.1393 52.4487 56.1358 52.4837 56.1279 52.5177L56.0239 53.4974L55.7213 56.4057L55.6438 57.1482C55.6339 57.2444 55.7837 57.2434 55.7936 57.1482L56.0229 54.9497C56.1097 54.1177 56.2595 53.2629 56.286 52.4241C56.3021 51.9135 55.7364 52.0487 55.402 52.0763C55.3064 52.0841 55.3058 52.2323 55.402 52.226L55.4036 52.225Z" fill="white"/>
<path d="M56.3298 54.659L56.2503 55.3132C56.241 55.3897 56.2607 55.4669 56.3055 55.5296C56.3502 55.5924 56.4168 55.6361 56.4921 55.6523L56.8457 55.7282C56.9162 55.7433 56.9898 55.7332 57.0537 55.6996L58.3439 55.0205L57.1432 55.3444C57.0681 55.3649 56.9895 55.3686 56.9128 55.3555C56.8361 55.3424 56.7632 55.3127 56.6993 55.2684C56.6353 55.2242 56.5817 55.1665 56.5423 55.0995C56.503 55.0324 56.4787 54.9575 56.4713 54.8801C56.4654 54.8108 56.4654 54.7413 56.4713 54.672C56.4725 54.6581 56.4696 54.6441 56.463 54.6318C56.4563 54.6195 56.4462 54.6095 56.4338 54.6029C56.4235 54.5975 56.412 54.5947 56.4003 54.5947C56.3886 54.5948 56.3772 54.5977 56.3669 54.6033C56.3566 54.6088 56.3479 54.6168 56.3414 54.6265C56.3349 54.6363 56.331 54.6474 56.3298 54.659Z" fill="white"/>
<path d="M53.8523 59.3005C53.8523 59.3005 54.2007 58.0005 55.9802 57.9079C56.2236 57.8937 56.4668 57.9376 56.69 58.0358C56.7766 58.0738 56.8579 58.1229 56.9318 58.182C57.0618 58.2891 57.1231 58.247 57.1517 58.1783C57.1681 58.1353 57.1711 58.0884 57.1603 58.0437C57.1496 57.9989 57.1255 57.9585 57.0914 57.9277C56.8538 57.7025 56.1486 57.1285 55.2922 57.312C54.234 57.5382 53.7286 58.7794 53.8523 59.3005Z" fill="white"/>
<path d="M56.9053 59.3005C56.1694 60.0763 54.7295 60.2297 54.7295 60.2297L54.7337 60.2239C54.7893 60.1495 54.8667 60.0941 54.9552 60.0653C55.9692 59.7409 56.4825 59.3374 56.6681 59.1606C56.6904 59.1401 56.7185 59.1271 56.7486 59.1236C56.7787 59.12 56.8091 59.126 56.8355 59.1408C56.8619 59.1556 56.883 59.1783 56.8957 59.2058C56.9084 59.2332 56.9121 59.264 56.9063 59.2937C56.9063 59.2937 56.9058 59.2979 56.9053 59.3005Z" fill="white"/>
<path d="M53.6752 60.9984L51.6221 63.0057C51.553 63.0733 51.659 63.1794 51.7261 63.1097L53.7792 61.1024C53.8483 61.0348 53.7423 60.9287 53.6752 60.9984Z" fill="white"/>
<path d="M56.7115 56.0813L58.1311 55.347C58.6032 55.1023 59.119 54.9534 59.6488 54.9088C60.1787 54.8641 60.7121 54.9247 61.2184 55.087C61.3521 55.1302 61.4925 55.1796 61.6386 55.2363C61.6824 55.2528 61.7222 55.2786 61.7551 55.3118C61.7881 55.3451 61.8136 55.385 61.8297 55.429C61.8459 55.4729 61.8524 55.5198 61.8489 55.5665C61.8454 55.6132 61.8318 55.6586 61.8092 55.6996C61.7936 55.7262 61.7762 55.7517 61.7572 55.776C61.6696 55.8933 61.5631 55.995 61.442 56.0771C61.3591 56.1308 61.2904 56.2038 61.2418 56.2899C61.1931 56.3759 61.1661 56.4724 61.1628 56.5711C61.1598 56.6424 61.1743 56.7133 61.2052 56.7776C61.236 56.8419 61.2822 56.8976 61.3396 56.9398C61.4107 56.9912 61.4928 57.0254 61.5793 57.0397L65.5834 57.7588L65.4201 58.4125C65.4201 58.4125 65.3998 57.9731 64.6921 57.8098C64.0504 57.6611 61.8841 57.3002 61.5024 57.2378C61.4533 57.2296 61.4055 57.2155 61.3599 57.1957C61.2002 57.125 60.8742 56.9315 60.9132 56.5436C60.9491 56.1853 61.2611 55.8572 61.4446 55.6934C61.4587 55.6808 61.4693 55.6649 61.4755 55.6472C61.4818 55.6295 61.4835 55.6104 61.4804 55.5919C61.4774 55.5733 61.4697 55.5558 61.458 55.541C61.4464 55.5262 61.4313 55.5146 61.414 55.5072C61.3588 55.4833 61.2912 55.4552 61.2112 55.4271C60.2599 55.0884 59.2159 55.1211 58.2877 55.5186L56.7464 56.1728C56.7371 56.1765 56.727 56.1774 56.7172 56.1754C56.7074 56.1735 56.6984 56.1688 56.6912 56.1619C56.6862 56.1556 56.6826 56.1483 56.6809 56.1404C56.6792 56.1325 56.6793 56.1243 56.6813 56.1165C56.6832 56.1087 56.687 56.1015 56.6922 56.0953C56.6975 56.0892 56.7041 56.0844 56.7115 56.0813Z" fill="white"/>
<path d="M57.2322 60.0079L61.0074 63.6323C61.0878 63.7094 61.195 63.7525 61.3064 63.7524C61.3648 63.7523 61.4226 63.7403 61.4762 63.7173C61.5298 63.6942 61.5782 63.6605 61.6184 63.6182C61.8077 63.4191 62.1416 63.0514 62.1905 62.8845C62.1905 62.8845 61.7614 63.1294 61.2612 63.0582C60.7932 62.9911 57.7251 60.2533 57.3299 59.8987C57.3178 59.8878 57.3024 59.8813 57.2861 59.8801C57.2698 59.8789 57.2536 59.883 57.24 59.8919C57.2308 59.8983 57.2232 59.9066 57.2177 59.9163C57.2122 59.926 57.2089 59.9369 57.2082 59.948C57.2074 59.9592 57.2092 59.9703 57.2133 59.9807C57.2175 59.991 57.2239 60.0003 57.2322 60.0079Z" fill="white"/>
<path d="M58.7362 60.3351L60.6259 61.6221C60.706 61.6741 60.7819 61.5467 60.7018 61.4926L58.8121 60.2056C58.732 60.1536 58.6561 60.281 58.7362 60.3351Z" fill="white"/>
<path d="M54.4483 60.4086C54.2308 60.2832 54.0413 60.1145 53.8914 59.9131L50.0039 63.797C50.1661 63.9923 50.3397 64.1777 50.5239 64.3524C50.5342 64.3617 50.547 64.3679 50.5608 64.3702C50.5745 64.3725 50.5886 64.3709 50.6014 64.3654C50.6142 64.3599 50.6252 64.3509 50.633 64.3394C50.6409 64.3278 50.6452 64.3143 50.6456 64.3004C50.6455 64.2513 50.6296 64.2035 50.6003 64.1641C50.5506 64.0963 50.5063 64.0247 50.4677 63.9499C50.4372 63.8882 50.427 63.8184 50.4387 63.7505C50.4504 63.6827 50.4833 63.6203 50.5327 63.5724L53.634 60.5563C53.6936 60.4984 53.7679 60.458 53.8488 60.4393C53.9325 60.4198 54.0202 60.425 54.101 60.4544C54.2159 60.4903 54.3755 60.5236 54.4483 60.4086Z" fill="white"/>
<path d="M66.1299 38.4638C66.2646 38.195 66.326 37.8034 66.3452 37.6568C66.3504 37.6199 66.3519 37.5827 66.3499 37.5455C66.3286 37.3153 66.2462 37.095 66.1112 36.9075C66.0579 36.8318 66.0217 36.7455 66.005 36.6544C65.9884 36.5634 65.9918 36.4698 66.015 36.3802C66.0557 36.2223 66.1316 36.0756 66.237 35.9512H66.0535C65.9768 36.0207 65.9107 36.1011 65.8574 36.1899C65.7741 36.3289 65.7292 36.4875 65.7273 36.6496C65.7254 36.8117 65.7665 36.9714 65.8465 37.1123L65.9334 37.2683C65.9935 37.3759 66.0316 37.4945 66.0454 37.617C66.0591 37.7395 66.0483 37.8635 66.0134 37.9818C65.9794 38.0949 65.9358 38.2048 65.8829 38.3104L63.0526 45.0933C62.9244 45.4017 62.7181 45.6714 62.4541 45.8759C61.607 46.5326 59.6211 48.0214 58.3242 48.5752C58.3242 48.5752 56.4855 49.5715 53.7737 50.1076C51.0619 50.6438 49.6064 50.8289 49.6064 50.8289L50.0354 50.9501C52.0146 50.6743 53.9745 50.2748 55.9036 49.7541L58.5837 48.7286C58.5837 48.7286 60.983 47.7084 62.4728 46.4734C62.875 46.1369 63.1878 45.7062 63.3833 45.2197L66.1299 38.4638Z" fill="white"/>
<path d="M63.1362 56.988L66.5318 57.5979L74.6241 59.0514L84.4354 60.8137L92.9151 62.3362C94.2806 62.5817 95.6513 62.8916 97.0272 63.0752C97.047 63.0752 97.0668 63.0819 97.0865 63.0856C97.2285 63.1111 97.2888 62.8942 97.1463 62.8687L93.7507 62.2588L85.6585 60.8027L75.8482 59.043L67.3685 57.5205C66.003 57.275 64.6323 56.9651 63.2564 56.7815C63.2366 56.7815 63.2168 56.7748 63.1971 56.7711C63.0551 56.7456 62.9943 56.9625 63.1373 56.988H63.1362Z" fill="white"/>
<path d="M65.9551 57.668L81.5436 60.3995L85.4436 61.0818L89.339 61.7744C91.9338 62.2471 94.5291 62.7182 97.1202 63.2143V63.2257C94.5171 62.7978 91.9202 62.3417 89.3202 61.8924L85.4249 61.1988L81.5317 60.4942L65.9577 57.6799L65.9551 57.668Z" fill="white"/>
<path d="M62.1752 54.5307L65.5662 55.2379C65.6603 55.2577 65.7003 55.1131 65.6062 55.0933L62.2147 54.3861C62.1206 54.3664 62.0805 54.5109 62.1752 54.5307Z" fill="white"/>
<path d="M60.6737 50.5167C60.6542 50.5221 60.6337 50.5226 60.6139 50.5183C60.5942 50.5139 60.5758 50.5048 60.5604 50.4918C60.5269 50.4655 60.503 50.429 60.4923 50.3878C60.4813 50.3421 60.4856 50.294 60.5047 50.251C60.5231 50.21 60.5516 50.1742 60.5874 50.147C60.6205 50.1222 60.6584 50.1048 60.6988 50.0958C60.7391 50.0868 60.7809 50.0866 60.8214 50.095C60.8934 50.11 60.9573 50.1511 61.0007 50.2105C60.9285 50.2203 60.8676 50.224 60.8167 50.2365C60.7731 50.245 60.7318 50.2627 60.6955 50.2885C60.6657 50.3085 60.6436 50.338 60.6326 50.3722C60.6276 50.3943 60.6276 50.4172 60.6326 50.4393C60.6375 50.4689 60.6519 50.4961 60.6737 50.5167Z" fill="white"/>
<path d="M52.9919 51.7775C52.592 51.5939 51.9404 51.4426 51.9404 51.4426C51.9404 51.4426 62.4615 49.4666 65.0964 48.9279C65.0964 48.9279 66.5981 48.5452 65.6637 49.8779C65.6637 49.8779 65.7708 49.1733 64.7594 49.2498C63.748 49.3262 56.5476 50.7058 56.5476 50.7058C56.5476 50.7058 53.9726 51.284 52.9919 51.7775Z" fill="white"/>
<path d="M65.2821 50.2745C64.814 50.7664 62.838 52.7814 61.0699 53.941C61.0497 53.9542 61.0331 53.9722 61.0215 53.9935C61.01 54.0147 61.0039 54.0385 61.0039 54.0626C61.0039 54.0995 61.0179 54.135 61.043 54.162C61.068 54.189 61.1024 54.2055 61.1391 54.2082L61.3882 54.227C61.5227 54.237 61.6577 54.2163 61.783 54.1665C61.9083 54.1167 62.0206 54.039 62.1115 53.9394L65.3741 50.3577C65.3842 50.3464 65.3898 50.3318 65.3897 50.3166C65.3904 50.3038 65.387 50.2912 65.3801 50.2804C65.3732 50.2696 65.363 50.2613 65.3511 50.2566C65.3392 50.252 65.3261 50.2512 65.3137 50.2544C65.3013 50.2576 65.2902 50.2646 65.2821 50.2745Z" fill="white"/>
<path d="M68.1294 38.0044L66.5361 42.3402L68.2672 38.0658L68.1294 38.0044Z" fill="white"/>
<path d="M64.9638 36.2463C64.9637 36.2292 64.9579 36.2126 64.9472 36.1991C64.9366 36.1857 64.9217 36.1763 64.905 36.1725L55.7073 34.0925C55.686 34.0871 55.6665 34.076 55.651 34.0604C55.6354 34.0449 55.6244 34.0254 55.6191 34.004C55.6138 33.9827 55.6143 33.9603 55.6207 33.9393C55.6271 33.9182 55.639 33.8993 55.6553 33.8845C55.7028 33.8425 55.7552 33.8064 55.8113 33.7769L54.7983 33.9973C54.7819 34.0004 54.7665 34.0079 54.7539 34.0189C54.7413 34.03 54.7318 34.0442 54.7265 34.0601C54.7212 34.076 54.7203 34.093 54.7237 34.1094C54.7272 34.1258 54.735 34.141 54.7463 34.1533C54.7601 34.1682 54.7784 34.1781 54.7983 34.1814L64.8712 36.3212C64.8824 36.3238 64.894 36.3238 64.9052 36.3213C64.9164 36.3187 64.9269 36.3136 64.9358 36.3064C64.9447 36.2992 64.9519 36.29 64.9567 36.2796C64.9616 36.2692 64.964 36.2578 64.9638 36.2463Z" fill="white"/>
<path d="M68.0861 36.9162L79.1013 39.252C79.126 39.2572 79.1518 39.2529 79.1735 39.24C79.1909 39.2296 79.2047 39.2141 79.2131 39.1957C79.2216 39.1773 79.2243 39.1568 79.221 39.1368C79.2176 39.1168 79.2083 39.0984 79.1943 39.0837C79.1803 39.0691 79.1622 39.0591 79.1423 39.0549L68.1137 36.7857C68.1028 36.7833 68.0915 36.7837 68.0809 36.7869C68.0702 36.7901 68.0606 36.796 68.0528 36.8039C68.0443 36.8124 68.0382 36.823 68.0353 36.8346C68.0323 36.8462 68.0325 36.8585 68.0359 36.87C68.0394 36.8815 68.0458 36.8919 68.0546 36.9C68.0635 36.9081 68.0743 36.9137 68.0861 36.9162Z" fill="white"/>
<path d="M66.8838 35.6245C66.8838 35.6245 67.8848 35.2256 68.8245 35.236C69.7641 35.2464 69.3554 36.0836 69.3554 36.0836C69.3554 36.0836 69.2228 35.4914 68.2218 35.5423C67.2208 35.5933 66.8838 35.6245 66.8838 35.6245Z" fill="white"/>
<path d="M32.9193 65.485L34.9707 64.809L39.8675 63.1881L45.8179 61.2184L50.9394 59.5232L52.6371 58.9611C52.8899 58.8773 53.2091 58.8233 53.4426 58.6948C53.4538 58.6897 53.4655 58.6857 53.4775 58.6829C53.5685 58.6527 53.5295 58.5081 53.4374 58.5383L51.386 59.2174L46.4892 60.8383L40.5404 62.8054L35.4189 64.5006L33.7211 65.0622C33.4684 65.1459 33.1492 65.2005 32.9162 65.329C32.9048 65.3339 32.8929 65.3377 32.8808 65.3404C32.7898 65.3706 32.8288 65.5157 32.9209 65.485H32.9193Z" fill="white"/>
<defs>
<radialGradient id="paint0_radial_463_21374" cx="0" cy="0" r="1" gradientUnits="userSpaceOnUse" gradientTransform="translate(100.137 63.039) rotate(-158.464) scale(88.5425 228.358)">
<stop stop-color="#8F8AD2"/>
<stop offset="1" stop-color="#4267B2"/>
</radialGradient>
</defs>
</svg>
