<svg width="105" height="104" viewBox="0 0 105 104" fill="none" xmlns="http://www.w3.org/2000/svg">
<path d="M60.4224 51.2934L60.7442 51.0636L60.7318 50.9856C59.5696 51.0896 58.4084 51.2206 57.2441 51.2903C56.0954 51.3589 54.9348 51.2617 53.7986 51.4915L53.7924 51.6132C53.953 51.6434 54.1132 51.685 54.2754 51.7026C55.7892 51.868 57.305 52.0172 58.8171 52.194C62.3989 52.6132 65.9798 53.0397 69.5598 53.4738C72.7001 53.8575 75.8372 54.2663 78.9765 54.6583C82.421 55.0889 85.8658 55.5165 89.311 55.9412C92.1609 56.2979 95.0103 56.6581 97.8592 57.0217C98.2326 57.0691 98.6257 57.21 98.9726 57.1367C99.3194 57.0633 99.6018 56.7565 99.9288 56.5818C100.471 56.2922 101.018 56.0098 101.578 55.755C102.103 55.5169 102.677 55.5148 103.242 55.5085C103.45 55.5085 103.568 55.6125 103.549 55.8278C103.509 56.2865 103.483 56.7487 103.403 57.2011C103.351 57.4949 103.154 57.7211 102.872 57.8563C102.248 58.1559 101.604 58.342 100.902 58.3592C100.497 58.3691 100.095 58.4814 99.6917 58.5495C98.3584 58.7752 97.02 58.9733 95.6654 58.9686C95.0324 58.9688 94.4007 58.914 93.7772 58.8048C92.6332 58.5994 91.4736 58.5693 90.3213 58.4637C87.7002 58.2235 85.079 57.9818 82.4579 57.7388C79.769 57.4861 77.0811 57.2188 74.3922 56.9687C72.3324 56.7753 70.2717 56.5964 68.212 56.4061C65.267 56.1346 62.3224 55.8604 59.3782 55.5834C57.0127 55.3614 54.6462 55.1331 52.2823 54.9116C52.1034 54.8944 51.9214 54.9116 51.6349 54.9116L55.3555 59.0872C55.5208 59.0128 55.6748 58.9478 55.8235 58.8745C56.4844 58.5402 57.2264 58.3996 57.9638 58.4689C58.867 58.5563 59.7625 58.6795 60.6319 58.9671C61.5253 59.2629 62.4358 59.5084 63.3292 59.8037C63.5959 59.8921 63.8752 60.031 64.0702 60.225C64.3952 60.5494 64.2953 60.9342 63.8684 61.109C62.6646 61.5993 61.4618 62.097 60.1951 62.4058C59.9923 62.4578 59.8405 62.5098 59.8082 62.7381C59.6148 64.1208 57.8983 64.7828 56.4828 63.6221C56.0642 63.2784 55.9982 63.126 55.8854 62.5494C55.4621 62.4027 55.069 62.1807 54.8038 61.7694C54.4616 61.2431 54.3534 60.706 54.6415 60.121C54.7388 59.9234 54.8214 59.7185 54.9145 59.5089C54.4424 59.0107 53.9889 58.5209 53.5235 58.0446C52.5189 57.0134 51.5044 55.9916 50.5018 54.9584C50.352 54.7976 50.1447 54.7027 49.9251 54.6942C48.2393 54.5465 46.5555 54.3749 44.8707 54.2142C44.02 54.1331 43.1688 54.0563 42.317 53.9839C42.2047 53.9745 42.0612 53.9704 41.9806 54.0297C41.5973 54.3115 41.2312 54.6157 40.7955 54.9657C41.2427 55.1362 41.6186 55.2777 41.9915 55.4227C42.2146 55.5091 42.4439 55.5839 42.6576 55.6905C42.9524 55.8382 43.005 56.067 42.7871 56.3067C42.6667 56.4259 42.5206 56.5161 42.3602 56.5704C41.3992 56.9297 40.4336 57.2776 39.4695 57.6286C39.3916 57.6644 39.3092 57.6896 39.2246 57.7035C38.7238 57.7378 38.3926 58.0113 38.157 58.4445C38.1934 58.471 38.2303 58.5011 38.2704 58.5261C38.8268 58.8703 38.8424 59.3675 38.2984 59.7268C38.1112 59.8479 37.9123 59.9498 37.7046 60.031C36.7357 60.4182 35.765 60.7995 34.7926 61.175C34.5846 61.2551 34.4312 61.331 34.3095 61.564C34.1439 61.8632 33.9088 62.1184 33.6242 62.3081C32.787 62.8754 31.969 62.6721 31.2166 61.9441C30.993 61.7278 30.7829 61.5385 30.5005 61.3996C29.8713 61.0908 29.5156 60.1428 29.6831 59.342C29.7646 58.9168 29.996 58.5351 30.3352 58.2661C30.9072 57.8101 31.5468 57.4752 32.2982 57.4825C32.6044 57.4856 32.7802 57.3681 32.9081 57.1247C33.0288 56.8959 33.2971 56.7368 33.2607 56.3967L31.3986 57.3114C31.0559 56.5771 30.7324 55.8845 30.4106 55.1919C29.968 54.2465 29.5214 53.3027 29.0856 52.3542C28.9803 52.1208 28.8087 51.9235 28.5921 51.7869C27.7268 51.2175 26.9645 50.5389 26.3915 49.6128C26.2766 49.6731 26.1549 49.724 26.0462 49.7942C24.2921 50.9282 22.5378 52.0621 20.7833 53.1961C20.5976 53.3176 20.3994 53.4187 20.192 53.4977C19.6544 53.6958 19.4084 53.5773 19.1401 53.025C19.2334 53.0931 19.3228 53.1663 19.4079 53.2444C19.6159 53.4587 19.8556 53.4758 20.114 53.3568C20.2062 53.3118 20.2955 53.261 20.3813 53.2049C22.2644 52.0155 24.1468 50.8256 26.0285 49.6351C26.1272 49.5647 26.2218 49.4889 26.3119 49.4079C26.211 49.0605 25.8959 49.061 25.6604 48.9612C25.4248 48.8614 25.1981 48.7272 24.8887 48.7532L25.4726 49.4614C23.752 50.5212 22.0926 51.5477 20.4286 52.5648C20.0663 52.7979 19.6319 52.8919 19.2056 52.8295L19.1572 53.0375C19.1038 52.9984 19.0556 52.9526 19.0137 52.9012C18.5613 52.1649 18.5072 52.1634 19.2514 51.7572C20.9783 50.815 22.6834 49.8291 24.3942 48.8598C24.508 48.7953 24.6146 48.7178 24.7649 48.6201C24.1778 48.1802 23.3609 47.9742 23.4774 47.0081C22.8243 46.7767 22.1842 46.5468 21.5425 46.3217L7.50248 41.3988C5.93763 40.8497 4.37295 40.2999 2.80844 39.7494C2.76008 39.7322 2.71484 39.7067 2.667 39.688C1.97748 39.4176 1.85008 38.8128 2.36384 38.2804C2.50039 38.1369 2.66533 38.0235 2.84815 37.9473C3.03097 37.8711 3.22766 37.8338 3.42568 37.8378C4.06736 37.8441 4.63728 37.6532 5.1838 37.3501C5.93129 36.9308 6.76773 36.6952 7.62416 36.6626C7.88988 36.6528 8.15716 36.6944 8.45616 36.7146C8.45616 36.9289 8.45304 37.0786 8.45616 37.2274C8.48216 38.2284 8.84252 39.0614 9.69428 39.6334C9.86472 39.7458 10.0513 39.8315 10.2476 39.8877C15.6514 41.4567 21.0559 43.0223 26.4612 44.5843C26.5267 44.6031 26.5948 44.6145 26.6614 44.6291C27.0311 44.7102 27.1294 44.6629 27.2027 44.3046C27.3067 43.8038 27.3966 43.2994 27.4882 42.7966C27.784 41.1669 28.083 39.5377 28.369 37.9086C28.4782 37.2846 28.5521 36.6606 28.6472 36.0366C28.6731 35.9173 28.7057 35.7996 28.745 35.684C29.3633 35.788 29.9498 35.8837 30.5343 35.9887C30.785 36.0334 30.7943 36.1967 30.7387 36.4115C30.5608 37.0875 30.4012 37.7687 30.2317 38.4468C29.7918 40.2026 29.3515 41.9583 28.9109 43.7139C28.887 43.809 28.875 43.9073 28.8516 44.0389C28.9246 44.0447 28.998 44.0447 29.071 44.0389C31.1063 43.6463 33.1692 43.496 35.2315 43.3415C36.765 43.2271 38.2995 43.1133 39.8298 42.9661C40.2271 42.9276 40.6124 42.7638 41.0035 42.6577C41.1075 42.6957 41.2078 42.7617 41.3124 42.7669C42.8776 42.8351 44.345 43.2568 45.7251 43.9853C46.8452 44.576 47.9611 45.1813 49.0723 45.784C49.9735 46.2728 50.9537 46.5047 51.9516 46.6794C53.2401 46.9056 54.5453 46.8926 55.8458 46.9139C56.3594 46.9235 56.8724 46.8764 57.3757 46.7735C58.4833 46.5437 59.3392 45.9743 59.6767 44.822C59.9112 44.0238 60.0001 43.21 59.8654 42.3832C59.776 41.8325 59.6621 41.286 59.5534 40.6994C59.6668 40.7074 59.7796 40.7217 59.8914 40.7421C62.1488 41.3068 64.3988 41.9058 66.6951 42.2989C68.2302 42.5621 69.7553 42.8964 71.3231 42.8959C72.1442 42.8959 72.9694 42.8871 73.7864 42.9557C75.2585 43.0795 76.5824 42.5631 77.9219 42.0909C77.9635 42.0764 77.9942 42.0306 78.0296 41.9994C77.4846 42.0696 76.9417 42.1648 76.4472 42.3743C76.1082 42.5179 75.7712 42.6271 75.4176 42.6489C74.4436 42.7082 73.465 42.8023 72.4936 42.7607C70.1859 42.6624 67.8906 42.4393 65.6416 41.8585C64.6489 41.6021 63.6349 41.4285 62.6308 41.2179C60.6886 40.8102 58.7698 40.3281 56.9254 39.5762C56.4654 39.3926 55.989 39.2533 55.5026 39.1602C53.7586 38.816 51.9994 38.7759 50.233 38.96C47.7292 39.22 45.3632 39.8918 43.2301 41.2719C42.6696 41.6359 42.1043 41.9901 41.5417 42.3489C41.6524 42.2272 41.7497 42.0852 41.8766 41.9849C44.1958 40.2038 46.8134 39.1456 49.7104 38.7811C51.4764 38.5603 53.2635 38.5688 55.0274 38.8066C55.927 38.9262 56.7512 39.2039 57.5712 39.5346C59.1312 40.1648 60.7364 40.6266 62.375 40.9839C63.8783 41.3135 65.3743 41.6822 66.887 41.9599C68.1111 42.1845 69.3513 42.3374 70.591 42.4523C72.0532 42.5875 73.3163 42.1294 74.31 41.0062C74.5658 40.7176 74.8586 40.4623 75.1347 40.1914C75.1259 40.2387 75.1347 40.3006 75.1051 40.3318C74.3251 41.2225 73.5622 42.1377 72.3491 42.4721C72.3272 42.4783 72.3142 42.5163 72.2492 42.6057C72.5612 42.6057 72.8311 42.6437 73.0875 42.599C74.2247 42.3998 75.2439 41.9552 76.0858 41.1347C76.8658 40.3723 77.4628 39.4774 77.9989 38.5346C78.3889 37.8503 78.7388 37.1384 79.1793 36.4879C80.5786 34.4209 82.474 33.1656 85.0485 33.0159C84.9757 32.8198 84.8135 32.7158 84.5998 32.6961C83.9347 32.6357 83.2691 32.5791 82.603 32.5323C81.979 32.4881 81.4293 32.6929 80.9296 33.0679C80.3576 33.4963 79.8984 34.0241 79.5084 34.6112C78.274 36.4708 76.8622 38.1935 75.4441 39.9116C75.3516 40.0239 75.2268 40.1092 75.1165 40.207C75.1862 40.0749 75.2372 39.9282 75.3282 39.8128C76.7639 37.9819 78.2402 36.1811 79.55 34.2545C79.9304 33.7035 80.4092 33.2276 80.9624 32.8505C81.4402 32.5088 82.0222 32.3444 82.6082 32.3856C83.306 32.4324 84.0028 32.5016 84.698 32.5832C85.2586 32.6487 85.4749 32.9992 85.3142 33.5577C84.7994 35.3496 84.281 37.1402 83.7589 38.9293C83.2275 40.7511 82.6933 42.5719 82.1563 44.3919C82.1437 44.4606 82.1363 44.5302 82.1339 44.5999L84.7339 45.1085C85.6242 45.2818 86.5142 45.4567 87.4041 45.6332C88.2772 45.8037 89.1498 45.9759 90.0234 46.1433C90.8819 46.3076 91.7451 46.4506 92.6878 46.6695C92.5402 46.7923 92.496 46.8583 92.4398 46.8708C91.6598 47.0465 90.8756 47.2202 90.0904 47.3799C89.9812 47.4017 89.8564 47.3487 89.7394 47.3279C87.2018 46.845 84.6642 46.3621 82.1266 45.8791C82.0288 45.8672 81.9304 45.861 81.8318 45.8604C81.6945 46.2873 81.539 46.7013 81.4324 47.1277C81.3654 47.396 81.2374 47.5463 80.9702 47.604C79.7502 47.8687 78.5376 48.176 77.3094 48.3949C76.4254 48.5509 75.5367 48.4022 74.6657 48.1869C73.8029 47.9665 72.8991 47.9626 72.0345 48.1755C70.8104 48.4688 69.5494 48.6045 68.3113 48.8463C65.7347 49.3491 63.2262 50.0776 60.841 51.1956C60.711 51.257 60.5539 51.2596 60.4099 51.2898L60.4224 51.2934ZM34.1899 55.7212C34.296 55.5871 34.4019 55.4531 34.5076 55.3193C34.6387 55.1695 34.7791 55.0265 34.8987 54.8679C35.2143 54.4493 35.3979 53.9319 35.8316 53.5819C35.6927 53.597 35.5414 53.6251 35.4832 53.7145C35.142 54.2376 34.8217 54.7748 34.4952 55.3073L34.2003 55.7311L33.8883 56.0384L33.9814 56.1081L34.1899 55.7212ZM77.1128 41.6489L77.625 41.3115L77.5439 41.2038L77.0904 41.6261L76.6427 41.8772L76.7171 41.9812L77.1128 41.6489ZM40.68 54.3921C40.2781 54.5621 40.2781 54.5621 40.3883 54.818L40.6707 54.3817L41.1704 54.1217L40.8766 54.0733C40.9026 54.0156 40.9286 53.9579 40.9723 53.8617C40.769 53.83 40.5901 53.7873 40.4091 53.7764C39.1008 53.6948 37.792 53.6246 36.4842 53.5382C36.2002 53.5195 36.0864 53.6287 36.0718 53.9251C36.9854 53.9376 37.8658 54.013 38.7196 54.274C39.0446 54.3739 39.3686 54.4748 39.69 54.5861C39.7771 54.6198 39.8717 54.6294 39.9638 54.614C40.056 54.5985 40.1423 54.5585 40.2136 54.4982C40.4299 54.337 40.666 54.2028 40.8932 54.0577L40.68 54.3921ZM62.156 44.1761L61.311 44.6306C61.5557 44.5878 61.7903 44.4996 62.0026 44.3706C62.0687 44.3332 62.0999 44.2349 62.1488 44.1668C62.5512 44.1148 62.7208 43.9848 62.895 43.5797C63.117 43.3426 63.0328 43.0727 62.947 42.8262C62.6464 41.9833 61.4416 41.3146 60.5071 41.4924C60.6906 41.5539 60.8793 41.5988 61.0708 41.6266C62.2013 41.8096 62.8908 42.5428 62.9074 43.5885L62.156 44.1761ZM45.3138 50.3881C45.1344 50.4271 44.9466 50.4442 44.7766 50.5082C44.0252 50.7911 43.2774 51.0844 42.5312 51.3802C41.7289 51.6985 40.8943 51.9086 40.0352 51.9096C38.4461 51.9096 36.8565 51.8576 35.2668 51.8274C35.1306 51.8248 34.9944 51.8274 34.8581 51.8274C35.3238 51.9434 35.801 52.0071 36.2808 52.0172C37.17 52.0432 38.0603 52.0349 38.9495 52.0614C40.3691 52.1036 41.7429 51.9221 43.0512 51.3298C43.6576 51.0558 44.2888 50.8358 44.9061 50.5852C45.0423 50.523 45.1751 50.4535 45.3039 50.3772L45.7339 50.2565L45.685 50.1489L45.3138 50.3881ZM78.1502 40.624C78.3858 40.2324 78.6463 39.8534 78.8517 39.4467C79.198 38.7614 79.5069 38.0568 79.8366 37.3626C80.1599 36.6595 80.6619 36.0535 81.2926 35.605C81.8885 35.1848 82.4886 34.773 83.0912 34.357C83.0512 34.357 82.995 34.3403 82.9571 34.357C81.5692 35.0647 80.2853 35.8785 79.6119 37.3865C79.133 38.4603 78.6078 39.5138 78.1039 40.5767L77.6952 41.0447L77.7992 41.1232C77.915 40.9596 78.032 40.7935 78.1502 40.625V40.624ZM30.2218 46.6243C30.0897 46.643 29.9571 46.6612 29.825 46.6805C29.6248 46.7096 29.4943 46.8115 29.4163 47.1053C29.4857 47.0482 29.5583 46.9951 29.6337 46.9462C29.9327 46.7902 30.0086 46.8245 30.1095 47.1391C30.226 47.5031 30.1365 47.8572 30.0268 48.1958C29.9348 48.4792 29.7392 48.4859 29.5354 48.2452C29.4756 48.1739 29.4262 48.0938 29.3227 47.9477C29.4787 48.5624 29.6155 48.6705 30.267 48.5993C31.2706 48.4906 32.2711 48.346 33.2721 48.2134C33.3162 48.1996 33.3578 48.1789 33.3954 48.1521C33.152 48.1136 32.9175 48.1521 32.683 48.1521C32.2238 48.1521 31.7553 48.1843 31.3065 48.1074C30.4896 47.968 30.2145 47.6435 30.2187 46.6201L30.7657 46.656C30.7657 46.6269 30.7657 46.5978 30.7657 46.5687L30.2218 46.6243ZM34.2695 54.4467C34.4582 54.3136 34.6366 54.1612 34.8384 54.052C35.0744 53.9241 35.2502 53.7691 35.3001 53.48L32.3039 53.0453C32.4323 53.2533 32.5119 53.3833 32.5909 53.5133C32.6788 53.6589 32.7656 53.805 32.8509 53.9506C32.4204 53.6984 32.204 53.2517 31.9404 52.8685C30.9815 51.4723 30.0684 50.0433 29.1376 48.6284C29.0404 48.4807 28.9296 48.3419 28.8443 48.2264C28.5323 48.6866 28.2437 49.1052 27.9307 49.5644L29.7892 53.5164C29.8129 53.4684 29.8253 53.4155 29.8253 53.362C29.8253 53.3084 29.8129 53.2555 29.7892 53.2075C29.4917 52.4972 29.1925 51.7878 28.8916 51.0792C28.7585 50.764 28.6062 50.4552 28.4949 50.1328C28.3176 49.6174 28.5256 49.1302 29.0279 48.8848C29.4361 49.5088 29.8495 50.1364 30.2582 50.7672C31.189 52.2039 32.1229 53.6391 33.0444 55.0832C33.3855 55.6177 33.3564 55.7519 32.8754 56.1643C32.6502 56.3572 32.4074 56.5283 32.1687 56.7061C32.4335 56.6472 32.6835 56.535 32.9036 56.3764C33.1237 56.2178 33.3092 56.0161 33.4489 55.7836C33.5321 55.65 33.528 55.4118 33.4723 55.2532C33.372 54.9667 33.2024 54.7041 33.062 54.4316C33.27 54.623 33.4744 54.8138 33.6465 54.9729L34.1036 54.6381L33.373 56.2641C33.7209 56.0296 34.7427 54.4925 34.8259 54.1602L34.2695 54.4467ZM33.5482 52.2627H32.9081L32.9159 52.3438L33.5586 52.2518C33.632 52.31 33.7011 52.4119 33.7802 52.4208C34.8514 52.5357 35.9226 52.6579 36.9974 52.738C37.9854 52.8118 38.9822 52.8383 39.9749 52.8841C41.2229 52.9423 42.4709 53.0037 43.7189 53.0541C44.3772 53.0801 44.9513 52.8607 45.4869 52.4717C46.1109 52.0193 46.7516 51.5877 47.4161 51.1977C48.831 50.372 50.3448 49.8592 52.0093 49.9736C52.6738 50.0194 53.3337 50.1385 53.9941 50.2336C55.0435 50.3896 56.0876 50.5878 57.1412 50.7016C58.151 50.8119 59.1489 50.6793 60.1494 50.4676C61.6875 50.1421 63.1919 49.67 64.7602 49.462C65.6707 49.3408 66.5526 49.0189 67.4574 48.8333C69.3856 48.437 71.3195 48.0652 73.2528 47.6945C74.0583 47.5385 74.8721 47.4267 75.6766 47.2675C75.962 47.2109 76.2761 47.1734 76.4872 46.889C76.1735 46.8638 75.8579 46.8778 75.5476 46.9306C72.8103 47.4745 70.072 48.0132 67.3415 48.5899C66.1554 48.8411 64.9906 49.1895 63.8102 49.4739C62.6142 49.7599 61.3979 49.9799 60.2097 50.2986C58.9929 50.6252 57.7704 50.6684 56.5411 50.4999C55.3882 50.3439 54.2474 50.1036 53.0976 49.9185C51.9479 49.7334 50.781 49.6476 49.6318 49.9705C49.2054 50.0912 48.7832 50.2258 48.361 50.3605C47.6928 50.5732 47.0235 50.7838 46.3595 51.009C44.9986 51.4702 43.6482 51.9652 42.279 52.3994C41.4583 52.6541 40.5992 52.7627 39.7409 52.7203C38.611 52.673 37.4784 52.6683 36.3505 52.5882C35.4156 52.5248 34.4863 52.3724 33.5482 52.2627ZM81.3565 56.6432L81.3674 56.5324C81.2458 56.4984 81.1222 56.4722 80.9972 56.4539C80.1101 56.3743 79.2219 56.3057 78.3348 56.2246C76.8336 56.0873 75.3334 55.9401 73.8326 55.8039C72.6366 55.6957 71.4406 55.6063 70.2478 55.4919C68.1854 55.2964 66.1242 55.0847 64.0598 54.8871C62.6662 54.754 61.271 54.6375 59.8774 54.506C58.3762 54.3645 56.877 54.1992 55.3747 54.0728C53.9406 53.9517 52.5038 53.8648 51.0676 53.7665C50.4831 53.726 49.9043 53.6423 49.3817 53.3609C48.9106 53.1067 48.8591 52.6771 49.2491 52.3105C49.5949 51.9855 50.0291 51.8056 50.4872 51.7302C51.1274 51.6262 51.7742 51.5633 52.4164 51.4702C52.5121 51.4562 52.5979 51.3735 52.7872 51.2669C52.5147 51.1915 52.3561 51.1187 52.1934 51.1109C51.561 51.0703 50.9251 50.9996 50.2954 51.0324C49.2242 51.0875 48.205 51.3808 47.3002 51.9912C46.9819 52.2055 46.6725 52.4353 46.7011 52.8794C46.7297 53.3235 47.0651 53.5221 47.426 53.6594C47.8571 53.8232 48.2939 53.9896 48.7437 54.0811C50.5117 54.4394 52.3083 54.5398 54.0997 54.7015C55.396 54.819 56.6908 54.9542 57.9851 55.0899C59.6034 55.2595 61.218 55.4706 62.8388 55.6032C64.6661 55.7529 66.5001 55.819 68.329 55.9521C69.8151 56.0608 71.2966 56.2417 72.7833 56.3405C74.6984 56.4679 76.6162 56.5605 78.534 56.6375C79.4726 56.6744 80.4148 56.6432 81.3565 56.6432ZM29.017 46.0357C29.3108 45.954 29.537 45.8797 29.7689 45.8277C30.5052 45.6717 31.2436 45.5281 31.9815 45.381C35.1842 44.744 38.4144 44.4335 41.679 44.5121C42.6368 44.5349 43.5931 44.6088 44.5509 44.6535C44.7932 44.6649 45.0366 44.6535 45.2789 44.6535C45.2269 44.5287 45.1749 44.4835 45.1146 44.4606C43.9888 44.0409 42.837 43.7009 41.6374 43.6041C38.3348 43.3374 35.0708 43.5605 31.8692 44.4663C30.9332 44.7305 29.9972 44.9863 29.0664 45.2562C28.9624 45.2863 28.8708 45.3669 28.7616 45.4309L29.017 46.0357ZM6.11928 40.6453C6.12968 40.6095 6.13956 40.573 6.14996 40.5366C6.06572 40.4846 5.9794 40.4404 5.89828 40.3869C5.6284 40.209 5.33252 40.0588 5.098 39.8424C4.65236 39.4316 4.63624 38.9621 5.0824 38.5518C5.37518 38.2922 5.70907 38.0831 6.0704 37.933C6.49056 37.7515 6.94764 37.6553 7.38808 37.5206C7.59972 37.4556 7.81396 37.3948 8.02092 37.3163C8.17692 37.256 8.20812 37.1343 8.10256 36.9523C7.38964 36.9736 6.65696 36.9523 5.9664 37.2601C5.68612 37.386 5.40428 37.5097 5.12972 37.647C4.65684 37.8865 4.13952 38.0257 3.61028 38.0557C3.27162 38.0866 2.9453 38.1982 2.65868 38.3812C2.19068 38.6709 2.21824 39.0983 2.68156 39.3978C2.86796 39.5184 3.06756 39.6171 3.27644 39.6922C4.1438 40.0042 5.01532 40.3042 5.88684 40.6053C5.96313 40.6248 6.04086 40.6382 6.11928 40.6453ZM58.9513 58.9307V58.8506C58.7542 58.8241 58.5556 58.8074 58.3606 58.7689C57.41 58.5807 56.5192 58.7689 55.6784 59.2125C55.0274 59.5567 54.707 60.1646 54.7154 60.8562C54.7237 61.5603 55.1537 62.0678 55.8349 62.307C56.1759 62.422 56.5231 62.5175 56.8749 62.593C57.0309 62.6279 57.215 62.6918 57.3518 62.4615C57.2691 62.3679 57.1786 62.2717 57.0954 62.1698C56.9217 61.9618 56.7267 61.7605 56.5848 61.5296C56.1688 60.8536 56.227 60.3856 56.7605 59.8136C57.2519 59.2858 57.8744 59.0336 58.5805 58.9691L58.9513 58.9307ZM26.4856 44.9889L26.4575 44.8849C26.3967 44.8625 26.3364 44.8371 26.274 44.8183C24.8975 44.4065 23.5232 43.9863 22.1436 43.5854C19.5337 42.8241 16.9186 42.0774 14.3098 41.3135C13.1658 40.9771 12.0265 40.6084 10.8856 40.2538C10.7572 40.2137 10.6256 40.1498 10.5065 40.3843C10.6984 40.4592 10.8762 40.5439 11.0629 40.6001C14.0612 41.4976 17.0599 42.3936 20.0589 43.288C21.4026 43.6915 22.7395 44.1148 24.0801 44.5277C24.3661 44.6155 24.6157 44.7513 24.7805 45.0133C24.9646 45.3056 24.9402 45.4449 24.6687 45.6602C24.3598 45.9046 24.0484 46.1459 23.7473 46.3986C23.6516 46.4797 23.5117 46.5744 23.7109 46.8068C24.521 46.0341 25.4082 45.3591 26.4856 44.9889ZM32.0943 57.7289L32.0673 57.6551C31.9227 57.6801 31.7761 57.6972 31.6341 57.7321C31.0736 57.8688 30.6789 58.2427 30.3164 58.6634C29.851 59.2037 29.8568 59.8043 30.0502 60.4485C30.2327 61.0543 30.709 61.2332 31.2488 61.3393C31.3667 61.3602 31.4859 61.3736 31.6055 61.3794C32.3744 61.4348 33.1472 61.3646 33.8935 61.1714C34.8678 60.9147 35.8098 60.5484 36.7015 60.0793C36.5398 60.0905 36.3813 60.1303 36.2335 60.1969C35.1738 60.6378 34.1015 61.0216 32.9471 61.1516C32.3512 61.2187 31.7854 61.1937 31.2649 60.8666C30.8905 60.6316 30.6971 60.2946 30.6747 59.8474C30.6342 59.0222 31.0491 58.4523 31.6794 57.9973C31.8114 57.9016 31.9555 57.8199 32.0943 57.731V57.7289ZM40.354 55.4846L40.3961 55.3915C40.3816 55.364 40.3738 55.326 40.3504 55.3099C40.2813 55.2595 40.2084 55.2145 40.1325 55.1752C39.21 54.7129 38.2459 54.364 37.2293 54.1815C36.8586 54.1204 36.4834 54.0906 36.1077 54.0926C35.9782 54.0926 35.7957 54.17 35.7265 54.2725C35.1864 55.0837 34.6614 55.9051 34.1514 56.7368C34.1036 56.8143 34.1561 56.9968 34.2196 57.0878C34.283 57.1788 34.4146 57.2193 34.5212 57.2729C35.4223 57.7289 36.4483 57.8813 37.5434 57.7284C37.1794 57.7128 36.8055 57.6993 36.4301 57.6764C36.3292 57.6707 36.1976 57.6712 36.1363 57.6114C35.7588 57.2427 35.3786 56.8741 35.038 56.4726C34.8477 56.248 34.867 55.9526 35.0339 55.7015C35.2133 55.4311 35.4244 55.1815 35.5986 54.9074C35.8752 54.4727 36.2595 54.3931 36.7483 54.4347C37.8403 54.5268 38.8642 54.8258 39.8543 55.2725C40.0202 55.3494 40.1876 55.4165 40.354 55.4867V55.4846ZM30.4002 36.268C30.3695 36.4271 30.3549 36.528 30.331 36.6236C29.9524 38.167 29.6118 39.7202 29.135 41.2381C28.9098 41.9563 28.6899 42.6765 28.4455 43.3883C28.2463 43.9697 27.9749 44.511 27.3784 44.7695L28.3316 45.2551C29.1064 42.2521 29.8864 39.2309 30.6763 36.1697C30.0746 36.0449 29.5422 35.8941 28.9676 35.8795L28.7523 36.9861C29.2156 36.4988 29.6342 36.036 30.4002 36.268ZM103.304 55.7394C101.262 55.8533 99.7567 56.8865 98.2082 58.0992C98.7323 58.0009 99.1239 57.9286 99.5082 57.6832C100.155 57.2719 100.854 56.938 101.552 56.6135C102.098 56.3587 102.646 56.3312 103.08 56.8694C103.086 56.8767 103.111 56.8694 103.196 56.8637C103.23 56.5329 103.263 56.1887 103.304 55.7394ZM7.99596 40.9532C8.14156 41.0114 8.2856 41.0738 8.43276 41.1263C10.0097 41.6931 11.5871 42.2589 13.1648 42.8236C15.919 43.8064 18.6736 44.7873 21.4286 45.7663C21.5763 45.8183 21.7234 45.941 21.9008 45.8084C21.6122 45.5677 8.6184 40.9797 7.99596 40.9532ZM76.2085 48.1682C76.4503 48.3762 76.7233 48.3086 76.9537 48.2628C78.2436 48.0053 79.5299 47.73 80.8126 47.4371C80.9592 47.4038 81.1386 47.2743 81.1974 47.1428C81.3648 46.7699 81.4834 46.3747 81.6035 45.9826C81.6217 45.9228 81.5448 45.8334 81.4792 45.6831C81.4023 45.8578 81.343 45.9457 81.3232 46.0414C81.2359 46.5151 80.9239 46.7839 80.5042 46.9509C80.1898 47.0846 79.8679 47.2002 79.5402 47.2972C78.443 47.5946 77.3385 47.8744 76.2085 48.1682ZM63.1045 60.863C63.0853 60.8224 63.0655 60.7819 63.0463 60.7408C61.2455 61.4111 59.4115 61.942 57.4381 62.0746C57.6539 62.4183 57.9326 62.3783 58.1702 62.3715C59.7635 62.3283 61.324 61.9085 62.7239 61.1464C62.8591 61.072 62.9756 60.9587 63.1019 60.863H63.1045ZM90.2891 46.4101C90.3972 46.7252 90.312 46.8781 90.0499 46.8854C89.7956 46.89 89.5356 46.902 89.2876 46.8578C86.5406 46.3686 83.7941 45.8738 81.0482 45.3732C80.9208 45.3503 80.7882 45.3498 80.6592 45.3389C80.8449 45.4374 81.0461 45.5036 81.2541 45.5344C83.9461 46.0367 86.6397 46.5312 89.3302 47.0424C90.2225 47.2124 91.0748 47.0824 91.9302 46.7465L90.2891 46.4101ZM36.3729 59.381C35.233 59.4013 34.1748 59.4153 33.1161 59.4408C32.7838 59.4486 32.1385 59.7741 31.8073 60.0866C33.3761 60.1215 34.8571 59.8318 36.3729 59.381ZM28.7148 45.1158C29.9878 44.3831 31.3403 44.1278 32.736 43.8277C32.6398 43.7757 32.6107 43.744 32.5857 43.7477C31.4667 43.9005 30.3456 44.0415 29.2302 44.2188C28.7882 44.2895 28.7159 44.4439 28.7148 45.1158ZM23.8861 46.8874L23.987 46.9847C24.1295 46.8635 24.2688 46.7377 24.4155 46.6207C24.9948 46.1631 25.585 45.7211 26.3083 45.512C26.9879 45.3155 27.6296 45.3342 28.1683 45.876C28.2487 45.9444 28.3342 46.0065 28.4242 46.0617C28.2344 45.2458 27.8002 44.9177 27.081 45.0139C26.9461 45.033 26.8129 45.0629 26.6827 45.1033C25.8255 45.3568 25.039 45.8061 24.3853 46.4158C24.2184 46.5718 24.053 46.7304 23.8861 46.8874ZM34.0922 61.4371C33.6174 61.4974 33.1816 61.5754 32.7402 61.6024C32.2836 61.63 31.8239 61.6087 31.344 61.6087C31.9602 62.6227 33.4188 62.5301 34.0922 61.4371ZM36.4004 56.4269C37.2106 57.1398 40.3264 56.9635 40.8948 56.3229C40.1964 56.4154 39.4388 56.5829 38.6801 56.599C37.9214 56.6151 37.1602 56.4913 36.3989 56.4269H36.4004ZM28.017 46.9374L27.8839 46.9124C27.848 47.0543 27.8163 47.1974 27.7752 47.3378C27.5792 48.0034 27.0961 48.3128 26.4112 48.1698C26.0472 48.0949 25.6973 47.9545 25.339 47.8505C25.2288 47.8244 25.1171 47.8046 25.0046 47.7912C25.5881 48.2696 26.2604 48.4344 26.952 48.5156C27.1383 48.5276 27.3223 48.4696 27.4679 48.3528C27.9042 47.982 28.1122 47.5068 28.017 46.9374ZM83.0273 36.8623L82.889 36.8306C82.4941 38.5456 82.0993 40.2604 81.7044 41.975C82.2223 40.2888 82.6633 38.5846 83.0273 36.8623ZM38.3754 57.9031C37.3354 58.0326 36.39 58.0529 35.4442 57.8605C35.5116 57.9415 35.6024 57.9998 35.7042 58.0274C36.3219 58.1533 36.9412 58.276 37.5616 58.3888C37.9116 58.4528 38.1315 58.2599 38.3754 57.9031ZM61.9038 43.8517C61.8846 43.6624 61.869 43.5074 61.8518 43.3192C61.6054 43.3998 61.4187 43.4851 61.2232 43.5194C60.8831 43.5797 60.7999 43.7924 60.8072 44.1215C61.1909 44.16 61.4962 43.9692 61.9038 43.8517ZM61.7406 43.0857C61.5721 42.703 61.4473 42.3915 61.1056 42.1367C61.0802 42.5782 61.0583 42.9588 61.0323 43.4086L61.7406 43.0857ZM30.4886 51.8217L30.3534 51.8961L31.9451 54.8866L32.0584 54.8273L30.4886 51.8217ZM33.8816 57.1777L33.646 57.6338L35.1181 57.8589L35.1384 57.7726L33.8816 57.1777ZM9.9054 40.2158C9.4374 39.8487 7.88468 39.3729 7.47804 39.4186L9.9054 40.2158ZM28.3072 41.5007L28.4044 41.5226C28.523 41.0424 28.6417 40.5628 28.7606 40.0837L28.6478 40.0572L28.3072 41.5007ZM60.4988 41.9479H60.4738V44.6327C60.4822 44.6327 60.569 44.6764 60.5778 44.6759C60.5773 44.172 60.4988 42.4518 60.4988 41.9479ZM58.2945 62.8567H57.2717C57.5182 62.7641 57.8801 63.2269 58.2945 62.8567ZM57.7288 63.7407L56.9238 63.3668C57.125 63.5873 57.3481 63.7563 57.7288 63.7407ZM33.4011 46.6441V46.5921H32.6767V46.6441H33.4011ZM29.6326 47.3721H29.6014V47.8349H29.6326V47.3721ZM34.0526 51.7234C34.0594 51.6954 34.0656 51.6668 34.0719 51.6387H33.5997C33.5997 51.6558 33.5997 51.673 33.5956 51.6907L34.0526 51.7234ZM26.1226 46.6404L26.0904 46.5598L25.7337 46.7028C25.7451 46.7309 25.756 46.7585 25.767 46.7865L26.1226 46.6404ZM41.3035 53.8965L41.3004 53.9485H41.6784V53.8965H41.3035Z" fill="url(#paint0_linear_463_21298)"/>
<path d="M41.545 42.3415C42.1077 41.9827 42.6729 41.627 43.2335 41.2646C45.3655 39.8845 47.7325 39.2131 50.2363 38.9526C52.0043 38.7685 53.7619 38.8086 55.506 39.1528C55.9924 39.2459 56.4688 39.3852 56.9287 39.5688C58.7732 40.3208 60.692 40.8028 62.6342 41.2105C63.6383 41.4211 64.6523 41.5948 65.645 41.8511C67.894 42.432 70.1892 42.6551 72.497 42.7533C73.4684 42.7949 74.447 42.7013 75.421 42.6415C75.7746 42.6197 76.1115 42.5105 76.4506 42.367C76.9451 42.159 77.4906 42.0622 78.0329 41.992C77.9976 42.0232 77.9669 42.069 77.9253 42.0836C76.5858 42.5557 75.2618 43.0716 73.7897 42.9483C72.9728 42.8797 72.1476 42.8885 71.3265 42.8885C69.7566 42.8885 68.2314 42.5547 66.6985 42.2916C64.4022 41.8984 62.1521 41.2994 59.8948 40.7347C59.783 40.7143 59.6702 40.7001 59.5568 40.692C59.6665 41.2786 59.7804 41.8251 59.8688 42.3758C60.0035 43.2021 59.9146 44.0164 59.68 44.8146C59.3426 45.967 58.484 46.5364 57.379 46.7662C56.8758 46.8691 56.3628 46.9162 55.8492 46.9066C54.5492 46.8853 53.2435 46.8983 51.9549 46.6721C50.957 46.4974 49.9789 46.2654 49.0757 45.7766C47.9624 45.1724 46.8485 44.5687 45.7284 43.9779C44.3484 43.2499 42.8809 42.8277 41.3157 42.7596C41.2117 42.7549 41.1077 42.6883 41.0068 42.6504L41.545 42.3415ZM58.5839 40.7113C58.4502 40.5667 58.3442 40.3618 58.1788 40.287C57.3073 39.8923 56.441 39.4731 55.4748 39.3509C55.0505 39.2989 54.6293 39.2168 54.2055 39.1575C53.1535 39.0114 52.1 38.9147 51.0376 39.0592C50.6315 39.1143 50.2218 39.1455 49.8125 39.1783C48.5931 39.2761 47.395 39.4757 46.2947 40.0431C45.1538 40.6312 44.028 41.2484 42.8981 41.8568C42.7858 41.9172 42.6901 42.0061 42.4914 42.1491C44.0998 42.2198 45.4762 42.7247 46.8298 43.3108C47.7882 43.7268 48.7569 44.1178 49.7075 44.5489C50.8802 45.0872 52.1686 45.3247 53.4562 45.24C54.3792 45.1818 55.3016 45.11 56.2241 45.0471C56.3604 45.0377 56.5039 45.0185 56.6328 45.0502C57.418 45.2447 58.1247 45.1802 58.6608 44.4855C58.5194 44.9816 58.1637 45.1963 57.6728 45.2338C57.4851 45.2483 57.2964 45.2561 57.1081 45.265C56.342 45.2996 55.5759 45.3343 54.8097 45.369C54.1077 45.4007 53.4057 45.4574 52.7042 45.4605C51.7933 45.4605 50.8921 45.2742 50.0559 44.9129C48.8417 44.3986 47.6457 43.8422 46.4351 43.3201C45.2391 42.8033 44.0124 42.3727 42.6911 42.2838C42.49 42.2639 42.2869 42.2846 42.0938 42.3446C41.9008 42.4046 41.7218 42.5028 41.5674 42.6332C41.8165 42.6727 42.0151 42.7117 42.2153 42.7372C43.4589 42.879 44.6667 43.2444 45.7804 43.8157C46.952 44.42 48.1204 45.0362 49.2852 45.6487C49.9909 46.0195 50.7537 46.215 51.528 46.3637C53.1535 46.6757 54.8009 46.6757 56.4467 46.6565C56.8174 46.6518 57.1929 46.5525 57.5558 46.4584C58.7071 46.1547 59.3566 45.395 59.5318 44.2223C59.5391 44.1703 59.5568 44.1225 59.5662 44.0715C59.783 42.8542 59.5069 41.6993 59.1626 40.5444C58.9869 40.5241 58.8506 40.4861 58.7196 40.5043C58.666 40.508 58.6296 40.638 58.5839 40.7113Z" fill="white"/>
<path d="M60.411 51.2803L59.839 51.7259L59.7734 51.6365C59.8651 51.5685 59.9606 51.5058 60.0594 51.4488C60.1764 51.3879 60.3028 51.3448 60.4234 51.2928L60.411 51.2803Z" fill="url(#paint1_linear_463_21298)"/>
<path d="M81.3562 56.6434C80.4144 56.6434 79.4722 56.6746 78.532 56.6366C76.6143 56.5596 74.6965 56.4671 72.7813 56.3397C71.2947 56.2409 69.8132 56.0599 68.327 55.9512C66.4982 55.8181 64.6641 55.7521 62.8368 55.6023C61.216 55.4697 59.6014 55.2586 57.9831 55.0891C56.6889 54.9533 55.394 54.8181 54.0977 54.7006C52.3068 54.5389 50.5097 54.4406 48.7417 54.0802C48.2919 53.9887 47.8577 53.8202 47.424 53.6585C47.0657 53.5223 46.7277 53.3299 46.6991 52.8785C46.6705 52.4272 46.9799 52.2025 47.2981 51.9903C48.204 51.3799 49.2222 51.0866 50.2965 51.0299C50.9262 50.9971 51.5622 51.0679 52.1945 51.1084C52.3572 51.1188 52.5158 51.1916 52.7883 51.2644C52.599 51.371 52.5132 51.4537 52.4176 51.4677C51.7754 51.5613 51.1285 51.6237 50.4884 51.7277C50.0276 51.8031 49.596 51.9831 49.2502 52.3081C48.8602 52.6721 48.9117 53.1042 49.3828 53.3585C49.9028 53.6398 50.4842 53.7225 51.0687 53.7641C52.5049 53.865 53.9417 53.9492 55.3759 54.0704C56.8781 54.1967 58.3773 54.3621 59.8785 54.5035C61.2721 54.6351 62.6673 54.7516 64.0609 54.8847C66.1232 55.0823 68.1845 55.2939 70.2489 55.4895C71.4449 55.6023 72.6409 55.6917 73.8338 55.8015C75.3345 55.9377 76.8347 56.0849 78.336 56.2221C79.2231 56.3033 80.1113 56.3719 80.9984 56.4515C81.1234 56.4697 81.247 56.496 81.3686 56.53L81.3562 56.6434Z" fill="white"/>
<path d="M75.1202 40.2046C75.2305 40.1068 75.3553 40.0216 75.4478 39.9092C76.8659 38.1932 78.2777 36.4684 79.5121 34.6088C79.9021 34.0218 80.3623 33.494 80.9333 33.0655C81.433 32.6905 81.9801 32.4857 82.6067 32.5299C83.2728 32.5767 83.9384 32.6339 84.6035 32.6937C84.8172 32.7134 84.9794 32.8174 85.0522 33.0135C82.4777 33.1632 80.5802 34.4175 79.183 36.4855C78.7425 37.1361 78.3926 37.8479 78.0026 38.5323C77.4665 39.4735 76.8721 40.3684 76.0895 41.1323C75.2476 41.9529 74.2284 42.3975 73.0912 42.5966C72.8348 42.6413 72.5639 42.6034 72.2529 42.6034C72.3179 42.5139 72.3309 42.476 72.3528 42.4697C73.5659 42.1354 74.3288 41.2217 75.1088 40.3294C75.1363 40.2982 75.1296 40.2363 75.1384 40.189L75.1202 40.2046Z" fill="white"/>
<path d="M29.017 46.0353L28.7627 45.4306C28.8719 45.3666 28.9624 45.286 29.0674 45.2559C30.0003 44.9876 30.9363 44.7302 31.8702 44.466C35.0719 43.5602 38.3359 43.3371 41.6384 43.6039C42.8381 43.7006 43.9899 44.0407 45.1157 44.4603C45.1765 44.4832 45.2285 44.5284 45.28 44.6532C45.0366 44.6532 44.7933 44.6647 44.552 44.6532C43.5941 44.6085 42.6379 44.5347 41.68 44.5118C38.4155 44.4333 35.1837 44.7437 31.9825 45.3822C31.2447 45.5294 30.5063 45.6745 29.7699 45.8289C29.537 45.8778 29.3108 45.9537 29.017 46.0353Z" fill="white"/>
<path d="M33.5537 52.2598C34.4861 52.3742 35.4153 52.5265 36.3508 52.5936C37.4787 52.6747 38.6112 52.6784 39.7412 52.7257C40.5995 52.7681 41.4586 52.6595 42.2793 52.4048C43.6485 51.9706 44.9989 51.4756 46.3597 51.0144C47.0238 50.7892 47.693 50.5786 48.3612 50.3659C48.7835 50.2313 49.2057 50.0966 49.6321 49.9759C50.7813 49.6504 51.9414 49.7352 53.0979 49.9239C54.2544 50.1127 55.3859 50.3477 56.5413 50.5053C57.7706 50.6738 58.9931 50.6306 60.2099 50.3041C61.3981 49.9853 62.6129 49.7653 63.8104 49.4794C64.9908 49.1975 66.1556 48.8491 67.3418 48.5954C70.0723 48.0187 72.8106 47.48 75.5479 46.9361C75.8581 46.8833 76.1738 46.8693 76.4875 46.8945C76.2764 47.1789 75.9623 47.2163 75.6768 47.273C74.8724 47.4321 74.0586 47.5455 73.2531 47.6999C71.3197 48.0707 69.3859 48.4425 67.4577 48.8387C66.5529 49.0244 65.671 49.3462 64.7605 49.4674C63.1922 49.6754 61.6878 50.1475 60.1496 50.4731C59.1491 50.6847 58.1513 50.8173 57.1414 50.7071C56.0879 50.5916 55.0437 50.3925 53.9944 50.2391C53.334 50.1418 52.6741 50.0227 52.0095 49.9791C50.3455 49.8647 48.8313 50.3774 47.4164 51.2031C46.7518 51.5916 46.1101 52.0247 45.4872 52.4771C44.9511 52.8661 44.377 53.0855 43.7192 53.0595C42.4712 53.0075 41.2232 52.9477 39.9752 52.8895C38.9825 52.8437 37.9883 52.8172 36.9977 52.7434C35.9228 52.6633 34.8516 52.5411 33.7804 52.4262C33.7014 52.4173 33.6322 52.3154 33.5589 52.2572L33.5537 52.2598Z" fill="white"/>
<path d="M6.11948 40.6453C6.04099 40.6374 5.96326 40.6231 5.88704 40.6027C5.01552 40.3016 4.144 40.0016 3.27664 39.6896C3.06865 39.6143 2.86994 39.5156 2.68436 39.3953C2.22104 39.0957 2.19556 38.6673 2.66148 38.3787C2.9481 38.1957 3.27442 38.084 3.61308 38.0531C4.1409 38.0226 4.65675 37.8834 5.12836 37.6444C5.40292 37.5071 5.68476 37.3844 5.96504 37.2575C6.6556 36.9455 7.38828 36.971 8.1012 36.9497C8.2052 37.1343 8.17764 37.256 8.01956 37.3137C7.81156 37.3922 7.59836 37.4531 7.38672 37.5181C6.94628 37.6527 6.4892 37.7489 6.06904 37.9304C5.7077 38.0805 5.37382 38.2897 5.08104 38.5492C4.63488 38.9595 4.651 39.4291 5.09664 39.8399C5.33116 40.0562 5.62704 40.2039 5.89692 40.3843C5.97804 40.4363 6.06436 40.4841 6.1486 40.5341C6.13976 40.5731 6.12988 40.6121 6.11948 40.6453Z" fill="white"/>
<path d="M58.9514 58.9307L58.5801 58.9681C57.874 59.0352 57.2515 59.2848 56.7602 59.8126C56.2266 60.3846 56.171 60.8527 56.5844 61.5287C56.7264 61.7596 56.9213 61.9582 57.095 62.1688C57.1782 62.2728 57.2687 62.3669 57.3514 62.4605C57.2146 62.6909 57.0285 62.6269 56.8745 62.5921C56.5227 62.5166 56.1755 62.4211 55.8346 62.3061C55.1534 62.0669 54.7233 61.5594 54.715 60.8553C54.7067 60.1636 55.027 59.5552 55.678 59.2115C56.5189 58.7679 57.4096 58.5797 58.3602 58.7679C58.5552 58.8064 58.7538 58.823 58.9509 58.8496L58.9514 58.9307Z" fill="white"/>
<path d="M26.4854 44.9886C25.4064 45.3589 24.5208 46.0338 23.7112 46.8086C23.512 46.5762 23.6519 46.4815 23.7476 46.4004C24.0487 46.1477 24.3602 45.9064 24.669 45.662C24.9405 45.4467 24.9649 45.3074 24.7808 45.0151C24.616 44.7551 24.3648 44.6173 24.0804 44.5295C22.7398 44.1166 21.4029 43.6933 20.0592 43.2898C17.062 42.3885 14.0633 41.4925 11.0632 40.6019C10.8766 40.5458 10.6992 40.461 10.5068 40.3861C10.627 40.1516 10.7575 40.2156 10.8859 40.2556C12.0268 40.6102 13.164 40.9789 14.3101 41.3154C16.919 42.0808 19.534 42.826 22.1439 43.5872C23.5235 43.9897 24.8999 44.4083 26.2743 44.8201C26.3367 44.8389 26.397 44.8643 26.4578 44.8867L26.4854 44.9886Z" fill="white"/>
<path d="M19.1548 53.0398L19.2032 52.8318C19.6294 52.8943 20.0639 52.8002 20.4262 52.5672C22.0902 51.55 23.7511 50.5236 25.4702 49.4638L24.8873 48.7556C25.1967 48.728 25.4281 48.8632 25.659 48.9636C25.8898 49.0639 26.2096 49.0629 26.3105 49.4103C26.2204 49.4912 26.1257 49.5671 26.0271 49.6375C24.1458 50.829 22.2634 52.0189 20.3799 53.2073C20.2941 53.2634 20.2048 53.3141 20.1126 53.3591C19.8526 53.4782 19.6166 53.4631 19.4065 53.2468C19.3214 53.1687 19.232 53.0954 19.1387 53.0274L19.1548 53.0398Z" fill="white"/>
<path d="M33.0659 54.4283C33.2063 54.7008 33.3779 54.9634 33.4762 55.2499C33.5318 55.4059 33.536 55.6467 33.4528 55.7803C33.3131 56.0128 33.1275 56.2145 32.9075 56.3731C32.6874 56.5317 32.4373 56.6439 32.1725 56.7028C32.4086 56.5229 32.6541 56.3539 32.8792 56.1609C33.3613 55.7486 33.3893 55.6144 33.0482 55.0799C32.1268 53.6374 31.1929 52.2022 30.2621 50.7639C29.8534 50.1331 29.44 49.5055 29.0318 48.8815C28.5294 49.1264 28.3214 49.6136 28.4988 50.1295C28.61 50.4519 28.7624 50.7607 28.8955 51.0759C29.1954 51.7851 29.4946 52.4946 29.793 53.2042C29.8168 53.2522 29.8291 53.3051 29.8291 53.3587C29.8291 53.4122 29.8168 53.4651 29.793 53.5131L27.9346 49.5611C28.2466 49.1019 28.5336 48.6833 28.8482 48.2231C28.9324 48.3386 29.0442 48.4774 29.1415 48.6251C30.0733 50.04 30.9854 51.469 31.9443 52.8652C32.2079 53.2484 32.4242 53.6972 32.8548 53.9473L33.0659 54.4283Z" fill="white"/>
<path d="M32.0948 57.7311C31.956 57.82 31.812 57.9017 31.6788 57.9984C31.0486 58.4534 30.6336 59.0234 30.6742 59.8486C30.6966 60.2958 30.89 60.6328 31.2644 60.8678C31.7844 61.1949 32.3507 61.2199 32.9466 61.1528C34.0994 61.0228 35.1732 60.639 36.233 60.198C36.3808 60.1315 36.5392 60.0917 36.701 60.0805C35.8093 60.5496 34.8673 60.9159 33.893 61.1725C33.1467 61.3657 32.3739 61.436 31.605 61.3805C31.4854 61.3748 31.3662 61.3614 31.2483 61.3405C30.7085 61.2365 30.2322 61.0555 30.0497 60.4497C29.8562 59.8054 29.8505 59.2048 30.3159 58.6645C30.6799 58.2439 31.073 57.87 31.6336 57.7332C31.7756 57.6984 31.9222 57.6812 32.0667 57.6562L32.0948 57.7311Z" fill="white"/>
<path d="M40.3535 55.4868C40.1871 55.4166 40.0187 55.3495 39.8538 55.2752C38.8658 54.8285 37.8378 54.5295 36.7478 54.4375C36.259 54.3959 35.8748 54.4754 35.5981 54.9101C35.4239 55.1837 35.2128 55.4338 35.0334 55.7042C34.8665 55.9564 34.8472 56.2507 35.0376 56.4754C35.3782 56.8768 35.7583 57.2455 36.1358 57.6142C36.1972 57.674 36.3287 57.6734 36.4296 57.6792C36.805 57.7015 37.1815 57.715 37.5429 57.7312C36.4478 57.884 35.4218 57.7312 34.5207 57.2756C34.4167 57.2236 34.2799 57.1794 34.2191 57.0905C34.1582 57.0016 34.1031 56.817 34.151 56.7395C34.6613 55.9075 35.1863 55.0861 35.726 54.2752C35.7942 54.1712 35.9777 54.0943 36.1072 54.0953C36.4829 54.0934 36.8581 54.1231 37.2288 54.1842C38.2455 54.3667 39.2095 54.7157 40.132 55.1779C40.208 55.2172 40.2808 55.2622 40.3499 55.3126C40.3733 55.3287 40.3811 55.3646 40.3957 55.3943L40.3535 55.4868Z" fill="white"/>
<path d="M30.4 36.2678C29.6325 36.0374 29.2139 36.4987 28.7531 36.9859L28.97 35.8799C29.542 35.8944 30.0771 36.0452 30.6787 36.17C29.8888 39.2313 29.1088 42.254 28.334 45.2555L27.3809 44.7719C27.9773 44.5119 28.2487 43.9721 28.4479 43.3908C28.6923 42.6789 28.9123 41.9587 29.1374 41.2406C29.6132 39.7227 29.9538 38.1694 30.3334 36.6261C30.3563 36.5262 30.3709 36.4269 30.4 36.2678Z" fill="white"/>
<path d="M33.0659 54.4286L32.8527 53.9507C32.7653 53.8051 32.6785 53.659 32.5927 53.5134C32.5142 53.3844 32.4367 53.2534 32.3057 53.0454L35.3019 53.4801C35.2499 53.7682 35.0762 53.9232 34.8401 54.0521C34.6384 54.1613 34.46 54.3121 34.2713 54.4468C34.2193 54.5097 34.1636 54.5727 34.1095 54.6351L33.6525 54.9699C33.4783 54.8108 33.2718 54.62 33.0659 54.4286Z" fill="white"/>
<path d="M103.304 55.7393C103.261 56.1885 103.228 56.5328 103.196 56.8656C103.111 56.8708 103.086 56.8786 103.08 56.8713C102.646 56.3331 102.098 56.3607 101.552 56.6155C100.854 56.9399 100.155 57.2738 99.508 57.6851C99.1242 57.9285 98.7327 58.0007 98.208 58.1011C99.7586 56.8879 101.264 55.8531 103.304 55.7393Z" fill="white"/>
<path d="M7.99609 40.9531C8.62009 40.9796 21.6107 45.5676 21.9009 45.8083C21.7236 45.9409 21.5764 45.8187 21.4287 45.7662C18.6738 44.7865 15.9192 43.8057 13.1649 42.8236C11.5865 42.2606 10.0092 41.6948 8.43289 41.1263C8.28573 41.0738 8.14429 41.0114 7.99609 40.9531Z" fill="white"/>
<path d="M40.8932 54.0571C40.6655 54.2032 40.4294 54.3374 40.2131 54.4986C40.1417 54.5589 40.0555 54.5989 39.9633 54.6144C39.8712 54.6299 39.7766 54.6202 39.6894 54.5865C39.3681 54.4762 39.0441 54.3753 38.7191 54.2745C37.8653 54.0145 36.9849 53.938 36.0713 53.9255C36.0858 53.6291 36.1997 53.5199 36.4836 53.5387C37.7914 53.625 39.1003 53.6947 40.4086 53.7768C40.5896 53.7877 40.7684 53.8288 40.9718 53.8621C40.9286 53.9583 40.9021 54.0181 40.8761 54.0737L40.8932 54.0571Z" fill="white"/>
<path d="M76.208 48.1682C77.338 47.8744 78.444 47.5962 79.5418 47.2972C79.8695 47.2002 80.1914 47.0846 80.5058 46.9509C80.9255 46.7839 81.2375 46.5151 81.3249 46.0414C81.3425 45.9457 81.4018 45.8578 81.4809 45.6831C81.5464 45.8334 81.6233 45.9228 81.6051 45.9826C81.485 46.3747 81.3665 46.7699 81.199 47.1427C81.1403 47.2743 80.9609 47.4027 80.8142 47.437C79.5315 47.7275 78.2452 48.0028 76.9553 48.2628C76.7228 48.308 76.4498 48.3756 76.208 48.1682Z" fill="white"/>
<path d="M63.102 60.8629C62.9756 60.9586 62.8591 61.0709 62.7213 61.1464C61.3215 61.9085 59.761 62.3283 58.1677 62.3715C57.9301 62.3783 57.6513 62.4183 57.4355 62.0746C59.4089 61.942 61.243 61.411 63.0437 60.7407C63.063 60.7818 63.0827 60.8224 63.102 60.8629Z" fill="white"/>
<path d="M90.2889 46.4099L91.9331 46.7484C91.0756 47.0844 90.2234 47.2164 89.3331 47.0443C86.6426 46.5311 83.949 46.0366 81.257 45.5363C81.049 45.5055 80.8478 45.4394 80.6621 45.3408C80.7921 45.3517 80.9221 45.3523 81.0511 45.3751C83.797 45.8702 86.5431 46.365 89.2894 46.8597C89.5375 46.9039 89.7975 46.892 90.0518 46.8873C90.3118 46.88 90.397 46.725 90.2889 46.4099Z" fill="white"/>
<path d="M30.2141 46.6182C30.2141 47.6452 30.4902 47.9702 31.3061 48.109C31.7548 48.186 32.2233 48.1537 32.6825 48.1537C32.917 48.1537 33.1505 48.1147 33.3949 48.1537C33.3573 48.1802 33.3157 48.2006 33.2717 48.2141C32.2707 48.3467 31.2702 48.4912 30.2666 48.5999C29.615 48.6711 29.4757 48.563 29.3223 47.9483C29.4263 48.0945 29.4751 48.1745 29.5349 48.2458C29.7388 48.4865 29.9343 48.4798 30.0263 48.1964C30.1361 47.8579 30.2255 47.5043 30.109 47.1397C30.0081 46.8277 29.9322 46.7898 29.6332 46.9468C29.5578 46.9957 29.4853 47.0488 29.4159 47.1059C29.4939 46.8121 29.6239 46.7102 29.8246 46.6811C29.9567 46.6618 30.0893 46.6436 30.2213 46.6249L30.2141 46.6182Z" fill="white"/>
<path d="M36.3722 59.3809C34.8564 59.8317 33.3755 60.1214 31.8066 60.0865C32.1379 59.7745 32.7832 59.4485 33.1155 59.4407C34.1742 59.4152 35.2324 59.4011 36.3722 59.3809Z" fill="white"/>
<path d="M28.7148 45.1154C28.7148 44.4436 28.7876 44.2892 29.2302 44.2185C30.3456 44.0411 31.4662 43.9002 32.5857 43.7474C32.6107 43.7437 32.6377 43.7749 32.736 43.8274C31.3403 44.1275 29.9878 44.3828 28.7148 45.1154Z" fill="white"/>
<path d="M23.8857 46.8875C24.0527 46.7315 24.218 46.5719 24.386 46.4159C25.0397 45.8062 25.8262 45.3569 26.6834 45.1034C26.8136 45.063 26.9468 45.0331 27.0817 45.014C27.7993 44.9172 28.2351 45.2459 28.4249 46.0617C28.3346 46.0071 28.2487 45.9456 28.168 45.8777C27.6293 45.3353 26.9876 45.3166 26.3079 45.5137C25.5846 45.7217 24.9944 46.1647 24.4151 46.6223C24.2685 46.7383 24.1291 46.8641 23.9866 46.9863L23.8857 46.8875Z" fill="white"/>
<path d="M78.1016 40.5808C78.606 39.518 79.1312 38.4644 79.6096 37.3906C80.2856 35.8826 81.5669 35.0688 82.9547 34.3611C82.9927 34.3419 83.0489 34.3611 83.0889 34.3611C82.4883 34.7771 81.8861 35.1884 81.2902 35.6091C80.6596 36.0576 80.1576 36.6636 79.8342 37.3667C79.5045 38.0609 79.1956 38.7655 78.8493 39.4509C78.6413 39.8575 78.3813 40.2366 78.1478 40.6282L78.1016 40.5808Z" fill="white"/>
<path d="M34.0913 61.437C33.4195 62.5292 31.9593 62.6228 31.3457 61.6086C31.8257 61.6086 32.2853 61.63 32.7419 61.6024C33.1792 61.5754 33.615 61.4973 34.0913 61.437Z" fill="white"/>
<path d="M45.3047 50.3774C45.1755 50.4535 45.0426 50.5229 44.9064 50.5854C44.2891 50.8361 43.6584 51.056 43.0515 51.33C41.7432 51.9223 40.3694 52.1038 38.9498 52.0617C38.0606 52.0351 37.1703 52.0435 36.2811 52.0175C35.8013 52.0073 35.3241 51.9436 34.8584 51.8277C34.9946 51.8277 35.1309 51.8277 35.2671 51.8277C36.8568 51.8578 38.4464 51.9119 40.0355 51.9098C40.8946 51.9098 41.7292 51.6987 42.5315 51.3805C43.2777 51.0846 44.0255 50.7913 44.7769 50.5085C44.9469 50.4445 45.1346 50.4274 45.314 50.3884L45.3047 50.3774Z" fill="white"/>
<path d="M36.3984 56.4266C37.1587 56.491 37.92 56.6195 38.6781 56.6013C39.4363 56.5831 40.1944 56.4177 40.8928 56.3252C40.3244 56.9631 37.2086 57.1394 36.3984 56.4266Z" fill="white"/>
<path d="M28.0163 46.9375C28.1094 47.5095 27.9019 47.9821 27.4672 48.3545C27.3216 48.4712 27.1376 48.5293 26.9513 48.5172C26.2597 48.4361 25.5873 48.2713 25.0039 47.7929C25.1164 47.8062 25.228 47.826 25.3383 47.8521C25.6965 47.9561 26.0465 48.0965 26.4105 48.1714C27.0954 48.3129 27.5784 48.0035 27.7745 47.3394C27.8156 47.199 27.8473 47.056 27.8832 46.9141L28.0163 46.9375Z" fill="white"/>
<path d="M83.027 36.8623C82.6654 38.5852 82.2244 40.2894 81.7041 41.9749C82.099 40.26 82.4938 38.5452 82.8887 36.8306L83.027 36.8623Z" fill="white"/>
<path d="M34.1078 54.6349C34.1598 54.5725 34.2154 54.5096 34.2695 54.4467L34.8259 54.1597C34.7427 54.4919 33.7209 56.0317 33.373 56.2636L34.1078 54.6349Z" fill="white"/>
<path d="M38.3751 57.903C38.1312 58.2597 37.9113 58.4526 37.5608 58.3887C36.9404 58.2758 36.3211 58.1531 35.7034 58.0273C35.6016 57.9997 35.5108 57.9414 35.4434 57.8604C36.3898 58.0527 37.3346 58.032 38.3751 57.903Z" fill="white"/>
<path d="M61.9035 43.8518C61.4973 43.9694 61.1905 44.1602 60.8041 44.1217C60.7973 43.7926 60.8805 43.5799 61.2201 43.5195C61.4157 43.4852 61.6024 43.3999 61.8489 43.3193C61.8687 43.5076 61.8843 43.6626 61.9035 43.8518Z" fill="white"/>
<path d="M61.7405 43.0857L61.0322 43.4086C61.0582 42.9588 61.0801 42.5766 61.1055 42.1367C61.4472 42.3915 61.572 42.703 61.7405 43.0857Z" fill="white"/>
<path d="M62.8906 43.5761C62.8724 42.5309 62.1985 41.8138 61.0705 41.6308C60.879 41.603 60.6903 41.5581 60.5068 41.4966C61.4429 41.3188 62.6462 41.9875 62.9468 42.8304C63.0347 43.0769 63.1329 43.3618 62.9114 43.5989L62.8906 43.5761Z" fill="white"/>
<path d="M30.4898 51.8203L32.0576 54.8296L31.9443 54.8888L30.3525 51.8962L30.4898 51.8203Z" fill="white"/>
<path d="M33.8845 57.1787L35.1408 57.772L35.1206 57.8584L33.6484 57.6332L33.8845 57.1787Z" fill="white"/>
<path d="M9.9049 40.2157L7.47754 39.4186C7.88366 39.3728 9.4395 39.8486 9.9049 40.2157Z" fill="white"/>
<path d="M34.4941 55.3074C34.8212 54.7749 35.1415 54.2377 35.4821 53.7146C35.5404 53.6252 35.6901 53.5971 35.8305 53.582C35.3969 53.9335 35.2133 54.4494 34.8977 54.868C34.7781 55.024 34.6377 55.1696 34.5066 55.3193L34.4941 55.3074Z" fill="white"/>
<path d="M28.3066 41.5007L28.6472 40.0571L28.7601 40.0836C28.6408 40.5631 28.5221 41.0427 28.4039 41.5225L28.3066 41.5007Z" fill="white"/>
<path d="M60.4986 41.9478V43.4594H60.4736V41.9478H60.4986Z" fill="white"/>
<path d="M58.2943 62.8564C57.8783 63.2266 57.518 62.7613 57.2715 62.8564H58.2943Z" fill="white"/>
<path d="M62.1751 44.2321C62.1283 44.3028 62.0638 44.3304 62.0014 44.3736C61.315 44.8498 60.7284 44.5935 60.4736 44.6335C61.0321 44.8249 61.873 44.3304 62.1558 44.1807C62.1574 44.1812 62.1751 44.2321 62.1751 44.2321Z" fill="white"/>
<path d="M62.9087 43.5977C62.7319 44.0033 62.579 44.1837 62.1755 44.2321C62.1755 44.2321 62.1578 44.1801 62.1562 44.1801" fill="white"/>
<path d="M57.7288 63.7406C57.3482 63.7562 57.1251 63.5846 56.9238 63.3667L57.7288 63.7406Z" fill="white"/>
<path d="M33.4001 46.6438H32.6758V46.5918H33.4001V46.6438Z" fill="white"/>
<path d="M29.6328 47.3687V47.8309H29.6016V47.3718L29.6328 47.3687Z" fill="white"/>
<path d="M40.6703 54.3838L40.388 54.8201C40.2777 54.5642 40.2777 54.5642 40.6797 54.3942L40.6703 54.3838Z" fill="white"/>
<path d="M77.0898 41.6259L77.5433 41.2036L77.6244 41.3113L77.1122 41.6487L77.0898 41.6259Z" fill="white"/>
<path d="M77.1126 41.6487L76.7169 41.9831L76.6426 41.8791L77.0903 41.6279L77.1126 41.6487Z" fill="white"/>
<path d="M78.15 40.6251C78.0315 40.7933 77.9133 40.9614 77.7954 41.1295L77.6914 41.051L78.1001 40.583L78.15 40.6251Z" fill="white"/>
<path d="M33.5587 52.2515L32.916 52.3434L32.9082 52.2624C33.1214 52.2624 33.3351 52.2624 33.5514 52.2624C33.554 52.2598 33.5587 52.2515 33.5587 52.2515Z" fill="white"/>
<path d="M34.0538 51.72L33.5967 51.6868C33.5967 51.6696 33.5967 51.6524 33.6008 51.6348H34.073C34.0668 51.6634 34.0605 51.692 34.0538 51.72Z" fill="white"/>
<path d="M30.2217 46.6243L30.7635 46.5723C30.7635 46.6014 30.7635 46.6305 30.7635 46.6596C30.581 46.6477 30.3995 46.6357 30.2139 46.6222L30.2217 46.6243Z" fill="white"/>
<path d="M26.1233 46.6402L25.7677 46.7863C25.7567 46.7582 25.7458 46.7307 25.7344 46.7026L26.0911 46.5596L26.1233 46.6402Z" fill="white"/>
<path d="M40.8768 54.0748L41.1706 54.1232L40.6709 54.3832L40.6803 54.3936L40.894 54.0571L40.8768 54.0748Z" fill="white"/>
<path d="M41.3035 53.8965H41.6769V53.9485H41.2988L41.3035 53.8965Z" fill="white"/>
<path d="M34.2008 55.7309L34.4957 55.3071L34.5081 55.3191C34.4041 55.4532 34.2982 55.5872 34.1904 55.7211L34.2008 55.7309Z" fill="white"/>
<path d="M34.1898 55.7212L33.9818 56.1081L33.8887 56.0384L34.2007 55.7311L34.1898 55.7212Z" fill="white"/>
<path d="M45.3136 50.3882L45.6849 50.1479L45.7337 50.2556L45.3037 50.3767L45.3136 50.3882Z" fill="white"/>
<path d="M58.659 44.4875C58.1245 45.1823 57.4178 45.2467 56.631 45.0523C56.502 45.0205 56.3585 45.0398 56.2223 45.0491C55.2998 45.1121 54.3773 45.1838 53.4543 45.2421C52.1664 45.3255 50.878 45.0865 49.7056 44.5468C48.7556 44.1157 47.7878 43.7237 46.8316 43.3087C45.4795 42.7227 44.1015 42.2167 42.4932 42.147C42.6902 42.004 42.7875 41.9151 42.8998 41.8548C44.0298 41.2464 45.1556 40.6291 46.2965 40.041C47.3968 39.4737 48.5949 39.274 49.8143 39.1763C50.2235 39.1435 50.6333 39.1123 51.0394 39.0572C52.1018 38.9126 53.1553 39.0093 54.2073 39.1555C54.6311 39.2147 55.0523 39.2948 55.4766 39.3489C56.4443 39.4732 57.3107 39.8923 58.1806 40.2849C58.346 40.3598 58.4521 40.5647 58.5857 40.7097L58.5711 40.6931C58.7979 41.5001 58.9835 42.3134 58.8743 43.1605C58.8176 43.5978 58.7438 44.0331 58.6777 44.4693L58.659 44.4875ZM50.6551 41.3254C50.1204 41.4327 49.6252 41.6845 49.2236 42.0534C48.9589 42.0534 48.8148 42.2422 48.6302 42.3654L48.6906 42.4564L49.2147 42.0404L50.6468 41.3124L51.6078 41.0119C51.5927 40.9723 51.5781 40.9323 51.5636 40.8923C51.2651 41.0503 50.9068 41.0545 50.6551 41.3254ZM54.4938 40.1242C53.615 40.3572 52.7013 40.4669 51.8657 40.8522C52.7143 40.6765 53.5568 40.4783 54.3971 40.2709C54.4376 40.261 54.4584 40.1669 54.4928 40.1195L54.9795 40.1882L54.9826 40.0956L54.4938 40.1242ZM49.4498 40.5288C48.5533 40.3447 47.7504 40.3785 46.9501 40.3967C46.8141 40.4081 46.6824 40.4501 46.5648 40.5194C45.8278 40.9136 45.0942 41.3135 44.3641 41.7191C44.1931 41.8147 44.0454 41.951 43.8025 42.1314C44.1 42.1834 44.282 42.2162 44.4635 42.2495C44.9835 42.3446 45.5139 42.3987 46.0167 42.549C46.3739 42.653 46.5887 42.5375 46.8404 42.3295C47.3261 41.9297 47.8284 41.5454 48.3401 41.1819C48.6542 40.9578 49.0072 40.7846 49.4472 40.5288H49.4498ZM47.8643 40.1024C48.5236 40.1689 49.182 40.2433 49.8403 40.2958C49.9672 40.3057 50.1003 40.2339 50.2308 40.1965C51.0819 39.9511 51.9331 39.7049 52.7845 39.4581C52.8813 39.4295 52.9723 39.3806 53.1621 39.3021C51.2235 38.8783 49.5465 39.4706 47.8617 40.1024H47.8643ZM57.0377 40.8902L56.917 40.9021C56.917 41.0982 56.9253 41.2942 56.917 41.4897C56.8832 42.1746 56.5951 42.6592 55.877 42.8178C55.2119 42.9645 54.551 43.1298 53.8875 43.2822C53.6862 43.3295 53.4834 43.3701 53.2016 43.4304C53.3326 43.5079 53.3737 43.5536 53.4148 43.5531C54.3383 43.5531 55.2608 43.5011 56.1521 43.251C56.3923 43.1844 56.7012 42.991 56.7761 42.7788C56.9581 42.2734 57.0278 41.7263 57.125 41.1928C57.1391 41.1003 57.0663 40.9916 57.0351 40.8902H57.0377Z" fill="url(#paint2_linear_463_21298)"/>
<path d="M58.66 44.4876L58.6782 44.4715C58.7302 44.3675 58.8103 44.2702 58.8342 44.1595C59.0136 43.3904 59.0677 42.6073 58.945 41.8299C58.8836 41.4409 58.699 41.0717 58.57 40.6942L58.5846 40.7108C58.6288 40.637 58.6652 40.5086 58.7187 40.5028C58.8482 40.4846 58.986 40.5226 59.1618 40.5429C59.506 41.6978 59.7822 42.8527 59.5653 44.07C59.556 44.122 59.5383 44.1699 59.531 44.2208C59.3558 45.3939 58.7063 46.1537 57.555 46.4568C57.191 46.5525 56.8166 46.6503 56.4458 46.6549C54.8 46.6747 53.1526 46.6747 51.5271 46.3622C50.7528 46.2135 49.99 46.0179 49.2843 45.6472C48.1169 45.0346 46.9511 44.4184 45.7795 43.8142C44.6658 43.2429 43.458 42.8775 42.2143 42.7357C42.0141 42.7118 41.8155 42.6728 41.5664 42.6317C41.7208 42.5013 41.8998 42.4031 42.0929 42.3431C42.2859 42.2831 42.489 42.2624 42.6901 42.2823C44.0115 42.3712 45.2382 42.8023 46.4342 43.3186C47.6447 43.8386 48.8407 44.3971 50.055 44.9114C50.8912 45.2731 51.7927 45.4598 52.7039 45.46C53.4059 45.4569 54.1079 45.4002 54.8094 45.3685C55.5755 45.3338 56.3416 45.2991 57.1078 45.2645C57.296 45.2556 57.4848 45.2478 57.6725 45.2333C58.1629 45.1984 58.5185 44.9837 58.66 44.4876Z" fill="url(#paint3_linear_463_21298)"/>
<path d="M49.448 40.5288C49.0081 40.7846 48.655 40.9577 48.3383 41.1819C47.8245 41.5459 47.3243 41.9296 46.8386 42.3295C46.5859 42.5375 46.3706 42.6555 46.0149 42.5489C45.5121 42.3986 44.9807 42.3446 44.4617 42.2494C44.2802 42.2161 44.0977 42.1844 43.8008 42.1314C44.0436 41.9509 44.1913 41.8147 44.3624 41.719C45.0904 41.312 45.8239 40.9122 46.563 40.5194C46.6806 40.4501 46.8123 40.4081 46.9483 40.3967C47.7486 40.3785 48.5515 40.3447 49.448 40.5288Z" fill="white"/>
<path d="M47.8623 40.1023C49.5471 39.4705 51.2242 38.8782 53.1622 39.3005C52.9724 39.3805 52.8814 39.4294 52.7847 39.4565C51.934 39.7067 51.0827 39.9532 50.2309 40.1959C50.1009 40.2333 49.9673 40.3051 49.8404 40.2952C49.18 40.2432 48.5217 40.1688 47.8623 40.1023Z" fill="white"/>
<path d="M57.0351 40.8901C57.0663 40.9915 57.1391 41.0981 57.1225 41.1928C57.0253 41.7263 56.9556 42.2733 56.7736 42.7788C56.6982 42.9868 56.3893 43.1844 56.1496 43.2509C55.2584 43.5 54.3359 43.5515 53.4124 43.5531C53.3713 43.5531 53.3303 43.5078 53.1992 43.4303C53.4811 43.37 53.6838 43.3295 53.8851 43.2821C54.5486 43.1261 55.2095 42.9644 55.8745 42.8178C56.5916 42.6618 56.8797 42.1745 56.9145 41.4897C56.9244 41.2942 56.9145 41.0981 56.9145 40.9021L57.0351 40.8901Z" fill="white"/>
<path d="M58.5713 40.6953C58.7003 41.0728 58.8833 41.442 58.9462 41.831C59.069 42.6084 59.0149 43.391 58.8355 44.1606C58.81 44.2703 58.7315 44.3686 58.6795 44.4726C58.7455 44.0363 58.8194 43.6011 58.876 43.1638C58.9837 42.3156 58.798 41.5024 58.5713 40.6953Z" fill="white"/>
<path d="M54.4887 40.1172C54.459 40.1692 54.4367 40.2638 54.3977 40.2732C53.5573 40.4812 52.7149 40.6788 51.8662 40.8545C52.7019 40.4666 53.6156 40.3569 54.4944 40.1265L54.4887 40.1172Z" fill="white"/>
<path d="M49.2237 42.0514C49.6254 41.6824 50.1205 41.4306 50.6552 41.3234L50.6469 41.3135L49.2148 42.0415L49.2237 42.0514Z" fill="white"/>
<path d="M50.6558 41.3255C50.9075 41.0546 51.2657 41.0504 51.5642 40.896C51.5788 40.936 51.5933 40.9761 51.6084 41.0156L50.6475 41.3156L50.6558 41.3255Z" fill="white"/>
<path d="M49.2153 42.0415L48.6912 42.4575L48.6309 42.3665C48.8155 42.2417 48.9595 42.0545 49.2242 42.0545L49.2153 42.0415Z" fill="white"/>
<path d="M54.494 40.1241L54.9828 40.0981L54.9797 40.1907C54.8174 40.1678 54.6552 40.1449 54.4909 40.1195C54.4883 40.1169 54.494 40.1241 54.494 40.1241Z" fill="white"/>
<defs>
<linearGradient id="paint0_linear_463_21298" x1="52.8004" y1="32.3794" x2="52.8004" y2="64.2184" gradientUnits="userSpaceOnUse">
<stop stop-color="#4551A8"/>
<stop offset="1" stop-color="#3E88C5"/>
</linearGradient>
<linearGradient id="paint1_linear_463_21298" x1="60.0984" y1="51.2803" x2="60.0984" y2="51.7259" gradientUnits="userSpaceOnUse">
<stop stop-color="#4551A8"/>
<stop offset="1" stop-color="#3E88C5"/>
</linearGradient>
<linearGradient id="paint2_linear_463_21298" x1="50.6998" y1="38.9858" x2="50.6998" y2="45.2583" gradientUnits="userSpaceOnUse">
<stop stop-color="#4551A8"/>
<stop offset="1" stop-color="#3E88C5"/>
</linearGradient>
<linearGradient id="paint3_linear_463_21298" x1="50.6043" y1="40.498" x2="50.6043" y2="46.6621" gradientUnits="userSpaceOnUse">
<stop stop-color="#4551A8"/>
<stop offset="1" stop-color="#3E88C5"/>
</linearGradient>
</defs>
</svg>
