<svg width="105" height="104" viewBox="0 0 105 104" fill="none" xmlns="http://www.w3.org/2000/svg">
<path d="M67.8332 41.041L63.9098 36.1208L64.4605 35.8197H66.3778L70.4114 38.7655L75.5329 33.332C75.5329 33.332 74.9884 33.1324 75.2022 32.5926C75.4159 32.0528 76.9702 32.0653 76.9702 32.0653C76.9702 32.0653 78.1381 32.1033 78.9597 32.2036L79.2545 32.3794L73.9947 40.3354L73.9698 40.5866L74.6354 40.6495L74.8044 40.781L74.3364 41.6536L86.9136 49.4645C86.9136 49.4645 85.9407 49.8722 85.1752 49.8805C84.4098 49.8888 84.0203 49.5482 84.0203 49.5482L76.8526 46.0018L72.7483 43.9811L72.246 44.8532C72.246 44.8532 73.639 44.7278 73.6141 46.0772C73.6141 46.0772 73.677 46.512 72.7301 47.0886C71.7832 47.6653 69.517 49.2279 69.517 49.2279C69.517 49.2279 70.9413 49.3096 70.5274 50.973C70.5274 50.973 69.0963 52.2782 67.2259 52.975C66.4366 53.3299 65.6024 53.5749 64.7465 53.703C64.4072 53.7511 64.0623 53.7413 63.7263 53.6739C63.4143 53.6105 63.0503 53.5008 62.8828 53.3203C62.8828 53.3203 59.7842 56.2994 55.7068 57.446C55.7068 57.446 62.0332 61.931 71.6989 65.5715C71.6989 65.5715 91.3814 74.1073 95.4733 75.2622C95.4733 75.2622 97.8336 75.9382 99.0384 75.5633L102.076 72.9025L102.428 72.8505C102.428 72.8505 99.6411 75.6372 98.5112 76.3901C97.3812 77.1431 96.5279 77.1701 96.5279 77.1701C96.5279 77.1701 91.2811 76.3667 89.5739 75.5633L69.4894 68.8605L58.4686 64.8934L41.8738 60.0736L41.6492 60.2992C41.6492 60.2992 37.8069 59.722 35.171 59.7719C32.5351 59.8219 32.1077 59.824 32.1077 59.824C32.1077 59.824 18.7026 63.1592 10.692 63.0589C2.6814 62.9585 2.5852 61.7667 2.5852 61.7667C2.5852 61.7667 2.30908 60.9752 4.21696 59.4438C4.21696 59.4438 12.8568 52.9667 15.4157 51.7868C17.9746 50.607 35.7186 48.1988 35.7186 48.1988L36.2417 45.0606L35.0212 31.1668L35.3754 29.8772L38.134 26.832L39.2639 26.9573L37.9332 29.418L38.1844 31.7533L41.5514 40.2886L44.4114 45.8604L45.116 46.9415L53.4511 46.0512C53.4511 46.0512 52.5473 44.6472 53.6019 43.4471C54.6564 42.2469 57.96 42.6988 57.96 42.6988C57.96 42.6988 58.3448 42.0961 60.2532 41.9453C62.1616 41.7945 66.956 41.4773 66.956 41.4773L67.8332 41.041Z" fill="url(#paint0_radial_463_25281)"/>
<path d="M11.0456 55.2449V55.7342C11.0457 55.7791 11.0329 55.8232 11.0086 55.861C10.9843 55.8988 10.9497 55.9288 10.9088 55.9474C10.2453 56.248 7.22875 57.7331 3.04535 61.578C3.04535 61.578 2.61011 61.5608 2.94499 61.058C2.94499 61.058 3.73175 60.122 5.05359 59.0664C6.15079 58.1912 9.55211 55.8304 10.679 55.0515C10.7141 55.0273 10.7553 55.0131 10.7979 55.0107C10.8405 55.0082 10.883 55.0174 10.9208 55.0373C10.9585 55.0572 10.9901 55.0871 11.0121 55.1237C11.0341 55.1603 11.0457 55.2022 11.0456 55.2449Z" fill="white"/>
<path d="M13.9118 53.2424L12.5645 54.0801C12.2624 54.2683 11.861 54.4394 11.6285 54.7212C11.3867 55.0176 11.3644 55.9317 11.8105 56.0841C12.0185 56.1563 12.1657 55.9759 12.3082 55.8485C12.6956 55.5038 13.1454 55.2667 13.59 55.0061C13.7912 54.8881 14.1692 54.7373 14.2426 54.482C14.2738 54.3744 14.2332 54.2808 14.2062 54.1809C14.125 53.8762 14.0502 53.6246 14.0819 53.3032C14.0897 53.2247 13.9664 53.2252 13.9586 53.3032C13.9342 53.5445 13.9706 53.7415 14.0018 53.974C14.0288 54.1763 14.072 54.4477 13.9462 54.6406C13.8864 54.7326 13.6893 54.8044 13.5988 54.8585C13.1963 55.0977 12.7725 55.3082 12.4059 55.602C12.3357 55.6582 12.2426 55.784 12.162 55.8173C11.6982 56.0092 11.6077 55.6093 11.5989 55.3493C11.5822 54.8616 12.0123 54.5694 12.3867 54.3359L13.9737 53.3479C14.0408 53.3063 13.9789 53.1997 13.9118 53.2439V53.2424Z" fill="white"/>
<path d="M14.4882 54.6273C13.8774 55.0468 13.2761 55.4801 12.6844 55.9273C12.4561 56.1005 12.0349 56.3137 12.2262 56.6553C12.4748 57.1005 13.2798 57.3802 13.7145 57.5711C14.275 57.817 14.8585 58.0635 15.4705 58.1259C15.8704 58.1665 16.3249 58.1561 16.6041 57.8264C16.9275 57.4437 17.0721 56.7271 17.0861 56.2399C17.0971 55.8426 16.8677 55.7505 16.5188 55.6372C15.8139 55.4091 15.147 55.077 14.5402 54.6518C14.4752 54.6065 14.4139 54.7131 14.4784 54.7558C15.133 55.2128 15.8184 55.5134 16.5656 55.7786C17.0305 55.9435 16.9749 56.309 16.8891 56.7214C16.8452 56.9421 16.7833 57.1588 16.7039 57.3693C16.4252 58.0853 15.7789 58.0812 15.1299 57.9444C14.6619 57.8456 14.2137 57.6543 13.7779 57.4629C13.4066 57.3001 12.6589 57.0469 12.4332 56.6907C12.1904 56.3069 12.5148 56.2092 12.7452 56.0308C12.9412 55.8811 13.1404 55.7344 13.3396 55.5883C13.7379 55.296 14.141 55.0106 14.5491 54.7318C14.6141 54.6876 14.5527 54.581 14.4872 54.6278L14.4882 54.6273Z" fill="white"/>
<path d="M17.8564 56.0178C17.5979 56.4485 17.4216 56.9233 17.3364 57.4183C17.2969 57.6601 17.2074 58.0371 17.4243 58.2259C17.6645 58.4339 18.1866 58.3356 18.4695 58.3237C19.0017 58.3039 19.5301 58.2244 20.0445 58.0865C20.3565 58.0012 20.5791 57.9274 20.63 57.5816C20.6753 57.2721 20.578 56.6975 20.422 56.4245C20.266 56.1515 20.0482 56.1182 19.7559 56.1125C19.1397 56.1036 18.5386 55.9289 17.9209 55.9908C17.8429 55.9981 17.8423 56.1213 17.9209 56.1135C18.4866 56.0573 19.1283 56.1431 19.6888 56.2368C20.2088 56.3236 20.5047 56.7167 20.4865 57.2446C20.4857 57.3985 20.44 57.5488 20.355 57.6771C20.27 57.8054 20.1495 57.9061 20.0081 57.9669C19.8818 58.0252 19.7159 58.0397 19.5812 58.0668C19.0758 58.1708 17.9957 58.4126 17.587 58.0387C17.3463 57.8187 17.3951 57.7979 17.4513 57.45C17.4738 57.314 17.5037 57.1793 17.5407 57.0465C17.6372 56.7071 17.778 56.3818 17.9593 56.0792C17.9649 56.0656 17.9654 56.0505 17.9607 56.0366C17.9561 56.0227 17.9467 56.0109 17.9341 56.0034C17.9215 55.9958 17.9067 55.9931 17.8922 55.9955C17.8778 55.998 17.8647 56.0055 17.8553 56.0168L17.8564 56.0178Z" fill="white"/>
<path d="M18.0513 56.4999C17.9512 56.6974 17.8941 56.9138 17.8836 57.135C17.8731 57.3562 17.9095 57.5771 17.9904 57.7832C18.0185 57.8565 18.1376 57.8248 18.109 57.7504C18.0324 57.5603 17.9971 57.356 18.0054 57.1511C18.0138 56.9463 18.0655 56.7456 18.1573 56.5623C18.1922 56.4915 18.0861 56.4291 18.0533 56.4999H18.0513Z" fill="white"/>
<path d="M19.3457 56.7286C19.379 57.0078 19.4139 57.3354 19.1757 57.5361C19.1065 57.5948 18.9708 57.6401 18.9963 57.7581C19.0577 58.0441 19.5516 57.8195 19.6598 57.7061C19.885 57.4654 19.9198 57.0213 19.7768 56.7317C19.6728 56.5237 19.3889 56.493 19.3561 56.7535C19.3468 56.832 19.4695 56.831 19.4794 56.7535C19.6172 56.7421 19.6905 56.7889 19.6998 56.8929C19.7201 56.9758 19.7309 57.0607 19.7321 57.1461C19.7346 57.2722 19.7066 57.3971 19.6504 57.5101C19.5813 57.6354 19.418 57.8148 19.2667 57.7181C19.1481 57.6447 19.2376 57.6661 19.3114 57.5855C19.5293 57.3546 19.5033 57.0192 19.4674 56.7291C19.458 56.6511 19.3348 56.6506 19.3442 56.7291L19.3457 56.7286Z" fill="white"/>
<path d="M19.4329 56.7905C19.5098 56.9517 19.4433 57.1389 19.3897 57.2975C19.3677 57.3684 19.3385 57.4369 19.3024 57.5018C19.268 57.5399 19.2374 57.5812 19.2108 57.625C19.1656 57.7535 19.2878 57.7966 19.3965 57.7712C19.5696 57.7311 19.7308 57.5299 19.7802 57.3677C19.8504 57.1358 19.7366 56.9153 19.6242 56.7182L19.5551 56.8087L19.6591 56.9647C19.6554 57.0173 19.6471 57.0695 19.6341 57.1207C19.6222 57.1727 19.6071 57.2278 19.591 57.2803C19.553 57.4025 19.513 57.5663 19.3798 57.6219L19.449 57.7119C19.5861 57.4553 19.6624 57.1707 19.6721 56.8799C19.6747 56.8009 19.552 56.8009 19.5488 56.8799C19.5398 57.1492 19.4686 57.4128 19.3408 57.65C19.3185 57.6921 19.357 57.7623 19.4105 57.74C19.6211 57.6526 19.6804 57.4212 19.7345 57.22C19.7886 57.0188 19.8255 56.7754 19.5873 56.6943C19.5756 56.6913 19.5632 56.6918 19.5517 56.6958C19.5402 56.6998 19.5302 56.707 19.5228 56.7167C19.5155 56.7263 19.5111 56.7379 19.5103 56.75C19.5094 56.7621 19.5122 56.7742 19.5182 56.7848C19.6222 56.9694 19.7454 57.193 19.6341 57.4041C19.6003 57.468 19.501 57.612 19.4235 57.6323C19.3117 57.6588 19.4272 57.5341 19.4485 57.4888C19.5525 57.2642 19.6508 56.9689 19.5384 56.7323C19.5046 56.661 19.3986 56.7234 19.4344 56.7947L19.4329 56.7905Z" fill="white"/>
<path d="M11.4297 56.6694C9.90975 56.8826 8.52499 57.8847 7.23643 58.66C5.90835 59.4593 4.62499 60.3324 3.49919 61.4036C3.44199 61.4582 3.52883 61.5451 3.58603 61.4905C4.70455 60.427 5.97803 59.5597 7.29883 58.7661C8.57595 57.9981 9.95863 56.9981 11.4625 56.7901C11.5405 56.7792 11.5072 56.6606 11.4297 56.6715V56.6694Z" fill="white"/>
<path d="M5.91553 61.89C8.28469 62.0467 10.6615 62.0514 13.0312 61.904C13.1097 61.8993 13.1103 61.7761 13.0312 61.7813C10.6614 61.9285 8.28467 61.9236 5.91553 61.7668C5.83649 61.7616 5.83701 61.8848 5.91553 61.89Z" fill="white"/>
<path d="M11.7656 55.0405C11.9216 54.9022 12.2045 54.6542 12.4208 54.4915C12.4303 54.4845 12.4411 54.4796 12.4527 54.4772C12.4642 54.4749 12.4761 54.4751 12.4875 54.4778C12.499 54.4805 12.5097 54.4857 12.5189 54.493C12.5281 54.5003 12.5357 54.5096 12.5409 54.5201L12.6013 54.6391C12.6099 54.6558 12.6124 54.675 12.6083 54.6934C12.6042 54.7117 12.5938 54.7281 12.5789 54.7395L11.9793 55.2002C11.9689 55.2083 11.9566 55.2137 11.9436 55.2162C11.9306 55.2186 11.9172 55.2179 11.9045 55.2142L11.8005 55.1846C11.7859 55.1805 11.7727 55.1727 11.7621 55.1618C11.7516 55.151 11.7442 55.1375 11.7407 55.1228C11.7371 55.1081 11.7375 55.0927 11.7419 55.0783C11.7463 55.0638 11.7545 55.0508 11.7656 55.0405Z" fill="white"/>
<path d="M13.6193 54.1087C13.234 54.2471 12.7821 54.5986 12.7821 54.5986L12.6318 54.3557C12.6318 54.3557 13.2038 53.9543 13.5439 53.791L13.6193 54.1087Z" fill="white"/>
<path d="M12.2687 55.3386C12.4299 55.2139 12.596 55.096 12.7669 54.9851C12.8329 54.9424 12.771 54.8358 12.7045 54.8811C12.5251 54.9981 12.3514 55.1223 12.1845 55.2539C12.1221 55.3022 12.21 55.3891 12.2713 55.3407L12.2687 55.3386Z" fill="white"/>
<path d="M12.934 54.86C13.0336 54.7952 13.1369 54.7361 13.2434 54.6832C13.3141 54.6478 13.2517 54.5417 13.181 54.5792C13.0746 54.632 12.9715 54.691 12.8721 54.756C12.8061 54.7992 12.8674 54.9058 12.934 54.86Z" fill="white"/>
<path d="M14.4921 55.3334C14.2202 55.6223 13.923 55.8863 13.604 56.1222C13.4017 56.2668 13.2259 56.4373 13.2576 56.7051C13.2665 56.7826 13.3897 56.7837 13.3804 56.7051C13.3403 56.3619 13.7298 56.1966 13.9524 56.0146C14.1717 55.8287 14.38 55.6303 14.5764 55.4202C14.6315 55.3635 14.5446 55.2767 14.4895 55.3334H14.4921Z" fill="white"/>
<path d="M13.92 56.9596C14.2204 56.9357 14.514 56.8573 14.7863 56.7283C14.8581 56.6945 14.7957 56.589 14.7244 56.6243C14.4715 56.744 14.199 56.8167 13.92 56.839C13.842 56.8453 13.8415 56.9685 13.92 56.9617V56.9596Z" fill="white"/>
<path d="M15.0032 56.5598C15.1814 56.3554 15.3397 56.1345 15.4759 55.9C15.4811 55.8864 15.4814 55.8715 15.4767 55.8578C15.4719 55.844 15.4625 55.8325 15.45 55.825C15.4376 55.8176 15.4229 55.8149 15.4086 55.8172C15.3942 55.8196 15.3812 55.827 15.3719 55.8381C15.241 56.0644 15.0888 56.2777 14.9174 56.4751C14.8654 56.5343 14.9522 56.6217 15.0042 56.5619L15.0032 56.5598Z" fill="white"/>
<path d="M14.4628 57.4047C14.4532 57.3968 14.4464 57.3861 14.4433 57.374C14.4402 57.362 14.441 57.3493 14.4455 57.3378C14.4501 57.3262 14.4582 57.3164 14.4687 57.3097C14.4792 57.3031 14.4915 57.2999 14.5039 57.3007C14.7119 57.3137 15.0483 57.3085 15.1341 57.1514L15.2381 56.9907C15.2517 56.9706 15.2718 56.9559 15.2951 56.949C15.3183 56.9422 15.3432 56.9437 15.3655 56.9533L15.7851 57.1468C15.808 57.158 15.8259 57.1773 15.8354 57.2009C15.845 57.2244 15.8456 57.2507 15.8371 57.2747C15.7794 57.4307 15.6364 57.7391 15.403 57.7427C15.1372 57.7516 14.7181 57.6075 14.4628 57.4047Z" fill="white"/>
<path d="M15.7595 56.034L15.4241 56.7198C15.4174 56.7332 15.4161 56.7486 15.4206 56.7629C15.4251 56.7771 15.4349 56.7891 15.448 56.7963L15.8427 57.01C15.85 57.0139 15.858 57.0162 15.8663 57.0168C15.8746 57.0173 15.8829 57.016 15.8906 57.0131C15.8984 57.0101 15.9054 57.0055 15.9112 56.9996C15.917 56.9937 15.9215 56.9866 15.9243 56.9788C15.9903 56.7973 16.1734 56.2732 16.1734 56.0875C16.1734 55.956 16.1037 55.8951 16.0148 55.8842C15.962 55.8798 15.9091 55.8918 15.8634 55.9186C15.8177 55.9454 15.7814 55.9857 15.7595 56.034Z" fill="white"/>
<path d="M14.824 54.2716C14.6628 54.1294 14.5354 53.9527 14.4514 53.7548C14.3673 53.5568 14.3287 53.3425 14.3384 53.1276C14.3384 53.1276 16.0029 51.6878 19.7401 50.8828L57.9601 45.7598V46.0941C57.9601 46.0941 22.1098 50.9821 19.9674 51.4834C17.825 51.9847 14.824 54.2716 14.824 54.2716Z" fill="white"/>
<path d="M35.3975 31.1665L36.5149 43.9855C36.6174 45.1646 36.5782 46.3517 36.3985 47.5215L36.3345 47.9375L40.0166 47.4019C40.0166 47.4019 38.0755 46.8325 37.7073 45.7598C37.375 44.7936 36.2263 36.1231 36.0038 34.43C35.9788 34.2376 35.9481 34.047 35.9117 33.858L35.3975 31.1665Z" fill="white"/>
<path d="M38.0699 28.0586C37.8531 28.4085 37.6212 28.7523 37.4184 29.1105C37.0117 29.8302 37.3061 30.8577 37.3835 31.6351C37.3991 31.7911 37.6435 31.7911 37.6295 31.6351C37.5536 30.8739 37.2749 29.8749 37.6659 29.1781C37.8562 28.8386 38.0772 28.5136 38.2821 28.1829C38.3658 28.0477 38.1531 27.9229 38.0699 28.0586Z" fill="white"/>
<path d="M39.8988 37.4844C40.2992 39.0849 40.747 40.6449 41.3803 42.1675L42.9616 45.9681C43.0214 46.1122 43.259 46.0493 43.1982 45.9031L41.6174 42.1004C40.9841 40.5778 40.5364 39.0178 40.1354 37.4173C40.097 37.2613 39.8598 37.3289 39.8988 37.4828V37.4844Z" fill="white"/>
<path d="M38.1766 27.0708C38.1766 27.0708 36.2005 28.9787 35.7247 29.6188C35.2489 30.2589 35.3982 30.7488 35.3982 30.7488L35.6743 30.6609C35.6743 30.6609 35.6992 29.9953 36.0008 29.6313C36.3025 29.2673 38.3232 27.0708 38.3232 27.0708H38.1766Z" fill="white"/>
<path d="M16.2335 54.5812C17.3062 53.8204 18.4367 53.1091 19.6176 52.5298C20.9145 51.8938 22.3799 51.4929 23.8052 51.2657C25.7568 50.9537 27.7151 50.6822 29.6692 50.3905C33.0238 49.8903 36.4329 49.5585 39.881 49.1836L45.289 48.5955C45.445 48.5788 45.445 48.3323 45.289 48.3495L33.5672 49.624C30.3432 49.9745 27.1426 50.521 23.9357 50.9994C22.6357 51.1934 21.3144 51.5335 20.1002 52.0394C18.6874 52.6296 17.3562 53.483 16.1097 54.3675C15.9818 54.4585 16.1045 54.6717 16.2335 54.5796V54.5812Z" fill="white"/>
<path d="M15.6986 62.5147C15.6986 62.5147 13.8073 62.8158 9.47364 62.6822C5.13996 62.5485 3.18164 61.8278 3.18164 61.8278C3.18164 61.8278 8.16896 62.7321 15.5498 62.1798L15.5665 62.3977C15.5665 62.3977 19.948 61.9957 20.988 61.5777C22.028 61.1596 24.9878 59.9204 24.9878 59.9204C24.9878 59.9204 28.3351 58.297 31.4317 58.6818C34.5283 59.0666 39.2478 58.2694 39.2478 58.2694L49.4398 55.8868L54.6949 54.5395C54.8625 54.4971 55.0274 54.445 55.1889 54.3835L60.2184 52.4595L55.3189 54.6268C55.1045 54.7215 54.8819 54.7963 54.6538 54.8504L49.0716 56.1749L41.4063 58.0661L39.7969 58.493C39.3957 58.5996 38.985 58.6667 38.5708 58.6932C37.1085 58.7879 33.5268 59.0099 32.6532 58.9704C31.5482 58.9184 29.5732 58.8867 28.2514 59.2044C26.9295 59.5221 23.8496 60.6604 23.8496 60.6604C23.8496 60.6604 21.6068 61.7654 20.3177 61.9994C19.0286 62.2334 15.6986 62.5147 15.6986 62.5147Z" fill="white"/>
<path d="M47.1007 52.4397C47.0758 53.0999 46.9983 53.757 46.8688 54.4048C46.8074 54.7059 46.6514 55.1011 46.8558 55.3793C47.252 55.9191 47.8859 55.3887 48.0825 54.9727C48.2832 54.5483 48.4215 54.0606 48.5266 53.6055C48.6118 53.2358 48.708 52.7787 48.5739 52.4095C48.3232 51.7169 47.5692 51.9296 47.1995 52.3799C47.1475 52.4407 47.2364 52.5281 47.2864 52.4667C47.3654 52.3705 47.4886 52.2036 47.6082 52.1656L48.4106 52.3404L48.4886 52.5686C48.5583 52.8931 48.4813 53.2561 48.408 53.5744C48.2941 54.0663 48.1511 54.7012 47.8641 55.1214C47.7538 55.2826 47.3748 55.5291 47.1824 55.4594L46.8776 55.008L46.9296 54.7184C46.978 54.4688 47.0336 54.2223 47.0758 53.9716C47.156 53.4649 47.2061 52.9539 47.2255 52.4412C47.2286 52.3622 47.1059 52.3622 47.1028 52.4412L47.1007 52.4397Z" fill="white"/>
<path d="M34.768 56.2359C34.7316 56.4517 34.6338 56.8189 34.3733 56.874C33.9937 56.9546 33.9522 56.3743 33.9828 56.1413C34.0145 55.8989 34.1513 55.4819 34.4612 55.5224C34.7711 55.563 34.7888 56.0071 34.7659 56.2505C34.7586 56.329 34.8813 56.3285 34.8886 56.2505C34.9167 55.9541 34.8631 55.432 34.4794 55.3815C34.0957 55.3311 33.8976 55.8256 33.8586 56.1231C33.8196 56.4205 33.884 56.9411 34.2584 56.9993C34.6463 57.0597 34.8366 56.5615 34.8865 56.2666C34.9011 56.1912 34.783 56.16 34.768 56.2359Z" fill="white"/>
<path d="M34.0403 56.2642C34.0328 56.3039 34.0335 56.3447 34.0425 56.384C34.0514 56.4234 34.0684 56.4605 34.0923 56.493C34.1009 56.5067 34.1144 56.5166 34.13 56.5207C34.1457 56.5247 34.1623 56.5226 34.1765 56.5149C34.1905 56.5065 34.2006 56.493 34.2047 56.4772C34.2088 56.4615 34.2065 56.4447 34.1983 56.4306C34.1828 56.4123 34.1713 56.391 34.1644 56.368C34.1575 56.345 34.1554 56.3208 34.1583 56.297C34.1703 56.2195 34.0543 56.1862 34.0397 56.2642H34.0403Z" fill="white"/>
<path d="M34.4003 55.7961C34.4795 56.1079 34.4599 56.4366 34.3441 56.7368C34.316 56.8106 34.4346 56.8408 34.4626 56.7695C34.5844 56.4479 34.604 56.0966 34.5188 55.7634C34.5145 55.7477 34.504 55.7343 34.4899 55.7263C34.4757 55.7182 34.4589 55.7161 34.4431 55.7205C34.4274 55.7248 34.4141 55.7352 34.406 55.7494C34.398 55.7636 34.3959 55.7804 34.4003 55.7961Z" fill="white"/>
<path d="M36.6401 55.9404C36.6032 56.1567 36.5054 56.5233 36.2454 56.5789C35.8658 56.6595 35.8242 56.0787 35.8549 55.8463C35.8866 55.604 36.0234 55.1864 36.3333 55.2275C36.6432 55.2686 36.6609 55.7121 36.638 55.9555C36.6308 56.034 36.7535 56.0335 36.7608 55.9555C36.7883 55.6586 36.7353 55.137 36.3515 55.0866C35.9678 55.0361 35.7696 55.5306 35.7306 55.8281C35.6916 56.1255 35.7561 56.6455 36.1305 56.7037C36.5179 56.764 36.7088 56.2659 36.7587 55.9716C36.7696 55.8957 36.6516 55.8624 36.6401 55.9404Z" fill="white"/>
<path d="M35.9058 55.9688C35.898 56.0084 35.8986 56.0493 35.9076 56.0887C35.9165 56.1281 35.9337 56.1652 35.9579 56.1976C35.9663 56.2113 35.9797 56.2213 35.9953 56.2255C36.0109 56.2296 36.0274 56.2277 36.0416 56.2199C36.0557 56.2117 36.066 56.1982 36.0701 56.1824C36.0743 56.1667 36.0721 56.1499 36.064 56.1357C36.0483 56.1174 36.0366 56.096 36.0297 56.0729C36.0228 56.0498 36.0209 56.0255 36.0239 56.0016C36.0359 55.9241 35.9199 55.8908 35.9053 55.9688H35.9058Z" fill="white"/>
<path d="M36.2678 55.5007C36.3466 55.8124 36.3268 56.1409 36.2112 56.4408C36.1836 56.5152 36.3022 56.5448 36.3297 56.4736C36.4521 56.1523 36.4719 55.801 36.3864 55.468C36.3821 55.4522 36.3716 55.4389 36.3575 55.4309C36.3433 55.4228 36.3265 55.4207 36.3107 55.4251C36.295 55.4294 36.2817 55.4398 36.2736 55.454C36.2656 55.4682 36.2635 55.485 36.2678 55.5007Z" fill="white"/>
<path d="M38.4079 55.6455C38.371 55.8618 38.2732 56.2284 38.0132 56.2835C37.6331 56.3641 37.5921 55.7838 37.6222 55.5514C37.6545 55.3091 37.7907 54.8916 38.1006 54.9322C38.4105 54.9727 38.4282 55.4173 38.4058 55.6601C38.398 55.7391 38.5213 55.7386 38.5285 55.6601C38.5561 55.3637 38.5031 54.8422 38.1193 54.7912C37.7356 54.7403 37.5375 55.2353 37.4953 55.5327C37.4532 55.8301 37.5213 56.3506 37.8957 56.4088C38.2831 56.4691 38.4739 55.971 38.5239 55.6767C38.5395 55.6008 38.4209 55.5675 38.4079 55.6455Z" fill="white"/>
<path d="M37.6762 55.6739C37.6685 55.7135 37.6692 55.7543 37.6781 55.7937C37.6871 55.8331 37.7042 55.8701 37.7282 55.9026C37.7368 55.9163 37.7503 55.9262 37.766 55.9303C37.7816 55.9345 37.7982 55.9325 37.8125 55.9249C37.8265 55.9166 37.8366 55.9031 37.8407 55.8873C37.8448 55.8715 37.8425 55.8548 37.8343 55.8407C37.8189 55.8223 37.8073 55.8009 37.8005 55.7778C37.7936 55.7547 37.7915 55.7305 37.7943 55.7066C37.8068 55.6292 37.6902 55.5959 37.6762 55.6739Z" fill="white"/>
<path d="M38.0378 55.2058C38.1171 55.5174 38.0975 55.846 37.9817 56.1459C37.9541 56.2203 38.0727 56.2499 38.1002 56.1787C38.222 55.8572 38.2416 55.5061 38.1564 55.1731C38.1521 55.1573 38.1416 55.144 38.1275 55.1359C38.1133 55.1279 38.0965 55.1258 38.0807 55.1302C38.065 55.1345 38.0517 55.1449 38.0436 55.1591C38.0356 55.1733 38.0335 55.1901 38.0378 55.2058Z" fill="white"/>
<path d="M40.0796 55.3512C40.0432 55.5675 39.9454 55.9341 39.6849 55.9892C39.3053 56.0699 39.2637 55.4895 39.2944 55.2565C39.3261 55.0142 39.4629 54.5971 39.7728 54.6377C40.0827 54.6782 40.1004 55.1223 40.0775 55.3657C40.0702 55.4442 40.1935 55.4442 40.2008 55.3657C40.2283 55.0693 40.1748 54.5472 39.791 54.4967C39.4072 54.4463 39.2091 54.9409 39.1701 55.2383C39.1311 55.5358 39.1956 56.0563 39.57 56.1146C39.9579 56.1749 40.1482 55.6767 40.1982 55.3824C40.2117 55.3064 40.0931 55.2732 40.0796 55.3512Z" fill="white"/>
<path d="M39.3479 55.3799C39.3404 55.4196 39.3411 55.4604 39.3501 55.4997C39.359 55.5391 39.376 55.5762 39.3999 55.6087C39.4085 55.6224 39.422 55.6323 39.4376 55.6364C39.4533 55.6404 39.4699 55.6384 39.4841 55.6306C39.498 55.6223 39.5081 55.6089 39.5122 55.5932C39.5163 55.5775 39.514 55.5609 39.5059 55.5469C39.4903 55.5285 39.4787 55.5071 39.4719 55.484C39.465 55.4609 39.4629 55.4366 39.4659 55.4127C39.4778 55.3352 39.3593 55.3019 39.3474 55.3799H39.3479Z" fill="white"/>
<path d="M39.7079 54.912C39.7872 55.2238 39.7675 55.5525 39.6517 55.8527C39.6236 55.9265 39.7428 55.9567 39.7703 55.8854C39.8921 55.564 39.9117 55.2128 39.8265 54.8798C39.8222 54.8641 39.8119 54.8507 39.7977 54.8426C39.7836 54.8345 39.7668 54.8324 39.7511 54.8366C39.7353 54.8409 39.722 54.8512 39.7139 54.8654C39.7058 54.8795 39.7036 54.8963 39.7079 54.912Z" fill="white"/>
<path d="M41.8491 54.957C41.8122 55.1733 41.7144 55.5399 41.4544 55.5955C41.0748 55.6761 41.0332 55.0953 41.0639 54.8629C41.0956 54.6206 41.2324 54.203 41.5423 54.2441C41.8522 54.2852 41.8699 54.7287 41.847 54.9721C41.8397 55.0506 41.9625 55.0501 41.9697 54.9721C41.9973 54.6757 41.9443 54.1536 41.5605 54.1032C41.1767 54.0528 40.9786 54.5472 40.9396 54.8447C40.9006 55.1421 40.9651 55.6621 41.3395 55.7203C41.7269 55.7806 41.9177 55.2825 41.9677 54.9882C41.9807 54.9118 41.8626 54.879 41.8491 54.957Z" fill="white"/>
<path d="M41.1177 54.9853C41.1099 55.025 41.1106 55.0659 41.1195 55.1054C41.1285 55.1449 41.1456 55.1821 41.1697 55.2146C41.1783 55.2282 41.1917 55.238 41.2073 55.2421C41.2228 55.2461 41.2393 55.2441 41.2534 55.2365C41.2675 55.2282 41.2778 55.2147 41.282 55.199C41.2862 55.1832 41.2839 55.1664 41.2758 55.1522C41.2601 55.1339 41.2485 55.1125 41.2416 55.0894C41.2347 55.0663 41.2327 55.042 41.2358 55.018C41.2477 54.941 41.1317 54.9072 41.1172 54.9853H41.1177Z" fill="white"/>
<path d="M41.4797 54.5173C41.5588 54.8291 41.5394 55.1578 41.424 55.4581C41.3965 55.5319 41.5151 55.5621 41.5426 55.4903C41.665 55.169 41.6848 54.8176 41.5993 54.4846C41.595 54.4689 41.5846 54.4555 41.5704 54.4475C41.5562 54.4394 41.5394 54.4373 41.5236 54.4417C41.5079 54.446 41.4946 54.4564 41.4865 54.4706C41.4785 54.4848 41.4764 54.5016 41.4807 54.5173H41.4797Z" fill="white"/>
<path d="M43.5214 54.6622C43.4845 54.8786 43.3867 55.2452 43.1262 55.3003C42.7466 55.3814 42.7056 54.8006 42.7357 54.5681C42.7674 54.3258 42.9042 53.9082 43.2141 53.9488C43.524 53.9893 43.5417 54.4339 43.5188 54.6768C43.5115 54.7558 43.6348 54.7553 43.6421 54.6768C43.6696 54.3804 43.6166 53.8588 43.2328 53.8078C42.8491 53.7569 42.6505 54.2519 42.6115 54.5494C42.5725 54.8468 42.6375 55.3674 43.0118 55.4256C43.3992 55.4859 43.5895 54.9878 43.64 54.6934C43.653 54.6175 43.5344 54.5842 43.5214 54.6622Z" fill="white"/>
<path d="M42.7893 54.6905C42.7818 54.7302 42.7825 54.7709 42.7915 54.8103C42.8004 54.8497 42.8174 54.8868 42.8413 54.9193C42.85 54.933 42.8634 54.9429 42.8791 54.9471C42.8947 54.9512 42.9113 54.9493 42.9256 54.9417C42.9396 54.9333 42.9497 54.9198 42.9538 54.904C42.9579 54.8883 42.9556 54.8715 42.9474 54.8574C42.9319 54.839 42.9203 54.8176 42.9134 54.7945C42.9065 54.7714 42.9044 54.7472 42.9074 54.7232C42.9193 54.6458 42.8034 54.6125 42.7888 54.6905H42.7893Z" fill="white"/>
<path d="M43.1503 54.2224C43.2296 54.534 43.2099 54.8626 43.0941 55.1626C43.066 55.2369 43.1851 55.2666 43.2127 55.1953C43.3345 54.8739 43.3541 54.5227 43.2689 54.1897C43.2645 54.1739 43.2541 54.1606 43.2399 54.1525C43.2257 54.1445 43.2089 54.1424 43.1932 54.1468C43.1775 54.1511 43.1641 54.1615 43.1561 54.1757C43.148 54.1899 43.1459 54.2067 43.1503 54.2224Z" fill="white"/>
<path d="M45.0942 54.3678C45.0578 54.5841 44.9595 54.9507 44.6995 55.0059C44.3199 55.0865 44.2783 54.5061 44.309 54.2731C44.3407 54.0308 44.4775 53.6137 44.7874 53.6543C45.0973 53.6948 45.115 54.139 45.0921 54.3823C45.0849 54.4614 45.2076 54.4609 45.2149 54.3823C45.2424 54.0859 45.1894 53.5638 44.8056 53.5133C44.4219 53.4629 44.2237 53.9575 44.1847 54.2549C44.1457 54.5524 44.2102 55.0729 44.5846 55.1312C44.9725 55.1915 45.1629 54.6933 45.2128 54.399C45.2258 54.323 45.1077 54.2882 45.0942 54.3678Z" fill="white"/>
<path d="M44.3627 54.3956C44.355 54.4352 44.3557 54.476 44.3647 54.5154C44.3736 54.5548 44.3906 54.5919 44.4146 54.6244C44.4232 54.6381 44.4366 54.6479 44.4521 54.652C44.4677 54.6561 44.4843 54.654 44.4984 54.6463C44.5054 54.6423 44.5115 54.6369 44.5164 54.6305C44.5214 54.6242 44.525 54.6169 44.527 54.6091C44.5291 54.6013 44.5296 54.5931 44.5285 54.5852C44.5275 54.5772 44.5248 54.5695 44.5207 54.5625C44.505 54.5442 44.4934 54.5228 44.4865 54.4997C44.4796 54.4766 44.4776 54.4523 44.4807 54.4283C44.4926 54.3508 44.3767 54.3175 44.3621 54.3956H44.3627Z" fill="white"/>
<path d="M44.7245 53.9275C44.8031 54.2392 44.7835 54.5676 44.6683 54.8677C44.6403 54.9416 44.7588 54.9717 44.7864 54.9005C44.9087 54.5791 44.9285 54.2278 44.843 53.8947C44.8387 53.879 44.8283 53.8657 44.8141 53.8576C44.7999 53.8496 44.7831 53.8475 44.7674 53.8518C44.7517 53.8562 44.7383 53.8666 44.7303 53.8808C44.7222 53.895 44.7201 53.9118 44.7245 53.9275Z" fill="white"/>
<path d="M46.6672 54.0723C46.6303 54.2886 46.5325 54.6557 46.272 54.7108C45.8923 54.7914 45.8513 54.2106 45.8814 53.9782C45.9131 53.7358 46.0499 53.3188 46.3598 53.3593C46.6698 53.3999 46.6875 53.844 46.6646 54.0874C46.6573 54.1659 46.7805 54.1654 46.7878 54.0874C46.8154 53.791 46.7623 53.2689 46.3786 53.2184C45.9948 53.168 45.7967 53.6625 45.7571 53.9599C45.7176 54.2574 45.7831 54.7779 46.1576 54.8362C46.545 54.8965 46.7353 54.3983 46.7858 54.1035C46.7988 54.0281 46.6802 53.9948 46.6672 54.0723Z" fill="white"/>
<path d="M45.9358 54.1008C45.9283 54.1404 45.929 54.1812 45.938 54.2206C45.9469 54.26 45.9639 54.2971 45.9878 54.3297C45.9964 54.3433 46.01 54.3531 46.0256 54.3571C46.0412 54.3612 46.0578 54.3592 46.072 54.3515C46.086 54.3432 46.0961 54.3297 46.1002 54.3139C46.1043 54.2981 46.102 54.2813 46.0938 54.2672C46.0778 54.2488 46.0659 54.2273 46.0587 54.204C46.0516 54.1807 46.0493 54.1562 46.0522 54.132C46.0642 54.055 45.9482 54.0217 45.9337 54.0997L45.9358 54.1008Z" fill="white"/>
<path d="M46.2977 53.6321C46.3769 53.9439 46.3573 54.2727 46.2416 54.5729C46.2135 54.6467 46.3325 54.6769 46.3601 54.6051C46.4819 54.2836 46.5015 53.9324 46.4162 53.5993C46.4119 53.5836 46.4015 53.5702 46.3873 53.5622C46.3731 53.5542 46.3563 53.5521 46.3406 53.5564C46.3249 53.5608 46.3115 53.5712 46.3035 53.5854C46.2954 53.5996 46.2934 53.6164 46.2977 53.6321Z" fill="white"/>
<path d="M48.1421 53.7774C48.1051 53.9937 48.0074 54.3603 47.7474 54.416C47.3678 54.4965 47.3262 53.9157 47.3569 53.6833C47.3886 53.441 47.5253 53.0234 47.8353 53.0645C48.1452 53.1056 48.1629 53.5491 48.14 53.7925C48.1327 53.871 48.2554 53.8705 48.2627 53.7925C48.2903 53.4956 48.2372 52.974 47.8535 52.9231C47.4697 52.8721 47.2716 53.3677 47.2326 53.6651C47.1936 53.9625 47.2581 54.4825 47.6325 54.5407C48.0199 54.6011 48.2107 54.1029 48.2606 53.8086C48.2736 53.7327 48.1556 53.6994 48.1421 53.7774Z" fill="white"/>
<path d="M47.4107 53.8052C47.4029 53.8449 47.4035 53.8857 47.4125 53.9251C47.4214 53.9645 47.4386 54.0016 47.4627 54.034C47.4712 54.0478 47.4846 54.0577 47.5002 54.0619C47.5157 54.0661 47.5323 54.0641 47.5465 54.0564C47.5606 54.0481 47.5708 54.0346 47.575 54.0189C47.5792 54.0031 47.577 53.9863 47.5689 53.9721C47.5532 53.9538 47.5415 53.9324 47.5346 53.9093C47.5277 53.8862 47.5257 53.8619 47.5288 53.838C47.5408 53.7605 47.4248 53.7272 47.4102 53.8052H47.4107Z" fill="white"/>
<path d="M47.7727 53.3376C47.8515 53.6493 47.8317 53.9778 47.716 54.2778C47.6885 54.3521 47.8071 54.3817 47.8346 54.3105C47.957 53.9892 47.9768 53.6379 47.8913 53.3049C47.887 53.2892 47.8765 53.2758 47.8624 53.2678C47.8482 53.2597 47.8314 53.2576 47.8156 53.262C47.7999 53.2663 47.7866 53.2767 47.7785 53.2909C47.7705 53.3051 47.7684 53.3219 47.7727 53.3376Z" fill="white"/>
<path d="M49.8146 53.4825C49.7776 53.6988 49.6799 54.0654 49.4194 54.1205C49.0398 54.2011 48.9987 53.6208 49.0289 53.3884C49.0606 53.1455 49.1973 52.7285 49.5073 52.7691C49.8172 52.8096 49.8348 53.2542 49.812 53.4971C49.8047 53.5761 49.9279 53.5756 49.9352 53.4971C49.9627 53.2007 49.9097 52.6791 49.526 52.6282C49.1422 52.5772 48.9441 53.0722 48.9046 53.3697C48.8651 53.6671 48.9306 54.1876 49.305 54.2458C49.6924 54.3062 49.8827 53.808 49.9331 53.5137C49.9461 53.4378 49.8276 53.404 49.8146 53.4825Z" fill="white"/>
<path d="M49.0823 53.5108C49.0748 53.5505 49.0755 53.5913 49.0845 53.6307C49.0934 53.67 49.1104 53.7071 49.1343 53.7397C49.1429 53.7534 49.1564 53.7633 49.172 53.7674C49.1876 53.7716 49.2043 53.7697 49.2185 53.762C49.2325 53.7537 49.2427 53.7402 49.2467 53.7244C49.2508 53.7086 49.2485 53.6919 49.2404 53.6778C49.2249 53.6593 49.2134 53.6379 49.2065 53.6148C49.1996 53.5917 49.1975 53.5675 49.2003 53.5436C49.2123 53.4661 49.0963 53.4328 49.0818 53.5108H49.0823Z" fill="white"/>
<path d="M49.4442 53.0427C49.5235 53.3544 49.5039 53.6829 49.388 53.9829C49.36 54.0573 49.4791 54.0869 49.5066 54.0157C49.6285 53.6942 49.6481 53.343 49.5628 53.01C49.5585 52.9942 49.5481 52.9809 49.5339 52.9728C49.5197 52.9648 49.5029 52.9627 49.4871 52.9671C49.4714 52.9714 49.4581 52.9818 49.45 52.996C49.442 53.0102 49.4399 53.027 49.4442 53.0427Z" fill="white"/>
<path d="M51.3872 53.1876C51.3508 53.4034 51.2525 53.7706 50.9925 53.8257C50.6129 53.9063 50.5713 53.3259 50.602 53.0929C50.6337 52.8506 50.7705 52.4335 51.0804 52.4741C51.3903 52.5147 51.408 52.9588 51.3851 53.2022C51.3778 53.2807 51.5005 53.2802 51.5078 53.2022C51.5354 52.9057 51.4823 52.3836 51.0986 52.3332C50.7148 52.2827 50.5167 52.7773 50.4777 53.0747C50.4387 53.3722 50.5032 53.8928 50.8776 53.951C51.2655 54.0113 51.4558 53.5131 51.5057 53.2183C51.5187 53.1439 51.4007 53.1096 51.3872 53.1876Z" fill="white"/>
<path d="M50.6556 53.2159C50.648 53.2556 50.6487 53.2964 50.6577 53.3358C50.6666 53.3752 50.6836 53.4123 50.7076 53.4448C50.7161 53.4584 50.7295 53.4683 50.7451 53.4724C50.7607 53.4764 50.7772 53.4744 50.7913 53.4666C50.7983 53.4626 50.8045 53.4573 50.8094 53.4509C50.8143 53.4445 50.8179 53.4372 50.82 53.4294C50.8221 53.4216 50.8226 53.4135 50.8215 53.4055C50.8204 53.3975 50.8178 53.3898 50.8137 53.3829C50.7981 53.3645 50.7865 53.343 50.7796 53.3199C50.7727 53.2968 50.7707 53.2726 50.7736 53.2487C50.7856 53.1711 50.6697 53.1379 50.6551 53.2159H50.6556Z" fill="white"/>
<path d="M51.0175 52.747C51.0962 53.0589 51.0765 53.3874 50.9613 53.6877C50.9332 53.7615 51.0518 53.7917 51.0793 53.7205C51.2017 53.3991 51.2215 53.0478 51.136 52.7147C51.1317 52.699 51.1214 52.6856 51.1073 52.6776C51.0931 52.6695 51.0763 52.6673 51.0606 52.6716C51.0449 52.6759 51.0315 52.6862 51.0234 52.7003C51.0153 52.7145 51.0132 52.7313 51.0175 52.747Z" fill="white"/>
<path d="M52.7631 52.8921C52.7267 53.1084 52.6289 53.4756 52.3684 53.5307C51.9889 53.6113 51.9473 53.0304 51.9779 52.798C52.0097 52.5557 52.1464 52.1381 52.4563 52.1792C52.7662 52.2203 52.7839 52.6638 52.761 52.9072C52.7537 52.9857 52.877 52.9852 52.8842 52.9072C52.9118 52.6108 52.8588 52.0887 52.475 52.0382C52.0913 51.9878 51.8927 52.4823 51.8537 52.7798C51.8147 53.0772 51.8792 53.5978 52.2535 53.6555C52.6414 53.7158 52.8317 53.2182 52.8816 52.9233C52.8951 52.8474 52.7766 52.8141 52.7631 52.8921Z" fill="white"/>
<path d="M52.0324 52.9212C52.025 52.9609 52.0257 53.0016 52.0347 53.041C52.0436 53.0804 52.0606 53.1174 52.0845 53.15C52.0931 53.1636 52.1067 53.1734 52.1223 53.1774C52.1379 53.1815 52.1545 53.1795 52.1687 53.1718C52.1827 53.1635 52.1928 53.15 52.1969 53.1342C52.201 53.1184 52.1987 53.1017 52.1905 53.0876C52.175 53.0692 52.1634 53.0478 52.1565 53.0247C52.1496 53.0016 52.1476 52.9773 52.1505 52.9534C52.1625 52.8765 52.0465 52.8427 52.0319 52.9212H52.0324Z" fill="white"/>
<path d="M52.3963 52.4524C52.4756 52.7642 52.4559 53.0929 52.3402 53.3931C52.3121 53.467 52.4312 53.4971 52.4587 53.4254C52.5805 53.1039 52.6001 52.7527 52.5149 52.4196C52.5127 52.4119 52.5091 52.4046 52.5041 52.3982C52.4992 52.3918 52.493 52.3865 52.486 52.3825C52.4789 52.3785 52.4712 52.376 52.4632 52.375C52.4552 52.374 52.447 52.3746 52.4392 52.3767C52.4315 52.3789 52.4242 52.3825 52.4178 52.3875C52.4114 52.3925 52.4061 52.3987 52.4021 52.4057C52.3981 52.4127 52.3956 52.4204 52.3946 52.4285C52.3936 52.4365 52.3942 52.4446 52.3963 52.4524Z" fill="white"/>
<path d="M54.1402 52.6959C54.1033 52.9122 54.0056 53.2789 53.7456 53.3345C53.3655 53.4151 53.3245 52.8342 53.3546 52.6018C53.3869 52.3595 53.5231 51.9419 53.833 51.983C54.1428 52.0241 54.1605 52.4676 54.1382 52.711C54.1304 52.7895 54.2536 52.789 54.2609 52.711C54.2884 52.4141 54.2354 51.8925 53.8517 51.8415C53.468 51.7906 53.2699 52.2861 53.2278 52.5836C53.1856 52.881 53.2538 53.4011 53.6281 53.4593C54.0155 53.5196 54.2063 53.0214 54.2562 52.7271C54.2718 52.6512 54.1532 52.6179 54.1402 52.6959Z" fill="white"/>
<path d="M53.4086 52.7237C53.4009 52.7634 53.4016 52.8042 53.4106 52.8436C53.4195 52.883 53.4366 52.9201 53.4607 52.9526C53.4693 52.9663 53.4828 52.9762 53.4984 52.9803C53.5141 52.9845 53.5307 52.9826 53.545 52.9749C53.559 52.9666 53.5692 52.9531 53.5733 52.9373C53.5773 52.9215 53.5751 52.9048 53.5669 52.8907C53.5514 52.8722 53.5399 52.8508 53.533 52.8277C53.5261 52.8046 53.524 52.7804 53.5268 52.7565C53.5393 52.679 53.4227 52.6457 53.4086 52.7237Z" fill="white"/>
<path d="M53.7702 52.2561C53.8494 52.5677 53.8298 52.8963 53.7141 53.1963C53.6865 53.2707 53.805 53.3003 53.8326 53.2291C53.9542 52.9076 53.9738 52.5564 53.8887 52.2233C53.87 52.1469 53.7515 52.1791 53.7702 52.2561Z" fill="white"/>
<path d="M55.5161 52.401C55.4797 52.6173 55.3814 52.9839 55.1214 53.0391C54.7418 53.1197 54.7002 52.5393 54.7309 52.3069C54.7626 52.064 54.8994 51.647 55.2093 51.6875C55.5192 51.7281 55.5369 52.1727 55.514 52.4156C55.5067 52.4946 55.6295 52.4941 55.6367 52.4156C55.6643 52.1192 55.6113 51.5976 55.2275 51.5466C54.8437 51.4957 54.6456 51.9907 54.6066 52.2882C54.5676 52.5856 54.6321 53.1062 55.0065 53.1644C55.3944 53.2247 55.5847 52.7265 55.6347 52.4322C55.6487 52.3563 55.5307 52.323 55.5161 52.401Z" fill="white"/>
<path d="M54.7875 52.4292C54.7799 52.4689 54.7805 52.5097 54.7895 52.5491C54.7984 52.5884 54.8155 52.6255 54.8395 52.658C54.848 52.6716 54.8614 52.6815 54.8769 52.6857C54.8925 52.6898 54.909 52.6879 54.9232 52.6803C54.9372 52.672 54.9474 52.6585 54.9515 52.6428C54.9557 52.627 54.9536 52.6103 54.9456 52.5961C54.9299 52.5778 54.9182 52.5564 54.9113 52.5333C54.9044 52.5102 54.9025 52.4859 54.9055 52.462C54.9175 52.3845 54.8015 52.3513 54.7869 52.4292H54.7875Z" fill="white"/>
<path d="M55.1467 51.9612C55.2255 52.2729 55.2057 52.6014 55.0901 52.9015C55.0625 52.9758 55.181 53.0055 55.2086 52.9342C55.3309 52.6129 55.3507 52.2615 55.2653 51.9284C55.2631 51.9206 55.2594 51.9134 55.2545 51.907C55.2495 51.9006 55.2433 51.8953 55.2363 51.8913C55.2293 51.8873 55.2216 51.8848 55.2135 51.8838C55.2055 51.8828 55.1974 51.8834 55.1896 51.8855C55.1818 51.8877 55.1746 51.8913 55.1682 51.8963C55.1618 51.9013 55.1565 51.9074 55.1525 51.9145C55.1485 51.9215 55.146 51.9292 55.145 51.9373C55.144 51.9453 55.1446 51.9534 55.1467 51.9612Z" fill="white"/>
<path d="M56.8937 52.2042C56.8573 52.4205 56.7596 52.7872 56.499 52.8423C56.1194 52.9229 56.0777 52.3425 56.1084 52.1095C56.1402 51.8672 56.2769 51.4501 56.5869 51.4907C56.8969 51.5313 56.9145 51.9754 56.8917 52.2188C56.8844 52.2973 57.0076 52.2973 57.0149 52.2188C57.0425 51.9223 56.9889 51.4002 56.6056 51.3498C56.2223 51.2993 56.0231 51.7939 55.9815 52.0913C55.9399 52.3888 56.007 52.9094 56.3815 52.9676C56.7694 53.0279 56.9598 52.5297 57.0097 52.2354C57.0243 52.1595 56.9073 52.1262 56.8937 52.2042Z" fill="white"/>
<path d="M56.1614 52.2325C56.1539 52.2721 56.1546 52.3129 56.1636 52.3523C56.1725 52.3916 56.1894 52.4287 56.2133 52.4613C56.2219 52.475 56.2354 52.4849 56.2511 52.4889C56.2667 52.493 56.2834 52.4909 56.2975 52.4831C56.3115 52.4749 56.3216 52.4615 56.3257 52.4458C56.3298 52.4301 56.3275 52.4134 56.3194 52.3994C56.3038 52.381 56.2922 52.3596 56.2853 52.3365C56.2784 52.3134 56.2764 52.2891 56.2793 52.2652C56.2913 52.1877 56.1754 52.1545 56.1608 52.2325H56.1614Z" fill="white"/>
<path d="M56.5233 51.7641C56.6026 52.0759 56.583 52.4046 56.4671 52.7048C56.4391 52.7786 56.5582 52.8088 56.5857 52.7375C56.7075 52.4161 56.7271 52.0649 56.6419 51.7318C56.6376 51.7161 56.6273 51.7027 56.6131 51.6946C56.599 51.6865 56.5822 51.6844 56.5665 51.6887C56.5508 51.693 56.5374 51.7033 56.5293 51.7174C56.5212 51.7316 56.519 51.7484 56.5233 51.7641Z" fill="white"/>
<path d="M39.6846 59.8205L41.5373 60.0717C41.5373 60.0717 41.8493 59.3437 42.2388 59.0676C42.6283 58.7914 44.5736 58.2137 44.5736 58.2137C44.5736 58.2137 49.6951 57.1846 51.8292 57.2346C53.4335 57.2725 54.6477 57.2959 55.1515 57.3053C55.3481 57.3095 55.5446 57.2975 55.7391 57.2694C56.0605 57.2231 56.5301 57.1326 56.75 56.9834C56.75 56.9834 55.5322 57.2096 54.93 57.1342C54.4532 57.0744 52.9311 57.0151 52.3165 56.9928C52.1355 56.986 51.9556 56.987 51.7746 56.9928C50.744 57.0375 47.1206 57.2309 45.026 57.7977C43.6933 58.1581 42.8134 58.4779 42.2872 58.6952C41.9891 58.8172 41.7048 58.9704 41.4391 59.1523C40.9123 59.5049 40.3124 59.7333 39.6846 59.8205Z" fill="white"/>
<path d="M43.0407 59.5488C43.4203 59.2145 44.506 58.7371 47.5766 58.4745C47.5916 58.4732 47.6066 58.475 47.6208 58.4799C47.635 58.4847 47.6481 58.4924 47.6592 58.5025C47.6703 58.5126 47.6792 58.5249 47.6853 58.5386C47.6914 58.5523 47.6946 58.5672 47.6946 58.5822C47.6948 58.6082 47.6855 58.6334 47.6684 58.6531C47.6514 58.6728 47.6279 58.6856 47.6021 58.6893C47.3759 58.7215 46.8002 58.8323 46.6203 59.1422C46.3941 59.5317 47.4736 59.8957 48.0134 59.8577H48.0295C48.3996 59.8354 48.7691 59.9103 49.1012 60.0751C49.9473 60.4911 52.3772 61.6569 54.5035 62.4198C57.1269 63.3609 60.1143 64.3781 60.1143 64.3781L88.8598 74.7463V74.8592L60.2339 64.7353C60.1051 64.6899 59.969 64.6689 59.8325 64.6734C59.7198 64.6771 59.6071 64.6635 59.4986 64.6329L43.1473 60.0049C43.1012 59.992 43.0594 59.9669 43.0263 59.9323C42.9933 59.8978 42.9701 59.855 42.9592 59.8084C42.9483 59.7618 42.9501 59.7131 42.9644 59.6675C42.9788 59.6218 43.0051 59.5808 43.0407 59.5488Z" fill="white"/>
<path d="M89.0927 74.9565C90.6407 75.6107 92.2714 75.9997 93.9115 76.3444C95.3971 76.6564 96.8052 76.9627 98.2191 76.2264C98.2893 76.19 98.2269 76.0839 98.1567 76.1224C96.6711 76.8961 95.135 76.4864 93.587 76.1525C92.079 75.8291 90.5798 75.4542 89.1551 74.8525C89.0828 74.8224 89.0204 74.9279 89.0927 74.9565Z" fill="white"/>
<path d="M62.2538 53.1295L62.1951 53.1232C62.1645 53.12 62.1338 53.1285 62.1093 53.1472C61.764 53.4072 59.1214 55.3869 57.1886 56.0546C55.9723 56.4748 55.5002 56.6786 55.3166 56.7753C55.3015 56.7832 55.2884 56.7945 55.2783 56.8082C55.2683 56.822 55.2615 56.8379 55.2585 56.8546C55.2556 56.8714 55.2565 56.8887 55.2612 56.905C55.266 56.9214 55.2744 56.9365 55.2859 56.949C55.2959 56.9601 55.308 56.9691 55.3214 56.9755C55.3349 56.9818 55.3496 56.9854 55.3645 56.986C55.5875 56.9922 56.5745 56.975 57.9571 56.2933C59.437 55.5653 62.0032 53.5892 62.3152 53.3469C62.3358 53.3311 62.3506 53.309 62.3573 53.2839C62.3621 53.2669 62.3631 53.2491 62.3604 53.2316C62.3576 53.2142 62.351 53.1975 62.3412 53.1828C62.3314 53.1682 62.3185 53.1558 62.3034 53.1466C62.2883 53.1374 62.2714 53.1315 62.2538 53.1295Z" fill="white"/>
<path d="M54.5931 46.0202C54.4557 46.029 54.3192 45.9915 54.2057 45.9136C54.0884 45.8352 53.991 45.7305 53.9213 45.6078C53.7824 45.3593 53.746 45.0738 53.7304 44.8091C53.7191 44.6706 53.7202 44.5314 53.7335 44.3931C53.7472 44.2453 53.7885 44.1013 53.8552 43.9688C53.9275 43.8316 54.0311 43.7134 54.1576 43.6237C54.284 43.534 54.4299 43.4753 54.5832 43.4524C54.7394 43.4321 54.8981 43.4527 55.0439 43.5121C55.1897 43.5716 55.3176 43.6678 55.4152 43.7914C55.5015 43.9133 55.5632 44.0509 55.5966 44.1965C55.6301 44.3304 55.6515 44.467 55.6606 44.6047C55.6856 44.8779 55.6649 45.1533 55.5992 45.4196C55.5631 45.5571 55.4914 45.6827 55.3912 45.7836C55.3428 45.8327 55.2845 45.871 55.2203 45.8962C55.1561 45.9213 55.0873 45.9328 55.0184 45.9297C55.1449 45.9067 55.2571 45.8346 55.3304 45.729C55.4011 45.6282 55.4453 45.5113 55.4588 45.3889C55.475 45.2638 55.4792 45.1373 55.4713 45.0114C55.4662 44.8847 55.4536 44.7585 55.4334 44.6333C55.3871 44.3863 55.334 44.1279 55.1957 43.9641C55.1265 43.8825 55.0377 43.8197 54.9378 43.7815C54.8378 43.7433 54.7298 43.731 54.6238 43.7457C54.5155 43.7619 54.4123 43.8027 54.3222 43.8649C54.2321 43.9271 54.1574 44.009 54.1038 44.1045C53.9889 44.2943 53.9722 44.546 53.9644 44.8029C53.9566 45.0597 53.9644 45.314 54.0559 45.5434C54.1475 45.7727 54.3284 45.9755 54.5931 46.0202Z" fill="white"/>
<path d="M54.9757 44.2368C54.9627 44.3835 54.9486 44.5187 54.9497 44.657C54.9507 44.7953 54.9616 44.93 54.9741 45.0771C54.8935 44.9518 54.8506 44.806 54.8506 44.657C54.8506 44.508 54.8935 44.3621 54.9741 44.2368H54.9757Z" fill="white"/>
<path d="M54.1118 45.0073C54.1542 45.072 54.1915 45.1398 54.2236 45.2101C54.2584 45.2791 54.2876 45.3507 54.3109 45.4244C54.2324 45.3917 54.1694 45.3301 54.1352 45.2522C54.0966 45.1765 54.0882 45.089 54.1118 45.0073Z" fill="white"/>
<path d="M58.0691 44.8277C57.9634 44.5751 57.9135 44.3026 57.923 44.029C57.9343 43.7404 58.0395 43.4634 58.2225 43.2401C58.3196 43.1229 58.4413 43.0286 58.579 42.9639C58.7168 42.8992 58.8671 42.8657 59.0192 42.8657C59.1779 42.8672 59.3333 42.9114 59.469 42.9936C59.6004 43.0758 59.7123 43.1854 59.7972 43.315C59.8776 43.4403 59.9373 43.5778 59.974 43.7222C60.0089 43.8604 60.0293 44.0019 60.0348 44.1444C60.0406 44.2837 60.0348 44.42 60.0317 44.5536C60.0302 44.693 60.0179 44.8321 59.9948 44.9696C59.9717 45.1173 59.9145 45.2576 59.8279 45.3794C59.7389 45.4968 59.6235 45.5914 59.4909 45.6555C59.3597 45.7218 59.2102 45.7424 59.066 45.7143C58.9972 45.7002 58.9329 45.6696 58.8785 45.6251C58.8241 45.5806 58.7814 45.5236 58.754 45.4589C58.791 45.511 58.8396 45.5539 58.8959 45.5842C58.9521 45.6145 59.0146 45.6314 59.0785 45.6337C59.2007 45.6364 59.3207 45.6 59.4207 45.5297C59.5223 45.4636 59.6069 45.3745 59.6677 45.2697C59.7253 45.1666 59.7594 45.0521 59.7675 44.9343C59.779 44.8131 59.7743 44.6841 59.7738 44.551C59.7733 44.4179 59.7686 44.291 59.7566 44.1626C59.7369 43.9104 59.6828 43.6696 59.5486 43.4778C59.4894 43.3822 59.4098 43.3009 59.3156 43.2396C59.2234 43.1822 59.1179 43.1494 59.0093 43.1444C58.8959 43.1389 58.7826 43.1585 58.6776 43.2016C58.5699 43.2466 58.4722 43.3123 58.39 43.3951C58.2194 43.5743 58.1059 43.8002 58.0639 44.044C58.0212 44.3036 58.023 44.5686 58.0691 44.8277Z" fill="white"/>
<path d="M59.1035 44.8033C58.9765 44.6234 58.9096 44.4079 58.9122 44.1876C58.9148 43.9674 58.9868 43.7536 59.118 43.5767C59.0508 43.7739 59.0145 43.9804 59.0104 44.1887C59.0091 44.3972 59.0405 44.6046 59.1035 44.8033Z" fill="white"/>
<path d="M54.3628 46.2968C53.2495 45.8158 53.3431 43.7878 54.4866 43.3963C55.4387 43.0708 56.5666 43.1737 57.5546 43.2122C57.7106 43.2184 57.7106 42.9725 57.5546 42.9662C56.7418 42.9345 55.9259 42.9049 55.1178 43.0182C54.6015 43.09 54.0565 43.1909 53.7341 43.6422C53.1133 44.508 53.1569 46.0452 54.237 46.5121C54.381 46.5745 54.5063 46.3629 54.3613 46.3L54.3628 46.2968Z" fill="white"/>
<path d="M60.686 45.8566C59.881 46.1545 58.9528 46.101 58.3028 45.4926C57.6829 44.9123 57.5035 43.944 58.009 43.2301C58.5004 42.5353 59.4093 42.4022 60.1997 42.3705C61.0208 42.3372 61.843 42.3273 62.664 42.2889C63.5276 42.2483 64.3905 42.1949 65.2526 42.1287C65.9333 42.0767 66.6343 42.0569 67.3035 41.9124C67.9182 41.7798 68.3487 41.4745 68.7756 41.0435L74.712 35.0478C74.9543 34.8034 75.1998 34.5616 75.44 34.3136C75.6803 34.0656 75.8924 33.818 76.116 33.5695C76.1613 33.5175 76.2107 33.4395 76.2668 33.4026C76.3505 33.3469 76.2148 33.4156 76.3256 33.3833C76.6573 33.2861 77.1435 33.4228 77.4373 33.5664L77.3931 33.3979C77.3193 33.5289 77.1477 33.725 77.1264 33.87C77.103 34.0312 77.0541 33.8992 77.181 33.9106C77.1196 33.9054 77.0536 33.8799 76.9922 33.87C76.401 33.7718 75.8175 33.9668 75.3033 34.2455C75.1644 34.3209 75.2882 34.533 75.4275 34.4576C75.921 34.1898 76.5767 33.9564 77.1404 34.156C77.1666 34.1631 77.1943 34.1614 77.2194 34.1511C77.2445 34.1409 77.2655 34.1227 77.2793 34.0994L77.6058 33.5222C77.6219 33.4939 77.6262 33.4606 77.6179 33.4292C77.6097 33.3978 77.5895 33.3709 77.5616 33.3542C77.2247 33.1894 76.5944 32.999 76.2153 33.1493C75.985 33.2408 75.7993 33.5534 75.6361 33.7354C75.3885 34.0099 75.1327 34.2741 74.8727 34.5372L71.6809 37.7612L68.5676 40.9057C68.4553 41.019 68.3461 41.1402 68.2239 41.2416C67.5807 41.7777 66.6207 41.7725 65.8288 41.8375C63.9838 41.9888 62.1404 42.0575 60.2913 42.1209C59.5503 42.1464 58.7671 42.2337 58.166 42.7101C57.9062 42.921 57.707 43.1969 57.5885 43.5099C57.47 43.8228 57.4366 44.1615 57.4916 44.4916C57.7302 46.0178 59.4426 46.5783 60.751 46.0932C60.8981 46.0412 60.8347 45.8009 60.686 45.8566Z" fill="white"/>
<path d="M76.1822 33.3095L75.6924 33.8939C75.5988 34.0047 75.7137 34.1409 75.8416 34.0869C76.0916 33.9772 76.3627 33.9239 76.6356 33.9309C76.7916 33.9361 76.982 34.0146 77.1385 33.9631C77.3226 33.9017 77.4567 33.6038 77.387 33.4249C77.283 33.1649 76.723 33.2289 76.503 33.2205C76.3954 33.2159 76.28 33.1977 76.203 33.2866C76.1058 33.3994 76.2243 33.5367 76.1572 33.636C76.0902 33.7353 76.2009 33.83 76.2961 33.817L77.2061 33.6911C77.3532 33.6703 77.2997 33.4618 77.1733 33.4493L76.3216 33.3656C76.1656 33.35 76.1656 33.596 76.3216 33.6116L77.1733 33.6953L77.1406 33.454L76.2311 33.5799L76.3699 33.7603C76.4178 33.6891 76.4053 33.6683 76.4219 33.5871C76.4438 33.4738 76.3788 33.5107 76.5036 33.466C76.5878 33.4358 76.826 33.4779 76.9154 33.4951C76.9577 33.4898 77.0006 33.4947 77.0405 33.5096C77.0805 33.5244 77.1162 33.5487 77.1447 33.5804C77.0844 33.6963 77.0064 33.7411 76.9102 33.7135C76.723 33.7348 76.5202 33.6766 76.3252 33.7005C76.1151 33.7287 75.9101 33.7867 75.7163 33.8726L75.8655 34.0655L76.3574 33.4811C76.4614 33.3609 76.2857 33.1862 76.1838 33.3074L76.1822 33.3095Z" fill="white"/>
<path d="M60.757 43.3603C60.836 43.56 60.9036 43.8803 60.8818 44.3888C60.8803 44.4179 60.885 44.4469 60.8956 44.474C60.9062 44.5011 60.9225 44.5256 60.9433 44.5459C60.9641 44.5662 60.989 44.5819 61.0163 44.5918C61.0436 44.6018 61.0728 44.6058 61.1018 44.6036C61.5698 44.5646 62.72 44.4362 64.2811 44.0316C65.5791 43.7009 66.8936 43.4383 68.219 43.2448C68.2591 43.2392 68.2973 43.2239 68.3302 43.2003C68.3631 43.1767 68.3897 43.1454 68.4078 43.1091C68.4796 42.9564 68.5281 42.7937 68.5518 42.6266C68.558 42.5858 68.5542 42.5442 68.5405 42.5053C68.5269 42.4664 68.5039 42.4315 68.4736 42.4036C68.4433 42.3756 68.4067 42.3556 68.3668 42.3451C68.3269 42.3347 68.2851 42.3342 68.245 42.3437C67.5987 42.4955 66.1479 42.8221 64.8588 43.0067C63.5546 43.1939 61.7528 43.1289 60.9588 43.0868C60.9251 43.0848 60.8914 43.0913 60.8608 43.1056C60.8303 43.1199 60.8038 43.1417 60.7837 43.1688C60.7637 43.196 60.7508 43.2277 60.7461 43.2612C60.7414 43.2946 60.7452 43.3287 60.757 43.3603Z" fill="white"/>
<path d="M62.3104 45.7512C64.1607 45.7818 66.0019 45.4856 67.7491 44.876C67.8979 44.824 67.8339 44.5864 67.6841 44.6389C65.9579 45.242 64.1387 45.5355 62.3104 45.5057C62.1544 45.5057 62.1544 45.7491 62.3104 45.7517V45.7512Z" fill="white"/>
<path d="M58.6366 46.0895C59.741 46.7135 61.0728 46.805 62.3114 46.9256C63.5344 47.0442 64.9758 47.2943 66.1219 46.7265C66.2633 46.6563 66.1391 46.4441 65.9976 46.5143C64.9093 47.0536 63.4751 46.7925 62.3114 46.6797C61.1154 46.5637 59.8253 46.4779 58.7603 45.8773C58.6225 45.7993 58.5003 46.0115 58.6366 46.0895Z" fill="white"/>
<path d="M64.1217 48.9952C64.9537 48.2022 66.0067 47.5912 67.0227 47.0764C68.1765 46.4934 69.3891 46.0348 70.6399 45.7082C70.9919 45.6152 71.3471 45.5299 71.7043 45.4592C71.9321 45.4139 72.1723 45.3474 72.4053 45.4072C72.5442 45.4407 72.6688 45.5173 72.7615 45.6261C72.9417 45.7301 72.9591 45.8819 72.8135 46.0816C72.8566 46.248 72.8254 46.3619 72.7199 46.4243C72.5119 46.6656 72.0615 46.8522 71.7989 47.027C70.9753 47.5745 70.0507 48.1117 69.3549 48.822C69.2437 48.9354 69.4173 49.109 69.5286 48.9962C70.2821 48.2287 71.2966 47.6536 72.1879 47.0649C72.5087 46.8538 73.0397 46.6286 73.1863 46.2496C73.3641 45.7899 72.9539 45.3266 72.5379 45.1919C72.2357 45.0941 71.943 45.1617 71.6403 45.2231C71.2035 45.3122 70.7702 45.4162 70.3403 45.5351C69.5975 45.7405 68.8681 45.9918 68.1563 46.2875C67.1141 46.7153 66.1174 47.2462 65.1809 47.8725C64.7545 48.16 64.3234 48.4658 63.9495 48.8215C63.8351 48.9312 64.0088 49.1049 64.1237 48.9957L64.1217 48.9952Z" fill="white"/>
<path d="M73.6079 41.5435C73.6079 41.5435 71.1275 41.6044 69.7921 41.9954L83.7349 49.0154C84.1281 49.2176 84.5622 49.3275 85.0042 49.3367H85.0239C85.0733 49.3364 85.1212 49.3202 85.1605 49.2903C85.1998 49.2605 85.2284 49.2188 85.242 49.1713C85.2556 49.1239 85.2535 49.0733 85.2359 49.0272C85.2183 48.9811 85.1863 48.9419 85.1446 48.9155L73.8606 41.7687L86.5122 49.3373C86.5122 49.3373 86.0603 49.9035 84.6542 49.7013C84.6542 49.7013 71.6246 43.0234 69.0137 42.0947C69.0137 42.0958 69.6663 41.2419 73.6079 41.5435Z" fill="white"/>
<path d="M71.1281 44.8239C70.5041 45.0506 69.7168 45.4432 69.7168 45.4432C69.7168 45.4432 71.0891 45.1338 71.6408 44.9232C72.1925 44.7126 72.4281 44.0959 72.4281 44.0959L71.8925 43.8281C71.8925 43.8281 71.8925 43.8323 71.8925 43.8406C71.8719 44.0603 71.7891 44.2695 71.6537 44.4437C71.5182 44.6179 71.3359 44.7498 71.1281 44.8239Z" fill="white"/>
<path d="M72.9651 41.3717C73.352 41.2497 73.7555 41.1883 74.1612 41.1897C74.4779 41.1897 74.4784 40.6988 74.1612 40.6983C73.7116 40.6962 73.2643 40.7634 72.8351 40.8975C72.5345 40.9916 72.663 41.4663 72.9662 41.3717H72.9651Z" fill="white"/>
<path d="M76.4649 33.0918C76.3765 33.0695 75.7509 32.9712 75.7291 32.9046C75.6375 32.6233 76.5756 32.6009 76.6339 32.5926C77.1583 32.5388 77.6857 32.5201 78.2126 32.5365C78.3686 32.5411 78.3686 32.2952 78.2126 32.291C77.6857 32.2744 77.1583 32.293 76.6339 32.3467C76.3047 32.3815 75.7733 32.3597 75.5034 32.5682C74.8794 33.0518 76.196 33.2749 76.3993 33.3269C76.5553 33.3659 76.6183 33.1287 76.4649 33.0897V33.0918Z" fill="white"/>
<path d="M78.2614 32.7861L78.3025 32.8054C78.3273 32.817 78.3494 32.8338 78.3671 32.8548C78.3848 32.8758 78.3977 32.9003 78.4051 32.9267C78.4124 32.9532 78.4139 32.9809 78.4094 33.008C78.405 33.035 78.3948 33.0608 78.3794 33.0836L73.5303 40.2481H73.7424L78.9478 32.6655C78.9568 32.6523 78.9617 32.6367 78.962 32.6206C78.9623 32.6046 78.9579 32.5889 78.9493 32.5753C78.9407 32.5618 78.9284 32.5511 78.9138 32.5445C78.8992 32.5378 78.883 32.5356 78.8672 32.5381L78.2827 32.6322C78.2659 32.6355 78.2506 32.644 78.2388 32.6564C78.227 32.6688 78.2195 32.6846 78.2171 32.7016C78.2148 32.7185 78.2178 32.7358 78.2257 32.7509C78.2336 32.7661 78.2461 32.7784 78.2614 32.7861Z" fill="white"/>
<path d="M64.4841 36.3591L67.8754 40.7682L68.0262 40.6595L65.1419 36.9602C65.0954 36.9012 65.0696 36.8286 65.0683 36.7535C65.0669 36.6784 65.0902 36.6049 65.1346 36.5442C65.1947 36.4599 65.2714 36.3886 65.36 36.335C65.4486 36.2813 65.5473 36.2464 65.6499 36.2322L65.6078 36.123L64.5678 36.1787C64.5475 36.18 64.5279 36.1868 64.5111 36.1983C64.4944 36.2098 64.481 36.2256 64.4724 36.2441C64.4639 36.2625 64.4604 36.283 64.4625 36.3032C64.4645 36.3234 64.472 36.3428 64.4841 36.3591Z" fill="white"/>
<path d="M66.3779 36.2071C66.3779 36.2221 66.381 36.2369 66.3869 36.2507C66.3928 36.2645 66.4014 36.2769 66.4123 36.2872C66.6988 36.5566 68.6769 38.4467 69.1002 39.6594C69.1059 39.6757 69.1156 39.6905 69.1285 39.7021C69.1413 39.7138 69.1568 39.7221 69.1737 39.7262C69.1905 39.7304 69.2082 39.7302 69.2249 39.7258C69.2417 39.7214 69.2571 39.7129 69.2698 39.701L70.0826 38.908C70.093 38.8975 70.1012 38.885 70.1064 38.8711C70.1116 38.8573 70.1139 38.8425 70.1129 38.8277C70.112 38.813 70.1079 38.7986 70.101 38.7855C70.094 38.7725 70.0844 38.761 70.0727 38.752L66.5537 36.1188C66.5373 36.1066 66.5179 36.0993 66.4976 36.0976C66.4772 36.0958 66.4568 36.0998 66.4386 36.1089C66.4204 36.1181 66.4051 36.1321 66.3944 36.1495C66.3837 36.1668 66.378 36.1868 66.3779 36.2071Z" fill="white"/>
<path d="M69.6016 49.3179C68.0593 49.1619 66.4988 49.0023 64.9544 49.2165C64.2377 49.3091 63.5368 49.4975 62.8702 49.7766C62.395 49.9809 61.9207 50.2159 61.745 50.7328C61.6992 50.8675 61.901 50.9439 61.9696 50.8275C62.2977 50.2867 62.9134 49.9248 63.5343 50.2035C64.0943 50.4546 64.202 51.1394 64.2254 51.6849C64.2524 52.3208 64.0059 52.9667 63.2535 52.9225C62.5733 52.883 62.2135 52.2013 62.1568 51.5986C62.1417 51.4426 61.8968 51.4426 61.9108 51.5986C61.979 52.3011 62.3658 53.0311 63.124 53.1533C63.8905 53.2766 64.424 52.7374 64.4708 51.999C64.516 51.2804 64.3746 50.3199 63.6476 49.9768C62.9087 49.6278 62.1454 50.0641 61.7574 50.7047L61.9821 50.7994C62.2005 50.1577 63.1417 49.905 63.7158 49.7334C64.3611 49.5452 65.0254 49.4292 65.6964 49.3876C67.0001 49.2977 68.3058 49.4328 69.6016 49.5649C69.7576 49.581 69.7576 49.3351 69.6016 49.3195V49.3179Z" fill="white"/>
<path d="M62.7521 51.2718C62.7735 51.7044 62.84 52.4715 63.3444 52.6139C63.4967 52.6566 63.5623 52.4195 63.4099 52.3768C63.0542 52.2764 63.0126 51.5666 62.9981 51.2718C62.9898 51.1158 62.7443 51.1158 62.7521 51.2718Z" fill="white"/>
<path d="M64.6455 50.3002C64.8863 50.6449 65.029 51.0485 65.0585 51.4679C65.088 51.8873 65.0031 52.3069 64.8129 52.6819C64.7422 52.8233 64.9544 52.9476 65.0251 52.8061C65.2369 52.3935 65.3332 51.9312 65.3037 51.4682C65.2742 51.0053 65.1201 50.5589 64.8577 50.1765C64.7693 50.0465 64.5561 50.1692 64.6455 50.3002Z" fill="white"/>
<path d="M69.9314 49.7342C70.0286 50.5376 69.9153 51.1143 69.1644 51.5434C68.6165 51.8469 68.0527 52.1208 67.4754 52.3639C66.8455 52.6449 66.1914 52.8682 65.5212 53.0311C64.8785 53.1804 64.1172 53.339 63.476 53.1174C63.3263 53.0654 63.2618 53.3031 63.4105 53.3546C64.0927 53.5896 64.9024 53.4279 65.5862 53.2683C66.3361 53.0925 67.0589 52.8184 67.7609 52.5054C68.4015 52.2194 69.1363 51.9401 69.6849 51.4929C70.246 51.0332 70.2611 50.4082 70.1794 49.7337C70.1607 49.5777 69.9142 49.5777 69.9335 49.7337L69.9314 49.7342Z" fill="white"/>
<defs>
<radialGradient id="paint0_radial_463_25281" cx="0" cy="0" r="1" gradientUnits="userSpaceOnUse" gradientTransform="translate(102.428 67.1025) rotate(-152.748) scale(97.1062 298.577)">
<stop stop-color="#8F8AD2"/>
<stop offset="1" stop-color="#4267B2"/>
</radialGradient>
</defs>
</svg>
