<svg width="105" height="104" viewBox="0 0 105 104" fill="none" xmlns="http://www.w3.org/2000/svg">
<path d="M103.105 45.0993L96.9126 43.3037L79.1671 41.7494L79.7859 37.0175C79.7859 37.0175 78.4287 35.1793 76.7366 34.9853C75.0445 34.7913 74.5126 37.5011 74.5126 37.5011L72.9646 41.3121L53.6206 39.554L7.02179 32.0322L1.89355 32.3224L17.5201 35.8064L48.3561 40.8862L72.0208 43.1358L71.5616 44.7556L70.4322 46.3156C70.4322 46.3156 66.5348 45.7165 64.9758 45.6396L60.547 43.2996C60.547 43.2996 59.6921 43.1046 59.4342 44.0416V45.7238L58.6921 43.1352L56.5305 42.9002L53.8785 44.8419L52.4994 44.6916C52.4994 44.6916 51.9675 43.2398 49.9192 43.1352C47.8709 43.0307 47.2584 45.0993 47.2584 45.0993L38.4022 44.7519L39.097 42.3433C39.097 42.3433 38.4366 41.581 35.6306 41.7494L35.276 45.197C35.276 45.197 31.376 45.7852 30.6636 51.4958L20.9874 49.7496L17.0042 49.9098L18.9397 51.2722L28.2284 53.2003C28.2284 53.2003 28.4364 54.4234 30.1155 56.6292L31.454 55.5731C31.454 55.5731 32.3734 57.7051 35.002 58.5938L35.0181 59.9265C35.0181 59.9265 33.8668 59.4445 32.6198 59.6239C31.3729 59.8033 30.5034 60.6192 30.5034 60.6192C30.5034 60.6192 29.2456 61.7678 28.8748 63.2847C28.504 64.8015 29.7754 66.0921 29.7754 66.0921C29.7754 66.0921 30.6828 67.0651 32.2267 67.3063C32.2267 67.3063 32.9802 68.3682 34.6437 67.7863C34.6437 67.7863 35.7669 67.2211 35.9322 66.1223L36.6264 66.3906L40.9679 62.5265L40.6289 62.0746L36.7018 60.2604C36.7796 59.8617 36.8214 59.4569 36.8266 59.0508C36.8266 59.0508 39.1214 59.0748 40.488 58.8569C40.7458 59.1807 41.0279 59.4844 41.3319 59.7653L42.5076 59.2796L43.3396 58.4123L43.7333 58.3494L51.9794 57.7722L51.7792 63.4329L51.1552 64.1999C51.1552 64.1999 49.8173 65.2955 49.1522 66.6007C48.4871 67.9059 49.2364 69.7691 49.2364 69.7691C49.2364 69.7691 50.1074 71.1263 51.3034 71.2401C51.3034 71.2401 51.9446 72.212 53.3476 71.9099C54.7505 71.6078 54.9564 70.1195 54.9564 70.1195L55.7182 70.1939L60.3026 66.3927C60.3026 66.3927 58.3068 63.8785 56.1051 63.528C53.9034 63.1775 52.7366 63.2738 52.7366 63.2738L52.2457 57.6162L52.4178 57.8346H53.7698L78.7345 60.6758L83.5601 61.2322L90.2488 60.9057L85.2901 59.7097L74.1262 58.2095L59.9386 56.4316L74.4044 51.9326L74.8033 52.1744L74.7913 53.166L75.0804 53.4323C75.0804 53.4323 74.6343 54.0854 74.9364 54.6657C75.2385 55.246 76.1579 55.065 76.1579 55.065C76.1579 55.065 76.9415 54.753 76.7372 53.6741C76.7372 53.6741 76.7174 53.0209 75.758 52.8155L75.6394 52.3642L75.8682 52.0002L75.7585 51.5051L76.1464 50.5619C76.1464 50.5619 78.4121 49.6066 78.7366 46.3405L79.0132 43.6511L92.2212 45.0468L103.105 45.0993Z" fill="url(#paint0_linear_463_25653)"/>
<path d="M39.2951 62.2188L38.8994 61.6869C41.8691 59.4769 43.7011 57.6506 43.7188 57.6309L44.1868 58.0989C44.1701 58.1191 42.3039 59.9802 39.2951 62.2188Z" fill="url(#paint1_linear_463_25653)"/>
<path d="M52.4041 57.2373L50.9834 57.272L51.1527 64.2L52.5734 64.1653L52.4041 57.2373Z" fill="url(#paint2_linear_463_25653)"/>
<path d="M49.5736 57.3265L48.5811 57.644L50.7738 64.498L51.7663 64.1805L49.5736 57.3265Z" fill="url(#paint3_linear_463_25653)"/>
<path d="M44.6921 57.5203L43.8584 58.1455L50.0448 66.394L50.8784 65.7687L44.6921 57.5203Z" fill="url(#paint4_linear_463_25653)"/>
<path d="M80.0885 43.3487L76.0361 59.2583L76.4952 59.3752L80.5476 43.4657L80.0885 43.3487Z" fill="url(#paint5_linear_463_25653)"/>
<path d="M82.4851 43.5007L79.168 59.3931L79.6317 59.4899L82.9488 43.5975L82.4851 43.5007Z" fill="url(#paint6_linear_463_25653)"/>
<path d="M80.0124 59.5118L79.5616 59.3667L83.7315 46.3983L76.817 59.4296L76.3984 59.2076L84.5666 43.8145L85.0013 43.998L80.0124 59.5118Z" fill="url(#paint7_linear_463_25653)"/>
<path d="M52.9816 45.3569L52.3051 42.1735L51.365 44.1105L50.7686 43.8208L52.5521 40.146L53.6305 45.2191L52.9816 45.3569Z" fill="url(#paint8_linear_463_25653)"/>
<path d="M57.1379 41.1449L55.9521 43.854L56.3861 44.044L57.5718 41.3348L57.1379 41.1449Z" fill="url(#paint9_linear_463_25653)"/>
<path d="M44.3774 46.307L39.7047 39.9162L40.3812 45.968L39.8165 46.0314L38.9023 37.8555L44.8366 45.9716L44.3774 46.307Z" fill="url(#paint10_linear_463_25653)"/>
<path d="M44.3998 39.5496L43.7539 39.7017L45.1482 45.6231L45.7941 45.471L44.3998 39.5496Z" fill="url(#paint11_linear_463_25653)"/>
<path d="M15.3899 35.058L15.0586 35.2422L23.6954 50.7786L24.0267 50.5944L15.3899 35.058Z" fill="url(#paint12_radial_463_25653)"/>
<path d="M28.0187 51.5796L20.9856 37.4346L24.3324 50.7664L23.9647 50.8584L19.7646 34.1279L28.3582 51.4112L28.0187 51.5796Z" fill="url(#paint13_radial_463_25653)"/>
<path d="M24.7718 36.4035L24.2021 50.9663L24.5809 50.9811L25.1506 36.4183L24.7718 36.4035Z" fill="url(#paint14_radial_463_25653)"/>
<path d="M36.5737 49.525C37.8477 45.6209 38.5497 42.3048 38.5497 42.3048L37.0656 41.9824C37.0656 41.9824 37.5528 44.9282 36.504 49.5042C36.5017 49.5133 36.5031 49.5229 36.5077 49.531C36.5124 49.5391 36.52 49.5452 36.5289 49.5478C36.5379 49.5505 36.5475 49.5496 36.5559 49.5454C36.5642 49.5411 36.5706 49.5339 36.5737 49.525Z" fill="white"/>
<path d="M35.8554 42.2089L35.2314 46.1609L34.8762 48.4058C34.8554 48.5394 34.8242 48.6751 34.8128 48.8098C34.7764 49.1977 34.937 49.4307 35.1768 49.7104C35.2761 49.8264 35.443 49.6584 35.3442 49.543C34.9344 49.0651 35.0686 48.6938 35.1565 48.139L35.5179 45.851L36.0842 42.2698C36.1076 42.1205 35.8798 42.0566 35.8559 42.2068L35.8554 42.2089Z" fill="white"/>
<path d="M34.5044 46.7257L34.3619 48.4609C34.3391 48.7422 34.3359 49.0329 34.2923 49.3121C34.2709 49.4478 34.3625 49.2351 34.2767 49.3381C34.1727 49.4629 34.0593 49.5778 33.9584 49.7052C33.6859 50.0484 33.4384 50.427 33.3001 50.8456C33.2757 50.9184 33.2034 51.3177 33.2543 51.2569C33.2122 51.3089 33.0115 51.3468 32.9512 51.3692L31.2534 51.9932C31.1114 52.0452 31.1728 52.2745 31.3163 52.2215L33.3479 51.4716C33.3725 51.4639 33.394 51.4487 33.4097 51.4282C33.4253 51.4078 33.4343 51.383 33.4353 51.3572C33.4998 50.6506 33.9475 50.0786 34.3916 49.5586C34.5424 49.3823 34.5315 49.2799 34.5507 49.0422L34.7415 46.7231C34.754 46.5712 34.5169 46.5717 34.5044 46.7231V46.7257Z" fill="white"/>
<path d="M36.1497 45.4571L35.8518 47.7555C35.832 47.9063 36.0691 47.9048 36.0884 47.7555L36.3869 45.4571C36.4066 45.3068 36.1695 45.3078 36.1497 45.4571Z" fill="white"/>
<path d="M37.6599 47.3259C38.2797 47.6072 38.8039 48.1787 39.1612 48.7403C40.2329 50.4194 40.0779 52.5322 39.5891 54.3766C39.5501 54.5243 39.7789 54.5846 39.8179 54.4396C40.3161 52.5577 40.4685 50.4085 39.405 48.6831C39.0239 48.0643 38.4565 47.4288 37.7795 47.1231C37.6417 47.0607 37.5195 47.2645 37.6599 47.3274V47.3259Z" fill="white"/>
<path d="M33.9323 48.5647C33.8908 48.4802 33.8325 48.405 33.761 48.3438C33.6895 48.2825 33.6062 48.2365 33.5163 48.2086C33.3712 48.1612 33.3083 48.39 33.4534 48.4368C33.5136 48.4569 33.569 48.4893 33.6161 48.5319C33.6632 48.5745 33.7009 48.6264 33.7269 48.6843C33.7924 48.8216 33.9968 48.7015 33.9313 48.5647H33.9323Z" fill="white"/>
<path d="M33.3743 49.4787C33.24 49.4045 33.0924 49.3574 32.9399 49.3403C32.7874 49.3232 32.633 49.3363 32.4856 49.3789C32.3394 49.4205 32.4018 49.6493 32.5485 49.6072C32.6654 49.5724 32.788 49.5613 32.9092 49.5743C33.0304 49.5873 33.1479 49.6243 33.2547 49.6831C33.3883 49.7559 33.5085 49.551 33.3743 49.4787Z" fill="white"/>
<path d="M37.334 49.2004C37.616 48.9256 37.9526 48.713 38.322 48.5765C38.4635 48.5245 38.4021 48.2952 38.2586 48.3482C37.8505 48.4974 37.4784 48.7309 37.1666 49.0335C37.0569 49.1375 37.2248 49.307 37.334 49.201V49.2004Z" fill="white"/>
<path d="M38.0834 49.924C38.4009 49.8917 38.7202 49.9648 38.9919 50.132C39.1224 50.2111 39.2415 50.0062 39.1115 49.9272C38.8037 49.7384 38.4429 49.6547 38.0834 49.6885C37.9326 49.7025 37.931 49.9396 38.0834 49.9256V49.924Z" fill="white"/>
<path d="M38.8515 51.6747C39.0498 51.9745 39.1449 52.3307 39.1225 52.6893C39.1142 52.8417 39.3513 52.8412 39.3596 52.6893C39.3826 52.2885 39.2762 51.8908 39.0559 51.5551C38.9732 51.4277 38.7683 51.5463 38.8515 51.6747Z" fill="white"/>
<path d="M36.448 55.5813C36.5804 55.861 36.625 56.1742 36.5759 56.4798C36.5525 56.629 36.7803 56.6935 36.8042 56.5432C36.8661 56.1757 36.8131 55.798 36.6524 55.4617C36.5879 55.3234 36.3835 55.4435 36.448 55.5813Z" fill="white"/>
<path d="M32.7946 55.3607C33.332 55.4528 33.8844 55.3394 34.3421 55.043C34.4695 54.9608 34.351 54.7559 34.2225 54.8386C33.8205 55.1044 33.3333 55.2092 32.8575 55.1324C32.7088 55.1085 32.6443 55.3368 32.7946 55.3607Z" fill="white"/>
<path d="M34.664 56.8496C34.9351 56.779 35.1822 56.6369 35.3796 56.4381C35.577 56.2393 35.7174 55.9912 35.7862 55.7196C35.8236 55.5719 35.5953 55.5085 35.5579 55.6567C35.5002 55.8889 35.3808 56.1012 35.2122 56.271C35.0437 56.4408 34.8323 56.5619 34.6005 56.6213C34.4534 56.6598 34.5158 56.8881 34.664 56.8496Z" fill="white"/>
<path d="M36.373 53.4648V53.9484L41.1248 59.1421C41.1915 59.2149 41.2784 59.2662 41.3744 59.2892C41.4531 59.3082 41.5353 59.3075 41.6137 59.2873C41.6922 59.2671 41.7644 59.2279 41.8242 59.1733L43.146 57.9638C43.146 57.9638 42.3723 58.27 41.2595 57.7558C40.1467 57.2415 36.373 53.4648 36.373 53.4648Z" fill="white"/>
<path d="M38.2728 56.4277C37.8568 56.8624 37.3087 57.1832 36.7648 57.4261C36.6259 57.488 36.746 57.6923 36.8844 57.631C37.4455 57.3803 38.0118 57.0434 38.4402 56.5951C38.5442 56.4849 38.3784 56.3174 38.2728 56.4277Z" fill="white"/>
<path d="M38.0235 53.9238L40.8939 56.1208C41.0145 56.2138 41.1326 56.0079 41.0135 55.9164L38.1431 53.7158C38.0219 53.6232 37.9039 53.8291 38.0235 53.9201V53.9238Z" fill="white"/>
<path d="M41.6736 55.7903C42.4239 55.3351 43.2002 54.9243 43.9985 54.5599C45.3984 53.9115 46.9626 53.2822 48.5325 53.3088C48.6848 53.3088 48.6848 53.0748 48.5325 53.0722C46.9948 53.0456 45.4728 53.6353 44.0927 54.2578C43.2191 54.6469 42.3712 55.0912 41.554 55.588C41.4245 55.6676 41.5431 55.8725 41.6736 55.7924V55.7903Z" fill="white"/>
<path d="M37.8408 46.4614V46.7256C37.8408 46.7256 40.3082 47.9611 41.4091 50.6464C42.5099 53.3317 41.07 54.6254 41.07 54.6254L41.2879 54.9177C41.2879 54.9177 44.1568 52.8522 48.1343 52.1721C48.1926 52.1638 48.2463 52.136 48.2868 52.0932C48.3272 52.0504 48.3519 51.9952 48.3569 51.9365C48.3589 51.8937 48.3493 51.8511 48.3293 51.8133C48.3048 51.7704 48.2692 51.735 48.2263 51.7106C48.1834 51.6861 48.1348 51.6737 48.0854 51.6744C47.4739 51.6692 44.4511 51.5824 43.0991 50.3682C43.0991 50.3682 39.4653 47.0636 37.8408 46.4614Z" fill="white"/>
<path d="M36.8775 50.0267C38.1988 50.2243 38.1322 52.1067 37.9695 53.0464C37.9435 53.1951 38.1717 53.2591 38.1977 53.1093C38.3818 52.0558 38.4094 50.0179 36.942 49.7979C36.7927 49.7756 36.7283 50.0059 36.8785 50.0267H36.8775Z" fill="white"/>
<path d="M33.9041 50.8928C33.5988 51.73 33.8001 52.6774 34.5634 53.1808C34.6908 53.265 34.8098 53.0596 34.683 52.9764C34.007 52.5298 33.8661 51.6873 34.1323 50.9573C34.1843 50.8137 33.956 50.7519 33.9041 50.8938V50.8928Z" fill="white"/>
<path d="M35.3127 50.1469C35.686 50.1573 35.998 50.4344 36.1176 50.7751C36.1696 50.9176 36.3969 50.8562 36.3459 50.7121C36.1899 50.2696 35.7963 49.9232 35.3127 49.9097C35.1598 49.9056 35.1603 50.1427 35.3127 50.1469Z" fill="white"/>
<path d="M36.2025 51.7706C36.1801 51.7186 36.2066 51.7841 36.2103 51.7982C36.2228 51.8454 36.2315 51.8936 36.2363 51.9422C36.247 52.1291 36.2113 52.3158 36.1323 52.4856C36.0714 52.6239 36.2758 52.7456 36.3366 52.6052C36.4646 52.314 36.5446 51.9557 36.4094 51.651C36.347 51.5122 36.1432 51.6323 36.2046 51.7706H36.2025Z" fill="white"/>
<path d="M29.9316 56.0167C31.5644 55.0969 33.556 52.2432 33.556 52.2432C33.556 52.2432 33.764 52.8765 34.0922 53.189L30.0648 56.0775L29.9316 56.0167Z" fill="white"/>
<path d="M31.6126 53.3622C30.9335 53.8094 30.2575 54.3075 29.5326 54.6761C29.3964 54.7453 29.5165 54.9502 29.6522 54.881C30.3776 54.5118 31.0536 54.0137 31.7322 53.5665C31.8591 53.4833 31.7405 53.2779 31.6131 53.3622H31.6126Z" fill="white"/>
<path d="M28.9689 54.1C28.8829 53.9241 28.8115 53.7415 28.7551 53.5541L28.6725 53.6996C30.2215 53.1921 31.7628 52.6555 33.2843 52.0706C33.4252 52.0186 33.3644 51.7877 33.2214 51.8423C31.6999 52.4267 30.1586 52.9639 28.609 53.4714C28.579 53.4801 28.5536 53.5002 28.5381 53.5274C28.5227 53.5546 28.5185 53.5867 28.5263 53.617C28.5896 53.8238 28.669 54.0253 28.764 54.2196C28.8311 54.3569 29.0354 54.2368 28.9689 54.1Z" fill="white"/>
<path d="M30.6314 51.8521C30.6314 51.8521 30.5914 52.1989 30.6637 52.4407L29.1801 52.9087L21.8824 51.6508C21.8824 51.6508 18.8498 51.0564 18.3636 50.4402C18.3496 50.4215 18.3422 50.3986 18.3428 50.3752C18.3427 50.3477 18.353 50.3212 18.3716 50.301C18.3902 50.2807 18.4158 50.2683 18.4432 50.266L20.1332 50.1282C20.1579 50.1264 20.1826 50.1332 20.2029 50.1475C20.2232 50.1618 20.2379 50.1828 20.2444 50.2067C20.2495 50.2269 20.2487 50.248 20.2421 50.2677C20.2354 50.2873 20.2233 50.3046 20.207 50.3175L20.0973 50.4038C20.0794 50.4176 20.0665 50.4368 20.0605 50.4586C20.0545 50.4804 20.0557 50.5035 20.064 50.5245L20.1066 50.6384C20.1121 50.6532 20.121 50.6665 20.1324 50.6774C20.1438 50.6883 20.1576 50.6965 20.1727 50.7013C20.8783 50.9227 21.5976 51.098 22.326 51.226L29.4141 52.4111L30.1556 52.3871L30.4864 51.8547L30.6314 51.8521Z" fill="white"/>
<path d="M33.0321 46.7687C31.5558 48.1685 30.8772 50.3094 30.8928 52.3114C30.8927 52.3306 30.8976 52.3496 30.9069 52.3665C30.9589 52.3488 31.0062 52.3311 31.0572 52.3145C31.0816 52.3067 31.106 52.2968 31.13 52.2869C31.1201 50.3525 31.7737 48.2881 33.1995 46.9356C33.3124 46.8311 33.1428 46.6637 33.0321 46.7687Z" fill="white"/>
<path d="M31.9621 55.1582L31.7021 55.36C31.7021 55.36 32.4603 57.1098 34.2184 58.0853C35.9765 59.0608 38.9431 58.545 38.9431 58.545L40.161 58.5205L39.121 57.3838C39.121 57.3838 38.809 57.0853 38.121 57.3755C38.121 57.3755 37.0966 58.1415 35.871 57.9886C34.6453 57.8357 33.1878 56.9964 31.9621 55.1582Z" fill="white"/>
<path d="M36.3646 54.3146C36.1999 54.3194 36.0361 54.2889 35.8841 54.2252C35.7458 54.1654 35.6241 54.3697 35.7645 54.4295C35.9534 54.5129 36.1581 54.5544 36.3646 54.5511C36.517 54.548 36.5175 54.3115 36.3646 54.3146Z" fill="white"/>
<path d="M35.1911 59.0982C35.111 60.0249 35.1391 61.0586 34.8099 61.9306C34.7226 62.1605 34.7735 62.2307 34.7902 62.4413C34.8848 62.5532 34.8824 62.6808 34.7829 62.824C34.6908 62.8671 34.5978 62.9072 34.5026 62.9436C34.4198 62.9852 34.3428 63.0377 34.2738 63.0996C34.1594 63.201 34.3258 63.3679 34.4412 63.267C34.6352 63.0949 34.9904 63.0866 35.1037 62.8193C35.1427 62.7278 35.125 62.6779 35.1224 62.59C35.1224 62.5317 35.0845 62.5167 35.0746 62.4641C35.0463 62.2707 35.0532 62.0738 35.0949 61.8828C35.3029 60.9707 35.3471 60.0363 35.4277 59.1003C35.4412 58.9485 35.2041 58.9495 35.1911 59.1003V59.0982Z" fill="white"/>
<path d="M36.3847 59.3956C36.4367 60.2365 36.1814 61.0128 35.9006 61.7933C35.7794 62.1287 35.6541 62.4636 35.5553 62.8063C35.509 62.9675 35.4799 63.1344 35.4321 63.2945C35.2922 63.7589 34.8414 64.0158 34.4285 63.6393C34.3162 63.5353 34.1482 63.7038 34.261 63.8067C34.4966 64.0215 34.7998 64.1323 35.1133 64.0199C35.5574 63.8608 35.6292 63.4479 35.7373 63.0413C36.0576 61.8204 36.7004 60.693 36.6213 59.3956C36.612 59.2443 36.3754 59.2433 36.3842 59.3956H36.3847Z" fill="white"/>
<path d="M37.5162 61.4447C37.8082 61.712 38.1337 61.9403 38.4845 62.1238C38.6379 62.2022 38.7957 62.2716 38.9572 62.3318C39.3534 62.4805 39.3519 62.7936 39.0861 63.0796C38.9821 63.1914 39.1501 63.3593 39.2541 63.247C39.473 63.0109 39.7335 62.4956 39.3898 62.2491C39.1537 62.0796 38.809 62.0287 38.55 61.8909C38.2371 61.7224 37.9462 61.5162 37.6836 61.2768C37.5708 61.1728 37.4028 61.3418 37.5162 61.4442V61.4447Z" fill="white"/>
<path d="M31.9242 62.382C31.6522 61.4142 32.8009 61.0299 33.5102 60.8521C33.6578 60.8141 33.5954 60.5858 33.4472 60.6233C32.6002 60.8396 31.3839 61.3347 31.6954 62.4433C31.7364 62.5895 31.9652 62.5276 31.9242 62.3799V62.382Z" fill="white"/>
<path d="M33.3206 67.1374C34.1075 66.8573 34.8782 66.5388 35.6325 66.1821C35.7703 66.1171 35.6502 65.9133 35.5129 65.9778C34.7759 66.3244 34.0241 66.6349 33.2577 66.9091C33.1152 66.9611 33.1765 67.1888 33.3206 67.1374Z" fill="white"/>
<path d="M33.647 67.0362C33.7146 67.1491 33.82 67.2343 33.9446 67.2768C34.0691 67.3192 34.2047 67.3161 34.3271 67.2681C34.447 67.2243 34.5446 67.1349 34.5986 67.0193C34.6526 66.9037 34.6586 66.7714 34.6152 66.6515C34.6058 66.6218 34.5855 66.5967 34.5584 66.5814C34.5313 66.5661 34.4994 66.5616 34.4691 66.5688C34.3307 66.5969 34.1942 66.6337 34.0604 66.679C33.9684 66.7107 33.829 66.7398 33.763 66.8183C33.6101 67.0014 33.8966 67.1246 34.0354 67.1542C34.2091 67.1916 34.4836 67.1812 34.5096 66.9525C34.5132 66.908 34.5021 66.8637 34.4781 66.8261C34.454 66.7886 34.4184 66.7599 34.3765 66.7445C34.2725 66.7003 34.1685 66.7445 34.077 66.7965C33.946 66.874 34.0651 67.0788 34.1966 67.0014C34.3147 66.9312 34.1446 66.9343 34.0984 66.9254C34.0521 66.9166 33.9554 66.8906 33.9424 66.8672L33.9543 66.9582C33.9574 66.9462 34.1878 66.8854 34.2237 66.874C34.3277 66.8433 34.428 66.8184 34.5315 66.797L34.3859 66.7144C34.5148 67.0492 34.0115 67.1948 33.8514 66.9161C33.7749 66.784 33.5706 66.9031 33.6465 67.0357L33.647 67.0362Z" fill="white"/>
<path d="M32.5616 67.535C33.6271 68.055 34.8247 67.7497 35.5001 66.7732C35.587 66.6473 35.3821 66.5288 35.2958 66.6536C34.6967 67.5194 33.6281 67.7939 32.6812 67.3296C32.5445 67.263 32.4243 67.4674 32.5616 67.5344V67.535Z" fill="white"/>
<path d="M39.8491 61.6406C40.5546 61.1092 41.1998 60.502 41.7731 59.83C41.8714 59.7146 41.7044 59.5461 41.6056 59.6621C41.0472 60.3203 40.418 60.9151 39.7295 61.4357C39.6093 61.5267 39.7295 61.7321 39.8491 61.6406Z" fill="white"/>
<path d="M43.8516 58.1397C44.3389 58.1343 44.8238 58.0687 45.2951 57.9446C45.4423 57.9061 45.3799 57.6778 45.2322 57.7163C44.7814 57.8348 44.3177 57.8973 43.8516 57.9025C43.6992 57.9025 43.6992 58.1413 43.8516 58.1397Z" fill="white"/>
<path d="M51.5853 67.587C51.6436 67.1111 51.8053 66.6536 52.0589 66.2467C52.3125 65.8397 52.6521 65.4931 53.0537 65.2312C53.4553 64.9692 53.9093 64.7981 54.384 64.73C54.8587 64.6619 55.3425 64.6983 55.8016 64.8367C55.9477 64.8794 56.0096 64.6511 55.8645 64.6079C53.7408 63.9839 51.6191 65.4009 51.3487 67.587C51.33 67.7378 51.5671 67.7363 51.5853 67.587Z" fill="white"/>
<path d="M52.8065 68.3897C54.2826 68.2266 55.7075 67.7531 56.9877 67.0004C57.1192 66.9234 57.0002 66.7185 56.8681 66.796C55.6248 67.5292 54.2408 67.9916 52.8065 68.1531C52.6567 68.1697 52.6546 68.4068 52.8065 68.3897Z" fill="white"/>
<path d="M51.5258 71.3988C52.6345 71.2967 53.7091 70.9612 54.6791 70.4144C54.8122 70.3401 54.6926 70.1352 54.5595 70.21C53.6266 70.7374 52.5928 71.0617 51.5258 71.1617C51.375 71.1762 51.3734 71.4129 51.5258 71.3988Z" fill="white"/>
<path d="M52.7594 71.2087C53.0787 71.6329 53.7515 71.4375 53.7473 70.8885C53.7473 70.7367 53.5092 70.7361 53.5102 70.8885C53.5133 71.1817 53.152 71.3371 52.9648 71.0891C52.8743 70.969 52.6684 71.0891 52.7605 71.2087H52.7594Z" fill="white"/>
<path d="M53.4883 70.8275C53.3521 70.9331 53.1868 70.9943 53.0147 71.0028C52.8628 71.0095 52.8618 71.2467 53.0147 71.2394C53.2289 71.2316 53.4357 71.1591 53.6079 71.0314C53.7286 70.9409 53.6111 70.7354 53.4883 70.8265V70.8275Z" fill="white"/>
<path d="M52.0611 71.7497C52.8931 71.9983 53.7314 71.7539 54.2836 71.0852C54.3804 70.9682 54.2134 70.7998 54.1162 70.9173C53.6144 71.5256 52.8807 71.7492 52.1241 71.5215C51.9779 71.4773 51.916 71.7061 52.0611 71.7497Z" fill="white"/>
<path d="M38.291 45.2398L38.2275 45.5664C38.2275 45.5664 40.8161 45.3485 43.5497 45.9049C46.2834 46.4613 48.9801 47.417 48.9801 47.417L49.1496 47.1388L47.6016 45.8201C47.6016 45.8201 39.552 45.0703 38.291 45.2398Z" fill="white"/>
<path d="M39.3028 40.2797C39.3831 41.6705 39.5595 43.0541 39.8306 44.4205C39.8451 44.4954 39.9595 44.4637 39.9444 44.3888C39.6757 43.0331 39.501 41.6605 39.4214 40.2808C39.4172 40.2048 39.2987 40.2043 39.3028 40.2808V40.2797Z" fill="white"/>
<path d="M40.3319 40.5697C40.7291 41.1942 41.1848 41.7796 41.6928 42.3179C41.7448 42.3735 41.829 42.2893 41.7765 42.2342C41.2762 41.7024 40.8273 41.1246 40.4359 40.5083C40.3954 40.4438 40.2929 40.5031 40.3319 40.5676V40.5697Z" fill="white"/>
<path d="M44.0756 40.1753C44.3058 41.6065 44.6218 43.0226 45.0219 44.4159C45.0261 44.431 45.0361 44.4439 45.0497 44.4517C45.0634 44.4595 45.0796 44.4616 45.0947 44.4575C45.1099 44.4533 45.1228 44.4433 45.1306 44.4297C45.1384 44.416 45.1405 44.3998 45.1363 44.3847C44.736 42.9914 44.4198 41.5753 44.1895 40.1441C44.177 40.0687 44.0631 40.1009 44.0751 40.1753H44.0756Z" fill="white"/>
<path d="M29.9657 65.0432L31.2137 64.4426C31.2403 64.4299 31.2694 64.4235 31.2989 64.4238C31.3283 64.4242 31.3573 64.4314 31.3835 64.4447C31.4098 64.4581 31.4326 64.4774 31.4502 64.501C31.4678 64.5246 31.4798 64.5519 31.4851 64.5809C31.5595 64.9756 31.8205 65.6952 32.7378 65.7654C34.0082 65.8621 36.8141 64.7977 36.8141 64.7977L37.0804 65.0489L32.5688 67.0248C32.5688 67.0248 31.4196 67.1943 30.8528 66.6135C30.3739 66.1242 30.0494 65.6437 29.8794 65.3021C29.8678 65.2795 29.8609 65.2548 29.8589 65.2294C29.857 65.2041 29.8602 65.1786 29.8682 65.1545C29.8763 65.1304 29.889 65.1082 29.9057 65.0891C29.9225 65.0699 29.9428 65.0543 29.9657 65.0432Z" fill="white"/>
<path d="M30.9412 63.3907L29.5289 64.087C29.4994 64.1016 29.4667 64.1084 29.4339 64.107C29.401 64.1055 29.3691 64.0958 29.341 64.0786C29.3129 64.0615 29.2896 64.0376 29.2733 64.009C29.257 63.9805 29.2481 63.9483 29.2476 63.9154C29.2382 63.2914 29.3516 61.8572 30.5231 61.0122C31.4222 60.3627 32.3827 60.0585 33.0192 59.9201C33.4451 59.8272 33.8879 59.8475 34.3036 59.9789L34.5168 60.0455C34.5304 60.0499 34.5429 60.0574 34.5532 60.0674C34.5634 60.0775 34.5712 60.0898 34.5759 60.1033C34.5806 60.1169 34.5821 60.1314 34.5802 60.1456C34.5783 60.1598 34.5732 60.1735 34.5651 60.1854C34.5543 60.2012 34.5387 60.2133 34.5206 60.2199C34.5025 60.2266 34.4828 60.2274 34.4643 60.2223L34.3545 60.1916C33.8856 60.0596 33.3883 60.0678 32.924 60.215L32.8902 60.2259C32.3436 60.4075 31.8692 60.7589 31.5362 61.2289C31.2032 61.699 31.029 62.263 31.039 62.839C31.039 62.956 31.0437 63.0803 31.0489 63.2092C31.0501 63.2466 31.0406 63.2835 31.0215 63.3157C31.0025 63.3478 30.9746 63.3739 30.9412 63.3907Z" fill="white"/>
<path d="M49.7022 68.4317L50.6304 68.0994C50.666 68.0866 50.6962 68.0622 50.7161 68.0301C50.736 67.998 50.7445 67.9601 50.7401 67.9226C50.6829 67.4224 50.6127 65.5972 52.4156 64.5094C54.2101 63.4262 55.8554 63.8563 56.301 64.006C56.3145 64.0106 56.3288 64.0118 56.3429 64.0097C56.3569 64.0076 56.3703 64.0022 56.3818 63.9939C56.3933 63.9857 56.4027 63.9747 56.4092 63.9621C56.4157 63.9495 56.4191 63.9355 56.4191 63.9213C56.419 63.9048 56.4144 63.8887 56.4058 63.8747C56.3971 63.8606 56.3849 63.8492 56.3702 63.8417C56.1164 63.7102 54.8903 63.1527 53.1462 63.6145C52.0693 63.8994 51.1941 64.6123 50.6226 65.1984C50.0535 65.778 49.6807 66.5217 49.5571 67.3246C49.5107 67.6377 49.4841 67.9535 49.4776 68.2699C49.477 68.2972 49.483 68.3241 49.4952 68.3485C49.5074 68.3729 49.5253 68.394 49.5474 68.4099C49.5695 68.4258 49.5951 68.4361 49.6221 68.4399C49.6491 68.4437 49.6766 68.4409 49.7022 68.4317Z" fill="white"/>
<path d="M50.5785 69.0326L50.0164 69.3774C49.9948 69.3906 49.9761 69.4083 49.9618 69.4292C49.9475 69.4502 49.9378 69.4739 49.9334 69.4989C49.929 69.5239 49.9299 69.5495 49.9362 69.5741C49.9424 69.5987 49.9538 69.6217 49.9696 69.6415C50.3191 70.0836 51.4313 71.224 53.1463 70.4824C55.2455 69.5755 57.8216 67.6743 57.8216 67.6743H57.6162C57.6162 67.6743 53.9762 70.2021 52.4516 69.9848C51.3663 69.8287 50.968 69.3555 50.8287 69.0955C50.8168 69.0745 50.8008 69.0561 50.7816 69.0415C50.7625 69.0268 50.7405 69.0162 50.7171 69.0104C50.6937 69.0045 50.6694 69.0034 50.6455 69.0072C50.6217 69.0111 50.5989 69.0197 50.5785 69.0326Z" fill="white"/>
<path d="M51.7719 63.3098C51.6996 60.9391 51.7719 57.6251 51.7719 57.6251H51.5785L49.4756 50.0278H49.1475L51.2155 58.1571L51.6513 63.6727L51.7719 63.3098Z" fill="white"/>
<path d="M50.0406 51.0593C50.3942 52.0511 50.7013 53.0565 50.962 54.0753C51 54.223 51.2283 54.1606 51.1903 54.0124C50.93 52.9929 50.623 51.9875 50.2694 50.9964C50.2174 50.8539 49.9896 50.9153 50.0406 51.0593Z" fill="white"/>
<path d="M49.2427 58.3819C49.8217 59.8928 50.3121 61.4361 50.7112 63.0041C50.7486 63.1518 50.9774 63.0894 50.9395 62.9412C50.5403 61.3732 50.05 59.8299 49.471 58.319C49.419 58.1781 49.1881 58.2395 49.2427 58.3819Z" fill="white"/>
<path d="M44.7188 58.5873C46.2542 60.8559 47.8557 63.0777 49.5235 65.2527C49.6151 65.3723 49.821 65.2527 49.7279 65.1336C48.0608 62.959 46.4592 60.737 44.9231 58.4677C44.8384 58.3419 44.633 58.4604 44.7188 58.5873Z" fill="white"/>
<path d="M53.4922 52.1442L58.1487 52.0876L59.313 52.0766C59.702 52.0714 60.0888 52.0766 60.4716 52.0501C60.8543 52.0236 61.238 51.9731 61.6244 51.9289L62.7798 51.7896C64.32 51.6003 65.8571 51.3861 67.3968 51.2041C68.1668 51.1132 68.936 51.0181 69.7046 50.9186C70.0894 50.8707 70.4721 50.8141 70.8527 50.7485C71.0461 50.7154 71.241 50.6923 71.4367 50.6794C71.5344 50.6731 71.6317 50.6695 71.7294 50.6685H71.8761L71.9489 50.6711H71.9853H72.0175C72.0175 50.6778 72.0206 50.657 72.0217 50.6856C72.0227 50.7142 72.0191 50.6939 72.0175 50.7002H72.004H71.9858H71.9494L71.8771 50.7049L71.7326 50.7184C71.6365 50.727 71.5407 50.7385 71.445 50.7527C71.2548 50.7812 71.0661 50.8193 70.8798 50.8671C70.5002 50.9565 70.1185 51.0351 69.7358 51.1058C68.9709 51.2498 68.2023 51.3658 67.4338 51.4776C65.8951 51.697 64.3492 51.8483 62.8058 52.0069L61.6473 52.1255C61.2619 52.1624 60.8751 52.2098 60.4825 52.2264C60.0899 52.243 59.7025 52.2337 59.3135 52.2321L58.1493 52.2212L53.4927 52.1645L53.4922 52.1442Z" fill="white"/>
<path d="M22.0353 42.8608L23.4866 48.2558C23.4909 48.271 23.5009 48.2839 23.5146 48.2916C23.5283 48.2994 23.5445 48.3014 23.5597 48.2972C23.5749 48.293 23.5878 48.2829 23.5955 48.2692C23.6033 48.2555 23.6053 48.2393 23.601 48.2241L22.1492 42.8291C22.1441 42.8151 22.1339 42.8035 22.1206 42.7966C22.1073 42.7898 22.0919 42.7882 22.0776 42.7922C22.0632 42.7962 22.0508 42.8055 22.043 42.8182C22.0351 42.831 22.0324 42.8462 22.0353 42.8608Z" fill="white"/>
<path d="M24.9681 45.1606L26.8921 49.043C26.9259 49.1116 27.0278 49.0513 26.9961 48.9832L25.0721 45.1008C25.0383 45.0327 24.9359 45.0925 24.9681 45.1606Z" fill="white"/>
<path d="M22.0413 39.1863L22.6096 40.2264C22.6465 40.2934 22.749 40.2336 22.7136 40.1665L22.1453 39.1265C22.1089 39.0595 22.0065 39.1193 22.0413 39.1863Z" fill="white"/>
<path d="M24.8395 38.4802L24.67 42.6527C24.6669 42.7291 24.7854 42.7286 24.7885 42.6527L24.9581 38.4802C24.9612 38.4037 24.8426 38.4037 24.8395 38.4802Z" fill="white"/>
<path d="M5.13574 32.6611L54.1936 40.5397V40.2797L93.8337 43.6279C93.8337 43.6279 95.0593 43.5635 95.4457 44.6924H99.6057L95.961 43.5312L54.1291 40.1595L5.13574 32.6611Z" fill="white"/>
<path d="M70.5442 42.5522L77.1628 43.1913L87.6627 44.2048L90.0901 44.4393C90.2414 44.4538 90.2403 44.2167 90.0901 44.2022L83.4709 43.5636L72.971 42.5496L70.5442 42.3156C70.3923 42.301 70.3934 42.5376 70.5442 42.5522Z" fill="white"/>
<path d="M75.4457 40.527C75.7795 39.7169 75.9745 38.863 76.2496 38.0352C76.546 37.1397 77.21 36.4606 78.2302 36.7169C78.3784 36.7544 78.4414 36.5256 78.2932 36.4886C75.9979 35.912 75.8055 39.0367 75.2174 40.4641C75.1592 40.605 75.388 40.6664 75.4457 40.527Z" fill="white"/>
<path d="M74.0284 43.7647C74.0201 44.3263 73.7643 44.7058 74.1246 45.2087C74.5407 45.7885 74.978 46.3053 75.314 46.9418C75.3852 47.077 75.5896 46.9574 75.5183 46.8222C75.2735 46.354 74.9874 45.9085 74.6634 45.491C74.4091 45.1655 74.1221 44.9315 74.1605 44.4776C74.1813 44.2347 74.2614 44.0096 74.2645 43.7647C74.2645 43.6123 74.03 43.6123 74.0279 43.7647H74.0284Z" fill="white"/>
<path d="M73.8778 41.0127L74.6323 40.8109C74.6574 40.8043 74.6801 40.7907 74.6977 40.7716C74.7153 40.7525 74.7271 40.7288 74.7317 40.7033C74.8164 40.2207 75.2517 37.8314 75.6624 37.0394C76.1221 36.1554 77.2224 35.9625 77.2224 35.9625C77.2224 35.9625 77.7825 35.8679 78.3102 36.131C78.3204 36.1359 78.332 36.1371 78.343 36.1343C78.354 36.1315 78.3636 36.1248 78.3701 36.1156C78.3767 36.1064 78.3797 36.0951 78.3788 36.0839C78.3778 36.0726 78.3729 36.062 78.3648 36.054C77.9853 35.6958 77.3004 35.1986 76.5574 35.3822C75.4326 35.6604 75.0816 36.8579 75.0816 36.8579L73.7161 40.8369C73.7083 40.8601 73.7069 40.8849 73.712 40.9087C73.717 40.9326 73.7284 40.9547 73.745 40.9727C73.7615 40.9906 73.7825 41.0038 73.8059 41.0109C73.8293 41.0179 73.8541 41.0185 73.8778 41.0127Z" fill="white"/>
<path d="M74.6484 46.696C73.3817 46.3518 71.7635 46.293 71.2685 46.28C71.2267 46.2794 71.1865 46.2634 71.1557 46.2351C71.1248 46.2069 71.1054 46.1683 71.1011 46.1266L71.087 46.0024C71.0842 45.9777 71.0868 45.9526 71.0947 45.929C71.1025 45.9054 71.1153 45.8838 71.1323 45.8656C71.8857 45.0591 72.5362 43.8221 72.6995 43.5017C72.7119 43.4775 72.7299 43.4564 72.7519 43.4404C72.774 43.4243 72.7995 43.4136 72.8264 43.4092C72.8514 43.405 72.877 43.4062 72.9015 43.4129C72.9259 43.4196 72.9486 43.4315 72.968 43.4478C72.9874 43.4641 73.003 43.4845 73.0138 43.5074C73.0245 43.5304 73.0301 43.5554 73.0302 43.5808L73.0349 44.626C73.0357 44.7559 73.0662 44.8839 73.1243 45.0001C73.1824 45.1163 73.2663 45.2176 73.3698 45.2962C73.817 45.6368 74.586 46.2546 74.8434 46.657C74.8161 46.6781 74.7843 46.6926 74.7505 46.6994C74.7167 46.7062 74.6817 46.705 74.6484 46.696Z" fill="white"/>
<path d="M65.0102 47.6688C65.2952 47.3516 65.369 47.0713 65.3742 46.8789C65.3762 46.846 65.385 46.8139 65.4002 46.7846C65.4154 46.7554 65.4366 46.7296 65.4624 46.7091C65.4883 46.6886 65.5181 46.6738 65.55 46.6656C65.582 46.6574 65.6153 46.656 65.6478 46.6615L72.756 47.8259C72.7753 47.8275 72.7931 47.8367 72.8055 47.8515C72.8179 47.8663 72.824 47.8854 72.8223 47.9046C72.8207 47.9239 72.8114 47.9417 72.7967 47.9541C72.7819 47.9665 72.7628 47.9726 72.7435 47.9709L65.1054 47.8883C65.0802 47.8877 65.0557 47.88 65.0348 47.866C65.0139 47.8519 64.9974 47.8322 64.9874 47.8091C64.9774 47.786 64.9742 47.7605 64.9783 47.7356C64.9823 47.7107 64.9934 47.6875 65.0102 47.6688Z" fill="white"/>
<path d="M65.4479 46.044L70.9478 46.784C72.722 47.0226 74.4983 47.266 76.2216 47.7662C76.3682 47.8089 76.4296 47.5801 76.2845 47.538C74.5613 47.0372 72.785 46.7938 71.0108 46.5551L65.5113 45.8152C65.3621 45.7954 65.2976 46.0232 65.4479 46.044Z" fill="white"/>
<path d="M59.7065 44.0381C59.849 43.904 59.9988 43.7563 60.1849 43.6871C60.6041 43.5311 60.929 43.9003 60.9353 44.2846C60.9389 44.5196 60.8869 44.7526 60.9499 44.985C61.0658 45.414 61.4922 45.6683 61.5468 46.1264C61.5557 46.2013 61.6742 46.2024 61.6654 46.1264C61.6253 45.7936 61.4288 45.5851 61.2494 45.3132C60.9327 44.8285 61.1927 44.346 60.9894 43.8572C60.706 43.1812 59.98 43.6164 59.6218 43.9528C59.5661 44.0048 59.6504 44.0886 59.706 44.0366L59.7065 44.0381Z" fill="white"/>
<path d="M61.5253 46.2196C61.6038 47.0178 60.5966 46.5222 60.2773 46.4307C59.9726 46.3476 59.6568 46.3125 59.3413 46.3267C59.2654 46.3267 59.2649 46.4479 59.3413 46.4453C59.699 46.4306 60.0565 46.4807 60.3964 46.593C60.6247 46.6699 60.842 46.7823 61.088 46.7817C61.426 46.7817 61.6834 46.5737 61.6491 46.2206C61.6418 46.1457 61.5232 46.1447 61.5305 46.2206L61.5253 46.2196Z" fill="white"/>
<path d="M50.2219 45.0794C49.3719 44.7943 48.4677 44.7088 47.5793 44.8298L47.6214 44.9312C48.4311 43.9469 49.5849 43.1632 50.914 43.5028C50.9287 43.5057 50.9439 43.5029 50.9566 43.4951C50.9694 43.4873 50.9786 43.4749 50.9827 43.4605C50.9867 43.4461 50.9851 43.4308 50.9782 43.4175C50.9714 43.4042 50.9598 43.394 50.9458 43.3889C49.5771 43.0363 48.3765 43.8278 47.5377 44.8475C47.5097 44.8813 47.5227 44.9562 47.5793 44.9484C48.4569 44.8279 49.3505 44.9119 50.1902 45.1938C50.263 45.2177 50.2942 45.1033 50.2219 45.0794Z" fill="white"/>
<path d="M51.5113 43.8471C51.7549 44.187 51.957 44.5548 52.1134 44.9427C52.2059 45.1798 52.4607 45.6925 52.3895 45.9338C52.3229 46.1595 52.1675 45.9479 52.0343 45.8418C51.9543 45.7778 51.8711 45.717 51.7853 45.6613C51.5337 45.5009 51.2623 45.3742 50.9778 45.2843C50.9055 45.2604 50.8738 45.3748 50.9466 45.3987C51.3803 45.5354 51.7795 45.7638 52.117 46.0685C52.2434 46.1845 52.3136 46.3207 52.4909 46.2765C52.5032 46.2727 52.5141 46.2652 52.5219 46.2549C52.5297 46.2447 52.5342 46.2322 52.5346 46.2193C52.6126 45.4196 52.0551 44.4175 51.6137 43.7894C51.57 43.7275 51.4676 43.7894 51.5097 43.8492L51.5113 43.8471Z" fill="white"/>
<path d="M49.4069 47.8023C49.6055 48.0461 49.8562 47.8574 49.968 47.639C50.2467 47.0971 50.4427 46.4908 50.6747 45.9271C50.7038 45.8564 50.5894 45.8231 50.5608 45.8954L50.1728 46.8377C50.112 46.9848 49.76 48.0493 49.4906 47.7185C49.4427 47.6598 49.359 47.744 49.4069 47.8023Z" fill="white"/>
<path d="M51.0963 45.9264C51.7858 46.3663 52.4936 46.9519 53.3407 47.0028C53.4166 47.0075 53.4166 46.889 53.3407 46.8843C52.5269 46.8354 51.8196 46.2473 51.1566 45.824C51.0921 45.7829 51.0329 45.8853 51.0968 45.928L51.0963 45.9264Z" fill="white"/>
<path d="M52.8126 41.8081L53.2348 45.2136L53.4402 46.8703C53.4891 47.2639 53.4569 47.7969 53.6259 48.1578C53.6311 48.1669 53.6387 48.1745 53.6478 48.1797C53.6569 48.1849 53.6673 48.1876 53.6779 48.1874C54.2852 48.1583 53.8099 46.5666 53.8136 46.356C53.8136 46.3403 53.8073 46.3252 53.7962 46.3141C53.7851 46.303 53.77 46.2967 53.7543 46.2967C53.7386 46.2967 53.7235 46.303 53.7124 46.3141C53.7013 46.3252 53.695 46.3403 53.695 46.356C53.6898 46.6435 53.7553 46.8859 53.811 47.1661C53.8526 47.3741 53.8151 48.3621 53.6628 47.6986C53.5198 47.0777 53.5011 46.3986 53.4231 45.7658L52.9301 41.8081C52.9208 41.7338 52.8022 41.7327 52.8121 41.8081H52.8126Z" fill="white"/>
<path d="M53.4363 45.1559C53.41 45.4252 53.4331 45.6972 53.5044 45.9582C53.5095 45.9723 53.5198 45.9839 53.533 45.9907C53.5463 45.9976 53.5617 45.9991 53.5761 45.9951C53.5905 45.9911 53.6028 45.9818 53.6107 45.9691C53.6185 45.9564 53.6212 45.9412 53.6183 45.9265C53.5506 45.6756 53.5291 45.4145 53.5549 45.1559C53.5622 45.0799 53.4436 45.0805 53.4363 45.1559Z" fill="white"/>
<path d="M54.7555 46.6242C54.6375 46.8983 54.0651 47.8203 54.6516 47.9331C54.7259 47.9472 54.7555 47.8328 54.6828 47.8187C54.2783 47.7423 54.7659 46.9009 54.8595 46.684C54.8892 46.6148 54.7873 46.5545 54.7555 46.6242Z" fill="white"/>
<path d="M56.8785 42.315C56.2015 43.7492 55.5897 45.2111 55.043 46.7007C55.0165 46.7725 55.1309 46.8047 55.1574 46.7324C55.6999 45.2528 56.3078 43.8003 56.981 42.3748C57.0132 42.3062 56.9113 42.2464 56.877 42.315H56.8785Z" fill="white"/>
<path d="M55.5739 44.7921C55.4388 45.1787 55.2785 45.556 55.0939 45.9215C55.0595 45.9891 55.1615 46.0494 55.1979 45.9813C55.3867 45.6068 55.5504 45.2201 55.6878 44.8238C55.7133 44.752 55.5988 44.7198 55.5739 44.7926V44.7921Z" fill="white"/>
<path d="M54.7169 44.9174L56.1506 43.6652C56.2083 43.6132 56.1241 43.5316 56.0669 43.5815L54.6326 44.8336C54.5749 44.8856 54.6592 44.9673 54.7164 44.9174H54.7169Z" fill="white"/>
<path d="M57.3948 43.2534L57.905 43.4655C57.9753 43.4946 58.006 43.3802 57.9368 43.3511L57.426 43.1395C57.3558 43.1104 57.3251 43.2248 57.3948 43.2534Z" fill="white"/>
<path d="M58.4965 43.5393C58.6535 44.3249 58.841 45.1026 59.0587 45.8725C59.0628 45.8877 59.0728 45.9006 59.0865 45.9084C59.1001 45.9162 59.1163 45.9183 59.1315 45.9142C59.1467 45.91 59.1596 45.9 59.1674 45.8864C59.1752 45.8727 59.1772 45.8565 59.1731 45.8414C58.9554 45.0707 58.7678 44.293 58.6104 43.5081C58.5958 43.4332 58.4814 43.465 58.4965 43.5393Z" fill="white"/>
<path d="M58.0899 45.6173C57.9216 45.5 57.7617 45.3711 57.6114 45.2315C57.5895 45.2113 57.5756 45.1839 57.5721 45.1543C57.5687 45.1248 57.576 45.0949 57.5927 45.0703C57.8044 44.7515 58.0545 44.1936 58.1788 43.9034C58.184 43.8929 58.1924 43.8842 58.2028 43.8788C58.2132 43.8734 58.2251 43.8714 58.2367 43.8732C58.2484 43.875 58.2591 43.8805 58.2674 43.8888C58.2757 43.8971 58.2811 43.9079 58.2828 43.9195C58.3187 44.2419 58.3702 44.8997 58.287 45.5315C58.2838 45.5527 58.2752 45.5728 58.2621 45.5899C58.2491 45.6069 58.2319 45.6203 58.2122 45.6289C58.1925 45.6375 58.1709 45.6409 58.1495 45.6389C58.1281 45.6369 58.1076 45.6294 58.0899 45.6173Z" fill="white"/>
<path d="M52.3204 41.34C51.2996 43.3508 50.2607 45.3923 49.4921 47.5144C49.4661 47.5862 49.5805 47.6184 49.606 47.5461C50.3714 45.4339 51.4067 43.4013 52.4223 41.3998C52.4566 41.3322 52.3547 41.2719 52.3183 41.34H52.3204Z" fill="white"/>
<path d="M48.4443 44.4012L49.0007 44.6191L50.8473 43.732L50.1135 43.5708C50.1135 43.5708 49.0252 44.0222 48.4443 44.4012Z" fill="white"/>
<path d="M50.7743 44.0947L49.9756 44.4899L50.0728 44.6912L50.6854 44.2492L50.7743 44.0947Z" fill="white"/>
<path d="M51.4666 44.3281L51.7651 45.0452C51.7937 45.1144 51.9087 45.0842 51.879 45.0135L51.581 44.2964C51.5519 44.2273 51.4375 44.2574 51.4666 44.3281Z" fill="white"/>
<path d="M54.7373 45.2153L55.2698 45.6397L55.432 45.3303L55.1445 45.2153H54.7373Z" fill="white"/>
<path d="M55.7419 45.5488L55.5906 45.8749C55.5906 45.8749 56.2619 46.3044 56.25 46.8665C56.238 47.4286 54.9963 47.2159 54.9963 47.2159L54.8574 47.3428C54.8574 47.3428 57.1558 47.9933 58.0621 47.7921C58.09 47.7854 58.116 47.7723 58.1379 47.7538C58.1598 47.7352 58.177 47.7118 58.1882 47.6854C58.1993 47.6589 58.2041 47.6302 58.202 47.6016C58.2 47.573 58.1913 47.5452 58.1765 47.5206C58.0823 47.3829 57.9662 47.2615 57.8328 47.1613C57.3201 46.7479 55.7419 45.5488 55.7419 45.5488Z" fill="white"/>
<path d="M53.8789 46.9434L54.5975 47.1373L54.4894 47.2647L53.8789 47.2023V46.9434Z" fill="white"/>
<path d="M60.9061 43.9275C60.9061 43.9275 61.3471 44.0747 61.9981 45.2614C62.0447 45.3456 62.107 45.4201 62.1816 45.4808L62.3376 45.6113C62.4651 45.7158 62.6228 45.7767 62.7874 45.785L64.6864 45.8817C64.6998 45.8825 64.7132 45.8806 64.7258 45.876C64.7384 45.8714 64.7499 45.8643 64.7596 45.8551C64.7694 45.8459 64.7771 45.8348 64.7824 45.8224C64.7877 45.8101 64.7904 45.7969 64.7904 45.7835C64.7905 45.7656 64.7858 45.7481 64.7766 45.7327C64.7674 45.7174 64.7542 45.7049 64.7384 45.6966C64.2964 45.4694 61.2181 43.8865 60.7725 43.6587L60.9061 43.9275Z" fill="white"/>
<path d="M76.2524 50.0663C76.0618 50.3636 75.9074 50.6827 75.7927 51.0168C75.7262 51.2159 75.5877 51.3828 75.4043 51.4848L75.333 51.5238C75.2705 51.5585 75.2037 51.5849 75.1344 51.6023C74.2026 51.8358 67.2023 53.6085 62.4714 55.3151C62.2096 55.4098 61.9458 55.4965 61.6799 55.5751L59.5146 56.2345L59.8209 55.6859C59.8209 55.6859 62.6716 54.8638 64.7942 54.154L75.0616 51.3231C75.1571 51.297 75.2472 51.2539 75.3273 51.1957C75.4374 51.1171 75.5266 51.0129 75.5873 50.892C75.7022 50.6606 75.9087 50.2555 76.0917 49.9602C76.1042 49.9397 76.1242 49.9248 76.1474 49.9186C76.1665 49.9128 76.187 49.9132 76.2059 49.9197C76.2248 49.9262 76.2412 49.9385 76.2528 49.9548C76.2644 49.9711 76.2706 49.9906 76.2705 50.0106C76.2705 50.0306 76.2641 50.0501 76.2524 50.0663Z" fill="white"/>
<path d="M59.1408 56.3041C59.157 56.2987 59.1713 56.2885 59.1818 56.2749C59.1922 56.2613 59.1984 56.2449 59.1994 56.2277C59.2004 56.2106 59.1962 56.1936 59.1874 56.1788C59.1787 56.1641 59.1657 56.1523 59.1501 56.145C58.0984 55.6784 56.9394 55.5072 55.7977 55.65C54.1113 55.8621 53.1847 56.5392 52.9101 56.7716C52.8826 56.7949 52.8605 56.8239 52.8453 56.8565C52.8302 56.8892 52.8223 56.9248 52.8223 56.9609C52.8222 57.017 52.8413 57.0715 52.8762 57.1154C52.9112 57.1593 52.96 57.1901 53.0147 57.2027C53.7161 57.3633 56.1487 57.8979 57.1892 57.8266C57.2079 57.8252 57.2253 57.8167 57.2379 57.8029C57.2506 57.7891 57.2575 57.771 57.2573 57.7523C57.2574 57.7354 57.2517 57.719 57.2412 57.7058C57.2307 57.6925 57.2161 57.6833 57.1996 57.6795C56.95 57.6233 55.9761 57.3675 55.9833 56.7955C55.9906 56.2116 58.4315 56.3041 58.951 56.3307C59.0153 56.3338 59.0796 56.3249 59.1408 56.3047V56.3041Z" fill="white"/>
<path d="M59.5155 57.8905L67.4513 58.8026L80.0909 60.2555L82.98 60.5872C83.0554 60.5961 83.0549 60.4775 82.98 60.4687L75.0443 59.5571L62.4047 58.1042L59.5155 57.7724C59.4396 57.7636 59.4407 57.8822 59.5155 57.8905Z" fill="white"/>
<path d="M79.027 47.9555L78.7368 49.3122C78.7212 49.3865 78.8351 49.4162 78.8512 49.3439L79.1414 47.9867C79.1575 47.9123 79.0431 47.8827 79.027 47.9555Z" fill="white"/>
<path d="M78.5206 50.6738L77.6251 54.2228C77.621 54.2379 77.6231 54.2541 77.6309 54.2678C77.6387 54.2814 77.6516 54.2914 77.6667 54.2956C77.6819 54.2997 77.6981 54.2976 77.7118 54.2898C77.7254 54.282 77.7354 54.2691 77.7395 54.254L78.6345 50.705C78.6371 50.6904 78.6342 50.6754 78.6263 50.6629C78.6184 50.6504 78.6061 50.6413 78.5918 50.6374C78.5776 50.6335 78.5624 50.635 78.5492 50.6418C78.536 50.6485 78.5258 50.6599 78.5206 50.6738Z" fill="white"/>
<path d="M77.2866 55.1665L76.739 57.5855C76.7223 57.6599 76.8362 57.6895 76.8534 57.6172L77.401 55.1982C77.4177 55.1238 77.3032 55.0942 77.2866 55.1665Z" fill="white"/>
<path d="M81.9069 46.644L81.4472 49.4827C81.4352 49.5571 81.5512 49.5867 81.5616 49.5145L82.0213 46.6758C82.0333 46.6009 81.9173 46.5686 81.9069 46.644Z" fill="white"/>
<path d="M80.5519 53.2067L80.0922 55.4561C80.0771 55.5305 80.1915 55.5601 80.2066 55.4878L80.6663 53.2384C80.6814 53.164 80.5675 53.1318 80.5519 53.2067Z" fill="white"/>
<path d="M83.0679 49.4815L81.2562 54.8999C81.2323 54.9727 81.3467 55.0039 81.3706 54.9316L83.1802 49.5132C83.2046 49.4404 83.0902 49.4092 83.0658 49.4815H83.0679Z" fill="white"/>
<path d="M79.9036 53.0486L79.5646 53.628C79.5567 53.6418 79.5546 53.6581 79.5587 53.6735C79.5629 53.6889 79.5729 53.7019 79.5867 53.7099C79.6005 53.7178 79.6169 53.7199 79.6322 53.7158C79.6476 53.7116 79.6607 53.7016 79.6686 53.6878L80.0071 53.1084C80.0151 53.0947 80.0172 53.0783 80.013 53.0629C80.0089 53.0476 79.9988 53.0345 79.985 53.0265C79.9712 53.0186 79.9549 53.0165 79.9395 53.0206C79.9241 53.0248 79.9111 53.0348 79.9031 53.0486H79.9036Z" fill="white"/>
<path d="M77.6308 57.2327L77.1711 58.0309C77.1671 58.0377 77.1646 58.0453 77.1636 58.0531C77.1626 58.0609 77.1631 58.0688 77.1652 58.0764C77.1672 58.0841 77.1707 58.0912 77.1756 58.0974C77.1804 58.1037 77.1863 58.1089 77.1932 58.1128C77.2 58.1168 77.2075 58.1193 77.2154 58.1203C77.2232 58.1213 77.2311 58.1208 77.2387 58.1187C77.2463 58.1167 77.2534 58.1131 77.2597 58.1083C77.2659 58.1035 77.2711 58.0976 77.2751 58.0907L77.7342 57.2925C77.7422 57.2787 77.7443 57.2623 77.7402 57.247C77.736 57.2316 77.7259 57.2185 77.7121 57.2106C77.6983 57.2027 77.682 57.2006 77.6666 57.2047C77.6513 57.2089 77.6382 57.2189 77.6302 57.2327H77.6308Z" fill="white"/>
<path d="M75.4522 51.8886C75.6484 52.0321 75.3727 52.3124 75.3342 52.4653C75.3213 52.5113 75.3188 52.5597 75.3269 52.6068C75.335 52.6539 75.3535 52.6986 75.381 52.7378C75.4242 52.8002 75.5266 52.7409 75.485 52.678C75.3451 52.4752 75.6182 52.2646 75.6411 52.0581C75.6476 52.0057 75.6393 51.9526 75.6173 51.9046C75.5952 51.8567 75.5602 51.8158 75.5162 51.7867C75.4543 51.7414 75.3955 51.8439 75.4564 51.8907L75.4522 51.8886Z" fill="white"/>
<path d="M75.5202 53.5154C75.7433 53.4342 76.0226 53.3303 76.2482 53.4706C76.4843 53.6194 76.4952 53.9355 76.4911 54.183C76.4925 54.1977 76.4993 54.2114 76.5102 54.2213C76.5211 54.2312 76.5353 54.2367 76.5501 54.2367C76.5649 54.2367 76.5791 54.2312 76.59 54.2213C76.6009 54.2114 76.6077 54.1977 76.6091 54.183C76.6143 53.9064 76.5915 53.5897 76.3569 53.403C76.1011 53.2003 75.7667 53.299 75.4916 53.403C75.4204 53.429 75.4511 53.5434 75.5228 53.5174L75.5202 53.5154Z" fill="white"/>
<path d="M75.6086 54.0119C75.62 54.2381 75.7885 54.4477 76.0324 54.4186C76.0844 54.4134 76.1343 54.3952 76.1774 54.3656C76.2206 54.3361 76.2556 54.2962 76.2793 54.2496C76.3031 54.203 76.3147 54.1512 76.3132 54.0989C76.3116 54.0467 76.297 53.9956 76.2706 53.9505C76.2626 53.9367 76.2496 53.9266 76.2342 53.9225C76.2188 53.9183 76.2025 53.9205 76.1887 53.9284C76.1749 53.9363 76.1648 53.9494 76.1607 53.9648C76.1565 53.9801 76.1586 53.9965 76.1666 54.0103C76.1841 54.0412 76.1929 54.0762 76.192 54.1117C76.1912 54.1472 76.1807 54.1818 76.1618 54.2118C76.1428 54.2418 76.1161 54.2661 76.0844 54.2821C76.0528 54.2981 76.0174 54.3052 75.982 54.3026C75.826 54.2979 75.7324 54.1549 75.7251 54.0108C75.7215 53.9349 75.6029 53.9349 75.6065 54.0108L75.6086 54.0119Z" fill="white"/>
<path d="M75.0813 54.1417C75.0932 54.3109 75.1578 54.4721 75.2661 54.6027C75.3744 54.7333 75.5209 54.8266 75.685 54.8696C75.7002 54.8738 75.7164 54.8718 75.7301 54.8641C75.7438 54.8563 75.7539 54.8435 75.7581 54.8283C75.7623 54.8131 75.7603 54.7969 75.7525 54.7832C75.7448 54.7695 75.7319 54.7594 75.7167 54.7552C75.5774 54.7197 75.4527 54.6415 75.36 54.5316C75.2674 54.4217 75.2114 54.2855 75.1999 54.1422C75.1931 54.0668 75.0746 54.0663 75.0813 54.1422V54.1417Z" fill="white"/>
<defs>
<linearGradient id="paint0_linear_463_25653" x1="52.4994" y1="32.0322" x2="52.4994" y2="71.9681" gradientUnits="userSpaceOnUse">
<stop stop-color="#4551A8"/>
<stop offset="1" stop-color="#3E88C5"/>
</linearGradient>
<linearGradient id="paint1_linear_463_25653" x1="41.5431" y1="57.6309" x2="41.5431" y2="62.2188" gradientUnits="userSpaceOnUse">
<stop stop-color="#4551A8"/>
<stop offset="1" stop-color="#3E88C5"/>
</linearGradient>
<linearGradient id="paint2_linear_463_25653" x1="51.6938" y1="57.2546" x2="51.8631" y2="64.1826" gradientUnits="userSpaceOnUse">
<stop stop-color="#4551A8"/>
<stop offset="1" stop-color="#3E88C5"/>
</linearGradient>
<linearGradient id="paint3_linear_463_25653" x1="49.0773" y1="57.4853" x2="51.2699" y2="64.3393" gradientUnits="userSpaceOnUse">
<stop stop-color="#4551A8"/>
<stop offset="1" stop-color="#3E88C5"/>
</linearGradient>
<linearGradient id="paint4_linear_463_25653" x1="44.2752" y1="57.8329" x2="50.4616" y2="66.0813" gradientUnits="userSpaceOnUse">
<stop stop-color="#4551A8"/>
<stop offset="1" stop-color="#3E88C5"/>
</linearGradient>
<linearGradient id="paint5_linear_463_25653" x1="78.0623" y1="51.3035" x2="78.5214" y2="51.4204" gradientUnits="userSpaceOnUse">
<stop stop-color="#4551A8"/>
<stop offset="1" stop-color="#3E88C5"/>
</linearGradient>
<linearGradient id="paint6_linear_463_25653" x1="80.8265" y1="51.4469" x2="81.2903" y2="51.5437" gradientUnits="userSpaceOnUse">
<stop stop-color="#4551A8"/>
<stop offset="1" stop-color="#3E88C5"/>
</linearGradient>
<linearGradient id="paint7_linear_463_25653" x1="80.6999" y1="43.8145" x2="80.6999" y2="59.5118" gradientUnits="userSpaceOnUse">
<stop stop-color="#4551A8"/>
<stop offset="1" stop-color="#3E88C5"/>
</linearGradient>
<linearGradient id="paint8_linear_463_25653" x1="52.1995" y1="40.146" x2="52.1995" y2="45.3569" gradientUnits="userSpaceOnUse">
<stop stop-color="#4551A8"/>
<stop offset="1" stop-color="#3E88C5"/>
</linearGradient>
<linearGradient id="paint9_linear_463_25653" x1="56.545" y1="42.4994" x2="56.979" y2="42.6894" gradientUnits="userSpaceOnUse">
<stop stop-color="#4551A8"/>
<stop offset="1" stop-color="#3E88C5"/>
</linearGradient>
<linearGradient id="paint10_linear_463_25653" x1="41.8695" y1="37.8555" x2="41.8695" y2="46.307" gradientUnits="userSpaceOnUse">
<stop stop-color="#4551A8"/>
<stop offset="1" stop-color="#3E88C5"/>
</linearGradient>
<linearGradient id="paint11_linear_463_25653" x1="44.0768" y1="39.6256" x2="45.4711" y2="45.5471" gradientUnits="userSpaceOnUse">
<stop stop-color="#4551A8"/>
<stop offset="1" stop-color="#3E88C5"/>
</linearGradient>
<radialGradient id="paint12_radial_463_25653" cx="0" cy="0" r="1" gradientUnits="userSpaceOnUse" gradientTransform="translate(22.2994 47.4871) rotate(-120.266) scale(15.7053 2.47481)">
<stop stop-color="#8F8AD2"/>
<stop offset="1" stop-color="#4267B2"/>
</radialGradient>
<radialGradient id="paint13_radial_463_25653" cx="0" cy="0" r="1" gradientUnits="userSpaceOnUse" gradientTransform="translate(28.3582 48.0893) rotate(-115.731) scale(17.1125 50.5508)">
<stop stop-color="#8F8AD2"/>
<stop offset="1" stop-color="#4267B2"/>
</radialGradient>
<radialGradient id="paint14_radial_463_25653" cx="0" cy="0" r="1" gradientUnits="userSpaceOnUse" gradientTransform="translate(25.0748 36.4153) rotate(93.7625) scale(12.6039 2.52839)">
<stop stop-color="#8F8AD2"/>
<stop offset="1" stop-color="#4267B2"/>
</radialGradient>
</defs>
</svg>
