<svg width="20" height="14" viewBox="0 0 20 14" fill="none" xmlns="http://www.w3.org/2000/svg">
<path fill-rule="evenodd" clip-rule="evenodd" d="M17 14L3 14C1.34315 14 8.34465e-07 12.6569 7.15256e-07 11L8.34465e-07 5L0 3C-1.19209e-07 1.34315 1.34315 1.43051e-06 3 1.43051e-06L17 0C18.6569 0 20 1.34315 20 3V11C20 12.6569 18.6569 14 17 14ZM2 4V3C2 2.44772 2.44771 2 3 2L17 2C17.5523 2 18 2.44771 18 3V4H2ZM2 6H18V11C18 11.5523 17.5523 12 17 12L3 12C2.44772 12 2 11.5523 2 11L2 6ZM3 9C3 8.44772 3.44772 8 4 8H8C8.55229 8 9 8.44772 9 9C9 9.55229 8.55229 10 8 10H4C3.44772 10 3 9.55229 3 9Z" fill="#9A9A9A"/>
</svg>
