<svg width="12" height="12" viewBox="0 0 12 12" fill="none" xmlns="http://www.w3.org/2000/svg">
<path d="M9.27273 6C9.27273 7.80748 7.80748 9.27273 6 9.27273C4.19252 9.27273 2.72727 7.80748 2.72727 6C2.72727 4.19252 4.19252 2.72727 6 2.72727C7.80748 2.72727 9.27273 4.19252 9.27273 6Z" fill="#B2B2B2"/>
<path fill-rule="evenodd" clip-rule="evenodd" d="M1.75785 1.75777C1.97087 1.54476 2.31623 1.54476 2.52924 1.75777L3.30063 2.52916C3.51365 2.74217 3.51365 3.08754 3.30063 3.30055C3.08762 3.51356 2.74226 3.51356 2.52924 3.30055L1.75785 2.52916C1.54484 2.31615 1.54484 1.97078 1.75785 1.75777Z" fill="#B2B2B2"/>
<path fill-rule="evenodd" clip-rule="evenodd" d="M8.69962 8.69953C8.91263 8.48652 9.25799 8.48652 9.471 8.69953L10.2424 9.47092C10.4554 9.68394 10.4554 10.0293 10.2424 10.2423C10.0294 10.4553 9.68402 10.4553 9.471 10.2423L8.69962 9.47092C8.4866 9.25791 8.4866 8.91255 8.69962 8.69953Z" fill="#B2B2B2"/>
<path fill-rule="evenodd" clip-rule="evenodd" d="M10.2422 1.75785C10.4552 1.97087 10.4552 2.31623 10.2422 2.52924L9.47084 3.30063C9.25783 3.51365 8.91246 3.51365 8.69945 3.30063C8.48644 3.08762 8.48644 2.74226 8.69945 2.52924L9.47084 1.75785C9.68385 1.54484 10.0292 1.54484 10.2422 1.75785Z" fill="#B2B2B2"/>
<path fill-rule="evenodd" clip-rule="evenodd" d="M3.30047 8.69962C3.51348 8.91263 3.51348 9.25799 3.30047 9.471L2.52908 10.2424C2.31607 10.4554 1.9707 10.4554 1.75769 10.2424C1.54468 10.0294 1.54468 9.68402 1.75769 9.471L2.52908 8.69962C2.74209 8.4866 3.08745 8.4866 3.30047 8.69962Z" fill="#B2B2B2"/>
<path fill-rule="evenodd" clip-rule="evenodd" d="M6 0C6.30125 0 6.54545 0.244208 6.54545 0.545455V1.63636C6.54545 1.93761 6.30125 2.18182 6 2.18182C5.69875 2.18182 5.45455 1.93761 5.45455 1.63636V0.545455C5.45455 0.244208 5.69875 0 6 0Z" fill="#B2B2B2"/>
<path fill-rule="evenodd" clip-rule="evenodd" d="M6 9.81818C6.30125 9.81818 6.54545 10.0624 6.54545 10.3636V11.4545C6.54545 11.7558 6.30125 12 6 12C5.69875 12 5.45455 11.7558 5.45455 11.4545V10.3636C5.45455 10.0624 5.69875 9.81818 6 9.81818Z" fill="#B2B2B2"/>
<path fill-rule="evenodd" clip-rule="evenodd" d="M12 6C12 6.30125 11.7558 6.54545 11.4545 6.54545H10.3636C10.0624 6.54545 9.81818 6.30125 9.81818 6C9.81818 5.69875 10.0624 5.45455 10.3636 5.45455H11.4545C11.7558 5.45455 12 5.69875 12 6Z" fill="#B2B2B2"/>
<path fill-rule="evenodd" clip-rule="evenodd" d="M2.18182 6C2.18182 6.30125 1.93761 6.54545 1.63636 6.54545H0.545455C0.244208 6.54545 0 6.30125 0 6C0 5.69875 0.244208 5.45455 0.545455 5.45455H1.63636C1.93761 5.45455 2.18182 5.69875 2.18182 6Z" fill="#B2B2B2"/>
</svg>
