<svg width="24" height="24" viewBox="0 0 24 24" fill="none" xmlns="http://www.w3.org/2000/svg">
<path fill-rule="evenodd" clip-rule="evenodd" d="M24 12C24 18.6274 18.6274 24 12 24C5.37258 24 0 18.6274 0 12C0 5.37258 5.37258 0 12 0C18.6274 0 24 5.37258 24 12ZM12.43 8.85887C11.2628 9.34434 8.93014 10.3491 5.43189 11.8733C4.86383 12.0992 4.56626 12.3202 4.53917 12.5362C4.49339 12.9014 4.95071 13.0452 5.57347 13.2411C5.65818 13.2677 5.74595 13.2953 5.83594 13.3245C6.44864 13.5237 7.27283 13.7567 7.70129 13.766C8.08994 13.7744 8.52373 13.6141 9.00264 13.2853C12.2712 11.0789 13.9584 9.96375 14.0643 9.93971C14.139 9.92275 14.2426 9.90142 14.3128 9.96379C14.3829 10.0261 14.376 10.1443 14.3686 10.1759C14.3233 10.3691 12.5281 12.038 11.5991 12.9017C11.3095 13.171 11.1041 13.362 11.0621 13.4056C10.968 13.5033 10.8721 13.5957 10.78 13.6845C10.2108 14.2333 9.78391 14.6448 10.8036 15.3167C11.2936 15.6396 11.6858 15.9067 12.077 16.1731C12.5042 16.464 12.9303 16.7542 13.4816 17.1156C13.6221 17.2077 13.7562 17.3033 13.8869 17.3965C14.3841 17.7509 14.8307 18.0694 15.3826 18.0186C15.7032 17.9891 16.0345 17.6875 16.2027 16.7883C16.6002 14.6631 17.3816 10.0584 17.5622 8.16091C17.578 7.99467 17.5581 7.78191 17.5422 7.68851C17.5262 7.59512 17.4928 7.46205 17.3714 7.36354C17.2276 7.24688 17.0056 7.22227 16.9064 7.22402C16.455 7.23197 15.7626 7.47276 12.43 8.85887Z" fill="black"/>
</svg>
