<svg width="24" height="24" viewBox="0 0 24 24" fill="none" xmlns="http://www.w3.org/2000/svg">
<g clip-path="url(#clip0_696_87664)">
<path d="M12.0389 0C18.2077 0.0756348 23.3679 4.74666 23.9437 10.8191C24.5335 17.0319 20.4155 22.5586 14.2586 23.7656C11.3939 24.3274 8.67417 23.8736 6.11032 22.4636C5.86474 22.3422 5.58619 22.3043 5.31703 22.3555C4.59517 22.5014 3.88737 22.7164 3.17201 22.8958C1.85166 23.2275 0.828933 22.2259 1.13954 20.8925C1.30188 20.1934 1.53348 19.5095 1.68066 18.8071C1.7392 18.5378 1.70686 18.2567 1.58867 18.0076C-2.49899 10.7099 1.66876 1.75365 9.89062 0.216099C10.5962 0.0853593 11.3181 0.0691518 12.0389 0ZM2.82136 21.2404C3.61032 21.0297 4.32027 20.8633 5.01508 20.6461C5.31178 20.5442 5.62774 20.5107 5.93926 20.5482C6.25078 20.5856 6.54976 20.693 6.81378 20.8622C9.06486 22.1967 11.5075 22.5759 14.0497 22.0443C19.5021 20.9055 22.9242 15.9406 22.1222 10.4139C21.303 4.72938 15.5638 0.757458 9.92742 1.97518C2.9772 3.48031 -0.411327 11.1194 3.16551 17.2491C3.52698 17.8693 3.64495 18.4603 3.41768 19.1453C3.20123 19.8044 3.03456 20.4797 2.82136 21.2404Z" fill="black"/>
<path d="M14.6141 16.729C12.9604 16.5691 11.5924 15.9013 10.3695 14.8921C9.26317 13.9651 8.31631 12.8635 7.56643 11.6312C7.08423 10.8582 6.91946 9.92925 7.10648 9.03797C7.20835 8.60299 7.41573 8.19965 7.71037 7.86346C8.34565 7.12116 9.18115 7.26057 9.61405 8.13037C9.77423 8.45452 9.92574 8.77866 10.0762 9.10281C10.285 9.55662 10.3024 10.0115 10.0296 10.4426C9.66492 11.0207 9.74176 11.5598 10.1151 12.1001C10.6501 12.895 11.379 13.5409 12.2331 13.9769C12.7894 14.2578 13.3024 14.2125 13.7883 13.8116C14.6021 13.1396 16.0827 13.387 16.6606 14.287C17.0729 14.9299 16.8705 15.8181 16.1195 16.2319C15.666 16.4869 15.1184 16.5701 14.6141 16.729Z" fill="black"/>
</g>
<defs>
<clipPath id="clip0_696_87664">
<rect width="24" height="24" fill="white"/>
</clipPath>
</defs>
</svg>
